<?xml version="1.0" encoding="utf-8" standalone="no"?>
<!DOCTYPE svg PUBLIC "-//W3C//DTD SVG 1.1//EN"
  "http://www.w3.org/Graphics/SVG/1.1/DTD/svg11.dtd">
<svg xmlns:xlink="http://www.w3.org/1999/xlink" width="864pt" height="360pt" viewBox="0 0 864 360" xmlns="http://www.w3.org/2000/svg" version="1.1">
 <metadata>
  <rdf:RDF xmlns:dc="http://purl.org/dc/elements/1.1/" xmlns:cc="http://creativecommons.org/ns#" xmlns:rdf="http://www.w3.org/1999/02/22-rdf-syntax-ns#">
   <cc:Work>
    <dc:type rdf:resource="http://purl.org/dc/dcmitype/StillImage"/>
    <dc:date>2023-08-03T16:48:27.904276</dc:date>
    <dc:format>image/svg+xml</dc:format>
    <dc:creator>
     <cc:Agent>
      <dc:title>Matplotlib v3.7.1, https://matplotlib.org/</dc:title>
     </cc:Agent>
    </dc:creator>
   </cc:Work>
  </rdf:RDF>
 </metadata>
 <defs>
  <style type="text/css">*{stroke-linejoin: round; stroke-linecap: butt}</style>
 </defs>
 <g id="figure_1">
  <g id="patch_1">
   <path d="M 0 360 
L 864 360 
L 864 0 
L 0 0 
z
" style="fill: #ffffff"/>
  </g>
  <g id="axes_1">
   <g id="patch_2">
    <path d="M 108 320.4 
L 777.6 320.4 
L 777.6 43.2 
L 108 43.2 
z
" style="fill: #ffffff"/>
   </g>
   <g id="matplotlib.axis_1">
    <g id="xtick_1">
     <g id="line2d_1">
      <defs>
       <path id="m1c1809bf89" d="M 0 0 
L 0 3.5 
" style="stroke: #000000; stroke-width: 0.8"/>
      </defs>
      <g>
       <use xlink:href="#m1c1809bf89" x="138.436364" y="320.4" style="stroke: #000000; stroke-width: 0.8"/>
      </g>
     </g>
     <g id="text_1">
      <!-- 2022-01-01 -->
      <g transform="translate(109.378551 334.998438) scale(0.1 -0.1)">
       <defs>
        <path id="DejaVuSans-32" d="M 1228 531 
L 3431 531 
L 3431 0 
L 469 0 
L 469 531 
Q 828 903 1448 1529 
Q 2069 2156 2228 2338 
Q 2531 2678 2651 2914 
Q 2772 3150 2772 3378 
Q 2772 3750 2511 3984 
Q 2250 4219 1831 4219 
Q 1534 4219 1204 4116 
Q 875 4013 500 3803 
L 500 4441 
Q 881 4594 1212 4672 
Q 1544 4750 1819 4750 
Q 2544 4750 2975 4387 
Q 3406 4025 3406 3419 
Q 3406 3131 3298 2873 
Q 3191 2616 2906 2266 
Q 2828 2175 2409 1742 
Q 1991 1309 1228 531 
z
" transform="scale(0.015625)"/>
        <path id="DejaVuSans-30" d="M 2034 4250 
Q 1547 4250 1301 3770 
Q 1056 3291 1056 2328 
Q 1056 1369 1301 889 
Q 1547 409 2034 409 
Q 2525 409 2770 889 
Q 3016 1369 3016 2328 
Q 3016 3291 2770 3770 
Q 2525 4250 2034 4250 
z
M 2034 4750 
Q 2819 4750 3233 4129 
Q 3647 3509 3647 2328 
Q 3647 1150 3233 529 
Q 2819 -91 2034 -91 
Q 1250 -91 836 529 
Q 422 1150 422 2328 
Q 422 3509 836 4129 
Q 1250 4750 2034 4750 
z
" transform="scale(0.015625)"/>
        <path id="DejaVuSans-2d" d="M 313 2009 
L 1997 2009 
L 1997 1497 
L 313 1497 
L 313 2009 
z
" transform="scale(0.015625)"/>
        <path id="DejaVuSans-31" d="M 794 531 
L 1825 531 
L 1825 4091 
L 703 3866 
L 703 4441 
L 1819 4666 
L 2450 4666 
L 2450 531 
L 3481 531 
L 3481 0 
L 794 0 
L 794 531 
z
" transform="scale(0.015625)"/>
       </defs>
       <use xlink:href="#DejaVuSans-32"/>
       <use xlink:href="#DejaVuSans-30" x="63.623047"/>
       <use xlink:href="#DejaVuSans-32" x="127.246094"/>
       <use xlink:href="#DejaVuSans-32" x="190.869141"/>
       <use xlink:href="#DejaVuSans-2d" x="254.492188"/>
       <use xlink:href="#DejaVuSans-30" x="290.576172"/>
       <use xlink:href="#DejaVuSans-31" x="354.199219"/>
       <use xlink:href="#DejaVuSans-2d" x="417.822266"/>
       <use xlink:href="#DejaVuSans-30" x="453.90625"/>
       <use xlink:href="#DejaVuSans-31" x="517.529297"/>
      </g>
     </g>
    </g>
    <g id="xtick_2">
     <g id="line2d_2">
      <g>
       <use xlink:href="#m1c1809bf89" x="219.712884" y="320.4" style="stroke: #000000; stroke-width: 0.8"/>
      </g>
     </g>
     <g id="text_2">
      <!-- 2022-01-03 -->
      <g transform="translate(190.655072 334.998438) scale(0.1 -0.1)">
       <defs>
        <path id="DejaVuSans-33" d="M 2597 2516 
Q 3050 2419 3304 2112 
Q 3559 1806 3559 1356 
Q 3559 666 3084 287 
Q 2609 -91 1734 -91 
Q 1441 -91 1130 -33 
Q 819 25 488 141 
L 488 750 
Q 750 597 1062 519 
Q 1375 441 1716 441 
Q 2309 441 2620 675 
Q 2931 909 2931 1356 
Q 2931 1769 2642 2001 
Q 2353 2234 1838 2234 
L 1294 2234 
L 1294 2753 
L 1863 2753 
Q 2328 2753 2575 2939 
Q 2822 3125 2822 3475 
Q 2822 3834 2567 4026 
Q 2313 4219 1838 4219 
Q 1578 4219 1281 4162 
Q 984 4106 628 3988 
L 628 4550 
Q 988 4650 1302 4700 
Q 1616 4750 1894 4750 
Q 2613 4750 3031 4423 
Q 3450 4097 3450 3541 
Q 3450 3153 3228 2886 
Q 3006 2619 2597 2516 
z
" transform="scale(0.015625)"/>
       </defs>
       <use xlink:href="#DejaVuSans-32"/>
       <use xlink:href="#DejaVuSans-30" x="63.623047"/>
       <use xlink:href="#DejaVuSans-32" x="127.246094"/>
       <use xlink:href="#DejaVuSans-32" x="190.869141"/>
       <use xlink:href="#DejaVuSans-2d" x="254.492188"/>
       <use xlink:href="#DejaVuSans-30" x="290.576172"/>
       <use xlink:href="#DejaVuSans-31" x="354.199219"/>
       <use xlink:href="#DejaVuSans-2d" x="417.822266"/>
       <use xlink:href="#DejaVuSans-30" x="453.90625"/>
       <use xlink:href="#DejaVuSans-33" x="517.529297"/>
      </g>
     </g>
    </g>
    <g id="xtick_3">
     <g id="line2d_3">
      <g>
       <use xlink:href="#m1c1809bf89" x="300.989404" y="320.4" style="stroke: #000000; stroke-width: 0.8"/>
      </g>
     </g>
     <g id="text_3">
      <!-- 2022-01-05 -->
      <g transform="translate(271.931592 334.998438) scale(0.1 -0.1)">
       <defs>
        <path id="DejaVuSans-35" d="M 691 4666 
L 3169 4666 
L 3169 4134 
L 1269 4134 
L 1269 2991 
Q 1406 3038 1543 3061 
Q 1681 3084 1819 3084 
Q 2600 3084 3056 2656 
Q 3513 2228 3513 1497 
Q 3513 744 3044 326 
Q 2575 -91 1722 -91 
Q 1428 -91 1123 -41 
Q 819 9 494 109 
L 494 744 
Q 775 591 1075 516 
Q 1375 441 1709 441 
Q 2250 441 2565 725 
Q 2881 1009 2881 1497 
Q 2881 1984 2565 2268 
Q 2250 2553 1709 2553 
Q 1456 2553 1204 2497 
Q 953 2441 691 2322 
L 691 4666 
z
" transform="scale(0.015625)"/>
       </defs>
       <use xlink:href="#DejaVuSans-32"/>
       <use xlink:href="#DejaVuSans-30" x="63.623047"/>
       <use xlink:href="#DejaVuSans-32" x="127.246094"/>
       <use xlink:href="#DejaVuSans-32" x="190.869141"/>
       <use xlink:href="#DejaVuSans-2d" x="254.492188"/>
       <use xlink:href="#DejaVuSans-30" x="290.576172"/>
       <use xlink:href="#DejaVuSans-31" x="354.199219"/>
       <use xlink:href="#DejaVuSans-2d" x="417.822266"/>
       <use xlink:href="#DejaVuSans-30" x="453.90625"/>
       <use xlink:href="#DejaVuSans-35" x="517.529297"/>
      </g>
     </g>
    </g>
    <g id="xtick_4">
     <g id="line2d_4">
      <g>
       <use xlink:href="#m1c1809bf89" x="382.265925" y="320.4" style="stroke: #000000; stroke-width: 0.8"/>
      </g>
     </g>
     <g id="text_4">
      <!-- 2022-01-07 -->
      <g transform="translate(353.208112 334.998438) scale(0.1 -0.1)">
       <defs>
        <path id="DejaVuSans-37" d="M 525 4666 
L 3525 4666 
L 3525 4397 
L 1831 0 
L 1172 0 
L 2766 4134 
L 525 4134 
L 525 4666 
z
" transform="scale(0.015625)"/>
       </defs>
       <use xlink:href="#DejaVuSans-32"/>
       <use xlink:href="#DejaVuSans-30" x="63.623047"/>
       <use xlink:href="#DejaVuSans-32" x="127.246094"/>
       <use xlink:href="#DejaVuSans-32" x="190.869141"/>
       <use xlink:href="#DejaVuSans-2d" x="254.492188"/>
       <use xlink:href="#DejaVuSans-30" x="290.576172"/>
       <use xlink:href="#DejaVuSans-31" x="354.199219"/>
       <use xlink:href="#DejaVuSans-2d" x="417.822266"/>
       <use xlink:href="#DejaVuSans-30" x="453.90625"/>
       <use xlink:href="#DejaVuSans-37" x="517.529297"/>
      </g>
     </g>
    </g>
    <g id="xtick_5">
     <g id="line2d_5">
      <g>
       <use xlink:href="#m1c1809bf89" x="463.542445" y="320.4" style="stroke: #000000; stroke-width: 0.8"/>
      </g>
     </g>
     <g id="text_5">
      <!-- 2022-01-09 -->
      <g transform="translate(434.484633 334.998438) scale(0.1 -0.1)">
       <defs>
        <path id="DejaVuSans-39" d="M 703 97 
L 703 672 
Q 941 559 1184 500 
Q 1428 441 1663 441 
Q 2288 441 2617 861 
Q 2947 1281 2994 2138 
Q 2813 1869 2534 1725 
Q 2256 1581 1919 1581 
Q 1219 1581 811 2004 
Q 403 2428 403 3163 
Q 403 3881 828 4315 
Q 1253 4750 1959 4750 
Q 2769 4750 3195 4129 
Q 3622 3509 3622 2328 
Q 3622 1225 3098 567 
Q 2575 -91 1691 -91 
Q 1453 -91 1209 -44 
Q 966 3 703 97 
z
M 1959 2075 
Q 2384 2075 2632 2365 
Q 2881 2656 2881 3163 
Q 2881 3666 2632 3958 
Q 2384 4250 1959 4250 
Q 1534 4250 1286 3958 
Q 1038 3666 1038 3163 
Q 1038 2656 1286 2365 
Q 1534 2075 1959 2075 
z
" transform="scale(0.015625)"/>
       </defs>
       <use xlink:href="#DejaVuSans-32"/>
       <use xlink:href="#DejaVuSans-30" x="63.623047"/>
       <use xlink:href="#DejaVuSans-32" x="127.246094"/>
       <use xlink:href="#DejaVuSans-32" x="190.869141"/>
       <use xlink:href="#DejaVuSans-2d" x="254.492188"/>
       <use xlink:href="#DejaVuSans-30" x="290.576172"/>
       <use xlink:href="#DejaVuSans-31" x="354.199219"/>
       <use xlink:href="#DejaVuSans-2d" x="417.822266"/>
       <use xlink:href="#DejaVuSans-30" x="453.90625"/>
       <use xlink:href="#DejaVuSans-39" x="517.529297"/>
      </g>
     </g>
    </g>
    <g id="xtick_6">
     <g id="line2d_6">
      <g>
       <use xlink:href="#m1c1809bf89" x="544.818966" y="320.4" style="stroke: #000000; stroke-width: 0.8"/>
      </g>
     </g>
     <g id="text_6">
      <!-- 2022-01-11 -->
      <g transform="translate(515.761153 334.998438) scale(0.1 -0.1)">
       <use xlink:href="#DejaVuSans-32"/>
       <use xlink:href="#DejaVuSans-30" x="63.623047"/>
       <use xlink:href="#DejaVuSans-32" x="127.246094"/>
       <use xlink:href="#DejaVuSans-32" x="190.869141"/>
       <use xlink:href="#DejaVuSans-2d" x="254.492188"/>
       <use xlink:href="#DejaVuSans-30" x="290.576172"/>
       <use xlink:href="#DejaVuSans-31" x="354.199219"/>
       <use xlink:href="#DejaVuSans-2d" x="417.822266"/>
       <use xlink:href="#DejaVuSans-31" x="453.90625"/>
       <use xlink:href="#DejaVuSans-31" x="517.529297"/>
      </g>
     </g>
    </g>
    <g id="xtick_7">
     <g id="line2d_7">
      <g>
       <use xlink:href="#m1c1809bf89" x="626.095486" y="320.4" style="stroke: #000000; stroke-width: 0.8"/>
      </g>
     </g>
     <g id="text_7">
      <!-- 2022-01-13 -->
      <g transform="translate(597.037674 334.998438) scale(0.1 -0.1)">
       <use xlink:href="#DejaVuSans-32"/>
       <use xlink:href="#DejaVuSans-30" x="63.623047"/>
       <use xlink:href="#DejaVuSans-32" x="127.246094"/>
       <use xlink:href="#DejaVuSans-32" x="190.869141"/>
       <use xlink:href="#DejaVuSans-2d" x="254.492188"/>
       <use xlink:href="#DejaVuSans-30" x="290.576172"/>
       <use xlink:href="#DejaVuSans-31" x="354.199219"/>
       <use xlink:href="#DejaVuSans-2d" x="417.822266"/>
       <use xlink:href="#DejaVuSans-31" x="453.90625"/>
       <use xlink:href="#DejaVuSans-33" x="517.529297"/>
      </g>
     </g>
    </g>
    <g id="xtick_8">
     <g id="line2d_8">
      <g>
       <use xlink:href="#m1c1809bf89" x="707.372007" y="320.4" style="stroke: #000000; stroke-width: 0.8"/>
      </g>
     </g>
     <g id="text_8">
      <!-- 2022-01-15 -->
      <g transform="translate(678.314194 334.998438) scale(0.1 -0.1)">
       <use xlink:href="#DejaVuSans-32"/>
       <use xlink:href="#DejaVuSans-30" x="63.623047"/>
       <use xlink:href="#DejaVuSans-32" x="127.246094"/>
       <use xlink:href="#DejaVuSans-32" x="190.869141"/>
       <use xlink:href="#DejaVuSans-2d" x="254.492188"/>
       <use xlink:href="#DejaVuSans-30" x="290.576172"/>
       <use xlink:href="#DejaVuSans-31" x="354.199219"/>
       <use xlink:href="#DejaVuSans-2d" x="417.822266"/>
       <use xlink:href="#DejaVuSans-31" x="453.90625"/>
       <use xlink:href="#DejaVuSans-35" x="517.529297"/>
      </g>
     </g>
    </g>
    <g id="text_9">
     <!-- TIME (DAYS) -->
     <g transform="translate(412.283594 348.676562) scale(0.1 -0.1)">
      <defs>
       <path id="DejaVuSans-54" d="M -19 4666 
L 3928 4666 
L 3928 4134 
L 2272 4134 
L 2272 0 
L 1638 0 
L 1638 4134 
L -19 4134 
L -19 4666 
z
" transform="scale(0.015625)"/>
       <path id="DejaVuSans-49" d="M 628 4666 
L 1259 4666 
L 1259 0 
L 628 0 
L 628 4666 
z
" transform="scale(0.015625)"/>
       <path id="DejaVuSans-4d" d="M 628 4666 
L 1569 4666 
L 2759 1491 
L 3956 4666 
L 4897 4666 
L 4897 0 
L 4281 0 
L 4281 4097 
L 3078 897 
L 2444 897 
L 1241 4097 
L 1241 0 
L 628 0 
L 628 4666 
z
" transform="scale(0.015625)"/>
       <path id="DejaVuSans-45" d="M 628 4666 
L 3578 4666 
L 3578 4134 
L 1259 4134 
L 1259 2753 
L 3481 2753 
L 3481 2222 
L 1259 2222 
L 1259 531 
L 3634 531 
L 3634 0 
L 628 0 
L 628 4666 
z
" transform="scale(0.015625)"/>
       <path id="DejaVuSans-20" transform="scale(0.015625)"/>
       <path id="DejaVuSans-28" d="M 1984 4856 
Q 1566 4138 1362 3434 
Q 1159 2731 1159 2009 
Q 1159 1288 1364 580 
Q 1569 -128 1984 -844 
L 1484 -844 
Q 1016 -109 783 600 
Q 550 1309 550 2009 
Q 550 2706 781 3412 
Q 1013 4119 1484 4856 
L 1984 4856 
z
" transform="scale(0.015625)"/>
       <path id="DejaVuSans-44" d="M 1259 4147 
L 1259 519 
L 2022 519 
Q 2988 519 3436 956 
Q 3884 1394 3884 2338 
Q 3884 3275 3436 3711 
Q 2988 4147 2022 4147 
L 1259 4147 
z
M 628 4666 
L 1925 4666 
Q 3281 4666 3915 4102 
Q 4550 3538 4550 2338 
Q 4550 1131 3912 565 
Q 3275 0 1925 0 
L 628 0 
L 628 4666 
z
" transform="scale(0.015625)"/>
       <path id="DejaVuSans-41" d="M 2188 4044 
L 1331 1722 
L 3047 1722 
L 2188 4044 
z
M 1831 4666 
L 2547 4666 
L 4325 0 
L 3669 0 
L 3244 1197 
L 1141 1197 
L 716 0 
L 50 0 
L 1831 4666 
z
" transform="scale(0.015625)"/>
       <path id="DejaVuSans-59" d="M -13 4666 
L 666 4666 
L 1959 2747 
L 3244 4666 
L 3922 4666 
L 2272 2222 
L 2272 0 
L 1638 0 
L 1638 2222 
L -13 4666 
z
" transform="scale(0.015625)"/>
       <path id="DejaVuSans-53" d="M 3425 4513 
L 3425 3897 
Q 3066 4069 2747 4153 
Q 2428 4238 2131 4238 
Q 1616 4238 1336 4038 
Q 1056 3838 1056 3469 
Q 1056 3159 1242 3001 
Q 1428 2844 1947 2747 
L 2328 2669 
Q 3034 2534 3370 2195 
Q 3706 1856 3706 1288 
Q 3706 609 3251 259 
Q 2797 -91 1919 -91 
Q 1588 -91 1214 -16 
Q 841 59 441 206 
L 441 856 
Q 825 641 1194 531 
Q 1563 422 1919 422 
Q 2459 422 2753 634 
Q 3047 847 3047 1241 
Q 3047 1584 2836 1778 
Q 2625 1972 2144 2069 
L 1759 2144 
Q 1053 2284 737 2584 
Q 422 2884 422 3419 
Q 422 4038 858 4394 
Q 1294 4750 2059 4750 
Q 2388 4750 2728 4690 
Q 3069 4631 3425 4513 
z
" transform="scale(0.015625)"/>
       <path id="DejaVuSans-29" d="M 513 4856 
L 1013 4856 
Q 1481 4119 1714 3412 
Q 1947 2706 1947 2009 
Q 1947 1309 1714 600 
Q 1481 -109 1013 -844 
L 513 -844 
Q 928 -128 1133 580 
Q 1338 1288 1338 2009 
Q 1338 2731 1133 3434 
Q 928 4138 513 4856 
z
" transform="scale(0.015625)"/>
      </defs>
      <use xlink:href="#DejaVuSans-54"/>
      <use xlink:href="#DejaVuSans-49" x="61.083984"/>
      <use xlink:href="#DejaVuSans-4d" x="90.576172"/>
      <use xlink:href="#DejaVuSans-45" x="176.855469"/>
      <use xlink:href="#DejaVuSans-20" x="240.039062"/>
      <use xlink:href="#DejaVuSans-28" x="271.826172"/>
      <use xlink:href="#DejaVuSans-44" x="310.839844"/>
      <use xlink:href="#DejaVuSans-41" x="386.091797"/>
      <use xlink:href="#DejaVuSans-59" x="446.75"/>
      <use xlink:href="#DejaVuSans-53" x="507.833984"/>
      <use xlink:href="#DejaVuSans-29" x="571.310547"/>
     </g>
    </g>
   </g>
   <g id="matplotlib.axis_2">
    <g id="ytick_1">
     <g id="line2d_9">
      <defs>
       <path id="m322f3188e7" d="M 0 0 
L -3.5 0 
" style="stroke: #000000; stroke-width: 0.8"/>
      </defs>
      <g>
       <use xlink:href="#m322f3188e7" x="108" y="307.8" style="stroke: #000000; stroke-width: 0.8"/>
      </g>
     </g>
     <g id="text_10">
      <!-- 0 -->
      <g transform="translate(94.6375 311.599219) scale(0.1 -0.1)">
       <use xlink:href="#DejaVuSans-30"/>
      </g>
     </g>
    </g>
    <g id="ytick_2">
     <g id="line2d_10">
      <g>
       <use xlink:href="#m322f3188e7" x="108" y="253.489655" style="stroke: #000000; stroke-width: 0.8"/>
      </g>
     </g>
     <g id="text_11">
      <!-- 50 -->
      <g transform="translate(88.275 257.288874) scale(0.1 -0.1)">
       <use xlink:href="#DejaVuSans-35"/>
       <use xlink:href="#DejaVuSans-30" x="63.623047"/>
      </g>
     </g>
    </g>
    <g id="ytick_3">
     <g id="line2d_11">
      <g>
       <use xlink:href="#m322f3188e7" x="108" y="199.17931" style="stroke: #000000; stroke-width: 0.8"/>
      </g>
     </g>
     <g id="text_12">
      <!-- 100 -->
      <g transform="translate(81.9125 202.978529) scale(0.1 -0.1)">
       <use xlink:href="#DejaVuSans-31"/>
       <use xlink:href="#DejaVuSans-30" x="63.623047"/>
       <use xlink:href="#DejaVuSans-30" x="127.246094"/>
      </g>
     </g>
    </g>
    <g id="ytick_4">
     <g id="line2d_12">
      <g>
       <use xlink:href="#m322f3188e7" x="108" y="144.868966" style="stroke: #000000; stroke-width: 0.8"/>
      </g>
     </g>
     <g id="text_13">
      <!-- 150 -->
      <g transform="translate(81.9125 148.668184) scale(0.1 -0.1)">
       <use xlink:href="#DejaVuSans-31"/>
       <use xlink:href="#DejaVuSans-35" x="63.623047"/>
       <use xlink:href="#DejaVuSans-30" x="127.246094"/>
      </g>
     </g>
    </g>
    <g id="ytick_5">
     <g id="line2d_13">
      <g>
       <use xlink:href="#m322f3188e7" x="108" y="90.558621" style="stroke: #000000; stroke-width: 0.8"/>
      </g>
     </g>
     <g id="text_14">
      <!-- 200 -->
      <g transform="translate(81.9125 94.357839) scale(0.1 -0.1)">
       <use xlink:href="#DejaVuSans-32"/>
       <use xlink:href="#DejaVuSans-30" x="63.623047"/>
       <use xlink:href="#DejaVuSans-30" x="127.246094"/>
      </g>
     </g>
    </g>
    <g id="text_15">
     <!-- AMPLITUDE -->
     <g transform="translate(75.832812 210.532812) rotate(-90) scale(0.1 -0.1)">
      <defs>
       <path id="DejaVuSans-50" d="M 1259 4147 
L 1259 2394 
L 2053 2394 
Q 2494 2394 2734 2622 
Q 2975 2850 2975 3272 
Q 2975 3691 2734 3919 
Q 2494 4147 2053 4147 
L 1259 4147 
z
M 628 4666 
L 2053 4666 
Q 2838 4666 3239 4311 
Q 3641 3956 3641 3272 
Q 3641 2581 3239 2228 
Q 2838 1875 2053 1875 
L 1259 1875 
L 1259 0 
L 628 0 
L 628 4666 
z
" transform="scale(0.015625)"/>
       <path id="DejaVuSans-4c" d="M 628 4666 
L 1259 4666 
L 1259 531 
L 3531 531 
L 3531 0 
L 628 0 
L 628 4666 
z
" transform="scale(0.015625)"/>
       <path id="DejaVuSans-55" d="M 556 4666 
L 1191 4666 
L 1191 1831 
Q 1191 1081 1462 751 
Q 1734 422 2344 422 
Q 2950 422 3222 751 
Q 3494 1081 3494 1831 
L 3494 4666 
L 4128 4666 
L 4128 1753 
Q 4128 841 3676 375 
Q 3225 -91 2344 -91 
Q 1459 -91 1007 375 
Q 556 841 556 1753 
L 556 4666 
z
" transform="scale(0.015625)"/>
      </defs>
      <use xlink:href="#DejaVuSans-41"/>
      <use xlink:href="#DejaVuSans-4d" x="68.408203"/>
      <use xlink:href="#DejaVuSans-50" x="154.6875"/>
      <use xlink:href="#DejaVuSans-4c" x="214.990234"/>
      <use xlink:href="#DejaVuSans-49" x="270.703125"/>
      <use xlink:href="#DejaVuSans-54" x="300.195312"/>
      <use xlink:href="#DejaVuSans-55" x="361.279297"/>
      <use xlink:href="#DejaVuSans-44" x="434.472656"/>
      <use xlink:href="#DejaVuSans-45" x="511.474609"/>
     </g>
    </g>
   </g>
   <g id="line2d_14">
    <path d="M 138.436364 232.851724 
L 139.282994 307.8 
L 140.976255 307.8 
L 141.822885 292.593103 
L 142.669516 256.748276 
L 143.516146 307.8 
L 144.362777 219.817241 
L 145.209407 307.8 
L 146.056037 307.8 
L 146.902668 277.386207 
L 147.749298 280.644828 
L 148.595929 307.8 
L 149.442559 249.144828 
L 150.28919 307.8 
L 151.98245 307.8 
L 152.829081 298.024138 
L 153.675711 267.610345 
L 154.522342 307.8 
L 156.215602 307.8 
L 157.062233 266.524138 
L 157.908863 307.8 
L 158.755494 307.8 
L 159.602124 163.334483 
L 160.448755 219.817241 
L 161.295385 124.231034 
L 162.142015 147.041379 
L 162.988646 205.696552 
L 163.835276 148.127586 
L 164.681907 177.455172 
L 165.528537 270.868966 
L 166.375168 154.644828 
L 167.221798 197.006897 
L 168.068428 219.817241 
L 168.915059 55.8 
L 169.761689 166.593103 
L 171.45495 248.058621 
L 172.30158 206.782759 
L 173.148211 131.834483 
L 173.994841 143.782759 
L 174.841472 178.541379 
L 175.688102 192.662069 
L 176.534733 178.541379 
L 177.381363 188.317241 
L 178.227993 205.696552 
L 179.074624 176.368966 
L 179.921254 193.748276 
L 180.767885 281.731034 
L 181.614515 218.731034 
L 182.461146 250.231034 
L 183.307776 301.282759 
L 184.154406 307.8 
L 185.001037 307.8 
L 185.847667 304.541379 
L 186.694298 299.110345 
L 187.540928 286.075862 
L 188.387558 307.8 
L 189.234189 286.075862 
L 190.080819 305.627586 
L 190.92745 302.368966 
L 191.77408 269.782759 
L 192.620711 307.8 
L 195.160602 307.8 
L 196.007232 284.989655 
L 196.853863 278.472414 
L 197.700493 254.575862 
L 198.547124 307.8 
L 199.393754 235.024138 
L 200.240384 307.8 
L 201.087015 307.8 
L 201.933645 208.955172 
L 202.780276 217.644828 
L 203.626906 191.575862 
L 204.473536 221.989655 
L 205.320167 193.748276 
L 206.166797 200.265517 
L 207.013428 215.472414 
L 207.860058 190.489655 
L 208.706689 101.42069 
L 209.553319 282.817241 
L 210.399949 219.817241 
L 211.24658 178.541379 
L 212.09321 187.231034 
L 212.939841 153.558621 
L 213.786471 176.368966 
L 214.633102 149.213793 
L 215.479732 252.403448 
L 216.326362 200.265517 
L 217.172993 244.8 
L 218.019623 237.196552 
L 218.866254 203.524138 
L 219.712884 206.782759 
L 220.559514 174.196552 
L 222.252775 251.317241 
L 223.099406 307.8 
L 227.332558 307.8 
L 228.179188 302.368966 
L 229.025819 307.8 
L 229.872449 210.041379 
L 230.71908 307.8 
L 234.105601 307.8 
L 234.952232 286.075862 
L 235.798862 307.8 
L 236.645492 261.093103 
L 237.492123 307.8 
L 238.338753 261.093103 
L 239.185384 238.282759 
L 240.032014 307.8 
L 241.725275 307.8 
L 242.571905 284.989655 
L 243.418536 287.162069 
L 244.265166 205.696552 
L 245.111797 205.696552 
L 245.958427 213.3 
L 247.651688 127.489655 
L 248.498318 183.972414 
L 249.344949 158.989655 
L 250.191579 169.851724 
L 251.03821 201.351724 
L 251.88484 154.644828 
L 252.73147 235.024138 
L 253.578101 149.213793 
L 254.424731 220.903448 
L 255.271362 192.662069 
L 256.117992 182.886207 
L 256.964623 164.42069 
L 257.811253 231.765517 
L 258.657883 226.334483 
L 259.504514 226.334483 
L 260.351144 129.662069 
L 261.197775 258.92069 
L 262.044405 280.644828 
L 262.891036 276.3 
L 263.737666 198.093103 
L 264.584296 264.351724 
L 265.430927 295.851724 
L 266.277557 274.127586 
L 267.124188 289.334483 
L 267.970818 307.8 
L 268.817448 280.644828 
L 269.664079 291.506897 
L 270.510709 293.67931 
L 271.35734 307.8 
L 272.20397 307.8 
L 273.050601 252.403448 
L 273.897231 307.8 
L 274.743861 307.8 
L 275.590492 277.386207 
L 276.437122 295.851724 
L 277.283753 307.8 
L 278.977014 307.8 
L 279.823644 284.989655 
L 280.670274 299.110345 
L 281.516905 307.8 
L 282.363535 256.748276 
L 283.210166 215.472414 
L 284.056796 307.8 
L 284.903426 307.8 
L 285.750057 268.696552 
L 286.596687 183.972414 
L 287.443318 147.041379 
L 288.289948 174.196552 
L 289.136579 173.110345 
L 289.983209 218.731034 
L 290.829839 291.506897 
L 291.67647 204.610345 
L 292.5231 279.558621 
L 293.369731 210.041379 
L 294.216361 252.403448 
L 295.062992 153.558621 
L 295.909622 230.67931 
L 296.756252 211.127586 
L 297.602883 233.937931 
L 298.449513 200.265517 
L 299.296144 232.851724 
L 300.142774 219.817241 
L 300.989404 149.213793 
L 301.836035 226.334483 
L 302.682665 266.524138 
L 303.529296 220.903448 
L 304.375926 203.524138 
L 305.222557 220.903448 
L 306.069187 220.903448 
L 306.915817 210.041379 
L 307.762448 307.8 
L 313.688861 307.8 
L 314.535491 250.231034 
L 315.382122 307.8 
L 316.228752 265.437931 
L 317.075382 301.282759 
L 317.922013 307.8 
L 318.768643 307.8 
L 319.615274 280.644828 
L 320.461904 293.67931 
L 321.308535 291.506897 
L 322.155165 307.8 
L 323.001795 264.351724 
L 323.848426 307.8 
L 324.695056 232.851724 
L 325.541687 249.144828 
L 326.388317 251.317241 
L 327.234948 244.8 
L 328.081578 307.8 
L 328.928208 195.92069 
L 329.774839 217.644828 
L 330.621469 164.42069 
L 331.4681 262.17931 
L 332.31473 152.472414 
L 333.16136 263.265517 
L 334.007991 257.834483 
L 334.854621 180.713793 
L 335.701252 155.731034 
L 336.547882 165.506897 
L 337.394513 307.8 
L 338.241143 228.506897 
L 339.087773 235.024138 
L 339.934404 186.144828 
L 340.781034 119.886207 
L 341.627665 189.403448 
L 342.474295 174.196552 
L 343.320926 243.713793 
L 344.167556 206.782759 
L 345.860817 211.127586 
L 346.707447 167.67931 
L 347.554078 153.558621 
L 348.400708 224.162069 
L 349.247338 230.67931 
L 350.093969 306.713793 
L 350.940599 307.8 
L 351.78723 291.506897 
L 352.63386 284.989655 
L 353.480491 307.8 
L 354.327121 279.558621 
L 355.173751 239.368966 
L 356.020382 307.8 
L 356.867012 270.868966 
L 357.713643 307.8 
L 358.560273 267.610345 
L 359.406904 249.144828 
L 360.253534 307.8 
L 361.100164 307.8 
L 361.946795 287.162069 
L 362.793425 269.782759 
L 363.640056 294.765517 
L 364.486686 270.868966 
L 365.333316 307.8 
L 367.026577 307.8 
L 367.873208 283.903448 
L 368.719838 254.575862 
L 369.566469 307.8 
L 370.413099 288.248276 
L 371.259729 155.731034 
L 372.10636 200.265517 
L 372.95299 189.403448 
L 373.799621 263.265517 
L 374.646251 244.8 
L 375.492882 182.886207 
L 376.339512 181.8 
L 377.186142 223.075862 
L 378.032773 149.213793 
L 378.879403 192.662069 
L 379.726034 213.3 
L 380.572664 203.524138 
L 381.419294 201.351724 
L 382.265925 267.610345 
L 383.112555 145.955172 
L 384.805816 198.093103 
L 385.652447 177.455172 
L 386.499077 187.231034 
L 387.345707 160.075862 
L 388.192338 155.731034 
L 389.038968 215.472414 
L 389.885599 177.455172 
L 390.732229 235.024138 
L 391.57886 221.989655 
L 393.27212 307.8 
L 394.118751 267.610345 
L 394.965381 307.8 
L 395.812012 279.558621 
L 396.658642 300.196552 
L 397.505272 307.8 
L 398.351903 284.989655 
L 399.198533 271.955172 
L 400.045164 307.8 
L 400.891794 293.67931 
L 401.738425 307.8 
L 402.585055 307.8 
L 403.431685 296.937931 
L 404.278316 301.282759 
L 405.124946 266.524138 
L 405.971577 307.8 
L 406.818207 307.8 
L 407.664838 250.231034 
L 408.511468 307.8 
L 409.358098 307.8 
L 410.204729 296.937931 
L 411.051359 300.196552 
L 411.89799 302.368966 
L 412.74462 274.127586 
L 413.59125 123.144828 
L 414.437881 217.644828 
L 415.284511 170.937931 
L 416.131142 219.817241 
L 416.977772 235.024138 
L 417.824403 141.610345 
L 418.671033 87.3 
L 419.517663 97.075862 
L 420.364294 169.851724 
L 421.210924 204.610345 
L 422.904185 261.093103 
L 423.750816 143.782759 
L 424.597446 207.868966 
L 425.444076 138.351724 
L 426.290707 212.213793 
L 427.137337 174.196552 
L 427.983968 238.282759 
L 428.830598 157.903448 
L 429.677228 211.127586 
L 430.523859 223.075862 
L 431.370489 165.506897 
L 432.21712 206.782759 
L 433.06375 206.782759 
L 433.910381 189.403448 
L 434.757011 307.8 
L 435.603641 217.644828 
L 436.450272 286.075862 
L 437.296902 307.8 
L 438.143533 255.662069 
L 438.990163 307.8 
L 440.683424 307.8 
L 441.530054 302.368966 
L 442.376685 307.8 
L 443.223315 284.989655 
L 444.069946 253.489655 
L 444.916576 281.731034 
L 445.763206 264.351724 
L 446.609837 307.8 
L 447.456467 252.403448 
L 448.303098 307.8 
L 449.149728 291.506897 
L 449.996359 307.8 
L 450.842989 286.075862 
L 451.689619 307.8 
L 453.38288 307.8 
L 454.229511 144.868966 
L 455.076141 156.817241 
L 455.922772 137.265517 
L 456.769402 270.868966 
L 458.462663 136.17931 
L 459.309293 167.67931 
L 460.155924 155.731034 
L 461.002554 161.162069 
L 461.849184 254.575862 
L 462.695815 242.627586 
L 463.542445 225.248276 
L 464.389076 149.213793 
L 465.235706 131.834483 
L 466.082337 203.524138 
L 466.928967 236.110345 
L 467.775597 175.282759 
L 468.622228 129.662069 
L 469.468858 223.075862 
L 470.315489 218.731034 
L 471.162119 178.541379 
L 472.00875 240.455172 
L 472.85538 189.403448 
L 473.70201 307.8 
L 476.241902 307.8 
L 477.088532 264.351724 
L 477.935162 269.782759 
L 478.781793 307.8 
L 480.475054 307.8 
L 481.321684 276.3 
L 482.168315 307.8 
L 483.014945 307.8 
L 483.861575 288.248276 
L 484.708206 298.024138 
L 485.554836 282.817241 
L 486.401467 307.8 
L 490.634619 307.8 
L 491.481249 249.144828 
L 492.32788 307.8 
L 493.17451 215.472414 
L 494.02114 288.248276 
L 494.867771 189.403448 
L 495.714401 211.127586 
L 496.561032 197.006897 
L 497.407662 198.093103 
L 498.254293 240.455172 
L 499.100923 240.455172 
L 499.947553 181.8 
L 500.794184 142.696552 
L 501.640814 172.024138 
L 502.487445 188.317241 
L 503.334075 240.455172 
L 504.180706 162.248276 
L 505.027336 240.455172 
L 505.873966 142.696552 
L 506.720597 124.231034 
L 507.567227 260.006897 
L 508.413858 203.524138 
L 509.260488 124.231034 
L 510.107118 99.248276 
L 510.953749 239.368966 
L 511.800379 124.231034 
L 512.64701 307.8 
L 513.49364 307.8 
L 514.340271 257.834483 
L 515.186901 260.006897 
L 516.033531 307.8 
L 516.880162 280.644828 
L 517.726792 307.8 
L 519.420053 307.8 
L 520.266684 266.524138 
L 521.113314 307.8 
L 521.959944 307.8 
L 522.806575 283.903448 
L 523.653205 230.67931 
L 524.499836 307.8 
L 525.346466 307.8 
L 526.193096 291.506897 
L 527.039727 307.8 
L 527.886357 298.024138 
L 528.732988 226.334483 
L 529.579618 307.8 
L 530.426249 296.937931 
L 531.272879 307.8 
L 532.96614 166.593103 
L 533.81277 227.42069 
L 534.659401 189.403448 
L 535.506031 213.3 
L 536.352662 136.17931 
L 537.199292 172.024138 
L 538.045922 237.196552 
L 538.892553 152.472414 
L 539.739183 130.748276 
L 540.585814 173.110345 
L 541.432444 181.8 
L 542.279074 296.937931 
L 543.125705 227.42069 
L 543.972335 220.903448 
L 544.818966 122.058621 
L 545.665596 208.955172 
L 546.512227 179.627586 
L 547.358857 233.937931 
L 548.205487 225.248276 
L 549.052118 239.368966 
L 549.898748 181.8 
L 550.745379 174.196552 
L 551.592009 307.8 
L 552.43864 266.524138 
L 553.28527 296.937931 
L 554.1319 269.782759 
L 554.978531 307.8 
L 559.211683 307.8 
L 560.058313 305.627586 
L 560.904944 307.8 
L 561.751574 307.8 
L 562.598205 210.041379 
L 563.444835 275.213793 
L 564.291465 307.8 
L 565.984726 307.8 
L 566.831357 292.593103 
L 567.677987 307.8 
L 568.524618 251.317241 
L 569.371248 302.368966 
L 570.217878 258.92069 
L 571.064509 160.075862 
L 571.911139 224.162069 
L 572.75777 236.110345 
L 573.6044 175.282759 
L 574.45103 182.886207 
L 575.297661 181.8 
L 576.144291 245.886207 
L 576.990922 178.541379 
L 577.837552 208.955172 
L 578.684183 260.006897 
L 579.530813 99.248276 
L 580.377443 210.041379 
L 581.224074 214.386207 
L 582.070704 109.024138 
L 583.763965 175.282759 
L 584.610596 216.558621 
L 585.457226 290.42069 
L 586.303856 160.075862 
L 587.150487 168.765517 
L 587.997117 197.006897 
L 588.843748 124.231034 
L 589.690378 254.575862 
L 590.537008 307.8 
L 591.383639 304.541379 
L 592.230269 265.437931 
L 593.0769 239.368966 
L 593.92353 233.937931 
L 594.770161 307.8 
L 596.463421 307.8 
L 597.310052 270.868966 
L 598.156682 277.386207 
L 599.003313 307.8 
L 599.849943 298.024138 
L 600.696574 307.8 
L 604.929726 307.8 
L 605.776356 298.024138 
L 606.622986 307.8 
L 607.469617 279.558621 
L 608.316247 307.8 
L 609.162878 226.334483 
L 610.009508 252.403448 
L 610.856139 160.075862 
L 612.549399 280.644828 
L 613.39603 185.058621 
L 614.24266 235.024138 
L 615.089291 207.868966 
L 615.935921 241.541379 
L 616.782552 199.17931 
L 617.629182 185.058621 
L 618.475812 137.265517 
L 619.322443 237.196552 
L 620.169073 199.17931 
L 621.015704 203.524138 
L 621.862334 127.489655 
L 622.708964 173.110345 
L 623.555595 307.8 
L 624.402225 178.541379 
L 625.248856 127.489655 
L 626.095486 249.144828 
L 626.942117 262.17931 
L 627.788747 242.627586 
L 628.635377 307.8 
L 629.482008 307.8 
L 630.328638 287.162069 
L 631.175269 307.8 
L 632.021899 307.8 
L 632.86853 305.627586 
L 633.71516 307.8 
L 636.255051 307.8 
L 637.101682 275.213793 
L 637.948312 294.765517 
L 638.794942 307.8 
L 639.641573 296.937931 
L 640.488203 307.8 
L 642.181464 307.8 
L 643.028095 301.282759 
L 643.874725 306.713793 
L 644.721355 290.42069 
L 645.567986 303.455172 
L 646.414616 307.8 
L 647.261247 307.8 
L 648.107877 178.541379 
L 648.954508 190.489655 
L 650.647768 135.093103 
L 652.341029 229.593103 
L 653.18766 202.437931 
L 654.03429 164.42069 
L 654.88092 258.92069 
L 655.727551 157.903448 
L 656.574181 205.696552 
L 657.420812 180.713793 
L 658.267442 198.093103 
L 659.114073 132.92069 
L 659.960703 289.334483 
L 660.807333 237.196552 
L 661.653964 173.110345 
L 662.500594 164.42069 
L 663.347225 299.110345 
L 664.193855 168.765517 
L 665.040486 204.610345 
L 665.887116 216.558621 
L 666.733746 281.731034 
L 667.580377 307.8 
L 669.273638 307.8 
L 670.120268 292.593103 
L 670.966898 291.506897 
L 671.813529 307.8 
L 672.660159 291.506897 
L 673.50679 239.368966 
L 674.35342 307.8 
L 675.200051 307.8 
L 676.046681 246.972414 
L 676.893311 305.627586 
L 677.739942 307.8 
L 678.586572 307.8 
L 679.433203 231.765517 
L 680.279833 307.8 
L 681.126464 296.937931 
L 681.973094 283.903448 
L 682.819724 273.041379 
L 683.666355 307.8 
L 686.206246 307.8 
L 687.052876 232.851724 
L 688.746137 193.748276 
L 689.592768 170.937931 
L 690.439398 165.506897 
L 691.286029 214.386207 
L 692.132659 172.024138 
L 692.979289 157.903448 
L 693.82592 170.937931 
L 694.67255 232.851724 
L 695.519181 225.248276 
L 696.365811 142.696552 
L 697.212442 273.041379 
L 698.059072 231.765517 
L 698.905702 185.058621 
L 699.752333 251.317241 
L 700.598963 205.696552 
L 701.445594 95.989655 
L 702.292224 218.731034 
L 703.138854 154.644828 
L 704.832115 241.541379 
L 705.678746 211.127586 
L 706.525376 287.162069 
L 707.372007 300.196552 
L 708.218637 302.368966 
L 709.065267 289.334483 
L 709.911898 307.8 
L 711.605159 239.368966 
L 712.451789 307.8 
L 713.29842 307.8 
L 714.14505 263.265517 
L 714.99168 307.8 
L 715.838311 237.196552 
L 716.684941 240.455172 
L 717.531572 302.368966 
L 718.378202 307.8 
L 719.224832 307.8 
L 720.071463 229.593103 
L 720.918093 306.713793 
L 721.764724 254.575862 
L 722.611354 307.8 
L 723.457985 277.386207 
L 724.304615 307.8 
L 725.151245 243.713793 
L 725.997876 213.3 
L 726.844506 192.662069 
L 727.691137 262.17931 
L 728.537767 206.782759 
L 729.384398 201.351724 
L 730.231028 192.662069 
L 731.077658 187.231034 
L 731.924289 191.575862 
L 732.770919 177.455172 
L 733.61755 197.006897 
L 734.46418 182.886207 
L 735.31081 126.403448 
L 736.157441 200.265517 
L 737.004071 230.67931 
L 737.850702 307.8 
L 738.697332 217.644828 
L 739.543963 212.213793 
L 740.390593 177.455172 
L 741.237223 156.817241 
L 742.083854 194.834483 
L 742.930484 250.231034 
L 743.777115 195.92069 
L 744.623745 177.455172 
L 745.470376 307.8 
L 746.317006 307.8 
L 747.163636 282.817241 
L 747.163636 282.817241 
" clip-path="url(#p948f04511c)" style="fill: none; stroke: #191970; stroke-width: 2; stroke-linecap: square"/>
   </g>
   <g id="patch_3">
    <path d="M 108 320.4 
L 108 43.2 
" style="fill: none; stroke: #000000; stroke-width: 0.8; stroke-linejoin: miter; stroke-linecap: square"/>
   </g>
   <g id="patch_4">
    <path d="M 777.6 320.4 
L 777.6 43.2 
" style="fill: none; stroke: #000000; stroke-width: 0.8; stroke-linejoin: miter; stroke-linecap: square"/>
   </g>
   <g id="patch_5">
    <path d="M 108 320.4 
L 777.6 320.4 
" style="fill: none; stroke: #000000; stroke-width: 0.8; stroke-linejoin: miter; stroke-linecap: square"/>
   </g>
   <g id="patch_6">
    <path d="M 108 43.2 
L 777.6 43.2 
" style="fill: none; stroke: #000000; stroke-width: 0.8; stroke-linejoin: miter; stroke-linecap: square"/>
   </g>
   <g id="text_16">
    <!-- TIME SERIES -->
    <g transform="translate(405.350625 37.2) scale(0.12 -0.12)">
     <defs>
      <path id="DejaVuSans-52" d="M 2841 2188 
Q 3044 2119 3236 1894 
Q 3428 1669 3622 1275 
L 4263 0 
L 3584 0 
L 2988 1197 
Q 2756 1666 2539 1819 
Q 2322 1972 1947 1972 
L 1259 1972 
L 1259 0 
L 628 0 
L 628 4666 
L 2053 4666 
Q 2853 4666 3247 4331 
Q 3641 3997 3641 3322 
Q 3641 2881 3436 2590 
Q 3231 2300 2841 2188 
z
M 1259 4147 
L 1259 2491 
L 2053 2491 
Q 2509 2491 2742 2702 
Q 2975 2913 2975 3322 
Q 2975 3731 2742 3939 
Q 2509 4147 2053 4147 
L 1259 4147 
z
" transform="scale(0.015625)"/>
     </defs>
     <use xlink:href="#DejaVuSans-54"/>
     <use xlink:href="#DejaVuSans-49" x="61.083984"/>
     <use xlink:href="#DejaVuSans-4d" x="90.576172"/>
     <use xlink:href="#DejaVuSans-45" x="176.855469"/>
     <use xlink:href="#DejaVuSans-20" x="240.039062"/>
     <use xlink:href="#DejaVuSans-53" x="271.826172"/>
     <use xlink:href="#DejaVuSans-45" x="335.302734"/>
     <use xlink:href="#DejaVuSans-52" x="398.486328"/>
     <use xlink:href="#DejaVuSans-49" x="467.96875"/>
     <use xlink:href="#DejaVuSans-45" x="497.460938"/>
     <use xlink:href="#DejaVuSans-53" x="560.644531"/>
    </g>
   </g>
  </g>
 </g>
 <defs>
  <clipPath id="p948f04511c">
   <rect x="108" y="43.2" width="669.6" height="277.2"/>
  </clipPath>
 </defs>
</svg>
