<?xml version="1.0" encoding="utf-8" standalone="no"?>
<!DOCTYPE svg PUBLIC "-//W3C//DTD SVG 1.1//EN"
  "http://www.w3.org/Graphics/SVG/1.1/DTD/svg11.dtd">
<svg xmlns:xlink="http://www.w3.org/1999/xlink" width="850.32pt" height="141.12pt" viewBox="0 0 850.32 141.12" xmlns="http://www.w3.org/2000/svg" version="1.1">
 <metadata>
  <rdf:RDF xmlns:dc="http://purl.org/dc/elements/1.1/" xmlns:cc="http://creativecommons.org/ns#" xmlns:rdf="http://www.w3.org/1999/02/22-rdf-syntax-ns#">
   <cc:Work>
    <dc:type rdf:resource="http://purl.org/dc/dcmitype/StillImage"/>
    <dc:date>2023-08-03T21:26:08.803373</dc:date>
    <dc:format>image/svg+xml</dc:format>
    <dc:creator>
     <cc:Agent>
      <dc:title>Matplotlib v3.7.1, https://matplotlib.org/</dc:title>
     </cc:Agent>
    </dc:creator>
   </cc:Work>
  </rdf:RDF>
 </metadata>
 <defs>
  <style type="text/css">*{stroke-linejoin: round; stroke-linecap: butt}</style>
 </defs>
 <g id="figure_1">
  <g id="patch_1">
   <path d="M 0 141.12 
L 850.32 141.12 
L 850.32 0 
L 0 0 
z
" style="fill: #ffffff"/>
  </g>
  <g id="axes_1">
   <g id="patch_2">
    <path d="M 54.16 89.48 
L 439.682076 89.48 
L 439.682076 54.672 
L 54.16 54.672 
z
" style="fill: #ffffff"/>
   </g>
   <g id="patch_3">
    <path d="M 52.003233 86.579333 
L 56.316767 86.579333 
L 56.316767 72.766635 
L 52.003233 72.766635 
z
" clip-path="url(#pc75fffe5b2)" style="fill: #696969"/>
   </g>
   <g id="patch_4">
    <path d="M 54.699192 86.579333 
L 59.012725 86.579333 
L 59.012725 69.658778 
L 54.699192 69.658778 
z
" clip-path="url(#pc75fffe5b2)" style="fill: #696969"/>
   </g>
   <g id="patch_5">
    <path d="M 57.39515 86.579333 
L 61.708684 86.579333 
L 61.708684 75.529175 
L 57.39515 75.529175 
z
" clip-path="url(#pc75fffe5b2)" style="fill: #696969"/>
   </g>
   <g id="patch_6">
    <path d="M 60.091109 86.579333 
L 64.404643 86.579333 
L 64.404643 86.579333 
L 60.091109 86.579333 
z
" clip-path="url(#pc75fffe5b2)" style="fill: #696969"/>
   </g>
   <g id="patch_7">
    <path d="M 62.787067 86.579333 
L 67.100601 86.579333 
L 67.100601 68.277508 
L 62.787067 68.277508 
z
" clip-path="url(#pc75fffe5b2)" style="fill: #696969"/>
   </g>
   <g id="patch_8">
    <path d="M 65.483026 86.579333 
L 69.79656 86.579333 
L 69.79656 82.435524 
L 65.483026 82.435524 
z
" clip-path="url(#pc75fffe5b2)" style="fill: #696969"/>
   </g>
   <g id="patch_9">
    <path d="M 68.178985 86.579333 
L 72.492518 86.579333 
L 72.492518 83.816794 
L 68.178985 83.816794 
z
" clip-path="url(#pc75fffe5b2)" style="fill: #696969"/>
   </g>
   <g id="patch_10">
    <path d="M 70.874943 86.579333 
L 75.188477 86.579333 
L 75.188477 82.435524 
L 70.874943 82.435524 
z
" clip-path="url(#pc75fffe5b2)" style="fill: #696969"/>
   </g>
   <g id="patch_11">
    <path d="M 73.570902 86.579333 
L 77.884435 86.579333 
L 77.884435 77.255762 
L 73.570902 77.255762 
z
" clip-path="url(#pc75fffe5b2)" style="fill: #696969"/>
   </g>
   <g id="patch_12">
    <path d="M 76.26686 86.579333 
L 80.580394 86.579333 
L 80.580394 86.579333 
L 76.26686 86.579333 
z
" clip-path="url(#pc75fffe5b2)" style="fill: #696969"/>
   </g>
   <g id="patch_13">
    <path d="M 78.962819 86.579333 
L 83.276353 86.579333 
L 83.276353 76.21981 
L 78.962819 76.21981 
z
" clip-path="url(#pc75fffe5b2)" style="fill: #696969"/>
   </g>
   <g id="patch_14">
    <path d="M 81.658777 86.579333 
L 85.972311 86.579333 
L 85.972311 75.529175 
L 81.658777 75.529175 
z
" clip-path="url(#pc75fffe5b2)" style="fill: #696969"/>
   </g>
   <g id="patch_15">
    <path d="M 84.354736 86.579333 
L 88.66827 86.579333 
L 88.66827 86.234016 
L 84.354736 86.234016 
z
" clip-path="url(#pc75fffe5b2)" style="fill: #696969"/>
   </g>
   <g id="patch_16">
    <path d="M 87.050695 86.579333 
L 91.364228 86.579333 
L 91.364228 86.579333 
L 87.050695 86.579333 
z
" clip-path="url(#pc75fffe5b2)" style="fill: #696969"/>
   </g>
   <g id="patch_17">
    <path d="M 89.746653 86.579333 
L 94.060187 86.579333 
L 94.060187 86.579333 
L 89.746653 86.579333 
z
" clip-path="url(#pc75fffe5b2)" style="fill: #696969"/>
   </g>
   <g id="patch_18">
    <path d="M 92.442612 86.579333 
L 96.756145 86.579333 
L 96.756145 74.83854 
L 92.442612 74.83854 
z
" clip-path="url(#pc75fffe5b2)" style="fill: #696969"/>
   </g>
   <g id="patch_19">
    <path d="M 95.13857 86.579333 
L 99.452104 86.579333 
L 99.452104 86.579333 
L 95.13857 86.579333 
z
" clip-path="url(#pc75fffe5b2)" style="fill: #696969"/>
   </g>
   <g id="patch_20">
    <path d="M 97.834529 86.579333 
L 102.148063 86.579333 
L 102.148063 75.529175 
L 97.834529 75.529175 
z
" clip-path="url(#pc75fffe5b2)" style="fill: #696969"/>
   </g>
   <g id="patch_21">
    <path d="M 100.530487 86.579333 
L 104.844021 86.579333 
L 104.844021 72.421317 
L 100.530487 72.421317 
z
" clip-path="url(#pc75fffe5b2)" style="fill: #696969"/>
   </g>
   <g id="patch_22">
    <path d="M 103.226446 86.579333 
L 107.53998 86.579333 
L 107.53998 80.708937 
L 103.226446 80.708937 
z
" clip-path="url(#pc75fffe5b2)" style="fill: #696969"/>
   </g>
   <g id="patch_23">
    <path d="M 105.922405 86.579333 
L 110.235938 86.579333 
L 110.235938 77.255762 
L 105.922405 77.255762 
z
" clip-path="url(#pc75fffe5b2)" style="fill: #696969"/>
   </g>
   <g id="patch_24">
    <path d="M 108.618363 86.579333 
L 112.931897 86.579333 
L 112.931897 68.968143 
L 108.618363 68.968143 
z
" clip-path="url(#pc75fffe5b2)" style="fill: #696969"/>
   </g>
   <g id="patch_25">
    <path d="M 111.314322 86.579333 
L 115.627855 86.579333 
L 115.627855 65.169651 
L 111.314322 65.169651 
z
" clip-path="url(#pc75fffe5b2)" style="fill: #696969"/>
   </g>
   <g id="patch_26">
    <path d="M 114.01028 86.579333 
L 118.323814 86.579333 
L 118.323814 70.004095 
L 114.01028 70.004095 
z
" clip-path="url(#pc75fffe5b2)" style="fill: #696969"/>
   </g>
   <g id="patch_27">
    <path d="M 116.706239 86.579333 
L 121.019773 86.579333 
L 121.019773 66.550921 
L 116.706239 66.550921 
z
" clip-path="url(#pc75fffe5b2)" style="fill: #696969"/>
   </g>
   <g id="patch_28">
    <path d="M 119.402197 86.579333 
L 123.715731 86.579333 
L 123.715731 73.45727 
L 119.402197 73.45727 
z
" clip-path="url(#pc75fffe5b2)" style="fill: #696969"/>
   </g>
   <g id="patch_29">
    <path d="M 122.098156 86.579333 
L 126.41169 86.579333 
L 126.41169 74.493222 
L 122.098156 74.493222 
z
" clip-path="url(#pc75fffe5b2)" style="fill: #696969"/>
   </g>
   <g id="patch_30">
    <path d="M 124.794115 86.579333 
L 129.107648 86.579333 
L 129.107648 86.579333 
L 124.794115 86.579333 
z
" clip-path="url(#pc75fffe5b2)" style="fill: #696969"/>
   </g>
   <g id="patch_31">
    <path d="M 127.490073 86.579333 
L 131.803607 86.579333 
L 131.803607 80.018302 
L 127.490073 80.018302 
z
" clip-path="url(#pc75fffe5b2)" style="fill: #696969"/>
   </g>
   <g id="patch_32">
    <path d="M 130.186032 86.579333 
L 134.499565 86.579333 
L 134.499565 83.816794 
L 130.186032 83.816794 
z
" clip-path="url(#pc75fffe5b2)" style="fill: #696969"/>
   </g>
   <g id="patch_33">
    <path d="M 132.88199 86.579333 
L 137.195524 86.579333 
L 137.195524 80.363619 
L 132.88199 80.363619 
z
" clip-path="url(#pc75fffe5b2)" style="fill: #696969"/>
   </g>
   <g id="patch_34">
    <path d="M 135.577949 86.579333 
L 139.891483 86.579333 
L 139.891483 85.888698 
L 135.577949 85.888698 
z
" clip-path="url(#pc75fffe5b2)" style="fill: #696969"/>
   </g>
   <g id="patch_35">
    <path d="M 138.273907 86.579333 
L 142.587441 86.579333 
L 142.587441 86.579333 
L 138.273907 86.579333 
z
" clip-path="url(#pc75fffe5b2)" style="fill: #696969"/>
   </g>
   <g id="patch_36">
    <path d="M 140.969866 86.579333 
L 145.2834 86.579333 
L 145.2834 83.816794 
L 140.969866 83.816794 
z
" clip-path="url(#pc75fffe5b2)" style="fill: #696969"/>
   </g>
   <g id="patch_37">
    <path d="M 143.665825 86.579333 
L 147.979358 86.579333 
L 147.979358 76.21981 
L 143.665825 76.21981 
z
" clip-path="url(#pc75fffe5b2)" style="fill: #696969"/>
   </g>
   <g id="patch_38">
    <path d="M 146.361783 86.579333 
L 150.675317 86.579333 
L 150.675317 81.744889 
L 146.361783 81.744889 
z
" clip-path="url(#pc75fffe5b2)" style="fill: #696969"/>
   </g>
   <g id="patch_39">
    <path d="M 149.057742 86.579333 
L 153.371275 86.579333 
L 153.371275 86.579333 
L 149.057742 86.579333 
z
" clip-path="url(#pc75fffe5b2)" style="fill: #696969"/>
   </g>
   <g id="patch_40">
    <path d="M 151.7537 86.579333 
L 156.067234 86.579333 
L 156.067234 86.579333 
L 151.7537 86.579333 
z
" clip-path="url(#pc75fffe5b2)" style="fill: #696969"/>
   </g>
   <g id="patch_41">
    <path d="M 154.449659 86.579333 
L 158.763193 86.579333 
L 158.763193 78.637032 
L 154.449659 78.637032 
z
" clip-path="url(#pc75fffe5b2)" style="fill: #696969"/>
   </g>
   <g id="patch_42">
    <path d="M 157.145617 86.579333 
L 161.459151 86.579333 
L 161.459151 80.708937 
L 157.145617 80.708937 
z
" clip-path="url(#pc75fffe5b2)" style="fill: #696969"/>
   </g>
   <g id="patch_43">
    <path d="M 159.841576 86.579333 
L 164.15511 86.579333 
L 164.15511 75.874492 
L 159.841576 75.874492 
z
" clip-path="url(#pc75fffe5b2)" style="fill: #696969"/>
   </g>
   <g id="patch_44">
    <path d="M 162.537535 86.579333 
L 166.851068 86.579333 
L 166.851068 86.579333 
L 162.537535 86.579333 
z
" clip-path="url(#pc75fffe5b2)" style="fill: #696969"/>
   </g>
   <g id="patch_45">
    <path d="M 165.233493 86.579333 
L 169.547027 86.579333 
L 169.547027 68.968143 
L 165.233493 68.968143 
z
" clip-path="url(#pc75fffe5b2)" style="fill: #696969"/>
   </g>
   <g id="patch_46">
    <path d="M 167.929452 86.579333 
L 172.242985 86.579333 
L 172.242985 81.399571 
L 167.929452 81.399571 
z
" clip-path="url(#pc75fffe5b2)" style="fill: #696969"/>
   </g>
   <g id="patch_47">
    <path d="M 170.62541 86.579333 
L 174.938944 86.579333 
L 174.938944 74.493222 
L 170.62541 74.493222 
z
" clip-path="url(#pc75fffe5b2)" style="fill: #696969"/>
   </g>
   <g id="patch_48">
    <path d="M 173.321369 86.579333 
L 177.634903 86.579333 
L 177.634903 71.040048 
L 173.321369 71.040048 
z
" clip-path="url(#pc75fffe5b2)" style="fill: #696969"/>
   </g>
   <g id="patch_49">
    <path d="M 176.017327 86.579333 
L 180.330861 86.579333 
L 180.330861 70.004095 
L 176.017327 70.004095 
z
" clip-path="url(#pc75fffe5b2)" style="fill: #696969"/>
   </g>
   <g id="patch_50">
    <path d="M 178.713286 86.579333 
L 183.02682 86.579333 
L 183.02682 76.910444 
L 178.713286 76.910444 
z
" clip-path="url(#pc75fffe5b2)" style="fill: #696969"/>
   </g>
   <g id="patch_51">
    <path d="M 181.409245 86.579333 
L 185.722778 86.579333 
L 185.722778 73.45727 
L 181.409245 73.45727 
z
" clip-path="url(#pc75fffe5b2)" style="fill: #696969"/>
   </g>
   <g id="patch_52">
    <path d="M 184.105203 86.579333 
L 188.418737 86.579333 
L 188.418737 73.802587 
L 184.105203 73.802587 
z
" clip-path="url(#pc75fffe5b2)" style="fill: #696969"/>
   </g>
   <g id="patch_53">
    <path d="M 186.801162 86.579333 
L 191.114695 86.579333 
L 191.114695 86.579333 
L 186.801162 86.579333 
z
" clip-path="url(#pc75fffe5b2)" style="fill: #696969"/>
   </g>
   <g id="patch_54">
    <path d="M 189.49712 86.579333 
L 193.810654 86.579333 
L 193.810654 74.147905 
L 189.49712 74.147905 
z
" clip-path="url(#pc75fffe5b2)" style="fill: #696969"/>
   </g>
   <g id="patch_55">
    <path d="M 192.193079 86.579333 
L 196.506613 86.579333 
L 196.506613 86.579333 
L 192.193079 86.579333 
z
" clip-path="url(#pc75fffe5b2)" style="fill: #696969"/>
   </g>
   <g id="patch_56">
    <path d="M 194.889037 86.579333 
L 199.202571 86.579333 
L 199.202571 86.234016 
L 194.889037 86.234016 
z
" clip-path="url(#pc75fffe5b2)" style="fill: #696969"/>
   </g>
   <g id="patch_57">
    <path d="M 197.584996 86.579333 
L 201.89853 86.579333 
L 201.89853 82.435524 
L 197.584996 82.435524 
z
" clip-path="url(#pc75fffe5b2)" style="fill: #696969"/>
   </g>
   <g id="patch_58">
    <path d="M 200.280955 86.579333 
L 204.594488 86.579333 
L 204.594488 86.579333 
L 200.280955 86.579333 
z
" clip-path="url(#pc75fffe5b2)" style="fill: #696969"/>
   </g>
   <g id="patch_59">
    <path d="M 202.976913 86.579333 
L 207.290447 86.579333 
L 207.290447 86.579333 
L 202.976913 86.579333 
z
" clip-path="url(#pc75fffe5b2)" style="fill: #696969"/>
   </g>
   <g id="patch_60">
    <path d="M 205.672872 86.579333 
L 209.986405 86.579333 
L 209.986405 86.579333 
L 205.672872 86.579333 
z
" clip-path="url(#pc75fffe5b2)" style="fill: #696969"/>
   </g>
   <g id="patch_61">
    <path d="M 208.36883 86.579333 
L 212.682364 86.579333 
L 212.682364 77.946397 
L 208.36883 77.946397 
z
" clip-path="url(#pc75fffe5b2)" style="fill: #696969"/>
   </g>
   <g id="patch_62">
    <path d="M 211.064789 86.579333 
L 215.378323 86.579333 
L 215.378323 86.579333 
L 211.064789 86.579333 
z
" clip-path="url(#pc75fffe5b2)" style="fill: #696969"/>
   </g>
   <g id="patch_63">
    <path d="M 213.760747 86.579333 
L 218.074281 86.579333 
L 218.074281 86.579333 
L 213.760747 86.579333 
z
" clip-path="url(#pc75fffe5b2)" style="fill: #696969"/>
   </g>
   <g id="patch_64">
    <path d="M 216.456706 86.579333 
L 220.77024 86.579333 
L 220.77024 86.234016 
L 216.456706 86.234016 
z
" clip-path="url(#pc75fffe5b2)" style="fill: #696969"/>
   </g>
   <g id="patch_65">
    <path d="M 219.152665 86.579333 
L 223.466198 86.579333 
L 223.466198 86.579333 
L 219.152665 86.579333 
z
" clip-path="url(#pc75fffe5b2)" style="fill: #696969"/>
   </g>
   <g id="patch_66">
    <path d="M 221.848623 86.579333 
L 226.162157 86.579333 
L 226.162157 86.579333 
L 221.848623 86.579333 
z
" clip-path="url(#pc75fffe5b2)" style="fill: #696969"/>
   </g>
   <g id="patch_67">
    <path d="M 224.544582 86.579333 
L 228.858115 86.579333 
L 228.858115 86.579333 
L 224.544582 86.579333 
z
" clip-path="url(#pc75fffe5b2)" style="fill: #696969"/>
   </g>
   <g id="patch_68">
    <path d="M 227.24054 86.579333 
L 231.554074 86.579333 
L 231.554074 86.579333 
L 227.24054 86.579333 
z
" clip-path="url(#pc75fffe5b2)" style="fill: #696969"/>
   </g>
   <g id="patch_69">
    <path d="M 229.936499 86.579333 
L 234.250033 86.579333 
L 234.250033 57.572667 
L 229.936499 57.572667 
z
" clip-path="url(#pc75fffe5b2)" style="fill: #696969"/>
   </g>
   <g id="patch_70">
    <path d="M 232.632457 86.579333 
L 236.945991 86.579333 
L 236.945991 72.766635 
L 232.632457 72.766635 
z
" clip-path="url(#pc75fffe5b2)" style="fill: #696969"/>
   </g>
   <g id="patch_71">
    <path d="M 235.328416 86.579333 
L 239.64195 86.579333 
L 239.64195 81.399571 
L 235.328416 81.399571 
z
" clip-path="url(#pc75fffe5b2)" style="fill: #696969"/>
   </g>
   <g id="patch_72">
    <path d="M 238.024375 86.579333 
L 242.337908 86.579333 
L 242.337908 68.968143 
L 238.024375 68.968143 
z
" clip-path="url(#pc75fffe5b2)" style="fill: #696969"/>
   </g>
   <g id="patch_73">
    <path d="M 240.720333 86.579333 
L 245.033867 86.579333 
L 245.033867 75.183857 
L 240.720333 75.183857 
z
" clip-path="url(#pc75fffe5b2)" style="fill: #696969"/>
   </g>
   <g id="patch_74">
    <path d="M 243.416292 86.579333 
L 247.729825 86.579333 
L 247.729825 76.21981 
L 243.416292 76.21981 
z
" clip-path="url(#pc75fffe5b2)" style="fill: #696969"/>
   </g>
   <g id="patch_75">
    <path d="M 246.11225 86.579333 
L 250.425784 86.579333 
L 250.425784 67.586873 
L 246.11225 67.586873 
z
" clip-path="url(#pc75fffe5b2)" style="fill: #696969"/>
   </g>
   <g id="patch_76">
    <path d="M 248.808209 86.579333 
L 253.121743 86.579333 
L 253.121743 86.579333 
L 248.808209 86.579333 
z
" clip-path="url(#pc75fffe5b2)" style="fill: #696969"/>
   </g>
   <g id="patch_77">
    <path d="M 251.504167 86.579333 
L 255.817701 86.579333 
L 255.817701 71.385365 
L 251.504167 71.385365 
z
" clip-path="url(#pc75fffe5b2)" style="fill: #696969"/>
   </g>
   <g id="patch_78">
    <path d="M 254.200126 86.579333 
L 258.51366 86.579333 
L 258.51366 86.579333 
L 254.200126 86.579333 
z
" clip-path="url(#pc75fffe5b2)" style="fill: #696969"/>
   </g>
   <g id="patch_79">
    <path d="M 256.896085 86.579333 
L 261.209618 86.579333 
L 261.209618 82.090206 
L 256.896085 82.090206 
z
" clip-path="url(#pc75fffe5b2)" style="fill: #696969"/>
   </g>
   <g id="patch_80">
    <path d="M 259.592043 86.579333 
L 263.905577 86.579333 
L 263.905577 81.054254 
L 259.592043 81.054254 
z
" clip-path="url(#pc75fffe5b2)" style="fill: #696969"/>
   </g>
   <g id="patch_81">
    <path d="M 262.288002 86.579333 
L 266.601535 86.579333 
L 266.601535 63.788381 
L 262.288002 63.788381 
z
" clip-path="url(#pc75fffe5b2)" style="fill: #696969"/>
   </g>
   <g id="patch_82">
    <path d="M 264.98396 86.579333 
L 269.297494 86.579333 
L 269.297494 75.874492 
L 264.98396 75.874492 
z
" clip-path="url(#pc75fffe5b2)" style="fill: #696969"/>
   </g>
   <g id="patch_83">
    <path d="M 267.679919 86.579333 
L 271.993453 86.579333 
L 271.993453 85.543381 
L 267.679919 85.543381 
z
" clip-path="url(#pc75fffe5b2)" style="fill: #696969"/>
   </g>
   <g id="patch_84">
    <path d="M 270.375877 86.579333 
L 274.689411 86.579333 
L 274.689411 73.802587 
L 270.375877 73.802587 
z
" clip-path="url(#pc75fffe5b2)" style="fill: #696969"/>
   </g>
   <g id="patch_85">
    <path d="M 273.071836 86.579333 
L 277.38537 86.579333 
L 277.38537 86.579333 
L 273.071836 86.579333 
z
" clip-path="url(#pc75fffe5b2)" style="fill: #696969"/>
   </g>
   <g id="patch_86">
    <path d="M 275.767795 86.579333 
L 280.081328 86.579333 
L 280.081328 79.672984 
L 275.767795 79.672984 
z
" clip-path="url(#pc75fffe5b2)" style="fill: #696969"/>
   </g>
   <g id="patch_87">
    <path d="M 278.463753 86.579333 
L 282.777287 86.579333 
L 282.777287 71.730683 
L 278.463753 71.730683 
z
" clip-path="url(#pc75fffe5b2)" style="fill: #696969"/>
   </g>
   <g id="patch_88">
    <path d="M 281.159712 86.579333 
L 285.473245 86.579333 
L 285.473245 66.205603 
L 281.159712 66.205603 
z
" clip-path="url(#pc75fffe5b2)" style="fill: #696969"/>
   </g>
   <g id="patch_89">
    <path d="M 283.85567 86.579333 
L 288.169204 86.579333 
L 288.169204 86.579333 
L 283.85567 86.579333 
z
" clip-path="url(#pc75fffe5b2)" style="fill: #696969"/>
   </g>
   <g id="patch_90">
    <path d="M 286.551629 86.579333 
L 290.865163 86.579333 
L 290.865163 84.852746 
L 286.551629 84.852746 
z
" clip-path="url(#pc75fffe5b2)" style="fill: #696969"/>
   </g>
   <g id="patch_91">
    <path d="M 289.247587 86.579333 
L 293.561121 86.579333 
L 293.561121 66.896238 
L 289.247587 66.896238 
z
" clip-path="url(#pc75fffe5b2)" style="fill: #696969"/>
   </g>
   <g id="patch_92">
    <path d="M 291.943546 86.579333 
L 296.25708 86.579333 
L 296.25708 69.31346 
L 291.943546 69.31346 
z
" clip-path="url(#pc75fffe5b2)" style="fill: #696969"/>
   </g>
   <g id="patch_93">
    <path d="M 294.639505 86.579333 
L 298.953038 86.579333 
L 298.953038 67.241556 
L 294.639505 67.241556 
z
" clip-path="url(#pc75fffe5b2)" style="fill: #696969"/>
   </g>
   <g id="patch_94">
    <path d="M 297.335463 86.579333 
L 301.648997 86.579333 
L 301.648997 80.018302 
L 297.335463 80.018302 
z
" clip-path="url(#pc75fffe5b2)" style="fill: #696969"/>
   </g>
   <g id="patch_95">
    <path d="M 300.031422 86.579333 
L 304.344955 86.579333 
L 304.344955 71.040048 
L 300.031422 71.040048 
z
" clip-path="url(#pc75fffe5b2)" style="fill: #696969"/>
   </g>
   <g id="patch_96">
    <path d="M 302.72738 86.579333 
L 307.040914 86.579333 
L 307.040914 86.579333 
L 302.72738 86.579333 
z
" clip-path="url(#pc75fffe5b2)" style="fill: #696969"/>
   </g>
   <g id="patch_97">
    <path d="M 305.423339 86.579333 
L 309.736873 86.579333 
L 309.736873 84.852746 
L 305.423339 84.852746 
z
" clip-path="url(#pc75fffe5b2)" style="fill: #696969"/>
   </g>
   <g id="patch_98">
    <path d="M 308.119297 86.579333 
L 312.432831 86.579333 
L 312.432831 86.579333 
L 308.119297 86.579333 
z
" clip-path="url(#pc75fffe5b2)" style="fill: #696969"/>
   </g>
   <g id="patch_99">
    <path d="M 310.815256 86.579333 
L 315.12879 86.579333 
L 315.12879 73.111952 
L 310.815256 73.111952 
z
" clip-path="url(#pc75fffe5b2)" style="fill: #696969"/>
   </g>
   <g id="patch_100">
    <path d="M 313.511215 86.579333 
L 317.824748 86.579333 
L 317.824748 72.421317 
L 313.511215 72.421317 
z
" clip-path="url(#pc75fffe5b2)" style="fill: #696969"/>
   </g>
   <g id="patch_101">
    <path d="M 316.207173 86.579333 
L 320.520707 86.579333 
L 320.520707 86.579333 
L 316.207173 86.579333 
z
" clip-path="url(#pc75fffe5b2)" style="fill: #696969"/>
   </g>
   <g id="patch_102">
    <path d="M 318.903132 86.579333 
L 323.216665 86.579333 
L 323.216665 75.874492 
L 318.903132 75.874492 
z
" clip-path="url(#pc75fffe5b2)" style="fill: #696969"/>
   </g>
   <g id="patch_103">
    <path d="M 321.59909 86.579333 
L 325.912624 86.579333 
L 325.912624 86.579333 
L 321.59909 86.579333 
z
" clip-path="url(#pc75fffe5b2)" style="fill: #696969"/>
   </g>
   <g id="patch_104">
    <path d="M 324.295049 86.579333 
L 328.608583 86.579333 
L 328.608583 82.090206 
L 324.295049 82.090206 
z
" clip-path="url(#pc75fffe5b2)" style="fill: #696969"/>
   </g>
   <g id="patch_105">
    <path d="M 326.991007 86.579333 
L 331.304541 86.579333 
L 331.304541 86.579333 
L 326.991007 86.579333 
z
" clip-path="url(#pc75fffe5b2)" style="fill: #696969"/>
   </g>
   <g id="patch_106">
    <path d="M 329.686966 86.579333 
L 334.0005 86.579333 
L 334.0005 84.507429 
L 329.686966 84.507429 
z
" clip-path="url(#pc75fffe5b2)" style="fill: #696969"/>
   </g>
   <g id="patch_107">
    <path d="M 332.382925 86.579333 
L 336.696458 86.579333 
L 336.696458 86.234016 
L 332.382925 86.234016 
z
" clip-path="url(#pc75fffe5b2)" style="fill: #696969"/>
   </g>
   <g id="patch_108">
    <path d="M 335.078883 86.579333 
L 339.392417 86.579333 
L 339.392417 82.780841 
L 335.078883 82.780841 
z
" clip-path="url(#pc75fffe5b2)" style="fill: #696969"/>
   </g>
   <g id="patch_109">
    <path d="M 337.774842 86.579333 
L 342.088375 86.579333 
L 342.088375 76.565127 
L 337.774842 76.565127 
z
" clip-path="url(#pc75fffe5b2)" style="fill: #696969"/>
   </g>
   <g id="patch_110">
    <path d="M 340.4708 86.579333 
L 344.784334 86.579333 
L 344.784334 77.946397 
L 340.4708 77.946397 
z
" clip-path="url(#pc75fffe5b2)" style="fill: #696969"/>
   </g>
   <g id="patch_111">
    <path d="M 343.166759 86.579333 
L 347.480293 86.579333 
L 347.480293 80.363619 
L 343.166759 80.363619 
z
" clip-path="url(#pc75fffe5b2)" style="fill: #696969"/>
   </g>
   <g id="patch_112">
    <path d="M 345.862717 86.579333 
L 350.176251 86.579333 
L 350.176251 76.910444 
L 345.862717 76.910444 
z
" clip-path="url(#pc75fffe5b2)" style="fill: #696969"/>
   </g>
   <g id="patch_113">
    <path d="M 348.558676 86.579333 
L 352.87221 86.579333 
L 352.87221 75.529175 
L 348.558676 75.529175 
z
" clip-path="url(#pc75fffe5b2)" style="fill: #696969"/>
   </g>
   <g id="patch_114">
    <path d="M 351.254635 86.579333 
L 355.568168 86.579333 
L 355.568168 80.363619 
L 351.254635 80.363619 
z
" clip-path="url(#pc75fffe5b2)" style="fill: #696969"/>
   </g>
   <g id="patch_115">
    <path d="M 353.950593 86.579333 
L 358.264127 86.579333 
L 358.264127 82.780841 
L 353.950593 82.780841 
z
" clip-path="url(#pc75fffe5b2)" style="fill: #696969"/>
   </g>
   <g id="patch_116">
    <path d="M 356.646552 86.579333 
L 360.960085 86.579333 
L 360.960085 72.421317 
L 356.646552 72.421317 
z
" clip-path="url(#pc75fffe5b2)" style="fill: #696969"/>
   </g>
   <g id="patch_117">
    <path d="M 359.34251 86.579333 
L 363.656044 86.579333 
L 363.656044 74.147905 
L 359.34251 74.147905 
z
" clip-path="url(#pc75fffe5b2)" style="fill: #696969"/>
   </g>
   <g id="patch_118">
    <path d="M 362.038469 86.579333 
L 366.352003 86.579333 
L 366.352003 80.363619 
L 362.038469 80.363619 
z
" clip-path="url(#pc75fffe5b2)" style="fill: #696969"/>
   </g>
   <g id="patch_119">
    <path d="M 364.734427 86.579333 
L 369.047961 86.579333 
L 369.047961 68.277508 
L 364.734427 68.277508 
z
" clip-path="url(#pc75fffe5b2)" style="fill: #696969"/>
   </g>
   <g id="patch_120">
    <path d="M 367.430386 86.579333 
L 371.74392 86.579333 
L 371.74392 77.946397 
L 367.430386 77.946397 
z
" clip-path="url(#pc75fffe5b2)" style="fill: #696969"/>
   </g>
   <g id="patch_121">
    <path d="M 370.126345 86.579333 
L 374.439878 86.579333 
L 374.439878 86.579333 
L 370.126345 86.579333 
z
" clip-path="url(#pc75fffe5b2)" style="fill: #696969"/>
   </g>
   <g id="patch_122">
    <path d="M 372.822303 86.579333 
L 377.135837 86.579333 
L 377.135837 78.637032 
L 372.822303 78.637032 
z
" clip-path="url(#pc75fffe5b2)" style="fill: #696969"/>
   </g>
   <g id="patch_123">
    <path d="M 375.518262 86.579333 
L 379.831795 86.579333 
L 379.831795 84.162111 
L 375.518262 84.162111 
z
" clip-path="url(#pc75fffe5b2)" style="fill: #696969"/>
   </g>
   <g id="patch_124">
    <path d="M 378.21422 86.579333 
L 382.527754 86.579333 
L 382.527754 79.672984 
L 378.21422 79.672984 
z
" clip-path="url(#pc75fffe5b2)" style="fill: #696969"/>
   </g>
   <g id="patch_125">
    <path d="M 380.910179 86.579333 
L 385.223713 86.579333 
L 385.223713 86.579333 
L 380.910179 86.579333 
z
" clip-path="url(#pc75fffe5b2)" style="fill: #696969"/>
   </g>
   <g id="patch_126">
    <path d="M 383.606137 86.579333 
L 387.919671 86.579333 
L 387.919671 86.579333 
L 383.606137 86.579333 
z
" clip-path="url(#pc75fffe5b2)" style="fill: #696969"/>
   </g>
   <g id="patch_127">
    <path d="M 386.302096 86.579333 
L 390.61563 86.579333 
L 390.61563 76.21981 
L 386.302096 76.21981 
z
" clip-path="url(#pc75fffe5b2)" style="fill: #696969"/>
   </g>
   <g id="patch_128">
    <path d="M 388.998055 86.579333 
L 393.311588 86.579333 
L 393.311588 85.543381 
L 388.998055 85.543381 
z
" clip-path="url(#pc75fffe5b2)" style="fill: #696969"/>
   </g>
   <g id="patch_129">
    <path d="M 391.694013 86.579333 
L 396.007547 86.579333 
L 396.007547 86.579333 
L 391.694013 86.579333 
z
" clip-path="url(#pc75fffe5b2)" style="fill: #696969"/>
   </g>
   <g id="patch_130">
    <path d="M 394.389972 86.579333 
L 398.703505 86.579333 
L 398.703505 86.579333 
L 394.389972 86.579333 
z
" clip-path="url(#pc75fffe5b2)" style="fill: #696969"/>
   </g>
   <g id="patch_131">
    <path d="M 397.08593 86.579333 
L 401.399464 86.579333 
L 401.399464 75.529175 
L 397.08593 75.529175 
z
" clip-path="url(#pc75fffe5b2)" style="fill: #696969"/>
   </g>
   <g id="patch_132">
    <path d="M 399.781889 86.579333 
L 404.095423 86.579333 
L 404.095423 86.579333 
L 399.781889 86.579333 
z
" clip-path="url(#pc75fffe5b2)" style="fill: #696969"/>
   </g>
   <g id="patch_133">
    <path d="M 402.477847 86.579333 
L 406.791381 86.579333 
L 406.791381 72.421317 
L 402.477847 72.421317 
z
" clip-path="url(#pc75fffe5b2)" style="fill: #696969"/>
   </g>
   <g id="patch_134">
    <path d="M 405.173806 86.579333 
L 409.48734 86.579333 
L 409.48734 77.601079 
L 405.173806 77.601079 
z
" clip-path="url(#pc75fffe5b2)" style="fill: #696969"/>
   </g>
   <g id="patch_135">
    <path d="M 407.869765 86.579333 
L 412.183298 86.579333 
L 412.183298 86.579333 
L 407.869765 86.579333 
z
" clip-path="url(#pc75fffe5b2)" style="fill: #696969"/>
   </g>
   <g id="patch_136">
    <path d="M 410.565723 86.579333 
L 414.879257 86.579333 
L 414.879257 74.147905 
L 410.565723 74.147905 
z
" clip-path="url(#pc75fffe5b2)" style="fill: #696969"/>
   </g>
   <g id="patch_137">
    <path d="M 413.261682 86.579333 
L 417.575215 86.579333 
L 417.575215 68.622825 
L 413.261682 68.622825 
z
" clip-path="url(#pc75fffe5b2)" style="fill: #696969"/>
   </g>
   <g id="patch_138">
    <path d="M 415.95764 86.579333 
L 420.271174 86.579333 
L 420.271174 86.579333 
L 415.95764 86.579333 
z
" clip-path="url(#pc75fffe5b2)" style="fill: #696969"/>
   </g>
   <g id="patch_139">
    <path d="M 418.653599 86.579333 
L 422.967133 86.579333 
L 422.967133 61.716476 
L 418.653599 61.716476 
z
" clip-path="url(#pc75fffe5b2)" style="fill: #696969"/>
   </g>
   <g id="patch_140">
    <path d="M 421.349557 86.579333 
L 425.663091 86.579333 
L 425.663091 64.824333 
L 421.349557 64.824333 
z
" clip-path="url(#pc75fffe5b2)" style="fill: #696969"/>
   </g>
   <g id="patch_141">
    <path d="M 424.045516 86.579333 
L 428.35905 86.579333 
L 428.35905 61.025841 
L 424.045516 61.025841 
z
" clip-path="url(#pc75fffe5b2)" style="fill: #696969"/>
   </g>
   <g id="patch_142">
    <path d="M 426.741475 86.579333 
L 431.055008 86.579333 
L 431.055008 81.744889 
L 426.741475 81.744889 
z
" clip-path="url(#pc75fffe5b2)" style="fill: #696969"/>
   </g>
   <g id="patch_143">
    <path d="M 429.437433 86.579333 
L 433.750967 86.579333 
L 433.750967 80.018302 
L 429.437433 80.018302 
z
" clip-path="url(#pc75fffe5b2)" style="fill: #696969"/>
   </g>
   <g id="patch_144">
    <path d="M 432.133392 86.579333 
L 436.446925 86.579333 
L 436.446925 84.162111 
L 432.133392 84.162111 
z
" clip-path="url(#pc75fffe5b2)" style="fill: #696969"/>
   </g>
   <g id="patch_145">
    <path d="M 434.82935 86.579333 
L 439.142884 86.579333 
L 439.142884 86.579333 
L 434.82935 86.579333 
z
" clip-path="url(#pc75fffe5b2)" style="fill: #696969"/>
   </g>
   <g id="patch_146">
    <path d="M 437.525309 86.579333 
L 441.838843 86.579333 
L 441.838843 86.579333 
L 437.525309 86.579333 
z
" clip-path="url(#pc75fffe5b2)" style="fill: #696969"/>
   </g>
   <g id="matplotlib.axis_1">
    <g id="xtick_1">
     <g id="line2d_1">
      <defs>
       <path id="md911959310" d="M 0 0 
L 0 3.5 
" style="stroke: #000000; stroke-width: 0.8"/>
      </defs>
      <g>
       <use xlink:href="#md911959310" x="54.16" y="89.48" style="stroke: #000000; stroke-width: 0.8"/>
      </g>
     </g>
     <g id="text_1">
      <!-- 0 -->
      <g transform="translate(50.97875 104.078438) scale(0.1 -0.1)">
       <defs>
        <path id="DejaVuSans-30" d="M 2034 4250 
Q 1547 4250 1301 3770 
Q 1056 3291 1056 2328 
Q 1056 1369 1301 889 
Q 1547 409 2034 409 
Q 2525 409 2770 889 
Q 3016 1369 3016 2328 
Q 3016 3291 2770 3770 
Q 2525 4250 2034 4250 
z
M 2034 4750 
Q 2819 4750 3233 4129 
Q 3647 3509 3647 2328 
Q 3647 1150 3233 529 
Q 2819 -91 2034 -91 
Q 1250 -91 836 529 
Q 422 1150 422 2328 
Q 422 3509 836 4129 
Q 1250 4750 2034 4750 
z
" transform="scale(0.015625)"/>
       </defs>
       <use xlink:href="#DejaVuSans-30"/>
      </g>
     </g>
    </g>
    <g id="xtick_2">
     <g id="line2d_2">
      <g>
       <use xlink:href="#md911959310" x="108.079171" y="89.48" style="stroke: #000000; stroke-width: 0.8"/>
      </g>
     </g>
     <g id="text_2">
      <!-- 10 -->
      <g transform="translate(101.716671 104.078438) scale(0.1 -0.1)">
       <defs>
        <path id="DejaVuSans-31" d="M 794 531 
L 1825 531 
L 1825 4091 
L 703 3866 
L 703 4441 
L 1819 4666 
L 2450 4666 
L 2450 531 
L 3481 531 
L 3481 0 
L 794 0 
L 794 531 
z
" transform="scale(0.015625)"/>
       </defs>
       <use xlink:href="#DejaVuSans-31"/>
       <use xlink:href="#DejaVuSans-30" x="63.623047"/>
      </g>
     </g>
    </g>
    <g id="xtick_3">
     <g id="line2d_3">
      <g>
       <use xlink:href="#md911959310" x="161.998343" y="89.48" style="stroke: #000000; stroke-width: 0.8"/>
      </g>
     </g>
     <g id="text_3">
      <!-- 20 -->
      <g transform="translate(155.635843 104.078438) scale(0.1 -0.1)">
       <defs>
        <path id="DejaVuSans-32" d="M 1228 531 
L 3431 531 
L 3431 0 
L 469 0 
L 469 531 
Q 828 903 1448 1529 
Q 2069 2156 2228 2338 
Q 2531 2678 2651 2914 
Q 2772 3150 2772 3378 
Q 2772 3750 2511 3984 
Q 2250 4219 1831 4219 
Q 1534 4219 1204 4116 
Q 875 4013 500 3803 
L 500 4441 
Q 881 4594 1212 4672 
Q 1544 4750 1819 4750 
Q 2544 4750 2975 4387 
Q 3406 4025 3406 3419 
Q 3406 3131 3298 2873 
Q 3191 2616 2906 2266 
Q 2828 2175 2409 1742 
Q 1991 1309 1228 531 
z
" transform="scale(0.015625)"/>
       </defs>
       <use xlink:href="#DejaVuSans-32"/>
       <use xlink:href="#DejaVuSans-30" x="63.623047"/>
      </g>
     </g>
    </g>
    <g id="xtick_4">
     <g id="line2d_4">
      <g>
       <use xlink:href="#md911959310" x="215.917514" y="89.48" style="stroke: #000000; stroke-width: 0.8"/>
      </g>
     </g>
     <g id="text_4">
      <!-- 30 -->
      <g transform="translate(209.555014 104.078438) scale(0.1 -0.1)">
       <defs>
        <path id="DejaVuSans-33" d="M 2597 2516 
Q 3050 2419 3304 2112 
Q 3559 1806 3559 1356 
Q 3559 666 3084 287 
Q 2609 -91 1734 -91 
Q 1441 -91 1130 -33 
Q 819 25 488 141 
L 488 750 
Q 750 597 1062 519 
Q 1375 441 1716 441 
Q 2309 441 2620 675 
Q 2931 909 2931 1356 
Q 2931 1769 2642 2001 
Q 2353 2234 1838 2234 
L 1294 2234 
L 1294 2753 
L 1863 2753 
Q 2328 2753 2575 2939 
Q 2822 3125 2822 3475 
Q 2822 3834 2567 4026 
Q 2313 4219 1838 4219 
Q 1578 4219 1281 4162 
Q 984 4106 628 3988 
L 628 4550 
Q 988 4650 1302 4700 
Q 1616 4750 1894 4750 
Q 2613 4750 3031 4423 
Q 3450 4097 3450 3541 
Q 3450 3153 3228 2886 
Q 3006 2619 2597 2516 
z
" transform="scale(0.015625)"/>
       </defs>
       <use xlink:href="#DejaVuSans-33"/>
       <use xlink:href="#DejaVuSans-30" x="63.623047"/>
      </g>
     </g>
    </g>
    <g id="xtick_5">
     <g id="line2d_5">
      <g>
       <use xlink:href="#md911959310" x="269.836686" y="89.48" style="stroke: #000000; stroke-width: 0.8"/>
      </g>
     </g>
     <g id="text_5">
      <!-- 40 -->
      <g transform="translate(263.474186 104.078438) scale(0.1 -0.1)">
       <defs>
        <path id="DejaVuSans-34" d="M 2419 4116 
L 825 1625 
L 2419 1625 
L 2419 4116 
z
M 2253 4666 
L 3047 4666 
L 3047 1625 
L 3713 1625 
L 3713 1100 
L 3047 1100 
L 3047 0 
L 2419 0 
L 2419 1100 
L 313 1100 
L 313 1709 
L 2253 4666 
z
" transform="scale(0.015625)"/>
       </defs>
       <use xlink:href="#DejaVuSans-34"/>
       <use xlink:href="#DejaVuSans-30" x="63.623047"/>
      </g>
     </g>
    </g>
    <g id="xtick_6">
     <g id="line2d_6">
      <g>
       <use xlink:href="#md911959310" x="323.755857" y="89.48" style="stroke: #000000; stroke-width: 0.8"/>
      </g>
     </g>
     <g id="text_6">
      <!-- 50 -->
      <g transform="translate(317.393357 104.078438) scale(0.1 -0.1)">
       <defs>
        <path id="DejaVuSans-35" d="M 691 4666 
L 3169 4666 
L 3169 4134 
L 1269 4134 
L 1269 2991 
Q 1406 3038 1543 3061 
Q 1681 3084 1819 3084 
Q 2600 3084 3056 2656 
Q 3513 2228 3513 1497 
Q 3513 744 3044 326 
Q 2575 -91 1722 -91 
Q 1428 -91 1123 -41 
Q 819 9 494 109 
L 494 744 
Q 775 591 1075 516 
Q 1375 441 1709 441 
Q 2250 441 2565 725 
Q 2881 1009 2881 1497 
Q 2881 1984 2565 2268 
Q 2250 2553 1709 2553 
Q 1456 2553 1204 2497 
Q 953 2441 691 2322 
L 691 4666 
z
" transform="scale(0.015625)"/>
       </defs>
       <use xlink:href="#DejaVuSans-35"/>
       <use xlink:href="#DejaVuSans-30" x="63.623047"/>
      </g>
     </g>
    </g>
    <g id="xtick_7">
     <g id="line2d_7">
      <g>
       <use xlink:href="#md911959310" x="377.675029" y="89.48" style="stroke: #000000; stroke-width: 0.8"/>
      </g>
     </g>
     <g id="text_7">
      <!-- 60 -->
      <g transform="translate(371.312529 104.078438) scale(0.1 -0.1)">
       <defs>
        <path id="DejaVuSans-36" d="M 2113 2584 
Q 1688 2584 1439 2293 
Q 1191 2003 1191 1497 
Q 1191 994 1439 701 
Q 1688 409 2113 409 
Q 2538 409 2786 701 
Q 3034 994 3034 1497 
Q 3034 2003 2786 2293 
Q 2538 2584 2113 2584 
z
M 3366 4563 
L 3366 3988 
Q 3128 4100 2886 4159 
Q 2644 4219 2406 4219 
Q 1781 4219 1451 3797 
Q 1122 3375 1075 2522 
Q 1259 2794 1537 2939 
Q 1816 3084 2150 3084 
Q 2853 3084 3261 2657 
Q 3669 2231 3669 1497 
Q 3669 778 3244 343 
Q 2819 -91 2113 -91 
Q 1303 -91 875 529 
Q 447 1150 447 2328 
Q 447 3434 972 4092 
Q 1497 4750 2381 4750 
Q 2619 4750 2861 4703 
Q 3103 4656 3366 4563 
z
" transform="scale(0.015625)"/>
       </defs>
       <use xlink:href="#DejaVuSans-36"/>
       <use xlink:href="#DejaVuSans-30" x="63.623047"/>
      </g>
     </g>
    </g>
    <g id="xtick_8">
     <g id="line2d_8">
      <g>
       <use xlink:href="#md911959310" x="431.5942" y="89.48" style="stroke: #000000; stroke-width: 0.8"/>
      </g>
     </g>
     <g id="text_8">
      <!-- 70 -->
      <g transform="translate(425.2317 104.078438) scale(0.1 -0.1)">
       <defs>
        <path id="DejaVuSans-37" d="M 525 4666 
L 3525 4666 
L 3525 4397 
L 1831 0 
L 1172 0 
L 2766 4134 
L 525 4134 
L 525 4666 
z
" transform="scale(0.015625)"/>
       </defs>
       <use xlink:href="#DejaVuSans-37"/>
       <use xlink:href="#DejaVuSans-30" x="63.623047"/>
      </g>
     </g>
    </g>
   </g>
   <g id="matplotlib.axis_2">
    <g id="ytick_1">
     <g id="line2d_9">
      <defs>
       <path id="m5c0b00663d" d="M 0 0 
L -3.5 0 
" style="stroke: #000000; stroke-width: 0.8"/>
      </defs>
      <g>
       <use xlink:href="#m5c0b00663d" x="54.16" y="86.579333" style="stroke: #000000; stroke-width: 0.8"/>
      </g>
     </g>
     <g id="text_9">
      <!-- 0 -->
      <g transform="translate(40.7975 90.378552) scale(0.1 -0.1)">
       <use xlink:href="#DejaVuSans-30"/>
      </g>
     </g>
    </g>
    <g id="ytick_2">
     <g id="line2d_10">
      <g>
       <use xlink:href="#m5c0b00663d" x="54.16" y="69.31346" style="stroke: #000000; stroke-width: 0.8"/>
      </g>
     </g>
     <g id="text_10">
      <!-- 50 -->
      <g transform="translate(34.435 73.112679) scale(0.1 -0.1)">
       <use xlink:href="#DejaVuSans-35"/>
       <use xlink:href="#DejaVuSans-30" x="63.623047"/>
      </g>
     </g>
    </g>
   </g>
   <g id="line2d_11">
    <path d="M 54.16 80.465243 
L 62.247876 80.610831 
L 70.335751 80.554434 
L 78.423627 80.303388 
L 89.207461 79.725465 
L 121.558964 77.74041 
L 129.64684 77.531073 
L 137.734716 77.520325 
L 145.822591 77.709563 
L 156.606426 78.227038 
L 172.782177 79.310406 
L 186.26197 80.139321 
L 194.349846 80.466855 
L 202.437721 80.61113 
L 210.525597 80.553382 
L 218.613473 80.301121 
L 229.397307 79.72206 
L 259.052851 77.84793 
L 267.140727 77.578435 
L 275.228603 77.501368 
L 283.316479 77.626753 
L 291.404354 77.938282 
L 302.188189 78.57031 
L 326.451816 80.142029 
L 334.539691 80.468458 
L 342.627567 80.61142 
L 350.715443 80.552321 
L 358.803319 80.298847 
L 369.587153 79.71865 
L 399.242697 77.845561 
L 407.330573 77.577258 
L 415.418449 77.501537 
L 423.506324 77.628246 
L 431.5942 77.940904 
L 439.682076 78.398845 
L 439.682076 78.398845 
" clip-path="url(#pc75fffe5b2)" style="fill: none; stroke: #191970; stroke-width: 3; stroke-linecap: square"/>
   </g>
   <g id="line2d_12">
    <path d="M 134.117436 89.48 
L 134.117436 54.672 
" clip-path="url(#pc75fffe5b2)" style="fill: none; stroke-dasharray: 7.4,3.2; stroke-dashoffset: 0; stroke: #000000; stroke-opacity: 0.8; stroke-width: 2"/>
   </g>
   <g id="patch_147">
    <path d="M 54.16 89.48 
L 54.16 54.672 
" style="fill: none; stroke: #000000; stroke-width: 0.8; stroke-linejoin: miter; stroke-linecap: square"/>
   </g>
   <g id="patch_148">
    <path d="M 54.16 89.48 
L 439.682076 89.48 
" style="fill: none; stroke: #000000; stroke-width: 0.8; stroke-linejoin: miter; stroke-linecap: square"/>
   </g>
   <g id="text_11">
    <!-- 1 -->
    <g transform="translate(244.376038 39.71375) scale(0.08 -0.08)">
     <use xlink:href="#DejaVuSans-31"/>
    </g>
    <!-- (AC: 14.83, PR: 25.99 - NS) -->
    <g transform="translate(193.074163 48.672) scale(0.08 -0.08)">
     <defs>
      <path id="DejaVuSans-28" d="M 1984 4856 
Q 1566 4138 1362 3434 
Q 1159 2731 1159 2009 
Q 1159 1288 1364 580 
Q 1569 -128 1984 -844 
L 1484 -844 
Q 1016 -109 783 600 
Q 550 1309 550 2009 
Q 550 2706 781 3412 
Q 1013 4119 1484 4856 
L 1984 4856 
z
" transform="scale(0.015625)"/>
      <path id="DejaVuSans-41" d="M 2188 4044 
L 1331 1722 
L 3047 1722 
L 2188 4044 
z
M 1831 4666 
L 2547 4666 
L 4325 0 
L 3669 0 
L 3244 1197 
L 1141 1197 
L 716 0 
L 50 0 
L 1831 4666 
z
" transform="scale(0.015625)"/>
      <path id="DejaVuSans-43" d="M 4122 4306 
L 4122 3641 
Q 3803 3938 3442 4084 
Q 3081 4231 2675 4231 
Q 1875 4231 1450 3742 
Q 1025 3253 1025 2328 
Q 1025 1406 1450 917 
Q 1875 428 2675 428 
Q 3081 428 3442 575 
Q 3803 722 4122 1019 
L 4122 359 
Q 3791 134 3420 21 
Q 3050 -91 2638 -91 
Q 1578 -91 968 557 
Q 359 1206 359 2328 
Q 359 3453 968 4101 
Q 1578 4750 2638 4750 
Q 3056 4750 3426 4639 
Q 3797 4528 4122 4306 
z
" transform="scale(0.015625)"/>
      <path id="DejaVuSans-3a" d="M 750 794 
L 1409 794 
L 1409 0 
L 750 0 
L 750 794 
z
M 750 3309 
L 1409 3309 
L 1409 2516 
L 750 2516 
L 750 3309 
z
" transform="scale(0.015625)"/>
      <path id="DejaVuSans-20" transform="scale(0.015625)"/>
      <path id="DejaVuSans-2e" d="M 684 794 
L 1344 794 
L 1344 0 
L 684 0 
L 684 794 
z
" transform="scale(0.015625)"/>
      <path id="DejaVuSans-38" d="M 2034 2216 
Q 1584 2216 1326 1975 
Q 1069 1734 1069 1313 
Q 1069 891 1326 650 
Q 1584 409 2034 409 
Q 2484 409 2743 651 
Q 3003 894 3003 1313 
Q 3003 1734 2745 1975 
Q 2488 2216 2034 2216 
z
M 1403 2484 
Q 997 2584 770 2862 
Q 544 3141 544 3541 
Q 544 4100 942 4425 
Q 1341 4750 2034 4750 
Q 2731 4750 3128 4425 
Q 3525 4100 3525 3541 
Q 3525 3141 3298 2862 
Q 3072 2584 2669 2484 
Q 3125 2378 3379 2068 
Q 3634 1759 3634 1313 
Q 3634 634 3220 271 
Q 2806 -91 2034 -91 
Q 1263 -91 848 271 
Q 434 634 434 1313 
Q 434 1759 690 2068 
Q 947 2378 1403 2484 
z
M 1172 3481 
Q 1172 3119 1398 2916 
Q 1625 2713 2034 2713 
Q 2441 2713 2670 2916 
Q 2900 3119 2900 3481 
Q 2900 3844 2670 4047 
Q 2441 4250 2034 4250 
Q 1625 4250 1398 4047 
Q 1172 3844 1172 3481 
z
" transform="scale(0.015625)"/>
      <path id="DejaVuSans-2c" d="M 750 794 
L 1409 794 
L 1409 256 
L 897 -744 
L 494 -744 
L 750 256 
L 750 794 
z
" transform="scale(0.015625)"/>
      <path id="DejaVuSans-50" d="M 1259 4147 
L 1259 2394 
L 2053 2394 
Q 2494 2394 2734 2622 
Q 2975 2850 2975 3272 
Q 2975 3691 2734 3919 
Q 2494 4147 2053 4147 
L 1259 4147 
z
M 628 4666 
L 2053 4666 
Q 2838 4666 3239 4311 
Q 3641 3956 3641 3272 
Q 3641 2581 3239 2228 
Q 2838 1875 2053 1875 
L 1259 1875 
L 1259 0 
L 628 0 
L 628 4666 
z
" transform="scale(0.015625)"/>
      <path id="DejaVuSans-52" d="M 2841 2188 
Q 3044 2119 3236 1894 
Q 3428 1669 3622 1275 
L 4263 0 
L 3584 0 
L 2988 1197 
Q 2756 1666 2539 1819 
Q 2322 1972 1947 1972 
L 1259 1972 
L 1259 0 
L 628 0 
L 628 4666 
L 2053 4666 
Q 2853 4666 3247 4331 
Q 3641 3997 3641 3322 
Q 3641 2881 3436 2590 
Q 3231 2300 2841 2188 
z
M 1259 4147 
L 1259 2491 
L 2053 2491 
Q 2509 2491 2742 2702 
Q 2975 2913 2975 3322 
Q 2975 3731 2742 3939 
Q 2509 4147 2053 4147 
L 1259 4147 
z
" transform="scale(0.015625)"/>
      <path id="DejaVuSans-39" d="M 703 97 
L 703 672 
Q 941 559 1184 500 
Q 1428 441 1663 441 
Q 2288 441 2617 861 
Q 2947 1281 2994 2138 
Q 2813 1869 2534 1725 
Q 2256 1581 1919 1581 
Q 1219 1581 811 2004 
Q 403 2428 403 3163 
Q 403 3881 828 4315 
Q 1253 4750 1959 4750 
Q 2769 4750 3195 4129 
Q 3622 3509 3622 2328 
Q 3622 1225 3098 567 
Q 2575 -91 1691 -91 
Q 1453 -91 1209 -44 
Q 966 3 703 97 
z
M 1959 2075 
Q 2384 2075 2632 2365 
Q 2881 2656 2881 3163 
Q 2881 3666 2632 3958 
Q 2384 4250 1959 4250 
Q 1534 4250 1286 3958 
Q 1038 3666 1038 3163 
Q 1038 2656 1286 2365 
Q 1534 2075 1959 2075 
z
" transform="scale(0.015625)"/>
      <path id="DejaVuSans-2d" d="M 313 2009 
L 1997 2009 
L 1997 1497 
L 313 1497 
L 313 2009 
z
" transform="scale(0.015625)"/>
      <path id="DejaVuSans-4e" d="M 628 4666 
L 1478 4666 
L 3547 763 
L 3547 4666 
L 4159 4666 
L 4159 0 
L 3309 0 
L 1241 3903 
L 1241 0 
L 628 0 
L 628 4666 
z
" transform="scale(0.015625)"/>
      <path id="DejaVuSans-53" d="M 3425 4513 
L 3425 3897 
Q 3066 4069 2747 4153 
Q 2428 4238 2131 4238 
Q 1616 4238 1336 4038 
Q 1056 3838 1056 3469 
Q 1056 3159 1242 3001 
Q 1428 2844 1947 2747 
L 2328 2669 
Q 3034 2534 3370 2195 
Q 3706 1856 3706 1288 
Q 3706 609 3251 259 
Q 2797 -91 1919 -91 
Q 1588 -91 1214 -16 
Q 841 59 441 206 
L 441 856 
Q 825 641 1194 531 
Q 1563 422 1919 422 
Q 2459 422 2753 634 
Q 3047 847 3047 1241 
Q 3047 1584 2836 1778 
Q 2625 1972 2144 2069 
L 1759 2144 
Q 1053 2284 737 2584 
Q 422 2884 422 3419 
Q 422 4038 858 4394 
Q 1294 4750 2059 4750 
Q 2388 4750 2728 4690 
Q 3069 4631 3425 4513 
z
" transform="scale(0.015625)"/>
      <path id="DejaVuSans-29" d="M 513 4856 
L 1013 4856 
Q 1481 4119 1714 3412 
Q 1947 2706 1947 2009 
Q 1947 1309 1714 600 
Q 1481 -109 1013 -844 
L 513 -844 
Q 928 -128 1133 580 
Q 1338 1288 1338 2009 
Q 1338 2731 1133 3434 
Q 928 4138 513 4856 
z
" transform="scale(0.015625)"/>
     </defs>
     <use xlink:href="#DejaVuSans-28"/>
     <use xlink:href="#DejaVuSans-41" x="39.013672"/>
     <use xlink:href="#DejaVuSans-43" x="105.671875"/>
     <use xlink:href="#DejaVuSans-3a" x="175.496094"/>
     <use xlink:href="#DejaVuSans-20" x="209.1875"/>
     <use xlink:href="#DejaVuSans-31" x="240.974609"/>
     <use xlink:href="#DejaVuSans-34" x="304.597656"/>
     <use xlink:href="#DejaVuSans-2e" x="368.220703"/>
     <use xlink:href="#DejaVuSans-38" x="400.007812"/>
     <use xlink:href="#DejaVuSans-33" x="463.630859"/>
     <use xlink:href="#DejaVuSans-2c" x="527.253906"/>
     <use xlink:href="#DejaVuSans-20" x="559.041016"/>
     <use xlink:href="#DejaVuSans-50" x="590.828125"/>
     <use xlink:href="#DejaVuSans-52" x="651.130859"/>
     <use xlink:href="#DejaVuSans-3a" x="717.488281"/>
     <use xlink:href="#DejaVuSans-20" x="751.179688"/>
     <use xlink:href="#DejaVuSans-32" x="782.966797"/>
     <use xlink:href="#DejaVuSans-35" x="846.589844"/>
     <use xlink:href="#DejaVuSans-2e" x="910.212891"/>
     <use xlink:href="#DejaVuSans-39" x="942"/>
     <use xlink:href="#DejaVuSans-39" x="1005.623047"/>
     <use xlink:href="#DejaVuSans-20" x="1069.246094"/>
     <use xlink:href="#DejaVuSans-2d" x="1101.033203"/>
     <use xlink:href="#DejaVuSans-20" x="1137.117188"/>
     <use xlink:href="#DejaVuSans-4e" x="1168.904297"/>
     <use xlink:href="#DejaVuSans-53" x="1243.708984"/>
     <use xlink:href="#DejaVuSans-29" x="1307.185547"/>
    </g>
   </g>
  </g>
  <g id="axes_2">
   <g id="patch_149">
    <path d="M 453.997924 89.48 
L 839.52 89.48 
L 839.52 54.672 
L 453.997924 54.672 
z
" style="fill: #ffffff"/>
   </g>
   <g id="patch_150">
    <path d="M 451.841157 86.579333 
L 456.154691 86.579333 
L 456.154691 79.672984 
L 451.841157 79.672984 
z
" clip-path="url(#p4898b46176)" style="fill: #696969"/>
   </g>
   <g id="patch_151">
    <path d="M 454.537116 86.579333 
L 458.85065 86.579333 
L 458.85065 85.888698 
L 454.537116 85.888698 
z
" clip-path="url(#p4898b46176)" style="fill: #696969"/>
   </g>
   <g id="patch_152">
    <path d="M 457.233075 86.579333 
L 461.546608 86.579333 
L 461.546608 86.579333 
L 457.233075 86.579333 
z
" clip-path="url(#p4898b46176)" style="fill: #696969"/>
   </g>
   <g id="patch_153">
    <path d="M 459.929033 86.579333 
L 464.242567 86.579333 
L 464.242567 85.543381 
L 459.929033 85.543381 
z
" clip-path="url(#p4898b46176)" style="fill: #696969"/>
   </g>
   <g id="patch_154">
    <path d="M 462.624992 86.579333 
L 466.938525 86.579333 
L 466.938525 85.198063 
L 462.624992 85.198063 
z
" clip-path="url(#p4898b46176)" style="fill: #696969"/>
   </g>
   <g id="patch_155">
    <path d="M 465.32095 86.579333 
L 469.634484 86.579333 
L 469.634484 86.579333 
L 465.32095 86.579333 
z
" clip-path="url(#p4898b46176)" style="fill: #696969"/>
   </g>
   <g id="patch_156">
    <path d="M 468.016909 86.579333 
L 472.330443 86.579333 
L 472.330443 86.579333 
L 468.016909 86.579333 
z
" clip-path="url(#p4898b46176)" style="fill: #696969"/>
   </g>
   <g id="patch_157">
    <path d="M 470.712867 86.579333 
L 475.026401 86.579333 
L 475.026401 86.579333 
L 470.712867 86.579333 
z
" clip-path="url(#p4898b46176)" style="fill: #696969"/>
   </g>
   <g id="patch_158">
    <path d="M 473.408826 86.579333 
L 477.72236 86.579333 
L 477.72236 85.888698 
L 473.408826 85.888698 
z
" clip-path="url(#p4898b46176)" style="fill: #696969"/>
   </g>
   <g id="patch_159">
    <path d="M 476.104785 86.579333 
L 480.418318 86.579333 
L 480.418318 76.910444 
L 476.104785 76.910444 
z
" clip-path="url(#p4898b46176)" style="fill: #696969"/>
   </g>
   <g id="patch_160">
    <path d="M 478.800743 86.579333 
L 483.114277 86.579333 
L 483.114277 79.672984 
L 478.800743 79.672984 
z
" clip-path="url(#p4898b46176)" style="fill: #696969"/>
   </g>
   <g id="patch_161">
    <path d="M 481.496702 86.579333 
L 485.810235 86.579333 
L 485.810235 80.018302 
L 481.496702 80.018302 
z
" clip-path="url(#p4898b46176)" style="fill: #696969"/>
   </g>
   <g id="patch_162">
    <path d="M 484.19266 86.579333 
L 488.506194 86.579333 
L 488.506194 79.672984 
L 484.19266 79.672984 
z
" clip-path="url(#p4898b46176)" style="fill: #696969"/>
   </g>
   <g id="patch_163">
    <path d="M 486.888619 86.579333 
L 491.202153 86.579333 
L 491.202153 76.910444 
L 486.888619 76.910444 
z
" clip-path="url(#p4898b46176)" style="fill: #696969"/>
   </g>
   <g id="patch_164">
    <path d="M 489.584577 86.579333 
L 493.898111 86.579333 
L 493.898111 70.004095 
L 489.584577 70.004095 
z
" clip-path="url(#p4898b46176)" style="fill: #696969"/>
   </g>
   <g id="patch_165">
    <path d="M 492.280536 86.579333 
L 496.59407 86.579333 
L 496.59407 62.061794 
L 492.280536 62.061794 
z
" clip-path="url(#p4898b46176)" style="fill: #696969"/>
   </g>
   <g id="patch_166">
    <path d="M 494.976495 86.579333 
L 499.290028 86.579333 
L 499.290028 80.708937 
L 494.976495 80.708937 
z
" clip-path="url(#p4898b46176)" style="fill: #696969"/>
   </g>
   <g id="patch_167">
    <path d="M 497.672453 86.579333 
L 501.985987 86.579333 
L 501.985987 71.040048 
L 497.672453 71.040048 
z
" clip-path="url(#p4898b46176)" style="fill: #696969"/>
   </g>
   <g id="patch_168">
    <path d="M 500.368412 86.579333 
L 504.681945 86.579333 
L 504.681945 71.040048 
L 500.368412 71.040048 
z
" clip-path="url(#p4898b46176)" style="fill: #696969"/>
   </g>
   <g id="patch_169">
    <path d="M 503.06437 86.579333 
L 507.377904 86.579333 
L 507.377904 77.601079 
L 503.06437 77.601079 
z
" clip-path="url(#p4898b46176)" style="fill: #696969"/>
   </g>
   <g id="patch_170">
    <path d="M 505.760329 86.579333 
L 510.073863 86.579333 
L 510.073863 79.327667 
L 505.760329 79.327667 
z
" clip-path="url(#p4898b46176)" style="fill: #696969"/>
   </g>
   <g id="patch_171">
    <path d="M 508.456287 86.579333 
L 512.769821 86.579333 
L 512.769821 73.111952 
L 508.456287 73.111952 
z
" clip-path="url(#p4898b46176)" style="fill: #696969"/>
   </g>
   <g id="patch_172">
    <path d="M 511.152246 86.579333 
L 515.46578 86.579333 
L 515.46578 86.579333 
L 511.152246 86.579333 
z
" clip-path="url(#p4898b46176)" style="fill: #696969"/>
   </g>
   <g id="patch_173">
    <path d="M 513.848205 86.579333 
L 518.161738 86.579333 
L 518.161738 86.579333 
L 513.848205 86.579333 
z
" clip-path="url(#p4898b46176)" style="fill: #696969"/>
   </g>
   <g id="patch_174">
    <path d="M 516.544163 86.579333 
L 520.857697 86.579333 
L 520.857697 86.579333 
L 516.544163 86.579333 
z
" clip-path="url(#p4898b46176)" style="fill: #696969"/>
   </g>
   <g id="patch_175">
    <path d="M 519.240122 86.579333 
L 523.553655 86.579333 
L 523.553655 86.579333 
L 519.240122 86.579333 
z
" clip-path="url(#p4898b46176)" style="fill: #696969"/>
   </g>
   <g id="patch_176">
    <path d="M 521.93608 86.579333 
L 526.249614 86.579333 
L 526.249614 86.579333 
L 521.93608 86.579333 
z
" clip-path="url(#p4898b46176)" style="fill: #696969"/>
   </g>
   <g id="patch_177">
    <path d="M 524.632039 86.579333 
L 528.945573 86.579333 
L 528.945573 86.579333 
L 524.632039 86.579333 
z
" clip-path="url(#p4898b46176)" style="fill: #696969"/>
   </g>
   <g id="patch_178">
    <path d="M 527.327997 86.579333 
L 531.641531 86.579333 
L 531.641531 79.327667 
L 527.327997 79.327667 
z
" clip-path="url(#p4898b46176)" style="fill: #696969"/>
   </g>
   <g id="patch_179">
    <path d="M 530.023956 86.579333 
L 534.33749 86.579333 
L 534.33749 86.579333 
L 530.023956 86.579333 
z
" clip-path="url(#p4898b46176)" style="fill: #696969"/>
   </g>
   <g id="patch_180">
    <path d="M 532.719915 86.579333 
L 537.033448 86.579333 
L 537.033448 86.579333 
L 532.719915 86.579333 
z
" clip-path="url(#p4898b46176)" style="fill: #696969"/>
   </g>
   <g id="patch_181">
    <path d="M 535.415873 86.579333 
L 539.729407 86.579333 
L 539.729407 86.579333 
L 535.415873 86.579333 
z
" clip-path="url(#p4898b46176)" style="fill: #696969"/>
   </g>
   <g id="patch_182">
    <path d="M 538.111832 86.579333 
L 542.425365 86.579333 
L 542.425365 78.291714 
L 538.111832 78.291714 
z
" clip-path="url(#p4898b46176)" style="fill: #696969"/>
   </g>
   <g id="patch_183">
    <path d="M 540.80779 86.579333 
L 545.121324 86.579333 
L 545.121324 82.780841 
L 540.80779 82.780841 
z
" clip-path="url(#p4898b46176)" style="fill: #696969"/>
   </g>
   <g id="patch_184">
    <path d="M 543.503749 86.579333 
L 547.817283 86.579333 
L 547.817283 82.780841 
L 543.503749 82.780841 
z
" clip-path="url(#p4898b46176)" style="fill: #696969"/>
   </g>
   <g id="patch_185">
    <path d="M 546.199707 86.579333 
L 550.513241 86.579333 
L 550.513241 86.579333 
L 546.199707 86.579333 
z
" clip-path="url(#p4898b46176)" style="fill: #696969"/>
   </g>
   <g id="patch_186">
    <path d="M 548.895666 86.579333 
L 553.2092 86.579333 
L 553.2092 74.493222 
L 548.895666 74.493222 
z
" clip-path="url(#p4898b46176)" style="fill: #696969"/>
   </g>
   <g id="patch_187">
    <path d="M 551.591625 86.579333 
L 555.905158 86.579333 
L 555.905158 68.277508 
L 551.591625 68.277508 
z
" clip-path="url(#p4898b46176)" style="fill: #696969"/>
   </g>
   <g id="patch_188">
    <path d="M 554.287583 86.579333 
L 558.601117 86.579333 
L 558.601117 78.291714 
L 554.287583 78.291714 
z
" clip-path="url(#p4898b46176)" style="fill: #696969"/>
   </g>
   <g id="patch_189">
    <path d="M 556.983542 86.579333 
L 561.297075 86.579333 
L 561.297075 72.421317 
L 556.983542 72.421317 
z
" clip-path="url(#p4898b46176)" style="fill: #696969"/>
   </g>
   <g id="patch_190">
    <path d="M 559.6795 86.579333 
L 563.993034 86.579333 
L 563.993034 83.126159 
L 559.6795 83.126159 
z
" clip-path="url(#p4898b46176)" style="fill: #696969"/>
   </g>
   <g id="patch_191">
    <path d="M 562.375459 86.579333 
L 566.688993 86.579333 
L 566.688993 59.644571 
L 562.375459 59.644571 
z
" clip-path="url(#p4898b46176)" style="fill: #696969"/>
   </g>
   <g id="patch_192">
    <path d="M 565.071417 86.579333 
L 569.384951 86.579333 
L 569.384951 77.601079 
L 565.071417 77.601079 
z
" clip-path="url(#p4898b46176)" style="fill: #696969"/>
   </g>
   <g id="patch_193">
    <path d="M 567.767376 86.579333 
L 572.08091 86.579333 
L 572.08091 86.579333 
L 567.767376 86.579333 
z
" clip-path="url(#p4898b46176)" style="fill: #696969"/>
   </g>
   <g id="patch_194">
    <path d="M 570.463335 86.579333 
L 574.776868 86.579333 
L 574.776868 76.910444 
L 570.463335 76.910444 
z
" clip-path="url(#p4898b46176)" style="fill: #696969"/>
   </g>
   <g id="patch_195">
    <path d="M 573.159293 86.579333 
L 577.472827 86.579333 
L 577.472827 79.672984 
L 573.159293 79.672984 
z
" clip-path="url(#p4898b46176)" style="fill: #696969"/>
   </g>
   <g id="patch_196">
    <path d="M 575.855252 86.579333 
L 580.168785 86.579333 
L 580.168785 79.672984 
L 575.855252 79.672984 
z
" clip-path="url(#p4898b46176)" style="fill: #696969"/>
   </g>
   <g id="patch_197">
    <path d="M 578.55121 86.579333 
L 582.864744 86.579333 
L 582.864744 85.543381 
L 578.55121 85.543381 
z
" clip-path="url(#p4898b46176)" style="fill: #696969"/>
   </g>
   <g id="patch_198">
    <path d="M 581.247169 86.579333 
L 585.560703 86.579333 
L 585.560703 83.471476 
L 581.247169 83.471476 
z
" clip-path="url(#p4898b46176)" style="fill: #696969"/>
   </g>
   <g id="patch_199">
    <path d="M 583.943127 86.579333 
L 588.256661 86.579333 
L 588.256661 82.435524 
L 583.943127 82.435524 
z
" clip-path="url(#p4898b46176)" style="fill: #696969"/>
   </g>
   <g id="patch_200">
    <path d="M 586.639086 86.579333 
L 590.95262 86.579333 
L 590.95262 86.579333 
L 586.639086 86.579333 
z
" clip-path="url(#p4898b46176)" style="fill: #696969"/>
   </g>
   <g id="patch_201">
    <path d="M 589.335045 86.579333 
L 593.648578 86.579333 
L 593.648578 83.816794 
L 589.335045 83.816794 
z
" clip-path="url(#p4898b46176)" style="fill: #696969"/>
   </g>
   <g id="patch_202">
    <path d="M 592.031003 86.579333 
L 596.344537 86.579333 
L 596.344537 86.579333 
L 592.031003 86.579333 
z
" clip-path="url(#p4898b46176)" style="fill: #696969"/>
   </g>
   <g id="patch_203">
    <path d="M 594.726962 86.579333 
L 599.040495 86.579333 
L 599.040495 73.111952 
L 594.726962 73.111952 
z
" clip-path="url(#p4898b46176)" style="fill: #696969"/>
   </g>
   <g id="patch_204">
    <path d="M 597.42292 86.579333 
L 601.736454 86.579333 
L 601.736454 86.579333 
L 597.42292 86.579333 
z
" clip-path="url(#p4898b46176)" style="fill: #696969"/>
   </g>
   <g id="patch_205">
    <path d="M 600.118879 86.579333 
L 604.432413 86.579333 
L 604.432413 75.874492 
L 600.118879 75.874492 
z
" clip-path="url(#p4898b46176)" style="fill: #696969"/>
   </g>
   <g id="patch_206">
    <path d="M 602.814837 86.579333 
L 607.128371 86.579333 
L 607.128371 86.579333 
L 602.814837 86.579333 
z
" clip-path="url(#p4898b46176)" style="fill: #696969"/>
   </g>
   <g id="patch_207">
    <path d="M 605.510796 86.579333 
L 609.82433 86.579333 
L 609.82433 68.622825 
L 605.510796 68.622825 
z
" clip-path="url(#p4898b46176)" style="fill: #696969"/>
   </g>
   <g id="patch_208">
    <path d="M 608.206755 86.579333 
L 612.520288 86.579333 
L 612.520288 74.147905 
L 608.206755 74.147905 
z
" clip-path="url(#p4898b46176)" style="fill: #696969"/>
   </g>
   <g id="patch_209">
    <path d="M 610.902713 86.579333 
L 615.216247 86.579333 
L 615.216247 80.018302 
L 610.902713 80.018302 
z
" clip-path="url(#p4898b46176)" style="fill: #696969"/>
   </g>
   <g id="patch_210">
    <path d="M 613.598672 86.579333 
L 617.912205 86.579333 
L 617.912205 80.363619 
L 613.598672 80.363619 
z
" clip-path="url(#p4898b46176)" style="fill: #696969"/>
   </g>
   <g id="patch_211">
    <path d="M 616.29463 86.579333 
L 620.608164 86.579333 
L 620.608164 71.730683 
L 616.29463 71.730683 
z
" clip-path="url(#p4898b46176)" style="fill: #696969"/>
   </g>
   <g id="patch_212">
    <path d="M 618.990589 86.579333 
L 623.304123 86.579333 
L 623.304123 81.744889 
L 618.990589 81.744889 
z
" clip-path="url(#p4898b46176)" style="fill: #696969"/>
   </g>
   <g id="patch_213">
    <path d="M 621.686547 86.579333 
L 626.000081 86.579333 
L 626.000081 68.622825 
L 621.686547 68.622825 
z
" clip-path="url(#p4898b46176)" style="fill: #696969"/>
   </g>
   <g id="patch_214">
    <path d="M 624.382506 86.579333 
L 628.69604 86.579333 
L 628.69604 73.802587 
L 624.382506 73.802587 
z
" clip-path="url(#p4898b46176)" style="fill: #696969"/>
   </g>
   <g id="patch_215">
    <path d="M 627.078465 86.579333 
L 631.391998 86.579333 
L 631.391998 74.493222 
L 627.078465 74.493222 
z
" clip-path="url(#p4898b46176)" style="fill: #696969"/>
   </g>
   <g id="patch_216">
    <path d="M 629.774423 86.579333 
L 634.087957 86.579333 
L 634.087957 72.421317 
L 629.774423 72.421317 
z
" clip-path="url(#p4898b46176)" style="fill: #696969"/>
   </g>
   <g id="patch_217">
    <path d="M 632.470382 86.579333 
L 636.783915 86.579333 
L 636.783915 85.888698 
L 632.470382 85.888698 
z
" clip-path="url(#p4898b46176)" style="fill: #696969"/>
   </g>
   <g id="patch_218">
    <path d="M 635.16634 86.579333 
L 639.479874 86.579333 
L 639.479874 86.579333 
L 635.16634 86.579333 
z
" clip-path="url(#p4898b46176)" style="fill: #696969"/>
   </g>
   <g id="patch_219">
    <path d="M 637.862299 86.579333 
L 642.175833 86.579333 
L 642.175833 77.255762 
L 637.862299 77.255762 
z
" clip-path="url(#p4898b46176)" style="fill: #696969"/>
   </g>
   <g id="patch_220">
    <path d="M 640.558257 86.579333 
L 644.871791 86.579333 
L 644.871791 75.183857 
L 640.558257 75.183857 
z
" clip-path="url(#p4898b46176)" style="fill: #696969"/>
   </g>
   <g id="patch_221">
    <path d="M 643.254216 86.579333 
L 647.56775 86.579333 
L 647.56775 86.579333 
L 643.254216 86.579333 
z
" clip-path="url(#p4898b46176)" style="fill: #696969"/>
   </g>
   <g id="patch_222">
    <path d="M 645.950175 86.579333 
L 650.263708 86.579333 
L 650.263708 72.076 
L 645.950175 72.076 
z
" clip-path="url(#p4898b46176)" style="fill: #696969"/>
   </g>
   <g id="patch_223">
    <path d="M 648.646133 86.579333 
L 652.959667 86.579333 
L 652.959667 86.579333 
L 648.646133 86.579333 
z
" clip-path="url(#p4898b46176)" style="fill: #696969"/>
   </g>
   <g id="patch_224">
    <path d="M 651.342092 86.579333 
L 655.655625 86.579333 
L 655.655625 86.579333 
L 651.342092 86.579333 
z
" clip-path="url(#p4898b46176)" style="fill: #696969"/>
   </g>
   <g id="patch_225">
    <path d="M 654.03805 86.579333 
L 658.351584 86.579333 
L 658.351584 76.565127 
L 654.03805 76.565127 
z
" clip-path="url(#p4898b46176)" style="fill: #696969"/>
   </g>
   <g id="patch_226">
    <path d="M 656.734009 86.579333 
L 661.047543 86.579333 
L 661.047543 84.852746 
L 656.734009 84.852746 
z
" clip-path="url(#p4898b46176)" style="fill: #696969"/>
   </g>
   <g id="patch_227">
    <path d="M 659.429967 86.579333 
L 663.743501 86.579333 
L 663.743501 80.363619 
L 659.429967 80.363619 
z
" clip-path="url(#p4898b46176)" style="fill: #696969"/>
   </g>
   <g id="patch_228">
    <path d="M 662.125926 86.579333 
L 666.43946 86.579333 
L 666.43946 72.076 
L 662.125926 72.076 
z
" clip-path="url(#p4898b46176)" style="fill: #696969"/>
   </g>
   <g id="patch_229">
    <path d="M 664.821885 86.579333 
L 669.135418 86.579333 
L 669.135418 77.255762 
L 664.821885 77.255762 
z
" clip-path="url(#p4898b46176)" style="fill: #696969"/>
   </g>
   <g id="patch_230">
    <path d="M 667.517843 86.579333 
L 671.831377 86.579333 
L 671.831377 76.910444 
L 667.517843 76.910444 
z
" clip-path="url(#p4898b46176)" style="fill: #696969"/>
   </g>
   <g id="patch_231">
    <path d="M 670.213802 86.579333 
L 674.527335 86.579333 
L 674.527335 72.421317 
L 670.213802 72.421317 
z
" clip-path="url(#p4898b46176)" style="fill: #696969"/>
   </g>
   <g id="patch_232">
    <path d="M 672.90976 86.579333 
L 677.223294 86.579333 
L 677.223294 75.183857 
L 672.90976 75.183857 
z
" clip-path="url(#p4898b46176)" style="fill: #696969"/>
   </g>
   <g id="patch_233">
    <path d="M 675.605719 86.579333 
L 679.919253 86.579333 
L 679.919253 67.586873 
L 675.605719 67.586873 
z
" clip-path="url(#p4898b46176)" style="fill: #696969"/>
   </g>
   <g id="patch_234">
    <path d="M 678.301677 86.579333 
L 682.615211 86.579333 
L 682.615211 68.622825 
L 678.301677 68.622825 
z
" clip-path="url(#p4898b46176)" style="fill: #696969"/>
   </g>
   <g id="patch_235">
    <path d="M 680.997636 86.579333 
L 685.31117 86.579333 
L 685.31117 71.040048 
L 680.997636 71.040048 
z
" clip-path="url(#p4898b46176)" style="fill: #696969"/>
   </g>
   <g id="patch_236">
    <path d="M 683.693595 86.579333 
L 688.007128 86.579333 
L 688.007128 68.968143 
L 683.693595 68.968143 
z
" clip-path="url(#p4898b46176)" style="fill: #696969"/>
   </g>
   <g id="patch_237">
    <path d="M 686.389553 86.579333 
L 690.703087 86.579333 
L 690.703087 70.69473 
L 686.389553 70.69473 
z
" clip-path="url(#p4898b46176)" style="fill: #696969"/>
   </g>
   <g id="patch_238">
    <path d="M 689.085512 86.579333 
L 693.399045 86.579333 
L 693.399045 70.004095 
L 689.085512 70.004095 
z
" clip-path="url(#p4898b46176)" style="fill: #696969"/>
   </g>
   <g id="patch_239">
    <path d="M 691.78147 86.579333 
L 696.095004 86.579333 
L 696.095004 82.780841 
L 691.78147 82.780841 
z
" clip-path="url(#p4898b46176)" style="fill: #696969"/>
   </g>
   <g id="patch_240">
    <path d="M 694.477429 86.579333 
L 698.790963 86.579333 
L 698.790963 85.198063 
L 694.477429 85.198063 
z
" clip-path="url(#p4898b46176)" style="fill: #696969"/>
   </g>
   <g id="patch_241">
    <path d="M 697.173387 86.579333 
L 701.486921 86.579333 
L 701.486921 86.579333 
L 697.173387 86.579333 
z
" clip-path="url(#p4898b46176)" style="fill: #696969"/>
   </g>
   <g id="patch_242">
    <path d="M 699.869346 86.579333 
L 704.18288 86.579333 
L 704.18288 78.291714 
L 699.869346 78.291714 
z
" clip-path="url(#p4898b46176)" style="fill: #696969"/>
   </g>
   <g id="patch_243">
    <path d="M 702.565305 86.579333 
L 706.878838 86.579333 
L 706.878838 79.672984 
L 702.565305 79.672984 
z
" clip-path="url(#p4898b46176)" style="fill: #696969"/>
   </g>
   <g id="patch_244">
    <path d="M 705.261263 86.579333 
L 709.574797 86.579333 
L 709.574797 78.291714 
L 705.261263 78.291714 
z
" clip-path="url(#p4898b46176)" style="fill: #696969"/>
   </g>
   <g id="patch_245">
    <path d="M 707.957222 86.579333 
L 712.270755 86.579333 
L 712.270755 78.982349 
L 707.957222 78.982349 
z
" clip-path="url(#p4898b46176)" style="fill: #696969"/>
   </g>
   <g id="patch_246">
    <path d="M 710.65318 86.579333 
L 714.966714 86.579333 
L 714.966714 86.579333 
L 710.65318 86.579333 
z
" clip-path="url(#p4898b46176)" style="fill: #696969"/>
   </g>
   <g id="patch_247">
    <path d="M 713.349139 86.579333 
L 717.662673 86.579333 
L 717.662673 83.471476 
L 713.349139 83.471476 
z
" clip-path="url(#p4898b46176)" style="fill: #696969"/>
   </g>
   <g id="patch_248">
    <path d="M 716.045097 86.579333 
L 720.358631 86.579333 
L 720.358631 75.529175 
L 716.045097 75.529175 
z
" clip-path="url(#p4898b46176)" style="fill: #696969"/>
   </g>
   <g id="patch_249">
    <path d="M 718.741056 86.579333 
L 723.05459 86.579333 
L 723.05459 85.198063 
L 718.741056 85.198063 
z
" clip-path="url(#p4898b46176)" style="fill: #696969"/>
   </g>
   <g id="patch_250">
    <path d="M 721.437015 86.579333 
L 725.750548 86.579333 
L 725.750548 80.708937 
L 721.437015 80.708937 
z
" clip-path="url(#p4898b46176)" style="fill: #696969"/>
   </g>
   <g id="patch_251">
    <path d="M 724.132973 86.579333 
L 728.446507 86.579333 
L 728.446507 74.147905 
L 724.132973 74.147905 
z
" clip-path="url(#p4898b46176)" style="fill: #696969"/>
   </g>
   <g id="patch_252">
    <path d="M 726.828932 86.579333 
L 731.142465 86.579333 
L 731.142465 86.579333 
L 726.828932 86.579333 
z
" clip-path="url(#p4898b46176)" style="fill: #696969"/>
   </g>
   <g id="patch_253">
    <path d="M 729.52489 86.579333 
L 733.838424 86.579333 
L 733.838424 78.637032 
L 729.52489 78.637032 
z
" clip-path="url(#p4898b46176)" style="fill: #696969"/>
   </g>
   <g id="patch_254">
    <path d="M 732.220849 86.579333 
L 736.534383 86.579333 
L 736.534383 86.579333 
L 732.220849 86.579333 
z
" clip-path="url(#p4898b46176)" style="fill: #696969"/>
   </g>
   <g id="patch_255">
    <path d="M 734.916807 86.579333 
L 739.230341 86.579333 
L 739.230341 80.363619 
L 734.916807 80.363619 
z
" clip-path="url(#p4898b46176)" style="fill: #696969"/>
   </g>
   <g id="patch_256">
    <path d="M 737.612766 86.579333 
L 741.9263 86.579333 
L 741.9263 75.183857 
L 737.612766 75.183857 
z
" clip-path="url(#p4898b46176)" style="fill: #696969"/>
   </g>
   <g id="patch_257">
    <path d="M 740.308725 86.579333 
L 744.622258 86.579333 
L 744.622258 68.622825 
L 740.308725 68.622825 
z
" clip-path="url(#p4898b46176)" style="fill: #696969"/>
   </g>
   <g id="patch_258">
    <path d="M 743.004683 86.579333 
L 747.318217 86.579333 
L 747.318217 70.004095 
L 743.004683 70.004095 
z
" clip-path="url(#p4898b46176)" style="fill: #696969"/>
   </g>
   <g id="patch_259">
    <path d="M 745.700642 86.579333 
L 750.014175 86.579333 
L 750.014175 76.565127 
L 745.700642 76.565127 
z
" clip-path="url(#p4898b46176)" style="fill: #696969"/>
   </g>
   <g id="patch_260">
    <path d="M 748.3966 86.579333 
L 752.710134 86.579333 
L 752.710134 73.111952 
L 748.3966 73.111952 
z
" clip-path="url(#p4898b46176)" style="fill: #696969"/>
   </g>
   <g id="patch_261">
    <path d="M 751.092559 86.579333 
L 755.406093 86.579333 
L 755.406093 71.040048 
L 751.092559 71.040048 
z
" clip-path="url(#p4898b46176)" style="fill: #696969"/>
   </g>
   <g id="patch_262">
    <path d="M 753.788517 86.579333 
L 758.102051 86.579333 
L 758.102051 80.708937 
L 753.788517 80.708937 
z
" clip-path="url(#p4898b46176)" style="fill: #696969"/>
   </g>
   <g id="patch_263">
    <path d="M 756.484476 86.579333 
L 760.79801 86.579333 
L 760.79801 83.471476 
L 756.484476 83.471476 
z
" clip-path="url(#p4898b46176)" style="fill: #696969"/>
   </g>
   <g id="patch_264">
    <path d="M 759.180435 86.579333 
L 763.493968 86.579333 
L 763.493968 86.579333 
L 759.180435 86.579333 
z
" clip-path="url(#p4898b46176)" style="fill: #696969"/>
   </g>
   <g id="patch_265">
    <path d="M 761.876393 86.579333 
L 766.189927 86.579333 
L 766.189927 75.183857 
L 761.876393 75.183857 
z
" clip-path="url(#p4898b46176)" style="fill: #696969"/>
   </g>
   <g id="patch_266">
    <path d="M 764.572352 86.579333 
L 768.885885 86.579333 
L 768.885885 70.349413 
L 764.572352 70.349413 
z
" clip-path="url(#p4898b46176)" style="fill: #696969"/>
   </g>
   <g id="patch_267">
    <path d="M 767.26831 86.579333 
L 771.581844 86.579333 
L 771.581844 81.399571 
L 767.26831 81.399571 
z
" clip-path="url(#p4898b46176)" style="fill: #696969"/>
   </g>
   <g id="patch_268">
    <path d="M 769.964269 86.579333 
L 774.277803 86.579333 
L 774.277803 85.543381 
L 769.964269 85.543381 
z
" clip-path="url(#p4898b46176)" style="fill: #696969"/>
   </g>
   <g id="patch_269">
    <path d="M 772.660227 86.579333 
L 776.973761 86.579333 
L 776.973761 86.579333 
L 772.660227 86.579333 
z
" clip-path="url(#p4898b46176)" style="fill: #696969"/>
   </g>
   <g id="patch_270">
    <path d="M 775.356186 86.579333 
L 779.66972 86.579333 
L 779.66972 85.543381 
L 775.356186 85.543381 
z
" clip-path="url(#p4898b46176)" style="fill: #696969"/>
   </g>
   <g id="patch_271">
    <path d="M 778.052145 86.579333 
L 782.365678 86.579333 
L 782.365678 83.471476 
L 778.052145 83.471476 
z
" clip-path="url(#p4898b46176)" style="fill: #696969"/>
   </g>
   <g id="patch_272">
    <path d="M 780.748103 86.579333 
L 785.061637 86.579333 
L 785.061637 78.291714 
L 780.748103 78.291714 
z
" clip-path="url(#p4898b46176)" style="fill: #696969"/>
   </g>
   <g id="patch_273">
    <path d="M 783.444062 86.579333 
L 787.757595 86.579333 
L 787.757595 82.090206 
L 783.444062 82.090206 
z
" clip-path="url(#p4898b46176)" style="fill: #696969"/>
   </g>
   <g id="patch_274">
    <path d="M 786.14002 86.579333 
L 790.453554 86.579333 
L 790.453554 80.708937 
L 786.14002 80.708937 
z
" clip-path="url(#p4898b46176)" style="fill: #696969"/>
   </g>
   <g id="patch_275">
    <path d="M 788.835979 86.579333 
L 793.149513 86.579333 
L 793.149513 75.183857 
L 788.835979 75.183857 
z
" clip-path="url(#p4898b46176)" style="fill: #696969"/>
   </g>
   <g id="patch_276">
    <path d="M 791.531937 86.579333 
L 795.845471 86.579333 
L 795.845471 84.852746 
L 791.531937 84.852746 
z
" clip-path="url(#p4898b46176)" style="fill: #696969"/>
   </g>
   <g id="patch_277">
    <path d="M 794.227896 86.579333 
L 798.54143 86.579333 
L 798.54143 83.471476 
L 794.227896 83.471476 
z
" clip-path="url(#p4898b46176)" style="fill: #696969"/>
   </g>
   <g id="patch_278">
    <path d="M 796.923855 86.579333 
L 801.237388 86.579333 
L 801.237388 67.241556 
L 796.923855 67.241556 
z
" clip-path="url(#p4898b46176)" style="fill: #696969"/>
   </g>
   <g id="patch_279">
    <path d="M 799.619813 86.579333 
L 803.933347 86.579333 
L 803.933347 81.054254 
L 799.619813 81.054254 
z
" clip-path="url(#p4898b46176)" style="fill: #696969"/>
   </g>
   <g id="patch_280">
    <path d="M 802.315772 86.579333 
L 806.629305 86.579333 
L 806.629305 78.291714 
L 802.315772 78.291714 
z
" clip-path="url(#p4898b46176)" style="fill: #696969"/>
   </g>
   <g id="patch_281">
    <path d="M 805.01173 86.579333 
L 809.325264 86.579333 
L 809.325264 74.493222 
L 805.01173 74.493222 
z
" clip-path="url(#p4898b46176)" style="fill: #696969"/>
   </g>
   <g id="patch_282">
    <path d="M 807.707689 86.579333 
L 812.021223 86.579333 
L 812.021223 69.31346 
L 807.707689 69.31346 
z
" clip-path="url(#p4898b46176)" style="fill: #696969"/>
   </g>
   <g id="patch_283">
    <path d="M 810.403647 86.579333 
L 814.717181 86.579333 
L 814.717181 71.385365 
L 810.403647 71.385365 
z
" clip-path="url(#p4898b46176)" style="fill: #696969"/>
   </g>
   <g id="patch_284">
    <path d="M 813.099606 86.579333 
L 817.41314 86.579333 
L 817.41314 67.586873 
L 813.099606 67.586873 
z
" clip-path="url(#p4898b46176)" style="fill: #696969"/>
   </g>
   <g id="patch_285">
    <path d="M 815.795565 86.579333 
L 820.109098 86.579333 
L 820.109098 72.421317 
L 815.795565 72.421317 
z
" clip-path="url(#p4898b46176)" style="fill: #696969"/>
   </g>
   <g id="patch_286">
    <path d="M 818.491523 86.579333 
L 822.805057 86.579333 
L 822.805057 80.018302 
L 818.491523 80.018302 
z
" clip-path="url(#p4898b46176)" style="fill: #696969"/>
   </g>
   <g id="patch_287">
    <path d="M 821.187482 86.579333 
L 825.501015 86.579333 
L 825.501015 68.277508 
L 821.187482 68.277508 
z
" clip-path="url(#p4898b46176)" style="fill: #696969"/>
   </g>
   <g id="patch_288">
    <path d="M 823.88344 86.579333 
L 828.196974 86.579333 
L 828.196974 73.111952 
L 823.88344 73.111952 
z
" clip-path="url(#p4898b46176)" style="fill: #696969"/>
   </g>
   <g id="patch_289">
    <path d="M 826.579399 86.579333 
L 830.892933 86.579333 
L 830.892933 86.579333 
L 826.579399 86.579333 
z
" clip-path="url(#p4898b46176)" style="fill: #696969"/>
   </g>
   <g id="patch_290">
    <path d="M 829.275357 86.579333 
L 833.588891 86.579333 
L 833.588891 86.579333 
L 829.275357 86.579333 
z
" clip-path="url(#p4898b46176)" style="fill: #696969"/>
   </g>
   <g id="patch_291">
    <path d="M 831.971316 86.579333 
L 836.28485 86.579333 
L 836.28485 86.579333 
L 831.971316 86.579333 
z
" clip-path="url(#p4898b46176)" style="fill: #696969"/>
   </g>
   <g id="patch_292">
    <path d="M 834.667275 86.579333 
L 838.980808 86.579333 
L 838.980808 86.579333 
L 834.667275 86.579333 
z
" clip-path="url(#p4898b46176)" style="fill: #696969"/>
   </g>
   <g id="patch_293">
    <path d="M 837.363233 86.579333 
L 841.676767 86.579333 
L 841.676767 72.421317 
L 837.363233 72.421317 
z
" clip-path="url(#p4898b46176)" style="fill: #696969"/>
   </g>
   <g id="matplotlib.axis_3">
    <g id="xtick_9">
     <g id="line2d_13">
      <g>
       <use xlink:href="#md911959310" x="497.133261" y="89.48" style="stroke: #000000; stroke-width: 0.8"/>
      </g>
     </g>
     <g id="text_12">
      <!-- 80 -->
      <g transform="translate(490.770761 104.078438) scale(0.1 -0.1)">
       <use xlink:href="#DejaVuSans-38"/>
       <use xlink:href="#DejaVuSans-30" x="63.623047"/>
      </g>
     </g>
    </g>
    <g id="xtick_10">
     <g id="line2d_14">
      <g>
       <use xlink:href="#md911959310" x="551.052433" y="89.48" style="stroke: #000000; stroke-width: 0.8"/>
      </g>
     </g>
     <g id="text_13">
      <!-- 90 -->
      <g transform="translate(544.689933 104.078438) scale(0.1 -0.1)">
       <use xlink:href="#DejaVuSans-39"/>
       <use xlink:href="#DejaVuSans-30" x="63.623047"/>
      </g>
     </g>
    </g>
    <g id="xtick_11">
     <g id="line2d_15">
      <g>
       <use xlink:href="#md911959310" x="604.971604" y="89.48" style="stroke: #000000; stroke-width: 0.8"/>
      </g>
     </g>
     <g id="text_14">
      <!-- 100 -->
      <g transform="translate(595.427854 104.078438) scale(0.1 -0.1)">
       <use xlink:href="#DejaVuSans-31"/>
       <use xlink:href="#DejaVuSans-30" x="63.623047"/>
       <use xlink:href="#DejaVuSans-30" x="127.246094"/>
      </g>
     </g>
    </g>
    <g id="xtick_12">
     <g id="line2d_16">
      <g>
       <use xlink:href="#md911959310" x="658.890776" y="89.48" style="stroke: #000000; stroke-width: 0.8"/>
      </g>
     </g>
     <g id="text_15">
      <!-- 110 -->
      <g transform="translate(649.347026 104.078438) scale(0.1 -0.1)">
       <use xlink:href="#DejaVuSans-31"/>
       <use xlink:href="#DejaVuSans-31" x="63.623047"/>
       <use xlink:href="#DejaVuSans-30" x="127.246094"/>
      </g>
     </g>
    </g>
    <g id="xtick_13">
     <g id="line2d_17">
      <g>
       <use xlink:href="#md911959310" x="712.809947" y="89.48" style="stroke: #000000; stroke-width: 0.8"/>
      </g>
     </g>
     <g id="text_16">
      <!-- 120 -->
      <g transform="translate(703.266197 104.078438) scale(0.1 -0.1)">
       <use xlink:href="#DejaVuSans-31"/>
       <use xlink:href="#DejaVuSans-32" x="63.623047"/>
       <use xlink:href="#DejaVuSans-30" x="127.246094"/>
      </g>
     </g>
    </g>
    <g id="xtick_14">
     <g id="line2d_18">
      <g>
       <use xlink:href="#md911959310" x="766.729119" y="89.48" style="stroke: #000000; stroke-width: 0.8"/>
      </g>
     </g>
     <g id="text_17">
      <!-- 130 -->
      <g transform="translate(757.185369 104.078438) scale(0.1 -0.1)">
       <use xlink:href="#DejaVuSans-31"/>
       <use xlink:href="#DejaVuSans-33" x="63.623047"/>
       <use xlink:href="#DejaVuSans-30" x="127.246094"/>
      </g>
     </g>
    </g>
    <g id="xtick_15">
     <g id="line2d_19">
      <g>
       <use xlink:href="#md911959310" x="820.64829" y="89.48" style="stroke: #000000; stroke-width: 0.8"/>
      </g>
     </g>
     <g id="text_18">
      <!-- 140 -->
      <g transform="translate(811.10454 104.078438) scale(0.1 -0.1)">
       <use xlink:href="#DejaVuSans-31"/>
       <use xlink:href="#DejaVuSans-34" x="63.623047"/>
       <use xlink:href="#DejaVuSans-30" x="127.246094"/>
      </g>
     </g>
    </g>
   </g>
   <g id="matplotlib.axis_4">
    <g id="ytick_3">
     <g id="line2d_20">
      <g>
       <use xlink:href="#m5c0b00663d" x="453.997924" y="86.579333" style="stroke: #000000; stroke-width: 0.8"/>
      </g>
     </g>
    </g>
    <g id="ytick_4">
     <g id="line2d_21">
      <g>
       <use xlink:href="#m5c0b00663d" x="453.997924" y="69.31346" style="stroke: #000000; stroke-width: 0.8"/>
      </g>
     </g>
    </g>
   </g>
   <g id="line2d_22">
    <path d="M 453.997924 80.205793 
L 464.781759 80.125807 
L 475.565593 79.815231 
L 491.741344 79.083399 
L 507.917096 78.369993 
L 518.70093 78.088276 
L 529.484764 78.043093 
L 540.268599 78.244805 
L 553.748391 78.769041 
L 580.707977 79.960759 
L 591.491811 80.186876 
L 602.275646 80.168402 
L 613.05948 79.909572 
L 626.539273 79.342688 
L 650.8029 78.278417 
L 661.586734 78.052868 
L 672.370569 78.071973 
L 683.154403 78.331351 
L 696.634196 78.898616 
L 720.897823 79.962434 
L 731.681657 80.187413 
L 742.465491 80.167678 
L 753.249326 79.907753 
L 766.729119 79.340108 
L 790.992746 78.276745 
L 801.77658 78.052335 
L 812.560414 78.0727 
L 823.344249 78.333172 
L 836.824041 78.901197 
L 839.52 79.031552 
L 839.52 79.031552 
" clip-path="url(#p4898b46176)" style="fill: none; stroke: #191970; stroke-width: 3; stroke-linecap: square"/>
   </g>
   <g id="line2d_23">
    <path d="M 105.618332 89.48 
L 105.618332 54.672 
" clip-path="url(#p4898b46176)" style="fill: none; stroke-dasharray: 7.4,3.2; stroke-dashoffset: 0; stroke: #000000; stroke-opacity: 0.8; stroke-width: 2"/>
   </g>
   <g id="patch_294">
    <path d="M 453.997924 89.48 
L 453.997924 54.672 
" style="fill: none; stroke: #000000; stroke-width: 0.8; stroke-linejoin: miter; stroke-linecap: square"/>
   </g>
   <g id="patch_295">
    <path d="M 453.997924 89.48 
L 839.52 89.48 
" style="fill: none; stroke: #000000; stroke-width: 0.8; stroke-linejoin: miter; stroke-linecap: square"/>
   </g>
   <g id="text_19">
    <!-- 2 -->
    <g transform="translate(644.213962 39.71375) scale(0.08 -0.08)">
     <use xlink:href="#DejaVuSans-32"/>
    </g>
    <!-- (AC: 7.39, PR: 25.99 - NS) -->
    <g transform="translate(595.457087 48.672) scale(0.08 -0.08)">
     <use xlink:href="#DejaVuSans-28"/>
     <use xlink:href="#DejaVuSans-41" x="39.013672"/>
     <use xlink:href="#DejaVuSans-43" x="105.671875"/>
     <use xlink:href="#DejaVuSans-3a" x="175.496094"/>
     <use xlink:href="#DejaVuSans-20" x="209.1875"/>
     <use xlink:href="#DejaVuSans-37" x="240.974609"/>
     <use xlink:href="#DejaVuSans-2e" x="304.597656"/>
     <use xlink:href="#DejaVuSans-33" x="336.384766"/>
     <use xlink:href="#DejaVuSans-39" x="400.007812"/>
     <use xlink:href="#DejaVuSans-2c" x="463.630859"/>
     <use xlink:href="#DejaVuSans-20" x="495.417969"/>
     <use xlink:href="#DejaVuSans-50" x="527.205078"/>
     <use xlink:href="#DejaVuSans-52" x="587.507812"/>
     <use xlink:href="#DejaVuSans-3a" x="653.865234"/>
     <use xlink:href="#DejaVuSans-20" x="687.556641"/>
     <use xlink:href="#DejaVuSans-32" x="719.34375"/>
     <use xlink:href="#DejaVuSans-35" x="782.966797"/>
     <use xlink:href="#DejaVuSans-2e" x="846.589844"/>
     <use xlink:href="#DejaVuSans-39" x="878.376953"/>
     <use xlink:href="#DejaVuSans-39" x="942"/>
     <use xlink:href="#DejaVuSans-20" x="1005.623047"/>
     <use xlink:href="#DejaVuSans-2d" x="1037.410156"/>
     <use xlink:href="#DejaVuSans-20" x="1073.494141"/>
     <use xlink:href="#DejaVuSans-4e" x="1105.28125"/>
     <use xlink:href="#DejaVuSans-53" x="1180.085938"/>
     <use xlink:href="#DejaVuSans-29" x="1243.5625"/>
    </g>
   </g>
  </g>
  <g id="text_20">
   <!-- COSINOR MODEL - 3 TRIANGLE 1 -->
   <g transform="translate(326.318438 11.940525) scale(0.12 -0.12)">
    <defs>
     <path id="DejaVuSans-4f" d="M 2522 4238 
Q 1834 4238 1429 3725 
Q 1025 3213 1025 2328 
Q 1025 1447 1429 934 
Q 1834 422 2522 422 
Q 3209 422 3611 934 
Q 4013 1447 4013 2328 
Q 4013 3213 3611 3725 
Q 3209 4238 2522 4238 
z
M 2522 4750 
Q 3503 4750 4090 4092 
Q 4678 3434 4678 2328 
Q 4678 1225 4090 567 
Q 3503 -91 2522 -91 
Q 1538 -91 948 565 
Q 359 1222 359 2328 
Q 359 3434 948 4092 
Q 1538 4750 2522 4750 
z
" transform="scale(0.015625)"/>
     <path id="DejaVuSans-49" d="M 628 4666 
L 1259 4666 
L 1259 0 
L 628 0 
L 628 4666 
z
" transform="scale(0.015625)"/>
     <path id="DejaVuSans-4d" d="M 628 4666 
L 1569 4666 
L 2759 1491 
L 3956 4666 
L 4897 4666 
L 4897 0 
L 4281 0 
L 4281 4097 
L 3078 897 
L 2444 897 
L 1241 4097 
L 1241 0 
L 628 0 
L 628 4666 
z
" transform="scale(0.015625)"/>
     <path id="DejaVuSans-44" d="M 1259 4147 
L 1259 519 
L 2022 519 
Q 2988 519 3436 956 
Q 3884 1394 3884 2338 
Q 3884 3275 3436 3711 
Q 2988 4147 2022 4147 
L 1259 4147 
z
M 628 4666 
L 1925 4666 
Q 3281 4666 3915 4102 
Q 4550 3538 4550 2338 
Q 4550 1131 3912 565 
Q 3275 0 1925 0 
L 628 0 
L 628 4666 
z
" transform="scale(0.015625)"/>
     <path id="DejaVuSans-45" d="M 628 4666 
L 3578 4666 
L 3578 4134 
L 1259 4134 
L 1259 2753 
L 3481 2753 
L 3481 2222 
L 1259 2222 
L 1259 531 
L 3634 531 
L 3634 0 
L 628 0 
L 628 4666 
z
" transform="scale(0.015625)"/>
     <path id="DejaVuSans-4c" d="M 628 4666 
L 1259 4666 
L 1259 531 
L 3531 531 
L 3531 0 
L 628 0 
L 628 4666 
z
" transform="scale(0.015625)"/>
     <path id="DejaVuSans-54" d="M -19 4666 
L 3928 4666 
L 3928 4134 
L 2272 4134 
L 2272 0 
L 1638 0 
L 1638 4134 
L -19 4134 
L -19 4666 
z
" transform="scale(0.015625)"/>
     <path id="DejaVuSans-47" d="M 3809 666 
L 3809 1919 
L 2778 1919 
L 2778 2438 
L 4434 2438 
L 4434 434 
Q 4069 175 3628 42 
Q 3188 -91 2688 -91 
Q 1594 -91 976 548 
Q 359 1188 359 2328 
Q 359 3472 976 4111 
Q 1594 4750 2688 4750 
Q 3144 4750 3555 4637 
Q 3966 4525 4313 4306 
L 4313 3634 
Q 3963 3931 3569 4081 
Q 3175 4231 2741 4231 
Q 1884 4231 1454 3753 
Q 1025 3275 1025 2328 
Q 1025 1384 1454 906 
Q 1884 428 2741 428 
Q 3075 428 3337 486 
Q 3600 544 3809 666 
z
" transform="scale(0.015625)"/>
    </defs>
    <use xlink:href="#DejaVuSans-43"/>
    <use xlink:href="#DejaVuSans-4f" x="69.824219"/>
    <use xlink:href="#DejaVuSans-53" x="148.535156"/>
    <use xlink:href="#DejaVuSans-49" x="212.011719"/>
    <use xlink:href="#DejaVuSans-4e" x="241.503906"/>
    <use xlink:href="#DejaVuSans-4f" x="316.308594"/>
    <use xlink:href="#DejaVuSans-52" x="395.019531"/>
    <use xlink:href="#DejaVuSans-20" x="464.501953"/>
    <use xlink:href="#DejaVuSans-4d" x="496.289062"/>
    <use xlink:href="#DejaVuSans-4f" x="582.568359"/>
    <use xlink:href="#DejaVuSans-44" x="661.279297"/>
    <use xlink:href="#DejaVuSans-45" x="738.28125"/>
    <use xlink:href="#DejaVuSans-4c" x="801.464844"/>
    <use xlink:href="#DejaVuSans-20" x="857.177734"/>
    <use xlink:href="#DejaVuSans-2d" x="888.964844"/>
    <use xlink:href="#DejaVuSans-20" x="925.048828"/>
    <use xlink:href="#DejaVuSans-33" x="956.835938"/>
    <use xlink:href="#DejaVuSans-20" x="1020.458984"/>
    <use xlink:href="#DejaVuSans-54" x="1052.246094"/>
    <use xlink:href="#DejaVuSans-52" x="1113.330078"/>
    <use xlink:href="#DejaVuSans-49" x="1182.8125"/>
    <use xlink:href="#DejaVuSans-41" x="1212.304688"/>
    <use xlink:href="#DejaVuSans-4e" x="1280.712891"/>
    <use xlink:href="#DejaVuSans-47" x="1355.517578"/>
    <use xlink:href="#DejaVuSans-4c" x="1433.007812"/>
    <use xlink:href="#DejaVuSans-45" x="1488.720703"/>
    <use xlink:href="#DejaVuSans-20" x="1551.904297"/>
    <use xlink:href="#DejaVuSans-31" x="1583.691406"/>
   </g>
  </g>
  <g id="text_21">
   <!-- TIME (HOURS FROM START OF PROTOCOL) -->
   <g transform="translate(297.576563 137.213175) scale(0.12 -0.12)">
    <defs>
     <path id="DejaVuSans-48" d="M 628 4666 
L 1259 4666 
L 1259 2753 
L 3553 2753 
L 3553 4666 
L 4184 4666 
L 4184 0 
L 3553 0 
L 3553 2222 
L 1259 2222 
L 1259 0 
L 628 0 
L 628 4666 
z
" transform="scale(0.015625)"/>
     <path id="DejaVuSans-55" d="M 556 4666 
L 1191 4666 
L 1191 1831 
Q 1191 1081 1462 751 
Q 1734 422 2344 422 
Q 2950 422 3222 751 
Q 3494 1081 3494 1831 
L 3494 4666 
L 4128 4666 
L 4128 1753 
Q 4128 841 3676 375 
Q 3225 -91 2344 -91 
Q 1459 -91 1007 375 
Q 556 841 556 1753 
L 556 4666 
z
" transform="scale(0.015625)"/>
     <path id="DejaVuSans-46" d="M 628 4666 
L 3309 4666 
L 3309 4134 
L 1259 4134 
L 1259 2759 
L 3109 2759 
L 3109 2228 
L 1259 2228 
L 1259 0 
L 628 0 
L 628 4666 
z
" transform="scale(0.015625)"/>
    </defs>
    <use xlink:href="#DejaVuSans-54"/>
    <use xlink:href="#DejaVuSans-49" x="61.083984"/>
    <use xlink:href="#DejaVuSans-4d" x="90.576172"/>
    <use xlink:href="#DejaVuSans-45" x="176.855469"/>
    <use xlink:href="#DejaVuSans-20" x="240.039062"/>
    <use xlink:href="#DejaVuSans-28" x="271.826172"/>
    <use xlink:href="#DejaVuSans-48" x="310.839844"/>
    <use xlink:href="#DejaVuSans-4f" x="386.035156"/>
    <use xlink:href="#DejaVuSans-55" x="464.746094"/>
    <use xlink:href="#DejaVuSans-52" x="537.939453"/>
    <use xlink:href="#DejaVuSans-53" x="607.421875"/>
    <use xlink:href="#DejaVuSans-20" x="670.898438"/>
    <use xlink:href="#DejaVuSans-46" x="702.685547"/>
    <use xlink:href="#DejaVuSans-52" x="760.205078"/>
    <use xlink:href="#DejaVuSans-4f" x="829.6875"/>
    <use xlink:href="#DejaVuSans-4d" x="908.398438"/>
    <use xlink:href="#DejaVuSans-20" x="994.677734"/>
    <use xlink:href="#DejaVuSans-53" x="1026.464844"/>
    <use xlink:href="#DejaVuSans-54" x="1089.941406"/>
    <use xlink:href="#DejaVuSans-41" x="1143.275391"/>
    <use xlink:href="#DejaVuSans-52" x="1211.683594"/>
    <use xlink:href="#DejaVuSans-54" x="1273.916016"/>
    <use xlink:href="#DejaVuSans-20" x="1335"/>
    <use xlink:href="#DejaVuSans-4f" x="1366.787109"/>
    <use xlink:href="#DejaVuSans-46" x="1445.498047"/>
    <use xlink:href="#DejaVuSans-20" x="1503.017578"/>
    <use xlink:href="#DejaVuSans-50" x="1534.804688"/>
    <use xlink:href="#DejaVuSans-52" x="1595.107422"/>
    <use xlink:href="#DejaVuSans-4f" x="1664.589844"/>
    <use xlink:href="#DejaVuSans-54" x="1743.300781"/>
    <use xlink:href="#DejaVuSans-4f" x="1804.384766"/>
    <use xlink:href="#DejaVuSans-43" x="1883.095703"/>
    <use xlink:href="#DejaVuSans-4f" x="1952.919922"/>
    <use xlink:href="#DejaVuSans-4c" x="2031.630859"/>
    <use xlink:href="#DejaVuSans-29" x="2087.34375"/>
   </g>
  </g>
  <g id="text_22">
   <!-- AMPLITUDE -->
   <g transform="translate(26.124525 105.039375) rotate(-90) scale(0.12 -0.12)">
    <use xlink:href="#DejaVuSans-41"/>
    <use xlink:href="#DejaVuSans-4d" x="68.408203"/>
    <use xlink:href="#DejaVuSans-50" x="154.6875"/>
    <use xlink:href="#DejaVuSans-4c" x="214.990234"/>
    <use xlink:href="#DejaVuSans-49" x="270.703125"/>
    <use xlink:href="#DejaVuSans-54" x="300.195312"/>
    <use xlink:href="#DejaVuSans-55" x="361.279297"/>
    <use xlink:href="#DejaVuSans-44" x="434.472656"/>
    <use xlink:href="#DejaVuSans-45" x="511.474609"/>
   </g>
  </g>
 </g>
 <defs>
  <clipPath id="pc75fffe5b2">
   <rect x="54.16" y="54.672" width="385.522076" height="34.808"/>
  </clipPath>
  <clipPath id="p4898b46176">
   <rect x="453.997924" y="54.672" width="385.522076" height="34.808"/>
  </clipPath>
 </defs>
</svg>
