<?xml version="1.0" encoding="utf-8" standalone="no"?>
<!DOCTYPE svg PUBLIC "-//W3C//DTD SVG 1.1//EN"
  "http://www.w3.org/Graphics/SVG/1.1/DTD/svg11.dtd">
<svg xmlns:xlink="http://www.w3.org/1999/xlink" width="864pt" height="360pt" viewBox="0 0 864 360" xmlns="http://www.w3.org/2000/svg" version="1.1">
 <metadata>
  <rdf:RDF xmlns:dc="http://purl.org/dc/elements/1.1/" xmlns:cc="http://creativecommons.org/ns#" xmlns:rdf="http://www.w3.org/1999/02/22-rdf-syntax-ns#">
   <cc:Work>
    <dc:type rdf:resource="http://purl.org/dc/dcmitype/StillImage"/>
    <dc:date>2023-08-03T21:27:03.039662</dc:date>
    <dc:format>image/svg+xml</dc:format>
    <dc:creator>
     <cc:Agent>
      <dc:title>Matplotlib v3.7.1, https://matplotlib.org/</dc:title>
     </cc:Agent>
    </dc:creator>
   </cc:Work>
  </rdf:RDF>
 </metadata>
 <defs>
  <style type="text/css">*{stroke-linejoin: round; stroke-linecap: butt}</style>
 </defs>
 <g id="figure_1">
  <g id="patch_1">
   <path d="M 0 360 
L 864 360 
L 864 0 
L 0 0 
z
" style="fill: #ffffff"/>
  </g>
  <g id="axes_1">
   <g id="patch_2">
    <path d="M 108 320.4 
L 777.6 320.4 
L 777.6 43.2 
L 108 43.2 
z
" style="fill: #ffffff"/>
   </g>
   <g id="matplotlib.axis_1">
    <g id="xtick_1">
     <g id="line2d_1">
      <defs>
       <path id="m9f7d238a6a" d="M 0 0 
L 0 3.5 
" style="stroke: #000000; stroke-width: 0.8"/>
      </defs>
      <g>
       <use xlink:href="#m9f7d238a6a" x="138.436364" y="320.4" style="stroke: #000000; stroke-width: 0.8"/>
      </g>
     </g>
     <g id="text_1">
      <!-- 2022-01-01 -->
      <g transform="translate(109.378551 334.998438) scale(0.1 -0.1)">
       <defs>
        <path id="DejaVuSans-32" d="M 1228 531 
L 3431 531 
L 3431 0 
L 469 0 
L 469 531 
Q 828 903 1448 1529 
Q 2069 2156 2228 2338 
Q 2531 2678 2651 2914 
Q 2772 3150 2772 3378 
Q 2772 3750 2511 3984 
Q 2250 4219 1831 4219 
Q 1534 4219 1204 4116 
Q 875 4013 500 3803 
L 500 4441 
Q 881 4594 1212 4672 
Q 1544 4750 1819 4750 
Q 2544 4750 2975 4387 
Q 3406 4025 3406 3419 
Q 3406 3131 3298 2873 
Q 3191 2616 2906 2266 
Q 2828 2175 2409 1742 
Q 1991 1309 1228 531 
z
" transform="scale(0.015625)"/>
        <path id="DejaVuSans-30" d="M 2034 4250 
Q 1547 4250 1301 3770 
Q 1056 3291 1056 2328 
Q 1056 1369 1301 889 
Q 1547 409 2034 409 
Q 2525 409 2770 889 
Q 3016 1369 3016 2328 
Q 3016 3291 2770 3770 
Q 2525 4250 2034 4250 
z
M 2034 4750 
Q 2819 4750 3233 4129 
Q 3647 3509 3647 2328 
Q 3647 1150 3233 529 
Q 2819 -91 2034 -91 
Q 1250 -91 836 529 
Q 422 1150 422 2328 
Q 422 3509 836 4129 
Q 1250 4750 2034 4750 
z
" transform="scale(0.015625)"/>
        <path id="DejaVuSans-2d" d="M 313 2009 
L 1997 2009 
L 1997 1497 
L 313 1497 
L 313 2009 
z
" transform="scale(0.015625)"/>
        <path id="DejaVuSans-31" d="M 794 531 
L 1825 531 
L 1825 4091 
L 703 3866 
L 703 4441 
L 1819 4666 
L 2450 4666 
L 2450 531 
L 3481 531 
L 3481 0 
L 794 0 
L 794 531 
z
" transform="scale(0.015625)"/>
       </defs>
       <use xlink:href="#DejaVuSans-32"/>
       <use xlink:href="#DejaVuSans-30" x="63.623047"/>
       <use xlink:href="#DejaVuSans-32" x="127.246094"/>
       <use xlink:href="#DejaVuSans-32" x="190.869141"/>
       <use xlink:href="#DejaVuSans-2d" x="254.492188"/>
       <use xlink:href="#DejaVuSans-30" x="290.576172"/>
       <use xlink:href="#DejaVuSans-31" x="354.199219"/>
       <use xlink:href="#DejaVuSans-2d" x="417.822266"/>
       <use xlink:href="#DejaVuSans-30" x="453.90625"/>
       <use xlink:href="#DejaVuSans-31" x="517.529297"/>
      </g>
     </g>
    </g>
    <g id="xtick_2">
     <g id="line2d_2">
      <g>
       <use xlink:href="#m9f7d238a6a" x="225.527002" y="320.4" style="stroke: #000000; stroke-width: 0.8"/>
      </g>
     </g>
     <g id="text_2">
      <!-- 2022-01-03 -->
      <g transform="translate(196.469189 334.998438) scale(0.1 -0.1)">
       <defs>
        <path id="DejaVuSans-33" d="M 2597 2516 
Q 3050 2419 3304 2112 
Q 3559 1806 3559 1356 
Q 3559 666 3084 287 
Q 2609 -91 1734 -91 
Q 1441 -91 1130 -33 
Q 819 25 488 141 
L 488 750 
Q 750 597 1062 519 
Q 1375 441 1716 441 
Q 2309 441 2620 675 
Q 2931 909 2931 1356 
Q 2931 1769 2642 2001 
Q 2353 2234 1838 2234 
L 1294 2234 
L 1294 2753 
L 1863 2753 
Q 2328 2753 2575 2939 
Q 2822 3125 2822 3475 
Q 2822 3834 2567 4026 
Q 2313 4219 1838 4219 
Q 1578 4219 1281 4162 
Q 984 4106 628 3988 
L 628 4550 
Q 988 4650 1302 4700 
Q 1616 4750 1894 4750 
Q 2613 4750 3031 4423 
Q 3450 4097 3450 3541 
Q 3450 3153 3228 2886 
Q 3006 2619 2597 2516 
z
" transform="scale(0.015625)"/>
       </defs>
       <use xlink:href="#DejaVuSans-32"/>
       <use xlink:href="#DejaVuSans-30" x="63.623047"/>
       <use xlink:href="#DejaVuSans-32" x="127.246094"/>
       <use xlink:href="#DejaVuSans-32" x="190.869141"/>
       <use xlink:href="#DejaVuSans-2d" x="254.492188"/>
       <use xlink:href="#DejaVuSans-30" x="290.576172"/>
       <use xlink:href="#DejaVuSans-31" x="354.199219"/>
       <use xlink:href="#DejaVuSans-2d" x="417.822266"/>
       <use xlink:href="#DejaVuSans-30" x="453.90625"/>
       <use xlink:href="#DejaVuSans-33" x="517.529297"/>
      </g>
     </g>
    </g>
    <g id="xtick_3">
     <g id="line2d_3">
      <g>
       <use xlink:href="#m9f7d238a6a" x="312.61764" y="320.4" style="stroke: #000000; stroke-width: 0.8"/>
      </g>
     </g>
     <g id="text_3">
      <!-- 2022-01-05 -->
      <g transform="translate(283.559827 334.998438) scale(0.1 -0.1)">
       <defs>
        <path id="DejaVuSans-35" d="M 691 4666 
L 3169 4666 
L 3169 4134 
L 1269 4134 
L 1269 2991 
Q 1406 3038 1543 3061 
Q 1681 3084 1819 3084 
Q 2600 3084 3056 2656 
Q 3513 2228 3513 1497 
Q 3513 744 3044 326 
Q 2575 -91 1722 -91 
Q 1428 -91 1123 -41 
Q 819 9 494 109 
L 494 744 
Q 775 591 1075 516 
Q 1375 441 1709 441 
Q 2250 441 2565 725 
Q 2881 1009 2881 1497 
Q 2881 1984 2565 2268 
Q 2250 2553 1709 2553 
Q 1456 2553 1204 2497 
Q 953 2441 691 2322 
L 691 4666 
z
" transform="scale(0.015625)"/>
       </defs>
       <use xlink:href="#DejaVuSans-32"/>
       <use xlink:href="#DejaVuSans-30" x="63.623047"/>
       <use xlink:href="#DejaVuSans-32" x="127.246094"/>
       <use xlink:href="#DejaVuSans-32" x="190.869141"/>
       <use xlink:href="#DejaVuSans-2d" x="254.492188"/>
       <use xlink:href="#DejaVuSans-30" x="290.576172"/>
       <use xlink:href="#DejaVuSans-31" x="354.199219"/>
       <use xlink:href="#DejaVuSans-2d" x="417.822266"/>
       <use xlink:href="#DejaVuSans-30" x="453.90625"/>
       <use xlink:href="#DejaVuSans-35" x="517.529297"/>
      </g>
     </g>
    </g>
    <g id="xtick_4">
     <g id="line2d_4">
      <g>
       <use xlink:href="#m9f7d238a6a" x="399.708278" y="320.4" style="stroke: #000000; stroke-width: 0.8"/>
      </g>
     </g>
     <g id="text_4">
      <!-- 2022-01-07 -->
      <g transform="translate(370.650466 334.998438) scale(0.1 -0.1)">
       <defs>
        <path id="DejaVuSans-37" d="M 525 4666 
L 3525 4666 
L 3525 4397 
L 1831 0 
L 1172 0 
L 2766 4134 
L 525 4134 
L 525 4666 
z
" transform="scale(0.015625)"/>
       </defs>
       <use xlink:href="#DejaVuSans-32"/>
       <use xlink:href="#DejaVuSans-30" x="63.623047"/>
       <use xlink:href="#DejaVuSans-32" x="127.246094"/>
       <use xlink:href="#DejaVuSans-32" x="190.869141"/>
       <use xlink:href="#DejaVuSans-2d" x="254.492188"/>
       <use xlink:href="#DejaVuSans-30" x="290.576172"/>
       <use xlink:href="#DejaVuSans-31" x="354.199219"/>
       <use xlink:href="#DejaVuSans-2d" x="417.822266"/>
       <use xlink:href="#DejaVuSans-30" x="453.90625"/>
       <use xlink:href="#DejaVuSans-37" x="517.529297"/>
      </g>
     </g>
    </g>
    <g id="xtick_5">
     <g id="line2d_5">
      <g>
       <use xlink:href="#m9f7d238a6a" x="486.798916" y="320.4" style="stroke: #000000; stroke-width: 0.8"/>
      </g>
     </g>
     <g id="text_5">
      <!-- 2022-01-09 -->
      <g transform="translate(457.741104 334.998438) scale(0.1 -0.1)">
       <defs>
        <path id="DejaVuSans-39" d="M 703 97 
L 703 672 
Q 941 559 1184 500 
Q 1428 441 1663 441 
Q 2288 441 2617 861 
Q 2947 1281 2994 2138 
Q 2813 1869 2534 1725 
Q 2256 1581 1919 1581 
Q 1219 1581 811 2004 
Q 403 2428 403 3163 
Q 403 3881 828 4315 
Q 1253 4750 1959 4750 
Q 2769 4750 3195 4129 
Q 3622 3509 3622 2328 
Q 3622 1225 3098 567 
Q 2575 -91 1691 -91 
Q 1453 -91 1209 -44 
Q 966 3 703 97 
z
M 1959 2075 
Q 2384 2075 2632 2365 
Q 2881 2656 2881 3163 
Q 2881 3666 2632 3958 
Q 2384 4250 1959 4250 
Q 1534 4250 1286 3958 
Q 1038 3666 1038 3163 
Q 1038 2656 1286 2365 
Q 1534 2075 1959 2075 
z
" transform="scale(0.015625)"/>
       </defs>
       <use xlink:href="#DejaVuSans-32"/>
       <use xlink:href="#DejaVuSans-30" x="63.623047"/>
       <use xlink:href="#DejaVuSans-32" x="127.246094"/>
       <use xlink:href="#DejaVuSans-32" x="190.869141"/>
       <use xlink:href="#DejaVuSans-2d" x="254.492188"/>
       <use xlink:href="#DejaVuSans-30" x="290.576172"/>
       <use xlink:href="#DejaVuSans-31" x="354.199219"/>
       <use xlink:href="#DejaVuSans-2d" x="417.822266"/>
       <use xlink:href="#DejaVuSans-30" x="453.90625"/>
       <use xlink:href="#DejaVuSans-39" x="517.529297"/>
      </g>
     </g>
    </g>
    <g id="xtick_6">
     <g id="line2d_6">
      <g>
       <use xlink:href="#m9f7d238a6a" x="573.889554" y="320.4" style="stroke: #000000; stroke-width: 0.8"/>
      </g>
     </g>
     <g id="text_6">
      <!-- 2022-01-11 -->
      <g transform="translate(544.831742 334.998438) scale(0.1 -0.1)">
       <use xlink:href="#DejaVuSans-32"/>
       <use xlink:href="#DejaVuSans-30" x="63.623047"/>
       <use xlink:href="#DejaVuSans-32" x="127.246094"/>
       <use xlink:href="#DejaVuSans-32" x="190.869141"/>
       <use xlink:href="#DejaVuSans-2d" x="254.492188"/>
       <use xlink:href="#DejaVuSans-30" x="290.576172"/>
       <use xlink:href="#DejaVuSans-31" x="354.199219"/>
       <use xlink:href="#DejaVuSans-2d" x="417.822266"/>
       <use xlink:href="#DejaVuSans-31" x="453.90625"/>
       <use xlink:href="#DejaVuSans-31" x="517.529297"/>
      </g>
     </g>
    </g>
    <g id="xtick_7">
     <g id="line2d_7">
      <g>
       <use xlink:href="#m9f7d238a6a" x="660.980192" y="320.4" style="stroke: #000000; stroke-width: 0.8"/>
      </g>
     </g>
     <g id="text_7">
      <!-- 2022-01-13 -->
      <g transform="translate(631.92238 334.998438) scale(0.1 -0.1)">
       <use xlink:href="#DejaVuSans-32"/>
       <use xlink:href="#DejaVuSans-30" x="63.623047"/>
       <use xlink:href="#DejaVuSans-32" x="127.246094"/>
       <use xlink:href="#DejaVuSans-32" x="190.869141"/>
       <use xlink:href="#DejaVuSans-2d" x="254.492188"/>
       <use xlink:href="#DejaVuSans-30" x="290.576172"/>
       <use xlink:href="#DejaVuSans-31" x="354.199219"/>
       <use xlink:href="#DejaVuSans-2d" x="417.822266"/>
       <use xlink:href="#DejaVuSans-31" x="453.90625"/>
       <use xlink:href="#DejaVuSans-33" x="517.529297"/>
      </g>
     </g>
    </g>
    <g id="xtick_8">
     <g id="line2d_8">
      <g>
       <use xlink:href="#m9f7d238a6a" x="748.070831" y="320.4" style="stroke: #000000; stroke-width: 0.8"/>
      </g>
     </g>
     <g id="text_8">
      <!-- 2022-01-15 -->
      <g transform="translate(719.013018 334.998438) scale(0.1 -0.1)">
       <use xlink:href="#DejaVuSans-32"/>
       <use xlink:href="#DejaVuSans-30" x="63.623047"/>
       <use xlink:href="#DejaVuSans-32" x="127.246094"/>
       <use xlink:href="#DejaVuSans-32" x="190.869141"/>
       <use xlink:href="#DejaVuSans-2d" x="254.492188"/>
       <use xlink:href="#DejaVuSans-30" x="290.576172"/>
       <use xlink:href="#DejaVuSans-31" x="354.199219"/>
       <use xlink:href="#DejaVuSans-2d" x="417.822266"/>
       <use xlink:href="#DejaVuSans-31" x="453.90625"/>
       <use xlink:href="#DejaVuSans-35" x="517.529297"/>
      </g>
     </g>
    </g>
    <g id="text_9">
     <!-- TIME (DAYS) -->
     <g transform="translate(412.283594 348.676562) scale(0.1 -0.1)">
      <defs>
       <path id="DejaVuSans-54" d="M -19 4666 
L 3928 4666 
L 3928 4134 
L 2272 4134 
L 2272 0 
L 1638 0 
L 1638 4134 
L -19 4134 
L -19 4666 
z
" transform="scale(0.015625)"/>
       <path id="DejaVuSans-49" d="M 628 4666 
L 1259 4666 
L 1259 0 
L 628 0 
L 628 4666 
z
" transform="scale(0.015625)"/>
       <path id="DejaVuSans-4d" d="M 628 4666 
L 1569 4666 
L 2759 1491 
L 3956 4666 
L 4897 4666 
L 4897 0 
L 4281 0 
L 4281 4097 
L 3078 897 
L 2444 897 
L 1241 4097 
L 1241 0 
L 628 0 
L 628 4666 
z
" transform="scale(0.015625)"/>
       <path id="DejaVuSans-45" d="M 628 4666 
L 3578 4666 
L 3578 4134 
L 1259 4134 
L 1259 2753 
L 3481 2753 
L 3481 2222 
L 1259 2222 
L 1259 531 
L 3634 531 
L 3634 0 
L 628 0 
L 628 4666 
z
" transform="scale(0.015625)"/>
       <path id="DejaVuSans-20" transform="scale(0.015625)"/>
       <path id="DejaVuSans-28" d="M 1984 4856 
Q 1566 4138 1362 3434 
Q 1159 2731 1159 2009 
Q 1159 1288 1364 580 
Q 1569 -128 1984 -844 
L 1484 -844 
Q 1016 -109 783 600 
Q 550 1309 550 2009 
Q 550 2706 781 3412 
Q 1013 4119 1484 4856 
L 1984 4856 
z
" transform="scale(0.015625)"/>
       <path id="DejaVuSans-44" d="M 1259 4147 
L 1259 519 
L 2022 519 
Q 2988 519 3436 956 
Q 3884 1394 3884 2338 
Q 3884 3275 3436 3711 
Q 2988 4147 2022 4147 
L 1259 4147 
z
M 628 4666 
L 1925 4666 
Q 3281 4666 3915 4102 
Q 4550 3538 4550 2338 
Q 4550 1131 3912 565 
Q 3275 0 1925 0 
L 628 0 
L 628 4666 
z
" transform="scale(0.015625)"/>
       <path id="DejaVuSans-41" d="M 2188 4044 
L 1331 1722 
L 3047 1722 
L 2188 4044 
z
M 1831 4666 
L 2547 4666 
L 4325 0 
L 3669 0 
L 3244 1197 
L 1141 1197 
L 716 0 
L 50 0 
L 1831 4666 
z
" transform="scale(0.015625)"/>
       <path id="DejaVuSans-59" d="M -13 4666 
L 666 4666 
L 1959 2747 
L 3244 4666 
L 3922 4666 
L 2272 2222 
L 2272 0 
L 1638 0 
L 1638 2222 
L -13 4666 
z
" transform="scale(0.015625)"/>
       <path id="DejaVuSans-53" d="M 3425 4513 
L 3425 3897 
Q 3066 4069 2747 4153 
Q 2428 4238 2131 4238 
Q 1616 4238 1336 4038 
Q 1056 3838 1056 3469 
Q 1056 3159 1242 3001 
Q 1428 2844 1947 2747 
L 2328 2669 
Q 3034 2534 3370 2195 
Q 3706 1856 3706 1288 
Q 3706 609 3251 259 
Q 2797 -91 1919 -91 
Q 1588 -91 1214 -16 
Q 841 59 441 206 
L 441 856 
Q 825 641 1194 531 
Q 1563 422 1919 422 
Q 2459 422 2753 634 
Q 3047 847 3047 1241 
Q 3047 1584 2836 1778 
Q 2625 1972 2144 2069 
L 1759 2144 
Q 1053 2284 737 2584 
Q 422 2884 422 3419 
Q 422 4038 858 4394 
Q 1294 4750 2059 4750 
Q 2388 4750 2728 4690 
Q 3069 4631 3425 4513 
z
" transform="scale(0.015625)"/>
       <path id="DejaVuSans-29" d="M 513 4856 
L 1013 4856 
Q 1481 4119 1714 3412 
Q 1947 2706 1947 2009 
Q 1947 1309 1714 600 
Q 1481 -109 1013 -844 
L 513 -844 
Q 928 -128 1133 580 
Q 1338 1288 1338 2009 
Q 1338 2731 1133 3434 
Q 928 4138 513 4856 
z
" transform="scale(0.015625)"/>
      </defs>
      <use xlink:href="#DejaVuSans-54"/>
      <use xlink:href="#DejaVuSans-49" x="61.083984"/>
      <use xlink:href="#DejaVuSans-4d" x="90.576172"/>
      <use xlink:href="#DejaVuSans-45" x="176.855469"/>
      <use xlink:href="#DejaVuSans-20" x="240.039062"/>
      <use xlink:href="#DejaVuSans-28" x="271.826172"/>
      <use xlink:href="#DejaVuSans-44" x="310.839844"/>
      <use xlink:href="#DejaVuSans-41" x="386.091797"/>
      <use xlink:href="#DejaVuSans-59" x="446.75"/>
      <use xlink:href="#DejaVuSans-53" x="507.833984"/>
      <use xlink:href="#DejaVuSans-29" x="571.310547"/>
     </g>
    </g>
   </g>
   <g id="matplotlib.axis_2">
    <g id="ytick_1">
     <g id="line2d_9">
      <defs>
       <path id="m08e6811521" d="M 0 0 
L -3.5 0 
" style="stroke: #000000; stroke-width: 0.8"/>
      </defs>
      <g>
       <use xlink:href="#m08e6811521" x="108" y="307.8" style="stroke: #000000; stroke-width: 0.8"/>
      </g>
     </g>
     <g id="text_10">
      <!-- 0 -->
      <g transform="translate(94.6375 311.599219) scale(0.1 -0.1)">
       <use xlink:href="#DejaVuSans-30"/>
      </g>
     </g>
    </g>
    <g id="ytick_2">
     <g id="line2d_10">
      <g>
       <use xlink:href="#m08e6811521" x="108" y="253.017391" style="stroke: #000000; stroke-width: 0.8"/>
      </g>
     </g>
     <g id="text_11">
      <!-- 20 -->
      <g transform="translate(88.275 256.81661) scale(0.1 -0.1)">
       <use xlink:href="#DejaVuSans-32"/>
       <use xlink:href="#DejaVuSans-30" x="63.623047"/>
      </g>
     </g>
    </g>
    <g id="ytick_3">
     <g id="line2d_11">
      <g>
       <use xlink:href="#m08e6811521" x="108" y="198.234783" style="stroke: #000000; stroke-width: 0.8"/>
      </g>
     </g>
     <g id="text_12">
      <!-- 40 -->
      <g transform="translate(88.275 202.034001) scale(0.1 -0.1)">
       <defs>
        <path id="DejaVuSans-34" d="M 2419 4116 
L 825 1625 
L 2419 1625 
L 2419 4116 
z
M 2253 4666 
L 3047 4666 
L 3047 1625 
L 3713 1625 
L 3713 1100 
L 3047 1100 
L 3047 0 
L 2419 0 
L 2419 1100 
L 313 1100 
L 313 1709 
L 2253 4666 
z
" transform="scale(0.015625)"/>
       </defs>
       <use xlink:href="#DejaVuSans-34"/>
       <use xlink:href="#DejaVuSans-30" x="63.623047"/>
      </g>
     </g>
    </g>
    <g id="ytick_4">
     <g id="line2d_12">
      <g>
       <use xlink:href="#m08e6811521" x="108" y="143.452174" style="stroke: #000000; stroke-width: 0.8"/>
      </g>
     </g>
     <g id="text_13">
      <!-- 60 -->
      <g transform="translate(88.275 147.251393) scale(0.1 -0.1)">
       <defs>
        <path id="DejaVuSans-36" d="M 2113 2584 
Q 1688 2584 1439 2293 
Q 1191 2003 1191 1497 
Q 1191 994 1439 701 
Q 1688 409 2113 409 
Q 2538 409 2786 701 
Q 3034 994 3034 1497 
Q 3034 2003 2786 2293 
Q 2538 2584 2113 2584 
z
M 3366 4563 
L 3366 3988 
Q 3128 4100 2886 4159 
Q 2644 4219 2406 4219 
Q 1781 4219 1451 3797 
Q 1122 3375 1075 2522 
Q 1259 2794 1537 2939 
Q 1816 3084 2150 3084 
Q 2853 3084 3261 2657 
Q 3669 2231 3669 1497 
Q 3669 778 3244 343 
Q 2819 -91 2113 -91 
Q 1303 -91 875 529 
Q 447 1150 447 2328 
Q 447 3434 972 4092 
Q 1497 4750 2381 4750 
Q 2619 4750 2861 4703 
Q 3103 4656 3366 4563 
z
" transform="scale(0.015625)"/>
       </defs>
       <use xlink:href="#DejaVuSans-36"/>
       <use xlink:href="#DejaVuSans-30" x="63.623047"/>
      </g>
     </g>
    </g>
    <g id="ytick_5">
     <g id="line2d_13">
      <g>
       <use xlink:href="#m08e6811521" x="108" y="88.669565" style="stroke: #000000; stroke-width: 0.8"/>
      </g>
     </g>
     <g id="text_14">
      <!-- 80 -->
      <g transform="translate(88.275 92.468784) scale(0.1 -0.1)">
       <defs>
        <path id="DejaVuSans-38" d="M 2034 2216 
Q 1584 2216 1326 1975 
Q 1069 1734 1069 1313 
Q 1069 891 1326 650 
Q 1584 409 2034 409 
Q 2484 409 2743 651 
Q 3003 894 3003 1313 
Q 3003 1734 2745 1975 
Q 2488 2216 2034 2216 
z
M 1403 2484 
Q 997 2584 770 2862 
Q 544 3141 544 3541 
Q 544 4100 942 4425 
Q 1341 4750 2034 4750 
Q 2731 4750 3128 4425 
Q 3525 4100 3525 3541 
Q 3525 3141 3298 2862 
Q 3072 2584 2669 2484 
Q 3125 2378 3379 2068 
Q 3634 1759 3634 1313 
Q 3634 634 3220 271 
Q 2806 -91 2034 -91 
Q 1263 -91 848 271 
Q 434 634 434 1313 
Q 434 1759 690 2068 
Q 947 2378 1403 2484 
z
M 1172 3481 
Q 1172 3119 1398 2916 
Q 1625 2713 2034 2713 
Q 2441 2713 2670 2916 
Q 2900 3119 2900 3481 
Q 2900 3844 2670 4047 
Q 2441 4250 2034 4250 
Q 1625 4250 1398 4047 
Q 1172 3844 1172 3481 
z
" transform="scale(0.015625)"/>
       </defs>
       <use xlink:href="#DejaVuSans-38"/>
       <use xlink:href="#DejaVuSans-30" x="63.623047"/>
      </g>
     </g>
    </g>
    <g id="text_15">
     <!-- AMPLITUDE -->
     <g transform="translate(82.195312 210.532812) rotate(-90) scale(0.1 -0.1)">
      <defs>
       <path id="DejaVuSans-50" d="M 1259 4147 
L 1259 2394 
L 2053 2394 
Q 2494 2394 2734 2622 
Q 2975 2850 2975 3272 
Q 2975 3691 2734 3919 
Q 2494 4147 2053 4147 
L 1259 4147 
z
M 628 4666 
L 2053 4666 
Q 2838 4666 3239 4311 
Q 3641 3956 3641 3272 
Q 3641 2581 3239 2228 
Q 2838 1875 2053 1875 
L 1259 1875 
L 1259 0 
L 628 0 
L 628 4666 
z
" transform="scale(0.015625)"/>
       <path id="DejaVuSans-4c" d="M 628 4666 
L 1259 4666 
L 1259 531 
L 3531 531 
L 3531 0 
L 628 0 
L 628 4666 
z
" transform="scale(0.015625)"/>
       <path id="DejaVuSans-55" d="M 556 4666 
L 1191 4666 
L 1191 1831 
Q 1191 1081 1462 751 
Q 1734 422 2344 422 
Q 2950 422 3222 751 
Q 3494 1081 3494 1831 
L 3494 4666 
L 4128 4666 
L 4128 1753 
Q 4128 841 3676 375 
Q 3225 -91 2344 -91 
Q 1459 -91 1007 375 
Q 556 841 556 1753 
L 556 4666 
z
" transform="scale(0.015625)"/>
      </defs>
      <use xlink:href="#DejaVuSans-41"/>
      <use xlink:href="#DejaVuSans-4d" x="68.408203"/>
      <use xlink:href="#DejaVuSans-50" x="154.6875"/>
      <use xlink:href="#DejaVuSans-4c" x="214.990234"/>
      <use xlink:href="#DejaVuSans-49" x="270.703125"/>
      <use xlink:href="#DejaVuSans-54" x="300.195312"/>
      <use xlink:href="#DejaVuSans-55" x="361.279297"/>
      <use xlink:href="#DejaVuSans-44" x="434.472656"/>
      <use xlink:href="#DejaVuSans-45" x="511.474609"/>
     </g>
    </g>
   </g>
   <g id="line2d_14">
    <path d="M 138.436364 69.495652 
L 139.343558 261.234783 
L 140.250752 258.495652 
L 141.157946 250.278261 
L 142.06514 220.147826 
L 142.972334 206.452174 
L 143.879529 283.147826 
L 144.786723 266.713043 
L 145.693917 307.8 
L 146.601111 277.669565 
L 147.508305 236.582609 
L 148.415499 307.8 
L 151.137082 307.8 
L 152.044276 285.886957 
L 152.95147 307.8 
L 153.858664 274.930435 
L 154.765858 269.452174 
L 155.673052 307.8 
L 157.487441 285.886957 
L 158.394635 206.452174 
L 159.301829 58.53913 
L 160.209023 263.973913 
L 161.116217 181.8 
L 162.023411 261.234783 
L 162.930606 307.8 
L 163.8378 307.8 
L 164.744994 274.930435 
L 165.652188 294.104348 
L 166.559382 233.843478 
L 167.466576 255.756522 
L 168.37377 211.930435 
L 169.280965 307.8 
L 171.095353 307.8 
L 172.002547 250.278261 
L 172.909741 307.8 
L 173.816935 239.321739 
L 174.72413 307.8 
L 175.631324 181.8 
L 176.538518 206.452174 
L 177.445712 129.756522 
L 178.352906 187.278261 
L 179.2601 283.147826 
L 180.167294 168.104348 
L 181.074489 299.582609 
L 181.981683 206.452174 
L 182.888877 307.8 
L 183.796071 302.321739 
L 184.703265 307.8 
L 185.610459 198.234783 
L 186.517653 307.8 
L 189.239236 307.8 
L 190.14643 255.756522 
L 191.053624 307.8 
L 191.960818 283.147826 
L 192.868012 250.278261 
L 193.775207 173.582609 
L 194.682401 198.234783 
L 195.589595 288.626087 
L 196.496789 228.365217 
L 197.403983 220.147826 
L 198.311177 233.843478 
L 199.218371 261.234783 
L 200.125566 200.973913 
L 201.03276 239.321739 
L 201.939954 307.8 
L 202.847148 184.53913 
L 203.754342 261.234783 
L 204.661536 250.278261 
L 205.568731 302.321739 
L 206.475925 280.408696 
L 207.383119 307.8 
L 212.826284 307.8 
L 213.733478 258.495652 
L 214.640672 261.234783 
L 215.547866 307.8 
L 216.45506 225.626087 
L 217.362254 307.8 
L 218.269449 253.017391 
L 219.176643 181.8 
L 220.083837 283.147826 
L 221.898225 135.234783 
L 222.805419 214.669565 
L 223.712613 151.669565 
L 224.619808 239.321739 
L 225.527002 277.669565 
L 226.434196 307.8 
L 227.34139 220.147826 
L 228.248584 307.8 
L 229.155778 307.8 
L 230.062972 236.582609 
L 230.970167 242.06087 
L 231.877361 225.626087 
L 232.784555 220.147826 
L 233.691749 209.191304 
L 234.598943 307.8 
L 235.506137 280.408696 
L 236.413332 280.408696 
L 237.320526 151.669565 
L 238.22772 233.843478 
L 239.134914 165.365217 
L 240.042108 151.669565 
L 240.949302 170.843478 
L 241.856496 272.191304 
L 242.763691 143.452174 
L 243.670885 239.321739 
L 244.578079 217.408696 
L 245.485273 307.8 
L 246.392467 274.930435 
L 247.299661 263.973913 
L 248.206855 280.408696 
L 249.11405 307.8 
L 250.021244 307.8 
L 250.928438 291.365217 
L 251.835632 277.669565 
L 252.742826 307.8 
L 253.65002 299.582609 
L 254.557214 206.452174 
L 255.464409 187.278261 
L 256.371603 307.8 
L 257.278797 263.973913 
L 258.185991 242.06087 
L 259.093185 200.973913 
L 260.000379 151.669565 
L 260.907573 206.452174 
L 261.814768 291.365217 
L 262.721962 184.53913 
L 263.629156 154.408696 
L 264.53635 261.234783 
L 265.443544 165.365217 
L 266.350738 176.321739 
L 267.257933 283.147826 
L 268.165127 307.8 
L 269.072321 255.756522 
L 269.979515 307.8 
L 274.515486 307.8 
L 275.42268 269.452174 
L 276.329874 307.8 
L 277.237068 211.930435 
L 279.051456 291.365217 
L 279.958651 277.669565 
L 280.865845 137.973913 
L 281.773039 181.8 
L 282.680233 170.843478 
L 283.587427 255.756522 
L 284.494621 294.104348 
L 285.401815 307.8 
L 286.30901 302.321739 
L 287.216204 307.8 
L 288.123398 154.408696 
L 289.030592 305.06087 
L 289.937786 247.53913 
L 290.84498 220.147826 
L 291.752175 307.8 
L 292.659369 302.321739 
L 293.566563 307.8 
L 294.473757 255.756522 
L 295.380951 269.452174 
L 296.288145 307.8 
L 297.195339 250.278261 
L 298.102534 299.582609 
L 299.009728 165.365217 
L 299.916922 187.278261 
L 300.824116 203.713043 
L 301.73131 137.973913 
L 302.638504 206.452174 
L 303.545698 91.408696 
L 304.452893 187.278261 
L 305.360087 132.495652 
L 306.267281 296.843478 
L 307.174475 307.8 
L 308.081669 225.626087 
L 308.988863 274.930435 
L 309.896057 307.8 
L 311.710446 307.8 
L 312.61764 266.713043 
L 313.524834 244.8 
L 314.432028 173.582609 
L 315.339222 263.973913 
L 316.246416 307.8 
L 317.153611 307.8 
L 318.060805 173.582609 
L 318.967999 236.582609 
L 319.875193 274.930435 
L 320.782387 55.8 
L 321.689581 206.452174 
L 322.596776 140.713043 
L 323.50397 307.8 
L 324.411164 159.886957 
L 325.318358 184.53913 
L 326.225552 258.495652 
L 327.132746 307.8 
L 328.03994 242.06087 
L 328.947135 307.8 
L 329.854329 242.06087 
L 330.761523 269.452174 
L 331.668717 307.8 
L 332.575911 307.8 
L 333.483105 280.408696 
L 334.390299 307.8 
L 335.297494 250.278261 
L 337.111882 307.8 
L 338.019076 307.8 
L 338.92627 272.191304 
L 339.833464 211.930435 
L 340.740658 294.104348 
L 341.647853 299.582609 
L 342.555047 132.495652 
L 343.462241 195.495652 
L 344.369435 233.843478 
L 345.276629 288.626087 
L 346.183823 192.756522 
L 347.091017 148.930435 
L 347.998212 280.408696 
L 348.905406 307.8 
L 349.8126 255.756522 
L 350.719794 307.8 
L 351.626988 294.104348 
L 352.534182 283.147826 
L 353.441377 307.8 
L 354.348571 307.8 
L 355.255765 247.53913 
L 356.162959 302.321739 
L 357.070153 307.8 
L 357.977347 250.278261 
L 358.884541 253.017391 
L 359.791736 195.495652 
L 361.606124 102.365217 
L 362.513318 137.973913 
L 363.420512 154.408696 
L 364.327706 168.104348 
L 365.2349 272.191304 
L 366.142095 307.8 
L 367.049289 247.53913 
L 367.956483 277.669565 
L 368.863677 302.321739 
L 369.770871 307.8 
L 370.678065 299.582609 
L 371.585259 307.8 
L 375.214036 307.8 
L 376.12123 222.886957 
L 377.028424 307.8 
L 377.935618 233.843478 
L 378.842813 272.191304 
L 379.750007 220.147826 
L 380.657201 151.669565 
L 381.564395 296.843478 
L 382.471589 233.843478 
L 383.378783 91.408696 
L 384.285978 250.278261 
L 385.193172 192.756522 
L 386.100366 179.06087 
L 387.00756 255.756522 
L 387.914754 307.8 
L 388.821948 176.321739 
L 389.729142 307.8 
L 390.636337 214.669565 
L 391.543531 307.8 
L 392.450725 305.06087 
L 393.357919 307.8 
L 395.172307 307.8 
L 396.079501 277.669565 
L 396.986696 307.8 
L 399.708278 307.8 
L 400.615472 225.626087 
L 401.522666 209.191304 
L 402.42986 211.930435 
L 403.337055 198.234783 
L 404.244249 168.104348 
L 405.151443 151.669565 
L 406.965831 253.017391 
L 407.873025 217.408696 
L 408.780219 294.104348 
L 409.687414 274.930435 
L 410.594608 239.321739 
L 411.501802 307.8 
L 412.408996 296.843478 
L 413.31619 307.8 
L 414.223384 200.973913 
L 415.130579 307.8 
L 416.037773 209.191304 
L 416.944967 280.408696 
L 417.852161 307.8 
L 418.759355 261.234783 
L 419.666549 192.756522 
L 420.573743 222.886957 
L 421.480938 195.495652 
L 422.388132 151.669565 
L 423.295326 151.669565 
L 424.20252 127.017391 
L 425.109714 107.843478 
L 426.016908 203.713043 
L 426.924102 239.321739 
L 427.831297 159.886957 
L 428.738491 154.408696 
L 429.645685 179.06087 
L 430.552879 236.582609 
L 431.460073 250.278261 
L 433.274461 184.53913 
L 434.181656 258.495652 
L 435.08885 258.495652 
L 435.996044 307.8 
L 436.903238 280.408696 
L 437.810432 299.582609 
L 438.717626 307.8 
L 439.62482 236.582609 
L 440.532015 236.582609 
L 441.439209 211.930435 
L 442.346403 247.53913 
L 443.253597 263.973913 
L 444.160791 195.495652 
L 445.067985 162.626087 
L 445.97518 220.147826 
L 446.882374 192.756522 
L 447.789568 307.8 
L 448.696762 272.191304 
L 449.603956 154.408696 
L 450.51115 302.321739 
L 451.418344 253.017391 
L 452.325539 294.104348 
L 453.232733 285.886957 
L 454.139927 225.626087 
L 455.047121 307.8 
L 455.954315 305.06087 
L 456.861509 307.8 
L 457.768703 307.8 
L 458.675898 236.582609 
L 459.583092 307.8 
L 460.490286 231.104348 
L 461.39748 236.582609 
L 462.304674 258.495652 
L 463.211868 151.669565 
L 464.119062 253.017391 
L 465.026257 192.756522 
L 465.933451 285.886957 
L 466.840645 266.713043 
L 467.747839 217.408696 
L 468.655033 187.278261 
L 469.562227 132.495652 
L 470.469421 266.713043 
L 471.376616 307.8 
L 472.28381 285.886957 
L 473.191004 299.582609 
L 474.098198 294.104348 
L 475.005392 143.452174 
L 475.912586 307.8 
L 477.726975 307.8 
L 478.634169 274.930435 
L 479.541363 307.8 
L 480.448557 187.278261 
L 481.355751 228.365217 
L 482.262945 228.365217 
L 483.17014 258.495652 
L 484.077334 263.973913 
L 484.984528 247.53913 
L 485.891722 94.147826 
L 486.798916 198.234783 
L 487.70611 228.365217 
L 488.613304 99.626087 
L 489.520499 255.756522 
L 490.427693 307.8 
L 491.334887 302.321739 
L 492.242081 302.321739 
L 493.149275 294.104348 
L 494.056469 307.8 
L 494.963663 291.365217 
L 495.870858 307.8 
L 496.778052 261.234783 
L 497.685246 307.8 
L 498.59244 307.8 
L 499.499634 283.147826 
L 500.406828 266.713043 
L 501.314022 137.973913 
L 502.221217 192.756522 
L 503.128411 280.408696 
L 504.035605 170.843478 
L 504.942799 299.582609 
L 505.849993 135.234783 
L 506.757187 200.973913 
L 507.664382 124.278261 
L 508.571576 247.53913 
L 509.47877 228.365217 
L 510.385964 217.408696 
L 511.293158 296.843478 
L 512.200352 272.191304 
L 513.107546 222.886957 
L 514.014741 233.843478 
L 514.921935 198.234783 
L 515.829129 280.408696 
L 516.736323 307.8 
L 517.643517 291.365217 
L 518.550711 307.8 
L 519.457905 214.669565 
L 520.3651 233.843478 
L 521.272294 247.53913 
L 522.179488 263.973913 
L 523.086682 228.365217 
L 523.993876 307.8 
L 524.90107 165.365217 
L 525.808264 206.452174 
L 526.715459 148.930435 
L 527.622653 209.191304 
L 528.529847 247.53913 
L 529.437041 200.973913 
L 530.344235 283.147826 
L 531.251429 159.886957 
L 532.158623 225.626087 
L 533.065818 277.669565 
L 533.973012 283.147826 
L 534.880206 307.8 
L 535.7874 233.843478 
L 536.694594 233.843478 
L 537.601788 307.8 
L 538.508983 263.973913 
L 539.416177 307.8 
L 540.323371 307.8 
L 541.230565 258.495652 
L 542.137759 225.626087 
L 543.044953 307.8 
L 543.952147 258.495652 
L 544.859342 302.321739 
L 545.766536 206.452174 
L 546.67373 242.06087 
L 547.580924 203.713043 
L 548.488118 127.017391 
L 549.395312 228.365217 
L 550.302506 231.104348 
L 551.209701 225.626087 
L 552.116895 280.408696 
L 553.024089 190.017391 
L 553.931283 307.8 
L 554.838477 217.408696 
L 555.745671 200.973913 
L 556.652865 307.8 
L 558.467254 307.8 
L 559.374448 283.147826 
L 560.281642 283.147826 
L 561.188836 280.408696 
L 562.09603 231.104348 
L 563.003224 231.104348 
L 563.910419 203.713043 
L 564.817613 285.886957 
L 565.724807 102.365217 
L 566.632001 261.234783 
L 567.539195 211.930435 
L 568.446389 253.017391 
L 569.353584 266.713043 
L 570.260778 247.53913 
L 571.167972 200.973913 
L 572.075166 231.104348 
L 572.98236 206.452174 
L 573.889554 272.191304 
L 574.796748 299.582609 
L 575.703943 261.234783 
L 576.611137 307.8 
L 577.518331 288.626087 
L 578.425525 307.8 
L 579.332719 250.278261 
L 580.239913 285.886957 
L 581.147107 307.8 
L 582.054302 294.104348 
L 582.961496 307.8 
L 583.86869 200.973913 
L 584.775884 200.973913 
L 585.683078 247.53913 
L 586.590272 124.278261 
L 587.497466 307.8 
L 588.404661 236.582609 
L 589.311855 253.017391 
L 590.219049 288.626087 
L 591.126243 266.713043 
L 592.033437 307.8 
L 592.940631 209.191304 
L 593.847825 277.669565 
L 594.75502 258.495652 
L 595.662214 307.8 
L 596.569408 214.669565 
L 597.476602 307.8 
L 598.383796 307.8 
L 599.29099 209.191304 
L 600.198185 307.8 
L 601.105379 258.495652 
L 602.012573 299.582609 
L 602.919767 299.582609 
L 603.826961 307.8 
L 604.734155 225.626087 
L 605.641349 222.886957 
L 606.548544 250.278261 
L 607.455738 157.147826 
L 608.362932 192.756522 
L 609.270126 140.713043 
L 610.17732 151.669565 
L 611.084514 307.8 
L 611.991708 244.8 
L 612.898903 266.713043 
L 613.806097 307.8 
L 615.620485 307.8 
L 616.527679 179.06087 
L 617.434873 296.843478 
L 618.342067 272.191304 
L 619.249262 288.626087 
L 620.156456 307.8 
L 621.06365 250.278261 
L 621.970844 233.843478 
L 622.878038 162.626087 
L 623.785232 307.8 
L 624.692427 211.930435 
L 625.599621 179.06087 
L 626.506815 187.278261 
L 627.414009 190.017391 
L 628.321203 118.8 
L 629.228397 184.53913 
L 630.135591 242.06087 
L 631.042786 250.278261 
L 631.94998 162.626087 
L 632.857174 217.408696 
L 633.764368 211.930435 
L 634.671562 288.626087 
L 635.578756 307.8 
L 636.48595 305.06087 
L 637.393145 307.8 
L 638.300339 272.191304 
L 639.207533 307.8 
L 641.021921 307.8 
L 642.836309 110.582609 
L 643.743504 263.973913 
L 644.650698 266.713043 
L 645.557892 274.930435 
L 646.465086 173.582609 
L 647.37228 222.886957 
L 648.279474 154.408696 
L 649.186668 148.930435 
L 650.093863 203.713043 
L 651.001057 231.104348 
L 651.908251 80.452174 
L 652.815445 233.843478 
L 653.722639 307.8 
L 654.629833 261.234783 
L 655.537028 274.930435 
L 656.444222 242.06087 
L 657.351416 261.234783 
L 658.25861 269.452174 
L 659.165804 296.843478 
L 660.072998 250.278261 
L 660.980192 307.8 
L 661.887387 253.017391 
L 662.794581 233.843478 
L 663.701775 280.408696 
L 664.608969 274.930435 
L 665.516163 296.843478 
L 666.423357 253.017391 
L 667.330551 179.06087 
L 668.237746 272.191304 
L 669.14494 198.234783 
L 670.052134 222.886957 
L 670.959328 124.278261 
L 671.866522 244.8 
L 672.773716 272.191304 
L 673.68091 288.626087 
L 674.588105 190.017391 
L 675.495299 184.53913 
L 676.402493 294.104348 
L 677.309687 307.8 
L 678.216881 261.234783 
L 679.124075 288.626087 
L 680.031269 266.713043 
L 680.938464 307.8 
L 681.845658 233.843478 
L 682.752852 277.669565 
L 683.660046 277.669565 
L 684.56724 307.8 
L 685.474434 291.365217 
L 686.381629 307.8 
L 687.288823 195.495652 
L 688.196017 192.756522 
L 689.103211 231.104348 
L 690.010405 124.278261 
L 690.917599 307.8 
L 691.824793 307.8 
L 692.731988 250.278261 
L 693.639182 222.886957 
L 694.546376 176.321739 
L 695.45357 307.8 
L 697.267958 307.8 
L 698.175152 200.973913 
L 699.082347 307.8 
L 699.989541 299.582609 
L 700.896735 307.8 
L 702.711123 307.8 
L 703.618317 274.930435 
L 704.525511 307.8 
L 705.432706 233.843478 
L 706.3399 307.8 
L 707.247094 203.713043 
L 708.154288 261.234783 
L 709.061482 154.408696 
L 709.968676 94.147826 
L 711.783065 307.8 
L 712.690259 231.104348 
L 713.597453 165.365217 
L 715.411841 291.365217 
L 716.319035 307.8 
L 717.22623 211.930435 
L 718.133424 307.8 
L 719.040618 307.8 
L 719.947812 302.321739 
L 720.855006 307.8 
L 724.483783 307.8 
L 725.390977 222.886957 
L 726.298171 236.582609 
L 727.205365 283.147826 
L 728.112559 222.886957 
L 729.019753 244.8 
L 729.926948 105.104348 
L 730.834142 192.756522 
L 731.741336 66.756522 
L 732.64853 55.8 
L 733.555724 159.886957 
L 734.462918 181.8 
L 735.370112 209.191304 
L 736.277307 242.06087 
L 737.184501 307.8 
L 738.998889 307.8 
L 739.906083 280.408696 
L 740.813277 283.147826 
L 741.720471 307.8 
L 742.627666 307.8 
L 743.53486 285.886957 
L 744.442054 247.53913 
L 745.349248 296.843478 
L 746.256442 307.8 
L 747.163636 283.147826 
L 747.163636 283.147826 
" clip-path="url(#p6a0aafb77e)" style="fill: none; stroke: #191970; stroke-width: 2; stroke-linecap: square"/>
   </g>
   <g id="patch_3">
    <path d="M 108 320.4 
L 108 43.2 
" style="fill: none; stroke: #000000; stroke-width: 0.8; stroke-linejoin: miter; stroke-linecap: square"/>
   </g>
   <g id="patch_4">
    <path d="M 777.6 320.4 
L 777.6 43.2 
" style="fill: none; stroke: #000000; stroke-width: 0.8; stroke-linejoin: miter; stroke-linecap: square"/>
   </g>
   <g id="patch_5">
    <path d="M 108 320.4 
L 777.6 320.4 
" style="fill: none; stroke: #000000; stroke-width: 0.8; stroke-linejoin: miter; stroke-linecap: square"/>
   </g>
   <g id="patch_6">
    <path d="M 108 43.2 
L 777.6 43.2 
" style="fill: none; stroke: #000000; stroke-width: 0.8; stroke-linejoin: miter; stroke-linecap: square"/>
   </g>
   <g id="text_16">
    <!-- TIME SERIES -->
    <g transform="translate(405.350625 37.2) scale(0.12 -0.12)">
     <defs>
      <path id="DejaVuSans-52" d="M 2841 2188 
Q 3044 2119 3236 1894 
Q 3428 1669 3622 1275 
L 4263 0 
L 3584 0 
L 2988 1197 
Q 2756 1666 2539 1819 
Q 2322 1972 1947 1972 
L 1259 1972 
L 1259 0 
L 628 0 
L 628 4666 
L 2053 4666 
Q 2853 4666 3247 4331 
Q 3641 3997 3641 3322 
Q 3641 2881 3436 2590 
Q 3231 2300 2841 2188 
z
M 1259 4147 
L 1259 2491 
L 2053 2491 
Q 2509 2491 2742 2702 
Q 2975 2913 2975 3322 
Q 2975 3731 2742 3939 
Q 2509 4147 2053 4147 
L 1259 4147 
z
" transform="scale(0.015625)"/>
     </defs>
     <use xlink:href="#DejaVuSans-54"/>
     <use xlink:href="#DejaVuSans-49" x="61.083984"/>
     <use xlink:href="#DejaVuSans-4d" x="90.576172"/>
     <use xlink:href="#DejaVuSans-45" x="176.855469"/>
     <use xlink:href="#DejaVuSans-20" x="240.039062"/>
     <use xlink:href="#DejaVuSans-53" x="271.826172"/>
     <use xlink:href="#DejaVuSans-45" x="335.302734"/>
     <use xlink:href="#DejaVuSans-52" x="398.486328"/>
     <use xlink:href="#DejaVuSans-49" x="467.96875"/>
     <use xlink:href="#DejaVuSans-45" x="497.460938"/>
     <use xlink:href="#DejaVuSans-53" x="560.644531"/>
    </g>
   </g>
  </g>
 </g>
 <defs>
  <clipPath id="p6a0aafb77e">
   <rect x="108" y="43.2" width="669.6" height="277.2"/>
  </clipPath>
 </defs>
</svg>
