<?xml version="1.0" encoding="utf-8" standalone="no"?>
<!DOCTYPE svg PUBLIC "-//W3C//DTD SVG 1.1//EN"
  "http://www.w3.org/Graphics/SVG/1.1/DTD/svg11.dtd">
<svg xmlns:xlink="http://www.w3.org/1999/xlink" width="864pt" height="360pt" viewBox="0 0 864 360" xmlns="http://www.w3.org/2000/svg" version="1.1">
 <metadata>
  <rdf:RDF xmlns:dc="http://purl.org/dc/elements/1.1/" xmlns:cc="http://creativecommons.org/ns#" xmlns:rdf="http://www.w3.org/1999/02/22-rdf-syntax-ns#">
   <cc:Work>
    <dc:type rdf:resource="http://purl.org/dc/dcmitype/StillImage"/>
    <dc:date>2023-08-03T16:46:23.442277</dc:date>
    <dc:format>image/svg+xml</dc:format>
    <dc:creator>
     <cc:Agent>
      <dc:title>Matplotlib v3.7.1, https://matplotlib.org/</dc:title>
     </cc:Agent>
    </dc:creator>
   </cc:Work>
  </rdf:RDF>
 </metadata>
 <defs>
  <style type="text/css">*{stroke-linejoin: round; stroke-linecap: butt}</style>
 </defs>
 <g id="figure_1">
  <g id="patch_1">
   <path d="M 0 360 
L 864 360 
L 864 0 
L 0 0 
z
" style="fill: #ffffff"/>
  </g>
  <g id="axes_1">
   <g id="patch_2">
    <path d="M 108 320.4 
L 777.6 320.4 
L 777.6 43.2 
L 108 43.2 
z
" style="fill: #ffffff"/>
   </g>
   <g id="matplotlib.axis_1">
    <g id="xtick_1">
     <g id="line2d_1">
      <defs>
       <path id="m5869626167" d="M 0 0 
L 0 3.5 
" style="stroke: #000000; stroke-width: 0.8"/>
      </defs>
      <g>
       <use xlink:href="#m5869626167" x="138.436364" y="320.4" style="stroke: #000000; stroke-width: 0.8"/>
      </g>
     </g>
     <g id="text_1">
      <!-- 2022-01-01 -->
      <g transform="translate(109.378551 334.998438) scale(0.1 -0.1)">
       <defs>
        <path id="DejaVuSans-32" d="M 1228 531 
L 3431 531 
L 3431 0 
L 469 0 
L 469 531 
Q 828 903 1448 1529 
Q 2069 2156 2228 2338 
Q 2531 2678 2651 2914 
Q 2772 3150 2772 3378 
Q 2772 3750 2511 3984 
Q 2250 4219 1831 4219 
Q 1534 4219 1204 4116 
Q 875 4013 500 3803 
L 500 4441 
Q 881 4594 1212 4672 
Q 1544 4750 1819 4750 
Q 2544 4750 2975 4387 
Q 3406 4025 3406 3419 
Q 3406 3131 3298 2873 
Q 3191 2616 2906 2266 
Q 2828 2175 2409 1742 
Q 1991 1309 1228 531 
z
" transform="scale(0.015625)"/>
        <path id="DejaVuSans-30" d="M 2034 4250 
Q 1547 4250 1301 3770 
Q 1056 3291 1056 2328 
Q 1056 1369 1301 889 
Q 1547 409 2034 409 
Q 2525 409 2770 889 
Q 3016 1369 3016 2328 
Q 3016 3291 2770 3770 
Q 2525 4250 2034 4250 
z
M 2034 4750 
Q 2819 4750 3233 4129 
Q 3647 3509 3647 2328 
Q 3647 1150 3233 529 
Q 2819 -91 2034 -91 
Q 1250 -91 836 529 
Q 422 1150 422 2328 
Q 422 3509 836 4129 
Q 1250 4750 2034 4750 
z
" transform="scale(0.015625)"/>
        <path id="DejaVuSans-2d" d="M 313 2009 
L 1997 2009 
L 1997 1497 
L 313 1497 
L 313 2009 
z
" transform="scale(0.015625)"/>
        <path id="DejaVuSans-31" d="M 794 531 
L 1825 531 
L 1825 4091 
L 703 3866 
L 703 4441 
L 1819 4666 
L 2450 4666 
L 2450 531 
L 3481 531 
L 3481 0 
L 794 0 
L 794 531 
z
" transform="scale(0.015625)"/>
       </defs>
       <use xlink:href="#DejaVuSans-32"/>
       <use xlink:href="#DejaVuSans-30" x="63.623047"/>
       <use xlink:href="#DejaVuSans-32" x="127.246094"/>
       <use xlink:href="#DejaVuSans-32" x="190.869141"/>
       <use xlink:href="#DejaVuSans-2d" x="254.492188"/>
       <use xlink:href="#DejaVuSans-30" x="290.576172"/>
       <use xlink:href="#DejaVuSans-31" x="354.199219"/>
       <use xlink:href="#DejaVuSans-2d" x="417.822266"/>
       <use xlink:href="#DejaVuSans-30" x="453.90625"/>
       <use xlink:href="#DejaVuSans-31" x="517.529297"/>
      </g>
     </g>
    </g>
    <g id="xtick_2">
     <g id="line2d_2">
      <g>
       <use xlink:href="#m5869626167" x="219.712884" y="320.4" style="stroke: #000000; stroke-width: 0.8"/>
      </g>
     </g>
     <g id="text_2">
      <!-- 2022-01-03 -->
      <g transform="translate(190.655072 334.998438) scale(0.1 -0.1)">
       <defs>
        <path id="DejaVuSans-33" d="M 2597 2516 
Q 3050 2419 3304 2112 
Q 3559 1806 3559 1356 
Q 3559 666 3084 287 
Q 2609 -91 1734 -91 
Q 1441 -91 1130 -33 
Q 819 25 488 141 
L 488 750 
Q 750 597 1062 519 
Q 1375 441 1716 441 
Q 2309 441 2620 675 
Q 2931 909 2931 1356 
Q 2931 1769 2642 2001 
Q 2353 2234 1838 2234 
L 1294 2234 
L 1294 2753 
L 1863 2753 
Q 2328 2753 2575 2939 
Q 2822 3125 2822 3475 
Q 2822 3834 2567 4026 
Q 2313 4219 1838 4219 
Q 1578 4219 1281 4162 
Q 984 4106 628 3988 
L 628 4550 
Q 988 4650 1302 4700 
Q 1616 4750 1894 4750 
Q 2613 4750 3031 4423 
Q 3450 4097 3450 3541 
Q 3450 3153 3228 2886 
Q 3006 2619 2597 2516 
z
" transform="scale(0.015625)"/>
       </defs>
       <use xlink:href="#DejaVuSans-32"/>
       <use xlink:href="#DejaVuSans-30" x="63.623047"/>
       <use xlink:href="#DejaVuSans-32" x="127.246094"/>
       <use xlink:href="#DejaVuSans-32" x="190.869141"/>
       <use xlink:href="#DejaVuSans-2d" x="254.492188"/>
       <use xlink:href="#DejaVuSans-30" x="290.576172"/>
       <use xlink:href="#DejaVuSans-31" x="354.199219"/>
       <use xlink:href="#DejaVuSans-2d" x="417.822266"/>
       <use xlink:href="#DejaVuSans-30" x="453.90625"/>
       <use xlink:href="#DejaVuSans-33" x="517.529297"/>
      </g>
     </g>
    </g>
    <g id="xtick_3">
     <g id="line2d_3">
      <g>
       <use xlink:href="#m5869626167" x="300.989404" y="320.4" style="stroke: #000000; stroke-width: 0.8"/>
      </g>
     </g>
     <g id="text_3">
      <!-- 2022-01-05 -->
      <g transform="translate(271.931592 334.998438) scale(0.1 -0.1)">
       <defs>
        <path id="DejaVuSans-35" d="M 691 4666 
L 3169 4666 
L 3169 4134 
L 1269 4134 
L 1269 2991 
Q 1406 3038 1543 3061 
Q 1681 3084 1819 3084 
Q 2600 3084 3056 2656 
Q 3513 2228 3513 1497 
Q 3513 744 3044 326 
Q 2575 -91 1722 -91 
Q 1428 -91 1123 -41 
Q 819 9 494 109 
L 494 744 
Q 775 591 1075 516 
Q 1375 441 1709 441 
Q 2250 441 2565 725 
Q 2881 1009 2881 1497 
Q 2881 1984 2565 2268 
Q 2250 2553 1709 2553 
Q 1456 2553 1204 2497 
Q 953 2441 691 2322 
L 691 4666 
z
" transform="scale(0.015625)"/>
       </defs>
       <use xlink:href="#DejaVuSans-32"/>
       <use xlink:href="#DejaVuSans-30" x="63.623047"/>
       <use xlink:href="#DejaVuSans-32" x="127.246094"/>
       <use xlink:href="#DejaVuSans-32" x="190.869141"/>
       <use xlink:href="#DejaVuSans-2d" x="254.492188"/>
       <use xlink:href="#DejaVuSans-30" x="290.576172"/>
       <use xlink:href="#DejaVuSans-31" x="354.199219"/>
       <use xlink:href="#DejaVuSans-2d" x="417.822266"/>
       <use xlink:href="#DejaVuSans-30" x="453.90625"/>
       <use xlink:href="#DejaVuSans-35" x="517.529297"/>
      </g>
     </g>
    </g>
    <g id="xtick_4">
     <g id="line2d_4">
      <g>
       <use xlink:href="#m5869626167" x="382.265925" y="320.4" style="stroke: #000000; stroke-width: 0.8"/>
      </g>
     </g>
     <g id="text_4">
      <!-- 2022-01-07 -->
      <g transform="translate(353.208112 334.998438) scale(0.1 -0.1)">
       <defs>
        <path id="DejaVuSans-37" d="M 525 4666 
L 3525 4666 
L 3525 4397 
L 1831 0 
L 1172 0 
L 2766 4134 
L 525 4134 
L 525 4666 
z
" transform="scale(0.015625)"/>
       </defs>
       <use xlink:href="#DejaVuSans-32"/>
       <use xlink:href="#DejaVuSans-30" x="63.623047"/>
       <use xlink:href="#DejaVuSans-32" x="127.246094"/>
       <use xlink:href="#DejaVuSans-32" x="190.869141"/>
       <use xlink:href="#DejaVuSans-2d" x="254.492188"/>
       <use xlink:href="#DejaVuSans-30" x="290.576172"/>
       <use xlink:href="#DejaVuSans-31" x="354.199219"/>
       <use xlink:href="#DejaVuSans-2d" x="417.822266"/>
       <use xlink:href="#DejaVuSans-30" x="453.90625"/>
       <use xlink:href="#DejaVuSans-37" x="517.529297"/>
      </g>
     </g>
    </g>
    <g id="xtick_5">
     <g id="line2d_5">
      <g>
       <use xlink:href="#m5869626167" x="463.542445" y="320.4" style="stroke: #000000; stroke-width: 0.8"/>
      </g>
     </g>
     <g id="text_5">
      <!-- 2022-01-09 -->
      <g transform="translate(434.484633 334.998438) scale(0.1 -0.1)">
       <defs>
        <path id="DejaVuSans-39" d="M 703 97 
L 703 672 
Q 941 559 1184 500 
Q 1428 441 1663 441 
Q 2288 441 2617 861 
Q 2947 1281 2994 2138 
Q 2813 1869 2534 1725 
Q 2256 1581 1919 1581 
Q 1219 1581 811 2004 
Q 403 2428 403 3163 
Q 403 3881 828 4315 
Q 1253 4750 1959 4750 
Q 2769 4750 3195 4129 
Q 3622 3509 3622 2328 
Q 3622 1225 3098 567 
Q 2575 -91 1691 -91 
Q 1453 -91 1209 -44 
Q 966 3 703 97 
z
M 1959 2075 
Q 2384 2075 2632 2365 
Q 2881 2656 2881 3163 
Q 2881 3666 2632 3958 
Q 2384 4250 1959 4250 
Q 1534 4250 1286 3958 
Q 1038 3666 1038 3163 
Q 1038 2656 1286 2365 
Q 1534 2075 1959 2075 
z
" transform="scale(0.015625)"/>
       </defs>
       <use xlink:href="#DejaVuSans-32"/>
       <use xlink:href="#DejaVuSans-30" x="63.623047"/>
       <use xlink:href="#DejaVuSans-32" x="127.246094"/>
       <use xlink:href="#DejaVuSans-32" x="190.869141"/>
       <use xlink:href="#DejaVuSans-2d" x="254.492188"/>
       <use xlink:href="#DejaVuSans-30" x="290.576172"/>
       <use xlink:href="#DejaVuSans-31" x="354.199219"/>
       <use xlink:href="#DejaVuSans-2d" x="417.822266"/>
       <use xlink:href="#DejaVuSans-30" x="453.90625"/>
       <use xlink:href="#DejaVuSans-39" x="517.529297"/>
      </g>
     </g>
    </g>
    <g id="xtick_6">
     <g id="line2d_6">
      <g>
       <use xlink:href="#m5869626167" x="544.818966" y="320.4" style="stroke: #000000; stroke-width: 0.8"/>
      </g>
     </g>
     <g id="text_6">
      <!-- 2022-01-11 -->
      <g transform="translate(515.761153 334.998438) scale(0.1 -0.1)">
       <use xlink:href="#DejaVuSans-32"/>
       <use xlink:href="#DejaVuSans-30" x="63.623047"/>
       <use xlink:href="#DejaVuSans-32" x="127.246094"/>
       <use xlink:href="#DejaVuSans-32" x="190.869141"/>
       <use xlink:href="#DejaVuSans-2d" x="254.492188"/>
       <use xlink:href="#DejaVuSans-30" x="290.576172"/>
       <use xlink:href="#DejaVuSans-31" x="354.199219"/>
       <use xlink:href="#DejaVuSans-2d" x="417.822266"/>
       <use xlink:href="#DejaVuSans-31" x="453.90625"/>
       <use xlink:href="#DejaVuSans-31" x="517.529297"/>
      </g>
     </g>
    </g>
    <g id="xtick_7">
     <g id="line2d_7">
      <g>
       <use xlink:href="#m5869626167" x="626.095486" y="320.4" style="stroke: #000000; stroke-width: 0.8"/>
      </g>
     </g>
     <g id="text_7">
      <!-- 2022-01-13 -->
      <g transform="translate(597.037674 334.998438) scale(0.1 -0.1)">
       <use xlink:href="#DejaVuSans-32"/>
       <use xlink:href="#DejaVuSans-30" x="63.623047"/>
       <use xlink:href="#DejaVuSans-32" x="127.246094"/>
       <use xlink:href="#DejaVuSans-32" x="190.869141"/>
       <use xlink:href="#DejaVuSans-2d" x="254.492188"/>
       <use xlink:href="#DejaVuSans-30" x="290.576172"/>
       <use xlink:href="#DejaVuSans-31" x="354.199219"/>
       <use xlink:href="#DejaVuSans-2d" x="417.822266"/>
       <use xlink:href="#DejaVuSans-31" x="453.90625"/>
       <use xlink:href="#DejaVuSans-33" x="517.529297"/>
      </g>
     </g>
    </g>
    <g id="xtick_8">
     <g id="line2d_8">
      <g>
       <use xlink:href="#m5869626167" x="707.372007" y="320.4" style="stroke: #000000; stroke-width: 0.8"/>
      </g>
     </g>
     <g id="text_8">
      <!-- 2022-01-15 -->
      <g transform="translate(678.314194 334.998438) scale(0.1 -0.1)">
       <use xlink:href="#DejaVuSans-32"/>
       <use xlink:href="#DejaVuSans-30" x="63.623047"/>
       <use xlink:href="#DejaVuSans-32" x="127.246094"/>
       <use xlink:href="#DejaVuSans-32" x="190.869141"/>
       <use xlink:href="#DejaVuSans-2d" x="254.492188"/>
       <use xlink:href="#DejaVuSans-30" x="290.576172"/>
       <use xlink:href="#DejaVuSans-31" x="354.199219"/>
       <use xlink:href="#DejaVuSans-2d" x="417.822266"/>
       <use xlink:href="#DejaVuSans-31" x="453.90625"/>
       <use xlink:href="#DejaVuSans-35" x="517.529297"/>
      </g>
     </g>
    </g>
    <g id="text_9">
     <!-- TIME (DAYS) -->
     <g transform="translate(412.283594 348.676562) scale(0.1 -0.1)">
      <defs>
       <path id="DejaVuSans-54" d="M -19 4666 
L 3928 4666 
L 3928 4134 
L 2272 4134 
L 2272 0 
L 1638 0 
L 1638 4134 
L -19 4134 
L -19 4666 
z
" transform="scale(0.015625)"/>
       <path id="DejaVuSans-49" d="M 628 4666 
L 1259 4666 
L 1259 0 
L 628 0 
L 628 4666 
z
" transform="scale(0.015625)"/>
       <path id="DejaVuSans-4d" d="M 628 4666 
L 1569 4666 
L 2759 1491 
L 3956 4666 
L 4897 4666 
L 4897 0 
L 4281 0 
L 4281 4097 
L 3078 897 
L 2444 897 
L 1241 4097 
L 1241 0 
L 628 0 
L 628 4666 
z
" transform="scale(0.015625)"/>
       <path id="DejaVuSans-45" d="M 628 4666 
L 3578 4666 
L 3578 4134 
L 1259 4134 
L 1259 2753 
L 3481 2753 
L 3481 2222 
L 1259 2222 
L 1259 531 
L 3634 531 
L 3634 0 
L 628 0 
L 628 4666 
z
" transform="scale(0.015625)"/>
       <path id="DejaVuSans-20" transform="scale(0.015625)"/>
       <path id="DejaVuSans-28" d="M 1984 4856 
Q 1566 4138 1362 3434 
Q 1159 2731 1159 2009 
Q 1159 1288 1364 580 
Q 1569 -128 1984 -844 
L 1484 -844 
Q 1016 -109 783 600 
Q 550 1309 550 2009 
Q 550 2706 781 3412 
Q 1013 4119 1484 4856 
L 1984 4856 
z
" transform="scale(0.015625)"/>
       <path id="DejaVuSans-44" d="M 1259 4147 
L 1259 519 
L 2022 519 
Q 2988 519 3436 956 
Q 3884 1394 3884 2338 
Q 3884 3275 3436 3711 
Q 2988 4147 2022 4147 
L 1259 4147 
z
M 628 4666 
L 1925 4666 
Q 3281 4666 3915 4102 
Q 4550 3538 4550 2338 
Q 4550 1131 3912 565 
Q 3275 0 1925 0 
L 628 0 
L 628 4666 
z
" transform="scale(0.015625)"/>
       <path id="DejaVuSans-41" d="M 2188 4044 
L 1331 1722 
L 3047 1722 
L 2188 4044 
z
M 1831 4666 
L 2547 4666 
L 4325 0 
L 3669 0 
L 3244 1197 
L 1141 1197 
L 716 0 
L 50 0 
L 1831 4666 
z
" transform="scale(0.015625)"/>
       <path id="DejaVuSans-59" d="M -13 4666 
L 666 4666 
L 1959 2747 
L 3244 4666 
L 3922 4666 
L 2272 2222 
L 2272 0 
L 1638 0 
L 1638 2222 
L -13 4666 
z
" transform="scale(0.015625)"/>
       <path id="DejaVuSans-53" d="M 3425 4513 
L 3425 3897 
Q 3066 4069 2747 4153 
Q 2428 4238 2131 4238 
Q 1616 4238 1336 4038 
Q 1056 3838 1056 3469 
Q 1056 3159 1242 3001 
Q 1428 2844 1947 2747 
L 2328 2669 
Q 3034 2534 3370 2195 
Q 3706 1856 3706 1288 
Q 3706 609 3251 259 
Q 2797 -91 1919 -91 
Q 1588 -91 1214 -16 
Q 841 59 441 206 
L 441 856 
Q 825 641 1194 531 
Q 1563 422 1919 422 
Q 2459 422 2753 634 
Q 3047 847 3047 1241 
Q 3047 1584 2836 1778 
Q 2625 1972 2144 2069 
L 1759 2144 
Q 1053 2284 737 2584 
Q 422 2884 422 3419 
Q 422 4038 858 4394 
Q 1294 4750 2059 4750 
Q 2388 4750 2728 4690 
Q 3069 4631 3425 4513 
z
" transform="scale(0.015625)"/>
       <path id="DejaVuSans-29" d="M 513 4856 
L 1013 4856 
Q 1481 4119 1714 3412 
Q 1947 2706 1947 2009 
Q 1947 1309 1714 600 
Q 1481 -109 1013 -844 
L 513 -844 
Q 928 -128 1133 580 
Q 1338 1288 1338 2009 
Q 1338 2731 1133 3434 
Q 928 4138 513 4856 
z
" transform="scale(0.015625)"/>
      </defs>
      <use xlink:href="#DejaVuSans-54"/>
      <use xlink:href="#DejaVuSans-49" x="61.083984"/>
      <use xlink:href="#DejaVuSans-4d" x="90.576172"/>
      <use xlink:href="#DejaVuSans-45" x="176.855469"/>
      <use xlink:href="#DejaVuSans-20" x="240.039062"/>
      <use xlink:href="#DejaVuSans-28" x="271.826172"/>
      <use xlink:href="#DejaVuSans-44" x="310.839844"/>
      <use xlink:href="#DejaVuSans-41" x="386.091797"/>
      <use xlink:href="#DejaVuSans-59" x="446.75"/>
      <use xlink:href="#DejaVuSans-53" x="507.833984"/>
      <use xlink:href="#DejaVuSans-29" x="571.310547"/>
     </g>
    </g>
   </g>
   <g id="matplotlib.axis_2">
    <g id="ytick_1">
     <g id="line2d_9">
      <defs>
       <path id="m52e5161ad6" d="M 0 0 
L -3.5 0 
" style="stroke: #000000; stroke-width: 0.8"/>
      </defs>
      <g>
       <use xlink:href="#m52e5161ad6" x="108" y="307.8" style="stroke: #000000; stroke-width: 0.8"/>
      </g>
     </g>
     <g id="text_10">
      <!-- 0 -->
      <g transform="translate(94.6375 311.599219) scale(0.1 -0.1)">
       <use xlink:href="#DejaVuSans-30"/>
      </g>
     </g>
    </g>
    <g id="ytick_2">
     <g id="line2d_10">
      <g>
       <use xlink:href="#m52e5161ad6" x="108" y="276.879755" style="stroke: #000000; stroke-width: 0.8"/>
      </g>
     </g>
     <g id="text_11">
      <!-- 20 -->
      <g transform="translate(88.275 280.678973) scale(0.1 -0.1)">
       <use xlink:href="#DejaVuSans-32"/>
       <use xlink:href="#DejaVuSans-30" x="63.623047"/>
      </g>
     </g>
    </g>
    <g id="ytick_3">
     <g id="line2d_11">
      <g>
       <use xlink:href="#m52e5161ad6" x="108" y="245.959509" style="stroke: #000000; stroke-width: 0.8"/>
      </g>
     </g>
     <g id="text_12">
      <!-- 40 -->
      <g transform="translate(88.275 249.758728) scale(0.1 -0.1)">
       <defs>
        <path id="DejaVuSans-34" d="M 2419 4116 
L 825 1625 
L 2419 1625 
L 2419 4116 
z
M 2253 4666 
L 3047 4666 
L 3047 1625 
L 3713 1625 
L 3713 1100 
L 3047 1100 
L 3047 0 
L 2419 0 
L 2419 1100 
L 313 1100 
L 313 1709 
L 2253 4666 
z
" transform="scale(0.015625)"/>
       </defs>
       <use xlink:href="#DejaVuSans-34"/>
       <use xlink:href="#DejaVuSans-30" x="63.623047"/>
      </g>
     </g>
    </g>
    <g id="ytick_4">
     <g id="line2d_12">
      <g>
       <use xlink:href="#m52e5161ad6" x="108" y="215.039264" style="stroke: #000000; stroke-width: 0.8"/>
      </g>
     </g>
     <g id="text_13">
      <!-- 60 -->
      <g transform="translate(88.275 218.838483) scale(0.1 -0.1)">
       <defs>
        <path id="DejaVuSans-36" d="M 2113 2584 
Q 1688 2584 1439 2293 
Q 1191 2003 1191 1497 
Q 1191 994 1439 701 
Q 1688 409 2113 409 
Q 2538 409 2786 701 
Q 3034 994 3034 1497 
Q 3034 2003 2786 2293 
Q 2538 2584 2113 2584 
z
M 3366 4563 
L 3366 3988 
Q 3128 4100 2886 4159 
Q 2644 4219 2406 4219 
Q 1781 4219 1451 3797 
Q 1122 3375 1075 2522 
Q 1259 2794 1537 2939 
Q 1816 3084 2150 3084 
Q 2853 3084 3261 2657 
Q 3669 2231 3669 1497 
Q 3669 778 3244 343 
Q 2819 -91 2113 -91 
Q 1303 -91 875 529 
Q 447 1150 447 2328 
Q 447 3434 972 4092 
Q 1497 4750 2381 4750 
Q 2619 4750 2861 4703 
Q 3103 4656 3366 4563 
z
" transform="scale(0.015625)"/>
       </defs>
       <use xlink:href="#DejaVuSans-36"/>
       <use xlink:href="#DejaVuSans-30" x="63.623047"/>
      </g>
     </g>
    </g>
    <g id="ytick_5">
     <g id="line2d_13">
      <g>
       <use xlink:href="#m52e5161ad6" x="108" y="184.119018" style="stroke: #000000; stroke-width: 0.8"/>
      </g>
     </g>
     <g id="text_14">
      <!-- 80 -->
      <g transform="translate(88.275 187.918237) scale(0.1 -0.1)">
       <defs>
        <path id="DejaVuSans-38" d="M 2034 2216 
Q 1584 2216 1326 1975 
Q 1069 1734 1069 1313 
Q 1069 891 1326 650 
Q 1584 409 2034 409 
Q 2484 409 2743 651 
Q 3003 894 3003 1313 
Q 3003 1734 2745 1975 
Q 2488 2216 2034 2216 
z
M 1403 2484 
Q 997 2584 770 2862 
Q 544 3141 544 3541 
Q 544 4100 942 4425 
Q 1341 4750 2034 4750 
Q 2731 4750 3128 4425 
Q 3525 4100 3525 3541 
Q 3525 3141 3298 2862 
Q 3072 2584 2669 2484 
Q 3125 2378 3379 2068 
Q 3634 1759 3634 1313 
Q 3634 634 3220 271 
Q 2806 -91 2034 -91 
Q 1263 -91 848 271 
Q 434 634 434 1313 
Q 434 1759 690 2068 
Q 947 2378 1403 2484 
z
M 1172 3481 
Q 1172 3119 1398 2916 
Q 1625 2713 2034 2713 
Q 2441 2713 2670 2916 
Q 2900 3119 2900 3481 
Q 2900 3844 2670 4047 
Q 2441 4250 2034 4250 
Q 1625 4250 1398 4047 
Q 1172 3844 1172 3481 
z
" transform="scale(0.015625)"/>
       </defs>
       <use xlink:href="#DejaVuSans-38"/>
       <use xlink:href="#DejaVuSans-30" x="63.623047"/>
      </g>
     </g>
    </g>
    <g id="ytick_6">
     <g id="line2d_14">
      <g>
       <use xlink:href="#m52e5161ad6" x="108" y="153.198773" style="stroke: #000000; stroke-width: 0.8"/>
      </g>
     </g>
     <g id="text_15">
      <!-- 100 -->
      <g transform="translate(81.9125 156.997992) scale(0.1 -0.1)">
       <use xlink:href="#DejaVuSans-31"/>
       <use xlink:href="#DejaVuSans-30" x="63.623047"/>
       <use xlink:href="#DejaVuSans-30" x="127.246094"/>
      </g>
     </g>
    </g>
    <g id="ytick_7">
     <g id="line2d_15">
      <g>
       <use xlink:href="#m52e5161ad6" x="108" y="122.278528" style="stroke: #000000; stroke-width: 0.8"/>
      </g>
     </g>
     <g id="text_16">
      <!-- 120 -->
      <g transform="translate(81.9125 126.077746) scale(0.1 -0.1)">
       <use xlink:href="#DejaVuSans-31"/>
       <use xlink:href="#DejaVuSans-32" x="63.623047"/>
       <use xlink:href="#DejaVuSans-30" x="127.246094"/>
      </g>
     </g>
    </g>
    <g id="ytick_8">
     <g id="line2d_16">
      <g>
       <use xlink:href="#m52e5161ad6" x="108" y="91.358282" style="stroke: #000000; stroke-width: 0.8"/>
      </g>
     </g>
     <g id="text_17">
      <!-- 140 -->
      <g transform="translate(81.9125 95.157501) scale(0.1 -0.1)">
       <use xlink:href="#DejaVuSans-31"/>
       <use xlink:href="#DejaVuSans-34" x="63.623047"/>
       <use xlink:href="#DejaVuSans-30" x="127.246094"/>
      </g>
     </g>
    </g>
    <g id="ytick_9">
     <g id="line2d_17">
      <g>
       <use xlink:href="#m52e5161ad6" x="108" y="60.438037" style="stroke: #000000; stroke-width: 0.8"/>
      </g>
     </g>
     <g id="text_18">
      <!-- 160 -->
      <g transform="translate(81.9125 64.237256) scale(0.1 -0.1)">
       <use xlink:href="#DejaVuSans-31"/>
       <use xlink:href="#DejaVuSans-36" x="63.623047"/>
       <use xlink:href="#DejaVuSans-30" x="127.246094"/>
      </g>
     </g>
    </g>
    <g id="text_19">
     <!-- AMPLITUDE -->
     <g transform="translate(75.832812 210.532812) rotate(-90) scale(0.1 -0.1)">
      <defs>
       <path id="DejaVuSans-50" d="M 1259 4147 
L 1259 2394 
L 2053 2394 
Q 2494 2394 2734 2622 
Q 2975 2850 2975 3272 
Q 2975 3691 2734 3919 
Q 2494 4147 2053 4147 
L 1259 4147 
z
M 628 4666 
L 2053 4666 
Q 2838 4666 3239 4311 
Q 3641 3956 3641 3272 
Q 3641 2581 3239 2228 
Q 2838 1875 2053 1875 
L 1259 1875 
L 1259 0 
L 628 0 
L 628 4666 
z
" transform="scale(0.015625)"/>
       <path id="DejaVuSans-4c" d="M 628 4666 
L 1259 4666 
L 1259 531 
L 3531 531 
L 3531 0 
L 628 0 
L 628 4666 
z
" transform="scale(0.015625)"/>
       <path id="DejaVuSans-55" d="M 556 4666 
L 1191 4666 
L 1191 1831 
Q 1191 1081 1462 751 
Q 1734 422 2344 422 
Q 2950 422 3222 751 
Q 3494 1081 3494 1831 
L 3494 4666 
L 4128 4666 
L 4128 1753 
Q 4128 841 3676 375 
Q 3225 -91 2344 -91 
Q 1459 -91 1007 375 
Q 556 841 556 1753 
L 556 4666 
z
" transform="scale(0.015625)"/>
      </defs>
      <use xlink:href="#DejaVuSans-41"/>
      <use xlink:href="#DejaVuSans-4d" x="68.408203"/>
      <use xlink:href="#DejaVuSans-50" x="154.6875"/>
      <use xlink:href="#DejaVuSans-4c" x="214.990234"/>
      <use xlink:href="#DejaVuSans-49" x="270.703125"/>
      <use xlink:href="#DejaVuSans-54" x="300.195312"/>
      <use xlink:href="#DejaVuSans-55" x="361.279297"/>
      <use xlink:href="#DejaVuSans-44" x="434.472656"/>
      <use xlink:href="#DejaVuSans-45" x="511.474609"/>
     </g>
    </g>
   </g>
   <g id="line2d_18">
    <path d="M 138.436364 211.947239 
L 139.282994 307.8 
L 140.129624 296.977914 
L 140.976255 307.8 
L 141.822885 300.069939 
L 142.669516 307.8 
L 144.362777 307.8 
L 145.209407 269.149693 
L 146.056037 281.517791 
L 146.902668 307.8 
L 147.749298 279.971779 
L 148.595929 307.8 
L 149.442559 253.689571 
L 150.28919 307.8 
L 151.98245 307.8 
L 152.829081 284.609816 
L 153.675711 307.8 
L 154.522342 270.695706 
L 155.368972 278.425767 
L 156.215602 306.253988 
L 157.062233 256.781595 
L 157.908863 307.8 
L 158.755494 301.615951 
L 159.602124 120.732515 
L 160.448755 208.855215 
L 161.295385 153.198773 
L 162.142015 136.192638 
L 162.988646 171.75092 
L 163.835276 156.290798 
L 164.681907 122.278528 
L 165.528537 193.395092 
L 166.375168 148.560736 
L 167.221798 139.284663 
L 168.068428 137.73865 
L 168.915059 208.855215 
L 169.761689 156.290798 
L 170.60832 179.480982 
L 171.45495 150.106748 
L 172.30158 148.560736 
L 173.148211 160.928834 
L 173.994841 95.996319 
L 174.841472 171.75092 
L 175.688102 181.026994 
L 176.534733 143.922699 
L 177.381363 133.100613 
L 178.227993 130.008589 
L 179.074624 130.008589 
L 179.921254 150.106748 
L 180.767885 307.8 
L 181.614515 292.339877 
L 182.461146 307.8 
L 184.154406 307.8 
L 185.001037 278.425767 
L 185.847667 307.8 
L 191.77408 307.8 
L 192.620711 278.425767 
L 193.467341 307.8 
L 194.313971 289.247853 
L 195.160602 307.8 
L 196.007232 307.8 
L 196.853863 275.333742 
L 197.700493 270.695706 
L 198.547124 261.419632 
L 199.393754 307.8 
L 201.087015 307.8 
L 201.933645 134.646626 
L 202.780276 142.376687 
L 203.626906 156.290798 
L 204.473536 147.014724 
L 205.320167 123.82454 
L 206.166797 106.818405 
L 207.013428 181.026994 
L 207.860058 176.388957 
L 208.706689 133.100613 
L 209.553319 191.84908 
L 210.399949 167.112883 
L 211.24658 117.640491 
L 212.09321 119.186503 
L 212.939841 157.83681 
L 213.786471 154.744785 
L 214.633102 133.100613 
L 215.479732 156.290798 
L 216.326362 174.842945 
L 217.172993 232.045399 
L 218.866254 133.100613 
L 219.712884 194.941104 
L 220.559514 167.112883 
L 221.406145 102.180368 
L 222.252775 170.204908 
L 223.099406 279.971779 
L 223.946036 298.523926 
L 224.792667 264.511656 
L 225.639297 293.88589 
L 226.485927 306.253988 
L 227.332558 307.8 
L 228.179188 307.8 
L 229.872449 258.327607 
L 230.71908 307.8 
L 233.258971 307.8 
L 234.105601 293.88589 
L 234.952232 307.8 
L 236.645492 307.8 
L 237.492123 266.057669 
L 238.338753 273.78773 
L 239.185384 266.057669 
L 240.032014 298.523926 
L 240.878645 281.517791 
L 241.725275 261.419632 
L 242.571905 307.8 
L 243.418536 307.8 
L 244.265166 174.842945 
L 245.111797 133.100613 
L 245.958427 171.75092 
L 246.805058 137.73865 
L 247.651688 123.82454 
L 248.498318 137.73865 
L 249.344949 136.192638 
L 250.191579 196.487117 
L 251.03821 219.677301 
L 251.88484 177.934969 
L 252.73147 174.842945 
L 253.578101 105.272393 
L 254.424731 191.84908 
L 255.271362 134.646626 
L 256.117992 173.296933 
L 256.964623 168.658896 
L 258.657883 136.192638 
L 259.504514 97.542331 
L 260.351144 147.014724 
L 261.197775 188.757055 
L 262.044405 162.474847 
L 262.891036 159.382822 
L 263.737666 164.020859 
L 264.584296 119.186503 
L 265.430927 279.971779 
L 266.277557 306.253988 
L 267.970818 273.78773 
L 268.817448 307.8 
L 270.510709 307.8 
L 271.35734 262.965644 
L 272.20397 306.253988 
L 273.050601 284.609816 
L 273.897231 307.8 
L 276.437122 307.8 
L 277.283753 273.78773 
L 278.130383 307.8 
L 278.977014 256.781595 
L 279.823644 307.8 
L 280.670274 307.8 
L 281.516905 298.523926 
L 282.363535 256.781595 
L 283.210166 307.8 
L 284.056796 307.8 
L 284.903426 293.88589 
L 285.750057 307.8 
L 286.596687 94.450307 
L 287.443318 134.646626 
L 288.289948 150.106748 
L 289.136579 190.303067 
L 289.983209 148.560736 
L 290.829839 199.579141 
L 291.67647 147.014724 
L 292.5231 210.401227 
L 294.216361 133.100613 
L 295.062992 228.953374 
L 295.909622 120.732515 
L 296.756252 177.934969 
L 298.449513 142.376687 
L 299.296144 174.842945 
L 300.142774 134.646626 
L 300.989404 160.928834 
L 301.836035 97.542331 
L 302.682665 207.309202 
L 303.529296 142.376687 
L 304.375926 140.830675 
L 305.222557 194.941104 
L 306.069187 160.928834 
L 306.915817 117.640491 
L 307.762448 307.8 
L 309.455709 307.8 
L 310.302339 300.069939 
L 311.14897 307.8 
L 311.9956 276.879755 
L 312.84223 213.493252 
L 313.688861 225.86135 
L 314.535491 272.241718 
L 315.382122 307.8 
L 316.228752 296.977914 
L 317.075382 301.615951 
L 317.922013 275.333742 
L 318.768643 293.88589 
L 319.615274 281.517791 
L 320.461904 303.161963 
L 321.308535 284.609816 
L 322.155165 307.8 
L 323.001795 287.70184 
L 323.848426 301.615951 
L 324.695056 255.235583 
L 325.541687 253.689571 
L 326.388317 273.78773 
L 327.234948 307.8 
L 328.081578 245.959509 
L 328.928208 150.106748 
L 329.774839 177.934969 
L 330.621469 150.106748 
L 331.4681 218.131288 
L 332.31473 193.395092 
L 334.007991 114.548466 
L 334.854621 143.922699 
L 335.701252 137.73865 
L 336.547882 136.192638 
L 337.394513 128.462577 
L 338.241143 179.480982 
L 339.087773 140.830675 
L 339.934404 126.916564 
L 340.781034 123.82454 
L 341.627665 116.094479 
L 342.474295 181.026994 
L 343.320926 143.922699 
L 344.167556 174.842945 
L 345.014186 123.82454 
L 345.860817 150.106748 
L 346.707447 194.941104 
L 347.554078 147.014724 
L 348.400708 120.732515 
L 349.247338 182.573006 
L 350.093969 283.063804 
L 350.940599 272.241718 
L 351.78723 307.8 
L 352.63386 307.8 
L 353.480491 239.77546 
L 355.173751 306.253988 
L 356.020382 301.615951 
L 356.867012 307.8 
L 361.100164 307.8 
L 361.946795 298.523926 
L 362.793425 307.8 
L 363.640056 238.229448 
L 364.486686 307.8 
L 365.333316 307.8 
L 366.179947 284.609816 
L 367.026577 286.155828 
L 367.873208 244.413497 
L 368.719838 307.8 
L 369.566469 307.8 
L 370.413099 281.517791 
L 371.259729 142.376687 
L 372.10636 235.137423 
L 372.95299 199.579141 
L 373.799621 136.192638 
L 374.646251 97.542331 
L 375.492882 164.020859 
L 376.339512 171.75092 
L 377.186142 125.370552 
L 378.032773 140.830675 
L 378.879403 171.75092 
L 379.726034 131.554601 
L 380.572664 177.934969 
L 381.419294 119.186503 
L 382.265925 156.290798 
L 383.112555 165.566871 
L 383.959186 191.84908 
L 384.805816 119.186503 
L 385.652447 170.204908 
L 386.499077 179.480982 
L 387.345707 106.818405 
L 388.192338 154.744785 
L 389.038968 88.266258 
L 389.885599 82.082209 
L 390.732229 128.462577 
L 391.57886 125.370552 
L 392.42549 295.431902 
L 393.27212 307.8 
L 395.812012 307.8 
L 396.658642 244.413497 
L 397.505272 298.523926 
L 398.351903 306.253988 
L 399.198533 281.517791 
L 400.045164 307.8 
L 400.891794 296.977914 
L 401.738425 307.8 
L 406.818207 307.8 
L 407.664838 276.879755 
L 408.511468 307.8 
L 409.358098 292.339877 
L 410.204729 304.707975 
L 411.051359 224.315337 
L 411.89799 273.78773 
L 412.74462 307.8 
L 413.59125 156.290798 
L 414.437881 213.493252 
L 415.284511 185.665031 
L 416.131142 136.192638 
L 416.977772 156.290798 
L 417.824403 168.658896 
L 418.671033 102.180368 
L 419.517663 270.695706 
L 420.364294 188.757055 
L 421.210924 170.204908 
L 422.057555 120.732515 
L 422.904185 167.112883 
L 423.750816 148.560736 
L 424.597446 188.757055 
L 425.444076 151.652761 
L 426.290707 176.388957 
L 427.137337 61.984049 
L 427.983968 160.928834 
L 428.830598 153.198773 
L 429.677228 120.732515 
L 430.523859 188.757055 
L 431.370489 85.174233 
L 432.21712 157.83681 
L 433.06375 139.284663 
L 433.910381 139.284663 
L 434.757011 298.523926 
L 435.603641 307.8 
L 436.450272 307.8 
L 437.296902 253.689571 
L 438.143533 307.8 
L 438.990163 296.977914 
L 439.836794 307.8 
L 440.683424 275.333742 
L 441.530054 287.70184 
L 442.376685 262.965644 
L 443.223315 307.8 
L 444.069946 307.8 
L 444.916576 304.707975 
L 445.763206 307.8 
L 446.609837 298.523926 
L 447.456467 273.78773 
L 448.303098 275.333742 
L 449.149728 307.8 
L 450.842989 307.8 
L 451.689619 258.327607 
L 452.53625 259.87362 
L 453.38288 307.8 
L 454.229511 190.303067 
L 455.076141 128.462577 
L 456.769402 176.388957 
L 457.616032 184.119018 
L 458.462663 196.487117 
L 459.309293 140.830675 
L 460.155924 174.842945 
L 461.002554 153.198773 
L 461.849184 61.984049 
L 462.695815 55.8 
L 463.542445 114.548466 
L 464.389076 133.100613 
L 465.235706 123.82454 
L 466.082337 131.554601 
L 466.928967 126.916564 
L 467.775597 94.450307 
L 468.622228 156.290798 
L 469.468858 184.119018 
L 470.315489 95.996319 
L 471.162119 91.358282 
L 472.00875 182.573006 
L 472.85538 100.634356 
L 473.70201 289.247853 
L 474.548641 301.615951 
L 475.395271 278.425767 
L 476.241902 295.431902 
L 477.088532 290.793865 
L 477.935162 307.8 
L 478.781793 307.8 
L 479.628423 278.425767 
L 480.475054 286.155828 
L 481.321684 284.609816 
L 482.168315 307.8 
L 483.014945 225.86135 
L 483.861575 307.8 
L 484.708206 307.8 
L 485.554836 258.327607 
L 486.401467 262.965644 
L 487.248097 307.8 
L 488.094728 242.867485 
L 488.941358 300.069939 
L 489.787988 279.971779 
L 490.634619 284.609816 
L 491.481249 242.867485 
L 492.32788 275.333742 
L 493.17451 128.462577 
L 494.02114 143.922699 
L 494.867771 156.290798 
L 495.714401 143.922699 
L 496.561032 191.84908 
L 497.407662 154.744785 
L 498.254293 187.211043 
L 499.100923 145.468712 
L 500.794184 205.76319 
L 501.640814 116.094479 
L 502.487445 147.014724 
L 503.334075 72.806135 
L 504.180706 218.131288 
L 505.027336 170.204908 
L 505.873966 164.020859 
L 506.720597 153.198773 
L 507.567227 160.928834 
L 508.413858 140.830675 
L 509.260488 179.480982 
L 510.107118 145.468712 
L 510.953749 143.922699 
L 511.800379 91.358282 
L 512.64701 215.039264 
L 513.49364 307.8 
L 519.420053 307.8 
L 520.266684 293.88589 
L 521.113314 301.615951 
L 521.959944 295.431902 
L 522.806575 281.517791 
L 523.653205 307.8 
L 524.499836 278.425767 
L 525.346466 295.431902 
L 526.193096 307.8 
L 527.039727 239.77546 
L 527.886357 307.8 
L 528.732988 232.045399 
L 529.579618 307.8 
L 531.272879 307.8 
L 532.119509 134.646626 
L 532.96614 164.020859 
L 533.81277 119.186503 
L 534.659401 213.493252 
L 536.352662 89.81227 
L 537.199292 134.646626 
L 538.045922 130.008589 
L 538.892553 185.665031 
L 539.739183 145.468712 
L 540.585814 111.456442 
L 541.432444 215.039264 
L 542.279074 108.364417 
L 543.125705 168.658896 
L 543.972335 159.382822 
L 544.818966 108.364417 
L 545.665596 171.75092 
L 546.512227 130.008589 
L 547.358857 120.732515 
L 549.898748 162.474847 
L 550.745379 170.204908 
L 551.592009 258.327607 
L 552.43864 307.8 
L 553.28527 267.603681 
L 554.1319 307.8 
L 554.978531 301.615951 
L 555.825161 307.8 
L 559.211683 307.8 
L 560.058313 301.615951 
L 560.904944 307.8 
L 561.751574 283.063804 
L 562.598205 307.8 
L 563.444835 307.8 
L 564.291465 259.87362 
L 565.138096 304.707975 
L 565.984726 307.8 
L 566.831357 301.615951 
L 567.677987 307.8 
L 568.524618 301.615951 
L 569.371248 284.609816 
L 570.217878 307.8 
L 571.064509 194.941104 
L 571.911139 126.916564 
L 572.75777 153.198773 
L 573.6044 133.100613 
L 574.45103 162.474847 
L 576.144291 199.579141 
L 576.990922 191.84908 
L 577.837552 137.73865 
L 578.684183 123.82454 
L 579.530813 181.026994 
L 580.377443 184.119018 
L 581.224074 102.180368 
L 582.070704 188.757055 
L 582.917335 160.928834 
L 583.763965 148.560736 
L 584.610596 187.211043 
L 585.457226 179.480982 
L 586.303856 204.217178 
L 587.150487 125.370552 
L 587.997117 173.296933 
L 588.843748 128.462577 
L 589.690378 165.566871 
L 590.537008 307.8 
L 591.383639 307.8 
L 592.230269 301.615951 
L 593.0769 278.425767 
L 593.92353 307.8 
L 594.770161 279.971779 
L 595.616791 307.8 
L 596.463421 290.793865 
L 597.310052 307.8 
L 598.156682 300.069939 
L 599.003313 307.8 
L 599.849943 278.425767 
L 600.696574 307.8 
L 601.543204 303.161963 
L 602.389834 221.223313 
L 603.236465 307.8 
L 604.083095 256.781595 
L 604.929726 307.8 
L 606.622986 307.8 
L 607.469617 286.155828 
L 608.316247 296.977914 
L 609.162878 181.026994 
L 610.009508 159.382822 
L 610.856139 122.278528 
L 611.702769 91.358282 
L 612.549399 179.480982 
L 613.39603 116.094479 
L 614.24266 165.566871 
L 615.089291 232.045399 
L 615.935921 128.462577 
L 616.782552 185.665031 
L 617.629182 184.119018 
L 618.475812 194.941104 
L 619.322443 122.278528 
L 620.169073 116.094479 
L 621.015704 150.106748 
L 621.862334 160.928834 
L 622.708964 179.480982 
L 623.555595 167.112883 
L 624.402225 134.646626 
L 625.248856 153.198773 
L 626.095486 157.83681 
L 626.942117 128.462577 
L 627.788747 164.020859 
L 628.635377 304.707975 
L 629.482008 307.8 
L 630.328638 292.339877 
L 631.175269 307.8 
L 633.71516 307.8 
L 634.56179 283.063804 
L 635.408421 307.8 
L 636.255051 293.88589 
L 637.101682 287.70184 
L 637.948312 290.793865 
L 638.794942 287.70184 
L 639.641573 239.77546 
L 640.488203 307.8 
L 641.334834 307.8 
L 642.181464 253.689571 
L 643.028095 307.8 
L 643.874725 307.8 
L 644.721355 303.161963 
L 645.567986 307.8 
L 646.414616 307.8 
L 647.261247 292.339877 
L 648.107877 196.487117 
L 649.801138 105.272393 
L 650.647768 230.499387 
L 651.494399 151.652761 
L 652.341029 159.382822 
L 653.18766 137.73865 
L 654.03429 184.119018 
L 654.88092 136.192638 
L 655.727551 145.468712 
L 656.574181 143.922699 
L 657.420812 208.855215 
L 658.267442 151.652761 
L 659.114073 153.198773 
L 659.960703 215.039264 
L 660.807333 196.487117 
L 661.653964 120.732515 
L 662.500594 126.916564 
L 663.347225 156.290798 
L 664.193855 160.928834 
L 665.040486 114.548466 
L 665.887116 202.671166 
L 666.733746 188.757055 
L 667.580377 256.781595 
L 668.427007 261.419632 
L 669.273638 307.8 
L 670.120268 249.051534 
L 670.966898 304.707975 
L 671.813529 289.247853 
L 672.660159 301.615951 
L 673.50679 307.8 
L 675.200051 232.045399 
L 676.046681 293.88589 
L 676.893311 307.8 
L 677.739942 307.8 
L 678.586572 261.419632 
L 679.433203 307.8 
L 680.279833 306.253988 
L 681.126464 276.879755 
L 681.973094 281.517791 
L 682.819724 295.431902 
L 683.666355 238.229448 
L 684.512985 307.8 
L 686.206246 284.609816 
L 687.052876 160.928834 
L 687.899507 194.941104 
L 688.746137 204.217178 
L 689.592768 131.554601 
L 690.439398 143.922699 
L 691.286029 94.450307 
L 692.132659 182.573006 
L 692.979289 160.928834 
L 693.82592 159.382822 
L 694.67255 116.094479 
L 695.519181 117.640491 
L 696.365811 171.75092 
L 697.212442 190.303067 
L 698.059072 113.002454 
L 698.905702 133.100613 
L 699.752333 228.953374 
L 700.598963 188.757055 
L 701.445594 193.395092 
L 702.292224 77.444172 
L 703.138854 157.83681 
L 703.985485 185.665031 
L 704.832115 139.284663 
L 705.678746 71.260123 
L 706.525376 307.8 
L 707.372007 307.8 
L 708.218637 287.70184 
L 709.065267 307.8 
L 709.911898 255.235583 
L 711.605159 307.8 
L 712.451789 307.8 
L 713.29842 279.971779 
L 714.14505 296.977914 
L 714.99168 266.057669 
L 715.838311 307.8 
L 716.684941 230.499387 
L 717.531572 307.8 
L 718.378202 307.8 
L 719.224832 256.781595 
L 720.071463 307.8 
L 720.918093 300.069939 
L 721.764724 307.8 
L 724.304615 307.8 
L 725.151245 296.977914 
L 725.997876 125.370552 
L 726.844506 150.106748 
L 727.691137 157.83681 
L 728.537767 153.198773 
L 729.384398 153.198773 
L 730.231028 191.84908 
L 731.077658 167.112883 
L 731.924289 108.364417 
L 732.770919 182.573006 
L 733.61755 154.744785 
L 734.46418 120.732515 
L 735.31081 126.916564 
L 736.157441 165.566871 
L 737.004071 120.732515 
L 737.850702 123.82454 
L 738.697332 106.818405 
L 739.543963 165.566871 
L 740.390593 179.480982 
L 741.237223 173.296933 
L 742.083854 137.73865 
L 742.930484 227.407362 
L 743.777115 181.026994 
L 744.623745 179.480982 
L 745.470376 307.8 
L 746.317006 289.247853 
L 747.163636 281.517791 
L 747.163636 281.517791 
" clip-path="url(#p31825f1e0d)" style="fill: none; stroke: #191970; stroke-width: 2; stroke-linecap: square"/>
   </g>
   <g id="patch_3">
    <path d="M 108 320.4 
L 108 43.2 
" style="fill: none; stroke: #000000; stroke-width: 0.8; stroke-linejoin: miter; stroke-linecap: square"/>
   </g>
   <g id="patch_4">
    <path d="M 777.6 320.4 
L 777.6 43.2 
" style="fill: none; stroke: #000000; stroke-width: 0.8; stroke-linejoin: miter; stroke-linecap: square"/>
   </g>
   <g id="patch_5">
    <path d="M 108 320.4 
L 777.6 320.4 
" style="fill: none; stroke: #000000; stroke-width: 0.8; stroke-linejoin: miter; stroke-linecap: square"/>
   </g>
   <g id="patch_6">
    <path d="M 108 43.2 
L 777.6 43.2 
" style="fill: none; stroke: #000000; stroke-width: 0.8; stroke-linejoin: miter; stroke-linecap: square"/>
   </g>
   <g id="text_20">
    <!-- TIME SERIES -->
    <g transform="translate(405.350625 37.2) scale(0.12 -0.12)">
     <defs>
      <path id="DejaVuSans-52" d="M 2841 2188 
Q 3044 2119 3236 1894 
Q 3428 1669 3622 1275 
L 4263 0 
L 3584 0 
L 2988 1197 
Q 2756 1666 2539 1819 
Q 2322 1972 1947 1972 
L 1259 1972 
L 1259 0 
L 628 0 
L 628 4666 
L 2053 4666 
Q 2853 4666 3247 4331 
Q 3641 3997 3641 3322 
Q 3641 2881 3436 2590 
Q 3231 2300 2841 2188 
z
M 1259 4147 
L 1259 2491 
L 2053 2491 
Q 2509 2491 2742 2702 
Q 2975 2913 2975 3322 
Q 2975 3731 2742 3939 
Q 2509 4147 2053 4147 
L 1259 4147 
z
" transform="scale(0.015625)"/>
     </defs>
     <use xlink:href="#DejaVuSans-54"/>
     <use xlink:href="#DejaVuSans-49" x="61.083984"/>
     <use xlink:href="#DejaVuSans-4d" x="90.576172"/>
     <use xlink:href="#DejaVuSans-45" x="176.855469"/>
     <use xlink:href="#DejaVuSans-20" x="240.039062"/>
     <use xlink:href="#DejaVuSans-53" x="271.826172"/>
     <use xlink:href="#DejaVuSans-45" x="335.302734"/>
     <use xlink:href="#DejaVuSans-52" x="398.486328"/>
     <use xlink:href="#DejaVuSans-49" x="467.96875"/>
     <use xlink:href="#DejaVuSans-45" x="497.460938"/>
     <use xlink:href="#DejaVuSans-53" x="560.644531"/>
    </g>
   </g>
  </g>
 </g>
 <defs>
  <clipPath id="p31825f1e0d">
   <rect x="108" y="43.2" width="669.6" height="277.2"/>
  </clipPath>
 </defs>
</svg>
