<?xml version="1.0" encoding="utf-8" standalone="no"?>
<!DOCTYPE svg PUBLIC "-//W3C//DTD SVG 1.1//EN"
  "http://www.w3.org/Graphics/SVG/1.1/DTD/svg11.dtd">
<svg xmlns:xlink="http://www.w3.org/1999/xlink" width="864pt" height="360pt" viewBox="0 0 864 360" xmlns="http://www.w3.org/2000/svg" version="1.1">
 <metadata>
  <rdf:RDF xmlns:dc="http://purl.org/dc/elements/1.1/" xmlns:cc="http://creativecommons.org/ns#" xmlns:rdf="http://www.w3.org/1999/02/22-rdf-syntax-ns#">
   <cc:Work>
    <dc:type rdf:resource="http://purl.org/dc/dcmitype/StillImage"/>
    <dc:date>2023-08-03T16:47:15.200274</dc:date>
    <dc:format>image/svg+xml</dc:format>
    <dc:creator>
     <cc:Agent>
      <dc:title>Matplotlib v3.7.1, https://matplotlib.org/</dc:title>
     </cc:Agent>
    </dc:creator>
   </cc:Work>
  </rdf:RDF>
 </metadata>
 <defs>
  <style type="text/css">*{stroke-linejoin: round; stroke-linecap: butt}</style>
 </defs>
 <g id="figure_1">
  <g id="patch_1">
   <path d="M 0 360 
L 864 360 
L 864 0 
L 0 0 
z
" style="fill: #ffffff"/>
  </g>
  <g id="axes_1">
   <g id="patch_2">
    <path d="M 108 320.4 
L 777.6 320.4 
L 777.6 43.2 
L 108 43.2 
z
" style="fill: #ffffff"/>
   </g>
   <g id="matplotlib.axis_1">
    <g id="xtick_1">
     <g id="line2d_1">
      <defs>
       <path id="m0b21bb2e84" d="M 0 0 
L 0 3.5 
" style="stroke: #000000; stroke-width: 0.8"/>
      </defs>
      <g>
       <use xlink:href="#m0b21bb2e84" x="138.436364" y="320.4" style="stroke: #000000; stroke-width: 0.8"/>
      </g>
     </g>
     <g id="text_1">
      <!-- 2022-01-01 -->
      <g transform="translate(109.378551 334.998438) scale(0.1 -0.1)">
       <defs>
        <path id="DejaVuSans-32" d="M 1228 531 
L 3431 531 
L 3431 0 
L 469 0 
L 469 531 
Q 828 903 1448 1529 
Q 2069 2156 2228 2338 
Q 2531 2678 2651 2914 
Q 2772 3150 2772 3378 
Q 2772 3750 2511 3984 
Q 2250 4219 1831 4219 
Q 1534 4219 1204 4116 
Q 875 4013 500 3803 
L 500 4441 
Q 881 4594 1212 4672 
Q 1544 4750 1819 4750 
Q 2544 4750 2975 4387 
Q 3406 4025 3406 3419 
Q 3406 3131 3298 2873 
Q 3191 2616 2906 2266 
Q 2828 2175 2409 1742 
Q 1991 1309 1228 531 
z
" transform="scale(0.015625)"/>
        <path id="DejaVuSans-30" d="M 2034 4250 
Q 1547 4250 1301 3770 
Q 1056 3291 1056 2328 
Q 1056 1369 1301 889 
Q 1547 409 2034 409 
Q 2525 409 2770 889 
Q 3016 1369 3016 2328 
Q 3016 3291 2770 3770 
Q 2525 4250 2034 4250 
z
M 2034 4750 
Q 2819 4750 3233 4129 
Q 3647 3509 3647 2328 
Q 3647 1150 3233 529 
Q 2819 -91 2034 -91 
Q 1250 -91 836 529 
Q 422 1150 422 2328 
Q 422 3509 836 4129 
Q 1250 4750 2034 4750 
z
" transform="scale(0.015625)"/>
        <path id="DejaVuSans-2d" d="M 313 2009 
L 1997 2009 
L 1997 1497 
L 313 1497 
L 313 2009 
z
" transform="scale(0.015625)"/>
        <path id="DejaVuSans-31" d="M 794 531 
L 1825 531 
L 1825 4091 
L 703 3866 
L 703 4441 
L 1819 4666 
L 2450 4666 
L 2450 531 
L 3481 531 
L 3481 0 
L 794 0 
L 794 531 
z
" transform="scale(0.015625)"/>
       </defs>
       <use xlink:href="#DejaVuSans-32"/>
       <use xlink:href="#DejaVuSans-30" x="63.623047"/>
       <use xlink:href="#DejaVuSans-32" x="127.246094"/>
       <use xlink:href="#DejaVuSans-32" x="190.869141"/>
       <use xlink:href="#DejaVuSans-2d" x="254.492188"/>
       <use xlink:href="#DejaVuSans-30" x="290.576172"/>
       <use xlink:href="#DejaVuSans-31" x="354.199219"/>
       <use xlink:href="#DejaVuSans-2d" x="417.822266"/>
       <use xlink:href="#DejaVuSans-30" x="453.90625"/>
       <use xlink:href="#DejaVuSans-31" x="517.529297"/>
      </g>
     </g>
    </g>
    <g id="xtick_2">
     <g id="line2d_2">
      <g>
       <use xlink:href="#m0b21bb2e84" x="232.237035" y="320.4" style="stroke: #000000; stroke-width: 0.8"/>
      </g>
     </g>
     <g id="text_2">
      <!-- 2022-01-03 -->
      <g transform="translate(203.179222 334.998438) scale(0.1 -0.1)">
       <defs>
        <path id="DejaVuSans-33" d="M 2597 2516 
Q 3050 2419 3304 2112 
Q 3559 1806 3559 1356 
Q 3559 666 3084 287 
Q 2609 -91 1734 -91 
Q 1441 -91 1130 -33 
Q 819 25 488 141 
L 488 750 
Q 750 597 1062 519 
Q 1375 441 1716 441 
Q 2309 441 2620 675 
Q 2931 909 2931 1356 
Q 2931 1769 2642 2001 
Q 2353 2234 1838 2234 
L 1294 2234 
L 1294 2753 
L 1863 2753 
Q 2328 2753 2575 2939 
Q 2822 3125 2822 3475 
Q 2822 3834 2567 4026 
Q 2313 4219 1838 4219 
Q 1578 4219 1281 4162 
Q 984 4106 628 3988 
L 628 4550 
Q 988 4650 1302 4700 
Q 1616 4750 1894 4750 
Q 2613 4750 3031 4423 
Q 3450 4097 3450 3541 
Q 3450 3153 3228 2886 
Q 3006 2619 2597 2516 
z
" transform="scale(0.015625)"/>
       </defs>
       <use xlink:href="#DejaVuSans-32"/>
       <use xlink:href="#DejaVuSans-30" x="63.623047"/>
       <use xlink:href="#DejaVuSans-32" x="127.246094"/>
       <use xlink:href="#DejaVuSans-32" x="190.869141"/>
       <use xlink:href="#DejaVuSans-2d" x="254.492188"/>
       <use xlink:href="#DejaVuSans-30" x="290.576172"/>
       <use xlink:href="#DejaVuSans-31" x="354.199219"/>
       <use xlink:href="#DejaVuSans-2d" x="417.822266"/>
       <use xlink:href="#DejaVuSans-30" x="453.90625"/>
       <use xlink:href="#DejaVuSans-33" x="517.529297"/>
      </g>
     </g>
    </g>
    <g id="xtick_3">
     <g id="line2d_3">
      <g>
       <use xlink:href="#m0b21bb2e84" x="326.037706" y="320.4" style="stroke: #000000; stroke-width: 0.8"/>
      </g>
     </g>
     <g id="text_3">
      <!-- 2022-01-05 -->
      <g transform="translate(296.979894 334.998438) scale(0.1 -0.1)">
       <defs>
        <path id="DejaVuSans-35" d="M 691 4666 
L 3169 4666 
L 3169 4134 
L 1269 4134 
L 1269 2991 
Q 1406 3038 1543 3061 
Q 1681 3084 1819 3084 
Q 2600 3084 3056 2656 
Q 3513 2228 3513 1497 
Q 3513 744 3044 326 
Q 2575 -91 1722 -91 
Q 1428 -91 1123 -41 
Q 819 9 494 109 
L 494 744 
Q 775 591 1075 516 
Q 1375 441 1709 441 
Q 2250 441 2565 725 
Q 2881 1009 2881 1497 
Q 2881 1984 2565 2268 
Q 2250 2553 1709 2553 
Q 1456 2553 1204 2497 
Q 953 2441 691 2322 
L 691 4666 
z
" transform="scale(0.015625)"/>
       </defs>
       <use xlink:href="#DejaVuSans-32"/>
       <use xlink:href="#DejaVuSans-30" x="63.623047"/>
       <use xlink:href="#DejaVuSans-32" x="127.246094"/>
       <use xlink:href="#DejaVuSans-32" x="190.869141"/>
       <use xlink:href="#DejaVuSans-2d" x="254.492188"/>
       <use xlink:href="#DejaVuSans-30" x="290.576172"/>
       <use xlink:href="#DejaVuSans-31" x="354.199219"/>
       <use xlink:href="#DejaVuSans-2d" x="417.822266"/>
       <use xlink:href="#DejaVuSans-30" x="453.90625"/>
       <use xlink:href="#DejaVuSans-35" x="517.529297"/>
      </g>
     </g>
    </g>
    <g id="xtick_4">
     <g id="line2d_4">
      <g>
       <use xlink:href="#m0b21bb2e84" x="419.838377" y="320.4" style="stroke: #000000; stroke-width: 0.8"/>
      </g>
     </g>
     <g id="text_4">
      <!-- 2022-01-07 -->
      <g transform="translate(390.780565 334.998438) scale(0.1 -0.1)">
       <defs>
        <path id="DejaVuSans-37" d="M 525 4666 
L 3525 4666 
L 3525 4397 
L 1831 0 
L 1172 0 
L 2766 4134 
L 525 4134 
L 525 4666 
z
" transform="scale(0.015625)"/>
       </defs>
       <use xlink:href="#DejaVuSans-32"/>
       <use xlink:href="#DejaVuSans-30" x="63.623047"/>
       <use xlink:href="#DejaVuSans-32" x="127.246094"/>
       <use xlink:href="#DejaVuSans-32" x="190.869141"/>
       <use xlink:href="#DejaVuSans-2d" x="254.492188"/>
       <use xlink:href="#DejaVuSans-30" x="290.576172"/>
       <use xlink:href="#DejaVuSans-31" x="354.199219"/>
       <use xlink:href="#DejaVuSans-2d" x="417.822266"/>
       <use xlink:href="#DejaVuSans-30" x="453.90625"/>
       <use xlink:href="#DejaVuSans-37" x="517.529297"/>
      </g>
     </g>
    </g>
    <g id="xtick_5">
     <g id="line2d_5">
      <g>
       <use xlink:href="#m0b21bb2e84" x="513.639049" y="320.4" style="stroke: #000000; stroke-width: 0.8"/>
      </g>
     </g>
     <g id="text_5">
      <!-- 2022-01-09 -->
      <g transform="translate(484.581236 334.998438) scale(0.1 -0.1)">
       <defs>
        <path id="DejaVuSans-39" d="M 703 97 
L 703 672 
Q 941 559 1184 500 
Q 1428 441 1663 441 
Q 2288 441 2617 861 
Q 2947 1281 2994 2138 
Q 2813 1869 2534 1725 
Q 2256 1581 1919 1581 
Q 1219 1581 811 2004 
Q 403 2428 403 3163 
Q 403 3881 828 4315 
Q 1253 4750 1959 4750 
Q 2769 4750 3195 4129 
Q 3622 3509 3622 2328 
Q 3622 1225 3098 567 
Q 2575 -91 1691 -91 
Q 1453 -91 1209 -44 
Q 966 3 703 97 
z
M 1959 2075 
Q 2384 2075 2632 2365 
Q 2881 2656 2881 3163 
Q 2881 3666 2632 3958 
Q 2384 4250 1959 4250 
Q 1534 4250 1286 3958 
Q 1038 3666 1038 3163 
Q 1038 2656 1286 2365 
Q 1534 2075 1959 2075 
z
" transform="scale(0.015625)"/>
       </defs>
       <use xlink:href="#DejaVuSans-32"/>
       <use xlink:href="#DejaVuSans-30" x="63.623047"/>
       <use xlink:href="#DejaVuSans-32" x="127.246094"/>
       <use xlink:href="#DejaVuSans-32" x="190.869141"/>
       <use xlink:href="#DejaVuSans-2d" x="254.492188"/>
       <use xlink:href="#DejaVuSans-30" x="290.576172"/>
       <use xlink:href="#DejaVuSans-31" x="354.199219"/>
       <use xlink:href="#DejaVuSans-2d" x="417.822266"/>
       <use xlink:href="#DejaVuSans-30" x="453.90625"/>
       <use xlink:href="#DejaVuSans-39" x="517.529297"/>
      </g>
     </g>
    </g>
    <g id="xtick_6">
     <g id="line2d_6">
      <g>
       <use xlink:href="#m0b21bb2e84" x="607.43972" y="320.4" style="stroke: #000000; stroke-width: 0.8"/>
      </g>
     </g>
     <g id="text_6">
      <!-- 2022-01-11 -->
      <g transform="translate(578.381907 334.998438) scale(0.1 -0.1)">
       <use xlink:href="#DejaVuSans-32"/>
       <use xlink:href="#DejaVuSans-30" x="63.623047"/>
       <use xlink:href="#DejaVuSans-32" x="127.246094"/>
       <use xlink:href="#DejaVuSans-32" x="190.869141"/>
       <use xlink:href="#DejaVuSans-2d" x="254.492188"/>
       <use xlink:href="#DejaVuSans-30" x="290.576172"/>
       <use xlink:href="#DejaVuSans-31" x="354.199219"/>
       <use xlink:href="#DejaVuSans-2d" x="417.822266"/>
       <use xlink:href="#DejaVuSans-31" x="453.90625"/>
       <use xlink:href="#DejaVuSans-31" x="517.529297"/>
      </g>
     </g>
    </g>
    <g id="xtick_7">
     <g id="line2d_7">
      <g>
       <use xlink:href="#m0b21bb2e84" x="701.240391" y="320.4" style="stroke: #000000; stroke-width: 0.8"/>
      </g>
     </g>
     <g id="text_7">
      <!-- 2022-01-13 -->
      <g transform="translate(672.182579 334.998438) scale(0.1 -0.1)">
       <use xlink:href="#DejaVuSans-32"/>
       <use xlink:href="#DejaVuSans-30" x="63.623047"/>
       <use xlink:href="#DejaVuSans-32" x="127.246094"/>
       <use xlink:href="#DejaVuSans-32" x="190.869141"/>
       <use xlink:href="#DejaVuSans-2d" x="254.492188"/>
       <use xlink:href="#DejaVuSans-30" x="290.576172"/>
       <use xlink:href="#DejaVuSans-31" x="354.199219"/>
       <use xlink:href="#DejaVuSans-2d" x="417.822266"/>
       <use xlink:href="#DejaVuSans-31" x="453.90625"/>
       <use xlink:href="#DejaVuSans-33" x="517.529297"/>
      </g>
     </g>
    </g>
    <g id="text_8">
     <!-- TIME (DAYS) -->
     <g transform="translate(412.283594 348.676562) scale(0.1 -0.1)">
      <defs>
       <path id="DejaVuSans-54" d="M -19 4666 
L 3928 4666 
L 3928 4134 
L 2272 4134 
L 2272 0 
L 1638 0 
L 1638 4134 
L -19 4134 
L -19 4666 
z
" transform="scale(0.015625)"/>
       <path id="DejaVuSans-49" d="M 628 4666 
L 1259 4666 
L 1259 0 
L 628 0 
L 628 4666 
z
" transform="scale(0.015625)"/>
       <path id="DejaVuSans-4d" d="M 628 4666 
L 1569 4666 
L 2759 1491 
L 3956 4666 
L 4897 4666 
L 4897 0 
L 4281 0 
L 4281 4097 
L 3078 897 
L 2444 897 
L 1241 4097 
L 1241 0 
L 628 0 
L 628 4666 
z
" transform="scale(0.015625)"/>
       <path id="DejaVuSans-45" d="M 628 4666 
L 3578 4666 
L 3578 4134 
L 1259 4134 
L 1259 2753 
L 3481 2753 
L 3481 2222 
L 1259 2222 
L 1259 531 
L 3634 531 
L 3634 0 
L 628 0 
L 628 4666 
z
" transform="scale(0.015625)"/>
       <path id="DejaVuSans-20" transform="scale(0.015625)"/>
       <path id="DejaVuSans-28" d="M 1984 4856 
Q 1566 4138 1362 3434 
Q 1159 2731 1159 2009 
Q 1159 1288 1364 580 
Q 1569 -128 1984 -844 
L 1484 -844 
Q 1016 -109 783 600 
Q 550 1309 550 2009 
Q 550 2706 781 3412 
Q 1013 4119 1484 4856 
L 1984 4856 
z
" transform="scale(0.015625)"/>
       <path id="DejaVuSans-44" d="M 1259 4147 
L 1259 519 
L 2022 519 
Q 2988 519 3436 956 
Q 3884 1394 3884 2338 
Q 3884 3275 3436 3711 
Q 2988 4147 2022 4147 
L 1259 4147 
z
M 628 4666 
L 1925 4666 
Q 3281 4666 3915 4102 
Q 4550 3538 4550 2338 
Q 4550 1131 3912 565 
Q 3275 0 1925 0 
L 628 0 
L 628 4666 
z
" transform="scale(0.015625)"/>
       <path id="DejaVuSans-41" d="M 2188 4044 
L 1331 1722 
L 3047 1722 
L 2188 4044 
z
M 1831 4666 
L 2547 4666 
L 4325 0 
L 3669 0 
L 3244 1197 
L 1141 1197 
L 716 0 
L 50 0 
L 1831 4666 
z
" transform="scale(0.015625)"/>
       <path id="DejaVuSans-59" d="M -13 4666 
L 666 4666 
L 1959 2747 
L 3244 4666 
L 3922 4666 
L 2272 2222 
L 2272 0 
L 1638 0 
L 1638 2222 
L -13 4666 
z
" transform="scale(0.015625)"/>
       <path id="DejaVuSans-53" d="M 3425 4513 
L 3425 3897 
Q 3066 4069 2747 4153 
Q 2428 4238 2131 4238 
Q 1616 4238 1336 4038 
Q 1056 3838 1056 3469 
Q 1056 3159 1242 3001 
Q 1428 2844 1947 2747 
L 2328 2669 
Q 3034 2534 3370 2195 
Q 3706 1856 3706 1288 
Q 3706 609 3251 259 
Q 2797 -91 1919 -91 
Q 1588 -91 1214 -16 
Q 841 59 441 206 
L 441 856 
Q 825 641 1194 531 
Q 1563 422 1919 422 
Q 2459 422 2753 634 
Q 3047 847 3047 1241 
Q 3047 1584 2836 1778 
Q 2625 1972 2144 2069 
L 1759 2144 
Q 1053 2284 737 2584 
Q 422 2884 422 3419 
Q 422 4038 858 4394 
Q 1294 4750 2059 4750 
Q 2388 4750 2728 4690 
Q 3069 4631 3425 4513 
z
" transform="scale(0.015625)"/>
       <path id="DejaVuSans-29" d="M 513 4856 
L 1013 4856 
Q 1481 4119 1714 3412 
Q 1947 2706 1947 2009 
Q 1947 1309 1714 600 
Q 1481 -109 1013 -844 
L 513 -844 
Q 928 -128 1133 580 
Q 1338 1288 1338 2009 
Q 1338 2731 1133 3434 
Q 928 4138 513 4856 
z
" transform="scale(0.015625)"/>
      </defs>
      <use xlink:href="#DejaVuSans-54"/>
      <use xlink:href="#DejaVuSans-49" x="61.083984"/>
      <use xlink:href="#DejaVuSans-4d" x="90.576172"/>
      <use xlink:href="#DejaVuSans-45" x="176.855469"/>
      <use xlink:href="#DejaVuSans-20" x="240.039062"/>
      <use xlink:href="#DejaVuSans-28" x="271.826172"/>
      <use xlink:href="#DejaVuSans-44" x="310.839844"/>
      <use xlink:href="#DejaVuSans-41" x="386.091797"/>
      <use xlink:href="#DejaVuSans-59" x="446.75"/>
      <use xlink:href="#DejaVuSans-53" x="507.833984"/>
      <use xlink:href="#DejaVuSans-29" x="571.310547"/>
     </g>
    </g>
   </g>
   <g id="matplotlib.axis_2">
    <g id="ytick_1">
     <g id="line2d_8">
      <defs>
       <path id="mcda885c976" d="M 0 0 
L -3.5 0 
" style="stroke: #000000; stroke-width: 0.8"/>
      </defs>
      <g>
       <use xlink:href="#mcda885c976" x="108" y="307.8" style="stroke: #000000; stroke-width: 0.8"/>
      </g>
     </g>
     <g id="text_9">
      <!-- 0 -->
      <g transform="translate(94.6375 311.599219) scale(0.1 -0.1)">
       <use xlink:href="#DejaVuSans-30"/>
      </g>
     </g>
    </g>
    <g id="ytick_2">
     <g id="line2d_9">
      <g>
       <use xlink:href="#mcda885c976" x="108" y="276.495652" style="stroke: #000000; stroke-width: 0.8"/>
      </g>
     </g>
     <g id="text_10">
      <!-- 20 -->
      <g transform="translate(88.275 280.294871) scale(0.1 -0.1)">
       <use xlink:href="#DejaVuSans-32"/>
       <use xlink:href="#DejaVuSans-30" x="63.623047"/>
      </g>
     </g>
    </g>
    <g id="ytick_3">
     <g id="line2d_10">
      <g>
       <use xlink:href="#mcda885c976" x="108" y="245.191304" style="stroke: #000000; stroke-width: 0.8"/>
      </g>
     </g>
     <g id="text_11">
      <!-- 40 -->
      <g transform="translate(88.275 248.990523) scale(0.1 -0.1)">
       <defs>
        <path id="DejaVuSans-34" d="M 2419 4116 
L 825 1625 
L 2419 1625 
L 2419 4116 
z
M 2253 4666 
L 3047 4666 
L 3047 1625 
L 3713 1625 
L 3713 1100 
L 3047 1100 
L 3047 0 
L 2419 0 
L 2419 1100 
L 313 1100 
L 313 1709 
L 2253 4666 
z
" transform="scale(0.015625)"/>
       </defs>
       <use xlink:href="#DejaVuSans-34"/>
       <use xlink:href="#DejaVuSans-30" x="63.623047"/>
      </g>
     </g>
    </g>
    <g id="ytick_4">
     <g id="line2d_11">
      <g>
       <use xlink:href="#mcda885c976" x="108" y="213.886957" style="stroke: #000000; stroke-width: 0.8"/>
      </g>
     </g>
     <g id="text_12">
      <!-- 60 -->
      <g transform="translate(88.275 217.686175) scale(0.1 -0.1)">
       <defs>
        <path id="DejaVuSans-36" d="M 2113 2584 
Q 1688 2584 1439 2293 
Q 1191 2003 1191 1497 
Q 1191 994 1439 701 
Q 1688 409 2113 409 
Q 2538 409 2786 701 
Q 3034 994 3034 1497 
Q 3034 2003 2786 2293 
Q 2538 2584 2113 2584 
z
M 3366 4563 
L 3366 3988 
Q 3128 4100 2886 4159 
Q 2644 4219 2406 4219 
Q 1781 4219 1451 3797 
Q 1122 3375 1075 2522 
Q 1259 2794 1537 2939 
Q 1816 3084 2150 3084 
Q 2853 3084 3261 2657 
Q 3669 2231 3669 1497 
Q 3669 778 3244 343 
Q 2819 -91 2113 -91 
Q 1303 -91 875 529 
Q 447 1150 447 2328 
Q 447 3434 972 4092 
Q 1497 4750 2381 4750 
Q 2619 4750 2861 4703 
Q 3103 4656 3366 4563 
z
" transform="scale(0.015625)"/>
       </defs>
       <use xlink:href="#DejaVuSans-36"/>
       <use xlink:href="#DejaVuSans-30" x="63.623047"/>
      </g>
     </g>
    </g>
    <g id="ytick_5">
     <g id="line2d_12">
      <g>
       <use xlink:href="#mcda885c976" x="108" y="182.582609" style="stroke: #000000; stroke-width: 0.8"/>
      </g>
     </g>
     <g id="text_13">
      <!-- 80 -->
      <g transform="translate(88.275 186.381827) scale(0.1 -0.1)">
       <defs>
        <path id="DejaVuSans-38" d="M 2034 2216 
Q 1584 2216 1326 1975 
Q 1069 1734 1069 1313 
Q 1069 891 1326 650 
Q 1584 409 2034 409 
Q 2484 409 2743 651 
Q 3003 894 3003 1313 
Q 3003 1734 2745 1975 
Q 2488 2216 2034 2216 
z
M 1403 2484 
Q 997 2584 770 2862 
Q 544 3141 544 3541 
Q 544 4100 942 4425 
Q 1341 4750 2034 4750 
Q 2731 4750 3128 4425 
Q 3525 4100 3525 3541 
Q 3525 3141 3298 2862 
Q 3072 2584 2669 2484 
Q 3125 2378 3379 2068 
Q 3634 1759 3634 1313 
Q 3634 634 3220 271 
Q 2806 -91 2034 -91 
Q 1263 -91 848 271 
Q 434 634 434 1313 
Q 434 1759 690 2068 
Q 947 2378 1403 2484 
z
M 1172 3481 
Q 1172 3119 1398 2916 
Q 1625 2713 2034 2713 
Q 2441 2713 2670 2916 
Q 2900 3119 2900 3481 
Q 2900 3844 2670 4047 
Q 2441 4250 2034 4250 
Q 1625 4250 1398 4047 
Q 1172 3844 1172 3481 
z
" transform="scale(0.015625)"/>
       </defs>
       <use xlink:href="#DejaVuSans-38"/>
       <use xlink:href="#DejaVuSans-30" x="63.623047"/>
      </g>
     </g>
    </g>
    <g id="ytick_6">
     <g id="line2d_13">
      <g>
       <use xlink:href="#mcda885c976" x="108" y="151.278261" style="stroke: #000000; stroke-width: 0.8"/>
      </g>
     </g>
     <g id="text_14">
      <!-- 100 -->
      <g transform="translate(81.9125 155.07748) scale(0.1 -0.1)">
       <use xlink:href="#DejaVuSans-31"/>
       <use xlink:href="#DejaVuSans-30" x="63.623047"/>
       <use xlink:href="#DejaVuSans-30" x="127.246094"/>
      </g>
     </g>
    </g>
    <g id="ytick_7">
     <g id="line2d_14">
      <g>
       <use xlink:href="#mcda885c976" x="108" y="119.973913" style="stroke: #000000; stroke-width: 0.8"/>
      </g>
     </g>
     <g id="text_15">
      <!-- 120 -->
      <g transform="translate(81.9125 123.773132) scale(0.1 -0.1)">
       <use xlink:href="#DejaVuSans-31"/>
       <use xlink:href="#DejaVuSans-32" x="63.623047"/>
       <use xlink:href="#DejaVuSans-30" x="127.246094"/>
      </g>
     </g>
    </g>
    <g id="ytick_8">
     <g id="line2d_15">
      <g>
       <use xlink:href="#mcda885c976" x="108" y="88.669565" style="stroke: #000000; stroke-width: 0.8"/>
      </g>
     </g>
     <g id="text_16">
      <!-- 140 -->
      <g transform="translate(81.9125 92.468784) scale(0.1 -0.1)">
       <use xlink:href="#DejaVuSans-31"/>
       <use xlink:href="#DejaVuSans-34" x="63.623047"/>
       <use xlink:href="#DejaVuSans-30" x="127.246094"/>
      </g>
     </g>
    </g>
    <g id="ytick_9">
     <g id="line2d_16">
      <g>
       <use xlink:href="#mcda885c976" x="108" y="57.365217" style="stroke: #000000; stroke-width: 0.8"/>
      </g>
     </g>
     <g id="text_17">
      <!-- 160 -->
      <g transform="translate(81.9125 61.164436) scale(0.1 -0.1)">
       <use xlink:href="#DejaVuSans-31"/>
       <use xlink:href="#DejaVuSans-36" x="63.623047"/>
       <use xlink:href="#DejaVuSans-30" x="127.246094"/>
      </g>
     </g>
    </g>
    <g id="text_18">
     <!-- AMPLITUDE -->
     <g transform="translate(75.832812 210.532812) rotate(-90) scale(0.1 -0.1)">
      <defs>
       <path id="DejaVuSans-50" d="M 1259 4147 
L 1259 2394 
L 2053 2394 
Q 2494 2394 2734 2622 
Q 2975 2850 2975 3272 
Q 2975 3691 2734 3919 
Q 2494 4147 2053 4147 
L 1259 4147 
z
M 628 4666 
L 2053 4666 
Q 2838 4666 3239 4311 
Q 3641 3956 3641 3272 
Q 3641 2581 3239 2228 
Q 2838 1875 2053 1875 
L 1259 1875 
L 1259 0 
L 628 0 
L 628 4666 
z
" transform="scale(0.015625)"/>
       <path id="DejaVuSans-4c" d="M 628 4666 
L 1259 4666 
L 1259 531 
L 3531 531 
L 3531 0 
L 628 0 
L 628 4666 
z
" transform="scale(0.015625)"/>
       <path id="DejaVuSans-55" d="M 556 4666 
L 1191 4666 
L 1191 1831 
Q 1191 1081 1462 751 
Q 1734 422 2344 422 
Q 2950 422 3222 751 
Q 3494 1081 3494 1831 
L 3494 4666 
L 4128 4666 
L 4128 1753 
Q 4128 841 3676 375 
Q 3225 -91 2344 -91 
Q 1459 -91 1007 375 
Q 556 841 556 1753 
L 556 4666 
z
" transform="scale(0.015625)"/>
      </defs>
      <use xlink:href="#DejaVuSans-41"/>
      <use xlink:href="#DejaVuSans-4d" x="68.408203"/>
      <use xlink:href="#DejaVuSans-50" x="154.6875"/>
      <use xlink:href="#DejaVuSans-4c" x="214.990234"/>
      <use xlink:href="#DejaVuSans-49" x="270.703125"/>
      <use xlink:href="#DejaVuSans-54" x="300.195312"/>
      <use xlink:href="#DejaVuSans-55" x="361.279297"/>
      <use xlink:href="#DejaVuSans-44" x="434.472656"/>
      <use xlink:href="#DejaVuSans-45" x="511.474609"/>
     </g>
    </g>
   </g>
   <g id="line2d_17">
    <path d="M 138.436364 151.278261 
L 139.413454 307.8 
L 143.321815 307.8 
L 144.298906 285.886957 
L 145.275996 307.8 
L 146.253086 273.365217 
L 147.230177 298.408696 
L 148.207267 295.278261 
L 149.184357 298.408696 
L 150.161448 304.669565 
L 151.138538 265.53913 
L 152.115628 290.582609 
L 153.092719 307.8 
L 154.069809 306.234783 
L 155.046899 307.8 
L 157.00108 307.8 
L 157.97817 303.104348 
L 159.932351 284.321739 
L 160.909441 292.147826 
L 161.886531 174.756522 
L 162.863622 177.886957 
L 163.840712 227.973913 
L 164.817802 155.973913 
L 165.794893 179.452174 
L 166.771983 116.843478 
L 167.749073 193.53913 
L 168.726164 170.06087 
L 169.703254 191.973913 
L 170.680344 102.756522 
L 171.657435 207.626087 
L 172.634525 176.321739 
L 173.611615 127.8 
L 174.588706 166.930435 
L 175.565796 134.06087 
L 176.542886 118.408696 
L 177.519977 217.017391 
L 178.497067 177.886957 
L 179.474157 182.582609 
L 180.451248 102.756522 
L 181.428338 129.365217 
L 182.405428 160.669565 
L 183.382519 181.017391 
L 184.359609 162.234783 
L 186.31379 307.8 
L 187.29088 303.104348 
L 188.26797 263.973913 
L 189.245061 307.8 
L 190.222151 276.495652 
L 191.199241 296.843478 
L 192.176332 307.8 
L 193.153422 299.973913 
L 194.130512 307.8 
L 195.107603 307.8 
L 196.084693 301.53913 
L 197.061783 263.973913 
L 198.038873 298.408696 
L 199.015964 307.8 
L 199.993054 282.756522 
L 200.970144 282.756522 
L 201.947235 229.53913 
L 202.924325 307.8 
L 204.878506 307.8 
L 205.855596 253.017391 
L 206.832686 307.8 
L 207.809777 307.8 
L 208.786867 135.626087 
L 209.763957 112.147826 
L 210.741048 160.669565 
L 211.718138 181.017391 
L 212.695228 146.582609 
L 213.672319 171.626087 
L 214.649409 55.8 
L 215.626499 171.626087 
L 216.60359 104.321739 
L 217.58068 154.408696 
L 218.55777 170.06087 
L 219.534861 256.147826 
L 220.511951 174.756522 
L 221.489041 168.495652 
L 222.466132 157.53913 
L 223.443222 143.452174 
L 224.420312 140.321739 
L 225.397403 160.669565 
L 226.374493 226.408696 
L 227.351583 132.495652 
L 228.328674 201.365217 
L 229.305764 99.626087 
L 230.282854 159.104348 
L 231.259945 74.582609 
L 232.237035 307.8 
L 234.191216 307.8 
L 235.168306 273.365217 
L 236.145396 307.8 
L 237.122487 285.886957 
L 238.099577 307.8 
L 239.076667 293.713043 
L 240.053757 306.234783 
L 241.030848 263.973913 
L 242.007938 251.452174 
L 242.985028 295.278261 
L 243.962119 307.8 
L 244.939209 262.408696 
L 245.916299 281.191304 
L 246.89339 307.8 
L 247.87048 271.8 
L 248.84757 256.147826 
L 249.824661 307.8 
L 250.801751 307.8 
L 251.778841 267.104348 
L 252.755932 257.713043 
L 253.733022 307.8 
L 254.710112 301.53913 
L 255.687203 121.53913 
L 256.664293 204.495652 
L 257.641383 137.191304 
L 258.618474 137.191304 
L 260.572654 155.973913 
L 261.549745 145.017391 
L 262.526835 124.669565 
L 263.503925 157.53913 
L 264.481016 149.713043 
L 265.458106 98.06087 
L 266.435196 99.626087 
L 267.412287 148.147826 
L 268.389377 170.06087 
L 270.343558 173.191304 
L 271.320648 137.191304 
L 272.297738 107.452174 
L 273.274829 90.234783 
L 274.251919 165.365217 
L 275.229009 165.365217 
L 276.2061 193.53913 
L 277.18319 196.669565 
L 278.16028 154.408696 
L 279.13737 307.8 
L 280.114461 278.06087 
L 281.091551 278.06087 
L 282.068641 289.017391 
L 283.045732 296.843478 
L 284.022822 307.8 
L 284.999912 282.756522 
L 285.977003 289.017391 
L 286.954093 307.8 
L 287.931183 273.365217 
L 288.908274 307.8 
L 290.862454 307.8 
L 291.839545 284.321739 
L 292.816635 307.8 
L 293.793725 307.8 
L 295.747906 262.408696 
L 296.724996 231.104348 
L 297.702087 307.8 
L 298.679177 265.53913 
L 300.633358 307.8 
L 301.610448 307.8 
L 302.587538 179.452174 
L 303.564629 126.234783 
L 304.541719 90.234783 
L 305.518809 179.452174 
L 306.4959 177.886957 
L 307.47299 173.191304 
L 308.45008 155.973913 
L 309.427171 154.408696 
L 310.404261 143.452174 
L 311.381351 176.321739 
L 312.358442 126.234783 
L 313.335532 173.191304 
L 314.312622 155.973913 
L 315.289713 212.321739 
L 316.266803 206.06087 
L 317.243893 165.365217 
L 318.220984 140.321739 
L 319.198074 126.234783 
L 320.175164 213.886957 
L 321.152254 202.930435 
L 322.129345 151.278261 
L 323.106435 193.53913 
L 325.060616 119.973913 
L 326.037706 287.452174 
L 327.014796 307.8 
L 327.991887 293.713043 
L 328.968977 307.8 
L 329.946067 287.452174 
L 330.923158 307.8 
L 332.877338 307.8 
L 333.854429 279.626087 
L 334.831519 307.8 
L 335.808609 224.843478 
L 336.7857 307.8 
L 337.76279 307.8 
L 338.73988 303.104348 
L 339.716971 307.8 
L 340.694061 267.104348 
L 341.671151 307.8 
L 342.648242 307.8 
L 343.625332 282.756522 
L 344.602422 299.973913 
L 345.579513 307.8 
L 346.556603 307.8 
L 347.533693 296.843478 
L 348.510784 220.147826 
L 349.487874 127.8 
L 350.464964 195.104348 
L 351.442055 148.147826 
L 352.419145 116.843478 
L 353.396235 134.06087 
L 354.373326 179.452174 
L 355.350416 145.017391 
L 356.327506 174.756522 
L 357.304597 94.930435 
L 358.281687 145.017391 
L 359.258777 159.104348 
L 360.235868 115.278261 
L 361.212958 130.930435 
L 362.190048 181.017391 
L 363.167138 109.017391 
L 364.144229 168.495652 
L 365.121319 130.930435 
L 366.098409 130.930435 
L 367.0755 154.408696 
L 368.05259 154.408696 
L 369.02968 170.06087 
L 370.006771 126.234783 
L 370.983861 137.191304 
L 371.960951 307.8 
L 372.938042 307.8 
L 373.915132 270.234783 
L 374.892222 307.8 
L 375.869313 299.973913 
L 376.846403 307.8 
L 379.777674 307.8 
L 380.754764 304.669565 
L 381.731855 307.8 
L 382.708945 287.452174 
L 383.686035 270.234783 
L 384.663126 307.8 
L 385.640216 307.8 
L 386.617306 303.104348 
L 387.594397 296.843478 
L 388.571487 304.669565 
L 389.548577 307.8 
L 390.525668 260.843478 
L 391.502758 307.8 
L 392.479848 307.8 
L 394.434029 292.147826 
L 395.411119 159.104348 
L 396.38821 152.843478 
L 397.3653 132.495652 
L 398.34239 185.713043 
L 399.319481 157.53913 
L 400.296571 145.017391 
L 401.273661 146.582609 
L 402.250751 157.53913 
L 403.227842 135.626087 
L 404.204932 119.973913 
L 405.182022 143.452174 
L 406.159113 179.452174 
L 407.136203 138.756522 
L 408.113293 129.365217 
L 409.090384 170.06087 
L 410.067474 148.147826 
L 411.044564 171.626087 
L 412.021655 141.886957 
L 412.998745 101.191304 
L 414.952926 213.886957 
L 415.930016 151.278261 
L 416.907106 155.973913 
L 417.884197 90.234783 
L 418.861287 307.8 
L 421.792558 307.8 
L 422.769648 298.408696 
L 423.746739 307.8 
L 424.723829 307.8 
L 425.700919 290.582609 
L 426.67801 307.8 
L 427.6551 298.408696 
L 428.63219 307.8 
L 430.586371 307.8 
L 431.563461 303.104348 
L 432.540552 307.8 
L 433.517642 307.8 
L 434.494732 301.53913 
L 435.471823 268.669565 
L 436.448913 307.8 
L 437.426003 278.06087 
L 438.403094 298.408696 
L 439.380184 307.8 
L 441.334365 307.8 
L 442.311455 145.017391 
L 443.288545 248.321739 
L 444.265635 184.147826 
L 445.242726 129.365217 
L 446.219816 148.147826 
L 447.196906 181.017391 
L 448.173997 105.886957 
L 449.151087 155.973913 
L 450.128177 179.452174 
L 451.105268 176.321739 
L 452.082358 170.06087 
L 453.059448 174.756522 
L 454.036539 109.017391 
L 455.990719 210.756522 
L 456.96781 123.104348 
L 457.9449 165.365217 
L 458.92199 126.234783 
L 459.899081 138.756522 
L 460.876171 123.104348 
L 461.853261 165.365217 
L 462.830352 154.408696 
L 463.807442 94.930435 
L 464.784532 141.886957 
L 465.761623 278.06087 
L 466.738713 284.321739 
L 467.715803 248.321739 
L 468.692894 307.8 
L 469.669984 307.8 
L 470.647074 279.626087 
L 471.624165 307.8 
L 473.578345 307.8 
L 474.555436 267.104348 
L 475.532526 307.8 
L 476.509616 287.452174 
L 477.486707 307.8 
L 479.440887 307.8 
L 480.417978 260.843478 
L 481.395068 273.365217 
L 482.372158 226.408696 
L 483.349249 290.582609 
L 484.326339 307.8 
L 485.303429 251.452174 
L 486.280519 307.8 
L 487.25761 307.8 
L 489.21179 196.669565 
L 490.188881 184.147826 
L 491.165971 193.53913 
L 492.143061 163.8 
L 493.120152 163.8 
L 494.097242 148.147826 
L 495.074332 157.53913 
L 496.051423 165.365217 
L 497.028513 83.973913 
L 498.005603 199.8 
L 498.982694 107.452174 
L 499.959784 149.713043 
L 500.936874 98.06087 
L 501.913965 168.495652 
L 502.891055 126.234783 
L 503.868145 141.886957 
L 504.845236 113.713043 
L 505.822326 105.886957 
L 506.799416 127.8 
L 507.776507 107.452174 
L 508.753597 157.53913 
L 509.730687 188.843478 
L 510.707778 140.321739 
L 511.684868 134.06087 
L 512.661958 307.8 
L 513.639049 307.8 
L 514.616139 301.53913 
L 515.593229 293.713043 
L 516.57032 307.8 
L 517.54741 304.669565 
L 518.5245 260.843478 
L 519.501591 307.8 
L 523.409952 307.8 
L 524.387042 284.321739 
L 525.364132 307.8 
L 526.341223 271.8 
L 527.318313 257.713043 
L 528.295403 290.582609 
L 529.272494 270.234783 
L 530.249584 307.8 
L 531.226674 307.8 
L 532.203765 290.582609 
L 533.180855 307.8 
L 534.157945 263.973913 
L 535.135036 260.843478 
L 536.112126 307.8 
L 537.089216 160.669565 
L 538.066307 181.017391 
L 539.043397 190.408696 
L 540.020487 166.930435 
L 540.997578 87.104348 
L 541.974668 140.321739 
L 542.951758 143.452174 
L 543.928849 87.104348 
L 544.905939 151.278261 
L 545.883029 177.886957 
L 546.86012 162.234783 
L 547.83721 157.53913 
L 548.8143 127.8 
L 549.791391 141.886957 
L 550.768481 179.452174 
L 551.745571 99.626087 
L 552.722662 119.973913 
L 553.699752 165.365217 
L 554.676842 127.8 
L 555.653933 177.886957 
L 556.631023 130.930435 
L 557.608113 157.53913 
L 558.585204 118.408696 
L 559.562294 307.8 
L 562.493565 307.8 
L 563.470655 257.713043 
L 564.447746 307.8 
L 567.379016 307.8 
L 568.356107 295.278261 
L 569.333197 307.8 
L 570.310287 307.8 
L 571.287378 304.669565 
L 572.264468 307.8 
L 573.241558 279.626087 
L 574.218649 307.8 
L 575.195739 307.8 
L 576.172829 227.973913 
L 577.14992 307.8 
L 579.1041 307.8 
L 580.081191 195.104348 
L 581.058281 262.408696 
L 582.035371 289.017391 
L 583.012462 191.973913 
L 583.989552 174.756522 
L 584.966642 68.321739 
L 585.943733 182.582609 
L 586.920823 162.234783 
L 588.875004 110.582609 
L 589.852094 215.452174 
L 590.829184 165.365217 
L 591.806275 159.104348 
L 592.783365 112.147826 
L 593.760455 99.626087 
L 594.737546 181.017391 
L 595.714636 134.06087 
L 596.691726 149.713043 
L 597.668817 140.321739 
L 598.645907 170.06087 
L 599.622997 138.756522 
L 600.600088 101.191304 
L 601.577178 118.408696 
L 603.531359 209.191304 
L 605.485539 115.278261 
L 606.46263 307.8 
L 607.43972 270.234783 
L 608.41681 293.713043 
L 609.3939 307.8 
L 610.370991 296.843478 
L 611.348081 234.234783 
L 612.325171 306.234783 
L 613.302262 274.930435 
L 614.279352 307.8 
L 615.256442 289.017391 
L 616.233533 292.147826 
L 617.210623 307.8 
L 619.164804 307.8 
L 620.141894 267.104348 
L 621.118984 307.8 
L 622.096075 282.756522 
L 623.073165 293.713043 
L 624.050255 292.147826 
L 625.027346 287.452174 
L 626.004436 307.8 
L 626.981526 284.321739 
L 627.958617 256.147826 
L 628.935707 248.321739 
L 629.912797 132.495652 
L 630.889888 179.452174 
L 631.866978 191.973913 
L 632.844068 173.191304 
L 633.821159 68.321739 
L 634.798249 154.408696 
L 635.775339 124.669565 
L 636.75243 191.973913 
L 637.72952 179.452174 
L 638.70661 151.278261 
L 639.683701 107.452174 
L 640.660791 135.626087 
L 641.637881 187.278261 
L 642.614972 176.321739 
L 643.592062 145.017391 
L 644.569152 126.234783 
L 645.546243 184.147826 
L 646.523333 91.8 
L 647.500423 179.452174 
L 648.477513 148.147826 
L 649.454604 96.495652 
L 650.431694 160.669565 
L 651.408784 163.8 
L 652.385875 173.191304 
L 653.362965 276.495652 
L 654.340055 307.8 
L 655.317146 257.713043 
L 656.294236 307.8 
L 657.271326 307.8 
L 658.248417 282.756522 
L 659.225507 307.8 
L 661.179688 307.8 
L 662.156778 293.713043 
L 663.133868 265.53913 
L 664.110959 307.8 
L 667.04223 307.8 
L 668.01932 274.930435 
L 669.973501 307.8 
L 672.904772 307.8 
L 673.881862 229.53913 
L 674.858952 265.53913 
L 675.836043 85.53913 
L 676.813133 190.408696 
L 677.790223 107.452174 
L 678.767314 135.626087 
L 679.744404 179.452174 
L 680.721494 163.8 
L 681.698585 145.017391 
L 682.675675 195.104348 
L 683.652765 157.53913 
L 684.629856 110.582609 
L 685.606946 212.321739 
L 686.584036 152.843478 
L 688.538217 134.06087 
L 689.515307 217.017391 
L 690.492397 113.713043 
L 691.469488 140.321739 
L 692.446578 138.756522 
L 693.423668 149.713043 
L 694.400759 148.147826 
L 695.377849 104.321739 
L 696.354939 112.147826 
L 697.33203 181.017391 
L 698.30912 159.104348 
L 699.28621 292.147826 
L 700.263301 296.843478 
L 701.240391 307.8 
L 704.171662 307.8 
L 705.148752 267.104348 
L 706.125843 307.8 
L 707.102933 307.8 
L 708.080023 256.147826 
L 709.057114 256.147826 
L 710.034204 276.495652 
L 711.011294 257.713043 
L 711.988385 307.8 
L 712.965475 270.234783 
L 713.942565 257.713043 
L 714.919656 307.8 
L 716.873836 307.8 
L 717.850927 306.234783 
L 718.828017 307.8 
L 719.805107 274.930435 
L 721.759288 307.8 
L 722.736378 91.8 
L 723.713469 177.886957 
L 724.690559 179.452174 
L 725.667649 177.886957 
L 726.64474 143.452174 
L 727.62183 176.321739 
L 728.59892 132.495652 
L 729.576011 104.321739 
L 730.553101 121.53913 
L 731.530191 116.843478 
L 732.507281 198.234783 
L 733.484372 148.147826 
L 734.461462 110.582609 
L 735.438552 191.973913 
L 736.415643 118.408696 
L 737.392733 148.147826 
L 738.369823 149.713043 
L 739.346914 126.234783 
L 740.324004 242.06087 
L 741.301094 141.886957 
L 742.278185 105.886957 
L 743.255275 196.669565 
L 744.232365 163.8 
L 745.209456 195.104348 
L 746.186546 307.8 
L 747.163636 307.8 
L 747.163636 307.8 
" clip-path="url(#p84c6c399dd)" style="fill: none; stroke: #191970; stroke-width: 2; stroke-linecap: square"/>
   </g>
   <g id="patch_3">
    <path d="M 108 320.4 
L 108 43.2 
" style="fill: none; stroke: #000000; stroke-width: 0.8; stroke-linejoin: miter; stroke-linecap: square"/>
   </g>
   <g id="patch_4">
    <path d="M 777.6 320.4 
L 777.6 43.2 
" style="fill: none; stroke: #000000; stroke-width: 0.8; stroke-linejoin: miter; stroke-linecap: square"/>
   </g>
   <g id="patch_5">
    <path d="M 108 320.4 
L 777.6 320.4 
" style="fill: none; stroke: #000000; stroke-width: 0.8; stroke-linejoin: miter; stroke-linecap: square"/>
   </g>
   <g id="patch_6">
    <path d="M 108 43.2 
L 777.6 43.2 
" style="fill: none; stroke: #000000; stroke-width: 0.8; stroke-linejoin: miter; stroke-linecap: square"/>
   </g>
   <g id="text_19">
    <!-- TIME SERIES -->
    <g transform="translate(405.350625 37.2) scale(0.12 -0.12)">
     <defs>
      <path id="DejaVuSans-52" d="M 2841 2188 
Q 3044 2119 3236 1894 
Q 3428 1669 3622 1275 
L 4263 0 
L 3584 0 
L 2988 1197 
Q 2756 1666 2539 1819 
Q 2322 1972 1947 1972 
L 1259 1972 
L 1259 0 
L 628 0 
L 628 4666 
L 2053 4666 
Q 2853 4666 3247 4331 
Q 3641 3997 3641 3322 
Q 3641 2881 3436 2590 
Q 3231 2300 2841 2188 
z
M 1259 4147 
L 1259 2491 
L 2053 2491 
Q 2509 2491 2742 2702 
Q 2975 2913 2975 3322 
Q 2975 3731 2742 3939 
Q 2509 4147 2053 4147 
L 1259 4147 
z
" transform="scale(0.015625)"/>
     </defs>
     <use xlink:href="#DejaVuSans-54"/>
     <use xlink:href="#DejaVuSans-49" x="61.083984"/>
     <use xlink:href="#DejaVuSans-4d" x="90.576172"/>
     <use xlink:href="#DejaVuSans-45" x="176.855469"/>
     <use xlink:href="#DejaVuSans-20" x="240.039062"/>
     <use xlink:href="#DejaVuSans-53" x="271.826172"/>
     <use xlink:href="#DejaVuSans-45" x="335.302734"/>
     <use xlink:href="#DejaVuSans-52" x="398.486328"/>
     <use xlink:href="#DejaVuSans-49" x="467.96875"/>
     <use xlink:href="#DejaVuSans-45" x="497.460938"/>
     <use xlink:href="#DejaVuSans-53" x="560.644531"/>
    </g>
   </g>
  </g>
 </g>
 <defs>
  <clipPath id="p84c6c399dd">
   <rect x="108" y="43.2" width="669.6" height="277.2"/>
  </clipPath>
 </defs>
</svg>
