<?xml version="1.0" encoding="utf-8" standalone="no"?>
<!DOCTYPE svg PUBLIC "-//W3C//DTD SVG 1.1//EN"
  "http://www.w3.org/Graphics/SVG/1.1/DTD/svg11.dtd">
<svg xmlns:xlink="http://www.w3.org/1999/xlink" width="864pt" height="360pt" viewBox="0 0 864 360" xmlns="http://www.w3.org/2000/svg" version="1.1">
 <metadata>
  <rdf:RDF xmlns:dc="http://purl.org/dc/elements/1.1/" xmlns:cc="http://creativecommons.org/ns#" xmlns:rdf="http://www.w3.org/1999/02/22-rdf-syntax-ns#">
   <cc:Work>
    <dc:type rdf:resource="http://purl.org/dc/dcmitype/StillImage"/>
    <dc:date>2023-08-03T16:41:40.742958</dc:date>
    <dc:format>image/svg+xml</dc:format>
    <dc:creator>
     <cc:Agent>
      <dc:title>Matplotlib v3.7.1, https://matplotlib.org/</dc:title>
     </cc:Agent>
    </dc:creator>
   </cc:Work>
  </rdf:RDF>
 </metadata>
 <defs>
  <style type="text/css">*{stroke-linejoin: round; stroke-linecap: butt}</style>
 </defs>
 <g id="figure_1">
  <g id="patch_1">
   <path d="M 0 360 
L 864 360 
L 864 0 
L 0 0 
z
" style="fill: #ffffff"/>
  </g>
  <g id="axes_1">
   <g id="patch_2">
    <path d="M 108 320.4 
L 777.6 320.4 
L 777.6 43.2 
L 108 43.2 
z
" style="fill: #ffffff"/>
   </g>
   <g id="matplotlib.axis_1">
    <g id="xtick_1">
     <g id="line2d_1">
      <defs>
       <path id="m419547c6fe" d="M 0 0 
L 0 3.5 
" style="stroke: #000000; stroke-width: 0.8"/>
      </defs>
      <g>
       <use xlink:href="#m419547c6fe" x="138.436364" y="320.4" style="stroke: #000000; stroke-width: 0.8"/>
      </g>
     </g>
     <g id="text_1">
      <!-- 2022-01-01 -->
      <g transform="translate(109.378551 334.998438) scale(0.1 -0.1)">
       <defs>
        <path id="DejaVuSans-32" d="M 1228 531 
L 3431 531 
L 3431 0 
L 469 0 
L 469 531 
Q 828 903 1448 1529 
Q 2069 2156 2228 2338 
Q 2531 2678 2651 2914 
Q 2772 3150 2772 3378 
Q 2772 3750 2511 3984 
Q 2250 4219 1831 4219 
Q 1534 4219 1204 4116 
Q 875 4013 500 3803 
L 500 4441 
Q 881 4594 1212 4672 
Q 1544 4750 1819 4750 
Q 2544 4750 2975 4387 
Q 3406 4025 3406 3419 
Q 3406 3131 3298 2873 
Q 3191 2616 2906 2266 
Q 2828 2175 2409 1742 
Q 1991 1309 1228 531 
z
" transform="scale(0.015625)"/>
        <path id="DejaVuSans-30" d="M 2034 4250 
Q 1547 4250 1301 3770 
Q 1056 3291 1056 2328 
Q 1056 1369 1301 889 
Q 1547 409 2034 409 
Q 2525 409 2770 889 
Q 3016 1369 3016 2328 
Q 3016 3291 2770 3770 
Q 2525 4250 2034 4250 
z
M 2034 4750 
Q 2819 4750 3233 4129 
Q 3647 3509 3647 2328 
Q 3647 1150 3233 529 
Q 2819 -91 2034 -91 
Q 1250 -91 836 529 
Q 422 1150 422 2328 
Q 422 3509 836 4129 
Q 1250 4750 2034 4750 
z
" transform="scale(0.015625)"/>
        <path id="DejaVuSans-2d" d="M 313 2009 
L 1997 2009 
L 1997 1497 
L 313 1497 
L 313 2009 
z
" transform="scale(0.015625)"/>
        <path id="DejaVuSans-31" d="M 794 531 
L 1825 531 
L 1825 4091 
L 703 3866 
L 703 4441 
L 1819 4666 
L 2450 4666 
L 2450 531 
L 3481 531 
L 3481 0 
L 794 0 
L 794 531 
z
" transform="scale(0.015625)"/>
       </defs>
       <use xlink:href="#DejaVuSans-32"/>
       <use xlink:href="#DejaVuSans-30" x="63.623047"/>
       <use xlink:href="#DejaVuSans-32" x="127.246094"/>
       <use xlink:href="#DejaVuSans-32" x="190.869141"/>
       <use xlink:href="#DejaVuSans-2d" x="254.492188"/>
       <use xlink:href="#DejaVuSans-30" x="290.576172"/>
       <use xlink:href="#DejaVuSans-31" x="354.199219"/>
       <use xlink:href="#DejaVuSans-2d" x="417.822266"/>
       <use xlink:href="#DejaVuSans-30" x="453.90625"/>
       <use xlink:href="#DejaVuSans-31" x="517.529297"/>
      </g>
     </g>
    </g>
    <g id="xtick_2">
     <g id="line2d_2">
      <g>
       <use xlink:href="#m419547c6fe" x="232.237035" y="320.4" style="stroke: #000000; stroke-width: 0.8"/>
      </g>
     </g>
     <g id="text_2">
      <!-- 2022-01-03 -->
      <g transform="translate(203.179222 334.998438) scale(0.1 -0.1)">
       <defs>
        <path id="DejaVuSans-33" d="M 2597 2516 
Q 3050 2419 3304 2112 
Q 3559 1806 3559 1356 
Q 3559 666 3084 287 
Q 2609 -91 1734 -91 
Q 1441 -91 1130 -33 
Q 819 25 488 141 
L 488 750 
Q 750 597 1062 519 
Q 1375 441 1716 441 
Q 2309 441 2620 675 
Q 2931 909 2931 1356 
Q 2931 1769 2642 2001 
Q 2353 2234 1838 2234 
L 1294 2234 
L 1294 2753 
L 1863 2753 
Q 2328 2753 2575 2939 
Q 2822 3125 2822 3475 
Q 2822 3834 2567 4026 
Q 2313 4219 1838 4219 
Q 1578 4219 1281 4162 
Q 984 4106 628 3988 
L 628 4550 
Q 988 4650 1302 4700 
Q 1616 4750 1894 4750 
Q 2613 4750 3031 4423 
Q 3450 4097 3450 3541 
Q 3450 3153 3228 2886 
Q 3006 2619 2597 2516 
z
" transform="scale(0.015625)"/>
       </defs>
       <use xlink:href="#DejaVuSans-32"/>
       <use xlink:href="#DejaVuSans-30" x="63.623047"/>
       <use xlink:href="#DejaVuSans-32" x="127.246094"/>
       <use xlink:href="#DejaVuSans-32" x="190.869141"/>
       <use xlink:href="#DejaVuSans-2d" x="254.492188"/>
       <use xlink:href="#DejaVuSans-30" x="290.576172"/>
       <use xlink:href="#DejaVuSans-31" x="354.199219"/>
       <use xlink:href="#DejaVuSans-2d" x="417.822266"/>
       <use xlink:href="#DejaVuSans-30" x="453.90625"/>
       <use xlink:href="#DejaVuSans-33" x="517.529297"/>
      </g>
     </g>
    </g>
    <g id="xtick_3">
     <g id="line2d_3">
      <g>
       <use xlink:href="#m419547c6fe" x="326.037706" y="320.4" style="stroke: #000000; stroke-width: 0.8"/>
      </g>
     </g>
     <g id="text_3">
      <!-- 2022-01-05 -->
      <g transform="translate(296.979894 334.998438) scale(0.1 -0.1)">
       <defs>
        <path id="DejaVuSans-35" d="M 691 4666 
L 3169 4666 
L 3169 4134 
L 1269 4134 
L 1269 2991 
Q 1406 3038 1543 3061 
Q 1681 3084 1819 3084 
Q 2600 3084 3056 2656 
Q 3513 2228 3513 1497 
Q 3513 744 3044 326 
Q 2575 -91 1722 -91 
Q 1428 -91 1123 -41 
Q 819 9 494 109 
L 494 744 
Q 775 591 1075 516 
Q 1375 441 1709 441 
Q 2250 441 2565 725 
Q 2881 1009 2881 1497 
Q 2881 1984 2565 2268 
Q 2250 2553 1709 2553 
Q 1456 2553 1204 2497 
Q 953 2441 691 2322 
L 691 4666 
z
" transform="scale(0.015625)"/>
       </defs>
       <use xlink:href="#DejaVuSans-32"/>
       <use xlink:href="#DejaVuSans-30" x="63.623047"/>
       <use xlink:href="#DejaVuSans-32" x="127.246094"/>
       <use xlink:href="#DejaVuSans-32" x="190.869141"/>
       <use xlink:href="#DejaVuSans-2d" x="254.492188"/>
       <use xlink:href="#DejaVuSans-30" x="290.576172"/>
       <use xlink:href="#DejaVuSans-31" x="354.199219"/>
       <use xlink:href="#DejaVuSans-2d" x="417.822266"/>
       <use xlink:href="#DejaVuSans-30" x="453.90625"/>
       <use xlink:href="#DejaVuSans-35" x="517.529297"/>
      </g>
     </g>
    </g>
    <g id="xtick_4">
     <g id="line2d_4">
      <g>
       <use xlink:href="#m419547c6fe" x="419.838377" y="320.4" style="stroke: #000000; stroke-width: 0.8"/>
      </g>
     </g>
     <g id="text_4">
      <!-- 2022-01-07 -->
      <g transform="translate(390.780565 334.998438) scale(0.1 -0.1)">
       <defs>
        <path id="DejaVuSans-37" d="M 525 4666 
L 3525 4666 
L 3525 4397 
L 1831 0 
L 1172 0 
L 2766 4134 
L 525 4134 
L 525 4666 
z
" transform="scale(0.015625)"/>
       </defs>
       <use xlink:href="#DejaVuSans-32"/>
       <use xlink:href="#DejaVuSans-30" x="63.623047"/>
       <use xlink:href="#DejaVuSans-32" x="127.246094"/>
       <use xlink:href="#DejaVuSans-32" x="190.869141"/>
       <use xlink:href="#DejaVuSans-2d" x="254.492188"/>
       <use xlink:href="#DejaVuSans-30" x="290.576172"/>
       <use xlink:href="#DejaVuSans-31" x="354.199219"/>
       <use xlink:href="#DejaVuSans-2d" x="417.822266"/>
       <use xlink:href="#DejaVuSans-30" x="453.90625"/>
       <use xlink:href="#DejaVuSans-37" x="517.529297"/>
      </g>
     </g>
    </g>
    <g id="xtick_5">
     <g id="line2d_5">
      <g>
       <use xlink:href="#m419547c6fe" x="513.639049" y="320.4" style="stroke: #000000; stroke-width: 0.8"/>
      </g>
     </g>
     <g id="text_5">
      <!-- 2022-01-09 -->
      <g transform="translate(484.581236 334.998438) scale(0.1 -0.1)">
       <defs>
        <path id="DejaVuSans-39" d="M 703 97 
L 703 672 
Q 941 559 1184 500 
Q 1428 441 1663 441 
Q 2288 441 2617 861 
Q 2947 1281 2994 2138 
Q 2813 1869 2534 1725 
Q 2256 1581 1919 1581 
Q 1219 1581 811 2004 
Q 403 2428 403 3163 
Q 403 3881 828 4315 
Q 1253 4750 1959 4750 
Q 2769 4750 3195 4129 
Q 3622 3509 3622 2328 
Q 3622 1225 3098 567 
Q 2575 -91 1691 -91 
Q 1453 -91 1209 -44 
Q 966 3 703 97 
z
M 1959 2075 
Q 2384 2075 2632 2365 
Q 2881 2656 2881 3163 
Q 2881 3666 2632 3958 
Q 2384 4250 1959 4250 
Q 1534 4250 1286 3958 
Q 1038 3666 1038 3163 
Q 1038 2656 1286 2365 
Q 1534 2075 1959 2075 
z
" transform="scale(0.015625)"/>
       </defs>
       <use xlink:href="#DejaVuSans-32"/>
       <use xlink:href="#DejaVuSans-30" x="63.623047"/>
       <use xlink:href="#DejaVuSans-32" x="127.246094"/>
       <use xlink:href="#DejaVuSans-32" x="190.869141"/>
       <use xlink:href="#DejaVuSans-2d" x="254.492188"/>
       <use xlink:href="#DejaVuSans-30" x="290.576172"/>
       <use xlink:href="#DejaVuSans-31" x="354.199219"/>
       <use xlink:href="#DejaVuSans-2d" x="417.822266"/>
       <use xlink:href="#DejaVuSans-30" x="453.90625"/>
       <use xlink:href="#DejaVuSans-39" x="517.529297"/>
      </g>
     </g>
    </g>
    <g id="xtick_6">
     <g id="line2d_6">
      <g>
       <use xlink:href="#m419547c6fe" x="607.43972" y="320.4" style="stroke: #000000; stroke-width: 0.8"/>
      </g>
     </g>
     <g id="text_6">
      <!-- 2022-01-11 -->
      <g transform="translate(578.381907 334.998438) scale(0.1 -0.1)">
       <use xlink:href="#DejaVuSans-32"/>
       <use xlink:href="#DejaVuSans-30" x="63.623047"/>
       <use xlink:href="#DejaVuSans-32" x="127.246094"/>
       <use xlink:href="#DejaVuSans-32" x="190.869141"/>
       <use xlink:href="#DejaVuSans-2d" x="254.492188"/>
       <use xlink:href="#DejaVuSans-30" x="290.576172"/>
       <use xlink:href="#DejaVuSans-31" x="354.199219"/>
       <use xlink:href="#DejaVuSans-2d" x="417.822266"/>
       <use xlink:href="#DejaVuSans-31" x="453.90625"/>
       <use xlink:href="#DejaVuSans-31" x="517.529297"/>
      </g>
     </g>
    </g>
    <g id="xtick_7">
     <g id="line2d_7">
      <g>
       <use xlink:href="#m419547c6fe" x="701.240391" y="320.4" style="stroke: #000000; stroke-width: 0.8"/>
      </g>
     </g>
     <g id="text_7">
      <!-- 2022-01-13 -->
      <g transform="translate(672.182579 334.998438) scale(0.1 -0.1)">
       <use xlink:href="#DejaVuSans-32"/>
       <use xlink:href="#DejaVuSans-30" x="63.623047"/>
       <use xlink:href="#DejaVuSans-32" x="127.246094"/>
       <use xlink:href="#DejaVuSans-32" x="190.869141"/>
       <use xlink:href="#DejaVuSans-2d" x="254.492188"/>
       <use xlink:href="#DejaVuSans-30" x="290.576172"/>
       <use xlink:href="#DejaVuSans-31" x="354.199219"/>
       <use xlink:href="#DejaVuSans-2d" x="417.822266"/>
       <use xlink:href="#DejaVuSans-31" x="453.90625"/>
       <use xlink:href="#DejaVuSans-33" x="517.529297"/>
      </g>
     </g>
    </g>
    <g id="text_8">
     <!-- TIME (DAYS) -->
     <g transform="translate(412.283594 348.676562) scale(0.1 -0.1)">
      <defs>
       <path id="DejaVuSans-54" d="M -19 4666 
L 3928 4666 
L 3928 4134 
L 2272 4134 
L 2272 0 
L 1638 0 
L 1638 4134 
L -19 4134 
L -19 4666 
z
" transform="scale(0.015625)"/>
       <path id="DejaVuSans-49" d="M 628 4666 
L 1259 4666 
L 1259 0 
L 628 0 
L 628 4666 
z
" transform="scale(0.015625)"/>
       <path id="DejaVuSans-4d" d="M 628 4666 
L 1569 4666 
L 2759 1491 
L 3956 4666 
L 4897 4666 
L 4897 0 
L 4281 0 
L 4281 4097 
L 3078 897 
L 2444 897 
L 1241 4097 
L 1241 0 
L 628 0 
L 628 4666 
z
" transform="scale(0.015625)"/>
       <path id="DejaVuSans-45" d="M 628 4666 
L 3578 4666 
L 3578 4134 
L 1259 4134 
L 1259 2753 
L 3481 2753 
L 3481 2222 
L 1259 2222 
L 1259 531 
L 3634 531 
L 3634 0 
L 628 0 
L 628 4666 
z
" transform="scale(0.015625)"/>
       <path id="DejaVuSans-20" transform="scale(0.015625)"/>
       <path id="DejaVuSans-28" d="M 1984 4856 
Q 1566 4138 1362 3434 
Q 1159 2731 1159 2009 
Q 1159 1288 1364 580 
Q 1569 -128 1984 -844 
L 1484 -844 
Q 1016 -109 783 600 
Q 550 1309 550 2009 
Q 550 2706 781 3412 
Q 1013 4119 1484 4856 
L 1984 4856 
z
" transform="scale(0.015625)"/>
       <path id="DejaVuSans-44" d="M 1259 4147 
L 1259 519 
L 2022 519 
Q 2988 519 3436 956 
Q 3884 1394 3884 2338 
Q 3884 3275 3436 3711 
Q 2988 4147 2022 4147 
L 1259 4147 
z
M 628 4666 
L 1925 4666 
Q 3281 4666 3915 4102 
Q 4550 3538 4550 2338 
Q 4550 1131 3912 565 
Q 3275 0 1925 0 
L 628 0 
L 628 4666 
z
" transform="scale(0.015625)"/>
       <path id="DejaVuSans-41" d="M 2188 4044 
L 1331 1722 
L 3047 1722 
L 2188 4044 
z
M 1831 4666 
L 2547 4666 
L 4325 0 
L 3669 0 
L 3244 1197 
L 1141 1197 
L 716 0 
L 50 0 
L 1831 4666 
z
" transform="scale(0.015625)"/>
       <path id="DejaVuSans-59" d="M -13 4666 
L 666 4666 
L 1959 2747 
L 3244 4666 
L 3922 4666 
L 2272 2222 
L 2272 0 
L 1638 0 
L 1638 2222 
L -13 4666 
z
" transform="scale(0.015625)"/>
       <path id="DejaVuSans-53" d="M 3425 4513 
L 3425 3897 
Q 3066 4069 2747 4153 
Q 2428 4238 2131 4238 
Q 1616 4238 1336 4038 
Q 1056 3838 1056 3469 
Q 1056 3159 1242 3001 
Q 1428 2844 1947 2747 
L 2328 2669 
Q 3034 2534 3370 2195 
Q 3706 1856 3706 1288 
Q 3706 609 3251 259 
Q 2797 -91 1919 -91 
Q 1588 -91 1214 -16 
Q 841 59 441 206 
L 441 856 
Q 825 641 1194 531 
Q 1563 422 1919 422 
Q 2459 422 2753 634 
Q 3047 847 3047 1241 
Q 3047 1584 2836 1778 
Q 2625 1972 2144 2069 
L 1759 2144 
Q 1053 2284 737 2584 
Q 422 2884 422 3419 
Q 422 4038 858 4394 
Q 1294 4750 2059 4750 
Q 2388 4750 2728 4690 
Q 3069 4631 3425 4513 
z
" transform="scale(0.015625)"/>
       <path id="DejaVuSans-29" d="M 513 4856 
L 1013 4856 
Q 1481 4119 1714 3412 
Q 1947 2706 1947 2009 
Q 1947 1309 1714 600 
Q 1481 -109 1013 -844 
L 513 -844 
Q 928 -128 1133 580 
Q 1338 1288 1338 2009 
Q 1338 2731 1133 3434 
Q 928 4138 513 4856 
z
" transform="scale(0.015625)"/>
      </defs>
      <use xlink:href="#DejaVuSans-54"/>
      <use xlink:href="#DejaVuSans-49" x="61.083984"/>
      <use xlink:href="#DejaVuSans-4d" x="90.576172"/>
      <use xlink:href="#DejaVuSans-45" x="176.855469"/>
      <use xlink:href="#DejaVuSans-20" x="240.039062"/>
      <use xlink:href="#DejaVuSans-28" x="271.826172"/>
      <use xlink:href="#DejaVuSans-44" x="310.839844"/>
      <use xlink:href="#DejaVuSans-41" x="386.091797"/>
      <use xlink:href="#DejaVuSans-59" x="446.75"/>
      <use xlink:href="#DejaVuSans-53" x="507.833984"/>
      <use xlink:href="#DejaVuSans-29" x="571.310547"/>
     </g>
    </g>
   </g>
   <g id="matplotlib.axis_2">
    <g id="ytick_1">
     <g id="line2d_8">
      <defs>
       <path id="m11c6c707e8" d="M 0 0 
L -3.5 0 
" style="stroke: #000000; stroke-width: 0.8"/>
      </defs>
      <g>
       <use xlink:href="#m11c6c707e8" x="108" y="307.8" style="stroke: #000000; stroke-width: 0.8"/>
      </g>
     </g>
     <g id="text_9">
      <!-- 0 -->
      <g transform="translate(94.6375 311.599219) scale(0.1 -0.1)">
       <use xlink:href="#DejaVuSans-30"/>
      </g>
     </g>
    </g>
    <g id="ytick_2">
     <g id="line2d_9">
      <g>
       <use xlink:href="#m11c6c707e8" x="108" y="265.088136" style="stroke: #000000; stroke-width: 0.8"/>
      </g>
     </g>
     <g id="text_10">
      <!-- 50 -->
      <g transform="translate(88.275 268.887354) scale(0.1 -0.1)">
       <use xlink:href="#DejaVuSans-35"/>
       <use xlink:href="#DejaVuSans-30" x="63.623047"/>
      </g>
     </g>
    </g>
    <g id="ytick_3">
     <g id="line2d_10">
      <g>
       <use xlink:href="#m11c6c707e8" x="108" y="222.376271" style="stroke: #000000; stroke-width: 0.8"/>
      </g>
     </g>
     <g id="text_11">
      <!-- 100 -->
      <g transform="translate(81.9125 226.17549) scale(0.1 -0.1)">
       <use xlink:href="#DejaVuSans-31"/>
       <use xlink:href="#DejaVuSans-30" x="63.623047"/>
       <use xlink:href="#DejaVuSans-30" x="127.246094"/>
      </g>
     </g>
    </g>
    <g id="ytick_4">
     <g id="line2d_11">
      <g>
       <use xlink:href="#m11c6c707e8" x="108" y="179.664407" style="stroke: #000000; stroke-width: 0.8"/>
      </g>
     </g>
     <g id="text_12">
      <!-- 150 -->
      <g transform="translate(81.9125 183.463626) scale(0.1 -0.1)">
       <use xlink:href="#DejaVuSans-31"/>
       <use xlink:href="#DejaVuSans-35" x="63.623047"/>
       <use xlink:href="#DejaVuSans-30" x="127.246094"/>
      </g>
     </g>
    </g>
    <g id="ytick_5">
     <g id="line2d_12">
      <g>
       <use xlink:href="#m11c6c707e8" x="108" y="136.952542" style="stroke: #000000; stroke-width: 0.8"/>
      </g>
     </g>
     <g id="text_13">
      <!-- 200 -->
      <g transform="translate(81.9125 140.751761) scale(0.1 -0.1)">
       <use xlink:href="#DejaVuSans-32"/>
       <use xlink:href="#DejaVuSans-30" x="63.623047"/>
       <use xlink:href="#DejaVuSans-30" x="127.246094"/>
      </g>
     </g>
    </g>
    <g id="ytick_6">
     <g id="line2d_13">
      <g>
       <use xlink:href="#m11c6c707e8" x="108" y="94.240678" style="stroke: #000000; stroke-width: 0.8"/>
      </g>
     </g>
     <g id="text_14">
      <!-- 250 -->
      <g transform="translate(81.9125 98.039897) scale(0.1 -0.1)">
       <use xlink:href="#DejaVuSans-32"/>
       <use xlink:href="#DejaVuSans-35" x="63.623047"/>
       <use xlink:href="#DejaVuSans-30" x="127.246094"/>
      </g>
     </g>
    </g>
    <g id="ytick_7">
     <g id="line2d_14">
      <g>
       <use xlink:href="#m11c6c707e8" x="108" y="51.528814" style="stroke: #000000; stroke-width: 0.8"/>
      </g>
     </g>
     <g id="text_15">
      <!-- 300 -->
      <g transform="translate(81.9125 55.328032) scale(0.1 -0.1)">
       <use xlink:href="#DejaVuSans-33"/>
       <use xlink:href="#DejaVuSans-30" x="63.623047"/>
       <use xlink:href="#DejaVuSans-30" x="127.246094"/>
      </g>
     </g>
    </g>
    <g id="text_16">
     <!-- AMPLITUDE -->
     <g transform="translate(75.832812 210.532812) rotate(-90) scale(0.1 -0.1)">
      <defs>
       <path id="DejaVuSans-50" d="M 1259 4147 
L 1259 2394 
L 2053 2394 
Q 2494 2394 2734 2622 
Q 2975 2850 2975 3272 
Q 2975 3691 2734 3919 
Q 2494 4147 2053 4147 
L 1259 4147 
z
M 628 4666 
L 2053 4666 
Q 2838 4666 3239 4311 
Q 3641 3956 3641 3272 
Q 3641 2581 3239 2228 
Q 2838 1875 2053 1875 
L 1259 1875 
L 1259 0 
L 628 0 
L 628 4666 
z
" transform="scale(0.015625)"/>
       <path id="DejaVuSans-4c" d="M 628 4666 
L 1259 4666 
L 1259 531 
L 3531 531 
L 3531 0 
L 628 0 
L 628 4666 
z
" transform="scale(0.015625)"/>
       <path id="DejaVuSans-55" d="M 556 4666 
L 1191 4666 
L 1191 1831 
Q 1191 1081 1462 751 
Q 1734 422 2344 422 
Q 2950 422 3222 751 
Q 3494 1081 3494 1831 
L 3494 4666 
L 4128 4666 
L 4128 1753 
Q 4128 841 3676 375 
Q 3225 -91 2344 -91 
Q 1459 -91 1007 375 
Q 556 841 556 1753 
L 556 4666 
z
" transform="scale(0.015625)"/>
      </defs>
      <use xlink:href="#DejaVuSans-41"/>
      <use xlink:href="#DejaVuSans-4d" x="68.408203"/>
      <use xlink:href="#DejaVuSans-50" x="154.6875"/>
      <use xlink:href="#DejaVuSans-4c" x="214.990234"/>
      <use xlink:href="#DejaVuSans-49" x="270.703125"/>
      <use xlink:href="#DejaVuSans-54" x="300.195312"/>
      <use xlink:href="#DejaVuSans-55" x="361.279297"/>
      <use xlink:href="#DejaVuSans-44" x="434.472656"/>
      <use xlink:href="#DejaVuSans-45" x="511.474609"/>
     </g>
    </g>
   </g>
   <g id="line2d_15">
    <path d="M 138.436364 293.277966 
L 139.413454 307.8 
L 140.390544 219.813559 
L 141.367635 307.8 
L 142.344725 307.8 
L 144.298906 306.091525 
L 145.275996 307.8 
L 147.230177 307.8 
L 148.207267 288.152542 
L 149.184357 307.8 
L 151.138538 307.8 
L 152.115628 219.813559 
L 153.092719 283.881356 
L 154.069809 297.549153 
L 155.046899 307.8 
L 156.023989 217.250847 
L 157.00108 193.332203 
L 157.97817 296.694915 
L 158.95526 307.8 
L 160.909441 307.8 
L 161.886531 122.430508 
L 162.863622 264.233898 
L 163.840712 194.186441 
L 164.817802 150.620339 
L 165.794893 227.501695 
L 166.771983 154.037288 
L 167.749073 166.850847 
L 168.726164 216.39661 
L 169.703254 165.142373 
L 170.680344 298.40339 
L 171.657435 258.254237 
L 172.634525 107.054237 
L 173.611615 252.274576 
L 174.588706 252.274576 
L 175.565796 307.8 
L 176.542886 293.277966 
L 177.519977 173.684746 
L 178.497067 220.667797 
L 179.474157 193.332203 
L 180.451248 193.332203 
L 181.428338 271.922034 
L 182.405428 160.871186 
L 183.382519 204.437288 
L 184.359609 275.338983 
L 185.336699 201.020339 
L 186.31379 162.579661 
L 187.29088 256.545763 
L 188.26797 241.169492 
L 189.245061 307.8 
L 190.222151 307.8 
L 191.199241 183.081356 
L 192.176332 307.8 
L 193.153422 294.132203 
L 194.130512 307.8 
L 195.107603 303.528814 
L 196.084693 279.610169 
L 197.061783 307.8 
L 198.038873 290.715254 
L 199.015964 254.837288 
L 199.993054 251.420339 
L 200.970144 307.8 
L 202.924325 307.8 
L 203.901415 183.935593 
L 204.878506 307.8 
L 205.855596 307.8 
L 206.832686 302.674576 
L 207.809777 278.755932 
L 208.786867 306.091525 
L 209.763957 288.152542 
L 210.741048 293.277966 
L 211.718138 168.559322 
L 212.695228 307.8 
L 213.672319 305.237288 
L 214.649409 207 
L 215.626499 297.549153 
L 216.60359 307.8 
L 217.58068 110.471186 
L 219.534861 242.877966 
L 220.511951 173.684746 
L 221.489041 201.020339 
L 222.466132 240.315254 
L 224.420312 301.820339 
L 225.397403 271.922034 
L 226.374493 256.545763 
L 227.351583 274.484746 
L 228.328674 171.122034 
L 229.305764 185.644068 
L 230.282854 228.355932 
L 231.259945 217.250847 
L 232.237035 185.644068 
L 233.214125 234.335593 
L 234.191216 242.023729 
L 235.168306 271.067797 
L 236.145396 271.067797 
L 237.122487 265.088136 
L 238.099577 218.959322 
L 239.076667 307.8 
L 240.053757 265.942373 
L 241.030848 283.881356 
L 242.007938 307.8 
L 246.89339 307.8 
L 247.87048 277.047458 
L 248.84757 230.918644 
L 249.824661 307.8 
L 250.801751 307.8 
L 251.778841 272.776271 
L 252.755932 279.610169 
L 253.733022 307.8 
L 254.710112 307.8 
L 255.687203 293.277966 
L 256.664293 307.8 
L 258.618474 307.8 
L 259.595564 300.966102 
L 260.572654 290.715254 
L 261.549745 253.983051 
L 262.526835 195.040678 
L 263.503925 230.918644 
L 264.481016 261.671186 
L 265.458106 175.39322 
L 266.435196 207.854237 
L 267.412287 205.291525 
L 268.389377 255.691525 
L 269.366467 299.257627 
L 271.320648 117.305085 
L 272.297738 283.027119 
L 273.274829 268.505085 
L 274.251919 176.247458 
L 275.229009 224.084746 
L 276.2061 246.294915 
L 277.18319 226.647458 
L 278.16028 307.8 
L 279.13737 284.735593 
L 280.114461 279.610169 
L 281.091551 188.20678 
L 282.068641 260.816949 
L 283.045732 210.416949 
L 284.022822 195.894915 
L 284.999912 205.291525 
L 285.977003 201.020339 
L 286.954093 267.650847 
L 287.931183 195.894915 
L 288.908274 307.8 
L 295.747906 307.8 
L 296.724996 174.538983 
L 297.702087 279.610169 
L 298.679177 261.671186 
L 299.656267 307.8 
L 300.633358 306.091525 
L 301.610448 307.8 
L 302.587538 232.627119 
L 303.564629 307.8 
L 304.541719 274.484746 
L 305.518809 307.8 
L 306.4959 307.8 
L 307.47299 221.522034 
L 308.45008 307.8 
L 309.427171 229.210169 
L 310.404261 307.8 
L 311.381351 145.494915 
L 312.358442 282.172881 
L 313.335532 254.837288 
L 314.312622 294.132203 
L 315.289713 246.294915 
L 316.266803 209.562712 
L 317.243893 192.477966 
L 318.220984 307.8 
L 319.198074 171.976271 
L 320.175164 307.8 
L 321.152254 216.39661 
L 322.129345 160.016949 
L 323.106435 277.047458 
L 324.083525 211.271186 
L 325.060616 224.938983 
L 326.037706 179.664407 
L 327.014796 180.518644 
L 327.991887 292.423729 
L 328.968977 288.152542 
L 329.946067 245.440678 
L 330.923158 232.627119 
L 331.900248 203.583051 
L 332.877338 61.779661 
L 333.854429 215.542373 
L 334.831519 298.40339 
L 335.808609 194.186441 
L 336.7857 200.166102 
L 337.76279 217.250847 
L 338.73988 278.755932 
L 339.716971 289.861017 
L 340.694061 307.8 
L 342.648242 307.8 
L 343.625332 301.820339 
L 344.602422 307.8 
L 345.579513 307.8 
L 346.556603 251.420339 
L 347.533693 259.108475 
L 348.510784 307.8 
L 349.487874 192.477966 
L 350.464964 307.8 
L 351.442055 282.172881 
L 352.419145 307.8 
L 353.396235 307.8 
L 354.373326 249.711864 
L 355.350416 307.8 
L 356.327506 299.257627 
L 357.304597 307.8 
L 359.258777 307.8 
L 360.235868 186.498305 
L 361.212958 307.8 
L 362.190048 272.776271 
L 363.167138 271.922034 
L 364.144229 165.142373 
L 365.121319 240.315254 
L 366.098409 136.098305 
L 367.0755 271.922034 
L 368.05259 218.105085 
L 369.02968 250.566102 
L 370.006771 289.861017 
L 370.983861 257.4 
L 371.960951 218.105085 
L 372.938042 249.711864 
L 373.915132 116.450847 
L 374.892222 271.922034 
L 375.869313 105.345763 
L 376.846403 149.766102 
L 377.823493 202.728814 
L 378.800584 300.111864 
L 379.777674 238.60678 
L 380.754764 229.210169 
L 381.731855 179.664407 
L 382.708945 150.620339 
L 383.686035 200.166102 
L 384.663126 233.481356 
L 385.640216 206.145763 
L 386.617306 234.335593 
L 387.594397 221.522034 
L 388.571487 307.8 
L 390.525668 307.8 
L 391.502758 298.40339 
L 392.479848 307.8 
L 395.411119 307.8 
L 396.38821 173.684746 
L 397.3653 307.8 
L 398.34239 307.8 
L 399.319481 265.088136 
L 400.296571 304.383051 
L 401.273661 307.8 
L 402.250751 307.8 
L 403.227842 219.813559 
L 404.204932 307.8 
L 407.136203 307.8 
L 408.113293 262.525424 
L 409.090384 264.233898 
L 410.067474 267.650847 
L 411.044564 307.8 
L 412.021655 208.708475 
L 412.998745 288.152542 
L 413.975835 307.8 
L 414.952926 264.233898 
L 415.930016 240.315254 
L 416.907106 152.328814 
L 417.884197 246.294915 
L 418.861287 177.101695 
L 419.838377 84.844068 
L 420.815468 183.935593 
L 421.792558 222.376271 
L 422.769648 165.99661 
L 423.746739 262.525424 
L 424.723829 172.830508 
L 425.700919 259.108475 
L 426.67801 223.230508 
L 427.6551 139.515254 
L 428.63219 177.955932 
L 429.609281 248.00339 
L 430.586371 307.8 
L 431.563461 159.162712 
L 432.540552 216.39661 
L 433.517642 307.8 
L 434.494732 193.332203 
L 435.471823 225.79322 
L 436.448913 78.010169 
L 437.426003 160.016949 
L 438.403094 307.8 
L 439.380184 175.39322 
L 440.357274 307.8 
L 441.334365 307.8 
L 442.311455 270.213559 
L 443.288545 294.986441 
L 444.265635 223.230508 
L 445.242726 307.8 
L 447.196906 307.8 
L 448.173997 263.379661 
L 449.151087 307.8 
L 450.128177 278.755932 
L 451.105268 307.8 
L 452.082358 284.735593 
L 453.059448 307.8 
L 454.036539 307.8 
L 455.013629 220.667797 
L 455.990719 283.881356 
L 456.96781 307.8 
L 457.9449 296.694915 
L 458.92199 264.233898 
L 459.899081 283.881356 
L 460.876171 307.8 
L 462.830352 307.8 
L 463.807442 121.576271 
L 464.784532 243.732203 
L 465.761623 150.620339 
L 466.738713 167.705085 
L 467.715803 247.149153 
L 468.692894 218.959322 
L 469.669984 219.813559 
L 470.647074 195.894915 
L 471.624165 283.881356 
L 472.601255 140.369492 
L 473.578345 138.661017 
L 474.555436 168.559322 
L 475.532526 212.125424 
L 476.509616 184.789831 
L 477.486707 230.064407 
L 478.463797 165.99661 
L 479.440887 203.583051 
L 480.417978 138.661017 
L 481.395068 245.440678 
L 482.372158 275.338983 
L 483.349249 84.844068 
L 484.326339 161.725424 
L 485.303429 165.142373 
L 486.280519 218.105085 
L 487.25761 154.891525 
L 488.2347 291.569492 
L 489.21179 282.172881 
L 490.188881 307.8 
L 491.165971 236.044068 
L 492.143061 278.755932 
L 493.120152 307.8 
L 494.097242 307.8 
L 495.074332 293.277966 
L 496.051423 288.152542 
L 497.028513 299.257627 
L 498.005603 289.861017 
L 498.982694 307.8 
L 499.959784 294.132203 
L 500.936874 263.379661 
L 501.913965 283.881356 
L 502.891055 297.549153 
L 503.868145 222.376271 
L 504.845236 307.8 
L 505.822326 297.549153 
L 506.799416 304.383051 
L 507.776507 307.8 
L 513.639049 307.8 
L 514.616139 232.627119 
L 515.593229 193.332203 
L 516.57032 177.101695 
L 517.54741 190.769492 
L 518.5245 207 
L 519.501591 136.952542 
L 520.478681 180.518644 
L 521.455771 236.898305 
L 522.432862 189.061017 
L 523.409952 197.60339 
L 524.387042 142.077966 
L 525.364132 145.494915 
L 526.341223 202.728814 
L 527.318313 307.8 
L 528.295403 253.983051 
L 529.272494 247.149153 
L 530.249584 283.027119 
L 531.226674 238.60678 
L 532.203765 216.39661 
L 533.180855 184.789831 
L 534.157945 277.047458 
L 535.135036 178.810169 
L 536.112126 236.044068 
L 537.089216 255.691525 
L 538.066307 198.457627 
L 540.020487 307.8 
L 540.997578 301.820339 
L 541.974668 307.8 
L 542.951758 307.8 
L 543.928849 294.986441 
L 544.905939 307.8 
L 547.83721 307.8 
L 548.8143 304.383051 
L 549.791391 307.8 
L 551.745571 307.8 
L 552.722662 289.861017 
L 553.699752 307.8 
L 554.676842 307.8 
L 555.653933 269.359322 
L 556.631023 307.8 
L 557.608113 297.549153 
L 558.585204 307.8 
L 559.562294 307.8 
L 560.539384 237.752542 
L 561.516475 193.332203 
L 562.493565 300.966102 
L 563.470655 302.674576 
L 564.447746 185.644068 
L 565.424836 235.189831 
L 566.401926 271.922034 
L 567.379016 249.711864 
L 568.356107 130.972881 
L 569.333197 216.39661 
L 570.310287 271.067797 
L 571.287378 136.098305 
L 572.264468 249.711864 
L 573.241558 256.545763 
L 574.218649 227.501695 
L 575.195739 143.786441 
L 576.172829 307.8 
L 577.14992 237.752542 
L 578.12701 132.681356 
L 579.1041 157.454237 
L 580.081191 288.152542 
L 581.058281 263.379661 
L 582.035371 228.355932 
L 583.012462 224.084746 
L 583.989552 210.416949 
L 584.966642 271.067797 
L 585.943733 250.566102 
L 586.920823 262.525424 
L 587.897913 177.101695 
L 588.875004 307.8 
L 592.783365 307.8 
L 593.760455 303.528814 
L 594.737546 275.338983 
L 595.714636 307.8 
L 597.668817 307.8 
L 598.645907 278.755932 
L 599.622997 299.257627 
L 600.600088 212.125424 
L 601.577178 300.111864 
L 602.554268 307.8 
L 604.508449 307.8 
L 605.485539 240.315254 
L 606.46263 307.8 
L 607.43972 307.8 
L 608.41681 281.318644 
L 609.3939 307.8 
L 610.370991 307.8 
L 611.348081 277.901695 
L 612.325171 300.111864 
L 613.302262 245.440678 
L 614.279352 265.942373 
L 615.256442 269.359322 
L 616.233533 193.332203 
L 617.210623 307.8 
L 618.187713 307.8 
L 619.164804 290.715254 
L 620.141894 225.79322 
L 621.118984 206.145763 
L 622.096075 204.437288 
L 623.073165 55.8 
L 624.050255 307.8 
L 626.004436 276.19322 
L 626.981526 239.461017 
L 627.958617 279.610169 
L 628.935707 255.691525 
L 629.912797 243.732203 
L 630.889888 194.186441 
L 631.866978 307.8 
L 632.844068 156.6 
L 633.821159 182.227119 
L 634.798249 213.833898 
L 635.775339 265.942373 
L 636.75243 234.335593 
L 637.72952 220.667797 
L 638.70661 307.8 
L 639.683701 307.8 
L 640.660791 265.088136 
L 641.637881 307.8 
L 642.614972 292.423729 
L 643.592062 304.383051 
L 644.569152 307.8 
L 645.546243 271.067797 
L 646.523333 307.8 
L 647.500423 214.688136 
L 648.477513 307.8 
L 650.431694 307.8 
L 651.408784 134.389831 
L 652.385875 181.372881 
L 653.362965 249.711864 
L 654.340055 219.813559 
L 655.317146 307.8 
L 656.294236 239.461017 
L 657.271326 307.8 
L 658.248417 307.8 
L 659.225507 273.630508 
L 660.202597 307.8 
L 661.179688 211.271186 
L 662.156778 307.8 
L 663.133868 247.149153 
L 664.110959 248.00339 
L 665.088049 227.501695 
L 666.065139 137.80678 
L 667.04223 207 
L 668.01932 215.542373 
L 668.99641 203.583051 
L 669.973501 283.881356 
L 670.950591 108.762712 
L 671.927681 179.664407 
L 672.904772 307.8 
L 673.881862 192.477966 
L 674.858952 211.271186 
L 675.836043 249.711864 
L 676.813133 103.637288 
L 677.790223 183.081356 
L 678.767314 244.586441 
L 679.744404 210.416949 
L 680.721494 253.128814 
L 681.698585 304.383051 
L 682.675675 306.945763 
L 683.652765 160.871186 
L 684.629856 224.084746 
L 686.584036 186.498305 
L 687.561127 286.444068 
L 688.538217 307.8 
L 690.492397 307.8 
L 691.469488 271.067797 
L 692.446578 307.8 
L 693.423668 198.457627 
L 694.400759 307.8 
L 695.377849 307.8 
L 696.354939 302.674576 
L 697.33203 269.359322 
L 698.30912 307.8 
L 699.28621 289.861017 
L 700.263301 301.820339 
L 701.240391 307.8 
L 702.217481 307.8 
L 703.194572 218.959322 
L 704.171662 307.8 
L 705.148752 307.8 
L 706.125843 223.230508 
L 707.102933 307.8 
L 711.011294 307.8 
L 711.988385 277.901695 
L 712.965475 221.522034 
L 713.942565 212.979661 
L 714.919656 150.620339 
L 715.896746 225.79322 
L 716.873836 214.688136 
L 717.850927 197.60339 
L 718.828017 286.444068 
L 719.805107 251.420339 
L 720.782198 184.789831 
L 721.759288 278.755932 
L 722.736378 179.664407 
L 723.713469 275.338983 
L 724.690559 114.742373 
L 725.667649 279.610169 
L 726.64474 285.589831 
L 727.62183 259.108475 
L 728.59892 307.8 
L 730.553101 184.789831 
L 731.530191 130.972881 
L 732.507281 118.159322 
L 733.484372 223.230508 
L 734.461462 239.461017 
L 735.438552 165.99661 
L 736.415643 246.294915 
L 737.392733 236.044068 
L 738.369823 307.8 
L 739.346914 307.8 
L 740.324004 300.111864 
L 741.301094 294.132203 
L 742.278185 307.8 
L 743.255275 295.840678 
L 744.232365 307.8 
L 746.186546 307.8 
L 747.163636 263.379661 
L 747.163636 263.379661 
" clip-path="url(#p8c9d1daf66)" style="fill: none; stroke: #191970; stroke-width: 2; stroke-linecap: square"/>
   </g>
   <g id="patch_3">
    <path d="M 108 320.4 
L 108 43.2 
" style="fill: none; stroke: #000000; stroke-width: 0.8; stroke-linejoin: miter; stroke-linecap: square"/>
   </g>
   <g id="patch_4">
    <path d="M 777.6 320.4 
L 777.6 43.2 
" style="fill: none; stroke: #000000; stroke-width: 0.8; stroke-linejoin: miter; stroke-linecap: square"/>
   </g>
   <g id="patch_5">
    <path d="M 108 320.4 
L 777.6 320.4 
" style="fill: none; stroke: #000000; stroke-width: 0.8; stroke-linejoin: miter; stroke-linecap: square"/>
   </g>
   <g id="patch_6">
    <path d="M 108 43.2 
L 777.6 43.2 
" style="fill: none; stroke: #000000; stroke-width: 0.8; stroke-linejoin: miter; stroke-linecap: square"/>
   </g>
   <g id="text_17">
    <!-- TIME SERIES -->
    <g transform="translate(405.350625 37.2) scale(0.12 -0.12)">
     <defs>
      <path id="DejaVuSans-52" d="M 2841 2188 
Q 3044 2119 3236 1894 
Q 3428 1669 3622 1275 
L 4263 0 
L 3584 0 
L 2988 1197 
Q 2756 1666 2539 1819 
Q 2322 1972 1947 1972 
L 1259 1972 
L 1259 0 
L 628 0 
L 628 4666 
L 2053 4666 
Q 2853 4666 3247 4331 
Q 3641 3997 3641 3322 
Q 3641 2881 3436 2590 
Q 3231 2300 2841 2188 
z
M 1259 4147 
L 1259 2491 
L 2053 2491 
Q 2509 2491 2742 2702 
Q 2975 2913 2975 3322 
Q 2975 3731 2742 3939 
Q 2509 4147 2053 4147 
L 1259 4147 
z
" transform="scale(0.015625)"/>
     </defs>
     <use xlink:href="#DejaVuSans-54"/>
     <use xlink:href="#DejaVuSans-49" x="61.083984"/>
     <use xlink:href="#DejaVuSans-4d" x="90.576172"/>
     <use xlink:href="#DejaVuSans-45" x="176.855469"/>
     <use xlink:href="#DejaVuSans-20" x="240.039062"/>
     <use xlink:href="#DejaVuSans-53" x="271.826172"/>
     <use xlink:href="#DejaVuSans-45" x="335.302734"/>
     <use xlink:href="#DejaVuSans-52" x="398.486328"/>
     <use xlink:href="#DejaVuSans-49" x="467.96875"/>
     <use xlink:href="#DejaVuSans-45" x="497.460938"/>
     <use xlink:href="#DejaVuSans-53" x="560.644531"/>
    </g>
   </g>
  </g>
 </g>
 <defs>
  <clipPath id="p8c9d1daf66">
   <rect x="108" y="43.2" width="669.6" height="277.2"/>
  </clipPath>
 </defs>
</svg>
