<?xml version="1.0" encoding="utf-8" standalone="no"?>
<!DOCTYPE svg PUBLIC "-//W3C//DTD SVG 1.1//EN"
  "http://www.w3.org/Graphics/SVG/1.1/DTD/svg11.dtd">
<svg xmlns:xlink="http://www.w3.org/1999/xlink" width="864pt" height="360pt" viewBox="0 0 864 360" xmlns="http://www.w3.org/2000/svg" version="1.1">
 <metadata>
  <rdf:RDF xmlns:dc="http://purl.org/dc/elements/1.1/" xmlns:cc="http://creativecommons.org/ns#" xmlns:rdf="http://www.w3.org/1999/02/22-rdf-syntax-ns#">
   <cc:Work>
    <dc:type rdf:resource="http://purl.org/dc/dcmitype/StillImage"/>
    <dc:date>2023-08-03T16:31:22.290994</dc:date>
    <dc:format>image/svg+xml</dc:format>
    <dc:creator>
     <cc:Agent>
      <dc:title>Matplotlib v3.7.1, https://matplotlib.org/</dc:title>
     </cc:Agent>
    </dc:creator>
   </cc:Work>
  </rdf:RDF>
 </metadata>
 <defs>
  <style type="text/css">*{stroke-linejoin: round; stroke-linecap: butt}</style>
 </defs>
 <g id="figure_1">
  <g id="patch_1">
   <path d="M 0 360 
L 864 360 
L 864 0 
L 0 0 
z
" style="fill: #ffffff"/>
  </g>
  <g id="axes_1">
   <g id="patch_2">
    <path d="M 108 320.4 
L 777.6 320.4 
L 777.6 43.2 
L 108 43.2 
z
" style="fill: #ffffff"/>
   </g>
   <g id="matplotlib.axis_1">
    <g id="xtick_1">
     <g id="line2d_1">
      <defs>
       <path id="m275e663160" d="M 0 0 
L 0 3.5 
" style="stroke: #000000; stroke-width: 0.8"/>
      </defs>
      <g>
       <use xlink:href="#m275e663160" x="138.436364" y="320.4" style="stroke: #000000; stroke-width: 0.8"/>
      </g>
     </g>
     <g id="text_1">
      <!-- 2022-01-01 -->
      <g transform="translate(109.378551 334.998438) scale(0.1 -0.1)">
       <defs>
        <path id="DejaVuSans-32" d="M 1228 531 
L 3431 531 
L 3431 0 
L 469 0 
L 469 531 
Q 828 903 1448 1529 
Q 2069 2156 2228 2338 
Q 2531 2678 2651 2914 
Q 2772 3150 2772 3378 
Q 2772 3750 2511 3984 
Q 2250 4219 1831 4219 
Q 1534 4219 1204 4116 
Q 875 4013 500 3803 
L 500 4441 
Q 881 4594 1212 4672 
Q 1544 4750 1819 4750 
Q 2544 4750 2975 4387 
Q 3406 4025 3406 3419 
Q 3406 3131 3298 2873 
Q 3191 2616 2906 2266 
Q 2828 2175 2409 1742 
Q 1991 1309 1228 531 
z
" transform="scale(0.015625)"/>
        <path id="DejaVuSans-30" d="M 2034 4250 
Q 1547 4250 1301 3770 
Q 1056 3291 1056 2328 
Q 1056 1369 1301 889 
Q 1547 409 2034 409 
Q 2525 409 2770 889 
Q 3016 1369 3016 2328 
Q 3016 3291 2770 3770 
Q 2525 4250 2034 4250 
z
M 2034 4750 
Q 2819 4750 3233 4129 
Q 3647 3509 3647 2328 
Q 3647 1150 3233 529 
Q 2819 -91 2034 -91 
Q 1250 -91 836 529 
Q 422 1150 422 2328 
Q 422 3509 836 4129 
Q 1250 4750 2034 4750 
z
" transform="scale(0.015625)"/>
        <path id="DejaVuSans-2d" d="M 313 2009 
L 1997 2009 
L 1997 1497 
L 313 1497 
L 313 2009 
z
" transform="scale(0.015625)"/>
        <path id="DejaVuSans-31" d="M 794 531 
L 1825 531 
L 1825 4091 
L 703 3866 
L 703 4441 
L 1819 4666 
L 2450 4666 
L 2450 531 
L 3481 531 
L 3481 0 
L 794 0 
L 794 531 
z
" transform="scale(0.015625)"/>
       </defs>
       <use xlink:href="#DejaVuSans-32"/>
       <use xlink:href="#DejaVuSans-30" x="63.623047"/>
       <use xlink:href="#DejaVuSans-32" x="127.246094"/>
       <use xlink:href="#DejaVuSans-32" x="190.869141"/>
       <use xlink:href="#DejaVuSans-2d" x="254.492188"/>
       <use xlink:href="#DejaVuSans-30" x="290.576172"/>
       <use xlink:href="#DejaVuSans-31" x="354.199219"/>
       <use xlink:href="#DejaVuSans-2d" x="417.822266"/>
       <use xlink:href="#DejaVuSans-30" x="453.90625"/>
       <use xlink:href="#DejaVuSans-31" x="517.529297"/>
      </g>
     </g>
    </g>
    <g id="xtick_2">
     <g id="line2d_2">
      <g>
       <use xlink:href="#m275e663160" x="232.237035" y="320.4" style="stroke: #000000; stroke-width: 0.8"/>
      </g>
     </g>
     <g id="text_2">
      <!-- 2022-01-03 -->
      <g transform="translate(203.179222 334.998438) scale(0.1 -0.1)">
       <defs>
        <path id="DejaVuSans-33" d="M 2597 2516 
Q 3050 2419 3304 2112 
Q 3559 1806 3559 1356 
Q 3559 666 3084 287 
Q 2609 -91 1734 -91 
Q 1441 -91 1130 -33 
Q 819 25 488 141 
L 488 750 
Q 750 597 1062 519 
Q 1375 441 1716 441 
Q 2309 441 2620 675 
Q 2931 909 2931 1356 
Q 2931 1769 2642 2001 
Q 2353 2234 1838 2234 
L 1294 2234 
L 1294 2753 
L 1863 2753 
Q 2328 2753 2575 2939 
Q 2822 3125 2822 3475 
Q 2822 3834 2567 4026 
Q 2313 4219 1838 4219 
Q 1578 4219 1281 4162 
Q 984 4106 628 3988 
L 628 4550 
Q 988 4650 1302 4700 
Q 1616 4750 1894 4750 
Q 2613 4750 3031 4423 
Q 3450 4097 3450 3541 
Q 3450 3153 3228 2886 
Q 3006 2619 2597 2516 
z
" transform="scale(0.015625)"/>
       </defs>
       <use xlink:href="#DejaVuSans-32"/>
       <use xlink:href="#DejaVuSans-30" x="63.623047"/>
       <use xlink:href="#DejaVuSans-32" x="127.246094"/>
       <use xlink:href="#DejaVuSans-32" x="190.869141"/>
       <use xlink:href="#DejaVuSans-2d" x="254.492188"/>
       <use xlink:href="#DejaVuSans-30" x="290.576172"/>
       <use xlink:href="#DejaVuSans-31" x="354.199219"/>
       <use xlink:href="#DejaVuSans-2d" x="417.822266"/>
       <use xlink:href="#DejaVuSans-30" x="453.90625"/>
       <use xlink:href="#DejaVuSans-33" x="517.529297"/>
      </g>
     </g>
    </g>
    <g id="xtick_3">
     <g id="line2d_3">
      <g>
       <use xlink:href="#m275e663160" x="326.037706" y="320.4" style="stroke: #000000; stroke-width: 0.8"/>
      </g>
     </g>
     <g id="text_3">
      <!-- 2022-01-05 -->
      <g transform="translate(296.979894 334.998438) scale(0.1 -0.1)">
       <defs>
        <path id="DejaVuSans-35" d="M 691 4666 
L 3169 4666 
L 3169 4134 
L 1269 4134 
L 1269 2991 
Q 1406 3038 1543 3061 
Q 1681 3084 1819 3084 
Q 2600 3084 3056 2656 
Q 3513 2228 3513 1497 
Q 3513 744 3044 326 
Q 2575 -91 1722 -91 
Q 1428 -91 1123 -41 
Q 819 9 494 109 
L 494 744 
Q 775 591 1075 516 
Q 1375 441 1709 441 
Q 2250 441 2565 725 
Q 2881 1009 2881 1497 
Q 2881 1984 2565 2268 
Q 2250 2553 1709 2553 
Q 1456 2553 1204 2497 
Q 953 2441 691 2322 
L 691 4666 
z
" transform="scale(0.015625)"/>
       </defs>
       <use xlink:href="#DejaVuSans-32"/>
       <use xlink:href="#DejaVuSans-30" x="63.623047"/>
       <use xlink:href="#DejaVuSans-32" x="127.246094"/>
       <use xlink:href="#DejaVuSans-32" x="190.869141"/>
       <use xlink:href="#DejaVuSans-2d" x="254.492188"/>
       <use xlink:href="#DejaVuSans-30" x="290.576172"/>
       <use xlink:href="#DejaVuSans-31" x="354.199219"/>
       <use xlink:href="#DejaVuSans-2d" x="417.822266"/>
       <use xlink:href="#DejaVuSans-30" x="453.90625"/>
       <use xlink:href="#DejaVuSans-35" x="517.529297"/>
      </g>
     </g>
    </g>
    <g id="xtick_4">
     <g id="line2d_4">
      <g>
       <use xlink:href="#m275e663160" x="419.838377" y="320.4" style="stroke: #000000; stroke-width: 0.8"/>
      </g>
     </g>
     <g id="text_4">
      <!-- 2022-01-07 -->
      <g transform="translate(390.780565 334.998438) scale(0.1 -0.1)">
       <defs>
        <path id="DejaVuSans-37" d="M 525 4666 
L 3525 4666 
L 3525 4397 
L 1831 0 
L 1172 0 
L 2766 4134 
L 525 4134 
L 525 4666 
z
" transform="scale(0.015625)"/>
       </defs>
       <use xlink:href="#DejaVuSans-32"/>
       <use xlink:href="#DejaVuSans-30" x="63.623047"/>
       <use xlink:href="#DejaVuSans-32" x="127.246094"/>
       <use xlink:href="#DejaVuSans-32" x="190.869141"/>
       <use xlink:href="#DejaVuSans-2d" x="254.492188"/>
       <use xlink:href="#DejaVuSans-30" x="290.576172"/>
       <use xlink:href="#DejaVuSans-31" x="354.199219"/>
       <use xlink:href="#DejaVuSans-2d" x="417.822266"/>
       <use xlink:href="#DejaVuSans-30" x="453.90625"/>
       <use xlink:href="#DejaVuSans-37" x="517.529297"/>
      </g>
     </g>
    </g>
    <g id="xtick_5">
     <g id="line2d_5">
      <g>
       <use xlink:href="#m275e663160" x="513.639049" y="320.4" style="stroke: #000000; stroke-width: 0.8"/>
      </g>
     </g>
     <g id="text_5">
      <!-- 2022-01-09 -->
      <g transform="translate(484.581236 334.998438) scale(0.1 -0.1)">
       <defs>
        <path id="DejaVuSans-39" d="M 703 97 
L 703 672 
Q 941 559 1184 500 
Q 1428 441 1663 441 
Q 2288 441 2617 861 
Q 2947 1281 2994 2138 
Q 2813 1869 2534 1725 
Q 2256 1581 1919 1581 
Q 1219 1581 811 2004 
Q 403 2428 403 3163 
Q 403 3881 828 4315 
Q 1253 4750 1959 4750 
Q 2769 4750 3195 4129 
Q 3622 3509 3622 2328 
Q 3622 1225 3098 567 
Q 2575 -91 1691 -91 
Q 1453 -91 1209 -44 
Q 966 3 703 97 
z
M 1959 2075 
Q 2384 2075 2632 2365 
Q 2881 2656 2881 3163 
Q 2881 3666 2632 3958 
Q 2384 4250 1959 4250 
Q 1534 4250 1286 3958 
Q 1038 3666 1038 3163 
Q 1038 2656 1286 2365 
Q 1534 2075 1959 2075 
z
" transform="scale(0.015625)"/>
       </defs>
       <use xlink:href="#DejaVuSans-32"/>
       <use xlink:href="#DejaVuSans-30" x="63.623047"/>
       <use xlink:href="#DejaVuSans-32" x="127.246094"/>
       <use xlink:href="#DejaVuSans-32" x="190.869141"/>
       <use xlink:href="#DejaVuSans-2d" x="254.492188"/>
       <use xlink:href="#DejaVuSans-30" x="290.576172"/>
       <use xlink:href="#DejaVuSans-31" x="354.199219"/>
       <use xlink:href="#DejaVuSans-2d" x="417.822266"/>
       <use xlink:href="#DejaVuSans-30" x="453.90625"/>
       <use xlink:href="#DejaVuSans-39" x="517.529297"/>
      </g>
     </g>
    </g>
    <g id="xtick_6">
     <g id="line2d_6">
      <g>
       <use xlink:href="#m275e663160" x="607.43972" y="320.4" style="stroke: #000000; stroke-width: 0.8"/>
      </g>
     </g>
     <g id="text_6">
      <!-- 2022-01-11 -->
      <g transform="translate(578.381907 334.998438) scale(0.1 -0.1)">
       <use xlink:href="#DejaVuSans-32"/>
       <use xlink:href="#DejaVuSans-30" x="63.623047"/>
       <use xlink:href="#DejaVuSans-32" x="127.246094"/>
       <use xlink:href="#DejaVuSans-32" x="190.869141"/>
       <use xlink:href="#DejaVuSans-2d" x="254.492188"/>
       <use xlink:href="#DejaVuSans-30" x="290.576172"/>
       <use xlink:href="#DejaVuSans-31" x="354.199219"/>
       <use xlink:href="#DejaVuSans-2d" x="417.822266"/>
       <use xlink:href="#DejaVuSans-31" x="453.90625"/>
       <use xlink:href="#DejaVuSans-31" x="517.529297"/>
      </g>
     </g>
    </g>
    <g id="xtick_7">
     <g id="line2d_7">
      <g>
       <use xlink:href="#m275e663160" x="701.240391" y="320.4" style="stroke: #000000; stroke-width: 0.8"/>
      </g>
     </g>
     <g id="text_7">
      <!-- 2022-01-13 -->
      <g transform="translate(672.182579 334.998438) scale(0.1 -0.1)">
       <use xlink:href="#DejaVuSans-32"/>
       <use xlink:href="#DejaVuSans-30" x="63.623047"/>
       <use xlink:href="#DejaVuSans-32" x="127.246094"/>
       <use xlink:href="#DejaVuSans-32" x="190.869141"/>
       <use xlink:href="#DejaVuSans-2d" x="254.492188"/>
       <use xlink:href="#DejaVuSans-30" x="290.576172"/>
       <use xlink:href="#DejaVuSans-31" x="354.199219"/>
       <use xlink:href="#DejaVuSans-2d" x="417.822266"/>
       <use xlink:href="#DejaVuSans-31" x="453.90625"/>
       <use xlink:href="#DejaVuSans-33" x="517.529297"/>
      </g>
     </g>
    </g>
    <g id="text_8">
     <!-- TIME (DAYS) -->
     <g transform="translate(412.283594 348.676562) scale(0.1 -0.1)">
      <defs>
       <path id="DejaVuSans-54" d="M -19 4666 
L 3928 4666 
L 3928 4134 
L 2272 4134 
L 2272 0 
L 1638 0 
L 1638 4134 
L -19 4134 
L -19 4666 
z
" transform="scale(0.015625)"/>
       <path id="DejaVuSans-49" d="M 628 4666 
L 1259 4666 
L 1259 0 
L 628 0 
L 628 4666 
z
" transform="scale(0.015625)"/>
       <path id="DejaVuSans-4d" d="M 628 4666 
L 1569 4666 
L 2759 1491 
L 3956 4666 
L 4897 4666 
L 4897 0 
L 4281 0 
L 4281 4097 
L 3078 897 
L 2444 897 
L 1241 4097 
L 1241 0 
L 628 0 
L 628 4666 
z
" transform="scale(0.015625)"/>
       <path id="DejaVuSans-45" d="M 628 4666 
L 3578 4666 
L 3578 4134 
L 1259 4134 
L 1259 2753 
L 3481 2753 
L 3481 2222 
L 1259 2222 
L 1259 531 
L 3634 531 
L 3634 0 
L 628 0 
L 628 4666 
z
" transform="scale(0.015625)"/>
       <path id="DejaVuSans-20" transform="scale(0.015625)"/>
       <path id="DejaVuSans-28" d="M 1984 4856 
Q 1566 4138 1362 3434 
Q 1159 2731 1159 2009 
Q 1159 1288 1364 580 
Q 1569 -128 1984 -844 
L 1484 -844 
Q 1016 -109 783 600 
Q 550 1309 550 2009 
Q 550 2706 781 3412 
Q 1013 4119 1484 4856 
L 1984 4856 
z
" transform="scale(0.015625)"/>
       <path id="DejaVuSans-44" d="M 1259 4147 
L 1259 519 
L 2022 519 
Q 2988 519 3436 956 
Q 3884 1394 3884 2338 
Q 3884 3275 3436 3711 
Q 2988 4147 2022 4147 
L 1259 4147 
z
M 628 4666 
L 1925 4666 
Q 3281 4666 3915 4102 
Q 4550 3538 4550 2338 
Q 4550 1131 3912 565 
Q 3275 0 1925 0 
L 628 0 
L 628 4666 
z
" transform="scale(0.015625)"/>
       <path id="DejaVuSans-41" d="M 2188 4044 
L 1331 1722 
L 3047 1722 
L 2188 4044 
z
M 1831 4666 
L 2547 4666 
L 4325 0 
L 3669 0 
L 3244 1197 
L 1141 1197 
L 716 0 
L 50 0 
L 1831 4666 
z
" transform="scale(0.015625)"/>
       <path id="DejaVuSans-59" d="M -13 4666 
L 666 4666 
L 1959 2747 
L 3244 4666 
L 3922 4666 
L 2272 2222 
L 2272 0 
L 1638 0 
L 1638 2222 
L -13 4666 
z
" transform="scale(0.015625)"/>
       <path id="DejaVuSans-53" d="M 3425 4513 
L 3425 3897 
Q 3066 4069 2747 4153 
Q 2428 4238 2131 4238 
Q 1616 4238 1336 4038 
Q 1056 3838 1056 3469 
Q 1056 3159 1242 3001 
Q 1428 2844 1947 2747 
L 2328 2669 
Q 3034 2534 3370 2195 
Q 3706 1856 3706 1288 
Q 3706 609 3251 259 
Q 2797 -91 1919 -91 
Q 1588 -91 1214 -16 
Q 841 59 441 206 
L 441 856 
Q 825 641 1194 531 
Q 1563 422 1919 422 
Q 2459 422 2753 634 
Q 3047 847 3047 1241 
Q 3047 1584 2836 1778 
Q 2625 1972 2144 2069 
L 1759 2144 
Q 1053 2284 737 2584 
Q 422 2884 422 3419 
Q 422 4038 858 4394 
Q 1294 4750 2059 4750 
Q 2388 4750 2728 4690 
Q 3069 4631 3425 4513 
z
" transform="scale(0.015625)"/>
       <path id="DejaVuSans-29" d="M 513 4856 
L 1013 4856 
Q 1481 4119 1714 3412 
Q 1947 2706 1947 2009 
Q 1947 1309 1714 600 
Q 1481 -109 1013 -844 
L 513 -844 
Q 928 -128 1133 580 
Q 1338 1288 1338 2009 
Q 1338 2731 1133 3434 
Q 928 4138 513 4856 
z
" transform="scale(0.015625)"/>
      </defs>
      <use xlink:href="#DejaVuSans-54"/>
      <use xlink:href="#DejaVuSans-49" x="61.083984"/>
      <use xlink:href="#DejaVuSans-4d" x="90.576172"/>
      <use xlink:href="#DejaVuSans-45" x="176.855469"/>
      <use xlink:href="#DejaVuSans-20" x="240.039062"/>
      <use xlink:href="#DejaVuSans-28" x="271.826172"/>
      <use xlink:href="#DejaVuSans-44" x="310.839844"/>
      <use xlink:href="#DejaVuSans-41" x="386.091797"/>
      <use xlink:href="#DejaVuSans-59" x="446.75"/>
      <use xlink:href="#DejaVuSans-53" x="507.833984"/>
      <use xlink:href="#DejaVuSans-29" x="571.310547"/>
     </g>
    </g>
   </g>
   <g id="matplotlib.axis_2">
    <g id="ytick_1">
     <g id="line2d_8">
      <defs>
       <path id="m62bcd6cf26" d="M 0 0 
L -3.5 0 
" style="stroke: #000000; stroke-width: 0.8"/>
      </defs>
      <g>
       <use xlink:href="#m62bcd6cf26" x="108" y="307.8" style="stroke: #000000; stroke-width: 0.8"/>
      </g>
     </g>
     <g id="text_9">
      <!-- 0 -->
      <g transform="translate(94.6375 311.599219) scale(0.1 -0.1)">
       <use xlink:href="#DejaVuSans-30"/>
      </g>
     </g>
    </g>
    <g id="ytick_2">
     <g id="line2d_9">
      <g>
       <use xlink:href="#m62bcd6cf26" x="108" y="263.277032" style="stroke: #000000; stroke-width: 0.8"/>
      </g>
     </g>
     <g id="text_10">
      <!-- 50 -->
      <g transform="translate(88.275 267.076251) scale(0.1 -0.1)">
       <use xlink:href="#DejaVuSans-35"/>
       <use xlink:href="#DejaVuSans-30" x="63.623047"/>
      </g>
     </g>
    </g>
    <g id="ytick_3">
     <g id="line2d_10">
      <g>
       <use xlink:href="#m62bcd6cf26" x="108" y="218.754064" style="stroke: #000000; stroke-width: 0.8"/>
      </g>
     </g>
     <g id="text_11">
      <!-- 100 -->
      <g transform="translate(81.9125 222.553282) scale(0.1 -0.1)">
       <use xlink:href="#DejaVuSans-31"/>
       <use xlink:href="#DejaVuSans-30" x="63.623047"/>
       <use xlink:href="#DejaVuSans-30" x="127.246094"/>
      </g>
     </g>
    </g>
    <g id="ytick_4">
     <g id="line2d_11">
      <g>
       <use xlink:href="#m62bcd6cf26" x="108" y="174.231095" style="stroke: #000000; stroke-width: 0.8"/>
      </g>
     </g>
     <g id="text_12">
      <!-- 150 -->
      <g transform="translate(81.9125 178.030314) scale(0.1 -0.1)">
       <use xlink:href="#DejaVuSans-31"/>
       <use xlink:href="#DejaVuSans-35" x="63.623047"/>
       <use xlink:href="#DejaVuSans-30" x="127.246094"/>
      </g>
     </g>
    </g>
    <g id="ytick_5">
     <g id="line2d_12">
      <g>
       <use xlink:href="#m62bcd6cf26" x="108" y="129.708127" style="stroke: #000000; stroke-width: 0.8"/>
      </g>
     </g>
     <g id="text_13">
      <!-- 200 -->
      <g transform="translate(81.9125 133.507346) scale(0.1 -0.1)">
       <use xlink:href="#DejaVuSans-32"/>
       <use xlink:href="#DejaVuSans-30" x="63.623047"/>
       <use xlink:href="#DejaVuSans-30" x="127.246094"/>
      </g>
     </g>
    </g>
    <g id="ytick_6">
     <g id="line2d_13">
      <g>
       <use xlink:href="#m62bcd6cf26" x="108" y="85.185159" style="stroke: #000000; stroke-width: 0.8"/>
      </g>
     </g>
     <g id="text_14">
      <!-- 250 -->
      <g transform="translate(81.9125 88.984378) scale(0.1 -0.1)">
       <use xlink:href="#DejaVuSans-32"/>
       <use xlink:href="#DejaVuSans-35" x="63.623047"/>
       <use xlink:href="#DejaVuSans-30" x="127.246094"/>
      </g>
     </g>
    </g>
    <g id="text_15">
     <!-- AMPLITUDE -->
     <g transform="translate(75.832812 210.532812) rotate(-90) scale(0.1 -0.1)">
      <defs>
       <path id="DejaVuSans-50" d="M 1259 4147 
L 1259 2394 
L 2053 2394 
Q 2494 2394 2734 2622 
Q 2975 2850 2975 3272 
Q 2975 3691 2734 3919 
Q 2494 4147 2053 4147 
L 1259 4147 
z
M 628 4666 
L 2053 4666 
Q 2838 4666 3239 4311 
Q 3641 3956 3641 3272 
Q 3641 2581 3239 2228 
Q 2838 1875 2053 1875 
L 1259 1875 
L 1259 0 
L 628 0 
L 628 4666 
z
" transform="scale(0.015625)"/>
       <path id="DejaVuSans-4c" d="M 628 4666 
L 1259 4666 
L 1259 531 
L 3531 531 
L 3531 0 
L 628 0 
L 628 4666 
z
" transform="scale(0.015625)"/>
       <path id="DejaVuSans-55" d="M 556 4666 
L 1191 4666 
L 1191 1831 
Q 1191 1081 1462 751 
Q 1734 422 2344 422 
Q 2950 422 3222 751 
Q 3494 1081 3494 1831 
L 3494 4666 
L 4128 4666 
L 4128 1753 
Q 4128 841 3676 375 
Q 3225 -91 2344 -91 
Q 1459 -91 1007 375 
Q 556 841 556 1753 
L 556 4666 
z
" transform="scale(0.015625)"/>
      </defs>
      <use xlink:href="#DejaVuSans-41"/>
      <use xlink:href="#DejaVuSans-4d" x="68.408203"/>
      <use xlink:href="#DejaVuSans-50" x="154.6875"/>
      <use xlink:href="#DejaVuSans-4c" x="214.990234"/>
      <use xlink:href="#DejaVuSans-49" x="270.703125"/>
      <use xlink:href="#DejaVuSans-54" x="300.195312"/>
      <use xlink:href="#DejaVuSans-55" x="361.279297"/>
      <use xlink:href="#DejaVuSans-44" x="434.472656"/>
      <use xlink:href="#DejaVuSans-45" x="511.474609"/>
     </g>
    </g>
   </g>
   <g id="line2d_14">
    <path d="M 138.436364 281.976678 
L 139.413454 299.785866 
L 140.390544 242.796466 
L 141.367635 299.785866 
L 142.344725 307.8 
L 143.321815 286.428975 
L 144.298906 244.577385 
L 145.275996 267.729329 
L 146.253086 219.644523 
L 147.230177 307.8 
L 148.207267 250.810601 
L 149.184357 224.09682 
L 150.161448 273.962544 
L 151.138538 293.55265 
L 152.115628 242.796466 
L 153.092719 306.909541 
L 154.069809 307.8 
L 155.046899 307.8 
L 157.00108 271.291166 
L 157.97817 307.8 
L 158.95526 307.8 
L 159.932351 272.181625 
L 160.909441 255.262898 
L 161.886531 260.605654 
L 162.863622 258.824735 
L 163.840712 281.086219 
L 164.817802 255.262898 
L 165.794893 307.8 
L 166.771983 264.167491 
L 167.749073 269.510247 
L 169.703254 253.481979 
L 170.680344 209.84947 
L 171.657435 265.057951 
L 172.634525 255.262898 
L 174.588706 219.644523 
L 175.565796 304.238163 
L 176.542886 264.167491 
L 177.519977 292.662191 
L 178.497067 240.125088 
L 179.474157 283.757597 
L 180.451248 167.99788 
L 181.428338 241.015548 
L 182.405428 248.139223 
L 183.382519 307.8 
L 184.359609 243.686926 
L 185.336699 307.8 
L 186.31379 307.8 
L 187.29088 303.347703 
L 188.26797 294.44311 
L 189.245061 307.8 
L 190.222151 289.100353 
L 191.199241 307.8 
L 192.176332 151.079152 
L 193.153422 307.8 
L 194.130512 306.019081 
L 195.107603 255.262898 
L 196.084693 242.796466 
L 197.061783 304.238163 
L 198.038873 307.8 
L 199.015964 287.319435 
L 199.993054 307.8 
L 200.970144 272.181625 
L 201.947235 307.8 
L 202.924325 287.319435 
L 203.901415 250.810601 
L 204.878506 297.114488 
L 205.855596 255.262898 
L 206.832686 269.510247 
L 207.809777 265.057951 
L 208.786867 307.8 
L 210.741048 307.8 
L 211.718138 217.863604 
L 212.695228 248.139223 
L 213.672319 246.358304 
L 214.649409 250.810601 
L 215.626499 214.301767 
L 216.60359 210.739929 
L 217.58068 287.319435 
L 218.55777 300.676325 
L 219.534861 235.672792 
L 220.511951 242.796466 
L 221.489041 163.545583 
L 222.466132 110.118021 
L 223.443222 201.835336 
L 224.420312 211.630389 
L 225.397403 305.128622 
L 226.374493 167.10742 
L 227.351583 269.510247 
L 228.328674 198.273498 
L 229.305764 215.192226 
L 230.282854 197.383039 
L 231.259945 297.114488 
L 233.214125 158.202827 
L 235.168306 282.867138 
L 236.145396 280.19576 
L 237.122487 197.383039 
L 238.099577 307.8 
L 239.076667 234.782332 
L 240.053757 262.386572 
L 241.030848 297.114488 
L 242.007938 281.976678 
L 242.985028 221.425442 
L 243.962119 264.167491 
L 244.939209 256.153357 
L 245.916299 289.990813 
L 246.89339 307.8 
L 248.84757 307.8 
L 249.824661 292.662191 
L 250.801751 307.8 
L 251.778841 218.754064 
L 252.755932 307.8 
L 253.733022 229.439576 
L 254.710112 278.414841 
L 255.687203 307.8 
L 256.664293 265.94841 
L 257.641383 276.633922 
L 258.618474 298.895406 
L 259.595564 200.054417 
L 260.572654 288.209894 
L 261.549745 307.8 
L 262.526835 270.400707 
L 263.503925 227.658657 
L 264.481016 160.874205 
L 265.458106 185.807067 
L 266.435196 127.036749 
L 267.412287 265.057951 
L 268.389377 244.577385 
L 269.366467 228.549117 
L 270.343558 268.619788 
L 271.320648 243.686926 
L 272.297738 150.188693 
L 273.274829 302.457244 
L 274.251919 210.739929 
L 275.229009 244.577385 
L 276.2061 253.481979 
L 277.18319 235.672792 
L 278.16028 224.987279 
L 279.13737 307.8 
L 280.114461 264.167491 
L 281.091551 252.591519 
L 282.068641 307.8 
L 283.045732 249.029682 
L 284.022822 214.301767 
L 284.999912 269.510247 
L 285.977003 307.8 
L 286.954093 231.220495 
L 287.931183 291.771731 
L 288.908274 307.8 
L 289.885364 207.178092 
L 290.862454 257.934276 
L 291.839545 255.262898 
L 292.816635 237.45371 
L 293.793725 307.8 
L 294.770816 259.715194 
L 295.747906 307.8 
L 296.724996 233.001413 
L 297.702087 262.386572 
L 298.679177 307.8 
L 299.656267 219.644523 
L 300.633358 212.520848 
L 301.610448 208.068551 
L 302.587538 282.867138 
L 303.564629 242.796466 
L 304.541719 258.824735 
L 305.518809 186.697527 
L 306.4959 278.414841 
L 307.47299 283.757597 
L 308.45008 181.35477 
L 309.427171 195.60212 
L 311.381351 307.8 
L 312.358442 105.665724 
L 313.335532 220.534982 
L 314.312622 257.043816 
L 315.289713 115.460777 
L 316.266803 243.686926 
L 317.243893 256.153357 
L 318.220984 265.057951 
L 319.198074 167.99788 
L 320.175164 257.043816 
L 321.152254 250.810601 
L 322.129345 307.8 
L 323.106435 270.400707 
L 324.083525 267.729329 
L 325.060616 247.248763 
L 326.037706 214.301767 
L 327.014796 273.072085 
L 327.991887 307.8 
L 328.968977 307.8 
L 329.946067 289.990813 
L 330.923158 230.330035 
L 331.900248 296.224028 
L 332.877338 275.743463 
L 333.854429 307.8 
L 336.7857 307.8 
L 337.76279 295.333569 
L 338.73988 307.8 
L 339.716971 261.496113 
L 340.694061 307.8 
L 341.671151 307.8 
L 342.648242 282.867138 
L 343.625332 307.8 
L 345.579513 307.8 
L 346.556603 236.563251 
L 347.533693 254.372438 
L 348.510784 178.683392 
L 349.487874 301.566784 
L 350.464964 307.8 
L 351.442055 304.238163 
L 352.419145 307.8 
L 353.396235 185.807067 
L 354.373326 241.015548 
L 355.350416 279.3053 
L 356.327506 178.683392 
L 357.304597 272.181625 
L 358.281687 206.287633 
L 359.258777 200.944876 
L 360.235868 211.630389 
L 361.212958 285.538516 
L 362.190048 190.259364 
L 363.167138 178.683392 
L 364.144229 277.524382 
L 365.121319 222.315901 
L 366.098409 247.248763 
L 367.0755 291.771731 
L 368.05259 137.722261 
L 369.02968 307.8 
L 370.006771 228.549117 
L 370.983861 262.386572 
L 371.960951 307.8 
L 372.938042 202.725795 
L 373.915132 225.877739 
L 375.869313 307.8 
L 377.823493 307.8 
L 378.800584 280.19576 
L 379.777674 307.8 
L 383.686035 307.8 
L 384.663126 203.616254 
L 385.640216 307.8 
L 386.617306 283.757597 
L 387.594397 307.8 
L 388.571487 257.934276 
L 389.548577 232.110954 
L 390.525668 307.8 
L 393.456939 307.8 
L 394.434029 284.648057 
L 395.411119 216.082686 
L 396.38821 174.231095 
L 397.3653 233.001413 
L 398.34239 261.496113 
L 399.319481 200.944876 
L 400.296571 147.517314 
L 401.273661 307.8 
L 402.250751 307.8 
L 403.227842 277.524382 
L 404.204932 203.616254 
L 405.182022 233.891873 
L 406.159113 229.439576 
L 407.136203 283.757597 
L 408.113293 160.874205 
L 409.090384 147.517314 
L 410.067474 198.273498 
L 411.044564 201.835336 
L 412.021655 178.683392 
L 412.998745 181.35477 
L 413.975835 307.8 
L 414.952926 127.927208 
L 415.930016 307.8 
L 416.907106 251.70106 
L 417.884197 224.09682 
L 418.861287 260.605654 
L 419.838377 139.50318 
L 420.815468 265.94841 
L 421.792558 256.153357 
L 422.769648 277.524382 
L 423.746739 281.086219 
L 424.723829 196.49258 
L 425.700919 287.319435 
L 426.67801 277.524382 
L 427.6551 307.8 
L 430.586371 307.8 
L 431.563461 165.326502 
L 432.540552 307.8 
L 433.517642 275.743463 
L 434.494732 307.8 
L 437.426003 307.8 
L 438.403094 169.778799 
L 439.380184 268.619788 
L 440.357274 306.019081 
L 441.334365 238.34417 
L 442.311455 307.8 
L 443.288545 259.715194 
L 444.265635 256.153357 
L 445.242726 250.810601 
L 446.219816 200.944876 
L 447.196906 262.386572 
L 448.173997 140.39364 
L 449.151087 148.407774 
L 450.128177 249.029682 
L 451.105268 233.001413 
L 452.082358 184.026148 
L 453.059448 193.821201 
L 454.036539 279.3053 
L 455.013629 268.619788 
L 456.96781 150.188693 
L 457.9449 241.015548 
L 458.92199 235.672792 
L 459.899081 307.8 
L 460.876171 215.192226 
L 461.853261 306.909541 
L 462.830352 257.934276 
L 463.807442 273.072085 
L 464.784532 226.768198 
L 465.761623 243.686926 
L 466.738713 307.8 
L 468.692894 307.8 
L 469.669984 288.209894 
L 470.647074 307.8 
L 471.624165 243.686926 
L 472.601255 307.8 
L 474.555436 307.8 
L 475.532526 239.234629 
L 476.509616 200.054417 
L 477.486707 258.824735 
L 478.463797 307.8 
L 479.440887 228.549117 
L 480.417978 228.549117 
L 481.395068 307.8 
L 482.372158 307.8 
L 483.349249 281.086219 
L 484.326339 267.729329 
L 485.303429 307.8 
L 486.280519 307.8 
L 487.25761 248.139223 
L 488.2347 221.425442 
L 489.21179 301.566784 
L 490.188881 179.573852 
L 491.165971 152.860071 
L 492.143061 187.587986 
L 493.120152 210.739929 
L 494.097242 293.55265 
L 495.074332 307.8 
L 496.051423 218.754064 
L 497.028513 55.8 
L 498.005603 157.312367 
L 498.982694 240.125088 
L 499.959784 249.029682 
L 500.936874 289.100353 
L 501.913965 307.8 
L 502.891055 239.234629 
L 503.868145 281.976678 
L 504.845236 181.35477 
L 505.822326 205.397173 
L 506.799416 245.467845 
L 507.776507 244.577385 
L 508.753597 251.70106 
L 509.730687 208.959011 
L 511.684868 307.8 
L 512.661958 253.481979 
L 513.639049 289.100353 
L 514.616139 307.8 
L 515.593229 250.810601 
L 516.57032 289.990813 
L 517.54741 233.891873 
L 518.5245 307.8 
L 519.501591 272.181625 
L 520.478681 307.8 
L 521.455771 287.319435 
L 522.432862 307.8 
L 523.409952 307.8 
L 524.387042 245.467845 
L 525.364132 307.8 
L 526.341223 291.771731 
L 527.318313 293.55265 
L 528.295403 307.8 
L 529.272494 242.796466 
L 530.249584 307.8 
L 531.226674 230.330035 
L 532.203765 167.10742 
L 533.180855 251.70106 
L 534.157945 279.3053 
L 535.135036 164.436042 
L 536.112126 251.70106 
L 537.089216 153.75053 
L 538.066307 204.506714 
L 539.043397 230.330035 
L 540.020487 191.149823 
L 540.997578 214.301767 
L 541.974668 270.400707 
L 542.951758 225.877739 
L 543.928849 173.340636 
L 544.905939 233.891873 
L 545.883029 198.273498 
L 546.86012 307.8 
L 547.83721 187.587986 
L 548.8143 170.669258 
L 549.791391 230.330035 
L 550.768481 194.711661 
L 551.745571 236.563251 
L 552.722662 241.906007 
L 553.699752 253.481979 
L 554.676842 235.672792 
L 555.653933 279.3053 
L 556.631023 231.220495 
L 557.608113 232.110954 
L 558.585204 274.853004 
L 559.562294 227.658657 
L 560.539384 155.531449 
L 561.516475 307.8 
L 562.493565 307.8 
L 563.470655 246.358304 
L 564.447746 307.8 
L 566.401926 307.8 
L 567.379016 298.004947 
L 568.356107 298.004947 
L 569.333197 307.8 
L 570.310287 255.262898 
L 571.287378 307.8 
L 572.264468 306.019081 
L 573.241558 297.114488 
L 574.218649 303.347703 
L 575.195739 307.8 
L 576.172829 192.040283 
L 577.14992 307.8 
L 578.12701 307.8 
L 579.1041 271.291166 
L 580.081191 307.8 
L 581.058281 165.326502 
L 582.035371 291.771731 
L 583.012462 307.8 
L 583.989552 186.697527 
L 584.966642 273.072085 
L 585.943733 191.149823 
L 586.920823 227.658657 
L 587.897913 248.139223 
L 588.875004 130.598587 
L 589.852094 88.746996 
L 590.829184 191.149823 
L 591.806275 263.277032 
L 592.783365 307.8 
L 593.760455 279.3053 
L 594.737546 172.450177 
L 595.714636 294.44311 
L 596.691726 235.672792 
L 597.668817 193.821201 
L 598.645907 118.132155 
L 599.622997 288.209894 
L 600.600088 195.60212 
L 601.577178 251.70106 
L 602.554268 212.520848 
L 603.531359 233.891873 
L 604.508449 307.8 
L 605.485539 209.84947 
L 606.46263 220.534982 
L 607.43972 307.8 
L 608.41681 307.8 
L 609.3939 274.853004 
L 610.370991 307.8 
L 611.348081 284.648057 
L 612.325171 257.934276 
L 613.302262 307.8 
L 614.279352 269.510247 
L 615.256442 236.563251 
L 616.233533 298.895406 
L 617.210623 306.019081 
L 618.187713 269.510247 
L 619.164804 307.8 
L 620.141894 307.8 
L 621.118984 257.043816 
L 622.096075 226.768198 
L 623.073165 289.100353 
L 624.050255 299.785866 
L 625.027346 216.973145 
L 626.004436 307.8 
L 626.981526 307.8 
L 627.958617 222.315901 
L 628.935707 307.8 
L 629.912797 307.8 
L 630.889888 241.015548 
L 631.866978 250.810601 
L 632.844068 265.057951 
L 633.821159 261.496113 
L 634.798249 217.863604 
L 635.775339 205.397173 
L 636.75243 307.8 
L 637.72952 307.8 
L 638.70661 218.754064 
L 639.683701 252.591519 
L 640.660791 147.517314 
L 641.637881 251.70106 
L 642.614972 208.068551 
L 643.592062 271.291166 
L 644.569152 198.273498 
L 645.546243 307.8 
L 646.523333 195.60212 
L 647.500423 307.8 
L 648.477513 200.054417 
L 649.454604 237.45371 
L 650.431694 227.658657 
L 651.408784 176.902473 
L 652.385875 241.015548 
L 653.362965 233.891873 
L 654.340055 307.8 
L 656.294236 307.8 
L 657.271326 275.743463 
L 658.248417 283.757597 
L 659.225507 307.8 
L 660.202597 307.8 
L 661.179688 283.757597 
L 662.156778 307.8 
L 663.133868 307.8 
L 664.110959 256.153357 
L 665.088049 242.796466 
L 666.065139 273.072085 
L 667.04223 307.8 
L 669.973501 307.8 
L 670.950591 273.962544 
L 671.927681 245.467845 
L 672.904772 268.619788 
L 673.881862 266.838869 
L 674.858952 223.20636 
L 675.836043 301.566784 
L 676.813133 242.796466 
L 677.790223 192.930742 
L 678.767314 242.796466 
L 679.744404 186.697527 
L 680.721494 188.478445 
L 681.698585 304.238163 
L 682.675675 241.015548 
L 683.652765 241.015548 
L 684.629856 155.531449 
L 685.606946 188.478445 
L 686.584036 307.8 
L 687.561127 298.004947 
L 688.538217 278.414841 
L 689.515307 212.520848 
L 690.492397 198.273498 
L 691.469488 197.383039 
L 692.446578 265.94841 
L 694.400759 164.436042 
L 695.377849 278.414841 
L 696.354939 275.743463 
L 697.33203 301.566784 
L 698.30912 251.70106 
L 699.28621 194.711661 
L 700.263301 223.20636 
L 701.240391 307.8 
L 702.217481 297.114488 
L 703.194572 301.566784 
L 704.171662 292.662191 
L 705.148752 307.8 
L 707.102933 307.8 
L 708.080023 278.414841 
L 709.057114 307.8 
L 710.034204 270.400707 
L 711.011294 307.8 
L 711.988385 294.44311 
L 712.965475 303.347703 
L 713.942565 307.8 
L 714.919656 264.167491 
L 715.896746 250.810601 
L 716.873836 208.959011 
L 717.850927 307.8 
L 718.828017 307.8 
L 719.805107 306.909541 
L 720.782198 258.824735 
L 721.759288 222.315901 
L 722.736378 245.467845 
L 723.713469 244.577385 
L 724.690559 209.84947 
L 725.667649 253.481979 
L 726.64474 194.711661 
L 727.62183 231.220495 
L 728.59892 203.616254 
L 729.576011 286.428975 
L 730.553101 146.626855 
L 731.530191 307.8 
L 732.507281 170.669258 
L 733.484372 155.531449 
L 734.461462 307.8 
L 735.438552 172.450177 
L 736.415643 216.082686 
L 737.392733 179.573852 
L 738.369823 260.605654 
L 739.346914 202.725795 
L 740.324004 237.45371 
L 741.301094 244.577385 
L 742.278185 180.464311 
L 744.232365 293.55265 
L 745.209456 249.029682 
L 746.186546 307.8 
L 747.163636 225.877739 
L 747.163636 225.877739 
" clip-path="url(#p1d6183d63b)" style="fill: none; stroke: #191970; stroke-width: 2; stroke-linecap: square"/>
   </g>
   <g id="patch_3">
    <path d="M 108 320.4 
L 108 43.2 
" style="fill: none; stroke: #000000; stroke-width: 0.8; stroke-linejoin: miter; stroke-linecap: square"/>
   </g>
   <g id="patch_4">
    <path d="M 777.6 320.4 
L 777.6 43.2 
" style="fill: none; stroke: #000000; stroke-width: 0.8; stroke-linejoin: miter; stroke-linecap: square"/>
   </g>
   <g id="patch_5">
    <path d="M 108 320.4 
L 777.6 320.4 
" style="fill: none; stroke: #000000; stroke-width: 0.8; stroke-linejoin: miter; stroke-linecap: square"/>
   </g>
   <g id="patch_6">
    <path d="M 108 43.2 
L 777.6 43.2 
" style="fill: none; stroke: #000000; stroke-width: 0.8; stroke-linejoin: miter; stroke-linecap: square"/>
   </g>
   <g id="text_16">
    <!-- TIME SERIES -->
    <g transform="translate(405.350625 37.2) scale(0.12 -0.12)">
     <defs>
      <path id="DejaVuSans-52" d="M 2841 2188 
Q 3044 2119 3236 1894 
Q 3428 1669 3622 1275 
L 4263 0 
L 3584 0 
L 2988 1197 
Q 2756 1666 2539 1819 
Q 2322 1972 1947 1972 
L 1259 1972 
L 1259 0 
L 628 0 
L 628 4666 
L 2053 4666 
Q 2853 4666 3247 4331 
Q 3641 3997 3641 3322 
Q 3641 2881 3436 2590 
Q 3231 2300 2841 2188 
z
M 1259 4147 
L 1259 2491 
L 2053 2491 
Q 2509 2491 2742 2702 
Q 2975 2913 2975 3322 
Q 2975 3731 2742 3939 
Q 2509 4147 2053 4147 
L 1259 4147 
z
" transform="scale(0.015625)"/>
     </defs>
     <use xlink:href="#DejaVuSans-54"/>
     <use xlink:href="#DejaVuSans-49" x="61.083984"/>
     <use xlink:href="#DejaVuSans-4d" x="90.576172"/>
     <use xlink:href="#DejaVuSans-45" x="176.855469"/>
     <use xlink:href="#DejaVuSans-20" x="240.039062"/>
     <use xlink:href="#DejaVuSans-53" x="271.826172"/>
     <use xlink:href="#DejaVuSans-45" x="335.302734"/>
     <use xlink:href="#DejaVuSans-52" x="398.486328"/>
     <use xlink:href="#DejaVuSans-49" x="467.96875"/>
     <use xlink:href="#DejaVuSans-45" x="497.460938"/>
     <use xlink:href="#DejaVuSans-53" x="560.644531"/>
    </g>
   </g>
  </g>
 </g>
 <defs>
  <clipPath id="p1d6183d63b">
   <rect x="108" y="43.2" width="669.6" height="277.2"/>
  </clipPath>
 </defs>
</svg>
