<?xml version="1.0" encoding="utf-8" standalone="no"?>
<!DOCTYPE svg PUBLIC "-//W3C//DTD SVG 1.1//EN"
  "http://www.w3.org/Graphics/SVG/1.1/DTD/svg11.dtd">
<svg xmlns:xlink="http://www.w3.org/1999/xlink" width="864pt" height="360pt" viewBox="0 0 864 360" xmlns="http://www.w3.org/2000/svg" version="1.1">
 <metadata>
  <rdf:RDF xmlns:dc="http://purl.org/dc/elements/1.1/" xmlns:cc="http://creativecommons.org/ns#" xmlns:rdf="http://www.w3.org/1999/02/22-rdf-syntax-ns#">
   <cc:Work>
    <dc:type rdf:resource="http://purl.org/dc/dcmitype/StillImage"/>
    <dc:date>2023-08-03T16:30:58.899556</dc:date>
    <dc:format>image/svg+xml</dc:format>
    <dc:creator>
     <cc:Agent>
      <dc:title>Matplotlib v3.7.1, https://matplotlib.org/</dc:title>
     </cc:Agent>
    </dc:creator>
   </cc:Work>
  </rdf:RDF>
 </metadata>
 <defs>
  <style type="text/css">*{stroke-linejoin: round; stroke-linecap: butt}</style>
 </defs>
 <g id="figure_1">
  <g id="patch_1">
   <path d="M 0 360 
L 864 360 
L 864 0 
L 0 0 
z
" style="fill: #ffffff"/>
  </g>
  <g id="axes_1">
   <g id="patch_2">
    <path d="M 108 320.4 
L 777.6 320.4 
L 777.6 43.2 
L 108 43.2 
z
" style="fill: #ffffff"/>
   </g>
   <g id="matplotlib.axis_1">
    <g id="xtick_1">
     <g id="line2d_1">
      <defs>
       <path id="md785377841" d="M 0 0 
L 0 3.5 
" style="stroke: #000000; stroke-width: 0.8"/>
      </defs>
      <g>
       <use xlink:href="#md785377841" x="138.436364" y="320.4" style="stroke: #000000; stroke-width: 0.8"/>
      </g>
     </g>
     <g id="text_1">
      <!-- 2022-01-01 -->
      <g transform="translate(109.378551 334.998438) scale(0.1 -0.1)">
       <defs>
        <path id="DejaVuSans-32" d="M 1228 531 
L 3431 531 
L 3431 0 
L 469 0 
L 469 531 
Q 828 903 1448 1529 
Q 2069 2156 2228 2338 
Q 2531 2678 2651 2914 
Q 2772 3150 2772 3378 
Q 2772 3750 2511 3984 
Q 2250 4219 1831 4219 
Q 1534 4219 1204 4116 
Q 875 4013 500 3803 
L 500 4441 
Q 881 4594 1212 4672 
Q 1544 4750 1819 4750 
Q 2544 4750 2975 4387 
Q 3406 4025 3406 3419 
Q 3406 3131 3298 2873 
Q 3191 2616 2906 2266 
Q 2828 2175 2409 1742 
Q 1991 1309 1228 531 
z
" transform="scale(0.015625)"/>
        <path id="DejaVuSans-30" d="M 2034 4250 
Q 1547 4250 1301 3770 
Q 1056 3291 1056 2328 
Q 1056 1369 1301 889 
Q 1547 409 2034 409 
Q 2525 409 2770 889 
Q 3016 1369 3016 2328 
Q 3016 3291 2770 3770 
Q 2525 4250 2034 4250 
z
M 2034 4750 
Q 2819 4750 3233 4129 
Q 3647 3509 3647 2328 
Q 3647 1150 3233 529 
Q 2819 -91 2034 -91 
Q 1250 -91 836 529 
Q 422 1150 422 2328 
Q 422 3509 836 4129 
Q 1250 4750 2034 4750 
z
" transform="scale(0.015625)"/>
        <path id="DejaVuSans-2d" d="M 313 2009 
L 1997 2009 
L 1997 1497 
L 313 1497 
L 313 2009 
z
" transform="scale(0.015625)"/>
        <path id="DejaVuSans-31" d="M 794 531 
L 1825 531 
L 1825 4091 
L 703 3866 
L 703 4441 
L 1819 4666 
L 2450 4666 
L 2450 531 
L 3481 531 
L 3481 0 
L 794 0 
L 794 531 
z
" transform="scale(0.015625)"/>
       </defs>
       <use xlink:href="#DejaVuSans-32"/>
       <use xlink:href="#DejaVuSans-30" x="63.623047"/>
       <use xlink:href="#DejaVuSans-32" x="127.246094"/>
       <use xlink:href="#DejaVuSans-32" x="190.869141"/>
       <use xlink:href="#DejaVuSans-2d" x="254.492188"/>
       <use xlink:href="#DejaVuSans-30" x="290.576172"/>
       <use xlink:href="#DejaVuSans-31" x="354.199219"/>
       <use xlink:href="#DejaVuSans-2d" x="417.822266"/>
       <use xlink:href="#DejaVuSans-30" x="453.90625"/>
       <use xlink:href="#DejaVuSans-31" x="517.529297"/>
      </g>
     </g>
    </g>
    <g id="xtick_2">
     <g id="line2d_2">
      <g>
       <use xlink:href="#md785377841" x="210.139208" y="320.4" style="stroke: #000000; stroke-width: 0.8"/>
      </g>
     </g>
     <g id="text_2">
      <!-- 2022-01-03 -->
      <g transform="translate(181.081396 334.998438) scale(0.1 -0.1)">
       <defs>
        <path id="DejaVuSans-33" d="M 2597 2516 
Q 3050 2419 3304 2112 
Q 3559 1806 3559 1356 
Q 3559 666 3084 287 
Q 2609 -91 1734 -91 
Q 1441 -91 1130 -33 
Q 819 25 488 141 
L 488 750 
Q 750 597 1062 519 
Q 1375 441 1716 441 
Q 2309 441 2620 675 
Q 2931 909 2931 1356 
Q 2931 1769 2642 2001 
Q 2353 2234 1838 2234 
L 1294 2234 
L 1294 2753 
L 1863 2753 
Q 2328 2753 2575 2939 
Q 2822 3125 2822 3475 
Q 2822 3834 2567 4026 
Q 2313 4219 1838 4219 
Q 1578 4219 1281 4162 
Q 984 4106 628 3988 
L 628 4550 
Q 988 4650 1302 4700 
Q 1616 4750 1894 4750 
Q 2613 4750 3031 4423 
Q 3450 4097 3450 3541 
Q 3450 3153 3228 2886 
Q 3006 2619 2597 2516 
z
" transform="scale(0.015625)"/>
       </defs>
       <use xlink:href="#DejaVuSans-32"/>
       <use xlink:href="#DejaVuSans-30" x="63.623047"/>
       <use xlink:href="#DejaVuSans-32" x="127.246094"/>
       <use xlink:href="#DejaVuSans-32" x="190.869141"/>
       <use xlink:href="#DejaVuSans-2d" x="254.492188"/>
       <use xlink:href="#DejaVuSans-30" x="290.576172"/>
       <use xlink:href="#DejaVuSans-31" x="354.199219"/>
       <use xlink:href="#DejaVuSans-2d" x="417.822266"/>
       <use xlink:href="#DejaVuSans-30" x="453.90625"/>
       <use xlink:href="#DejaVuSans-33" x="517.529297"/>
      </g>
     </g>
    </g>
    <g id="xtick_3">
     <g id="line2d_3">
      <g>
       <use xlink:href="#md785377841" x="281.842052" y="320.4" style="stroke: #000000; stroke-width: 0.8"/>
      </g>
     </g>
     <g id="text_3">
      <!-- 2022-01-05 -->
      <g transform="translate(252.78424 334.998438) scale(0.1 -0.1)">
       <defs>
        <path id="DejaVuSans-35" d="M 691 4666 
L 3169 4666 
L 3169 4134 
L 1269 4134 
L 1269 2991 
Q 1406 3038 1543 3061 
Q 1681 3084 1819 3084 
Q 2600 3084 3056 2656 
Q 3513 2228 3513 1497 
Q 3513 744 3044 326 
Q 2575 -91 1722 -91 
Q 1428 -91 1123 -41 
Q 819 9 494 109 
L 494 744 
Q 775 591 1075 516 
Q 1375 441 1709 441 
Q 2250 441 2565 725 
Q 2881 1009 2881 1497 
Q 2881 1984 2565 2268 
Q 2250 2553 1709 2553 
Q 1456 2553 1204 2497 
Q 953 2441 691 2322 
L 691 4666 
z
" transform="scale(0.015625)"/>
       </defs>
       <use xlink:href="#DejaVuSans-32"/>
       <use xlink:href="#DejaVuSans-30" x="63.623047"/>
       <use xlink:href="#DejaVuSans-32" x="127.246094"/>
       <use xlink:href="#DejaVuSans-32" x="190.869141"/>
       <use xlink:href="#DejaVuSans-2d" x="254.492188"/>
       <use xlink:href="#DejaVuSans-30" x="290.576172"/>
       <use xlink:href="#DejaVuSans-31" x="354.199219"/>
       <use xlink:href="#DejaVuSans-2d" x="417.822266"/>
       <use xlink:href="#DejaVuSans-30" x="453.90625"/>
       <use xlink:href="#DejaVuSans-35" x="517.529297"/>
      </g>
     </g>
    </g>
    <g id="xtick_4">
     <g id="line2d_4">
      <g>
       <use xlink:href="#md785377841" x="353.544897" y="320.4" style="stroke: #000000; stroke-width: 0.8"/>
      </g>
     </g>
     <g id="text_4">
      <!-- 2022-01-07 -->
      <g transform="translate(324.487084 334.998438) scale(0.1 -0.1)">
       <defs>
        <path id="DejaVuSans-37" d="M 525 4666 
L 3525 4666 
L 3525 4397 
L 1831 0 
L 1172 0 
L 2766 4134 
L 525 4134 
L 525 4666 
z
" transform="scale(0.015625)"/>
       </defs>
       <use xlink:href="#DejaVuSans-32"/>
       <use xlink:href="#DejaVuSans-30" x="63.623047"/>
       <use xlink:href="#DejaVuSans-32" x="127.246094"/>
       <use xlink:href="#DejaVuSans-32" x="190.869141"/>
       <use xlink:href="#DejaVuSans-2d" x="254.492188"/>
       <use xlink:href="#DejaVuSans-30" x="290.576172"/>
       <use xlink:href="#DejaVuSans-31" x="354.199219"/>
       <use xlink:href="#DejaVuSans-2d" x="417.822266"/>
       <use xlink:href="#DejaVuSans-30" x="453.90625"/>
       <use xlink:href="#DejaVuSans-37" x="517.529297"/>
      </g>
     </g>
    </g>
    <g id="xtick_5">
     <g id="line2d_5">
      <g>
       <use xlink:href="#md785377841" x="425.247741" y="320.4" style="stroke: #000000; stroke-width: 0.8"/>
      </g>
     </g>
     <g id="text_5">
      <!-- 2022-01-09 -->
      <g transform="translate(396.189929 334.998438) scale(0.1 -0.1)">
       <defs>
        <path id="DejaVuSans-39" d="M 703 97 
L 703 672 
Q 941 559 1184 500 
Q 1428 441 1663 441 
Q 2288 441 2617 861 
Q 2947 1281 2994 2138 
Q 2813 1869 2534 1725 
Q 2256 1581 1919 1581 
Q 1219 1581 811 2004 
Q 403 2428 403 3163 
Q 403 3881 828 4315 
Q 1253 4750 1959 4750 
Q 2769 4750 3195 4129 
Q 3622 3509 3622 2328 
Q 3622 1225 3098 567 
Q 2575 -91 1691 -91 
Q 1453 -91 1209 -44 
Q 966 3 703 97 
z
M 1959 2075 
Q 2384 2075 2632 2365 
Q 2881 2656 2881 3163 
Q 2881 3666 2632 3958 
Q 2384 4250 1959 4250 
Q 1534 4250 1286 3958 
Q 1038 3666 1038 3163 
Q 1038 2656 1286 2365 
Q 1534 2075 1959 2075 
z
" transform="scale(0.015625)"/>
       </defs>
       <use xlink:href="#DejaVuSans-32"/>
       <use xlink:href="#DejaVuSans-30" x="63.623047"/>
       <use xlink:href="#DejaVuSans-32" x="127.246094"/>
       <use xlink:href="#DejaVuSans-32" x="190.869141"/>
       <use xlink:href="#DejaVuSans-2d" x="254.492188"/>
       <use xlink:href="#DejaVuSans-30" x="290.576172"/>
       <use xlink:href="#DejaVuSans-31" x="354.199219"/>
       <use xlink:href="#DejaVuSans-2d" x="417.822266"/>
       <use xlink:href="#DejaVuSans-30" x="453.90625"/>
       <use xlink:href="#DejaVuSans-39" x="517.529297"/>
      </g>
     </g>
    </g>
    <g id="xtick_6">
     <g id="line2d_6">
      <g>
       <use xlink:href="#md785377841" x="496.950586" y="320.4" style="stroke: #000000; stroke-width: 0.8"/>
      </g>
     </g>
     <g id="text_6">
      <!-- 2022-01-11 -->
      <g transform="translate(467.892773 334.998438) scale(0.1 -0.1)">
       <use xlink:href="#DejaVuSans-32"/>
       <use xlink:href="#DejaVuSans-30" x="63.623047"/>
       <use xlink:href="#DejaVuSans-32" x="127.246094"/>
       <use xlink:href="#DejaVuSans-32" x="190.869141"/>
       <use xlink:href="#DejaVuSans-2d" x="254.492188"/>
       <use xlink:href="#DejaVuSans-30" x="290.576172"/>
       <use xlink:href="#DejaVuSans-31" x="354.199219"/>
       <use xlink:href="#DejaVuSans-2d" x="417.822266"/>
       <use xlink:href="#DejaVuSans-31" x="453.90625"/>
       <use xlink:href="#DejaVuSans-31" x="517.529297"/>
      </g>
     </g>
    </g>
    <g id="xtick_7">
     <g id="line2d_7">
      <g>
       <use xlink:href="#md785377841" x="568.65343" y="320.4" style="stroke: #000000; stroke-width: 0.8"/>
      </g>
     </g>
     <g id="text_7">
      <!-- 2022-01-13 -->
      <g transform="translate(539.595618 334.998438) scale(0.1 -0.1)">
       <use xlink:href="#DejaVuSans-32"/>
       <use xlink:href="#DejaVuSans-30" x="63.623047"/>
       <use xlink:href="#DejaVuSans-32" x="127.246094"/>
       <use xlink:href="#DejaVuSans-32" x="190.869141"/>
       <use xlink:href="#DejaVuSans-2d" x="254.492188"/>
       <use xlink:href="#DejaVuSans-30" x="290.576172"/>
       <use xlink:href="#DejaVuSans-31" x="354.199219"/>
       <use xlink:href="#DejaVuSans-2d" x="417.822266"/>
       <use xlink:href="#DejaVuSans-31" x="453.90625"/>
       <use xlink:href="#DejaVuSans-33" x="517.529297"/>
      </g>
     </g>
    </g>
    <g id="xtick_8">
     <g id="line2d_8">
      <g>
       <use xlink:href="#md785377841" x="640.356274" y="320.4" style="stroke: #000000; stroke-width: 0.8"/>
      </g>
     </g>
     <g id="text_8">
      <!-- 2022-01-15 -->
      <g transform="translate(611.298462 334.998438) scale(0.1 -0.1)">
       <use xlink:href="#DejaVuSans-32"/>
       <use xlink:href="#DejaVuSans-30" x="63.623047"/>
       <use xlink:href="#DejaVuSans-32" x="127.246094"/>
       <use xlink:href="#DejaVuSans-32" x="190.869141"/>
       <use xlink:href="#DejaVuSans-2d" x="254.492188"/>
       <use xlink:href="#DejaVuSans-30" x="290.576172"/>
       <use xlink:href="#DejaVuSans-31" x="354.199219"/>
       <use xlink:href="#DejaVuSans-2d" x="417.822266"/>
       <use xlink:href="#DejaVuSans-31" x="453.90625"/>
       <use xlink:href="#DejaVuSans-35" x="517.529297"/>
      </g>
     </g>
    </g>
    <g id="xtick_9">
     <g id="line2d_9">
      <g>
       <use xlink:href="#md785377841" x="712.059119" y="320.4" style="stroke: #000000; stroke-width: 0.8"/>
      </g>
     </g>
     <g id="text_9">
      <!-- 2022-01-17 -->
      <g transform="translate(683.001306 334.998438) scale(0.1 -0.1)">
       <use xlink:href="#DejaVuSans-32"/>
       <use xlink:href="#DejaVuSans-30" x="63.623047"/>
       <use xlink:href="#DejaVuSans-32" x="127.246094"/>
       <use xlink:href="#DejaVuSans-32" x="190.869141"/>
       <use xlink:href="#DejaVuSans-2d" x="254.492188"/>
       <use xlink:href="#DejaVuSans-30" x="290.576172"/>
       <use xlink:href="#DejaVuSans-31" x="354.199219"/>
       <use xlink:href="#DejaVuSans-2d" x="417.822266"/>
       <use xlink:href="#DejaVuSans-31" x="453.90625"/>
       <use xlink:href="#DejaVuSans-37" x="517.529297"/>
      </g>
     </g>
    </g>
    <g id="text_10">
     <!-- TIME (DAYS) -->
     <g transform="translate(412.283594 348.676562) scale(0.1 -0.1)">
      <defs>
       <path id="DejaVuSans-54" d="M -19 4666 
L 3928 4666 
L 3928 4134 
L 2272 4134 
L 2272 0 
L 1638 0 
L 1638 4134 
L -19 4134 
L -19 4666 
z
" transform="scale(0.015625)"/>
       <path id="DejaVuSans-49" d="M 628 4666 
L 1259 4666 
L 1259 0 
L 628 0 
L 628 4666 
z
" transform="scale(0.015625)"/>
       <path id="DejaVuSans-4d" d="M 628 4666 
L 1569 4666 
L 2759 1491 
L 3956 4666 
L 4897 4666 
L 4897 0 
L 4281 0 
L 4281 4097 
L 3078 897 
L 2444 897 
L 1241 4097 
L 1241 0 
L 628 0 
L 628 4666 
z
" transform="scale(0.015625)"/>
       <path id="DejaVuSans-45" d="M 628 4666 
L 3578 4666 
L 3578 4134 
L 1259 4134 
L 1259 2753 
L 3481 2753 
L 3481 2222 
L 1259 2222 
L 1259 531 
L 3634 531 
L 3634 0 
L 628 0 
L 628 4666 
z
" transform="scale(0.015625)"/>
       <path id="DejaVuSans-20" transform="scale(0.015625)"/>
       <path id="DejaVuSans-28" d="M 1984 4856 
Q 1566 4138 1362 3434 
Q 1159 2731 1159 2009 
Q 1159 1288 1364 580 
Q 1569 -128 1984 -844 
L 1484 -844 
Q 1016 -109 783 600 
Q 550 1309 550 2009 
Q 550 2706 781 3412 
Q 1013 4119 1484 4856 
L 1984 4856 
z
" transform="scale(0.015625)"/>
       <path id="DejaVuSans-44" d="M 1259 4147 
L 1259 519 
L 2022 519 
Q 2988 519 3436 956 
Q 3884 1394 3884 2338 
Q 3884 3275 3436 3711 
Q 2988 4147 2022 4147 
L 1259 4147 
z
M 628 4666 
L 1925 4666 
Q 3281 4666 3915 4102 
Q 4550 3538 4550 2338 
Q 4550 1131 3912 565 
Q 3275 0 1925 0 
L 628 0 
L 628 4666 
z
" transform="scale(0.015625)"/>
       <path id="DejaVuSans-41" d="M 2188 4044 
L 1331 1722 
L 3047 1722 
L 2188 4044 
z
M 1831 4666 
L 2547 4666 
L 4325 0 
L 3669 0 
L 3244 1197 
L 1141 1197 
L 716 0 
L 50 0 
L 1831 4666 
z
" transform="scale(0.015625)"/>
       <path id="DejaVuSans-59" d="M -13 4666 
L 666 4666 
L 1959 2747 
L 3244 4666 
L 3922 4666 
L 2272 2222 
L 2272 0 
L 1638 0 
L 1638 2222 
L -13 4666 
z
" transform="scale(0.015625)"/>
       <path id="DejaVuSans-53" d="M 3425 4513 
L 3425 3897 
Q 3066 4069 2747 4153 
Q 2428 4238 2131 4238 
Q 1616 4238 1336 4038 
Q 1056 3838 1056 3469 
Q 1056 3159 1242 3001 
Q 1428 2844 1947 2747 
L 2328 2669 
Q 3034 2534 3370 2195 
Q 3706 1856 3706 1288 
Q 3706 609 3251 259 
Q 2797 -91 1919 -91 
Q 1588 -91 1214 -16 
Q 841 59 441 206 
L 441 856 
Q 825 641 1194 531 
Q 1563 422 1919 422 
Q 2459 422 2753 634 
Q 3047 847 3047 1241 
Q 3047 1584 2836 1778 
Q 2625 1972 2144 2069 
L 1759 2144 
Q 1053 2284 737 2584 
Q 422 2884 422 3419 
Q 422 4038 858 4394 
Q 1294 4750 2059 4750 
Q 2388 4750 2728 4690 
Q 3069 4631 3425 4513 
z
" transform="scale(0.015625)"/>
       <path id="DejaVuSans-29" d="M 513 4856 
L 1013 4856 
Q 1481 4119 1714 3412 
Q 1947 2706 1947 2009 
Q 1947 1309 1714 600 
Q 1481 -109 1013 -844 
L 513 -844 
Q 928 -128 1133 580 
Q 1338 1288 1338 2009 
Q 1338 2731 1133 3434 
Q 928 4138 513 4856 
z
" transform="scale(0.015625)"/>
      </defs>
      <use xlink:href="#DejaVuSans-54"/>
      <use xlink:href="#DejaVuSans-49" x="61.083984"/>
      <use xlink:href="#DejaVuSans-4d" x="90.576172"/>
      <use xlink:href="#DejaVuSans-45" x="176.855469"/>
      <use xlink:href="#DejaVuSans-20" x="240.039062"/>
      <use xlink:href="#DejaVuSans-28" x="271.826172"/>
      <use xlink:href="#DejaVuSans-44" x="310.839844"/>
      <use xlink:href="#DejaVuSans-41" x="386.091797"/>
      <use xlink:href="#DejaVuSans-59" x="446.75"/>
      <use xlink:href="#DejaVuSans-53" x="507.833984"/>
      <use xlink:href="#DejaVuSans-29" x="571.310547"/>
     </g>
    </g>
   </g>
   <g id="matplotlib.axis_2">
    <g id="ytick_1">
     <g id="line2d_10">
      <defs>
       <path id="mdeeca46001" d="M 0 0 
L -3.5 0 
" style="stroke: #000000; stroke-width: 0.8"/>
      </defs>
      <g>
       <use xlink:href="#mdeeca46001" x="108" y="307.8" style="stroke: #000000; stroke-width: 0.8"/>
      </g>
     </g>
     <g id="text_11">
      <!-- 0 -->
      <g transform="translate(94.6375 311.599219) scale(0.1 -0.1)">
       <use xlink:href="#DejaVuSans-30"/>
      </g>
     </g>
    </g>
    <g id="ytick_2">
     <g id="line2d_11">
      <g>
       <use xlink:href="#mdeeca46001" x="108" y="262.476259" style="stroke: #000000; stroke-width: 0.8"/>
      </g>
     </g>
     <g id="text_12">
      <!-- 50 -->
      <g transform="translate(88.275 266.275478) scale(0.1 -0.1)">
       <use xlink:href="#DejaVuSans-35"/>
       <use xlink:href="#DejaVuSans-30" x="63.623047"/>
      </g>
     </g>
    </g>
    <g id="ytick_3">
     <g id="line2d_12">
      <g>
       <use xlink:href="#mdeeca46001" x="108" y="217.152518" style="stroke: #000000; stroke-width: 0.8"/>
      </g>
     </g>
     <g id="text_13">
      <!-- 100 -->
      <g transform="translate(81.9125 220.951737) scale(0.1 -0.1)">
       <use xlink:href="#DejaVuSans-31"/>
       <use xlink:href="#DejaVuSans-30" x="63.623047"/>
       <use xlink:href="#DejaVuSans-30" x="127.246094"/>
      </g>
     </g>
    </g>
    <g id="ytick_4">
     <g id="line2d_13">
      <g>
       <use xlink:href="#mdeeca46001" x="108" y="171.828777" style="stroke: #000000; stroke-width: 0.8"/>
      </g>
     </g>
     <g id="text_14">
      <!-- 150 -->
      <g transform="translate(81.9125 175.627996) scale(0.1 -0.1)">
       <use xlink:href="#DejaVuSans-31"/>
       <use xlink:href="#DejaVuSans-35" x="63.623047"/>
       <use xlink:href="#DejaVuSans-30" x="127.246094"/>
      </g>
     </g>
    </g>
    <g id="ytick_5">
     <g id="line2d_14">
      <g>
       <use xlink:href="#mdeeca46001" x="108" y="126.505036" style="stroke: #000000; stroke-width: 0.8"/>
      </g>
     </g>
     <g id="text_15">
      <!-- 200 -->
      <g transform="translate(81.9125 130.304255) scale(0.1 -0.1)">
       <use xlink:href="#DejaVuSans-32"/>
       <use xlink:href="#DejaVuSans-30" x="63.623047"/>
       <use xlink:href="#DejaVuSans-30" x="127.246094"/>
      </g>
     </g>
    </g>
    <g id="ytick_6">
     <g id="line2d_15">
      <g>
       <use xlink:href="#mdeeca46001" x="108" y="81.181295" style="stroke: #000000; stroke-width: 0.8"/>
      </g>
     </g>
     <g id="text_16">
      <!-- 250 -->
      <g transform="translate(81.9125 84.980514) scale(0.1 -0.1)">
       <use xlink:href="#DejaVuSans-32"/>
       <use xlink:href="#DejaVuSans-35" x="63.623047"/>
       <use xlink:href="#DejaVuSans-30" x="127.246094"/>
      </g>
     </g>
    </g>
    <g id="text_17">
     <!-- AMPLITUDE -->
     <g transform="translate(75.832812 210.532812) rotate(-90) scale(0.1 -0.1)">
      <defs>
       <path id="DejaVuSans-50" d="M 1259 4147 
L 1259 2394 
L 2053 2394 
Q 2494 2394 2734 2622 
Q 2975 2850 2975 3272 
Q 2975 3691 2734 3919 
Q 2494 4147 2053 4147 
L 1259 4147 
z
M 628 4666 
L 2053 4666 
Q 2838 4666 3239 4311 
Q 3641 3956 3641 3272 
Q 3641 2581 3239 2228 
Q 2838 1875 2053 1875 
L 1259 1875 
L 1259 0 
L 628 0 
L 628 4666 
z
" transform="scale(0.015625)"/>
       <path id="DejaVuSans-4c" d="M 628 4666 
L 1259 4666 
L 1259 531 
L 3531 531 
L 3531 0 
L 628 0 
L 628 4666 
z
" transform="scale(0.015625)"/>
       <path id="DejaVuSans-55" d="M 556 4666 
L 1191 4666 
L 1191 1831 
Q 1191 1081 1462 751 
Q 1734 422 2344 422 
Q 2950 422 3222 751 
Q 3494 1081 3494 1831 
L 3494 4666 
L 4128 4666 
L 4128 1753 
Q 4128 841 3676 375 
Q 3225 -91 2344 -91 
Q 1459 -91 1007 375 
Q 556 841 556 1753 
L 556 4666 
z
" transform="scale(0.015625)"/>
      </defs>
      <use xlink:href="#DejaVuSans-41"/>
      <use xlink:href="#DejaVuSans-4d" x="68.408203"/>
      <use xlink:href="#DejaVuSans-50" x="154.6875"/>
      <use xlink:href="#DejaVuSans-4c" x="214.990234"/>
      <use xlink:href="#DejaVuSans-49" x="270.703125"/>
      <use xlink:href="#DejaVuSans-54" x="300.195312"/>
      <use xlink:href="#DejaVuSans-55" x="361.279297"/>
      <use xlink:href="#DejaVuSans-44" x="434.472656"/>
      <use xlink:href="#DejaVuSans-45" x="511.474609"/>
     </g>
    </g>
   </g>
   <g id="line2d_16">
    <path d="M 138.436364 307.8 
L 139.183268 307.8 
L 139.930173 303.267626 
L 140.677078 248.879137 
L 141.423982 237.094964 
L 142.170887 307.8 
L 142.917791 307.8 
L 143.664696 283.32518 
L 144.411601 303.267626 
L 145.158505 209.900719 
L 145.90541 307.8 
L 146.652315 291.483453 
L 147.399219 307.8 
L 148.146124 211.713669 
L 148.893028 270.634532 
L 149.639933 307.8 
L 150.386838 218.058993 
L 151.133742 296.015827 
L 151.880647 307.8 
L 152.627552 264.289209 
L 153.374456 241.627338 
L 154.121361 227.123741 
L 154.868265 248.879137 
L 155.61517 296.015827 
L 156.362075 267.008633 
L 157.108979 305.080576 
L 157.855884 216.246043 
L 158.602789 272.447482 
L 159.349693 171.828777 
L 160.096598 248.879137 
L 160.843503 242.533813 
L 161.590407 173.641727 
L 162.337312 224.404317 
L 163.831121 203.555396 
L 164.578026 165.483453 
L 165.32493 160.951079 
L 166.071835 162.764029 
L 166.81874 221.684892 
L 167.565644 266.102158 
L 168.312549 142.821583 
L 169.059453 200.835971 
L 169.806358 217.152518 
L 170.553263 113.814388 
L 171.300167 228.936691 
L 172.793977 274.260432 
L 173.540881 284.231655 
L 174.287786 181.8 
L 175.03469 300.548201 
L 175.781595 263.382734 
L 176.5285 307.8 
L 177.275404 247.972662 
L 178.022309 296.015827 
L 178.769214 307.8 
L 179.516118 307.8 
L 180.263023 229.843165 
L 181.009927 266.102158 
L 181.756832 264.289209 
L 182.503737 307.8 
L 183.250641 307.8 
L 183.997546 277.886331 
L 184.744451 307.8 
L 185.491355 254.317986 
L 186.23826 285.138129 
L 186.985165 235.282014 
L 187.732069 242.533813 
L 188.478974 228.936691 
L 189.225878 307.8 
L 189.972783 160.951079 
L 190.719688 257.03741 
L 191.466592 150.979856 
L 192.213497 245.253237 
L 192.960402 244.346763 
L 193.707306 307.8 
L 195.201115 188.145324 
L 195.94802 271.541007 
L 196.694925 296.015827 
L 197.441829 249.785612 
L 198.188734 148.260432 
L 198.935639 156.418705 
L 199.682543 248.879137 
L 200.429448 111.094964 
L 201.176352 307.8 
L 201.923257 228.936691 
L 202.670162 264.289209 
L 203.417066 169.109353 
L 204.163971 305.98705 
L 204.910876 241.627338 
L 205.65778 219.871942 
L 206.404685 270.634532 
L 207.15159 160.951079 
L 207.898494 181.8 
L 208.645399 299.641727 
L 209.392303 257.03741 
L 210.139208 258.85036 
L 210.886113 242.533813 
L 211.633017 170.015827 
L 212.379922 192.677698 
L 213.873731 307.8 
L 214.620636 280.605755 
L 215.36754 307.8 
L 216.114445 307.8 
L 216.86135 241.627338 
L 217.608254 258.85036 
L 218.355159 194.490647 
L 219.102064 292.389928 
L 219.848968 238.907914 
L 220.595873 307.8 
L 221.342777 307.8 
L 222.089682 251.598561 
L 222.836587 248.879137 
L 223.583491 302.361151 
L 224.330396 307.8 
L 225.077301 269.728058 
L 225.824205 189.051799 
L 226.57111 191.771223 
L 227.318015 216.246043 
L 228.064919 307.8 
L 228.811824 228.030216 
L 229.558728 307.8 
L 230.305633 165.483453 
L 231.052538 192.677698 
L 231.799442 247.972662 
L 232.546347 219.871942 
L 233.293252 242.533813 
L 234.040156 105.656115 
L 234.787061 189.958273 
L 235.533965 248.879137 
L 236.28087 132.85036 
L 237.027775 298.735252 
L 237.774679 247.066187 
L 238.521584 242.533813 
L 239.268489 170.015827 
L 240.015393 228.936691 
L 240.762298 222.591367 
L 241.509202 256.130935 
L 242.256107 300.548201 
L 243.003012 208.994245 
L 243.749916 208.08777 
L 244.496821 303.267626 
L 245.243726 233.469065 
L 245.99063 198.116547 
L 246.737535 213.526619 
L 247.484439 265.195683 
L 248.231344 307.8 
L 248.978249 307.8 
L 249.725153 303.267626 
L 250.472058 244.346763 
L 251.218963 265.195683 
L 251.965867 307.8 
L 252.712772 307.8 
L 253.459677 250.692086 
L 254.206581 307.8 
L 254.953486 210.807194 
L 255.70039 281.51223 
L 256.447295 307.8 
L 257.1942 247.972662 
L 257.941104 305.080576 
L 258.688009 292.389928 
L 259.434914 307.8 
L 260.181818 282.418705 
L 260.928723 307.8 
L 261.675627 200.835971 
L 262.422532 261.569784 
L 263.169437 258.85036 
L 263.916341 238.001439 
L 264.663246 213.526619 
L 265.410151 307.8 
L 266.157055 288.764029 
L 266.90396 247.972662 
L 267.650864 266.102158 
L 269.144674 174.548201 
L 269.891578 252.505036 
L 270.638483 198.116547 
L 271.385388 202.648921 
L 272.132292 173.641727 
L 272.879197 257.943885 
L 273.626102 122.879137 
L 274.373006 125.598561 
L 275.119911 305.98705 
L 275.866815 305.98705 
L 276.61372 289.670504 
L 277.360625 208.08777 
L 278.107529 262.476259 
L 278.854434 285.138129 
L 279.601339 258.85036 
L 280.348243 280.605755 
L 281.095148 307.8 
L 283.335862 307.8 
L 284.082766 249.785612 
L 284.829671 292.389928 
L 285.576576 276.979856 
L 286.32348 281.51223 
L 287.070385 307.8 
L 287.817289 307.8 
L 288.564194 257.03741 
L 289.311099 305.080576 
L 290.058003 197.210072 
L 290.804908 251.598561 
L 291.551813 223.497842 
L 292.298717 307.8 
L 293.045622 307.8 
L 293.792526 261.569784 
L 294.539431 256.130935 
L 295.286336 301.454676 
L 296.03324 202.648921 
L 296.780145 274.260432 
L 297.52705 236.188489 
L 298.273954 161.857554 
L 299.020859 307.8 
L 299.767764 120.159712 
L 300.514668 241.627338 
L 301.261573 298.735252 
L 302.008477 256.130935 
L 302.755382 307.8 
L 303.502287 183.61295 
L 304.249191 307.8 
L 304.996096 228.936691 
L 305.743001 278.792806 
L 306.489905 237.094964 
L 307.23681 170.922302 
L 307.983714 282.418705 
L 308.730619 222.591367 
L 309.477524 273.353957 
L 310.224428 258.85036 
L 310.971333 198.116547 
L 311.718238 307.8 
L 312.465142 226.217266 
L 313.212047 306.893525 
L 313.958951 298.735252 
L 314.705856 307.8 
L 315.452761 248.879137 
L 316.199665 307.8 
L 316.94657 286.044604 
L 317.693475 307.8 
L 318.440379 211.713669 
L 319.187284 307.8 
L 319.934189 265.195683 
L 320.681093 307.8 
L 323.668712 307.8 
L 324.415616 306.893525 
L 325.162521 256.130935 
L 325.909426 294.202878 
L 326.65633 307.8 
L 327.403235 296.922302 
L 328.150139 272.447482 
L 328.897044 222.591367 
L 329.643949 270.634532 
L 330.390853 307.8 
L 331.137758 299.641727 
L 331.884663 303.267626 
L 332.631567 199.929496 
L 333.378472 270.634532 
L 334.125376 207.181295 
L 334.872281 267.008633 
L 335.619186 260.663309 
L 337.112995 172.735252 
L 337.8599 164.576978 
L 338.606804 224.404317 
L 339.353709 191.771223 
L 340.100613 195.397122 
L 340.847518 265.195683 
L 341.594423 307.8 
L 342.341327 194.490647 
L 343.088232 193.584173 
L 343.835137 250.692086 
L 344.582041 223.497842 
L 345.328946 245.253237 
L 346.075851 247.972662 
L 346.822755 246.159712 
L 347.56966 298.735252 
L 348.316564 284.231655 
L 349.063469 260.663309 
L 349.810374 307.8 
L 350.557278 298.735252 
L 351.304183 184.519424 
L 352.051088 307.8 
L 353.544897 307.8 
L 354.291801 284.231655 
L 355.038706 210.807194 
L 355.785611 307.8 
L 356.532515 272.447482 
L 357.27942 307.8 
L 358.026325 289.670504 
L 358.773229 252.505036 
L 359.520134 289.670504 
L 360.267038 307.8 
L 361.760848 307.8 
L 362.507752 178.174101 
L 363.254657 307.8 
L 364.001562 227.123741 
L 364.748466 207.181295 
L 366.242276 271.541007 
L 366.98918 257.03741 
L 367.736085 191.771223 
L 368.482989 267.008633 
L 369.229894 293.296403 
L 369.976799 261.569784 
L 370.723703 241.627338 
L 371.470608 256.130935 
L 372.217513 186.332374 
L 372.964417 247.066187 
L 373.711322 226.217266 
L 374.458226 151.886331 
L 375.205131 307.8 
L 375.952036 229.843165 
L 376.69894 206.27482 
L 377.445845 227.123741 
L 378.19275 141.915108 
L 378.939654 136.476259 
L 379.686559 305.080576 
L 380.433463 237.094964 
L 381.180368 181.8 
L 381.927273 219.871942 
L 382.674177 247.972662 
L 383.421082 204.461871 
L 384.167987 242.533813 
L 384.914891 292.389928 
L 385.661796 251.598561 
L 386.408701 307.8 
L 387.155605 61.238849 
L 387.90251 249.785612 
L 388.649414 289.670504 
L 389.396319 305.98705 
L 390.143224 307.8 
L 390.890128 307.8 
L 391.637033 302.361151 
L 392.383938 307.8 
L 393.130842 296.015827 
L 393.877747 294.202878 
L 394.624651 307.8 
L 395.371556 307.8 
L 396.118461 274.260432 
L 396.865365 307.8 
L 398.359175 307.8 
L 399.106079 203.555396 
L 399.852984 239.814388 
L 400.599888 307.8 
L 401.346793 230.74964 
L 402.093698 228.936691 
L 402.840602 262.476259 
L 403.587507 254.317986 
L 404.334412 131.943885 
L 405.081316 199.023022 
L 405.828221 247.066187 
L 406.575125 209.900719 
L 407.32203 266.102158 
L 408.068935 162.764029 
L 408.815839 205.368345 
L 409.562744 258.85036 
L 410.309649 304.174101 
L 411.056553 294.202878 
L 411.803458 228.936691 
L 412.550363 293.296403 
L 413.297267 278.792806 
L 414.044172 307.8 
L 414.791076 307.8 
L 415.537981 296.922302 
L 416.284886 238.907914 
L 417.03179 263.382734 
L 417.778695 241.627338 
L 418.5256 260.663309 
L 419.272504 307.8 
L 420.019409 257.03741 
L 420.766313 184.519424 
L 421.513218 283.32518 
L 422.260123 285.138129 
L 423.007027 307.8 
L 423.753932 263.382734 
L 424.500837 264.289209 
L 425.247741 251.598561 
L 425.994646 304.174101 
L 426.74155 307.8 
L 427.488455 307.8 
L 428.23536 306.893525 
L 428.982264 307.8 
L 429.729169 282.418705 
L 430.476074 284.231655 
L 431.222978 307.8 
L 431.969883 279.699281 
L 432.716788 268.821583 
L 433.463692 273.353957 
L 434.210597 307.8 
L 434.957501 228.030216 
L 435.704406 219.871942 
L 436.451311 307.8 
L 437.198215 307.8 
L 437.94512 222.591367 
L 438.692025 217.152518 
L 439.438929 188.145324 
L 440.185834 236.188489 
L 440.932738 228.030216 
L 441.679643 260.663309 
L 442.426548 207.181295 
L 443.173452 228.936691 
L 443.920357 183.61295 
L 444.667262 189.958273 
L 445.414166 199.023022 
L 446.161071 159.138129 
L 446.907975 92.965468 
L 448.401785 261.569784 
L 449.148689 123.785612 
L 449.895594 235.282014 
L 450.642499 250.692086 
L 451.389403 249.785612 
L 452.883212 303.267626 
L 453.630117 289.670504 
L 454.377022 148.260432 
L 455.123926 307.8 
L 455.870831 214.433094 
L 456.617736 307.8 
L 458.85845 307.8 
L 459.605354 235.282014 
L 460.352259 257.943885 
L 461.099163 307.8 
L 461.846068 307.8 
L 462.592973 296.922302 
L 463.339877 307.8 
L 464.086782 307.8 
L 464.833687 288.764029 
L 465.580591 307.8 
L 466.327496 291.483453 
L 467.0744 307.8 
L 467.821305 257.03741 
L 468.56821 223.497842 
L 469.315114 277.886331 
L 470.062019 307.8 
L 470.808924 284.231655 
L 471.555828 255.22446 
L 472.302733 302.361151 
L 473.049637 203.555396 
L 473.796542 307.8 
L 474.543447 208.994245 
L 475.290351 169.109353 
L 476.037256 282.418705 
L 476.784161 276.073381 
L 477.531065 220.778417 
L 478.27797 233.469065 
L 479.024875 185.425899 
L 479.771779 177.267626 
L 480.518684 218.058993 
L 481.265588 238.001439 
L 482.012493 242.533813 
L 482.759398 130.130935 
L 483.506302 163.670504 
L 484.253207 205.368345 
L 485.000112 307.8 
L 485.747016 184.519424 
L 486.493921 238.001439 
L 487.240825 278.792806 
L 487.98773 261.569784 
L 488.734635 222.591367 
L 489.481539 305.98705 
L 490.228444 230.74964 
L 490.975349 249.785612 
L 491.722253 300.548201 
L 492.469158 307.8 
L 493.216062 284.231655 
L 493.962967 307.8 
L 494.709872 290.576978 
L 495.456776 230.74964 
L 496.203681 263.382734 
L 496.950586 276.073381 
L 497.69749 307.8 
L 499.191299 307.8 
L 499.938204 201.742446 
L 500.685109 307.8 
L 501.432013 262.476259 
L 502.178918 307.8 
L 503.672727 293.296403 
L 504.419632 307.8 
L 505.166537 219.871942 
L 505.913441 307.8 
L 506.660346 299.641727 
L 507.40725 307.8 
L 508.154155 307.8 
L 508.90106 264.289209 
L 509.647964 55.8 
L 511.141774 266.102158 
L 511.888678 160.044604 
L 512.635583 214.433094 
L 513.382487 111.094964 
L 514.129392 238.001439 
L 514.876297 252.505036 
L 515.623201 120.159712 
L 516.370106 267.915108 
L 517.863915 239.814388 
L 518.61082 158.231655 
L 519.357724 227.123741 
L 520.104629 257.03741 
L 520.851534 238.001439 
L 521.598438 272.447482 
L 522.345343 211.713669 
L 523.092248 209.900719 
L 523.839152 218.058993 
L 524.586057 307.8 
L 525.332962 266.102158 
L 526.079866 247.066187 
L 526.826771 198.116547 
L 527.573675 214.433094 
L 528.32058 300.548201 
L 529.067485 307.8 
L 529.814389 295.109353 
L 530.561294 307.8 
L 533.548912 307.8 
L 534.295817 289.670504 
L 535.042722 247.972662 
L 536.536531 307.8 
L 537.283436 307.8 
L 538.03034 297.828777 
L 539.524149 224.404317 
L 540.271054 251.598561 
L 541.017959 305.080576 
L 541.764863 203.555396 
L 542.511768 199.023022 
L 543.258673 244.346763 
L 544.005577 191.771223 
L 544.752482 288.764029 
L 545.499387 231.656115 
L 546.246291 208.08777 
L 546.993196 252.505036 
L 547.7401 273.353957 
L 548.487005 285.138129 
L 549.23391 204.461871 
L 549.980814 243.440288 
L 550.727719 247.972662 
L 551.474624 303.267626 
L 552.221528 286.951079 
L 552.968433 129.22446 
L 553.715337 231.656115 
L 554.462242 297.828777 
L 555.209147 133.756835 
L 555.956051 273.353957 
L 556.702956 307.8 
L 557.449861 273.353957 
L 558.196765 307.8 
L 558.94367 303.267626 
L 559.690574 237.094964 
L 560.437479 307.8 
L 561.184384 296.922302 
L 561.931288 307.8 
L 562.678193 220.778417 
L 563.425098 307.8 
L 564.172002 281.51223 
L 564.918907 307.8 
L 565.665811 198.116547 
L 566.412716 295.109353 
L 567.159621 307.8 
L 567.906525 307.8 
L 568.65343 247.066187 
L 569.400335 307.8 
L 570.147239 296.922302 
L 570.894144 294.202878 
L 571.641049 255.22446 
L 572.387953 267.915108 
L 573.134858 261.569784 
L 573.881762 305.98705 
L 574.628667 117.440288 
L 575.375572 225.310791 
L 576.122476 270.634532 
L 576.869381 170.015827 
L 577.616286 168.202878 
L 578.36319 235.282014 
L 579.110095 203.555396 
L 579.856999 156.418705 
L 580.603904 189.051799 
L 581.350809 170.015827 
L 582.097713 208.08777 
L 582.844618 221.684892 
L 583.591523 258.85036 
L 584.338427 244.346763 
L 585.085332 136.476259 
L 585.832236 215.339568 
L 586.579141 277.886331 
L 587.326046 142.821583 
L 588.07295 252.505036 
L 588.819855 307.8 
L 589.56676 307.8 
L 590.313664 278.792806 
L 591.060569 220.778417 
L 591.807474 307.8 
L 593.301283 307.8 
L 594.048187 262.476259 
L 594.795092 195.397122 
L 595.541997 307.8 
L 598.529615 307.8 
L 599.27652 305.98705 
L 600.023424 289.670504 
L 600.770329 307.8 
L 601.517234 281.51223 
L 602.264138 230.74964 
L 603.011043 307.8 
L 603.757948 292.389928 
L 604.504852 307.8 
L 605.251757 272.447482 
L 605.998661 307.8 
L 606.745566 307.8 
L 607.492471 280.605755 
L 608.239375 225.310791 
L 608.98628 218.965468 
L 609.733185 283.32518 
L 610.480089 274.260432 
L 611.226994 131.943885 
L 611.973898 249.785612 
L 612.720803 213.526619 
L 613.467708 307.8 
L 614.214612 219.871942 
L 614.961517 290.576978 
L 615.708422 233.469065 
L 616.455326 167.296403 
L 617.202231 218.965468 
L 617.949136 202.648921 
L 618.69604 232.56259 
L 619.442945 199.023022 
L 620.189849 174.548201 
L 620.936754 304.174101 
L 621.683659 237.094964 
L 622.430563 286.951079 
L 623.177468 122.879137 
L 623.924373 184.519424 
L 624.671277 273.353957 
L 625.418182 206.27482 
L 626.165086 303.267626 
L 626.911991 179.98705 
L 627.658896 307.8 
L 628.4058 199.023022 
L 629.152705 296.015827 
L 629.89961 166.389928 
L 630.646514 307.8 
L 632.887228 307.8 
L 633.634133 250.692086 
L 634.381037 307.8 
L 635.127942 307.8 
L 635.874847 219.871942 
L 636.621751 307.8 
L 637.368656 296.922302 
L 638.115561 307.8 
L 639.60937 307.8 
L 640.356274 292.389928 
L 641.103179 307.8 
L 641.850084 290.576978 
L 642.596988 265.195683 
L 643.343893 128.317986 
L 644.090798 307.8 
L 644.837702 259.756835 
L 645.584607 198.116547 
L 646.331511 187.238849 
L 647.078416 304.174101 
L 647.825321 157.32518 
L 648.572225 298.735252 
L 649.31913 162.764029 
L 650.066035 119.253237 
L 650.812939 257.03741 
L 651.559844 210.807194 
L 652.306748 271.541007 
L 653.053653 286.951079 
L 653.800558 222.591367 
L 654.547462 88.433094 
L 655.294367 307.8 
L 656.041272 113.814388 
L 656.788176 283.32518 
L 657.535081 250.692086 
L 658.281985 158.231655 
L 659.02889 283.32518 
L 659.775795 235.282014 
L 660.522699 307.8 
L 661.269604 250.692086 
L 662.016509 307.8 
L 663.510318 307.8 
L 664.257223 290.576978 
L 665.004127 307.8 
L 665.751032 303.267626 
L 666.497936 230.74964 
L 667.244841 285.138129 
L 667.991746 307.8 
L 668.73865 238.001439 
L 669.485555 307.8 
L 670.23246 234.37554 
L 670.979364 307.8 
L 671.726269 230.74964 
L 672.473173 271.541007 
L 673.220078 298.735252 
L 673.966983 307.8 
L 674.713887 307.8 
L 675.460792 261.569784 
L 676.207697 267.008633 
L 676.954601 296.015827 
L 677.701506 307.8 
L 678.44841 161.857554 
L 679.195315 214.433094 
L 679.94222 196.303597 
L 680.689124 170.922302 
L 681.436029 307.8 
L 682.182934 111.094964 
L 682.929838 233.469065 
L 683.676743 230.74964 
L 684.423648 246.159712 
L 685.170552 237.094964 
L 685.917457 179.080576 
L 686.664361 135.569784 
L 687.411266 271.541007 
L 688.905075 132.85036 
L 689.65198 265.195683 
L 690.398885 240.720863 
L 691.145789 231.656115 
L 691.892694 245.253237 
L 692.639598 226.217266 
L 693.386503 307.8 
L 694.133408 307.8 
L 694.880312 278.792806 
L 695.627217 209.900719 
L 696.374122 286.951079 
L 697.121026 250.692086 
L 697.867931 276.979856 
L 698.614835 196.303597 
L 699.36174 238.001439 
L 700.108645 223.497842 
L 700.855549 241.627338 
L 701.602454 307.8 
L 702.349359 239.814388 
L 703.096263 307.8 
L 705.336977 307.8 
L 706.083882 287.857554 
L 706.830786 307.8 
L 707.577691 307.8 
L 708.324596 286.951079 
L 709.0715 196.303597 
L 709.818405 197.210072 
L 710.56531 208.994245 
L 711.312214 274.260432 
L 712.059119 286.044604 
L 712.806023 291.483453 
L 713.552928 240.720863 
L 714.299833 227.123741 
L 715.046737 219.871942 
L 715.793642 258.85036 
L 716.540547 242.533813 
L 717.287451 247.972662 
L 718.034356 280.605755 
L 718.78126 255.22446 
L 719.528165 181.8 
L 720.27507 175.454676 
L 721.768879 228.936691 
L 722.515784 185.425899 
L 723.262688 207.181295 
L 724.009593 194.490647 
L 724.756497 288.764029 
L 725.503402 257.943885 
L 726.250307 189.958273 
L 726.997211 265.195683 
L 727.744116 276.073381 
L 729.237925 303.267626 
L 729.98483 307.8 
L 730.731735 280.605755 
L 731.478639 307.8 
L 732.225544 280.605755 
L 732.972448 307.8 
L 733.719353 296.922302 
L 734.466258 301.454676 
L 735.213162 255.22446 
L 735.960067 307.8 
L 736.706972 304.174101 
L 737.453876 307.8 
L 738.200781 211.713669 
L 738.947685 307.8 
L 739.69459 307.8 
L 740.441495 283.32518 
L 741.188399 307.8 
L 741.935304 293.296403 
L 742.682209 307.8 
L 743.429113 289.670504 
L 744.176018 286.044604 
L 744.922922 184.519424 
L 745.669827 286.951079 
L 746.416732 126.505036 
L 747.163636 222.591367 
L 747.163636 222.591367 
" clip-path="url(#p87c97f1ec7)" style="fill: none; stroke: #191970; stroke-width: 2; stroke-linecap: square"/>
   </g>
   <g id="patch_3">
    <path d="M 108 320.4 
L 108 43.2 
" style="fill: none; stroke: #000000; stroke-width: 0.8; stroke-linejoin: miter; stroke-linecap: square"/>
   </g>
   <g id="patch_4">
    <path d="M 777.6 320.4 
L 777.6 43.2 
" style="fill: none; stroke: #000000; stroke-width: 0.8; stroke-linejoin: miter; stroke-linecap: square"/>
   </g>
   <g id="patch_5">
    <path d="M 108 320.4 
L 777.6 320.4 
" style="fill: none; stroke: #000000; stroke-width: 0.8; stroke-linejoin: miter; stroke-linecap: square"/>
   </g>
   <g id="patch_6">
    <path d="M 108 43.2 
L 777.6 43.2 
" style="fill: none; stroke: #000000; stroke-width: 0.8; stroke-linejoin: miter; stroke-linecap: square"/>
   </g>
   <g id="text_18">
    <!-- TIME SERIES -->
    <g transform="translate(405.350625 37.2) scale(0.12 -0.12)">
     <defs>
      <path id="DejaVuSans-52" d="M 2841 2188 
Q 3044 2119 3236 1894 
Q 3428 1669 3622 1275 
L 4263 0 
L 3584 0 
L 2988 1197 
Q 2756 1666 2539 1819 
Q 2322 1972 1947 1972 
L 1259 1972 
L 1259 0 
L 628 0 
L 628 4666 
L 2053 4666 
Q 2853 4666 3247 4331 
Q 3641 3997 3641 3322 
Q 3641 2881 3436 2590 
Q 3231 2300 2841 2188 
z
M 1259 4147 
L 1259 2491 
L 2053 2491 
Q 2509 2491 2742 2702 
Q 2975 2913 2975 3322 
Q 2975 3731 2742 3939 
Q 2509 4147 2053 4147 
L 1259 4147 
z
" transform="scale(0.015625)"/>
     </defs>
     <use xlink:href="#DejaVuSans-54"/>
     <use xlink:href="#DejaVuSans-49" x="61.083984"/>
     <use xlink:href="#DejaVuSans-4d" x="90.576172"/>
     <use xlink:href="#DejaVuSans-45" x="176.855469"/>
     <use xlink:href="#DejaVuSans-20" x="240.039062"/>
     <use xlink:href="#DejaVuSans-53" x="271.826172"/>
     <use xlink:href="#DejaVuSans-45" x="335.302734"/>
     <use xlink:href="#DejaVuSans-52" x="398.486328"/>
     <use xlink:href="#DejaVuSans-49" x="467.96875"/>
     <use xlink:href="#DejaVuSans-45" x="497.460938"/>
     <use xlink:href="#DejaVuSans-53" x="560.644531"/>
    </g>
   </g>
  </g>
 </g>
 <defs>
  <clipPath id="p87c97f1ec7">
   <rect x="108" y="43.2" width="669.6" height="277.2"/>
  </clipPath>
 </defs>
</svg>
