<?xml version="1.0" encoding="utf-8" standalone="no"?>
<!DOCTYPE svg PUBLIC "-//W3C//DTD SVG 1.1//EN"
  "http://www.w3.org/Graphics/SVG/1.1/DTD/svg11.dtd">
<svg xmlns:xlink="http://www.w3.org/1999/xlink" width="864pt" height="360pt" viewBox="0 0 864 360" xmlns="http://www.w3.org/2000/svg" version="1.1">
 <metadata>
  <rdf:RDF xmlns:dc="http://purl.org/dc/elements/1.1/" xmlns:cc="http://creativecommons.org/ns#" xmlns:rdf="http://www.w3.org/1999/02/22-rdf-syntax-ns#">
   <cc:Work>
    <dc:type rdf:resource="http://purl.org/dc/dcmitype/StillImage"/>
    <dc:date>2023-08-03T16:21:29.928283</dc:date>
    <dc:format>image/svg+xml</dc:format>
    <dc:creator>
     <cc:Agent>
      <dc:title>Matplotlib v3.7.1, https://matplotlib.org/</dc:title>
     </cc:Agent>
    </dc:creator>
   </cc:Work>
  </rdf:RDF>
 </metadata>
 <defs>
  <style type="text/css">*{stroke-linejoin: round; stroke-linecap: butt}</style>
 </defs>
 <g id="figure_1">
  <g id="patch_1">
   <path d="M 0 360 
L 864 360 
L 864 0 
L 0 0 
z
" style="fill: #ffffff"/>
  </g>
  <g id="axes_1">
   <g id="patch_2">
    <path d="M 108 320.4 
L 777.6 320.4 
L 777.6 43.2 
L 108 43.2 
z
" style="fill: #ffffff"/>
   </g>
   <g id="matplotlib.axis_1">
    <g id="xtick_1">
     <g id="line2d_1">
      <defs>
       <path id="m541387b1fc" d="M 0 0 
L 0 3.5 
" style="stroke: #000000; stroke-width: 0.8"/>
      </defs>
      <g>
       <use xlink:href="#m541387b1fc" x="138.436364" y="320.4" style="stroke: #000000; stroke-width: 0.8"/>
      </g>
     </g>
     <g id="text_1">
      <!-- 2022-01-01 -->
      <g transform="translate(109.378551 334.998438) scale(0.1 -0.1)">
       <defs>
        <path id="DejaVuSans-32" d="M 1228 531 
L 3431 531 
L 3431 0 
L 469 0 
L 469 531 
Q 828 903 1448 1529 
Q 2069 2156 2228 2338 
Q 2531 2678 2651 2914 
Q 2772 3150 2772 3378 
Q 2772 3750 2511 3984 
Q 2250 4219 1831 4219 
Q 1534 4219 1204 4116 
Q 875 4013 500 3803 
L 500 4441 
Q 881 4594 1212 4672 
Q 1544 4750 1819 4750 
Q 2544 4750 2975 4387 
Q 3406 4025 3406 3419 
Q 3406 3131 3298 2873 
Q 3191 2616 2906 2266 
Q 2828 2175 2409 1742 
Q 1991 1309 1228 531 
z
" transform="scale(0.015625)"/>
        <path id="DejaVuSans-30" d="M 2034 4250 
Q 1547 4250 1301 3770 
Q 1056 3291 1056 2328 
Q 1056 1369 1301 889 
Q 1547 409 2034 409 
Q 2525 409 2770 889 
Q 3016 1369 3016 2328 
Q 3016 3291 2770 3770 
Q 2525 4250 2034 4250 
z
M 2034 4750 
Q 2819 4750 3233 4129 
Q 3647 3509 3647 2328 
Q 3647 1150 3233 529 
Q 2819 -91 2034 -91 
Q 1250 -91 836 529 
Q 422 1150 422 2328 
Q 422 3509 836 4129 
Q 1250 4750 2034 4750 
z
" transform="scale(0.015625)"/>
        <path id="DejaVuSans-2d" d="M 313 2009 
L 1997 2009 
L 1997 1497 
L 313 1497 
L 313 2009 
z
" transform="scale(0.015625)"/>
        <path id="DejaVuSans-31" d="M 794 531 
L 1825 531 
L 1825 4091 
L 703 3866 
L 703 4441 
L 1819 4666 
L 2450 4666 
L 2450 531 
L 3481 531 
L 3481 0 
L 794 0 
L 794 531 
z
" transform="scale(0.015625)"/>
       </defs>
       <use xlink:href="#DejaVuSans-32"/>
       <use xlink:href="#DejaVuSans-30" x="63.623047"/>
       <use xlink:href="#DejaVuSans-32" x="127.246094"/>
       <use xlink:href="#DejaVuSans-32" x="190.869141"/>
       <use xlink:href="#DejaVuSans-2d" x="254.492188"/>
       <use xlink:href="#DejaVuSans-30" x="290.576172"/>
       <use xlink:href="#DejaVuSans-31" x="354.199219"/>
       <use xlink:href="#DejaVuSans-2d" x="417.822266"/>
       <use xlink:href="#DejaVuSans-30" x="453.90625"/>
       <use xlink:href="#DejaVuSans-31" x="517.529297"/>
      </g>
     </g>
    </g>
    <g id="xtick_2">
     <g id="line2d_2">
      <g>
       <use xlink:href="#m541387b1fc" x="219.712884" y="320.4" style="stroke: #000000; stroke-width: 0.8"/>
      </g>
     </g>
     <g id="text_2">
      <!-- 2022-01-03 -->
      <g transform="translate(190.655072 334.998438) scale(0.1 -0.1)">
       <defs>
        <path id="DejaVuSans-33" d="M 2597 2516 
Q 3050 2419 3304 2112 
Q 3559 1806 3559 1356 
Q 3559 666 3084 287 
Q 2609 -91 1734 -91 
Q 1441 -91 1130 -33 
Q 819 25 488 141 
L 488 750 
Q 750 597 1062 519 
Q 1375 441 1716 441 
Q 2309 441 2620 675 
Q 2931 909 2931 1356 
Q 2931 1769 2642 2001 
Q 2353 2234 1838 2234 
L 1294 2234 
L 1294 2753 
L 1863 2753 
Q 2328 2753 2575 2939 
Q 2822 3125 2822 3475 
Q 2822 3834 2567 4026 
Q 2313 4219 1838 4219 
Q 1578 4219 1281 4162 
Q 984 4106 628 3988 
L 628 4550 
Q 988 4650 1302 4700 
Q 1616 4750 1894 4750 
Q 2613 4750 3031 4423 
Q 3450 4097 3450 3541 
Q 3450 3153 3228 2886 
Q 3006 2619 2597 2516 
z
" transform="scale(0.015625)"/>
       </defs>
       <use xlink:href="#DejaVuSans-32"/>
       <use xlink:href="#DejaVuSans-30" x="63.623047"/>
       <use xlink:href="#DejaVuSans-32" x="127.246094"/>
       <use xlink:href="#DejaVuSans-32" x="190.869141"/>
       <use xlink:href="#DejaVuSans-2d" x="254.492188"/>
       <use xlink:href="#DejaVuSans-30" x="290.576172"/>
       <use xlink:href="#DejaVuSans-31" x="354.199219"/>
       <use xlink:href="#DejaVuSans-2d" x="417.822266"/>
       <use xlink:href="#DejaVuSans-30" x="453.90625"/>
       <use xlink:href="#DejaVuSans-33" x="517.529297"/>
      </g>
     </g>
    </g>
    <g id="xtick_3">
     <g id="line2d_3">
      <g>
       <use xlink:href="#m541387b1fc" x="300.989404" y="320.4" style="stroke: #000000; stroke-width: 0.8"/>
      </g>
     </g>
     <g id="text_3">
      <!-- 2022-01-05 -->
      <g transform="translate(271.931592 334.998438) scale(0.1 -0.1)">
       <defs>
        <path id="DejaVuSans-35" d="M 691 4666 
L 3169 4666 
L 3169 4134 
L 1269 4134 
L 1269 2991 
Q 1406 3038 1543 3061 
Q 1681 3084 1819 3084 
Q 2600 3084 3056 2656 
Q 3513 2228 3513 1497 
Q 3513 744 3044 326 
Q 2575 -91 1722 -91 
Q 1428 -91 1123 -41 
Q 819 9 494 109 
L 494 744 
Q 775 591 1075 516 
Q 1375 441 1709 441 
Q 2250 441 2565 725 
Q 2881 1009 2881 1497 
Q 2881 1984 2565 2268 
Q 2250 2553 1709 2553 
Q 1456 2553 1204 2497 
Q 953 2441 691 2322 
L 691 4666 
z
" transform="scale(0.015625)"/>
       </defs>
       <use xlink:href="#DejaVuSans-32"/>
       <use xlink:href="#DejaVuSans-30" x="63.623047"/>
       <use xlink:href="#DejaVuSans-32" x="127.246094"/>
       <use xlink:href="#DejaVuSans-32" x="190.869141"/>
       <use xlink:href="#DejaVuSans-2d" x="254.492188"/>
       <use xlink:href="#DejaVuSans-30" x="290.576172"/>
       <use xlink:href="#DejaVuSans-31" x="354.199219"/>
       <use xlink:href="#DejaVuSans-2d" x="417.822266"/>
       <use xlink:href="#DejaVuSans-30" x="453.90625"/>
       <use xlink:href="#DejaVuSans-35" x="517.529297"/>
      </g>
     </g>
    </g>
    <g id="xtick_4">
     <g id="line2d_4">
      <g>
       <use xlink:href="#m541387b1fc" x="382.265925" y="320.4" style="stroke: #000000; stroke-width: 0.8"/>
      </g>
     </g>
     <g id="text_4">
      <!-- 2022-01-07 -->
      <g transform="translate(353.208112 334.998438) scale(0.1 -0.1)">
       <defs>
        <path id="DejaVuSans-37" d="M 525 4666 
L 3525 4666 
L 3525 4397 
L 1831 0 
L 1172 0 
L 2766 4134 
L 525 4134 
L 525 4666 
z
" transform="scale(0.015625)"/>
       </defs>
       <use xlink:href="#DejaVuSans-32"/>
       <use xlink:href="#DejaVuSans-30" x="63.623047"/>
       <use xlink:href="#DejaVuSans-32" x="127.246094"/>
       <use xlink:href="#DejaVuSans-32" x="190.869141"/>
       <use xlink:href="#DejaVuSans-2d" x="254.492188"/>
       <use xlink:href="#DejaVuSans-30" x="290.576172"/>
       <use xlink:href="#DejaVuSans-31" x="354.199219"/>
       <use xlink:href="#DejaVuSans-2d" x="417.822266"/>
       <use xlink:href="#DejaVuSans-30" x="453.90625"/>
       <use xlink:href="#DejaVuSans-37" x="517.529297"/>
      </g>
     </g>
    </g>
    <g id="xtick_5">
     <g id="line2d_5">
      <g>
       <use xlink:href="#m541387b1fc" x="463.542445" y="320.4" style="stroke: #000000; stroke-width: 0.8"/>
      </g>
     </g>
     <g id="text_5">
      <!-- 2022-01-09 -->
      <g transform="translate(434.484633 334.998438) scale(0.1 -0.1)">
       <defs>
        <path id="DejaVuSans-39" d="M 703 97 
L 703 672 
Q 941 559 1184 500 
Q 1428 441 1663 441 
Q 2288 441 2617 861 
Q 2947 1281 2994 2138 
Q 2813 1869 2534 1725 
Q 2256 1581 1919 1581 
Q 1219 1581 811 2004 
Q 403 2428 403 3163 
Q 403 3881 828 4315 
Q 1253 4750 1959 4750 
Q 2769 4750 3195 4129 
Q 3622 3509 3622 2328 
Q 3622 1225 3098 567 
Q 2575 -91 1691 -91 
Q 1453 -91 1209 -44 
Q 966 3 703 97 
z
M 1959 2075 
Q 2384 2075 2632 2365 
Q 2881 2656 2881 3163 
Q 2881 3666 2632 3958 
Q 2384 4250 1959 4250 
Q 1534 4250 1286 3958 
Q 1038 3666 1038 3163 
Q 1038 2656 1286 2365 
Q 1534 2075 1959 2075 
z
" transform="scale(0.015625)"/>
       </defs>
       <use xlink:href="#DejaVuSans-32"/>
       <use xlink:href="#DejaVuSans-30" x="63.623047"/>
       <use xlink:href="#DejaVuSans-32" x="127.246094"/>
       <use xlink:href="#DejaVuSans-32" x="190.869141"/>
       <use xlink:href="#DejaVuSans-2d" x="254.492188"/>
       <use xlink:href="#DejaVuSans-30" x="290.576172"/>
       <use xlink:href="#DejaVuSans-31" x="354.199219"/>
       <use xlink:href="#DejaVuSans-2d" x="417.822266"/>
       <use xlink:href="#DejaVuSans-30" x="453.90625"/>
       <use xlink:href="#DejaVuSans-39" x="517.529297"/>
      </g>
     </g>
    </g>
    <g id="xtick_6">
     <g id="line2d_6">
      <g>
       <use xlink:href="#m541387b1fc" x="544.818966" y="320.4" style="stroke: #000000; stroke-width: 0.8"/>
      </g>
     </g>
     <g id="text_6">
      <!-- 2022-01-11 -->
      <g transform="translate(515.761153 334.998438) scale(0.1 -0.1)">
       <use xlink:href="#DejaVuSans-32"/>
       <use xlink:href="#DejaVuSans-30" x="63.623047"/>
       <use xlink:href="#DejaVuSans-32" x="127.246094"/>
       <use xlink:href="#DejaVuSans-32" x="190.869141"/>
       <use xlink:href="#DejaVuSans-2d" x="254.492188"/>
       <use xlink:href="#DejaVuSans-30" x="290.576172"/>
       <use xlink:href="#DejaVuSans-31" x="354.199219"/>
       <use xlink:href="#DejaVuSans-2d" x="417.822266"/>
       <use xlink:href="#DejaVuSans-31" x="453.90625"/>
       <use xlink:href="#DejaVuSans-31" x="517.529297"/>
      </g>
     </g>
    </g>
    <g id="xtick_7">
     <g id="line2d_7">
      <g>
       <use xlink:href="#m541387b1fc" x="626.095486" y="320.4" style="stroke: #000000; stroke-width: 0.8"/>
      </g>
     </g>
     <g id="text_7">
      <!-- 2022-01-13 -->
      <g transform="translate(597.037674 334.998438) scale(0.1 -0.1)">
       <use xlink:href="#DejaVuSans-32"/>
       <use xlink:href="#DejaVuSans-30" x="63.623047"/>
       <use xlink:href="#DejaVuSans-32" x="127.246094"/>
       <use xlink:href="#DejaVuSans-32" x="190.869141"/>
       <use xlink:href="#DejaVuSans-2d" x="254.492188"/>
       <use xlink:href="#DejaVuSans-30" x="290.576172"/>
       <use xlink:href="#DejaVuSans-31" x="354.199219"/>
       <use xlink:href="#DejaVuSans-2d" x="417.822266"/>
       <use xlink:href="#DejaVuSans-31" x="453.90625"/>
       <use xlink:href="#DejaVuSans-33" x="517.529297"/>
      </g>
     </g>
    </g>
    <g id="xtick_8">
     <g id="line2d_8">
      <g>
       <use xlink:href="#m541387b1fc" x="707.372007" y="320.4" style="stroke: #000000; stroke-width: 0.8"/>
      </g>
     </g>
     <g id="text_8">
      <!-- 2022-01-15 -->
      <g transform="translate(678.314194 334.998438) scale(0.1 -0.1)">
       <use xlink:href="#DejaVuSans-32"/>
       <use xlink:href="#DejaVuSans-30" x="63.623047"/>
       <use xlink:href="#DejaVuSans-32" x="127.246094"/>
       <use xlink:href="#DejaVuSans-32" x="190.869141"/>
       <use xlink:href="#DejaVuSans-2d" x="254.492188"/>
       <use xlink:href="#DejaVuSans-30" x="290.576172"/>
       <use xlink:href="#DejaVuSans-31" x="354.199219"/>
       <use xlink:href="#DejaVuSans-2d" x="417.822266"/>
       <use xlink:href="#DejaVuSans-31" x="453.90625"/>
       <use xlink:href="#DejaVuSans-35" x="517.529297"/>
      </g>
     </g>
    </g>
    <g id="text_9">
     <!-- TIME (DAYS) -->
     <g transform="translate(412.283594 348.676562) scale(0.1 -0.1)">
      <defs>
       <path id="DejaVuSans-54" d="M -19 4666 
L 3928 4666 
L 3928 4134 
L 2272 4134 
L 2272 0 
L 1638 0 
L 1638 4134 
L -19 4134 
L -19 4666 
z
" transform="scale(0.015625)"/>
       <path id="DejaVuSans-49" d="M 628 4666 
L 1259 4666 
L 1259 0 
L 628 0 
L 628 4666 
z
" transform="scale(0.015625)"/>
       <path id="DejaVuSans-4d" d="M 628 4666 
L 1569 4666 
L 2759 1491 
L 3956 4666 
L 4897 4666 
L 4897 0 
L 4281 0 
L 4281 4097 
L 3078 897 
L 2444 897 
L 1241 4097 
L 1241 0 
L 628 0 
L 628 4666 
z
" transform="scale(0.015625)"/>
       <path id="DejaVuSans-45" d="M 628 4666 
L 3578 4666 
L 3578 4134 
L 1259 4134 
L 1259 2753 
L 3481 2753 
L 3481 2222 
L 1259 2222 
L 1259 531 
L 3634 531 
L 3634 0 
L 628 0 
L 628 4666 
z
" transform="scale(0.015625)"/>
       <path id="DejaVuSans-20" transform="scale(0.015625)"/>
       <path id="DejaVuSans-28" d="M 1984 4856 
Q 1566 4138 1362 3434 
Q 1159 2731 1159 2009 
Q 1159 1288 1364 580 
Q 1569 -128 1984 -844 
L 1484 -844 
Q 1016 -109 783 600 
Q 550 1309 550 2009 
Q 550 2706 781 3412 
Q 1013 4119 1484 4856 
L 1984 4856 
z
" transform="scale(0.015625)"/>
       <path id="DejaVuSans-44" d="M 1259 4147 
L 1259 519 
L 2022 519 
Q 2988 519 3436 956 
Q 3884 1394 3884 2338 
Q 3884 3275 3436 3711 
Q 2988 4147 2022 4147 
L 1259 4147 
z
M 628 4666 
L 1925 4666 
Q 3281 4666 3915 4102 
Q 4550 3538 4550 2338 
Q 4550 1131 3912 565 
Q 3275 0 1925 0 
L 628 0 
L 628 4666 
z
" transform="scale(0.015625)"/>
       <path id="DejaVuSans-41" d="M 2188 4044 
L 1331 1722 
L 3047 1722 
L 2188 4044 
z
M 1831 4666 
L 2547 4666 
L 4325 0 
L 3669 0 
L 3244 1197 
L 1141 1197 
L 716 0 
L 50 0 
L 1831 4666 
z
" transform="scale(0.015625)"/>
       <path id="DejaVuSans-59" d="M -13 4666 
L 666 4666 
L 1959 2747 
L 3244 4666 
L 3922 4666 
L 2272 2222 
L 2272 0 
L 1638 0 
L 1638 2222 
L -13 4666 
z
" transform="scale(0.015625)"/>
       <path id="DejaVuSans-53" d="M 3425 4513 
L 3425 3897 
Q 3066 4069 2747 4153 
Q 2428 4238 2131 4238 
Q 1616 4238 1336 4038 
Q 1056 3838 1056 3469 
Q 1056 3159 1242 3001 
Q 1428 2844 1947 2747 
L 2328 2669 
Q 3034 2534 3370 2195 
Q 3706 1856 3706 1288 
Q 3706 609 3251 259 
Q 2797 -91 1919 -91 
Q 1588 -91 1214 -16 
Q 841 59 441 206 
L 441 856 
Q 825 641 1194 531 
Q 1563 422 1919 422 
Q 2459 422 2753 634 
Q 3047 847 3047 1241 
Q 3047 1584 2836 1778 
Q 2625 1972 2144 2069 
L 1759 2144 
Q 1053 2284 737 2584 
Q 422 2884 422 3419 
Q 422 4038 858 4394 
Q 1294 4750 2059 4750 
Q 2388 4750 2728 4690 
Q 3069 4631 3425 4513 
z
" transform="scale(0.015625)"/>
       <path id="DejaVuSans-29" d="M 513 4856 
L 1013 4856 
Q 1481 4119 1714 3412 
Q 1947 2706 1947 2009 
Q 1947 1309 1714 600 
Q 1481 -109 1013 -844 
L 513 -844 
Q 928 -128 1133 580 
Q 1338 1288 1338 2009 
Q 1338 2731 1133 3434 
Q 928 4138 513 4856 
z
" transform="scale(0.015625)"/>
      </defs>
      <use xlink:href="#DejaVuSans-54"/>
      <use xlink:href="#DejaVuSans-49" x="61.083984"/>
      <use xlink:href="#DejaVuSans-4d" x="90.576172"/>
      <use xlink:href="#DejaVuSans-45" x="176.855469"/>
      <use xlink:href="#DejaVuSans-20" x="240.039062"/>
      <use xlink:href="#DejaVuSans-28" x="271.826172"/>
      <use xlink:href="#DejaVuSans-44" x="310.839844"/>
      <use xlink:href="#DejaVuSans-41" x="386.091797"/>
      <use xlink:href="#DejaVuSans-59" x="446.75"/>
      <use xlink:href="#DejaVuSans-53" x="507.833984"/>
      <use xlink:href="#DejaVuSans-29" x="571.310547"/>
     </g>
    </g>
   </g>
   <g id="matplotlib.axis_2">
    <g id="ytick_1">
     <g id="line2d_9">
      <defs>
       <path id="m022fac3300" d="M 0 0 
L -3.5 0 
" style="stroke: #000000; stroke-width: 0.8"/>
      </defs>
      <g>
       <use xlink:href="#m022fac3300" x="108" y="307.8" style="stroke: #000000; stroke-width: 0.8"/>
      </g>
     </g>
     <g id="text_10">
      <!-- 0 -->
      <g transform="translate(94.6375 311.599219) scale(0.1 -0.1)">
       <use xlink:href="#DejaVuSans-30"/>
      </g>
     </g>
    </g>
    <g id="ytick_2">
     <g id="line2d_10">
      <g>
       <use xlink:href="#m022fac3300" x="108" y="275.492308" style="stroke: #000000; stroke-width: 0.8"/>
      </g>
     </g>
     <g id="text_11">
      <!-- 10 -->
      <g transform="translate(88.275 279.291526) scale(0.1 -0.1)">
       <use xlink:href="#DejaVuSans-31"/>
       <use xlink:href="#DejaVuSans-30" x="63.623047"/>
      </g>
     </g>
    </g>
    <g id="ytick_3">
     <g id="line2d_11">
      <g>
       <use xlink:href="#m022fac3300" x="108" y="243.184615" style="stroke: #000000; stroke-width: 0.8"/>
      </g>
     </g>
     <g id="text_12">
      <!-- 20 -->
      <g transform="translate(88.275 246.983834) scale(0.1 -0.1)">
       <use xlink:href="#DejaVuSans-32"/>
       <use xlink:href="#DejaVuSans-30" x="63.623047"/>
      </g>
     </g>
    </g>
    <g id="ytick_4">
     <g id="line2d_12">
      <g>
       <use xlink:href="#m022fac3300" x="108" y="210.876923" style="stroke: #000000; stroke-width: 0.8"/>
      </g>
     </g>
     <g id="text_13">
      <!-- 30 -->
      <g transform="translate(88.275 214.676142) scale(0.1 -0.1)">
       <use xlink:href="#DejaVuSans-33"/>
       <use xlink:href="#DejaVuSans-30" x="63.623047"/>
      </g>
     </g>
    </g>
    <g id="ytick_5">
     <g id="line2d_13">
      <g>
       <use xlink:href="#m022fac3300" x="108" y="178.569231" style="stroke: #000000; stroke-width: 0.8"/>
      </g>
     </g>
     <g id="text_14">
      <!-- 40 -->
      <g transform="translate(88.275 182.36845) scale(0.1 -0.1)">
       <defs>
        <path id="DejaVuSans-34" d="M 2419 4116 
L 825 1625 
L 2419 1625 
L 2419 4116 
z
M 2253 4666 
L 3047 4666 
L 3047 1625 
L 3713 1625 
L 3713 1100 
L 3047 1100 
L 3047 0 
L 2419 0 
L 2419 1100 
L 313 1100 
L 313 1709 
L 2253 4666 
z
" transform="scale(0.015625)"/>
       </defs>
       <use xlink:href="#DejaVuSans-34"/>
       <use xlink:href="#DejaVuSans-30" x="63.623047"/>
      </g>
     </g>
    </g>
    <g id="ytick_6">
     <g id="line2d_14">
      <g>
       <use xlink:href="#m022fac3300" x="108" y="146.261538" style="stroke: #000000; stroke-width: 0.8"/>
      </g>
     </g>
     <g id="text_15">
      <!-- 50 -->
      <g transform="translate(88.275 150.060757) scale(0.1 -0.1)">
       <use xlink:href="#DejaVuSans-35"/>
       <use xlink:href="#DejaVuSans-30" x="63.623047"/>
      </g>
     </g>
    </g>
    <g id="ytick_7">
     <g id="line2d_15">
      <g>
       <use xlink:href="#m022fac3300" x="108" y="113.953846" style="stroke: #000000; stroke-width: 0.8"/>
      </g>
     </g>
     <g id="text_16">
      <!-- 60 -->
      <g transform="translate(88.275 117.753065) scale(0.1 -0.1)">
       <defs>
        <path id="DejaVuSans-36" d="M 2113 2584 
Q 1688 2584 1439 2293 
Q 1191 2003 1191 1497 
Q 1191 994 1439 701 
Q 1688 409 2113 409 
Q 2538 409 2786 701 
Q 3034 994 3034 1497 
Q 3034 2003 2786 2293 
Q 2538 2584 2113 2584 
z
M 3366 4563 
L 3366 3988 
Q 3128 4100 2886 4159 
Q 2644 4219 2406 4219 
Q 1781 4219 1451 3797 
Q 1122 3375 1075 2522 
Q 1259 2794 1537 2939 
Q 1816 3084 2150 3084 
Q 2853 3084 3261 2657 
Q 3669 2231 3669 1497 
Q 3669 778 3244 343 
Q 2819 -91 2113 -91 
Q 1303 -91 875 529 
Q 447 1150 447 2328 
Q 447 3434 972 4092 
Q 1497 4750 2381 4750 
Q 2619 4750 2861 4703 
Q 3103 4656 3366 4563 
z
" transform="scale(0.015625)"/>
       </defs>
       <use xlink:href="#DejaVuSans-36"/>
       <use xlink:href="#DejaVuSans-30" x="63.623047"/>
      </g>
     </g>
    </g>
    <g id="ytick_8">
     <g id="line2d_16">
      <g>
       <use xlink:href="#m022fac3300" x="108" y="81.646154" style="stroke: #000000; stroke-width: 0.8"/>
      </g>
     </g>
     <g id="text_17">
      <!-- 70 -->
      <g transform="translate(88.275 85.445373) scale(0.1 -0.1)">
       <use xlink:href="#DejaVuSans-37"/>
       <use xlink:href="#DejaVuSans-30" x="63.623047"/>
      </g>
     </g>
    </g>
    <g id="ytick_9">
     <g id="line2d_17">
      <g>
       <use xlink:href="#m022fac3300" x="108" y="49.338462" style="stroke: #000000; stroke-width: 0.8"/>
      </g>
     </g>
     <g id="text_18">
      <!-- 80 -->
      <g transform="translate(88.275 53.13768) scale(0.1 -0.1)">
       <defs>
        <path id="DejaVuSans-38" d="M 2034 2216 
Q 1584 2216 1326 1975 
Q 1069 1734 1069 1313 
Q 1069 891 1326 650 
Q 1584 409 2034 409 
Q 2484 409 2743 651 
Q 3003 894 3003 1313 
Q 3003 1734 2745 1975 
Q 2488 2216 2034 2216 
z
M 1403 2484 
Q 997 2584 770 2862 
Q 544 3141 544 3541 
Q 544 4100 942 4425 
Q 1341 4750 2034 4750 
Q 2731 4750 3128 4425 
Q 3525 4100 3525 3541 
Q 3525 3141 3298 2862 
Q 3072 2584 2669 2484 
Q 3125 2378 3379 2068 
Q 3634 1759 3634 1313 
Q 3634 634 3220 271 
Q 2806 -91 2034 -91 
Q 1263 -91 848 271 
Q 434 634 434 1313 
Q 434 1759 690 2068 
Q 947 2378 1403 2484 
z
M 1172 3481 
Q 1172 3119 1398 2916 
Q 1625 2713 2034 2713 
Q 2441 2713 2670 2916 
Q 2900 3119 2900 3481 
Q 2900 3844 2670 4047 
Q 2441 4250 2034 4250 
Q 1625 4250 1398 4047 
Q 1172 3844 1172 3481 
z
" transform="scale(0.015625)"/>
       </defs>
       <use xlink:href="#DejaVuSans-38"/>
       <use xlink:href="#DejaVuSans-30" x="63.623047"/>
      </g>
     </g>
    </g>
    <g id="text_19">
     <!-- AMPLITUDE -->
     <g transform="translate(82.195312 210.532812) rotate(-90) scale(0.1 -0.1)">
      <defs>
       <path id="DejaVuSans-50" d="M 1259 4147 
L 1259 2394 
L 2053 2394 
Q 2494 2394 2734 2622 
Q 2975 2850 2975 3272 
Q 2975 3691 2734 3919 
Q 2494 4147 2053 4147 
L 1259 4147 
z
M 628 4666 
L 2053 4666 
Q 2838 4666 3239 4311 
Q 3641 3956 3641 3272 
Q 3641 2581 3239 2228 
Q 2838 1875 2053 1875 
L 1259 1875 
L 1259 0 
L 628 0 
L 628 4666 
z
" transform="scale(0.015625)"/>
       <path id="DejaVuSans-4c" d="M 628 4666 
L 1259 4666 
L 1259 531 
L 3531 531 
L 3531 0 
L 628 0 
L 628 4666 
z
" transform="scale(0.015625)"/>
       <path id="DejaVuSans-55" d="M 556 4666 
L 1191 4666 
L 1191 1831 
Q 1191 1081 1462 751 
Q 1734 422 2344 422 
Q 2950 422 3222 751 
Q 3494 1081 3494 1831 
L 3494 4666 
L 4128 4666 
L 4128 1753 
Q 4128 841 3676 375 
Q 3225 -91 2344 -91 
Q 1459 -91 1007 375 
Q 556 841 556 1753 
L 556 4666 
z
" transform="scale(0.015625)"/>
      </defs>
      <use xlink:href="#DejaVuSans-41"/>
      <use xlink:href="#DejaVuSans-4d" x="68.408203"/>
      <use xlink:href="#DejaVuSans-50" x="154.6875"/>
      <use xlink:href="#DejaVuSans-4c" x="214.990234"/>
      <use xlink:href="#DejaVuSans-49" x="270.703125"/>
      <use xlink:href="#DejaVuSans-54" x="300.195312"/>
      <use xlink:href="#DejaVuSans-55" x="361.279297"/>
      <use xlink:href="#DejaVuSans-44" x="434.472656"/>
      <use xlink:href="#DejaVuSans-45" x="511.474609"/>
     </g>
    </g>
   </g>
   <g id="line2d_18">
    <path d="M 138.436364 307.8 
L 139.282994 71.953846 
L 140.129624 259.338462 
L 140.976255 197.953846 
L 141.822885 217.338462 
L 142.669516 291.646154 
L 143.516146 307.8 
L 144.362777 304.569231 
L 145.209407 265.8 
L 146.056037 307.8 
L 146.902668 307.8 
L 147.749298 269.030769 
L 148.595929 307.8 
L 149.442559 230.261538 
L 150.28919 307.8 
L 151.13582 307.8 
L 151.98245 285.184615 
L 152.829081 272.261538 
L 153.675711 265.8 
L 154.522342 188.261538 
L 155.368972 191.492308 
L 156.215602 172.107692 
L 157.062233 139.8 
L 157.908863 307.8 
L 158.755494 227.030769 
L 159.602124 223.8 
L 160.448755 307.8 
L 161.295385 307.8 
L 162.142015 269.030769 
L 162.988646 307.8 
L 163.835276 294.876923 
L 164.681907 307.8 
L 166.375168 307.8 
L 167.221798 236.723077 
L 168.068428 307.8 
L 168.915059 307.8 
L 169.761689 281.953846 
L 170.60832 210.876923 
L 171.45495 278.723077 
L 172.30158 307.8 
L 173.994841 307.8 
L 174.841472 288.415385 
L 175.688102 288.415385 
L 176.534733 152.723077 
L 177.381363 155.953846 
L 178.227993 146.261538 
L 179.074624 217.338462 
L 179.921254 272.261538 
L 180.767885 214.107692 
L 181.614515 239.953846 
L 183.307776 307.8 
L 185.001037 307.8 
L 185.847667 223.8 
L 186.694298 291.646154 
L 187.540928 307.8 
L 188.387558 223.8 
L 189.234189 262.569231 
L 190.080819 162.415385 
L 190.92745 217.338462 
L 191.77408 249.646154 
L 192.620711 288.415385 
L 193.467341 168.876923 
L 194.313971 159.184615 
L 196.007232 288.415385 
L 196.853863 307.8 
L 197.700493 307.8 
L 198.547124 220.569231 
L 199.393754 307.8 
L 200.240384 307.8 
L 201.087015 281.953846 
L 201.933645 278.723077 
L 202.780276 281.953846 
L 203.626906 181.8 
L 204.473536 191.492308 
L 205.320167 307.8 
L 208.706689 307.8 
L 209.553319 259.338462 
L 210.399949 288.415385 
L 211.24658 278.723077 
L 212.09321 259.338462 
L 212.939841 307.8 
L 213.786471 172.107692 
L 214.633102 204.415385 
L 215.479732 155.953846 
L 216.326362 256.107692 
L 217.172993 220.569231 
L 218.019623 243.184615 
L 218.866254 294.876923 
L 219.712884 246.415385 
L 220.559514 307.8 
L 221.406145 210.876923 
L 222.252775 278.723077 
L 223.099406 233.492308 
L 223.946036 307.8 
L 224.792667 281.953846 
L 225.639297 278.723077 
L 226.485927 285.184615 
L 227.332558 191.492308 
L 228.179188 249.646154 
L 229.025819 159.184615 
L 229.872449 133.338462 
L 230.71908 233.492308 
L 231.56571 230.261538 
L 232.41234 307.8 
L 233.258971 304.569231 
L 234.105601 307.8 
L 234.952232 307.8 
L 235.798862 214.107692 
L 236.645492 265.8 
L 237.492123 262.569231 
L 238.338753 307.8 
L 239.185384 294.876923 
L 240.032014 307.8 
L 240.878645 307.8 
L 241.725275 217.338462 
L 242.571905 307.8 
L 243.418536 227.030769 
L 244.265166 307.8 
L 245.111797 275.492308 
L 245.958427 307.8 
L 246.805058 239.953846 
L 247.651688 259.338462 
L 248.498318 265.8 
L 249.344949 307.8 
L 250.191579 307.8 
L 251.03821 107.492308 
L 251.88484 130.107692 
L 252.73147 172.107692 
L 253.578101 207.646154 
L 254.424731 307.8 
L 255.271362 262.569231 
L 256.117992 265.8 
L 256.964623 239.953846 
L 258.657883 307.8 
L 259.504514 307.8 
L 260.351144 252.876923 
L 261.197775 307.8 
L 262.891036 307.8 
L 263.737666 210.876923 
L 264.584296 201.184615 
L 265.430927 217.338462 
L 266.277557 197.953846 
L 267.124188 269.030769 
L 267.970818 146.261538 
L 268.817448 139.8 
L 269.664079 288.415385 
L 270.510709 281.953846 
L 272.20397 307.8 
L 273.050601 301.338462 
L 273.897231 262.569231 
L 274.743861 307.8 
L 275.590492 230.261538 
L 276.437122 307.8 
L 277.283753 291.646154 
L 278.130383 233.492308 
L 278.977014 275.492308 
L 279.823644 307.8 
L 280.670274 298.107692 
L 281.516905 197.953846 
L 282.363535 307.8 
L 283.210166 307.8 
L 284.056796 262.569231 
L 284.903426 307.8 
L 285.750057 307.8 
L 286.596687 291.646154 
L 287.443318 223.8 
L 288.289948 117.184615 
L 289.136579 243.184615 
L 289.983209 217.338462 
L 290.829839 288.415385 
L 291.67647 243.184615 
L 292.5231 252.876923 
L 293.369731 265.8 
L 294.216361 307.8 
L 295.062992 243.184615 
L 295.909622 307.8 
L 296.756252 275.492308 
L 297.602883 307.8 
L 298.449513 285.184615 
L 299.296144 307.8 
L 300.989404 307.8 
L 301.836035 294.876923 
L 302.682665 256.107692 
L 303.529296 294.876923 
L 304.375926 259.338462 
L 305.222557 91.338462 
L 306.069187 126.876923 
L 306.915817 307.8 
L 307.762448 256.107692 
L 308.609078 275.492308 
L 309.455709 278.723077 
L 310.302339 307.8 
L 311.14897 269.030769 
L 311.9956 294.876923 
L 312.84223 307.8 
L 314.535491 256.107692 
L 315.382122 307.8 
L 316.228752 252.876923 
L 317.075382 301.338462 
L 317.922013 307.8 
L 318.768643 307.8 
L 319.615274 272.261538 
L 320.461904 252.876923 
L 321.308535 307.8 
L 322.155165 298.107692 
L 323.001795 307.8 
L 323.848426 291.646154 
L 324.695056 307.8 
L 325.541687 178.569231 
L 326.388317 168.876923 
L 327.234948 239.953846 
L 328.081578 281.953846 
L 328.928208 181.8 
L 329.774839 307.8 
L 330.621469 181.8 
L 331.4681 307.8 
L 332.31473 217.338462 
L 333.16136 304.569231 
L 334.007991 265.8 
L 334.854621 249.646154 
L 335.701252 285.184615 
L 336.547882 307.8 
L 337.394513 220.569231 
L 338.241143 285.184615 
L 339.087773 307.8 
L 339.934404 236.723077 
L 340.781034 220.569231 
L 341.627665 217.338462 
L 342.474295 269.030769 
L 343.320926 249.646154 
L 344.167556 262.569231 
L 345.014186 243.184615 
L 345.860817 307.8 
L 346.707447 307.8 
L 347.554078 262.569231 
L 348.400708 233.492308 
L 349.247338 239.953846 
L 350.093969 307.8 
L 350.940599 217.338462 
L 351.78723 307.8 
L 355.173751 307.8 
L 356.020382 294.876923 
L 356.867012 227.030769 
L 357.713643 272.261538 
L 358.560273 278.723077 
L 359.406904 307.8 
L 360.253534 291.646154 
L 361.100164 301.338462 
L 361.946795 307.8 
L 362.793425 278.723077 
L 363.640056 275.492308 
L 364.486686 301.338462 
L 365.333316 307.8 
L 366.179947 307.8 
L 367.026577 152.723077 
L 368.719838 220.569231 
L 369.566469 230.261538 
L 370.413099 269.030769 
L 371.259729 262.569231 
L 372.10636 291.646154 
L 372.95299 301.338462 
L 373.799621 307.8 
L 374.646251 214.107692 
L 375.492882 307.8 
L 376.339512 294.876923 
L 377.186142 227.030769 
L 378.032773 291.646154 
L 378.879403 272.261538 
L 379.726034 307.8 
L 381.419294 307.8 
L 382.265925 236.723077 
L 383.112555 262.569231 
L 383.959186 269.030769 
L 384.805816 162.415385 
L 385.652447 281.953846 
L 386.499077 149.492308 
L 387.345707 155.953846 
L 389.038968 307.8 
L 390.732229 307.8 
L 391.57886 243.184615 
L 392.42549 307.8 
L 393.27212 298.107692 
L 394.118751 307.8 
L 394.965381 307.8 
L 395.812012 185.030769 
L 396.658642 204.415385 
L 397.505272 307.8 
L 399.198533 307.8 
L 400.045164 298.107692 
L 400.891794 243.184615 
L 401.738425 307.8 
L 402.585055 275.492308 
L 403.431685 256.107692 
L 404.278316 307.8 
L 405.124946 298.107692 
L 405.971577 307.8 
L 406.818207 298.107692 
L 407.664838 210.876923 
L 408.511468 307.8 
L 409.358098 307.8 
L 410.204729 110.723077 
L 411.051359 101.030769 
L 411.89799 123.646154 
L 412.74462 188.261538 
L 413.59125 126.876923 
L 415.284511 298.107692 
L 416.131142 252.876923 
L 416.977772 269.030769 
L 417.824403 265.8 
L 418.671033 307.8 
L 420.364294 307.8 
L 421.210924 285.184615 
L 422.057555 307.8 
L 422.904185 307.8 
L 423.750816 265.8 
L 424.597446 246.415385 
L 425.444076 269.030769 
L 426.290707 168.876923 
L 427.137337 201.184615 
L 427.983968 262.569231 
L 428.830598 307.8 
L 429.677228 233.492308 
L 430.523859 239.953846 
L 431.370489 217.338462 
L 432.21712 285.184615 
L 433.06375 236.723077 
L 433.910381 281.953846 
L 434.757011 307.8 
L 435.603641 291.646154 
L 436.450272 204.415385 
L 437.296902 243.184615 
L 438.143533 236.723077 
L 438.990163 307.8 
L 439.836794 307.8 
L 440.683424 239.953846 
L 441.530054 243.184615 
L 442.376685 307.8 
L 443.223315 304.569231 
L 444.069946 307.8 
L 446.609837 307.8 
L 447.456467 265.8 
L 448.303098 259.338462 
L 449.149728 307.8 
L 450.842989 307.8 
L 451.689619 223.8 
L 452.53625 181.8 
L 453.38288 307.8 
L 454.229511 223.8 
L 455.076141 307.8 
L 455.922772 194.723077 
L 456.769402 223.8 
L 457.616032 233.492308 
L 458.462663 294.876923 
L 459.309293 236.723077 
L 460.155924 230.261538 
L 461.002554 217.338462 
L 461.849184 298.107692 
L 462.695815 307.8 
L 463.542445 307.8 
L 464.389076 178.569231 
L 465.235706 307.8 
L 466.082337 307.8 
L 466.928967 288.415385 
L 467.775597 307.8 
L 468.622228 294.876923 
L 469.468858 243.184615 
L 470.315489 304.569231 
L 471.162119 230.261538 
L 472.00875 210.876923 
L 472.85538 239.953846 
L 473.70201 75.184615 
L 475.395271 214.107692 
L 476.241902 298.107692 
L 477.088532 246.415385 
L 477.935162 304.569231 
L 478.781793 269.030769 
L 479.628423 278.723077 
L 480.475054 307.8 
L 481.321684 301.338462 
L 482.168315 307.8 
L 483.014945 259.338462 
L 483.861575 307.8 
L 484.708206 304.569231 
L 485.554836 298.107692 
L 486.401467 307.8 
L 488.094728 307.8 
L 488.941358 288.415385 
L 489.787988 259.338462 
L 490.634619 285.184615 
L 491.481249 304.569231 
L 492.32788 285.184615 
L 493.17451 259.338462 
L 494.02114 220.569231 
L 494.867771 307.8 
L 495.714401 272.261538 
L 496.561032 307.8 
L 497.407662 104.261538 
L 498.254293 220.569231 
L 499.100923 272.261538 
L 499.947553 181.8 
L 500.794184 120.415385 
L 501.640814 307.8 
L 502.487445 249.646154 
L 503.334075 239.953846 
L 504.180706 307.8 
L 505.027336 275.492308 
L 505.873966 301.338462 
L 506.720597 294.876923 
L 507.567227 223.8 
L 508.413858 307.8 
L 509.260488 307.8 
L 510.107118 256.107692 
L 510.953749 239.953846 
L 511.800379 259.338462 
L 512.64701 259.338462 
L 513.49364 275.492308 
L 515.186901 194.723077 
L 516.033531 307.8 
L 516.880162 178.569231 
L 517.726792 207.646154 
L 518.573423 188.261538 
L 519.420053 307.8 
L 520.266684 249.646154 
L 521.113314 307.8 
L 522.806575 307.8 
L 523.653205 185.030769 
L 524.499836 307.8 
L 526.193096 307.8 
L 527.039727 285.184615 
L 527.886357 307.8 
L 530.426249 307.8 
L 531.272879 139.8 
L 532.119509 285.184615 
L 532.96614 307.8 
L 533.81277 301.338462 
L 534.659401 201.184615 
L 535.506031 285.184615 
L 536.352662 307.8 
L 537.199292 307.8 
L 538.045922 288.415385 
L 538.892553 291.646154 
L 539.739183 307.8 
L 540.585814 55.8 
L 542.279074 178.569231 
L 543.125705 139.8 
L 543.972335 236.723077 
L 544.818966 291.646154 
L 545.665596 194.723077 
L 546.512227 259.338462 
L 547.358857 307.8 
L 549.052118 307.8 
L 549.898748 288.415385 
L 550.745379 291.646154 
L 551.592009 307.8 
L 553.28527 307.8 
L 554.1319 243.184615 
L 554.978531 285.184615 
L 555.825161 201.184615 
L 556.671792 230.261538 
L 557.518422 298.107692 
L 558.365052 210.876923 
L 559.211683 214.107692 
L 560.058313 281.953846 
L 560.904944 239.953846 
L 561.751574 133.338462 
L 562.598205 233.492308 
L 563.444835 307.8 
L 564.291465 301.338462 
L 565.138096 307.8 
L 565.984726 204.415385 
L 566.831357 307.8 
L 570.217878 307.8 
L 571.064509 214.107692 
L 571.911139 298.107692 
L 572.75777 285.184615 
L 573.6044 265.8 
L 574.45103 298.107692 
L 575.297661 307.8 
L 583.763965 307.8 
L 584.610596 146.261538 
L 585.457226 236.723077 
L 586.303856 197.953846 
L 587.150487 307.8 
L 587.997117 207.646154 
L 588.843748 288.415385 
L 589.690378 294.876923 
L 590.537008 307.8 
L 591.383639 285.184615 
L 592.230269 233.492308 
L 593.0769 291.646154 
L 593.92353 307.8 
L 594.770161 307.8 
L 595.616791 259.338462 
L 596.463421 256.107692 
L 597.310052 307.8 
L 598.156682 252.876923 
L 599.003313 262.569231 
L 599.849943 301.338462 
L 600.696574 220.569231 
L 601.543204 159.184615 
L 602.389834 217.338462 
L 603.236465 175.338462 
L 604.083095 175.338462 
L 604.929726 201.184615 
L 605.776356 307.8 
L 606.622986 307.8 
L 607.469617 223.8 
L 608.316247 294.876923 
L 609.162878 307.8 
L 610.009508 236.723077 
L 610.856139 307.8 
L 613.39603 307.8 
L 614.24266 272.261538 
L 615.089291 307.8 
L 615.935921 281.953846 
L 616.782552 307.8 
L 617.629182 204.415385 
L 618.475812 307.8 
L 619.322443 281.953846 
L 620.169073 243.184615 
L 621.015704 307.8 
L 622.708964 307.8 
L 623.555595 246.415385 
L 624.402225 307.8 
L 625.248856 307.8 
L 626.095486 269.030769 
L 626.942117 298.107692 
L 627.788747 146.261538 
L 628.635377 194.723077 
L 629.482008 214.107692 
L 630.328638 246.415385 
L 631.175269 185.030769 
L 632.021899 262.569231 
L 632.86853 243.184615 
L 633.71516 281.953846 
L 634.56179 278.723077 
L 635.408421 307.8 
L 637.101682 307.8 
L 637.948312 249.646154 
L 638.794942 233.492308 
L 639.641573 272.261538 
L 640.488203 278.723077 
L 641.334834 298.107692 
L 642.181464 236.723077 
L 643.028095 233.492308 
L 643.874725 130.107692 
L 645.567986 307.8 
L 646.414616 278.723077 
L 647.261247 139.8 
L 648.107877 143.030769 
L 648.954508 220.569231 
L 649.801138 256.107692 
L 650.647768 307.8 
L 653.18766 307.8 
L 654.03429 288.415385 
L 654.88092 307.8 
L 655.727551 214.107692 
L 656.574181 307.8 
L 657.420812 307.8 
L 658.267442 298.107692 
L 659.114073 239.953846 
L 659.960703 307.8 
L 660.807333 301.338462 
L 661.653964 252.876923 
L 662.500594 307.8 
L 665.040486 307.8 
L 665.887116 298.107692 
L 666.733746 307.8 
L 667.580377 233.492308 
L 668.427007 307.8 
L 670.120268 307.8 
L 670.966898 104.261538 
L 671.813529 146.261538 
L 672.660159 113.953846 
L 673.50679 230.261538 
L 674.35342 243.184615 
L 675.200051 233.492308 
L 676.046681 168.876923 
L 676.893311 272.261538 
L 677.739942 201.184615 
L 678.586572 227.030769 
L 679.433203 307.8 
L 681.973094 307.8 
L 682.819724 275.492308 
L 683.666355 307.8 
L 684.512985 243.184615 
L 685.359616 249.646154 
L 686.206246 307.8 
L 687.052876 298.107692 
L 687.899507 214.107692 
L 688.746137 285.184615 
L 689.592768 220.569231 
L 690.439398 249.646154 
L 691.286029 259.338462 
L 692.132659 126.876923 
L 692.979289 307.8 
L 693.82592 275.492308 
L 694.67255 291.646154 
L 695.519181 304.569231 
L 696.365811 252.876923 
L 697.212442 307.8 
L 698.059072 272.261538 
L 698.905702 243.184615 
L 699.752333 307.8 
L 700.598963 272.261538 
L 701.445594 181.8 
L 702.292224 291.646154 
L 703.138854 236.723077 
L 703.985485 298.107692 
L 704.832115 307.8 
L 705.678746 288.415385 
L 706.525376 307.8 
L 707.372007 259.338462 
L 708.218637 307.8 
L 709.065267 307.8 
L 709.911898 291.646154 
L 710.758528 307.8 
L 711.605159 307.8 
L 712.451789 288.415385 
L 713.29842 307.8 
L 714.99168 239.953846 
L 715.838311 188.261538 
L 716.684941 217.338462 
L 717.531572 201.184615 
L 718.378202 272.261538 
L 719.224832 152.723077 
L 720.071463 185.030769 
L 720.918093 185.030769 
L 721.764724 307.8 
L 722.611354 285.184615 
L 723.457985 307.8 
L 725.997876 307.8 
L 726.844506 288.415385 
L 727.691137 256.107692 
L 728.537767 275.492308 
L 729.384398 249.646154 
L 730.231028 307.8 
L 731.077658 204.415385 
L 731.924289 252.876923 
L 732.770919 256.107692 
L 733.61755 188.261538 
L 734.46418 243.184615 
L 735.31081 84.876923 
L 736.157441 65.492308 
L 737.004071 275.492308 
L 737.850702 307.8 
L 739.543963 307.8 
L 740.390593 188.261538 
L 741.237223 272.261538 
L 742.083854 175.338462 
L 742.930484 204.415385 
L 743.777115 307.8 
L 744.623745 298.107692 
L 745.470376 307.8 
L 746.317006 294.876923 
L 747.163636 307.8 
L 747.163636 307.8 
" clip-path="url(#pdac0d5e892)" style="fill: none; stroke: #191970; stroke-width: 2; stroke-linecap: square"/>
   </g>
   <g id="patch_3">
    <path d="M 108 320.4 
L 108 43.2 
" style="fill: none; stroke: #000000; stroke-width: 0.8; stroke-linejoin: miter; stroke-linecap: square"/>
   </g>
   <g id="patch_4">
    <path d="M 777.6 320.4 
L 777.6 43.2 
" style="fill: none; stroke: #000000; stroke-width: 0.8; stroke-linejoin: miter; stroke-linecap: square"/>
   </g>
   <g id="patch_5">
    <path d="M 108 320.4 
L 777.6 320.4 
" style="fill: none; stroke: #000000; stroke-width: 0.8; stroke-linejoin: miter; stroke-linecap: square"/>
   </g>
   <g id="patch_6">
    <path d="M 108 43.2 
L 777.6 43.2 
" style="fill: none; stroke: #000000; stroke-width: 0.8; stroke-linejoin: miter; stroke-linecap: square"/>
   </g>
   <g id="text_20">
    <!-- TIME SERIES -->
    <g transform="translate(405.350625 37.2) scale(0.12 -0.12)">
     <defs>
      <path id="DejaVuSans-52" d="M 2841 2188 
Q 3044 2119 3236 1894 
Q 3428 1669 3622 1275 
L 4263 0 
L 3584 0 
L 2988 1197 
Q 2756 1666 2539 1819 
Q 2322 1972 1947 1972 
L 1259 1972 
L 1259 0 
L 628 0 
L 628 4666 
L 2053 4666 
Q 2853 4666 3247 4331 
Q 3641 3997 3641 3322 
Q 3641 2881 3436 2590 
Q 3231 2300 2841 2188 
z
M 1259 4147 
L 1259 2491 
L 2053 2491 
Q 2509 2491 2742 2702 
Q 2975 2913 2975 3322 
Q 2975 3731 2742 3939 
Q 2509 4147 2053 4147 
L 1259 4147 
z
" transform="scale(0.015625)"/>
     </defs>
     <use xlink:href="#DejaVuSans-54"/>
     <use xlink:href="#DejaVuSans-49" x="61.083984"/>
     <use xlink:href="#DejaVuSans-4d" x="90.576172"/>
     <use xlink:href="#DejaVuSans-45" x="176.855469"/>
     <use xlink:href="#DejaVuSans-20" x="240.039062"/>
     <use xlink:href="#DejaVuSans-53" x="271.826172"/>
     <use xlink:href="#DejaVuSans-45" x="335.302734"/>
     <use xlink:href="#DejaVuSans-52" x="398.486328"/>
     <use xlink:href="#DejaVuSans-49" x="467.96875"/>
     <use xlink:href="#DejaVuSans-45" x="497.460938"/>
     <use xlink:href="#DejaVuSans-53" x="560.644531"/>
    </g>
   </g>
  </g>
 </g>
 <defs>
  <clipPath id="pdac0d5e892">
   <rect x="108" y="43.2" width="669.6" height="277.2"/>
  </clipPath>
 </defs>
</svg>
