<?xml version="1.0" encoding="utf-8" standalone="no"?>
<!DOCTYPE svg PUBLIC "-//W3C//DTD SVG 1.1//EN"
  "http://www.w3.org/Graphics/SVG/1.1/DTD/svg11.dtd">
<svg xmlns:xlink="http://www.w3.org/1999/xlink" width="864pt" height="360pt" viewBox="0 0 864 360" xmlns="http://www.w3.org/2000/svg" version="1.1">
 <metadata>
  <rdf:RDF xmlns:dc="http://purl.org/dc/elements/1.1/" xmlns:cc="http://creativecommons.org/ns#" xmlns:rdf="http://www.w3.org/1999/02/22-rdf-syntax-ns#">
   <cc:Work>
    <dc:type rdf:resource="http://purl.org/dc/dcmitype/StillImage"/>
    <dc:date>2023-08-03T16:48:10.141276</dc:date>
    <dc:format>image/svg+xml</dc:format>
    <dc:creator>
     <cc:Agent>
      <dc:title>Matplotlib v3.7.1, https://matplotlib.org/</dc:title>
     </cc:Agent>
    </dc:creator>
   </cc:Work>
  </rdf:RDF>
 </metadata>
 <defs>
  <style type="text/css">*{stroke-linejoin: round; stroke-linecap: butt}</style>
 </defs>
 <g id="figure_1">
  <g id="patch_1">
   <path d="M 0 360 
L 864 360 
L 864 0 
L 0 0 
z
" style="fill: #ffffff"/>
  </g>
  <g id="axes_1">
   <g id="patch_2">
    <path d="M 108 320.4 
L 777.6 320.4 
L 777.6 43.2 
L 108 43.2 
z
" style="fill: #ffffff"/>
   </g>
   <g id="matplotlib.axis_1">
    <g id="xtick_1">
     <g id="line2d_1">
      <defs>
       <path id="m4bd386c62f" d="M 0 0 
L 0 3.5 
" style="stroke: #000000; stroke-width: 0.8"/>
      </defs>
      <g>
       <use xlink:href="#m4bd386c62f" x="138.436364" y="320.4" style="stroke: #000000; stroke-width: 0.8"/>
      </g>
     </g>
     <g id="text_1">
      <!-- 2022-01-01 -->
      <g transform="translate(109.378551 334.998438) scale(0.1 -0.1)">
       <defs>
        <path id="DejaVuSans-32" d="M 1228 531 
L 3431 531 
L 3431 0 
L 469 0 
L 469 531 
Q 828 903 1448 1529 
Q 2069 2156 2228 2338 
Q 2531 2678 2651 2914 
Q 2772 3150 2772 3378 
Q 2772 3750 2511 3984 
Q 2250 4219 1831 4219 
Q 1534 4219 1204 4116 
Q 875 4013 500 3803 
L 500 4441 
Q 881 4594 1212 4672 
Q 1544 4750 1819 4750 
Q 2544 4750 2975 4387 
Q 3406 4025 3406 3419 
Q 3406 3131 3298 2873 
Q 3191 2616 2906 2266 
Q 2828 2175 2409 1742 
Q 1991 1309 1228 531 
z
" transform="scale(0.015625)"/>
        <path id="DejaVuSans-30" d="M 2034 4250 
Q 1547 4250 1301 3770 
Q 1056 3291 1056 2328 
Q 1056 1369 1301 889 
Q 1547 409 2034 409 
Q 2525 409 2770 889 
Q 3016 1369 3016 2328 
Q 3016 3291 2770 3770 
Q 2525 4250 2034 4250 
z
M 2034 4750 
Q 2819 4750 3233 4129 
Q 3647 3509 3647 2328 
Q 3647 1150 3233 529 
Q 2819 -91 2034 -91 
Q 1250 -91 836 529 
Q 422 1150 422 2328 
Q 422 3509 836 4129 
Q 1250 4750 2034 4750 
z
" transform="scale(0.015625)"/>
        <path id="DejaVuSans-2d" d="M 313 2009 
L 1997 2009 
L 1997 1497 
L 313 1497 
L 313 2009 
z
" transform="scale(0.015625)"/>
        <path id="DejaVuSans-31" d="M 794 531 
L 1825 531 
L 1825 4091 
L 703 3866 
L 703 4441 
L 1819 4666 
L 2450 4666 
L 2450 531 
L 3481 531 
L 3481 0 
L 794 0 
L 794 531 
z
" transform="scale(0.015625)"/>
       </defs>
       <use xlink:href="#DejaVuSans-32"/>
       <use xlink:href="#DejaVuSans-30" x="63.623047"/>
       <use xlink:href="#DejaVuSans-32" x="127.246094"/>
       <use xlink:href="#DejaVuSans-32" x="190.869141"/>
       <use xlink:href="#DejaVuSans-2d" x="254.492188"/>
       <use xlink:href="#DejaVuSans-30" x="290.576172"/>
       <use xlink:href="#DejaVuSans-31" x="354.199219"/>
       <use xlink:href="#DejaVuSans-2d" x="417.822266"/>
       <use xlink:href="#DejaVuSans-30" x="453.90625"/>
       <use xlink:href="#DejaVuSans-31" x="517.529297"/>
      </g>
     </g>
    </g>
    <g id="xtick_2">
     <g id="line2d_2">
      <g>
       <use xlink:href="#m4bd386c62f" x="232.237035" y="320.4" style="stroke: #000000; stroke-width: 0.8"/>
      </g>
     </g>
     <g id="text_2">
      <!-- 2022-01-03 -->
      <g transform="translate(203.179222 334.998438) scale(0.1 -0.1)">
       <defs>
        <path id="DejaVuSans-33" d="M 2597 2516 
Q 3050 2419 3304 2112 
Q 3559 1806 3559 1356 
Q 3559 666 3084 287 
Q 2609 -91 1734 -91 
Q 1441 -91 1130 -33 
Q 819 25 488 141 
L 488 750 
Q 750 597 1062 519 
Q 1375 441 1716 441 
Q 2309 441 2620 675 
Q 2931 909 2931 1356 
Q 2931 1769 2642 2001 
Q 2353 2234 1838 2234 
L 1294 2234 
L 1294 2753 
L 1863 2753 
Q 2328 2753 2575 2939 
Q 2822 3125 2822 3475 
Q 2822 3834 2567 4026 
Q 2313 4219 1838 4219 
Q 1578 4219 1281 4162 
Q 984 4106 628 3988 
L 628 4550 
Q 988 4650 1302 4700 
Q 1616 4750 1894 4750 
Q 2613 4750 3031 4423 
Q 3450 4097 3450 3541 
Q 3450 3153 3228 2886 
Q 3006 2619 2597 2516 
z
" transform="scale(0.015625)"/>
       </defs>
       <use xlink:href="#DejaVuSans-32"/>
       <use xlink:href="#DejaVuSans-30" x="63.623047"/>
       <use xlink:href="#DejaVuSans-32" x="127.246094"/>
       <use xlink:href="#DejaVuSans-32" x="190.869141"/>
       <use xlink:href="#DejaVuSans-2d" x="254.492188"/>
       <use xlink:href="#DejaVuSans-30" x="290.576172"/>
       <use xlink:href="#DejaVuSans-31" x="354.199219"/>
       <use xlink:href="#DejaVuSans-2d" x="417.822266"/>
       <use xlink:href="#DejaVuSans-30" x="453.90625"/>
       <use xlink:href="#DejaVuSans-33" x="517.529297"/>
      </g>
     </g>
    </g>
    <g id="xtick_3">
     <g id="line2d_3">
      <g>
       <use xlink:href="#m4bd386c62f" x="326.037706" y="320.4" style="stroke: #000000; stroke-width: 0.8"/>
      </g>
     </g>
     <g id="text_3">
      <!-- 2022-01-05 -->
      <g transform="translate(296.979894 334.998438) scale(0.1 -0.1)">
       <defs>
        <path id="DejaVuSans-35" d="M 691 4666 
L 3169 4666 
L 3169 4134 
L 1269 4134 
L 1269 2991 
Q 1406 3038 1543 3061 
Q 1681 3084 1819 3084 
Q 2600 3084 3056 2656 
Q 3513 2228 3513 1497 
Q 3513 744 3044 326 
Q 2575 -91 1722 -91 
Q 1428 -91 1123 -41 
Q 819 9 494 109 
L 494 744 
Q 775 591 1075 516 
Q 1375 441 1709 441 
Q 2250 441 2565 725 
Q 2881 1009 2881 1497 
Q 2881 1984 2565 2268 
Q 2250 2553 1709 2553 
Q 1456 2553 1204 2497 
Q 953 2441 691 2322 
L 691 4666 
z
" transform="scale(0.015625)"/>
       </defs>
       <use xlink:href="#DejaVuSans-32"/>
       <use xlink:href="#DejaVuSans-30" x="63.623047"/>
       <use xlink:href="#DejaVuSans-32" x="127.246094"/>
       <use xlink:href="#DejaVuSans-32" x="190.869141"/>
       <use xlink:href="#DejaVuSans-2d" x="254.492188"/>
       <use xlink:href="#DejaVuSans-30" x="290.576172"/>
       <use xlink:href="#DejaVuSans-31" x="354.199219"/>
       <use xlink:href="#DejaVuSans-2d" x="417.822266"/>
       <use xlink:href="#DejaVuSans-30" x="453.90625"/>
       <use xlink:href="#DejaVuSans-35" x="517.529297"/>
      </g>
     </g>
    </g>
    <g id="xtick_4">
     <g id="line2d_4">
      <g>
       <use xlink:href="#m4bd386c62f" x="419.838377" y="320.4" style="stroke: #000000; stroke-width: 0.8"/>
      </g>
     </g>
     <g id="text_4">
      <!-- 2022-01-07 -->
      <g transform="translate(390.780565 334.998438) scale(0.1 -0.1)">
       <defs>
        <path id="DejaVuSans-37" d="M 525 4666 
L 3525 4666 
L 3525 4397 
L 1831 0 
L 1172 0 
L 2766 4134 
L 525 4134 
L 525 4666 
z
" transform="scale(0.015625)"/>
       </defs>
       <use xlink:href="#DejaVuSans-32"/>
       <use xlink:href="#DejaVuSans-30" x="63.623047"/>
       <use xlink:href="#DejaVuSans-32" x="127.246094"/>
       <use xlink:href="#DejaVuSans-32" x="190.869141"/>
       <use xlink:href="#DejaVuSans-2d" x="254.492188"/>
       <use xlink:href="#DejaVuSans-30" x="290.576172"/>
       <use xlink:href="#DejaVuSans-31" x="354.199219"/>
       <use xlink:href="#DejaVuSans-2d" x="417.822266"/>
       <use xlink:href="#DejaVuSans-30" x="453.90625"/>
       <use xlink:href="#DejaVuSans-37" x="517.529297"/>
      </g>
     </g>
    </g>
    <g id="xtick_5">
     <g id="line2d_5">
      <g>
       <use xlink:href="#m4bd386c62f" x="513.639049" y="320.4" style="stroke: #000000; stroke-width: 0.8"/>
      </g>
     </g>
     <g id="text_5">
      <!-- 2022-01-09 -->
      <g transform="translate(484.581236 334.998438) scale(0.1 -0.1)">
       <defs>
        <path id="DejaVuSans-39" d="M 703 97 
L 703 672 
Q 941 559 1184 500 
Q 1428 441 1663 441 
Q 2288 441 2617 861 
Q 2947 1281 2994 2138 
Q 2813 1869 2534 1725 
Q 2256 1581 1919 1581 
Q 1219 1581 811 2004 
Q 403 2428 403 3163 
Q 403 3881 828 4315 
Q 1253 4750 1959 4750 
Q 2769 4750 3195 4129 
Q 3622 3509 3622 2328 
Q 3622 1225 3098 567 
Q 2575 -91 1691 -91 
Q 1453 -91 1209 -44 
Q 966 3 703 97 
z
M 1959 2075 
Q 2384 2075 2632 2365 
Q 2881 2656 2881 3163 
Q 2881 3666 2632 3958 
Q 2384 4250 1959 4250 
Q 1534 4250 1286 3958 
Q 1038 3666 1038 3163 
Q 1038 2656 1286 2365 
Q 1534 2075 1959 2075 
z
" transform="scale(0.015625)"/>
       </defs>
       <use xlink:href="#DejaVuSans-32"/>
       <use xlink:href="#DejaVuSans-30" x="63.623047"/>
       <use xlink:href="#DejaVuSans-32" x="127.246094"/>
       <use xlink:href="#DejaVuSans-32" x="190.869141"/>
       <use xlink:href="#DejaVuSans-2d" x="254.492188"/>
       <use xlink:href="#DejaVuSans-30" x="290.576172"/>
       <use xlink:href="#DejaVuSans-31" x="354.199219"/>
       <use xlink:href="#DejaVuSans-2d" x="417.822266"/>
       <use xlink:href="#DejaVuSans-30" x="453.90625"/>
       <use xlink:href="#DejaVuSans-39" x="517.529297"/>
      </g>
     </g>
    </g>
    <g id="xtick_6">
     <g id="line2d_6">
      <g>
       <use xlink:href="#m4bd386c62f" x="607.43972" y="320.4" style="stroke: #000000; stroke-width: 0.8"/>
      </g>
     </g>
     <g id="text_6">
      <!-- 2022-01-11 -->
      <g transform="translate(578.381907 334.998438) scale(0.1 -0.1)">
       <use xlink:href="#DejaVuSans-32"/>
       <use xlink:href="#DejaVuSans-30" x="63.623047"/>
       <use xlink:href="#DejaVuSans-32" x="127.246094"/>
       <use xlink:href="#DejaVuSans-32" x="190.869141"/>
       <use xlink:href="#DejaVuSans-2d" x="254.492188"/>
       <use xlink:href="#DejaVuSans-30" x="290.576172"/>
       <use xlink:href="#DejaVuSans-31" x="354.199219"/>
       <use xlink:href="#DejaVuSans-2d" x="417.822266"/>
       <use xlink:href="#DejaVuSans-31" x="453.90625"/>
       <use xlink:href="#DejaVuSans-31" x="517.529297"/>
      </g>
     </g>
    </g>
    <g id="xtick_7">
     <g id="line2d_7">
      <g>
       <use xlink:href="#m4bd386c62f" x="701.240391" y="320.4" style="stroke: #000000; stroke-width: 0.8"/>
      </g>
     </g>
     <g id="text_7">
      <!-- 2022-01-13 -->
      <g transform="translate(672.182579 334.998438) scale(0.1 -0.1)">
       <use xlink:href="#DejaVuSans-32"/>
       <use xlink:href="#DejaVuSans-30" x="63.623047"/>
       <use xlink:href="#DejaVuSans-32" x="127.246094"/>
       <use xlink:href="#DejaVuSans-32" x="190.869141"/>
       <use xlink:href="#DejaVuSans-2d" x="254.492188"/>
       <use xlink:href="#DejaVuSans-30" x="290.576172"/>
       <use xlink:href="#DejaVuSans-31" x="354.199219"/>
       <use xlink:href="#DejaVuSans-2d" x="417.822266"/>
       <use xlink:href="#DejaVuSans-31" x="453.90625"/>
       <use xlink:href="#DejaVuSans-33" x="517.529297"/>
      </g>
     </g>
    </g>
    <g id="text_8">
     <!-- TIME (DAYS) -->
     <g transform="translate(412.283594 348.676562) scale(0.1 -0.1)">
      <defs>
       <path id="DejaVuSans-54" d="M -19 4666 
L 3928 4666 
L 3928 4134 
L 2272 4134 
L 2272 0 
L 1638 0 
L 1638 4134 
L -19 4134 
L -19 4666 
z
" transform="scale(0.015625)"/>
       <path id="DejaVuSans-49" d="M 628 4666 
L 1259 4666 
L 1259 0 
L 628 0 
L 628 4666 
z
" transform="scale(0.015625)"/>
       <path id="DejaVuSans-4d" d="M 628 4666 
L 1569 4666 
L 2759 1491 
L 3956 4666 
L 4897 4666 
L 4897 0 
L 4281 0 
L 4281 4097 
L 3078 897 
L 2444 897 
L 1241 4097 
L 1241 0 
L 628 0 
L 628 4666 
z
" transform="scale(0.015625)"/>
       <path id="DejaVuSans-45" d="M 628 4666 
L 3578 4666 
L 3578 4134 
L 1259 4134 
L 1259 2753 
L 3481 2753 
L 3481 2222 
L 1259 2222 
L 1259 531 
L 3634 531 
L 3634 0 
L 628 0 
L 628 4666 
z
" transform="scale(0.015625)"/>
       <path id="DejaVuSans-20" transform="scale(0.015625)"/>
       <path id="DejaVuSans-28" d="M 1984 4856 
Q 1566 4138 1362 3434 
Q 1159 2731 1159 2009 
Q 1159 1288 1364 580 
Q 1569 -128 1984 -844 
L 1484 -844 
Q 1016 -109 783 600 
Q 550 1309 550 2009 
Q 550 2706 781 3412 
Q 1013 4119 1484 4856 
L 1984 4856 
z
" transform="scale(0.015625)"/>
       <path id="DejaVuSans-44" d="M 1259 4147 
L 1259 519 
L 2022 519 
Q 2988 519 3436 956 
Q 3884 1394 3884 2338 
Q 3884 3275 3436 3711 
Q 2988 4147 2022 4147 
L 1259 4147 
z
M 628 4666 
L 1925 4666 
Q 3281 4666 3915 4102 
Q 4550 3538 4550 2338 
Q 4550 1131 3912 565 
Q 3275 0 1925 0 
L 628 0 
L 628 4666 
z
" transform="scale(0.015625)"/>
       <path id="DejaVuSans-41" d="M 2188 4044 
L 1331 1722 
L 3047 1722 
L 2188 4044 
z
M 1831 4666 
L 2547 4666 
L 4325 0 
L 3669 0 
L 3244 1197 
L 1141 1197 
L 716 0 
L 50 0 
L 1831 4666 
z
" transform="scale(0.015625)"/>
       <path id="DejaVuSans-59" d="M -13 4666 
L 666 4666 
L 1959 2747 
L 3244 4666 
L 3922 4666 
L 2272 2222 
L 2272 0 
L 1638 0 
L 1638 2222 
L -13 4666 
z
" transform="scale(0.015625)"/>
       <path id="DejaVuSans-53" d="M 3425 4513 
L 3425 3897 
Q 3066 4069 2747 4153 
Q 2428 4238 2131 4238 
Q 1616 4238 1336 4038 
Q 1056 3838 1056 3469 
Q 1056 3159 1242 3001 
Q 1428 2844 1947 2747 
L 2328 2669 
Q 3034 2534 3370 2195 
Q 3706 1856 3706 1288 
Q 3706 609 3251 259 
Q 2797 -91 1919 -91 
Q 1588 -91 1214 -16 
Q 841 59 441 206 
L 441 856 
Q 825 641 1194 531 
Q 1563 422 1919 422 
Q 2459 422 2753 634 
Q 3047 847 3047 1241 
Q 3047 1584 2836 1778 
Q 2625 1972 2144 2069 
L 1759 2144 
Q 1053 2284 737 2584 
Q 422 2884 422 3419 
Q 422 4038 858 4394 
Q 1294 4750 2059 4750 
Q 2388 4750 2728 4690 
Q 3069 4631 3425 4513 
z
" transform="scale(0.015625)"/>
       <path id="DejaVuSans-29" d="M 513 4856 
L 1013 4856 
Q 1481 4119 1714 3412 
Q 1947 2706 1947 2009 
Q 1947 1309 1714 600 
Q 1481 -109 1013 -844 
L 513 -844 
Q 928 -128 1133 580 
Q 1338 1288 1338 2009 
Q 1338 2731 1133 3434 
Q 928 4138 513 4856 
z
" transform="scale(0.015625)"/>
      </defs>
      <use xlink:href="#DejaVuSans-54"/>
      <use xlink:href="#DejaVuSans-49" x="61.083984"/>
      <use xlink:href="#DejaVuSans-4d" x="90.576172"/>
      <use xlink:href="#DejaVuSans-45" x="176.855469"/>
      <use xlink:href="#DejaVuSans-20" x="240.039062"/>
      <use xlink:href="#DejaVuSans-28" x="271.826172"/>
      <use xlink:href="#DejaVuSans-44" x="310.839844"/>
      <use xlink:href="#DejaVuSans-41" x="386.091797"/>
      <use xlink:href="#DejaVuSans-59" x="446.75"/>
      <use xlink:href="#DejaVuSans-53" x="507.833984"/>
      <use xlink:href="#DejaVuSans-29" x="571.310547"/>
     </g>
    </g>
   </g>
   <g id="matplotlib.axis_2">
    <g id="ytick_1">
     <g id="line2d_8">
      <defs>
       <path id="md6154a3bab" d="M 0 0 
L -3.5 0 
" style="stroke: #000000; stroke-width: 0.8"/>
      </defs>
      <g>
       <use xlink:href="#md6154a3bab" x="108" y="307.8" style="stroke: #000000; stroke-width: 0.8"/>
      </g>
     </g>
     <g id="text_9">
      <!-- 0 -->
      <g transform="translate(94.6375 311.599219) scale(0.1 -0.1)">
       <use xlink:href="#DejaVuSans-30"/>
      </g>
     </g>
    </g>
    <g id="ytick_2">
     <g id="line2d_9">
      <g>
       <use xlink:href="#md6154a3bab" x="108" y="274.11016" style="stroke: #000000; stroke-width: 0.8"/>
      </g>
     </g>
     <g id="text_10">
      <!-- 25 -->
      <g transform="translate(88.275 277.909379) scale(0.1 -0.1)">
       <use xlink:href="#DejaVuSans-32"/>
       <use xlink:href="#DejaVuSans-35" x="63.623047"/>
      </g>
     </g>
    </g>
    <g id="ytick_3">
     <g id="line2d_10">
      <g>
       <use xlink:href="#md6154a3bab" x="108" y="240.420321" style="stroke: #000000; stroke-width: 0.8"/>
      </g>
     </g>
     <g id="text_11">
      <!-- 50 -->
      <g transform="translate(88.275 244.21954) scale(0.1 -0.1)">
       <use xlink:href="#DejaVuSans-35"/>
       <use xlink:href="#DejaVuSans-30" x="63.623047"/>
      </g>
     </g>
    </g>
    <g id="ytick_4">
     <g id="line2d_11">
      <g>
       <use xlink:href="#md6154a3bab" x="108" y="206.730481" style="stroke: #000000; stroke-width: 0.8"/>
      </g>
     </g>
     <g id="text_12">
      <!-- 75 -->
      <g transform="translate(88.275 210.5297) scale(0.1 -0.1)">
       <use xlink:href="#DejaVuSans-37"/>
       <use xlink:href="#DejaVuSans-35" x="63.623047"/>
      </g>
     </g>
    </g>
    <g id="ytick_5">
     <g id="line2d_12">
      <g>
       <use xlink:href="#md6154a3bab" x="108" y="173.040642" style="stroke: #000000; stroke-width: 0.8"/>
      </g>
     </g>
     <g id="text_13">
      <!-- 100 -->
      <g transform="translate(81.9125 176.83986) scale(0.1 -0.1)">
       <use xlink:href="#DejaVuSans-31"/>
       <use xlink:href="#DejaVuSans-30" x="63.623047"/>
       <use xlink:href="#DejaVuSans-30" x="127.246094"/>
      </g>
     </g>
    </g>
    <g id="ytick_6">
     <g id="line2d_13">
      <g>
       <use xlink:href="#md6154a3bab" x="108" y="139.350802" style="stroke: #000000; stroke-width: 0.8"/>
      </g>
     </g>
     <g id="text_14">
      <!-- 125 -->
      <g transform="translate(81.9125 143.150021) scale(0.1 -0.1)">
       <use xlink:href="#DejaVuSans-31"/>
       <use xlink:href="#DejaVuSans-32" x="63.623047"/>
       <use xlink:href="#DejaVuSans-35" x="127.246094"/>
      </g>
     </g>
    </g>
    <g id="ytick_7">
     <g id="line2d_14">
      <g>
       <use xlink:href="#md6154a3bab" x="108" y="105.660963" style="stroke: #000000; stroke-width: 0.8"/>
      </g>
     </g>
     <g id="text_15">
      <!-- 150 -->
      <g transform="translate(81.9125 109.460181) scale(0.1 -0.1)">
       <use xlink:href="#DejaVuSans-31"/>
       <use xlink:href="#DejaVuSans-35" x="63.623047"/>
       <use xlink:href="#DejaVuSans-30" x="127.246094"/>
      </g>
     </g>
    </g>
    <g id="ytick_8">
     <g id="line2d_15">
      <g>
       <use xlink:href="#md6154a3bab" x="108" y="71.971123" style="stroke: #000000; stroke-width: 0.8"/>
      </g>
     </g>
     <g id="text_16">
      <!-- 175 -->
      <g transform="translate(81.9125 75.770342) scale(0.1 -0.1)">
       <use xlink:href="#DejaVuSans-31"/>
       <use xlink:href="#DejaVuSans-37" x="63.623047"/>
       <use xlink:href="#DejaVuSans-35" x="127.246094"/>
      </g>
     </g>
    </g>
    <g id="text_17">
     <!-- AMPLITUDE -->
     <g transform="translate(75.832812 210.532812) rotate(-90) scale(0.1 -0.1)">
      <defs>
       <path id="DejaVuSans-50" d="M 1259 4147 
L 1259 2394 
L 2053 2394 
Q 2494 2394 2734 2622 
Q 2975 2850 2975 3272 
Q 2975 3691 2734 3919 
Q 2494 4147 2053 4147 
L 1259 4147 
z
M 628 4666 
L 2053 4666 
Q 2838 4666 3239 4311 
Q 3641 3956 3641 3272 
Q 3641 2581 3239 2228 
Q 2838 1875 2053 1875 
L 1259 1875 
L 1259 0 
L 628 0 
L 628 4666 
z
" transform="scale(0.015625)"/>
       <path id="DejaVuSans-4c" d="M 628 4666 
L 1259 4666 
L 1259 531 
L 3531 531 
L 3531 0 
L 628 0 
L 628 4666 
z
" transform="scale(0.015625)"/>
       <path id="DejaVuSans-55" d="M 556 4666 
L 1191 4666 
L 1191 1831 
Q 1191 1081 1462 751 
Q 1734 422 2344 422 
Q 2950 422 3222 751 
Q 3494 1081 3494 1831 
L 3494 4666 
L 4128 4666 
L 4128 1753 
Q 4128 841 3676 375 
Q 3225 -91 2344 -91 
Q 1459 -91 1007 375 
Q 556 841 556 1753 
L 556 4666 
z
" transform="scale(0.015625)"/>
      </defs>
      <use xlink:href="#DejaVuSans-41"/>
      <use xlink:href="#DejaVuSans-4d" x="68.408203"/>
      <use xlink:href="#DejaVuSans-50" x="154.6875"/>
      <use xlink:href="#DejaVuSans-4c" x="214.990234"/>
      <use xlink:href="#DejaVuSans-49" x="270.703125"/>
      <use xlink:href="#DejaVuSans-54" x="300.195312"/>
      <use xlink:href="#DejaVuSans-55" x="361.279297"/>
      <use xlink:href="#DejaVuSans-44" x="434.472656"/>
      <use xlink:href="#DejaVuSans-45" x="511.474609"/>
     </g>
    </g>
   </g>
   <g id="line2d_16">
    <path d="M 138.436364 220.206417 
L 139.413454 307.8 
L 140.390544 307.8 
L 141.367635 305.104813 
L 142.344725 278.152941 
L 143.321815 307.8 
L 146.253086 307.8 
L 147.230177 292.976471 
L 148.207267 297.019251 
L 149.184357 307.8 
L 150.161448 295.671658 
L 151.138538 287.586096 
L 152.115628 307.8 
L 153.092719 307.8 
L 154.069809 245.810695 
L 155.046899 280.848128 
L 156.023989 307.8 
L 157.00108 307.8 
L 157.97817 270.06738 
L 158.95526 297.019251 
L 159.932351 307.8 
L 160.909441 174.388235 
L 161.886531 123.179679 
L 162.863622 140.698396 
L 163.840712 198.64492 
L 164.817802 127.22246 
L 165.794893 116.441711 
L 166.771983 128.570053 
L 167.749073 117.789305 
L 168.726164 101.618182 
L 169.703254 266.024599 
L 170.680344 168.997861 
L 171.657435 111.051337 
L 172.634525 177.083422 
L 173.611615 224.249198 
L 174.588706 243.115508 
L 175.565796 256.591444 
L 176.542886 150.131551 
L 177.519977 204.035294 
L 178.497067 67.928342 
L 179.474157 191.906952 
L 180.451248 167.650267 
L 181.428338 151.479144 
L 182.405428 280.848128 
L 183.382519 307.8 
L 184.359609 307.8 
L 185.336699 228.291979 
L 186.31379 291.628877 
L 187.29088 307.8 
L 188.26797 307.8 
L 189.245061 301.062032 
L 190.222151 295.671658 
L 191.199241 307.8 
L 192.176332 287.586096 
L 193.153422 249.853476 
L 194.130512 263.329412 
L 195.107603 261.981818 
L 196.084693 307.8 
L 197.061783 278.152941 
L 198.038873 307.8 
L 199.015964 307.8 
L 199.993054 251.20107 
L 200.970144 307.8 
L 201.947235 307.8 
L 202.924325 266.024599 
L 203.901415 270.06738 
L 204.878506 292.976471 
L 205.855596 159.564706 
L 206.832686 164.95508 
L 207.809777 109.703743 
L 208.786867 135.308021 
L 209.763957 117.789305 
L 210.741048 197.297326 
L 211.718138 129.917647 
L 212.695228 292.976471 
L 213.672319 201.340107 
L 214.649409 138.003209 
L 215.626499 171.693048 
L 216.60359 210.773262 
L 217.58068 170.345455 
L 218.55777 167.650267 
L 219.534861 150.131551 
L 220.511951 249.853476 
L 221.489041 150.131551 
L 222.466132 179.77861 
L 223.443222 159.564706 
L 224.420312 120.484492 
L 225.397403 178.431016 
L 226.374493 307.8 
L 227.351583 307.8 
L 228.328674 302.409626 
L 229.305764 286.238503 
L 230.282854 280.848128 
L 231.259945 251.20107 
L 232.237035 307.8 
L 233.214125 298.366845 
L 234.191216 307.8 
L 235.168306 303.757219 
L 236.145396 237.725134 
L 237.122487 307.8 
L 239.076667 307.8 
L 240.053757 263.329412 
L 241.030848 307.8 
L 242.007938 307.8 
L 242.985028 297.019251 
L 243.962119 260.634225 
L 244.939209 278.152941 
L 245.916299 301.062032 
L 246.89339 307.8 
L 247.87048 307.8 
L 248.84757 131.265241 
L 249.824661 104.313369 
L 250.801751 235.029947 
L 251.778841 260.634225 
L 252.755932 144.741176 
L 253.733022 259.286631 
L 255.687203 102.965775 
L 256.664293 307.8 
L 257.641383 216.163636 
L 258.618474 224.249198 
L 259.595564 237.725134 
L 260.572654 187.864171 
L 261.549745 102.965775 
L 262.526835 78.709091 
L 263.503925 193.254545 
L 264.481016 186.516578 
L 265.458106 150.131551 
L 266.435196 142.045989 
L 267.412287 166.302674 
L 268.389377 123.179679 
L 269.366467 228.291979 
L 270.343558 307.8 
L 271.320648 307.8 
L 272.297738 286.238503 
L 273.274829 307.8 
L 275.229009 307.8 
L 276.2061 271.414973 
L 277.18319 307.8 
L 279.13737 307.8 
L 280.114461 239.072727 
L 281.091551 307.8 
L 286.954093 307.8 
L 287.931183 301.062032 
L 288.908274 307.8 
L 289.885364 307.8 
L 290.862454 301.062032 
L 291.839545 117.789305 
L 292.816635 228.291979 
L 293.793725 101.618182 
L 294.770816 144.741176 
L 295.747906 128.570053 
L 296.724996 97.575401 
L 297.702087 105.660963 
L 298.679177 283.543316 
L 299.656267 98.922995 
L 300.633358 131.265241 
L 301.610448 222.901604 
L 302.587538 117.789305 
L 303.564629 197.297326 
L 304.541719 193.254545 
L 305.518809 117.789305 
L 306.4959 286.238503 
L 307.47299 166.302674 
L 309.427171 132.612834 
L 310.404261 195.949733 
L 311.381351 167.650267 
L 312.358442 236.37754 
L 313.335532 198.64492 
L 314.312622 307.8 
L 316.266803 307.8 
L 317.243893 255.24385 
L 318.220984 268.719786 
L 319.198074 307.8 
L 320.175164 257.939037 
L 321.152254 230.987166 
L 322.129345 307.8 
L 323.106435 256.591444 
L 324.083525 290.281283 
L 325.060616 307.8 
L 326.037706 307.8 
L 327.014796 252.548663 
L 327.991887 307.8 
L 328.968977 307.8 
L 329.946067 302.409626 
L 330.923158 307.8 
L 331.900248 260.634225 
L 332.877338 307.8 
L 333.854429 229.639572 
L 334.831519 263.329412 
L 335.808609 307.8 
L 336.7857 290.281283 
L 337.76279 82.751872 
L 338.73988 287.586096 
L 339.716971 133.960428 
L 340.694061 286.238503 
L 341.671151 162.259893 
L 342.648242 175.735829 
L 343.625332 263.329412 
L 344.602422 67.928342 
L 345.579513 69.275936 
L 346.556603 133.960428 
L 347.533693 213.468449 
L 348.510784 177.083422 
L 349.487874 181.126203 
L 350.464964 251.20107 
L 351.442055 143.393583 
L 352.419145 201.340107 
L 353.396235 221.554011 
L 354.373326 133.960428 
L 355.350416 117.789305 
L 356.327506 270.06738 
L 357.304597 77.361497 
L 358.281687 241.767914 
L 359.258777 158.217112 
L 360.235868 168.997861 
L 361.212958 202.687701 
L 362.190048 204.035294 
L 363.167138 307.8 
L 364.144229 264.677005 
L 365.121319 307.8 
L 366.098409 307.8 
L 367.0755 279.500535 
L 368.05259 222.901604 
L 369.02968 299.714439 
L 370.006771 307.8 
L 370.983861 189.211765 
L 371.960951 241.767914 
L 372.938042 256.591444 
L 373.915132 287.586096 
L 375.869313 249.853476 
L 376.846403 307.8 
L 377.823493 261.981818 
L 378.800584 294.324064 
L 379.777674 261.981818 
L 380.754764 278.152941 
L 381.731855 280.848128 
L 382.708945 181.126203 
L 383.686035 282.195722 
L 384.663126 233.682353 
L 385.640216 193.254545 
L 386.617306 123.179679 
L 387.594397 222.901604 
L 388.571487 158.217112 
L 389.548577 136.655615 
L 390.525668 195.949733 
L 391.502758 150.131551 
L 392.479848 173.040642 
L 393.456939 69.275936 
L 394.434029 168.997861 
L 395.411119 77.361497 
L 396.38821 158.217112 
L 397.3653 63.885561 
L 398.34239 205.382888 
L 399.319481 220.206417 
L 400.296571 179.77861 
L 401.273661 160.912299 
L 402.250751 164.95508 
L 403.227842 216.163636 
L 404.204932 225.596791 
L 405.182022 189.211765 
L 406.159113 240.420321 
L 407.136203 209.425668 
L 408.113293 260.634225 
L 409.090384 240.420321 
L 410.067474 204.035294 
L 411.044564 295.671658 
L 412.021655 225.596791 
L 412.998745 286.238503 
L 413.975835 307.8 
L 419.838377 307.8 
L 420.815468 306.452406 
L 421.792558 307.8 
L 422.769648 237.725134 
L 423.746739 224.249198 
L 424.723829 305.104813 
L 425.700919 286.238503 
L 426.67801 251.20107 
L 427.6551 307.8 
L 428.63219 276.805348 
L 429.609281 307.8 
L 430.586371 299.714439 
L 431.563461 307.8 
L 432.540552 245.810695 
L 433.517642 298.366845 
L 434.494732 294.324064 
L 435.471823 189.211765 
L 436.448913 201.340107 
L 437.426003 204.035294 
L 438.403094 94.880214 
L 439.380184 190.559358 
L 440.357274 228.291979 
L 441.334365 170.345455 
L 442.311455 61.190374 
L 443.288545 156.869519 
L 444.265635 217.51123 
L 445.242726 140.698396 
L 446.219816 186.516578 
L 447.196906 133.960428 
L 448.173997 183.82139 
L 449.151087 151.479144 
L 450.128177 132.612834 
L 451.105268 194.602139 
L 452.082358 166.302674 
L 453.059448 233.682353 
L 454.036539 237.725134 
L 455.013629 260.634225 
L 455.990719 175.735829 
L 456.96781 163.607487 
L 457.9449 182.473797 
L 458.92199 307.8 
L 459.899081 267.372193 
L 460.876171 306.452406 
L 461.853261 307.8 
L 462.830352 302.409626 
L 463.807442 307.8 
L 464.784532 307.8 
L 465.761623 288.93369 
L 466.738713 307.8 
L 467.715803 222.901604 
L 468.692894 307.8 
L 469.669984 241.767914 
L 470.647074 287.586096 
L 471.624165 198.64492 
L 472.601255 263.329412 
L 473.578345 264.677005 
L 474.555436 307.8 
L 475.532526 287.586096 
L 476.509616 294.324064 
L 477.486707 276.805348 
L 478.463797 307.8 
L 479.440887 295.671658 
L 480.417978 307.8 
L 481.395068 259.286631 
L 482.372158 298.366845 
L 483.349249 164.95508 
L 484.326339 175.735829 
L 485.303429 140.698396 
L 486.280519 143.393583 
L 487.25761 136.655615 
L 488.2347 197.297326 
L 489.21179 210.773262 
L 490.188881 193.254545 
L 491.165971 217.51123 
L 492.143061 260.634225 
L 493.120152 133.960428 
L 494.097242 142.045989 
L 495.074332 236.37754 
L 496.051423 96.227807 
L 497.028513 173.040642 
L 498.005603 173.040642 
L 498.982694 121.832086 
L 499.959784 287.586096 
L 500.936874 76.013904 
L 501.913965 202.687701 
L 502.891055 278.152941 
L 503.868145 194.602139 
L 504.845236 191.906952 
L 505.822326 156.869519 
L 507.776507 298.366845 
L 508.753597 240.420321 
L 509.730687 307.8 
L 517.54741 307.8 
L 518.5245 287.586096 
L 519.501591 307.8 
L 520.478681 287.586096 
L 521.455771 290.281283 
L 522.432862 220.206417 
L 523.409952 307.8 
L 524.387042 235.029947 
L 525.364132 306.452406 
L 526.341223 284.890909 
L 527.318313 191.906952 
L 528.295403 290.281283 
L 529.272494 307.8 
L 530.249584 295.671658 
L 531.226674 307.8 
L 532.203765 175.735829 
L 533.180855 266.024599 
L 534.157945 155.521925 
L 535.135036 124.527273 
L 536.112126 88.142246 
L 537.089216 115.094118 
L 538.066307 146.08877 
L 539.043397 276.805348 
L 540.020487 125.874866 
L 540.997578 182.473797 
L 541.974668 156.869519 
L 542.951758 136.655615 
L 543.928849 208.078075 
L 544.905939 181.126203 
L 545.883029 193.254545 
L 546.86012 230.987166 
L 547.83721 245.810695 
L 548.8143 115.094118 
L 549.791391 158.217112 
L 550.768481 135.308021 
L 551.745571 230.987166 
L 552.722662 143.393583 
L 553.699752 105.660963 
L 554.676842 138.003209 
L 555.653933 96.227807 
L 556.631023 307.8 
L 557.608113 302.409626 
L 558.585204 303.757219 
L 559.562294 263.329412 
L 560.539384 305.104813 
L 561.516475 272.762567 
L 562.493565 266.024599 
L 563.470655 307.8 
L 564.447746 290.281283 
L 565.424836 307.8 
L 567.379016 307.8 
L 568.356107 252.548663 
L 569.333197 256.591444 
L 570.310287 284.890909 
L 571.287378 307.8 
L 572.264468 292.976471 
L 573.241558 307.8 
L 579.1041 307.8 
L 580.081191 154.174332 
L 581.058281 179.77861 
L 582.035371 135.308021 
L 583.012462 159.564706 
L 583.989552 195.949733 
L 584.966642 226.944385 
L 585.943733 111.051337 
L 586.920823 257.939037 
L 587.897913 155.521925 
L 588.875004 202.687701 
L 589.852094 240.420321 
L 590.829184 191.906952 
L 591.806275 256.591444 
L 592.783365 220.206417 
L 593.760455 212.120856 
L 594.737546 302.409626 
L 595.714636 217.51123 
L 596.691726 151.479144 
L 597.668817 164.95508 
L 598.645907 286.238503 
L 599.622997 150.131551 
L 600.600088 230.987166 
L 601.577178 138.003209 
L 602.554268 210.773262 
L 603.531359 256.591444 
L 604.508449 307.8 
L 608.41681 307.8 
L 609.3939 183.82139 
L 610.370991 284.890909 
L 611.348081 307.8 
L 612.325171 307.8 
L 613.302262 204.035294 
L 614.279352 307.8 
L 615.256442 272.762567 
L 616.233533 307.8 
L 618.187713 307.8 
L 619.164804 270.06738 
L 620.141894 205.382888 
L 621.118984 307.8 
L 622.096075 256.591444 
L 623.073165 298.366845 
L 624.050255 305.104813 
L 625.027346 217.51123 
L 626.004436 307.8 
L 626.981526 307.8 
L 627.958617 301.062032 
L 628.935707 282.195722 
L 629.912797 136.655615 
L 630.889888 171.693048 
L 631.866978 213.468449 
L 632.844068 222.901604 
L 633.821159 216.163636 
L 634.798249 102.965775 
L 635.775339 209.425668 
L 636.75243 123.179679 
L 638.70661 177.083422 
L 639.683701 123.179679 
L 640.660791 144.741176 
L 641.637881 144.741176 
L 642.614972 128.570053 
L 644.569152 278.152941 
L 645.546243 218.858824 
L 646.523333 212.120856 
L 647.500423 164.95508 
L 648.477513 236.37754 
L 649.454604 159.564706 
L 650.431694 135.308021 
L 651.408784 247.158289 
L 652.385875 147.436364 
L 653.362965 220.206417 
L 654.340055 233.682353 
L 655.317146 307.8 
L 659.225507 307.8 
L 660.202597 243.115508 
L 661.179688 307.8 
L 665.088049 307.8 
L 666.065139 245.810695 
L 667.04223 307.8 
L 668.99641 307.8 
L 669.973501 283.543316 
L 670.950591 295.671658 
L 671.927681 260.634225 
L 672.904772 278.152941 
L 673.881862 307.8 
L 674.858952 286.238503 
L 675.836043 307.8 
L 676.813133 307.8 
L 677.790223 185.168984 
L 678.767314 198.64492 
L 679.744404 104.313369 
L 680.721494 164.95508 
L 681.698585 159.564706 
L 682.675675 213.468449 
L 683.652765 189.211765 
L 684.629856 156.869519 
L 685.606946 212.120856 
L 686.584036 154.174332 
L 687.561127 292.976471 
L 688.538217 226.944385 
L 689.515307 143.393583 
L 690.492397 195.949733 
L 691.469488 158.217112 
L 692.446578 96.227807 
L 693.423668 155.521925 
L 694.400759 251.20107 
L 695.377849 125.874866 
L 696.354939 154.174332 
L 697.33203 252.548663 
L 698.30912 268.719786 
L 699.28621 159.564706 
L 700.263301 199.992513 
L 701.240391 220.206417 
L 702.217481 302.409626 
L 703.194572 187.864171 
L 704.171662 307.8 
L 705.148752 287.586096 
L 706.125843 280.848128 
L 707.102933 257.939037 
L 708.080023 194.602139 
L 709.057114 307.8 
L 710.034204 303.757219 
L 711.011294 297.019251 
L 711.988385 306.452406 
L 712.965475 251.20107 
L 713.942565 307.8 
L 714.919656 253.896257 
L 715.896746 307.8 
L 716.873836 276.805348 
L 717.850927 297.019251 
L 718.828017 292.976471 
L 719.805107 225.596791 
L 720.782198 307.8 
L 721.759288 252.548663 
L 722.736378 295.671658 
L 723.713469 303.757219 
L 724.690559 307.8 
L 725.667649 131.265241 
L 726.64474 166.302674 
L 727.62183 259.286631 
L 728.59892 160.912299 
L 729.576011 218.858824 
L 730.553101 225.596791 
L 731.530191 55.8 
L 732.507281 170.345455 
L 733.484372 156.869519 
L 734.461462 182.473797 
L 735.438552 191.906952 
L 736.415643 125.874866 
L 737.392733 174.388235 
L 738.369823 229.639572 
L 739.346914 168.997861 
L 740.324004 220.206417 
L 741.301094 155.521925 
L 742.278185 241.767914 
L 743.255275 198.64492 
L 744.232365 230.987166 
L 745.209456 128.570053 
L 746.186546 162.259893 
L 747.163636 209.425668 
L 747.163636 209.425668 
" clip-path="url(#p3e45d9b382)" style="fill: none; stroke: #191970; stroke-width: 2; stroke-linecap: square"/>
   </g>
   <g id="patch_3">
    <path d="M 108 320.4 
L 108 43.2 
" style="fill: none; stroke: #000000; stroke-width: 0.8; stroke-linejoin: miter; stroke-linecap: square"/>
   </g>
   <g id="patch_4">
    <path d="M 777.6 320.4 
L 777.6 43.2 
" style="fill: none; stroke: #000000; stroke-width: 0.8; stroke-linejoin: miter; stroke-linecap: square"/>
   </g>
   <g id="patch_5">
    <path d="M 108 320.4 
L 777.6 320.4 
" style="fill: none; stroke: #000000; stroke-width: 0.8; stroke-linejoin: miter; stroke-linecap: square"/>
   </g>
   <g id="patch_6">
    <path d="M 108 43.2 
L 777.6 43.2 
" style="fill: none; stroke: #000000; stroke-width: 0.8; stroke-linejoin: miter; stroke-linecap: square"/>
   </g>
   <g id="text_18">
    <!-- TIME SERIES -->
    <g transform="translate(405.350625 37.2) scale(0.12 -0.12)">
     <defs>
      <path id="DejaVuSans-52" d="M 2841 2188 
Q 3044 2119 3236 1894 
Q 3428 1669 3622 1275 
L 4263 0 
L 3584 0 
L 2988 1197 
Q 2756 1666 2539 1819 
Q 2322 1972 1947 1972 
L 1259 1972 
L 1259 0 
L 628 0 
L 628 4666 
L 2053 4666 
Q 2853 4666 3247 4331 
Q 3641 3997 3641 3322 
Q 3641 2881 3436 2590 
Q 3231 2300 2841 2188 
z
M 1259 4147 
L 1259 2491 
L 2053 2491 
Q 2509 2491 2742 2702 
Q 2975 2913 2975 3322 
Q 2975 3731 2742 3939 
Q 2509 4147 2053 4147 
L 1259 4147 
z
" transform="scale(0.015625)"/>
     </defs>
     <use xlink:href="#DejaVuSans-54"/>
     <use xlink:href="#DejaVuSans-49" x="61.083984"/>
     <use xlink:href="#DejaVuSans-4d" x="90.576172"/>
     <use xlink:href="#DejaVuSans-45" x="176.855469"/>
     <use xlink:href="#DejaVuSans-20" x="240.039062"/>
     <use xlink:href="#DejaVuSans-53" x="271.826172"/>
     <use xlink:href="#DejaVuSans-45" x="335.302734"/>
     <use xlink:href="#DejaVuSans-52" x="398.486328"/>
     <use xlink:href="#DejaVuSans-49" x="467.96875"/>
     <use xlink:href="#DejaVuSans-45" x="497.460938"/>
     <use xlink:href="#DejaVuSans-53" x="560.644531"/>
    </g>
   </g>
  </g>
 </g>
 <defs>
  <clipPath id="p3e45d9b382">
   <rect x="108" y="43.2" width="669.6" height="277.2"/>
  </clipPath>
 </defs>
</svg>
