<?xml version="1.0" encoding="utf-8" standalone="no"?>
<!DOCTYPE svg PUBLIC "-//W3C//DTD SVG 1.1//EN"
  "http://www.w3.org/Graphics/SVG/1.1/DTD/svg11.dtd">
<svg xmlns:xlink="http://www.w3.org/1999/xlink" width="864pt" height="360pt" viewBox="0 0 864 360" xmlns="http://www.w3.org/2000/svg" version="1.1">
 <metadata>
  <rdf:RDF xmlns:dc="http://purl.org/dc/elements/1.1/" xmlns:cc="http://creativecommons.org/ns#" xmlns:rdf="http://www.w3.org/1999/02/22-rdf-syntax-ns#">
   <cc:Work>
    <dc:type rdf:resource="http://purl.org/dc/dcmitype/StillImage"/>
    <dc:date>2023-08-03T16:26:46.779621</dc:date>
    <dc:format>image/svg+xml</dc:format>
    <dc:creator>
     <cc:Agent>
      <dc:title>Matplotlib v3.7.1, https://matplotlib.org/</dc:title>
     </cc:Agent>
    </dc:creator>
   </cc:Work>
  </rdf:RDF>
 </metadata>
 <defs>
  <style type="text/css">*{stroke-linejoin: round; stroke-linecap: butt}</style>
 </defs>
 <g id="figure_1">
  <g id="patch_1">
   <path d="M 0 360 
L 864 360 
L 864 0 
L 0 0 
z
" style="fill: #ffffff"/>
  </g>
  <g id="axes_1">
   <g id="patch_2">
    <path d="M 108 320.4 
L 777.6 320.4 
L 777.6 43.2 
L 108 43.2 
z
" style="fill: #ffffff"/>
   </g>
   <g id="matplotlib.axis_1">
    <g id="xtick_1">
     <g id="line2d_1">
      <defs>
       <path id="m99796f6e1a" d="M 0 0 
L 0 3.5 
" style="stroke: #000000; stroke-width: 0.8"/>
      </defs>
      <g>
       <use xlink:href="#m99796f6e1a" x="138.436364" y="320.4" style="stroke: #000000; stroke-width: 0.8"/>
      </g>
     </g>
     <g id="text_1">
      <!-- 2022-01-01 -->
      <g transform="translate(109.378551 334.998438) scale(0.1 -0.1)">
       <defs>
        <path id="DejaVuSans-32" d="M 1228 531 
L 3431 531 
L 3431 0 
L 469 0 
L 469 531 
Q 828 903 1448 1529 
Q 2069 2156 2228 2338 
Q 2531 2678 2651 2914 
Q 2772 3150 2772 3378 
Q 2772 3750 2511 3984 
Q 2250 4219 1831 4219 
Q 1534 4219 1204 4116 
Q 875 4013 500 3803 
L 500 4441 
Q 881 4594 1212 4672 
Q 1544 4750 1819 4750 
Q 2544 4750 2975 4387 
Q 3406 4025 3406 3419 
Q 3406 3131 3298 2873 
Q 3191 2616 2906 2266 
Q 2828 2175 2409 1742 
Q 1991 1309 1228 531 
z
" transform="scale(0.015625)"/>
        <path id="DejaVuSans-30" d="M 2034 4250 
Q 1547 4250 1301 3770 
Q 1056 3291 1056 2328 
Q 1056 1369 1301 889 
Q 1547 409 2034 409 
Q 2525 409 2770 889 
Q 3016 1369 3016 2328 
Q 3016 3291 2770 3770 
Q 2525 4250 2034 4250 
z
M 2034 4750 
Q 2819 4750 3233 4129 
Q 3647 3509 3647 2328 
Q 3647 1150 3233 529 
Q 2819 -91 2034 -91 
Q 1250 -91 836 529 
Q 422 1150 422 2328 
Q 422 3509 836 4129 
Q 1250 4750 2034 4750 
z
" transform="scale(0.015625)"/>
        <path id="DejaVuSans-2d" d="M 313 2009 
L 1997 2009 
L 1997 1497 
L 313 1497 
L 313 2009 
z
" transform="scale(0.015625)"/>
        <path id="DejaVuSans-31" d="M 794 531 
L 1825 531 
L 1825 4091 
L 703 3866 
L 703 4441 
L 1819 4666 
L 2450 4666 
L 2450 531 
L 3481 531 
L 3481 0 
L 794 0 
L 794 531 
z
" transform="scale(0.015625)"/>
       </defs>
       <use xlink:href="#DejaVuSans-32"/>
       <use xlink:href="#DejaVuSans-30" x="63.623047"/>
       <use xlink:href="#DejaVuSans-32" x="127.246094"/>
       <use xlink:href="#DejaVuSans-32" x="190.869141"/>
       <use xlink:href="#DejaVuSans-2d" x="254.492188"/>
       <use xlink:href="#DejaVuSans-30" x="290.576172"/>
       <use xlink:href="#DejaVuSans-31" x="354.199219"/>
       <use xlink:href="#DejaVuSans-2d" x="417.822266"/>
       <use xlink:href="#DejaVuSans-30" x="453.90625"/>
       <use xlink:href="#DejaVuSans-31" x="517.529297"/>
      </g>
     </g>
    </g>
    <g id="xtick_2">
     <g id="line2d_2">
      <g>
       <use xlink:href="#m99796f6e1a" x="240.067352" y="320.4" style="stroke: #000000; stroke-width: 0.8"/>
      </g>
     </g>
     <g id="text_2">
      <!-- 2022-01-03 -->
      <g transform="translate(211.009539 334.998438) scale(0.1 -0.1)">
       <defs>
        <path id="DejaVuSans-33" d="M 2597 2516 
Q 3050 2419 3304 2112 
Q 3559 1806 3559 1356 
Q 3559 666 3084 287 
Q 2609 -91 1734 -91 
Q 1441 -91 1130 -33 
Q 819 25 488 141 
L 488 750 
Q 750 597 1062 519 
Q 1375 441 1716 441 
Q 2309 441 2620 675 
Q 2931 909 2931 1356 
Q 2931 1769 2642 2001 
Q 2353 2234 1838 2234 
L 1294 2234 
L 1294 2753 
L 1863 2753 
Q 2328 2753 2575 2939 
Q 2822 3125 2822 3475 
Q 2822 3834 2567 4026 
Q 2313 4219 1838 4219 
Q 1578 4219 1281 4162 
Q 984 4106 628 3988 
L 628 4550 
Q 988 4650 1302 4700 
Q 1616 4750 1894 4750 
Q 2613 4750 3031 4423 
Q 3450 4097 3450 3541 
Q 3450 3153 3228 2886 
Q 3006 2619 2597 2516 
z
" transform="scale(0.015625)"/>
       </defs>
       <use xlink:href="#DejaVuSans-32"/>
       <use xlink:href="#DejaVuSans-30" x="63.623047"/>
       <use xlink:href="#DejaVuSans-32" x="127.246094"/>
       <use xlink:href="#DejaVuSans-32" x="190.869141"/>
       <use xlink:href="#DejaVuSans-2d" x="254.492188"/>
       <use xlink:href="#DejaVuSans-30" x="290.576172"/>
       <use xlink:href="#DejaVuSans-31" x="354.199219"/>
       <use xlink:href="#DejaVuSans-2d" x="417.822266"/>
       <use xlink:href="#DejaVuSans-30" x="453.90625"/>
       <use xlink:href="#DejaVuSans-33" x="517.529297"/>
      </g>
     </g>
    </g>
    <g id="xtick_3">
     <g id="line2d_3">
      <g>
       <use xlink:href="#m99796f6e1a" x="341.69834" y="320.4" style="stroke: #000000; stroke-width: 0.8"/>
      </g>
     </g>
     <g id="text_3">
      <!-- 2022-01-05 -->
      <g transform="translate(312.640527 334.998438) scale(0.1 -0.1)">
       <defs>
        <path id="DejaVuSans-35" d="M 691 4666 
L 3169 4666 
L 3169 4134 
L 1269 4134 
L 1269 2991 
Q 1406 3038 1543 3061 
Q 1681 3084 1819 3084 
Q 2600 3084 3056 2656 
Q 3513 2228 3513 1497 
Q 3513 744 3044 326 
Q 2575 -91 1722 -91 
Q 1428 -91 1123 -41 
Q 819 9 494 109 
L 494 744 
Q 775 591 1075 516 
Q 1375 441 1709 441 
Q 2250 441 2565 725 
Q 2881 1009 2881 1497 
Q 2881 1984 2565 2268 
Q 2250 2553 1709 2553 
Q 1456 2553 1204 2497 
Q 953 2441 691 2322 
L 691 4666 
z
" transform="scale(0.015625)"/>
       </defs>
       <use xlink:href="#DejaVuSans-32"/>
       <use xlink:href="#DejaVuSans-30" x="63.623047"/>
       <use xlink:href="#DejaVuSans-32" x="127.246094"/>
       <use xlink:href="#DejaVuSans-32" x="190.869141"/>
       <use xlink:href="#DejaVuSans-2d" x="254.492188"/>
       <use xlink:href="#DejaVuSans-30" x="290.576172"/>
       <use xlink:href="#DejaVuSans-31" x="354.199219"/>
       <use xlink:href="#DejaVuSans-2d" x="417.822266"/>
       <use xlink:href="#DejaVuSans-30" x="453.90625"/>
       <use xlink:href="#DejaVuSans-35" x="517.529297"/>
      </g>
     </g>
    </g>
    <g id="xtick_4">
     <g id="line2d_4">
      <g>
       <use xlink:href="#m99796f6e1a" x="443.329328" y="320.4" style="stroke: #000000; stroke-width: 0.8"/>
      </g>
     </g>
     <g id="text_4">
      <!-- 2022-01-07 -->
      <g transform="translate(414.271516 334.998438) scale(0.1 -0.1)">
       <defs>
        <path id="DejaVuSans-37" d="M 525 4666 
L 3525 4666 
L 3525 4397 
L 1831 0 
L 1172 0 
L 2766 4134 
L 525 4134 
L 525 4666 
z
" transform="scale(0.015625)"/>
       </defs>
       <use xlink:href="#DejaVuSans-32"/>
       <use xlink:href="#DejaVuSans-30" x="63.623047"/>
       <use xlink:href="#DejaVuSans-32" x="127.246094"/>
       <use xlink:href="#DejaVuSans-32" x="190.869141"/>
       <use xlink:href="#DejaVuSans-2d" x="254.492188"/>
       <use xlink:href="#DejaVuSans-30" x="290.576172"/>
       <use xlink:href="#DejaVuSans-31" x="354.199219"/>
       <use xlink:href="#DejaVuSans-2d" x="417.822266"/>
       <use xlink:href="#DejaVuSans-30" x="453.90625"/>
       <use xlink:href="#DejaVuSans-37" x="517.529297"/>
      </g>
     </g>
    </g>
    <g id="xtick_5">
     <g id="line2d_5">
      <g>
       <use xlink:href="#m99796f6e1a" x="544.960316" y="320.4" style="stroke: #000000; stroke-width: 0.8"/>
      </g>
     </g>
     <g id="text_5">
      <!-- 2022-01-09 -->
      <g transform="translate(515.902504 334.998438) scale(0.1 -0.1)">
       <defs>
        <path id="DejaVuSans-39" d="M 703 97 
L 703 672 
Q 941 559 1184 500 
Q 1428 441 1663 441 
Q 2288 441 2617 861 
Q 2947 1281 2994 2138 
Q 2813 1869 2534 1725 
Q 2256 1581 1919 1581 
Q 1219 1581 811 2004 
Q 403 2428 403 3163 
Q 403 3881 828 4315 
Q 1253 4750 1959 4750 
Q 2769 4750 3195 4129 
Q 3622 3509 3622 2328 
Q 3622 1225 3098 567 
Q 2575 -91 1691 -91 
Q 1453 -91 1209 -44 
Q 966 3 703 97 
z
M 1959 2075 
Q 2384 2075 2632 2365 
Q 2881 2656 2881 3163 
Q 2881 3666 2632 3958 
Q 2384 4250 1959 4250 
Q 1534 4250 1286 3958 
Q 1038 3666 1038 3163 
Q 1038 2656 1286 2365 
Q 1534 2075 1959 2075 
z
" transform="scale(0.015625)"/>
       </defs>
       <use xlink:href="#DejaVuSans-32"/>
       <use xlink:href="#DejaVuSans-30" x="63.623047"/>
       <use xlink:href="#DejaVuSans-32" x="127.246094"/>
       <use xlink:href="#DejaVuSans-32" x="190.869141"/>
       <use xlink:href="#DejaVuSans-2d" x="254.492188"/>
       <use xlink:href="#DejaVuSans-30" x="290.576172"/>
       <use xlink:href="#DejaVuSans-31" x="354.199219"/>
       <use xlink:href="#DejaVuSans-2d" x="417.822266"/>
       <use xlink:href="#DejaVuSans-30" x="453.90625"/>
       <use xlink:href="#DejaVuSans-39" x="517.529297"/>
      </g>
     </g>
    </g>
    <g id="xtick_6">
     <g id="line2d_6">
      <g>
       <use xlink:href="#m99796f6e1a" x="646.591304" y="320.4" style="stroke: #000000; stroke-width: 0.8"/>
      </g>
     </g>
     <g id="text_6">
      <!-- 2022-01-11 -->
      <g transform="translate(617.533492 334.998438) scale(0.1 -0.1)">
       <use xlink:href="#DejaVuSans-32"/>
       <use xlink:href="#DejaVuSans-30" x="63.623047"/>
       <use xlink:href="#DejaVuSans-32" x="127.246094"/>
       <use xlink:href="#DejaVuSans-32" x="190.869141"/>
       <use xlink:href="#DejaVuSans-2d" x="254.492188"/>
       <use xlink:href="#DejaVuSans-30" x="290.576172"/>
       <use xlink:href="#DejaVuSans-31" x="354.199219"/>
       <use xlink:href="#DejaVuSans-2d" x="417.822266"/>
       <use xlink:href="#DejaVuSans-31" x="453.90625"/>
       <use xlink:href="#DejaVuSans-31" x="517.529297"/>
      </g>
     </g>
    </g>
    <g id="xtick_7">
     <g id="line2d_7">
      <g>
       <use xlink:href="#m99796f6e1a" x="748.222292" y="320.4" style="stroke: #000000; stroke-width: 0.8"/>
      </g>
     </g>
     <g id="text_7">
      <!-- 2022-01-13 -->
      <g transform="translate(719.16448 334.998438) scale(0.1 -0.1)">
       <use xlink:href="#DejaVuSans-32"/>
       <use xlink:href="#DejaVuSans-30" x="63.623047"/>
       <use xlink:href="#DejaVuSans-32" x="127.246094"/>
       <use xlink:href="#DejaVuSans-32" x="190.869141"/>
       <use xlink:href="#DejaVuSans-2d" x="254.492188"/>
       <use xlink:href="#DejaVuSans-30" x="290.576172"/>
       <use xlink:href="#DejaVuSans-31" x="354.199219"/>
       <use xlink:href="#DejaVuSans-2d" x="417.822266"/>
       <use xlink:href="#DejaVuSans-31" x="453.90625"/>
       <use xlink:href="#DejaVuSans-33" x="517.529297"/>
      </g>
     </g>
    </g>
    <g id="text_8">
     <!-- TIME (DAYS) -->
     <g transform="translate(412.283594 348.676562) scale(0.1 -0.1)">
      <defs>
       <path id="DejaVuSans-54" d="M -19 4666 
L 3928 4666 
L 3928 4134 
L 2272 4134 
L 2272 0 
L 1638 0 
L 1638 4134 
L -19 4134 
L -19 4666 
z
" transform="scale(0.015625)"/>
       <path id="DejaVuSans-49" d="M 628 4666 
L 1259 4666 
L 1259 0 
L 628 0 
L 628 4666 
z
" transform="scale(0.015625)"/>
       <path id="DejaVuSans-4d" d="M 628 4666 
L 1569 4666 
L 2759 1491 
L 3956 4666 
L 4897 4666 
L 4897 0 
L 4281 0 
L 4281 4097 
L 3078 897 
L 2444 897 
L 1241 4097 
L 1241 0 
L 628 0 
L 628 4666 
z
" transform="scale(0.015625)"/>
       <path id="DejaVuSans-45" d="M 628 4666 
L 3578 4666 
L 3578 4134 
L 1259 4134 
L 1259 2753 
L 3481 2753 
L 3481 2222 
L 1259 2222 
L 1259 531 
L 3634 531 
L 3634 0 
L 628 0 
L 628 4666 
z
" transform="scale(0.015625)"/>
       <path id="DejaVuSans-20" transform="scale(0.015625)"/>
       <path id="DejaVuSans-28" d="M 1984 4856 
Q 1566 4138 1362 3434 
Q 1159 2731 1159 2009 
Q 1159 1288 1364 580 
Q 1569 -128 1984 -844 
L 1484 -844 
Q 1016 -109 783 600 
Q 550 1309 550 2009 
Q 550 2706 781 3412 
Q 1013 4119 1484 4856 
L 1984 4856 
z
" transform="scale(0.015625)"/>
       <path id="DejaVuSans-44" d="M 1259 4147 
L 1259 519 
L 2022 519 
Q 2988 519 3436 956 
Q 3884 1394 3884 2338 
Q 3884 3275 3436 3711 
Q 2988 4147 2022 4147 
L 1259 4147 
z
M 628 4666 
L 1925 4666 
Q 3281 4666 3915 4102 
Q 4550 3538 4550 2338 
Q 4550 1131 3912 565 
Q 3275 0 1925 0 
L 628 0 
L 628 4666 
z
" transform="scale(0.015625)"/>
       <path id="DejaVuSans-41" d="M 2188 4044 
L 1331 1722 
L 3047 1722 
L 2188 4044 
z
M 1831 4666 
L 2547 4666 
L 4325 0 
L 3669 0 
L 3244 1197 
L 1141 1197 
L 716 0 
L 50 0 
L 1831 4666 
z
" transform="scale(0.015625)"/>
       <path id="DejaVuSans-59" d="M -13 4666 
L 666 4666 
L 1959 2747 
L 3244 4666 
L 3922 4666 
L 2272 2222 
L 2272 0 
L 1638 0 
L 1638 2222 
L -13 4666 
z
" transform="scale(0.015625)"/>
       <path id="DejaVuSans-53" d="M 3425 4513 
L 3425 3897 
Q 3066 4069 2747 4153 
Q 2428 4238 2131 4238 
Q 1616 4238 1336 4038 
Q 1056 3838 1056 3469 
Q 1056 3159 1242 3001 
Q 1428 2844 1947 2747 
L 2328 2669 
Q 3034 2534 3370 2195 
Q 3706 1856 3706 1288 
Q 3706 609 3251 259 
Q 2797 -91 1919 -91 
Q 1588 -91 1214 -16 
Q 841 59 441 206 
L 441 856 
Q 825 641 1194 531 
Q 1563 422 1919 422 
Q 2459 422 2753 634 
Q 3047 847 3047 1241 
Q 3047 1584 2836 1778 
Q 2625 1972 2144 2069 
L 1759 2144 
Q 1053 2284 737 2584 
Q 422 2884 422 3419 
Q 422 4038 858 4394 
Q 1294 4750 2059 4750 
Q 2388 4750 2728 4690 
Q 3069 4631 3425 4513 
z
" transform="scale(0.015625)"/>
       <path id="DejaVuSans-29" d="M 513 4856 
L 1013 4856 
Q 1481 4119 1714 3412 
Q 1947 2706 1947 2009 
Q 1947 1309 1714 600 
Q 1481 -109 1013 -844 
L 513 -844 
Q 928 -128 1133 580 
Q 1338 1288 1338 2009 
Q 1338 2731 1133 3434 
Q 928 4138 513 4856 
z
" transform="scale(0.015625)"/>
      </defs>
      <use xlink:href="#DejaVuSans-54"/>
      <use xlink:href="#DejaVuSans-49" x="61.083984"/>
      <use xlink:href="#DejaVuSans-4d" x="90.576172"/>
      <use xlink:href="#DejaVuSans-45" x="176.855469"/>
      <use xlink:href="#DejaVuSans-20" x="240.039062"/>
      <use xlink:href="#DejaVuSans-28" x="271.826172"/>
      <use xlink:href="#DejaVuSans-44" x="310.839844"/>
      <use xlink:href="#DejaVuSans-41" x="386.091797"/>
      <use xlink:href="#DejaVuSans-59" x="446.75"/>
      <use xlink:href="#DejaVuSans-53" x="507.833984"/>
      <use xlink:href="#DejaVuSans-29" x="571.310547"/>
     </g>
    </g>
   </g>
   <g id="matplotlib.axis_2">
    <g id="ytick_1">
     <g id="line2d_8">
      <defs>
       <path id="me397e53bfd" d="M 0 0 
L -3.5 0 
" style="stroke: #000000; stroke-width: 0.8"/>
      </defs>
      <g>
       <use xlink:href="#me397e53bfd" x="108" y="307.8" style="stroke: #000000; stroke-width: 0.8"/>
      </g>
     </g>
     <g id="text_9">
      <!-- 0 -->
      <g transform="translate(94.6375 311.599219) scale(0.1 -0.1)">
       <use xlink:href="#DejaVuSans-30"/>
      </g>
     </g>
    </g>
    <g id="ytick_2">
     <g id="line2d_9">
      <g>
       <use xlink:href="#me397e53bfd" x="108" y="267.8" style="stroke: #000000; stroke-width: 0.8"/>
      </g>
     </g>
     <g id="text_10">
      <!-- 10 -->
      <g transform="translate(88.275 271.599219) scale(0.1 -0.1)">
       <use xlink:href="#DejaVuSans-31"/>
       <use xlink:href="#DejaVuSans-30" x="63.623047"/>
      </g>
     </g>
    </g>
    <g id="ytick_3">
     <g id="line2d_10">
      <g>
       <use xlink:href="#me397e53bfd" x="108" y="227.8" style="stroke: #000000; stroke-width: 0.8"/>
      </g>
     </g>
     <g id="text_11">
      <!-- 20 -->
      <g transform="translate(88.275 231.599219) scale(0.1 -0.1)">
       <use xlink:href="#DejaVuSans-32"/>
       <use xlink:href="#DejaVuSans-30" x="63.623047"/>
      </g>
     </g>
    </g>
    <g id="ytick_4">
     <g id="line2d_11">
      <g>
       <use xlink:href="#me397e53bfd" x="108" y="187.8" style="stroke: #000000; stroke-width: 0.8"/>
      </g>
     </g>
     <g id="text_12">
      <!-- 30 -->
      <g transform="translate(88.275 191.599219) scale(0.1 -0.1)">
       <use xlink:href="#DejaVuSans-33"/>
       <use xlink:href="#DejaVuSans-30" x="63.623047"/>
      </g>
     </g>
    </g>
    <g id="ytick_5">
     <g id="line2d_12">
      <g>
       <use xlink:href="#me397e53bfd" x="108" y="147.8" style="stroke: #000000; stroke-width: 0.8"/>
      </g>
     </g>
     <g id="text_13">
      <!-- 40 -->
      <g transform="translate(88.275 151.599219) scale(0.1 -0.1)">
       <defs>
        <path id="DejaVuSans-34" d="M 2419 4116 
L 825 1625 
L 2419 1625 
L 2419 4116 
z
M 2253 4666 
L 3047 4666 
L 3047 1625 
L 3713 1625 
L 3713 1100 
L 3047 1100 
L 3047 0 
L 2419 0 
L 2419 1100 
L 313 1100 
L 313 1709 
L 2253 4666 
z
" transform="scale(0.015625)"/>
       </defs>
       <use xlink:href="#DejaVuSans-34"/>
       <use xlink:href="#DejaVuSans-30" x="63.623047"/>
      </g>
     </g>
    </g>
    <g id="ytick_6">
     <g id="line2d_13">
      <g>
       <use xlink:href="#me397e53bfd" x="108" y="107.8" style="stroke: #000000; stroke-width: 0.8"/>
      </g>
     </g>
     <g id="text_14">
      <!-- 50 -->
      <g transform="translate(88.275 111.599219) scale(0.1 -0.1)">
       <use xlink:href="#DejaVuSans-35"/>
       <use xlink:href="#DejaVuSans-30" x="63.623047"/>
      </g>
     </g>
    </g>
    <g id="ytick_7">
     <g id="line2d_14">
      <g>
       <use xlink:href="#me397e53bfd" x="108" y="67.8" style="stroke: #000000; stroke-width: 0.8"/>
      </g>
     </g>
     <g id="text_15">
      <!-- 60 -->
      <g transform="translate(88.275 71.599219) scale(0.1 -0.1)">
       <defs>
        <path id="DejaVuSans-36" d="M 2113 2584 
Q 1688 2584 1439 2293 
Q 1191 2003 1191 1497 
Q 1191 994 1439 701 
Q 1688 409 2113 409 
Q 2538 409 2786 701 
Q 3034 994 3034 1497 
Q 3034 2003 2786 2293 
Q 2538 2584 2113 2584 
z
M 3366 4563 
L 3366 3988 
Q 3128 4100 2886 4159 
Q 2644 4219 2406 4219 
Q 1781 4219 1451 3797 
Q 1122 3375 1075 2522 
Q 1259 2794 1537 2939 
Q 1816 3084 2150 3084 
Q 2853 3084 3261 2657 
Q 3669 2231 3669 1497 
Q 3669 778 3244 343 
Q 2819 -91 2113 -91 
Q 1303 -91 875 529 
Q 447 1150 447 2328 
Q 447 3434 972 4092 
Q 1497 4750 2381 4750 
Q 2619 4750 2861 4703 
Q 3103 4656 3366 4563 
z
" transform="scale(0.015625)"/>
       </defs>
       <use xlink:href="#DejaVuSans-36"/>
       <use xlink:href="#DejaVuSans-30" x="63.623047"/>
      </g>
     </g>
    </g>
    <g id="text_16">
     <!-- AMPLITUDE -->
     <g transform="translate(82.195312 210.532812) rotate(-90) scale(0.1 -0.1)">
      <defs>
       <path id="DejaVuSans-50" d="M 1259 4147 
L 1259 2394 
L 2053 2394 
Q 2494 2394 2734 2622 
Q 2975 2850 2975 3272 
Q 2975 3691 2734 3919 
Q 2494 4147 2053 4147 
L 1259 4147 
z
M 628 4666 
L 2053 4666 
Q 2838 4666 3239 4311 
Q 3641 3956 3641 3272 
Q 3641 2581 3239 2228 
Q 2838 1875 2053 1875 
L 1259 1875 
L 1259 0 
L 628 0 
L 628 4666 
z
" transform="scale(0.015625)"/>
       <path id="DejaVuSans-4c" d="M 628 4666 
L 1259 4666 
L 1259 531 
L 3531 531 
L 3531 0 
L 628 0 
L 628 4666 
z
" transform="scale(0.015625)"/>
       <path id="DejaVuSans-55" d="M 556 4666 
L 1191 4666 
L 1191 1831 
Q 1191 1081 1462 751 
Q 1734 422 2344 422 
Q 2950 422 3222 751 
Q 3494 1081 3494 1831 
L 3494 4666 
L 4128 4666 
L 4128 1753 
Q 4128 841 3676 375 
Q 3225 -91 2344 -91 
Q 1459 -91 1007 375 
Q 556 841 556 1753 
L 556 4666 
z
" transform="scale(0.015625)"/>
      </defs>
      <use xlink:href="#DejaVuSans-41"/>
      <use xlink:href="#DejaVuSans-4d" x="68.408203"/>
      <use xlink:href="#DejaVuSans-50" x="154.6875"/>
      <use xlink:href="#DejaVuSans-4c" x="214.990234"/>
      <use xlink:href="#DejaVuSans-49" x="270.703125"/>
      <use xlink:href="#DejaVuSans-54" x="300.195312"/>
      <use xlink:href="#DejaVuSans-55" x="361.279297"/>
      <use xlink:href="#DejaVuSans-44" x="434.472656"/>
      <use xlink:href="#DejaVuSans-45" x="511.474609"/>
     </g>
    </g>
   </g>
   <g id="line2d_15">
    <path d="M 138.436364 295.8 
L 139.49502 55.8 
L 140.553676 127.8 
L 141.612332 167.8 
L 142.670988 215.8 
L 143.729644 231.8 
L 144.7883 183.8 
L 145.846957 299.8 
L 146.905613 307.8 
L 149.022925 307.8 
L 150.081581 303.8 
L 151.140237 243.8 
L 152.198893 287.8 
L 153.257549 267.8 
L 154.316206 299.8 
L 155.374862 307.8 
L 156.433518 267.8 
L 157.492174 307.8 
L 158.55083 243.8 
L 159.609486 215.8 
L 160.668142 67.8 
L 161.726798 187.8 
L 162.785455 103.8 
L 163.844111 307.8 
L 167.020079 307.8 
L 168.078735 259.8 
L 169.137391 307.8 
L 177.60664 307.8 
L 178.665296 295.8 
L 179.723953 287.8 
L 180.782609 307.8 
L 181.841265 251.8 
L 182.899921 307.8 
L 187.134545 307.8 
L 188.193202 291.8 
L 189.251858 151.8 
L 190.310514 123.8 
L 191.36917 199.8 
L 192.427826 267.8 
L 193.486482 255.8 
L 194.545138 239.8 
L 195.603794 283.8 
L 196.662451 307.8 
L 197.721107 223.8 
L 199.838419 279.8 
L 200.897075 271.8 
L 201.955731 307.8 
L 203.014387 303.8 
L 204.073043 307.8 
L 205.1317 243.8 
L 206.190356 307.8 
L 207.249012 255.8 
L 208.307668 243.8 
L 209.366324 251.8 
L 210.42498 99.8 
L 211.483636 191.8 
L 212.542292 175.8 
L 213.600949 307.8 
L 214.659605 275.8 
L 215.718261 299.8 
L 216.776917 307.8 
L 218.894229 307.8 
L 219.952885 291.8 
L 221.011542 307.8 
L 222.070198 239.8 
L 223.128854 279.8 
L 224.18751 235.8 
L 225.246166 295.8 
L 226.304822 307.8 
L 227.363478 275.8 
L 228.422134 207.8 
L 229.480791 287.8 
L 230.539447 307.8 
L 231.598103 283.8 
L 232.656759 283.8 
L 233.715415 307.8 
L 235.832727 307.8 
L 236.891383 295.8 
L 237.95004 275.8 
L 239.008696 167.8 
L 240.067352 175.8 
L 241.126008 195.8 
L 242.184664 223.8 
L 243.24332 247.8 
L 244.301976 235.8 
L 245.360632 271.8 
L 246.419289 239.8 
L 247.477945 295.8 
L 248.536601 307.8 
L 251.712569 307.8 
L 252.771225 295.8 
L 253.829881 303.8 
L 254.888538 299.8 
L 255.947194 303.8 
L 257.00585 235.8 
L 258.064506 251.8 
L 259.123162 183.8 
L 260.181818 131.8 
L 261.240474 183.8 
L 262.29913 147.8 
L 263.357787 279.8 
L 264.416443 271.8 
L 265.475099 271.8 
L 266.533755 307.8 
L 267.592411 307.8 
L 268.651067 291.8 
L 269.709723 307.8 
L 270.768379 299.8 
L 271.827036 271.8 
L 272.885692 307.8 
L 273.944348 279.8 
L 275.003004 307.8 
L 276.06166 267.8 
L 277.120316 307.8 
L 278.178972 223.8 
L 279.237628 303.8 
L 280.296285 299.8 
L 281.354941 259.8 
L 282.413597 307.8 
L 283.472253 255.8 
L 284.530909 307.8 
L 286.648221 307.8 
L 287.706877 303.8 
L 288.765534 155.8 
L 289.82419 111.8 
L 290.882846 235.8 
L 291.941502 203.8 
L 294.058814 243.8 
L 295.11747 307.8 
L 296.176126 219.8 
L 297.234783 279.8 
L 298.293439 307.8 
L 299.352095 307.8 
L 300.410751 299.8 
L 301.469407 307.8 
L 302.528063 251.8 
L 303.586719 299.8 
L 304.645375 243.8 
L 305.704032 251.8 
L 306.762688 207.8 
L 307.821344 275.8 
L 308.88 115.8 
L 309.938656 215.8 
L 310.997312 135.8 
L 312.055968 87.8 
L 313.114625 307.8 
L 314.173281 307.8 
L 315.231937 239.8 
L 316.290593 279.8 
L 317.349249 307.8 
L 318.407905 295.8 
L 319.466561 307.8 
L 320.525217 291.8 
L 321.583874 307.8 
L 324.759842 307.8 
L 325.818498 243.8 
L 326.877154 307.8 
L 327.93581 275.8 
L 328.994466 307.8 
L 330.053123 259.8 
L 331.111779 303.8 
L 332.170435 275.8 
L 333.229091 307.8 
L 334.287747 279.8 
L 335.346403 255.8 
L 336.405059 271.8 
L 337.463715 295.8 
L 338.522372 79.8 
L 339.581028 155.8 
L 340.639684 183.8 
L 341.69834 263.8 
L 342.756996 219.8 
L 343.815652 235.8 
L 344.874308 255.8 
L 345.932964 251.8 
L 346.991621 263.8 
L 348.050277 307.8 
L 350.167589 307.8 
L 351.226245 295.8 
L 352.284901 307.8 
L 354.402213 307.8 
L 355.46087 295.8 
L 356.519526 251.8 
L 357.578182 131.8 
L 358.636838 207.8 
L 359.695494 155.8 
L 360.75415 187.8 
L 361.812806 75.8 
L 362.871462 295.8 
L 363.930119 267.8 
L 364.988775 279.8 
L 366.047431 267.8 
L 367.106087 307.8 
L 368.164743 271.8 
L 369.223399 279.8 
L 370.282055 307.8 
L 372.399368 307.8 
L 373.458024 291.8 
L 374.51668 235.8 
L 375.575336 303.8 
L 376.633992 307.8 
L 377.692648 259.8 
L 378.751304 271.8 
L 379.80996 307.8 
L 380.868617 287.8 
L 381.927273 307.8 
L 382.985929 307.8 
L 384.044585 295.8 
L 385.103241 307.8 
L 387.220553 307.8 
L 388.279209 163.8 
L 389.337866 203.8 
L 390.396522 235.8 
L 391.455178 163.8 
L 392.513834 199.8 
L 394.631146 255.8 
L 395.689802 275.8 
L 396.748458 275.8 
L 397.807115 307.8 
L 398.865771 283.8 
L 399.924427 299.8 
L 400.983083 307.8 
L 402.041739 307.8 
L 403.100395 267.8 
L 404.159051 271.8 
L 405.217708 191.8 
L 406.276364 271.8 
L 407.33502 199.8 
L 408.393676 187.8 
L 409.452332 187.8 
L 410.510988 111.8 
L 411.569644 111.8 
L 412.6283 259.8 
L 413.686957 303.8 
L 414.745613 307.8 
L 415.804269 271.8 
L 416.862925 307.8 
L 417.921581 295.8 
L 418.980237 307.8 
L 423.214862 307.8 
L 424.273518 263.8 
L 425.332174 291.8 
L 426.39083 307.8 
L 427.449486 283.8 
L 428.508142 307.8 
L 430.625455 307.8 
L 431.684111 295.8 
L 432.742767 291.8 
L 433.801423 247.8 
L 434.860079 291.8 
L 435.918735 307.8 
L 436.977391 131.8 
L 438.036047 111.8 
L 439.094704 211.8 
L 440.15336 215.8 
L 441.212016 211.8 
L 442.270672 223.8 
L 443.329328 307.8 
L 444.387984 279.8 
L 445.44664 307.8 
L 446.505296 307.8 
L 447.563953 243.8 
L 448.622609 307.8 
L 449.681265 307.8 
L 450.739921 179.8 
L 451.798577 279.8 
L 452.857233 279.8 
L 453.915889 307.8 
L 454.974545 279.8 
L 456.033202 219.8 
L 457.091858 247.8 
L 458.150514 203.8 
L 459.20917 183.8 
L 460.267826 199.8 
L 461.326482 87.8 
L 462.385138 303.8 
L 463.443794 307.8 
L 464.502451 291.8 
L 465.561107 307.8 
L 466.619763 307.8 
L 467.678419 303.8 
L 468.737075 287.8 
L 469.795731 255.8 
L 470.854387 291.8 
L 471.913043 307.8 
L 472.9717 275.8 
L 474.030356 307.8 
L 475.089012 219.8 
L 476.147668 283.8 
L 477.206324 307.8 
L 486.734229 307.8 
L 487.792885 131.8 
L 488.851542 223.8 
L 489.910198 131.8 
L 490.968854 199.8 
L 492.02751 203.8 
L 493.086166 175.8 
L 494.144822 307.8 
L 495.203478 183.8 
L 496.262134 263.8 
L 497.320791 303.8 
L 498.379447 307.8 
L 499.438103 303.8 
L 500.496759 307.8 
L 501.555415 307.8 
L 502.614071 223.8 
L 503.672727 283.8 
L 504.731383 251.8 
L 505.79004 259.8 
L 506.848696 135.8 
L 507.907352 231.8 
L 508.966008 159.8 
L 510.024664 175.8 
L 511.08332 179.8 
L 512.141976 259.8 
L 513.200632 303.8 
L 514.259289 295.8 
L 515.317945 307.8 
L 516.376601 287.8 
L 517.435257 307.8 
L 519.552569 307.8 
L 520.611225 299.8 
L 521.669881 307.8 
L 522.728538 307.8 
L 523.787194 283.8 
L 524.84585 307.8 
L 526.963162 307.8 
L 528.021818 267.8 
L 529.080474 271.8 
L 530.13913 307.8 
L 531.197787 307.8 
L 532.256443 251.8 
L 533.315099 307.8 
L 534.373755 307.8 
L 535.432411 303.8 
L 536.491067 111.8 
L 538.608379 159.8 
L 539.667036 171.8 
L 540.725692 271.8 
L 541.784348 171.8 
L 542.843004 215.8 
L 543.90166 287.8 
L 544.960316 239.8 
L 546.018972 259.8 
L 547.077628 307.8 
L 548.136285 291.8 
L 549.194941 259.8 
L 550.253597 307.8 
L 551.312253 307.8 
L 552.370909 295.8 
L 553.429565 299.8 
L 554.488221 291.8 
L 555.546877 307.8 
L 556.605534 255.8 
L 557.66419 239.8 
L 558.722846 191.8 
L 559.781502 187.8 
L 560.840158 79.8 
L 561.898814 111.8 
L 562.95747 135.8 
L 564.016126 307.8 
L 565.074783 291.8 
L 566.133439 295.8 
L 567.192095 271.8 
L 568.250751 307.8 
L 572.485375 307.8 
L 573.544032 243.8 
L 574.602688 271.8 
L 575.661344 307.8 
L 576.72 299.8 
L 577.778656 307.8 
L 579.895968 307.8 
L 580.954625 303.8 
L 582.013281 275.8 
L 583.071937 307.8 
L 585.189249 307.8 
L 586.247905 283.8 
L 587.306561 307.8 
L 588.365217 307.8 
L 589.423874 131.8 
L 590.48253 79.8 
L 591.541186 219.8 
L 592.599842 223.8 
L 593.658498 247.8 
L 594.717154 239.8 
L 596.834466 207.8 
L 597.893123 303.8 
L 598.951779 299.8 
L 601.069091 251.8 
L 602.127747 307.8 
L 603.186403 307.8 
L 604.245059 299.8 
L 605.303715 307.8 
L 606.362372 263.8 
L 607.421028 291.8 
L 608.479684 251.8 
L 609.53834 171.8 
L 610.596996 199.8 
L 611.655652 103.8 
L 612.714308 91.8 
L 613.772964 203.8 
L 614.831621 279.8 
L 615.890277 271.8 
L 616.948933 307.8 
L 621.183557 307.8 
L 622.242213 271.8 
L 623.30087 251.8 
L 624.359526 307.8 
L 625.418182 307.8 
L 626.476838 299.8 
L 627.535494 295.8 
L 628.59415 307.8 
L 632.828775 307.8 
L 633.887431 275.8 
L 634.946087 263.8 
L 636.004743 307.8 
L 637.063399 307.8 
L 638.122055 235.8 
L 639.180711 255.8 
L 640.239368 75.8 
L 641.298024 131.8 
L 642.35668 215.8 
L 643.415336 163.8 
L 644.473992 179.8 
L 645.532648 271.8 
L 646.591304 203.8 
L 647.64996 227.8 
L 648.708617 307.8 
L 649.767273 287.8 
L 650.825929 295.8 
L 651.884585 307.8 
L 652.943241 255.8 
L 654.001897 247.8 
L 655.060553 279.8 
L 656.119209 255.8 
L 657.177866 235.8 
L 658.236522 219.8 
L 659.295178 243.8 
L 660.353834 207.8 
L 661.41249 215.8 
L 662.471146 179.8 
L 663.529802 155.8 
L 664.588458 239.8 
L 665.647115 299.8 
L 666.705771 307.8 
L 667.764427 307.8 
L 668.823083 271.8 
L 669.881739 307.8 
L 670.940395 303.8 
L 671.999051 307.8 
L 673.057708 243.8 
L 674.116364 271.8 
L 675.17502 243.8 
L 677.292332 307.8 
L 678.350988 307.8 
L 679.409644 295.8 
L 680.4683 251.8 
L 681.526957 303.8 
L 682.585613 287.8 
L 683.644269 267.8 
L 684.702925 251.8 
L 685.761581 263.8 
L 686.820237 255.8 
L 687.878893 307.8 
L 688.937549 307.8 
L 689.996206 271.8 
L 691.054862 283.8 
L 692.113518 183.8 
L 693.172174 167.8 
L 694.23083 175.8 
L 695.289486 143.8 
L 696.348142 283.8 
L 697.406798 243.8 
L 698.465455 259.8 
L 699.524111 287.8 
L 700.582767 307.8 
L 703.758735 307.8 
L 704.817391 295.8 
L 705.876047 307.8 
L 706.934704 271.8 
L 707.99336 271.8 
L 709.052016 279.8 
L 710.110672 275.8 
L 711.169328 239.8 
L 712.227984 199.8 
L 713.28664 211.8 
L 714.345296 123.8 
L 716.462609 115.8 
L 717.521265 251.8 
L 718.579921 307.8 
L 720.697233 307.8 
L 721.755889 283.8 
L 722.814545 275.8 
L 723.873202 271.8 
L 724.931858 307.8 
L 725.990514 227.8 
L 727.04917 307.8 
L 728.107826 271.8 
L 729.166482 255.8 
L 730.225138 279.8 
L 731.283794 283.8 
L 732.342451 307.8 
L 734.459763 307.8 
L 735.518419 275.8 
L 736.577075 307.8 
L 738.694387 307.8 
L 739.753043 263.8 
L 740.8117 295.8 
L 741.870356 307.8 
L 742.929012 63.8 
L 745.046324 247.8 
L 746.10498 195.8 
L 747.163636 231.8 
L 747.163636 231.8 
" clip-path="url(#p77afa941df)" style="fill: none; stroke: #191970; stroke-width: 2; stroke-linecap: square"/>
   </g>
   <g id="patch_3">
    <path d="M 108 320.4 
L 108 43.2 
" style="fill: none; stroke: #000000; stroke-width: 0.8; stroke-linejoin: miter; stroke-linecap: square"/>
   </g>
   <g id="patch_4">
    <path d="M 777.6 320.4 
L 777.6 43.2 
" style="fill: none; stroke: #000000; stroke-width: 0.8; stroke-linejoin: miter; stroke-linecap: square"/>
   </g>
   <g id="patch_5">
    <path d="M 108 320.4 
L 777.6 320.4 
" style="fill: none; stroke: #000000; stroke-width: 0.8; stroke-linejoin: miter; stroke-linecap: square"/>
   </g>
   <g id="patch_6">
    <path d="M 108 43.2 
L 777.6 43.2 
" style="fill: none; stroke: #000000; stroke-width: 0.8; stroke-linejoin: miter; stroke-linecap: square"/>
   </g>
   <g id="text_17">
    <!-- TIME SERIES -->
    <g transform="translate(405.350625 37.2) scale(0.12 -0.12)">
     <defs>
      <path id="DejaVuSans-52" d="M 2841 2188 
Q 3044 2119 3236 1894 
Q 3428 1669 3622 1275 
L 4263 0 
L 3584 0 
L 2988 1197 
Q 2756 1666 2539 1819 
Q 2322 1972 1947 1972 
L 1259 1972 
L 1259 0 
L 628 0 
L 628 4666 
L 2053 4666 
Q 2853 4666 3247 4331 
Q 3641 3997 3641 3322 
Q 3641 2881 3436 2590 
Q 3231 2300 2841 2188 
z
M 1259 4147 
L 1259 2491 
L 2053 2491 
Q 2509 2491 2742 2702 
Q 2975 2913 2975 3322 
Q 2975 3731 2742 3939 
Q 2509 4147 2053 4147 
L 1259 4147 
z
" transform="scale(0.015625)"/>
     </defs>
     <use xlink:href="#DejaVuSans-54"/>
     <use xlink:href="#DejaVuSans-49" x="61.083984"/>
     <use xlink:href="#DejaVuSans-4d" x="90.576172"/>
     <use xlink:href="#DejaVuSans-45" x="176.855469"/>
     <use xlink:href="#DejaVuSans-20" x="240.039062"/>
     <use xlink:href="#DejaVuSans-53" x="271.826172"/>
     <use xlink:href="#DejaVuSans-45" x="335.302734"/>
     <use xlink:href="#DejaVuSans-52" x="398.486328"/>
     <use xlink:href="#DejaVuSans-49" x="467.96875"/>
     <use xlink:href="#DejaVuSans-45" x="497.460938"/>
     <use xlink:href="#DejaVuSans-53" x="560.644531"/>
    </g>
   </g>
  </g>
 </g>
 <defs>
  <clipPath id="p77afa941df">
   <rect x="108" y="43.2" width="669.6" height="277.2"/>
  </clipPath>
 </defs>
</svg>
