<?xml version="1.0" encoding="utf-8" standalone="no"?>
<!DOCTYPE svg PUBLIC "-//W3C//DTD SVG 1.1//EN"
  "http://www.w3.org/Graphics/SVG/1.1/DTD/svg11.dtd">
<svg xmlns:xlink="http://www.w3.org/1999/xlink" width="864pt" height="360pt" viewBox="0 0 864 360" xmlns="http://www.w3.org/2000/svg" version="1.1">
 <metadata>
  <rdf:RDF xmlns:dc="http://purl.org/dc/elements/1.1/" xmlns:cc="http://creativecommons.org/ns#" xmlns:rdf="http://www.w3.org/1999/02/22-rdf-syntax-ns#">
   <cc:Work>
    <dc:type rdf:resource="http://purl.org/dc/dcmitype/StillImage"/>
    <dc:date>2023-08-03T16:26:36.794894</dc:date>
    <dc:format>image/svg+xml</dc:format>
    <dc:creator>
     <cc:Agent>
      <dc:title>Matplotlib v3.7.1, https://matplotlib.org/</dc:title>
     </cc:Agent>
    </dc:creator>
   </cc:Work>
  </rdf:RDF>
 </metadata>
 <defs>
  <style type="text/css">*{stroke-linejoin: round; stroke-linecap: butt}</style>
 </defs>
 <g id="figure_1">
  <g id="patch_1">
   <path d="M 0 360 
L 864 360 
L 864 0 
L 0 0 
z
" style="fill: #ffffff"/>
  </g>
  <g id="axes_1">
   <g id="patch_2">
    <path d="M 108 320.4 
L 777.6 320.4 
L 777.6 43.2 
L 108 43.2 
z
" style="fill: #ffffff"/>
   </g>
   <g id="matplotlib.axis_1">
    <g id="xtick_1">
     <g id="line2d_1">
      <defs>
       <path id="m903d8818ca" d="M 0 0 
L 0 3.5 
" style="stroke: #000000; stroke-width: 0.8"/>
      </defs>
      <g>
       <use xlink:href="#m903d8818ca" x="138.436364" y="320.4" style="stroke: #000000; stroke-width: 0.8"/>
      </g>
     </g>
     <g id="text_1">
      <!-- 2022-01-01 -->
      <g transform="translate(109.378551 334.998438) scale(0.1 -0.1)">
       <defs>
        <path id="DejaVuSans-32" d="M 1228 531 
L 3431 531 
L 3431 0 
L 469 0 
L 469 531 
Q 828 903 1448 1529 
Q 2069 2156 2228 2338 
Q 2531 2678 2651 2914 
Q 2772 3150 2772 3378 
Q 2772 3750 2511 3984 
Q 2250 4219 1831 4219 
Q 1534 4219 1204 4116 
Q 875 4013 500 3803 
L 500 4441 
Q 881 4594 1212 4672 
Q 1544 4750 1819 4750 
Q 2544 4750 2975 4387 
Q 3406 4025 3406 3419 
Q 3406 3131 3298 2873 
Q 3191 2616 2906 2266 
Q 2828 2175 2409 1742 
Q 1991 1309 1228 531 
z
" transform="scale(0.015625)"/>
        <path id="DejaVuSans-30" d="M 2034 4250 
Q 1547 4250 1301 3770 
Q 1056 3291 1056 2328 
Q 1056 1369 1301 889 
Q 1547 409 2034 409 
Q 2525 409 2770 889 
Q 3016 1369 3016 2328 
Q 3016 3291 2770 3770 
Q 2525 4250 2034 4250 
z
M 2034 4750 
Q 2819 4750 3233 4129 
Q 3647 3509 3647 2328 
Q 3647 1150 3233 529 
Q 2819 -91 2034 -91 
Q 1250 -91 836 529 
Q 422 1150 422 2328 
Q 422 3509 836 4129 
Q 1250 4750 2034 4750 
z
" transform="scale(0.015625)"/>
        <path id="DejaVuSans-2d" d="M 313 2009 
L 1997 2009 
L 1997 1497 
L 313 1497 
L 313 2009 
z
" transform="scale(0.015625)"/>
        <path id="DejaVuSans-31" d="M 794 531 
L 1825 531 
L 1825 4091 
L 703 3866 
L 703 4441 
L 1819 4666 
L 2450 4666 
L 2450 531 
L 3481 531 
L 3481 0 
L 794 0 
L 794 531 
z
" transform="scale(0.015625)"/>
       </defs>
       <use xlink:href="#DejaVuSans-32"/>
       <use xlink:href="#DejaVuSans-30" x="63.623047"/>
       <use xlink:href="#DejaVuSans-32" x="127.246094"/>
       <use xlink:href="#DejaVuSans-32" x="190.869141"/>
       <use xlink:href="#DejaVuSans-2d" x="254.492188"/>
       <use xlink:href="#DejaVuSans-30" x="290.576172"/>
       <use xlink:href="#DejaVuSans-31" x="354.199219"/>
       <use xlink:href="#DejaVuSans-2d" x="417.822266"/>
       <use xlink:href="#DejaVuSans-30" x="453.90625"/>
       <use xlink:href="#DejaVuSans-31" x="517.529297"/>
      </g>
     </g>
    </g>
    <g id="xtick_2">
     <g id="line2d_2">
      <g>
       <use xlink:href="#m903d8818ca" x="249.324064" y="320.4" style="stroke: #000000; stroke-width: 0.8"/>
      </g>
     </g>
     <g id="text_2">
      <!-- 2022-01-03 -->
      <g transform="translate(220.266252 334.998438) scale(0.1 -0.1)">
       <defs>
        <path id="DejaVuSans-33" d="M 2597 2516 
Q 3050 2419 3304 2112 
Q 3559 1806 3559 1356 
Q 3559 666 3084 287 
Q 2609 -91 1734 -91 
Q 1441 -91 1130 -33 
Q 819 25 488 141 
L 488 750 
Q 750 597 1062 519 
Q 1375 441 1716 441 
Q 2309 441 2620 675 
Q 2931 909 2931 1356 
Q 2931 1769 2642 2001 
Q 2353 2234 1838 2234 
L 1294 2234 
L 1294 2753 
L 1863 2753 
Q 2328 2753 2575 2939 
Q 2822 3125 2822 3475 
Q 2822 3834 2567 4026 
Q 2313 4219 1838 4219 
Q 1578 4219 1281 4162 
Q 984 4106 628 3988 
L 628 4550 
Q 988 4650 1302 4700 
Q 1616 4750 1894 4750 
Q 2613 4750 3031 4423 
Q 3450 4097 3450 3541 
Q 3450 3153 3228 2886 
Q 3006 2619 2597 2516 
z
" transform="scale(0.015625)"/>
       </defs>
       <use xlink:href="#DejaVuSans-32"/>
       <use xlink:href="#DejaVuSans-30" x="63.623047"/>
       <use xlink:href="#DejaVuSans-32" x="127.246094"/>
       <use xlink:href="#DejaVuSans-32" x="190.869141"/>
       <use xlink:href="#DejaVuSans-2d" x="254.492188"/>
       <use xlink:href="#DejaVuSans-30" x="290.576172"/>
       <use xlink:href="#DejaVuSans-31" x="354.199219"/>
       <use xlink:href="#DejaVuSans-2d" x="417.822266"/>
       <use xlink:href="#DejaVuSans-30" x="453.90625"/>
       <use xlink:href="#DejaVuSans-33" x="517.529297"/>
      </g>
     </g>
    </g>
    <g id="xtick_3">
     <g id="line2d_3">
      <g>
       <use xlink:href="#m903d8818ca" x="360.211765" y="320.4" style="stroke: #000000; stroke-width: 0.8"/>
      </g>
     </g>
     <g id="text_3">
      <!-- 2022-01-05 -->
      <g transform="translate(331.153952 334.998438) scale(0.1 -0.1)">
       <defs>
        <path id="DejaVuSans-35" d="M 691 4666 
L 3169 4666 
L 3169 4134 
L 1269 4134 
L 1269 2991 
Q 1406 3038 1543 3061 
Q 1681 3084 1819 3084 
Q 2600 3084 3056 2656 
Q 3513 2228 3513 1497 
Q 3513 744 3044 326 
Q 2575 -91 1722 -91 
Q 1428 -91 1123 -41 
Q 819 9 494 109 
L 494 744 
Q 775 591 1075 516 
Q 1375 441 1709 441 
Q 2250 441 2565 725 
Q 2881 1009 2881 1497 
Q 2881 1984 2565 2268 
Q 2250 2553 1709 2553 
Q 1456 2553 1204 2497 
Q 953 2441 691 2322 
L 691 4666 
z
" transform="scale(0.015625)"/>
       </defs>
       <use xlink:href="#DejaVuSans-32"/>
       <use xlink:href="#DejaVuSans-30" x="63.623047"/>
       <use xlink:href="#DejaVuSans-32" x="127.246094"/>
       <use xlink:href="#DejaVuSans-32" x="190.869141"/>
       <use xlink:href="#DejaVuSans-2d" x="254.492188"/>
       <use xlink:href="#DejaVuSans-30" x="290.576172"/>
       <use xlink:href="#DejaVuSans-31" x="354.199219"/>
       <use xlink:href="#DejaVuSans-2d" x="417.822266"/>
       <use xlink:href="#DejaVuSans-30" x="453.90625"/>
       <use xlink:href="#DejaVuSans-35" x="517.529297"/>
      </g>
     </g>
    </g>
    <g id="xtick_4">
     <g id="line2d_4">
      <g>
       <use xlink:href="#m903d8818ca" x="471.099465" y="320.4" style="stroke: #000000; stroke-width: 0.8"/>
      </g>
     </g>
     <g id="text_4">
      <!-- 2022-01-07 -->
      <g transform="translate(442.041653 334.998438) scale(0.1 -0.1)">
       <defs>
        <path id="DejaVuSans-37" d="M 525 4666 
L 3525 4666 
L 3525 4397 
L 1831 0 
L 1172 0 
L 2766 4134 
L 525 4134 
L 525 4666 
z
" transform="scale(0.015625)"/>
       </defs>
       <use xlink:href="#DejaVuSans-32"/>
       <use xlink:href="#DejaVuSans-30" x="63.623047"/>
       <use xlink:href="#DejaVuSans-32" x="127.246094"/>
       <use xlink:href="#DejaVuSans-32" x="190.869141"/>
       <use xlink:href="#DejaVuSans-2d" x="254.492188"/>
       <use xlink:href="#DejaVuSans-30" x="290.576172"/>
       <use xlink:href="#DejaVuSans-31" x="354.199219"/>
       <use xlink:href="#DejaVuSans-2d" x="417.822266"/>
       <use xlink:href="#DejaVuSans-30" x="453.90625"/>
       <use xlink:href="#DejaVuSans-37" x="517.529297"/>
      </g>
     </g>
    </g>
    <g id="xtick_5">
     <g id="line2d_5">
      <g>
       <use xlink:href="#m903d8818ca" x="581.987166" y="320.4" style="stroke: #000000; stroke-width: 0.8"/>
      </g>
     </g>
     <g id="text_5">
      <!-- 2022-01-09 -->
      <g transform="translate(552.929353 334.998438) scale(0.1 -0.1)">
       <defs>
        <path id="DejaVuSans-39" d="M 703 97 
L 703 672 
Q 941 559 1184 500 
Q 1428 441 1663 441 
Q 2288 441 2617 861 
Q 2947 1281 2994 2138 
Q 2813 1869 2534 1725 
Q 2256 1581 1919 1581 
Q 1219 1581 811 2004 
Q 403 2428 403 3163 
Q 403 3881 828 4315 
Q 1253 4750 1959 4750 
Q 2769 4750 3195 4129 
Q 3622 3509 3622 2328 
Q 3622 1225 3098 567 
Q 2575 -91 1691 -91 
Q 1453 -91 1209 -44 
Q 966 3 703 97 
z
M 1959 2075 
Q 2384 2075 2632 2365 
Q 2881 2656 2881 3163 
Q 2881 3666 2632 3958 
Q 2384 4250 1959 4250 
Q 1534 4250 1286 3958 
Q 1038 3666 1038 3163 
Q 1038 2656 1286 2365 
Q 1534 2075 1959 2075 
z
" transform="scale(0.015625)"/>
       </defs>
       <use xlink:href="#DejaVuSans-32"/>
       <use xlink:href="#DejaVuSans-30" x="63.623047"/>
       <use xlink:href="#DejaVuSans-32" x="127.246094"/>
       <use xlink:href="#DejaVuSans-32" x="190.869141"/>
       <use xlink:href="#DejaVuSans-2d" x="254.492188"/>
       <use xlink:href="#DejaVuSans-30" x="290.576172"/>
       <use xlink:href="#DejaVuSans-31" x="354.199219"/>
       <use xlink:href="#DejaVuSans-2d" x="417.822266"/>
       <use xlink:href="#DejaVuSans-30" x="453.90625"/>
       <use xlink:href="#DejaVuSans-39" x="517.529297"/>
      </g>
     </g>
    </g>
    <g id="xtick_6">
     <g id="line2d_6">
      <g>
       <use xlink:href="#m903d8818ca" x="692.874866" y="320.4" style="stroke: #000000; stroke-width: 0.8"/>
      </g>
     </g>
     <g id="text_6">
      <!-- 2022-01-11 -->
      <g transform="translate(663.817054 334.998438) scale(0.1 -0.1)">
       <use xlink:href="#DejaVuSans-32"/>
       <use xlink:href="#DejaVuSans-30" x="63.623047"/>
       <use xlink:href="#DejaVuSans-32" x="127.246094"/>
       <use xlink:href="#DejaVuSans-32" x="190.869141"/>
       <use xlink:href="#DejaVuSans-2d" x="254.492188"/>
       <use xlink:href="#DejaVuSans-30" x="290.576172"/>
       <use xlink:href="#DejaVuSans-31" x="354.199219"/>
       <use xlink:href="#DejaVuSans-2d" x="417.822266"/>
       <use xlink:href="#DejaVuSans-31" x="453.90625"/>
       <use xlink:href="#DejaVuSans-31" x="517.529297"/>
      </g>
     </g>
    </g>
    <g id="text_7">
     <!-- TIME (DAYS) -->
     <g transform="translate(412.283594 348.676562) scale(0.1 -0.1)">
      <defs>
       <path id="DejaVuSans-54" d="M -19 4666 
L 3928 4666 
L 3928 4134 
L 2272 4134 
L 2272 0 
L 1638 0 
L 1638 4134 
L -19 4134 
L -19 4666 
z
" transform="scale(0.015625)"/>
       <path id="DejaVuSans-49" d="M 628 4666 
L 1259 4666 
L 1259 0 
L 628 0 
L 628 4666 
z
" transform="scale(0.015625)"/>
       <path id="DejaVuSans-4d" d="M 628 4666 
L 1569 4666 
L 2759 1491 
L 3956 4666 
L 4897 4666 
L 4897 0 
L 4281 0 
L 4281 4097 
L 3078 897 
L 2444 897 
L 1241 4097 
L 1241 0 
L 628 0 
L 628 4666 
z
" transform="scale(0.015625)"/>
       <path id="DejaVuSans-45" d="M 628 4666 
L 3578 4666 
L 3578 4134 
L 1259 4134 
L 1259 2753 
L 3481 2753 
L 3481 2222 
L 1259 2222 
L 1259 531 
L 3634 531 
L 3634 0 
L 628 0 
L 628 4666 
z
" transform="scale(0.015625)"/>
       <path id="DejaVuSans-20" transform="scale(0.015625)"/>
       <path id="DejaVuSans-28" d="M 1984 4856 
Q 1566 4138 1362 3434 
Q 1159 2731 1159 2009 
Q 1159 1288 1364 580 
Q 1569 -128 1984 -844 
L 1484 -844 
Q 1016 -109 783 600 
Q 550 1309 550 2009 
Q 550 2706 781 3412 
Q 1013 4119 1484 4856 
L 1984 4856 
z
" transform="scale(0.015625)"/>
       <path id="DejaVuSans-44" d="M 1259 4147 
L 1259 519 
L 2022 519 
Q 2988 519 3436 956 
Q 3884 1394 3884 2338 
Q 3884 3275 3436 3711 
Q 2988 4147 2022 4147 
L 1259 4147 
z
M 628 4666 
L 1925 4666 
Q 3281 4666 3915 4102 
Q 4550 3538 4550 2338 
Q 4550 1131 3912 565 
Q 3275 0 1925 0 
L 628 0 
L 628 4666 
z
" transform="scale(0.015625)"/>
       <path id="DejaVuSans-41" d="M 2188 4044 
L 1331 1722 
L 3047 1722 
L 2188 4044 
z
M 1831 4666 
L 2547 4666 
L 4325 0 
L 3669 0 
L 3244 1197 
L 1141 1197 
L 716 0 
L 50 0 
L 1831 4666 
z
" transform="scale(0.015625)"/>
       <path id="DejaVuSans-59" d="M -13 4666 
L 666 4666 
L 1959 2747 
L 3244 4666 
L 3922 4666 
L 2272 2222 
L 2272 0 
L 1638 0 
L 1638 2222 
L -13 4666 
z
" transform="scale(0.015625)"/>
       <path id="DejaVuSans-53" d="M 3425 4513 
L 3425 3897 
Q 3066 4069 2747 4153 
Q 2428 4238 2131 4238 
Q 1616 4238 1336 4038 
Q 1056 3838 1056 3469 
Q 1056 3159 1242 3001 
Q 1428 2844 1947 2747 
L 2328 2669 
Q 3034 2534 3370 2195 
Q 3706 1856 3706 1288 
Q 3706 609 3251 259 
Q 2797 -91 1919 -91 
Q 1588 -91 1214 -16 
Q 841 59 441 206 
L 441 856 
Q 825 641 1194 531 
Q 1563 422 1919 422 
Q 2459 422 2753 634 
Q 3047 847 3047 1241 
Q 3047 1584 2836 1778 
Q 2625 1972 2144 2069 
L 1759 2144 
Q 1053 2284 737 2584 
Q 422 2884 422 3419 
Q 422 4038 858 4394 
Q 1294 4750 2059 4750 
Q 2388 4750 2728 4690 
Q 3069 4631 3425 4513 
z
" transform="scale(0.015625)"/>
       <path id="DejaVuSans-29" d="M 513 4856 
L 1013 4856 
Q 1481 4119 1714 3412 
Q 1947 2706 1947 2009 
Q 1947 1309 1714 600 
Q 1481 -109 1013 -844 
L 513 -844 
Q 928 -128 1133 580 
Q 1338 1288 1338 2009 
Q 1338 2731 1133 3434 
Q 928 4138 513 4856 
z
" transform="scale(0.015625)"/>
      </defs>
      <use xlink:href="#DejaVuSans-54"/>
      <use xlink:href="#DejaVuSans-49" x="61.083984"/>
      <use xlink:href="#DejaVuSans-4d" x="90.576172"/>
      <use xlink:href="#DejaVuSans-45" x="176.855469"/>
      <use xlink:href="#DejaVuSans-20" x="240.039062"/>
      <use xlink:href="#DejaVuSans-28" x="271.826172"/>
      <use xlink:href="#DejaVuSans-44" x="310.839844"/>
      <use xlink:href="#DejaVuSans-41" x="386.091797"/>
      <use xlink:href="#DejaVuSans-59" x="446.75"/>
      <use xlink:href="#DejaVuSans-53" x="507.833984"/>
      <use xlink:href="#DejaVuSans-29" x="571.310547"/>
     </g>
    </g>
   </g>
   <g id="matplotlib.axis_2">
    <g id="ytick_1">
     <g id="line2d_7">
      <defs>
       <path id="mdbfa30c94e" d="M 0 0 
L -3.5 0 
" style="stroke: #000000; stroke-width: 0.8"/>
      </defs>
      <g>
       <use xlink:href="#mdbfa30c94e" x="108" y="307.8" style="stroke: #000000; stroke-width: 0.8"/>
      </g>
     </g>
     <g id="text_8">
      <!-- 0 -->
      <g transform="translate(94.6375 311.599219) scale(0.1 -0.1)">
       <use xlink:href="#DejaVuSans-30"/>
      </g>
     </g>
    </g>
    <g id="ytick_2">
     <g id="line2d_8">
      <g>
       <use xlink:href="#mdbfa30c94e" x="108" y="267.8" style="stroke: #000000; stroke-width: 0.8"/>
      </g>
     </g>
     <g id="text_9">
      <!-- 10 -->
      <g transform="translate(88.275 271.599219) scale(0.1 -0.1)">
       <use xlink:href="#DejaVuSans-31"/>
       <use xlink:href="#DejaVuSans-30" x="63.623047"/>
      </g>
     </g>
    </g>
    <g id="ytick_3">
     <g id="line2d_9">
      <g>
       <use xlink:href="#mdbfa30c94e" x="108" y="227.8" style="stroke: #000000; stroke-width: 0.8"/>
      </g>
     </g>
     <g id="text_10">
      <!-- 20 -->
      <g transform="translate(88.275 231.599219) scale(0.1 -0.1)">
       <use xlink:href="#DejaVuSans-32"/>
       <use xlink:href="#DejaVuSans-30" x="63.623047"/>
      </g>
     </g>
    </g>
    <g id="ytick_4">
     <g id="line2d_10">
      <g>
       <use xlink:href="#mdbfa30c94e" x="108" y="187.8" style="stroke: #000000; stroke-width: 0.8"/>
      </g>
     </g>
     <g id="text_11">
      <!-- 30 -->
      <g transform="translate(88.275 191.599219) scale(0.1 -0.1)">
       <use xlink:href="#DejaVuSans-33"/>
       <use xlink:href="#DejaVuSans-30" x="63.623047"/>
      </g>
     </g>
    </g>
    <g id="ytick_5">
     <g id="line2d_11">
      <g>
       <use xlink:href="#mdbfa30c94e" x="108" y="147.8" style="stroke: #000000; stroke-width: 0.8"/>
      </g>
     </g>
     <g id="text_12">
      <!-- 40 -->
      <g transform="translate(88.275 151.599219) scale(0.1 -0.1)">
       <defs>
        <path id="DejaVuSans-34" d="M 2419 4116 
L 825 1625 
L 2419 1625 
L 2419 4116 
z
M 2253 4666 
L 3047 4666 
L 3047 1625 
L 3713 1625 
L 3713 1100 
L 3047 1100 
L 3047 0 
L 2419 0 
L 2419 1100 
L 313 1100 
L 313 1709 
L 2253 4666 
z
" transform="scale(0.015625)"/>
       </defs>
       <use xlink:href="#DejaVuSans-34"/>
       <use xlink:href="#DejaVuSans-30" x="63.623047"/>
      </g>
     </g>
    </g>
    <g id="ytick_6">
     <g id="line2d_12">
      <g>
       <use xlink:href="#mdbfa30c94e" x="108" y="107.8" style="stroke: #000000; stroke-width: 0.8"/>
      </g>
     </g>
     <g id="text_13">
      <!-- 50 -->
      <g transform="translate(88.275 111.599219) scale(0.1 -0.1)">
       <use xlink:href="#DejaVuSans-35"/>
       <use xlink:href="#DejaVuSans-30" x="63.623047"/>
      </g>
     </g>
    </g>
    <g id="ytick_7">
     <g id="line2d_13">
      <g>
       <use xlink:href="#mdbfa30c94e" x="108" y="67.8" style="stroke: #000000; stroke-width: 0.8"/>
      </g>
     </g>
     <g id="text_14">
      <!-- 60 -->
      <g transform="translate(88.275 71.599219) scale(0.1 -0.1)">
       <defs>
        <path id="DejaVuSans-36" d="M 2113 2584 
Q 1688 2584 1439 2293 
Q 1191 2003 1191 1497 
Q 1191 994 1439 701 
Q 1688 409 2113 409 
Q 2538 409 2786 701 
Q 3034 994 3034 1497 
Q 3034 2003 2786 2293 
Q 2538 2584 2113 2584 
z
M 3366 4563 
L 3366 3988 
Q 3128 4100 2886 4159 
Q 2644 4219 2406 4219 
Q 1781 4219 1451 3797 
Q 1122 3375 1075 2522 
Q 1259 2794 1537 2939 
Q 1816 3084 2150 3084 
Q 2853 3084 3261 2657 
Q 3669 2231 3669 1497 
Q 3669 778 3244 343 
Q 2819 -91 2113 -91 
Q 1303 -91 875 529 
Q 447 1150 447 2328 
Q 447 3434 972 4092 
Q 1497 4750 2381 4750 
Q 2619 4750 2861 4703 
Q 3103 4656 3366 4563 
z
" transform="scale(0.015625)"/>
       </defs>
       <use xlink:href="#DejaVuSans-36"/>
       <use xlink:href="#DejaVuSans-30" x="63.623047"/>
      </g>
     </g>
    </g>
    <g id="text_15">
     <!-- AMPLITUDE -->
     <g transform="translate(82.195312 210.532812) rotate(-90) scale(0.1 -0.1)">
      <defs>
       <path id="DejaVuSans-50" d="M 1259 4147 
L 1259 2394 
L 2053 2394 
Q 2494 2394 2734 2622 
Q 2975 2850 2975 3272 
Q 2975 3691 2734 3919 
Q 2494 4147 2053 4147 
L 1259 4147 
z
M 628 4666 
L 2053 4666 
Q 2838 4666 3239 4311 
Q 3641 3956 3641 3272 
Q 3641 2581 3239 2228 
Q 2838 1875 2053 1875 
L 1259 1875 
L 1259 0 
L 628 0 
L 628 4666 
z
" transform="scale(0.015625)"/>
       <path id="DejaVuSans-4c" d="M 628 4666 
L 1259 4666 
L 1259 531 
L 3531 531 
L 3531 0 
L 628 0 
L 628 4666 
z
" transform="scale(0.015625)"/>
       <path id="DejaVuSans-55" d="M 556 4666 
L 1191 4666 
L 1191 1831 
Q 1191 1081 1462 751 
Q 1734 422 2344 422 
Q 2950 422 3222 751 
Q 3494 1081 3494 1831 
L 3494 4666 
L 4128 4666 
L 4128 1753 
Q 4128 841 3676 375 
Q 3225 -91 2344 -91 
Q 1459 -91 1007 375 
Q 556 841 556 1753 
L 556 4666 
z
" transform="scale(0.015625)"/>
      </defs>
      <use xlink:href="#DejaVuSans-41"/>
      <use xlink:href="#DejaVuSans-4d" x="68.408203"/>
      <use xlink:href="#DejaVuSans-50" x="154.6875"/>
      <use xlink:href="#DejaVuSans-4c" x="214.990234"/>
      <use xlink:href="#DejaVuSans-49" x="270.703125"/>
      <use xlink:href="#DejaVuSans-54" x="300.195312"/>
      <use xlink:href="#DejaVuSans-55" x="361.279297"/>
      <use xlink:href="#DejaVuSans-44" x="434.472656"/>
      <use xlink:href="#DejaVuSans-45" x="511.474609"/>
     </g>
    </g>
   </g>
   <g id="line2d_14">
    <path d="M 138.436364 259.8 
L 139.591444 163.8 
L 140.746524 159.8 
L 141.901604 175.8 
L 143.056684 235.8 
L 144.211765 219.8 
L 145.366845 183.8 
L 146.521925 235.8 
L 147.677005 307.8 
L 148.832086 287.8 
L 149.987166 307.8 
L 151.142246 295.8 
L 152.297326 307.8 
L 153.452406 307.8 
L 154.607487 279.8 
L 155.762567 279.8 
L 156.917647 307.8 
L 159.227807 275.8 
L 160.382888 267.8 
L 161.537968 251.8 
L 162.693048 243.8 
L 163.848128 179.8 
L 165.003209 171.8 
L 166.158289 111.8 
L 167.313369 155.8 
L 168.468449 247.8 
L 169.623529 307.8 
L 170.77861 275.8 
L 171.93369 307.8 
L 173.08877 307.8 
L 174.24385 279.8 
L 175.39893 307.8 
L 176.554011 291.8 
L 177.709091 307.8 
L 178.864171 295.8 
L 180.019251 307.8 
L 181.174332 307.8 
L 182.329412 303.8 
L 183.484492 263.8 
L 184.639572 283.8 
L 185.794652 287.8 
L 186.949733 275.8 
L 188.104813 307.8 
L 189.259893 295.8 
L 190.414973 307.8 
L 193.880214 307.8 
L 195.035294 267.8 
L 196.190374 307.8 
L 197.345455 275.8 
L 198.500535 83.8 
L 199.655615 83.8 
L 200.810695 179.8 
L 201.965775 159.8 
L 203.120856 195.8 
L 204.275936 263.8 
L 205.431016 271.8 
L 206.586096 247.8 
L 207.741176 307.8 
L 208.896257 307.8 
L 210.051337 291.8 
L 211.206417 307.8 
L 212.361497 279.8 
L 213.516578 279.8 
L 214.671658 307.8 
L 215.826738 247.8 
L 216.981818 307.8 
L 218.136898 307.8 
L 219.291979 299.8 
L 220.447059 271.8 
L 221.602139 307.8 
L 222.757219 219.8 
L 223.912299 155.8 
L 225.06738 119.8 
L 226.22246 135.8 
L 227.37754 115.8 
L 228.53262 307.8 
L 229.687701 239.8 
L 230.842781 287.8 
L 231.997861 307.8 
L 234.308021 307.8 
L 235.463102 259.8 
L 236.618182 307.8 
L 237.773262 307.8 
L 238.928342 259.8 
L 240.083422 307.8 
L 248.168984 307.8 
L 249.324064 275.8 
L 250.479144 291.8 
L 251.634225 267.8 
L 252.789305 307.8 
L 256.254545 307.8 
L 257.409626 267.8 
L 258.564706 171.8 
L 259.719786 179.8 
L 260.874866 163.8 
L 262.029947 251.8 
L 263.185027 203.8 
L 264.340107 231.8 
L 265.495187 227.8 
L 266.650267 203.8 
L 267.805348 303.8 
L 268.960428 307.8 
L 270.115508 279.8 
L 272.425668 303.8 
L 273.580749 303.8 
L 274.735829 251.8 
L 277.045989 307.8 
L 278.20107 243.8 
L 279.35615 251.8 
L 280.51123 207.8 
L 281.66631 279.8 
L 282.82139 187.8 
L 283.976471 199.8 
L 285.131551 207.8 
L 286.286631 207.8 
L 287.441711 131.8 
L 288.596791 235.8 
L 289.751872 279.8 
L 290.906952 307.8 
L 292.062032 279.8 
L 293.217112 271.8 
L 294.372193 191.8 
L 295.527273 307.8 
L 297.837433 307.8 
L 298.992513 295.8 
L 300.147594 247.8 
L 301.302674 307.8 
L 302.457754 291.8 
L 303.612834 307.8 
L 304.767914 307.8 
L 305.922995 303.8 
L 307.078075 303.8 
L 308.233155 307.8 
L 309.388235 307.8 
L 310.543316 287.8 
L 311.698396 307.8 
L 312.853476 287.8 
L 314.008556 307.8 
L 315.163636 279.8 
L 316.318717 307.8 
L 317.473797 307.8 
L 318.628877 143.8 
L 319.783957 55.8 
L 320.939037 163.8 
L 322.094118 215.8 
L 323.249198 231.8 
L 324.404278 235.8 
L 325.559358 259.8 
L 326.714439 303.8 
L 327.869519 255.8 
L 329.024599 195.8 
L 330.179679 307.8 
L 332.48984 307.8 
L 333.64492 291.8 
L 334.8 307.8 
L 335.95508 295.8 
L 337.11016 307.8 
L 339.420321 227.8 
L 340.575401 307.8 
L 341.730481 239.8 
L 342.885561 199.8 
L 344.040642 171.8 
L 346.350802 123.8 
L 347.505882 219.8 
L 348.660963 215.8 
L 349.816043 303.8 
L 350.971123 307.8 
L 352.126203 303.8 
L 353.281283 307.8 
L 354.436364 295.8 
L 355.591444 307.8 
L 363.677005 307.8 
L 364.832086 251.8 
L 365.987166 307.8 
L 368.297326 307.8 
L 369.452406 263.8 
L 370.607487 259.8 
L 371.762567 307.8 
L 372.917647 307.8 
L 374.072727 287.8 
L 375.227807 307.8 
L 378.693048 307.8 
L 379.848128 111.8 
L 381.003209 147.8 
L 382.158289 175.8 
L 383.313369 147.8 
L 384.468449 303.8 
L 385.623529 179.8 
L 386.77861 195.8 
L 387.93369 299.8 
L 389.08877 291.8 
L 390.24385 307.8 
L 394.864171 307.8 
L 396.019251 279.8 
L 397.174332 283.8 
L 398.329412 291.8 
L 399.484492 287.8 
L 400.639572 307.8 
L 401.794652 207.8 
L 402.949733 227.8 
L 404.104813 199.8 
L 405.259893 203.8 
L 406.414973 115.8 
L 407.570053 123.8 
L 408.725134 295.8 
L 409.880214 307.8 
L 411.035294 307.8 
L 412.190374 275.8 
L 413.345455 307.8 
L 414.500535 291.8 
L 415.655615 307.8 
L 421.431016 307.8 
L 422.586096 303.8 
L 423.741176 307.8 
L 424.896257 263.8 
L 426.051337 307.8 
L 427.206417 307.8 
L 428.361497 303.8 
L 429.516578 307.8 
L 431.826738 307.8 
L 432.981818 255.8 
L 434.136898 307.8 
L 436.447059 307.8 
L 437.602139 111.8 
L 438.757219 147.8 
L 439.912299 227.8 
L 441.06738 199.8 
L 442.22246 183.8 
L 443.37754 203.8 
L 444.53262 307.8 
L 445.687701 259.8 
L 446.842781 307.8 
L 447.997861 271.8 
L 449.152941 255.8 
L 450.308021 307.8 
L 451.463102 267.8 
L 452.618182 255.8 
L 453.773262 307.8 
L 454.928342 299.8 
L 456.083422 303.8 
L 457.238503 203.8 
L 458.393583 259.8 
L 459.548663 263.8 
L 460.703743 195.8 
L 461.858824 135.8 
L 463.013904 203.8 
L 464.168984 83.8 
L 465.324064 115.8 
L 466.479144 307.8 
L 468.789305 307.8 
L 469.944385 223.8 
L 471.099465 307.8 
L 472.254545 243.8 
L 473.409626 259.8 
L 474.564706 307.8 
L 478.029947 307.8 
L 479.185027 267.8 
L 480.340107 307.8 
L 481.495187 287.8 
L 482.650267 307.8 
L 483.805348 307.8 
L 484.960428 299.8 
L 486.115508 307.8 
L 487.270588 287.8 
L 488.425668 287.8 
L 489.580749 307.8 
L 490.735829 307.8 
L 491.890909 303.8 
L 493.045989 307.8 
L 494.20107 279.8 
L 495.35615 307.8 
L 496.51123 135.8 
L 497.66631 91.8 
L 498.82139 175.8 
L 499.976471 203.8 
L 501.131551 263.8 
L 502.286631 307.8 
L 503.441711 259.8 
L 504.596791 291.8 
L 505.751872 255.8 
L 506.906952 223.8 
L 508.062032 299.8 
L 509.217112 283.8 
L 510.372193 259.8 
L 511.527273 307.8 
L 513.837433 307.8 
L 514.992513 267.8 
L 516.147594 231.8 
L 517.302674 247.8 
L 518.457754 271.8 
L 520.767914 127.8 
L 521.922995 79.8 
L 523.078075 147.8 
L 524.233155 107.8 
L 525.388235 299.8 
L 526.543316 307.8 
L 527.698396 255.8 
L 528.853476 283.8 
L 530.008556 303.8 
L 531.163636 307.8 
L 532.318717 291.8 
L 533.473797 307.8 
L 535.783957 307.8 
L 536.939037 287.8 
L 538.094118 223.8 
L 539.249198 307.8 
L 540.404278 307.8 
L 541.559358 279.8 
L 542.714439 307.8 
L 545.024599 307.8 
L 546.179679 227.8 
L 548.48984 299.8 
L 549.64492 307.8 
L 550.8 307.8 
L 551.95508 259.8 
L 553.11016 299.8 
L 554.265241 191.8 
L 555.420321 95.8 
L 556.575401 183.8 
L 557.730481 243.8 
L 558.885561 179.8 
L 560.040642 195.8 
L 561.195722 243.8 
L 562.350802 271.8 
L 563.505882 295.8 
L 564.660963 267.8 
L 565.816043 243.8 
L 566.971123 267.8 
L 568.126203 267.8 
L 569.281283 303.8 
L 570.436364 275.8 
L 571.591444 307.8 
L 572.746524 251.8 
L 573.901604 279.8 
L 575.056684 255.8 
L 576.211765 267.8 
L 577.366845 187.8 
L 578.521925 159.8 
L 579.677005 195.8 
L 580.832086 191.8 
L 581.987166 135.8 
L 583.142246 287.8 
L 584.297326 267.8 
L 585.452406 307.8 
L 588.917647 295.8 
L 590.072727 239.8 
L 591.227807 307.8 
L 595.848128 307.8 
L 597.003209 275.8 
L 598.158289 307.8 
L 601.623529 307.8 
L 602.77861 263.8 
L 603.93369 307.8 
L 605.08877 307.8 
L 606.24385 187.8 
L 607.39893 307.8 
L 608.554011 307.8 
L 609.709091 283.8 
L 610.864171 307.8 
L 612.019251 251.8 
L 613.174332 139.8 
L 614.329412 199.8 
L 615.484492 251.8 
L 616.639572 247.8 
L 617.794652 215.8 
L 618.949733 239.8 
L 620.104813 247.8 
L 621.259893 203.8 
L 622.414973 259.8 
L 623.570053 307.8 
L 624.725134 247.8 
L 625.880214 307.8 
L 627.035294 307.8 
L 628.190374 303.8 
L 630.500535 239.8 
L 631.655615 303.8 
L 632.810695 271.8 
L 633.965775 219.8 
L 635.120856 307.8 
L 636.275936 239.8 
L 637.431016 235.8 
L 638.586096 159.8 
L 639.741176 155.8 
L 640.896257 99.8 
L 642.051337 307.8 
L 644.361497 307.8 
L 645.516578 295.8 
L 646.671658 307.8 
L 650.136898 307.8 
L 651.291979 295.8 
L 652.447059 307.8 
L 654.757219 307.8 
L 655.912299 263.8 
L 657.06738 307.8 
L 658.22246 267.8 
L 659.37754 307.8 
L 660.53262 263.8 
L 661.687701 307.8 
L 662.842781 287.8 
L 663.997861 307.8 
L 665.152941 291.8 
L 666.308021 307.8 
L 667.463102 267.8 
L 669.773262 307.8 
L 670.928342 115.8 
L 672.083422 79.8 
L 673.238503 191.8 
L 674.393583 171.8 
L 675.548663 247.8 
L 676.703743 223.8 
L 677.858824 271.8 
L 679.013904 291.8 
L 680.168984 243.8 
L 681.324064 291.8 
L 682.479144 239.8 
L 683.634225 307.8 
L 684.789305 303.8 
L 685.944385 307.8 
L 687.099465 303.8 
L 688.254545 267.8 
L 689.409626 307.8 
L 690.564706 303.8 
L 691.719786 247.8 
L 692.874866 211.8 
L 694.029947 275.8 
L 695.185027 171.8 
L 696.340107 211.8 
L 697.495187 127.8 
L 698.650267 107.8 
L 699.805348 91.8 
L 700.960428 295.8 
L 702.115508 251.8 
L 703.270588 307.8 
L 704.425668 307.8 
L 705.580749 279.8 
L 706.735829 271.8 
L 707.890909 283.8 
L 709.045989 307.8 
L 710.20107 211.8 
L 711.35615 307.8 
L 712.51123 307.8 
L 713.66631 295.8 
L 714.82139 307.8 
L 715.976471 279.8 
L 717.131551 307.8 
L 718.286631 275.8 
L 719.441711 239.8 
L 720.596791 295.8 
L 721.751872 299.8 
L 722.906952 279.8 
L 724.062032 295.8 
L 725.217112 307.8 
L 726.372193 307.8 
L 727.527273 303.8 
L 728.682353 279.8 
L 729.837433 127.8 
L 730.992513 147.8 
L 732.147594 199.8 
L 733.302674 175.8 
L 734.457754 203.8 
L 735.612834 267.8 
L 736.767914 259.8 
L 737.922995 243.8 
L 739.078075 307.8 
L 740.233155 267.8 
L 741.388235 307.8 
L 744.853476 307.8 
L 746.008556 263.8 
L 747.163636 307.8 
L 747.163636 307.8 
" clip-path="url(#p1e0b72978d)" style="fill: none; stroke: #191970; stroke-width: 2; stroke-linecap: square"/>
   </g>
   <g id="patch_3">
    <path d="M 108 320.4 
L 108 43.2 
" style="fill: none; stroke: #000000; stroke-width: 0.8; stroke-linejoin: miter; stroke-linecap: square"/>
   </g>
   <g id="patch_4">
    <path d="M 777.6 320.4 
L 777.6 43.2 
" style="fill: none; stroke: #000000; stroke-width: 0.8; stroke-linejoin: miter; stroke-linecap: square"/>
   </g>
   <g id="patch_5">
    <path d="M 108 320.4 
L 777.6 320.4 
" style="fill: none; stroke: #000000; stroke-width: 0.8; stroke-linejoin: miter; stroke-linecap: square"/>
   </g>
   <g id="patch_6">
    <path d="M 108 43.2 
L 777.6 43.2 
" style="fill: none; stroke: #000000; stroke-width: 0.8; stroke-linejoin: miter; stroke-linecap: square"/>
   </g>
   <g id="text_16">
    <!-- TIME SERIES -->
    <g transform="translate(405.350625 37.2) scale(0.12 -0.12)">
     <defs>
      <path id="DejaVuSans-52" d="M 2841 2188 
Q 3044 2119 3236 1894 
Q 3428 1669 3622 1275 
L 4263 0 
L 3584 0 
L 2988 1197 
Q 2756 1666 2539 1819 
Q 2322 1972 1947 1972 
L 1259 1972 
L 1259 0 
L 628 0 
L 628 4666 
L 2053 4666 
Q 2853 4666 3247 4331 
Q 3641 3997 3641 3322 
Q 3641 2881 3436 2590 
Q 3231 2300 2841 2188 
z
M 1259 4147 
L 1259 2491 
L 2053 2491 
Q 2509 2491 2742 2702 
Q 2975 2913 2975 3322 
Q 2975 3731 2742 3939 
Q 2509 4147 2053 4147 
L 1259 4147 
z
" transform="scale(0.015625)"/>
     </defs>
     <use xlink:href="#DejaVuSans-54"/>
     <use xlink:href="#DejaVuSans-49" x="61.083984"/>
     <use xlink:href="#DejaVuSans-4d" x="90.576172"/>
     <use xlink:href="#DejaVuSans-45" x="176.855469"/>
     <use xlink:href="#DejaVuSans-20" x="240.039062"/>
     <use xlink:href="#DejaVuSans-53" x="271.826172"/>
     <use xlink:href="#DejaVuSans-45" x="335.302734"/>
     <use xlink:href="#DejaVuSans-52" x="398.486328"/>
     <use xlink:href="#DejaVuSans-49" x="467.96875"/>
     <use xlink:href="#DejaVuSans-45" x="497.460938"/>
     <use xlink:href="#DejaVuSans-53" x="560.644531"/>
    </g>
   </g>
  </g>
 </g>
 <defs>
  <clipPath id="p1e0b72978d">
   <rect x="108" y="43.2" width="669.6" height="277.2"/>
  </clipPath>
 </defs>
</svg>
