<?xml version="1.0" encoding="utf-8" standalone="no"?>
<!DOCTYPE svg PUBLIC "-//W3C//DTD SVG 1.1//EN"
  "http://www.w3.org/Graphics/SVG/1.1/DTD/svg11.dtd">
<svg xmlns:xlink="http://www.w3.org/1999/xlink" width="864pt" height="360pt" viewBox="0 0 864 360" xmlns="http://www.w3.org/2000/svg" version="1.1">
 <metadata>
  <rdf:RDF xmlns:dc="http://purl.org/dc/elements/1.1/" xmlns:cc="http://creativecommons.org/ns#" xmlns:rdf="http://www.w3.org/1999/02/22-rdf-syntax-ns#">
   <cc:Work>
    <dc:type rdf:resource="http://purl.org/dc/dcmitype/StillImage"/>
    <dc:date>2023-08-03T16:47:01.973273</dc:date>
    <dc:format>image/svg+xml</dc:format>
    <dc:creator>
     <cc:Agent>
      <dc:title>Matplotlib v3.7.1, https://matplotlib.org/</dc:title>
     </cc:Agent>
    </dc:creator>
   </cc:Work>
  </rdf:RDF>
 </metadata>
 <defs>
  <style type="text/css">*{stroke-linejoin: round; stroke-linecap: butt}</style>
 </defs>
 <g id="figure_1">
  <g id="patch_1">
   <path d="M 0 360 
L 864 360 
L 864 0 
L 0 0 
z
" style="fill: #ffffff"/>
  </g>
  <g id="axes_1">
   <g id="patch_2">
    <path d="M 108 320.4 
L 777.6 320.4 
L 777.6 43.2 
L 108 43.2 
z
" style="fill: #ffffff"/>
   </g>
   <g id="matplotlib.axis_1">
    <g id="xtick_1">
     <g id="line2d_1">
      <defs>
       <path id="m5082b0ee1d" d="M 0 0 
L 0 3.5 
" style="stroke: #000000; stroke-width: 0.8"/>
      </defs>
      <g>
       <use xlink:href="#m5082b0ee1d" x="138.436364" y="320.4" style="stroke: #000000; stroke-width: 0.8"/>
      </g>
     </g>
     <g id="text_1">
      <!-- 2022-01-01 -->
      <g transform="translate(109.378551 334.998438) scale(0.1 -0.1)">
       <defs>
        <path id="DejaVuSans-32" d="M 1228 531 
L 3431 531 
L 3431 0 
L 469 0 
L 469 531 
Q 828 903 1448 1529 
Q 2069 2156 2228 2338 
Q 2531 2678 2651 2914 
Q 2772 3150 2772 3378 
Q 2772 3750 2511 3984 
Q 2250 4219 1831 4219 
Q 1534 4219 1204 4116 
Q 875 4013 500 3803 
L 500 4441 
Q 881 4594 1212 4672 
Q 1544 4750 1819 4750 
Q 2544 4750 2975 4387 
Q 3406 4025 3406 3419 
Q 3406 3131 3298 2873 
Q 3191 2616 2906 2266 
Q 2828 2175 2409 1742 
Q 1991 1309 1228 531 
z
" transform="scale(0.015625)"/>
        <path id="DejaVuSans-30" d="M 2034 4250 
Q 1547 4250 1301 3770 
Q 1056 3291 1056 2328 
Q 1056 1369 1301 889 
Q 1547 409 2034 409 
Q 2525 409 2770 889 
Q 3016 1369 3016 2328 
Q 3016 3291 2770 3770 
Q 2525 4250 2034 4250 
z
M 2034 4750 
Q 2819 4750 3233 4129 
Q 3647 3509 3647 2328 
Q 3647 1150 3233 529 
Q 2819 -91 2034 -91 
Q 1250 -91 836 529 
Q 422 1150 422 2328 
Q 422 3509 836 4129 
Q 1250 4750 2034 4750 
z
" transform="scale(0.015625)"/>
        <path id="DejaVuSans-2d" d="M 313 2009 
L 1997 2009 
L 1997 1497 
L 313 1497 
L 313 2009 
z
" transform="scale(0.015625)"/>
        <path id="DejaVuSans-31" d="M 794 531 
L 1825 531 
L 1825 4091 
L 703 3866 
L 703 4441 
L 1819 4666 
L 2450 4666 
L 2450 531 
L 3481 531 
L 3481 0 
L 794 0 
L 794 531 
z
" transform="scale(0.015625)"/>
       </defs>
       <use xlink:href="#DejaVuSans-32"/>
       <use xlink:href="#DejaVuSans-30" x="63.623047"/>
       <use xlink:href="#DejaVuSans-32" x="127.246094"/>
       <use xlink:href="#DejaVuSans-32" x="190.869141"/>
       <use xlink:href="#DejaVuSans-2d" x="254.492188"/>
       <use xlink:href="#DejaVuSans-30" x="290.576172"/>
       <use xlink:href="#DejaVuSans-31" x="354.199219"/>
       <use xlink:href="#DejaVuSans-2d" x="417.822266"/>
       <use xlink:href="#DejaVuSans-30" x="453.90625"/>
       <use xlink:href="#DejaVuSans-31" x="517.529297"/>
      </g>
     </g>
    </g>
    <g id="xtick_2">
     <g id="line2d_2">
      <g>
       <use xlink:href="#m5082b0ee1d" x="214.626479" y="320.4" style="stroke: #000000; stroke-width: 0.8"/>
      </g>
     </g>
     <g id="text_2">
      <!-- 2022-01-03 -->
      <g transform="translate(185.568666 334.998438) scale(0.1 -0.1)">
       <defs>
        <path id="DejaVuSans-33" d="M 2597 2516 
Q 3050 2419 3304 2112 
Q 3559 1806 3559 1356 
Q 3559 666 3084 287 
Q 2609 -91 1734 -91 
Q 1441 -91 1130 -33 
Q 819 25 488 141 
L 488 750 
Q 750 597 1062 519 
Q 1375 441 1716 441 
Q 2309 441 2620 675 
Q 2931 909 2931 1356 
Q 2931 1769 2642 2001 
Q 2353 2234 1838 2234 
L 1294 2234 
L 1294 2753 
L 1863 2753 
Q 2328 2753 2575 2939 
Q 2822 3125 2822 3475 
Q 2822 3834 2567 4026 
Q 2313 4219 1838 4219 
Q 1578 4219 1281 4162 
Q 984 4106 628 3988 
L 628 4550 
Q 988 4650 1302 4700 
Q 1616 4750 1894 4750 
Q 2613 4750 3031 4423 
Q 3450 4097 3450 3541 
Q 3450 3153 3228 2886 
Q 3006 2619 2597 2516 
z
" transform="scale(0.015625)"/>
       </defs>
       <use xlink:href="#DejaVuSans-32"/>
       <use xlink:href="#DejaVuSans-30" x="63.623047"/>
       <use xlink:href="#DejaVuSans-32" x="127.246094"/>
       <use xlink:href="#DejaVuSans-32" x="190.869141"/>
       <use xlink:href="#DejaVuSans-2d" x="254.492188"/>
       <use xlink:href="#DejaVuSans-30" x="290.576172"/>
       <use xlink:href="#DejaVuSans-31" x="354.199219"/>
       <use xlink:href="#DejaVuSans-2d" x="417.822266"/>
       <use xlink:href="#DejaVuSans-30" x="453.90625"/>
       <use xlink:href="#DejaVuSans-33" x="517.529297"/>
      </g>
     </g>
    </g>
    <g id="xtick_3">
     <g id="line2d_3">
      <g>
       <use xlink:href="#m5082b0ee1d" x="290.816594" y="320.4" style="stroke: #000000; stroke-width: 0.8"/>
      </g>
     </g>
     <g id="text_3">
      <!-- 2022-01-05 -->
      <g transform="translate(261.758781 334.998438) scale(0.1 -0.1)">
       <defs>
        <path id="DejaVuSans-35" d="M 691 4666 
L 3169 4666 
L 3169 4134 
L 1269 4134 
L 1269 2991 
Q 1406 3038 1543 3061 
Q 1681 3084 1819 3084 
Q 2600 3084 3056 2656 
Q 3513 2228 3513 1497 
Q 3513 744 3044 326 
Q 2575 -91 1722 -91 
Q 1428 -91 1123 -41 
Q 819 9 494 109 
L 494 744 
Q 775 591 1075 516 
Q 1375 441 1709 441 
Q 2250 441 2565 725 
Q 2881 1009 2881 1497 
Q 2881 1984 2565 2268 
Q 2250 2553 1709 2553 
Q 1456 2553 1204 2497 
Q 953 2441 691 2322 
L 691 4666 
z
" transform="scale(0.015625)"/>
       </defs>
       <use xlink:href="#DejaVuSans-32"/>
       <use xlink:href="#DejaVuSans-30" x="63.623047"/>
       <use xlink:href="#DejaVuSans-32" x="127.246094"/>
       <use xlink:href="#DejaVuSans-32" x="190.869141"/>
       <use xlink:href="#DejaVuSans-2d" x="254.492188"/>
       <use xlink:href="#DejaVuSans-30" x="290.576172"/>
       <use xlink:href="#DejaVuSans-31" x="354.199219"/>
       <use xlink:href="#DejaVuSans-2d" x="417.822266"/>
       <use xlink:href="#DejaVuSans-30" x="453.90625"/>
       <use xlink:href="#DejaVuSans-35" x="517.529297"/>
      </g>
     </g>
    </g>
    <g id="xtick_4">
     <g id="line2d_4">
      <g>
       <use xlink:href="#m5082b0ee1d" x="367.006709" y="320.4" style="stroke: #000000; stroke-width: 0.8"/>
      </g>
     </g>
     <g id="text_4">
      <!-- 2022-01-07 -->
      <g transform="translate(337.948896 334.998438) scale(0.1 -0.1)">
       <defs>
        <path id="DejaVuSans-37" d="M 525 4666 
L 3525 4666 
L 3525 4397 
L 1831 0 
L 1172 0 
L 2766 4134 
L 525 4134 
L 525 4666 
z
" transform="scale(0.015625)"/>
       </defs>
       <use xlink:href="#DejaVuSans-32"/>
       <use xlink:href="#DejaVuSans-30" x="63.623047"/>
       <use xlink:href="#DejaVuSans-32" x="127.246094"/>
       <use xlink:href="#DejaVuSans-32" x="190.869141"/>
       <use xlink:href="#DejaVuSans-2d" x="254.492188"/>
       <use xlink:href="#DejaVuSans-30" x="290.576172"/>
       <use xlink:href="#DejaVuSans-31" x="354.199219"/>
       <use xlink:href="#DejaVuSans-2d" x="417.822266"/>
       <use xlink:href="#DejaVuSans-30" x="453.90625"/>
       <use xlink:href="#DejaVuSans-37" x="517.529297"/>
      </g>
     </g>
    </g>
    <g id="xtick_5">
     <g id="line2d_5">
      <g>
       <use xlink:href="#m5082b0ee1d" x="443.196824" y="320.4" style="stroke: #000000; stroke-width: 0.8"/>
      </g>
     </g>
     <g id="text_5">
      <!-- 2022-01-09 -->
      <g transform="translate(414.139011 334.998438) scale(0.1 -0.1)">
       <defs>
        <path id="DejaVuSans-39" d="M 703 97 
L 703 672 
Q 941 559 1184 500 
Q 1428 441 1663 441 
Q 2288 441 2617 861 
Q 2947 1281 2994 2138 
Q 2813 1869 2534 1725 
Q 2256 1581 1919 1581 
Q 1219 1581 811 2004 
Q 403 2428 403 3163 
Q 403 3881 828 4315 
Q 1253 4750 1959 4750 
Q 2769 4750 3195 4129 
Q 3622 3509 3622 2328 
Q 3622 1225 3098 567 
Q 2575 -91 1691 -91 
Q 1453 -91 1209 -44 
Q 966 3 703 97 
z
M 1959 2075 
Q 2384 2075 2632 2365 
Q 2881 2656 2881 3163 
Q 2881 3666 2632 3958 
Q 2384 4250 1959 4250 
Q 1534 4250 1286 3958 
Q 1038 3666 1038 3163 
Q 1038 2656 1286 2365 
Q 1534 2075 1959 2075 
z
" transform="scale(0.015625)"/>
       </defs>
       <use xlink:href="#DejaVuSans-32"/>
       <use xlink:href="#DejaVuSans-30" x="63.623047"/>
       <use xlink:href="#DejaVuSans-32" x="127.246094"/>
       <use xlink:href="#DejaVuSans-32" x="190.869141"/>
       <use xlink:href="#DejaVuSans-2d" x="254.492188"/>
       <use xlink:href="#DejaVuSans-30" x="290.576172"/>
       <use xlink:href="#DejaVuSans-31" x="354.199219"/>
       <use xlink:href="#DejaVuSans-2d" x="417.822266"/>
       <use xlink:href="#DejaVuSans-30" x="453.90625"/>
       <use xlink:href="#DejaVuSans-39" x="517.529297"/>
      </g>
     </g>
    </g>
    <g id="xtick_6">
     <g id="line2d_6">
      <g>
       <use xlink:href="#m5082b0ee1d" x="519.386938" y="320.4" style="stroke: #000000; stroke-width: 0.8"/>
      </g>
     </g>
     <g id="text_6">
      <!-- 2022-01-11 -->
      <g transform="translate(490.329126 334.998438) scale(0.1 -0.1)">
       <use xlink:href="#DejaVuSans-32"/>
       <use xlink:href="#DejaVuSans-30" x="63.623047"/>
       <use xlink:href="#DejaVuSans-32" x="127.246094"/>
       <use xlink:href="#DejaVuSans-32" x="190.869141"/>
       <use xlink:href="#DejaVuSans-2d" x="254.492188"/>
       <use xlink:href="#DejaVuSans-30" x="290.576172"/>
       <use xlink:href="#DejaVuSans-31" x="354.199219"/>
       <use xlink:href="#DejaVuSans-2d" x="417.822266"/>
       <use xlink:href="#DejaVuSans-31" x="453.90625"/>
       <use xlink:href="#DejaVuSans-31" x="517.529297"/>
      </g>
     </g>
    </g>
    <g id="xtick_7">
     <g id="line2d_7">
      <g>
       <use xlink:href="#m5082b0ee1d" x="595.577053" y="320.4" style="stroke: #000000; stroke-width: 0.8"/>
      </g>
     </g>
     <g id="text_7">
      <!-- 2022-01-13 -->
      <g transform="translate(566.519241 334.998438) scale(0.1 -0.1)">
       <use xlink:href="#DejaVuSans-32"/>
       <use xlink:href="#DejaVuSans-30" x="63.623047"/>
       <use xlink:href="#DejaVuSans-32" x="127.246094"/>
       <use xlink:href="#DejaVuSans-32" x="190.869141"/>
       <use xlink:href="#DejaVuSans-2d" x="254.492188"/>
       <use xlink:href="#DejaVuSans-30" x="290.576172"/>
       <use xlink:href="#DejaVuSans-31" x="354.199219"/>
       <use xlink:href="#DejaVuSans-2d" x="417.822266"/>
       <use xlink:href="#DejaVuSans-31" x="453.90625"/>
       <use xlink:href="#DejaVuSans-33" x="517.529297"/>
      </g>
     </g>
    </g>
    <g id="xtick_8">
     <g id="line2d_8">
      <g>
       <use xlink:href="#m5082b0ee1d" x="671.767168" y="320.4" style="stroke: #000000; stroke-width: 0.8"/>
      </g>
     </g>
     <g id="text_8">
      <!-- 2022-01-15 -->
      <g transform="translate(642.709356 334.998438) scale(0.1 -0.1)">
       <use xlink:href="#DejaVuSans-32"/>
       <use xlink:href="#DejaVuSans-30" x="63.623047"/>
       <use xlink:href="#DejaVuSans-32" x="127.246094"/>
       <use xlink:href="#DejaVuSans-32" x="190.869141"/>
       <use xlink:href="#DejaVuSans-2d" x="254.492188"/>
       <use xlink:href="#DejaVuSans-30" x="290.576172"/>
       <use xlink:href="#DejaVuSans-31" x="354.199219"/>
       <use xlink:href="#DejaVuSans-2d" x="417.822266"/>
       <use xlink:href="#DejaVuSans-31" x="453.90625"/>
       <use xlink:href="#DejaVuSans-35" x="517.529297"/>
      </g>
     </g>
    </g>
    <g id="xtick_9">
     <g id="line2d_9">
      <g>
       <use xlink:href="#m5082b0ee1d" x="747.957283" y="320.4" style="stroke: #000000; stroke-width: 0.8"/>
      </g>
     </g>
     <g id="text_9">
      <!-- 2022-01-17 -->
      <g transform="translate(718.899471 334.998438) scale(0.1 -0.1)">
       <use xlink:href="#DejaVuSans-32"/>
       <use xlink:href="#DejaVuSans-30" x="63.623047"/>
       <use xlink:href="#DejaVuSans-32" x="127.246094"/>
       <use xlink:href="#DejaVuSans-32" x="190.869141"/>
       <use xlink:href="#DejaVuSans-2d" x="254.492188"/>
       <use xlink:href="#DejaVuSans-30" x="290.576172"/>
       <use xlink:href="#DejaVuSans-31" x="354.199219"/>
       <use xlink:href="#DejaVuSans-2d" x="417.822266"/>
       <use xlink:href="#DejaVuSans-31" x="453.90625"/>
       <use xlink:href="#DejaVuSans-37" x="517.529297"/>
      </g>
     </g>
    </g>
    <g id="text_10">
     <!-- TIME (DAYS) -->
     <g transform="translate(412.283594 348.676562) scale(0.1 -0.1)">
      <defs>
       <path id="DejaVuSans-54" d="M -19 4666 
L 3928 4666 
L 3928 4134 
L 2272 4134 
L 2272 0 
L 1638 0 
L 1638 4134 
L -19 4134 
L -19 4666 
z
" transform="scale(0.015625)"/>
       <path id="DejaVuSans-49" d="M 628 4666 
L 1259 4666 
L 1259 0 
L 628 0 
L 628 4666 
z
" transform="scale(0.015625)"/>
       <path id="DejaVuSans-4d" d="M 628 4666 
L 1569 4666 
L 2759 1491 
L 3956 4666 
L 4897 4666 
L 4897 0 
L 4281 0 
L 4281 4097 
L 3078 897 
L 2444 897 
L 1241 4097 
L 1241 0 
L 628 0 
L 628 4666 
z
" transform="scale(0.015625)"/>
       <path id="DejaVuSans-45" d="M 628 4666 
L 3578 4666 
L 3578 4134 
L 1259 4134 
L 1259 2753 
L 3481 2753 
L 3481 2222 
L 1259 2222 
L 1259 531 
L 3634 531 
L 3634 0 
L 628 0 
L 628 4666 
z
" transform="scale(0.015625)"/>
       <path id="DejaVuSans-20" transform="scale(0.015625)"/>
       <path id="DejaVuSans-28" d="M 1984 4856 
Q 1566 4138 1362 3434 
Q 1159 2731 1159 2009 
Q 1159 1288 1364 580 
Q 1569 -128 1984 -844 
L 1484 -844 
Q 1016 -109 783 600 
Q 550 1309 550 2009 
Q 550 2706 781 3412 
Q 1013 4119 1484 4856 
L 1984 4856 
z
" transform="scale(0.015625)"/>
       <path id="DejaVuSans-44" d="M 1259 4147 
L 1259 519 
L 2022 519 
Q 2988 519 3436 956 
Q 3884 1394 3884 2338 
Q 3884 3275 3436 3711 
Q 2988 4147 2022 4147 
L 1259 4147 
z
M 628 4666 
L 1925 4666 
Q 3281 4666 3915 4102 
Q 4550 3538 4550 2338 
Q 4550 1131 3912 565 
Q 3275 0 1925 0 
L 628 0 
L 628 4666 
z
" transform="scale(0.015625)"/>
       <path id="DejaVuSans-41" d="M 2188 4044 
L 1331 1722 
L 3047 1722 
L 2188 4044 
z
M 1831 4666 
L 2547 4666 
L 4325 0 
L 3669 0 
L 3244 1197 
L 1141 1197 
L 716 0 
L 50 0 
L 1831 4666 
z
" transform="scale(0.015625)"/>
       <path id="DejaVuSans-59" d="M -13 4666 
L 666 4666 
L 1959 2747 
L 3244 4666 
L 3922 4666 
L 2272 2222 
L 2272 0 
L 1638 0 
L 1638 2222 
L -13 4666 
z
" transform="scale(0.015625)"/>
       <path id="DejaVuSans-53" d="M 3425 4513 
L 3425 3897 
Q 3066 4069 2747 4153 
Q 2428 4238 2131 4238 
Q 1616 4238 1336 4038 
Q 1056 3838 1056 3469 
Q 1056 3159 1242 3001 
Q 1428 2844 1947 2747 
L 2328 2669 
Q 3034 2534 3370 2195 
Q 3706 1856 3706 1288 
Q 3706 609 3251 259 
Q 2797 -91 1919 -91 
Q 1588 -91 1214 -16 
Q 841 59 441 206 
L 441 856 
Q 825 641 1194 531 
Q 1563 422 1919 422 
Q 2459 422 2753 634 
Q 3047 847 3047 1241 
Q 3047 1584 2836 1778 
Q 2625 1972 2144 2069 
L 1759 2144 
Q 1053 2284 737 2584 
Q 422 2884 422 3419 
Q 422 4038 858 4394 
Q 1294 4750 2059 4750 
Q 2388 4750 2728 4690 
Q 3069 4631 3425 4513 
z
" transform="scale(0.015625)"/>
       <path id="DejaVuSans-29" d="M 513 4856 
L 1013 4856 
Q 1481 4119 1714 3412 
Q 1947 2706 1947 2009 
Q 1947 1309 1714 600 
Q 1481 -109 1013 -844 
L 513 -844 
Q 928 -128 1133 580 
Q 1338 1288 1338 2009 
Q 1338 2731 1133 3434 
Q 928 4138 513 4856 
z
" transform="scale(0.015625)"/>
      </defs>
      <use xlink:href="#DejaVuSans-54"/>
      <use xlink:href="#DejaVuSans-49" x="61.083984"/>
      <use xlink:href="#DejaVuSans-4d" x="90.576172"/>
      <use xlink:href="#DejaVuSans-45" x="176.855469"/>
      <use xlink:href="#DejaVuSans-20" x="240.039062"/>
      <use xlink:href="#DejaVuSans-28" x="271.826172"/>
      <use xlink:href="#DejaVuSans-44" x="310.839844"/>
      <use xlink:href="#DejaVuSans-41" x="386.091797"/>
      <use xlink:href="#DejaVuSans-59" x="446.75"/>
      <use xlink:href="#DejaVuSans-53" x="507.833984"/>
      <use xlink:href="#DejaVuSans-29" x="571.310547"/>
     </g>
    </g>
   </g>
   <g id="matplotlib.axis_2">
    <g id="ytick_1">
     <g id="line2d_10">
      <defs>
       <path id="m21aab19728" d="M 0 0 
L -3.5 0 
" style="stroke: #000000; stroke-width: 0.8"/>
      </defs>
      <g>
       <use xlink:href="#m21aab19728" x="108" y="307.8" style="stroke: #000000; stroke-width: 0.8"/>
      </g>
     </g>
     <g id="text_11">
      <!-- 0 -->
      <g transform="translate(94.6375 311.599219) scale(0.1 -0.1)">
       <use xlink:href="#DejaVuSans-30"/>
      </g>
     </g>
    </g>
    <g id="ytick_2">
     <g id="line2d_11">
      <g>
       <use xlink:href="#m21aab19728" x="108" y="269.848193" style="stroke: #000000; stroke-width: 0.8"/>
      </g>
     </g>
     <g id="text_12">
      <!-- 25 -->
      <g transform="translate(88.275 273.647412) scale(0.1 -0.1)">
       <use xlink:href="#DejaVuSans-32"/>
       <use xlink:href="#DejaVuSans-35" x="63.623047"/>
      </g>
     </g>
    </g>
    <g id="ytick_3">
     <g id="line2d_12">
      <g>
       <use xlink:href="#m21aab19728" x="108" y="231.896386" style="stroke: #000000; stroke-width: 0.8"/>
      </g>
     </g>
     <g id="text_13">
      <!-- 50 -->
      <g transform="translate(88.275 235.695604) scale(0.1 -0.1)">
       <use xlink:href="#DejaVuSans-35"/>
       <use xlink:href="#DejaVuSans-30" x="63.623047"/>
      </g>
     </g>
    </g>
    <g id="ytick_4">
     <g id="line2d_13">
      <g>
       <use xlink:href="#m21aab19728" x="108" y="193.944578" style="stroke: #000000; stroke-width: 0.8"/>
      </g>
     </g>
     <g id="text_14">
      <!-- 75 -->
      <g transform="translate(88.275 197.743797) scale(0.1 -0.1)">
       <use xlink:href="#DejaVuSans-37"/>
       <use xlink:href="#DejaVuSans-35" x="63.623047"/>
      </g>
     </g>
    </g>
    <g id="ytick_5">
     <g id="line2d_14">
      <g>
       <use xlink:href="#m21aab19728" x="108" y="155.992771" style="stroke: #000000; stroke-width: 0.8"/>
      </g>
     </g>
     <g id="text_15">
      <!-- 100 -->
      <g transform="translate(81.9125 159.79199) scale(0.1 -0.1)">
       <use xlink:href="#DejaVuSans-31"/>
       <use xlink:href="#DejaVuSans-30" x="63.623047"/>
       <use xlink:href="#DejaVuSans-30" x="127.246094"/>
      </g>
     </g>
    </g>
    <g id="ytick_6">
     <g id="line2d_15">
      <g>
       <use xlink:href="#m21aab19728" x="108" y="118.040964" style="stroke: #000000; stroke-width: 0.8"/>
      </g>
     </g>
     <g id="text_16">
      <!-- 125 -->
      <g transform="translate(81.9125 121.840183) scale(0.1 -0.1)">
       <use xlink:href="#DejaVuSans-31"/>
       <use xlink:href="#DejaVuSans-32" x="63.623047"/>
       <use xlink:href="#DejaVuSans-35" x="127.246094"/>
      </g>
     </g>
    </g>
    <g id="ytick_7">
     <g id="line2d_16">
      <g>
       <use xlink:href="#m21aab19728" x="108" y="80.089157" style="stroke: #000000; stroke-width: 0.8"/>
      </g>
     </g>
     <g id="text_17">
      <!-- 150 -->
      <g transform="translate(81.9125 83.888375) scale(0.1 -0.1)">
       <use xlink:href="#DejaVuSans-31"/>
       <use xlink:href="#DejaVuSans-35" x="63.623047"/>
       <use xlink:href="#DejaVuSans-30" x="127.246094"/>
      </g>
     </g>
    </g>
    <g id="text_18">
     <!-- AMPLITUDE -->
     <g transform="translate(75.832812 210.532812) rotate(-90) scale(0.1 -0.1)">
      <defs>
       <path id="DejaVuSans-50" d="M 1259 4147 
L 1259 2394 
L 2053 2394 
Q 2494 2394 2734 2622 
Q 2975 2850 2975 3272 
Q 2975 3691 2734 3919 
Q 2494 4147 2053 4147 
L 1259 4147 
z
M 628 4666 
L 2053 4666 
Q 2838 4666 3239 4311 
Q 3641 3956 3641 3272 
Q 3641 2581 3239 2228 
Q 2838 1875 2053 1875 
L 1259 1875 
L 1259 0 
L 628 0 
L 628 4666 
z
" transform="scale(0.015625)"/>
       <path id="DejaVuSans-4c" d="M 628 4666 
L 1259 4666 
L 1259 531 
L 3531 531 
L 3531 0 
L 628 0 
L 628 4666 
z
" transform="scale(0.015625)"/>
       <path id="DejaVuSans-55" d="M 556 4666 
L 1191 4666 
L 1191 1831 
Q 1191 1081 1462 751 
Q 1734 422 2344 422 
Q 2950 422 3222 751 
Q 3494 1081 3494 1831 
L 3494 4666 
L 4128 4666 
L 4128 1753 
Q 4128 841 3676 375 
Q 3225 -91 2344 -91 
Q 1459 -91 1007 375 
Q 556 841 556 1753 
L 556 4666 
z
" transform="scale(0.015625)"/>
      </defs>
      <use xlink:href="#DejaVuSans-41"/>
      <use xlink:href="#DejaVuSans-4d" x="68.408203"/>
      <use xlink:href="#DejaVuSans-50" x="154.6875"/>
      <use xlink:href="#DejaVuSans-4c" x="214.990234"/>
      <use xlink:href="#DejaVuSans-49" x="270.703125"/>
      <use xlink:href="#DejaVuSans-54" x="300.195312"/>
      <use xlink:href="#DejaVuSans-55" x="361.279297"/>
      <use xlink:href="#DejaVuSans-44" x="434.472656"/>
      <use xlink:href="#DejaVuSans-45" x="511.474609"/>
     </g>
    </g>
   </g>
   <g id="line2d_17">
    <path d="M 138.436364 201.53494 
L 139.230011 289.583133 
L 140.023658 303.245783 
L 140.817305 259.221687 
L 141.610952 307.8 
L 146.372834 307.8 
L 147.166481 303.245783 
L 147.960128 301.727711 
L 148.753775 286.546988 
L 149.547422 307.8 
L 150.341069 307.8 
L 151.134716 297.173494 
L 151.928363 285.028916 
L 152.72201 307.8 
L 153.515657 304.763855 
L 154.309304 269.848193 
L 155.102951 269.848193 
L 155.896598 295.655422 
L 156.690245 307.8 
L 157.483892 285.028916 
L 158.277539 160.546988 
L 159.071186 157.510843 
L 159.864833 157.510843 
L 160.658481 168.137349 
L 161.452128 101.342169 
L 162.245775 177.245783 
L 163.039422 77.053012 
L 163.833069 196.980723 
L 164.626716 145.366265 
L 165.420363 166.619277 
L 166.21401 209.125301 
L 167.007657 157.510843 
L 167.801304 195.462651 
L 168.594951 95.26988 
L 169.388598 207.607229 
L 170.182245 187.872289 
L 170.975892 105.896386 
L 171.769539 149.920482 
L 172.563186 130.185542 
L 173.356833 137.775904 
L 174.15048 162.06506 
L 174.944127 204.571084 
L 175.737774 228.860241 
L 176.531421 184.836145 
L 177.325068 307.8 
L 178.118715 253.149398 
L 178.912362 266.812048 
L 179.706009 307.8 
L 180.499656 289.583133 
L 181.293303 307.8 
L 182.08695 303.245783 
L 182.880597 307.8 
L 186.055185 307.8 
L 186.848833 306.281928 
L 187.64248 274.40241 
L 188.436127 307.8 
L 189.229774 271.366265 
L 190.023421 307.8 
L 190.817068 289.583133 
L 191.610715 251.631325 
L 192.404362 196.980723 
L 193.198009 307.8 
L 193.991656 307.8 
L 194.785303 277.438554 
L 195.57895 298.691566 
L 196.372597 63.390361 
L 197.166244 241.004819 
L 197.959891 162.06506 
L 198.753538 237.968675 
L 199.547185 142.33012 
L 200.340832 186.354217 
L 201.134479 187.872289 
L 201.928126 140.812048 
L 202.721773 183.318072 
L 203.51542 168.137349 
L 204.309067 163.583133 
L 205.102714 125.631325 
L 205.896361 187.872289 
L 206.690008 143.848193 
L 207.483655 130.185542 
L 208.277302 139.293976 
L 209.070949 99.824096 
L 210.658243 193.944578 
L 211.45189 125.631325 
L 212.245538 133.221687 
L 213.039185 192.426506 
L 213.832832 216.715663 
L 214.626479 131.703614 
L 215.420126 157.510843 
L 216.213773 307.8 
L 219.388361 307.8 
L 220.182008 285.028916 
L 220.975655 307.8 
L 221.769302 307.8 
L 222.562949 281.992771 
L 223.356596 275.920482 
L 224.150243 307.8 
L 224.94389 263.775904 
L 225.737537 291.101205 
L 226.531184 307.8 
L 227.324831 265.293976 
L 228.118478 307.8 
L 228.912125 242.522892 
L 229.705772 281.992771 
L 230.499419 262.257831 
L 231.293066 307.8 
L 232.086713 307.8 
L 232.88036 292.619277 
L 233.674007 307.8 
L 234.467654 307.8 
L 235.261301 192.426506 
L 236.054948 101.342169 
L 236.848595 155.992771 
L 237.642243 166.619277 
L 238.43589 116.522892 
L 239.229537 162.06506 
L 240.023184 160.546988 
L 240.816831 134.739759 
L 241.610478 204.571084 
L 242.404125 143.848193 
L 243.197772 102.860241 
L 243.991419 122.595181 
L 244.785066 181.8 
L 245.578713 127.149398 
L 247.166007 184.836145 
L 247.959654 115.004819 
L 248.753301 162.06506 
L 249.546948 137.775904 
L 250.340595 148.40241 
L 251.134242 151.438554 
L 251.927889 151.438554 
L 252.721536 172.691566 
L 253.515183 215.19759 
L 254.30883 307.8 
L 255.102477 303.245783 
L 255.896124 297.173494 
L 256.689771 263.775904 
L 257.483418 307.8 
L 258.277065 280.474699 
L 259.070712 307.8 
L 259.864359 307.8 
L 260.658006 300.209639 
L 261.451653 307.8 
L 263.038947 307.8 
L 263.832595 303.245783 
L 264.626242 274.40241 
L 265.419889 307.8 
L 266.213536 237.968675 
L 267.007183 277.438554 
L 267.80083 288.06506 
L 268.594477 251.631325 
L 269.388124 271.366265 
L 270.181771 307.8 
L 271.769065 307.8 
L 272.562712 291.101205 
L 273.356359 307.8 
L 274.150006 165.101205 
L 274.943653 111.968675 
L 275.7373 165.101205 
L 276.530947 168.137349 
L 277.324594 195.462651 
L 278.118241 148.40241 
L 278.911888 175.727711 
L 279.705535 102.860241 
L 280.499182 124.113253 
L 281.292829 174.209639 
L 282.086476 133.221687 
L 282.880123 207.607229 
L 284.467417 177.245783 
L 285.261064 107.414458 
L 286.054711 172.691566 
L 286.848358 152.956627 
L 287.642005 168.137349 
L 288.435652 108.93253 
L 289.2293 165.101205 
L 290.022947 168.137349 
L 290.816594 168.137349 
L 291.610241 113.486747 
L 292.403888 159.028916 
L 293.197535 301.727711 
L 293.991182 236.450602 
L 294.784829 304.763855 
L 295.578476 307.8 
L 296.372123 274.40241 
L 297.16577 297.173494 
L 297.959417 307.8 
L 298.753064 306.281928 
L 299.546711 307.8 
L 300.340358 292.619277 
L 301.134005 307.8 
L 301.927652 306.281928 
L 302.721299 288.06506 
L 303.514946 307.8 
L 304.308593 274.40241 
L 305.10224 307.8 
L 305.895887 262.257831 
L 306.689534 300.209639 
L 307.483181 295.655422 
L 308.276828 269.848193 
L 309.070475 275.920482 
L 309.864122 307.8 
L 310.657769 307.8 
L 311.451416 271.366265 
L 312.245063 134.739759 
L 313.03871 155.992771 
L 313.832357 200.016867 
L 314.626005 140.812048 
L 315.419652 177.245783 
L 316.213299 190.908434 
L 317.006946 165.101205 
L 317.800593 146.884337 
L 318.59424 209.125301 
L 319.387887 183.318072 
L 320.181534 222.787952 
L 321.768828 140.812048 
L 322.562475 190.908434 
L 323.356122 193.944578 
L 324.149769 142.33012 
L 324.943416 119.559036 
L 325.737063 130.185542 
L 326.53071 146.884337 
L 327.324357 184.836145 
L 328.911651 145.366265 
L 329.705298 139.293976 
L 330.498945 140.812048 
L 331.292592 72.498795 
L 332.086239 247.077108 
L 332.879886 248.595181 
L 333.673533 307.8 
L 334.46718 244.040964 
L 335.260827 268.33012 
L 336.054474 307.8 
L 336.848121 275.920482 
L 337.641768 306.281928 
L 338.435415 307.8 
L 339.229062 271.366265 
L 340.022709 262.257831 
L 340.816357 275.920482 
L 341.610004 307.8 
L 342.403651 304.763855 
L 343.197298 288.06506 
L 343.990945 266.812048 
L 344.784592 301.727711 
L 345.578239 253.149398 
L 346.371886 307.8 
L 347.165533 307.8 
L 347.95918 291.101205 
L 348.752827 307.8 
L 349.546474 307.8 
L 350.340121 263.775904 
L 351.133768 159.028916 
L 351.927415 136.257831 
L 352.721062 130.185542 
L 353.514709 165.101205 
L 354.308356 110.450602 
L 355.102003 157.510843 
L 355.89565 225.824096 
L 356.689297 133.221687 
L 357.482944 198.498795 
L 358.276591 166.619277 
L 359.070238 180.281928 
L 359.863885 160.546988 
L 360.657532 101.342169 
L 361.451179 210.643373 
L 362.244826 134.739759 
L 363.038473 159.028916 
L 363.83212 189.390361 
L 364.625767 84.643373 
L 365.419414 154.474699 
L 366.213062 166.619277 
L 367.006709 195.462651 
L 367.800356 78.571084 
L 368.594003 136.257831 
L 369.38765 128.66747 
L 370.181297 300.209639 
L 370.974944 263.775904 
L 371.768591 292.619277 
L 372.562238 307.8 
L 373.355885 259.221687 
L 374.149532 301.727711 
L 374.943179 306.281928 
L 375.736826 285.028916 
L 376.530473 307.8 
L 377.32412 268.33012 
L 378.117767 272.884337 
L 378.911414 307.8 
L 379.705061 251.631325 
L 380.498708 307.8 
L 384.466943 307.8 
L 385.26059 289.583133 
L 386.054237 307.8 
L 386.847884 285.028916 
L 387.641531 292.619277 
L 388.435178 292.619277 
L 389.228825 278.956627 
L 390.022472 162.06506 
L 391.609767 72.498795 
L 392.403414 139.293976 
L 393.197061 160.546988 
L 393.990708 171.173494 
L 394.784355 139.293976 
L 395.578002 140.812048 
L 396.371649 165.101205 
L 397.165296 111.968675 
L 397.958943 113.486747 
L 398.75259 104.378313 
L 399.546237 165.101205 
L 400.339884 148.40241 
L 401.133531 148.40241 
L 401.927178 201.53494 
L 402.720825 121.077108 
L 403.514472 108.93253 
L 404.308119 174.209639 
L 405.101766 189.390361 
L 405.895413 174.209639 
L 406.68906 151.438554 
L 407.482707 134.739759 
L 408.276354 209.125301 
L 409.863648 307.8 
L 411.450942 307.8 
L 412.244589 303.245783 
L 413.038236 280.474699 
L 413.831883 307.8 
L 414.62553 307.8 
L 415.419177 269.848193 
L 416.212824 307.8 
L 417.006471 307.8 
L 417.800119 288.06506 
L 418.593766 307.8 
L 420.18106 307.8 
L 420.974707 262.257831 
L 421.768354 257.703614 
L 422.562001 307.8 
L 424.149295 281.992771 
L 424.942942 285.028916 
L 425.736589 307.8 
L 427.323883 307.8 
L 428.11753 187.872289 
L 428.911177 180.281928 
L 429.704824 137.775904 
L 430.498471 178.763855 
L 431.292118 189.390361 
L 432.085765 192.426506 
L 432.879412 169.655422 
L 433.673059 165.101205 
L 434.466706 219.751807 
L 435.260353 175.727711 
L 436.054 151.438554 
L 436.847647 165.101205 
L 437.641294 98.306024 
L 438.434941 222.787952 
L 439.228588 142.33012 
L 440.022235 92.233735 
L 440.815882 140.812048 
L 441.609529 145.366265 
L 442.403176 172.691566 
L 443.196824 190.908434 
L 443.990471 152.956627 
L 444.784118 171.173494 
L 445.577765 127.149398 
L 446.371412 175.727711 
L 447.165059 183.318072 
L 447.958706 307.8 
L 448.752353 307.8 
L 449.546 304.763855 
L 450.339647 307.8 
L 451.926941 307.8 
L 452.720588 291.101205 
L 453.514235 307.8 
L 454.307882 269.848193 
L 455.101529 307.8 
L 459.069764 307.8 
L 459.863411 239.486747 
L 460.657058 307.8 
L 461.450705 307.8 
L 462.244352 263.775904 
L 463.037999 288.06506 
L 463.831646 307.8 
L 464.625293 303.245783 
L 465.41894 254.66747 
L 466.212587 253.149398 
L 467.006234 110.450602 
L 467.799881 200.016867 
L 468.593529 171.173494 
L 469.387176 113.486747 
L 470.180823 128.66747 
L 470.97447 163.583133 
L 471.768117 145.366265 
L 472.561764 187.872289 
L 473.355411 148.40241 
L 474.149058 142.33012 
L 474.942705 184.836145 
L 475.736352 146.884337 
L 476.529999 157.510843 
L 477.323646 116.522892 
L 478.117293 169.655422 
L 478.91094 168.137349 
L 479.704587 134.739759 
L 480.498234 143.848193 
L 481.291881 162.06506 
L 482.085528 159.028916 
L 482.879175 160.546988 
L 483.672822 219.751807 
L 484.466469 115.004819 
L 485.260116 107.414458 
L 486.053763 181.8 
L 486.84741 125.631325 
L 487.641057 307.8 
L 488.434704 306.281928 
L 489.228351 307.8 
L 490.021998 271.366265 
L 490.815645 307.8 
L 491.609292 301.727711 
L 492.402939 307.8 
L 493.990233 307.8 
L 494.783881 294.137349 
L 495.577528 307.8 
L 497.958469 307.8 
L 498.752116 288.06506 
L 499.545763 225.824096 
L 500.33941 278.956627 
L 501.133057 307.8 
L 501.926704 307.8 
L 502.720351 280.474699 
L 503.513998 307.8 
L 506.688586 307.8 
L 507.482233 180.281928 
L 508.27588 181.8 
L 509.069527 111.968675 
L 509.863174 118.040964 
L 510.656821 172.691566 
L 512.244115 134.739759 
L 513.037762 151.438554 
L 513.831409 55.8 
L 514.625056 162.06506 
L 515.418703 134.739759 
L 516.21235 212.161446 
L 517.005997 122.595181 
L 517.799644 110.450602 
L 518.593291 165.101205 
L 519.386938 146.884337 
L 520.180586 105.896386 
L 520.974233 118.040964 
L 521.76788 195.462651 
L 522.561527 169.655422 
L 524.148821 128.66747 
L 524.942468 146.884337 
L 525.736115 209.125301 
L 526.529762 139.293976 
L 527.323409 283.510843 
L 528.117056 307.8 
L 528.910703 307.8 
L 529.70435 300.209639 
L 530.497997 307.8 
L 531.291644 263.775904 
L 532.085291 307.8 
L 533.672585 307.8 
L 534.466232 250.113253 
L 535.259879 307.8 
L 536.847173 307.8 
L 537.64082 288.06506 
L 538.434467 257.703614 
L 539.228114 281.992771 
L 540.021761 300.209639 
L 540.815408 207.607229 
L 541.609055 307.8 
L 543.196349 307.8 
L 543.989996 278.956627 
L 544.783643 262.257831 
L 545.577291 307.8 
L 546.370938 307.8 
L 547.164585 121.077108 
L 547.958232 152.956627 
L 548.751879 189.390361 
L 549.545526 155.992771 
L 550.339173 155.992771 
L 551.13282 136.257831 
L 551.926467 140.812048 
L 552.720114 118.040964 
L 553.513761 157.510843 
L 554.307408 163.583133 
L 555.894702 207.607229 
L 556.688349 162.06506 
L 557.481996 165.101205 
L 558.275643 213.679518 
L 559.06929 128.66747 
L 559.862937 119.559036 
L 560.656584 155.992771 
L 561.450231 169.655422 
L 562.243878 168.137349 
L 563.037525 133.221687 
L 563.831172 177.245783 
L 564.624819 133.221687 
L 565.418466 200.016867 
L 566.212113 154.474699 
L 567.00576 159.028916 
L 567.799407 307.8 
L 568.593054 300.209639 
L 569.386701 272.884337 
L 570.180348 307.8 
L 571.767643 307.8 
L 572.56129 285.028916 
L 573.354937 307.8 
L 574.148584 295.655422 
L 574.942231 260.739759 
L 575.735878 307.8 
L 576.529525 300.209639 
L 577.323172 307.8 
L 578.116819 288.06506 
L 578.910466 307.8 
L 580.49776 307.8 
L 581.291407 300.209639 
L 582.085054 307.8 
L 582.878701 274.40241 
L 583.672348 295.655422 
L 584.465995 292.619277 
L 585.259642 307.8 
L 586.053289 275.920482 
L 586.846936 278.956627 
L 587.640583 163.583133 
L 588.43423 152.956627 
L 589.227877 101.342169 
L 590.021524 181.8 
L 590.815171 165.101205 
L 591.608818 107.414458 
L 592.402465 177.245783 
L 593.196112 139.293976 
L 593.989759 128.66747 
L 594.783406 83.125301 
L 595.577053 105.896386 
L 596.3707 177.245783 
L 597.164348 143.848193 
L 597.957995 139.293976 
L 598.751642 96.787952 
L 599.545289 142.33012 
L 600.338936 128.66747 
L 601.132583 168.137349 
L 601.92623 139.293976 
L 602.719877 172.691566 
L 603.513524 193.944578 
L 604.307171 160.546988 
L 605.100818 183.318072 
L 605.894465 137.775904 
L 606.688112 148.40241 
L 607.481759 307.8 
L 609.069053 307.8 
L 609.8627 268.33012 
L 610.656347 307.8 
L 611.449994 294.137349 
L 612.243641 251.631325 
L 613.037288 307.8 
L 617.79917 307.8 
L 618.592817 278.956627 
L 619.386464 277.438554 
L 620.180111 307.8 
L 623.3547 307.8 
L 624.941994 237.968675 
L 625.735641 307.8 
L 626.529288 307.8 
L 627.322935 95.26988 
L 628.116582 166.619277 
L 628.910229 149.920482 
L 629.703876 186.354217 
L 630.497523 163.583133 
L 631.29117 118.040964 
L 632.084817 119.559036 
L 632.878464 192.426506 
L 633.672111 186.354217 
L 634.465758 139.293976 
L 635.259405 162.06506 
L 636.053052 121.077108 
L 636.846699 137.775904 
L 637.640346 157.510843 
L 638.433993 212.161446 
L 639.22764 99.824096 
L 640.021287 154.474699 
L 640.814934 155.992771 
L 641.608581 193.944578 
L 642.402228 154.474699 
L 643.195875 122.595181 
L 643.989522 83.125301 
L 644.783169 177.245783 
L 645.576816 196.980723 
L 646.370463 155.992771 
L 647.16411 140.812048 
L 647.957757 272.884337 
L 648.751405 307.8 
L 649.545052 286.546988 
L 650.338699 274.40241 
L 651.132346 307.8 
L 655.100581 307.8 
L 655.894228 283.510843 
L 656.687875 307.8 
L 657.481522 230.378313 
L 658.275169 307.8 
L 659.068816 268.33012 
L 659.862463 307.8 
L 660.65611 307.8 
L 661.449757 301.727711 
L 662.243404 307.8 
L 663.037051 307.8 
L 663.830698 288.06506 
L 664.624345 307.8 
L 666.211639 304.763855 
L 667.005286 307.8 
L 667.798933 134.739759 
L 668.59258 136.257831 
L 669.386227 146.884337 
L 670.179874 137.775904 
L 670.973521 136.257831 
L 671.767168 206.089157 
L 672.560815 163.583133 
L 673.354462 237.968675 
L 674.14811 99.824096 
L 674.941757 171.173494 
L 675.735404 165.101205 
L 676.529051 157.510843 
L 677.322698 119.559036 
L 678.116345 192.426506 
L 678.909992 187.872289 
L 679.703639 187.872289 
L 680.497286 143.848193 
L 681.290933 159.028916 
L 682.08458 159.028916 
L 682.878227 190.908434 
L 683.671874 130.185542 
L 684.465521 159.028916 
L 685.259168 86.161446 
L 686.052815 119.559036 
L 686.846462 137.775904 
L 687.640109 307.8 
L 689.227403 307.8 
L 690.02105 254.66747 
L 690.814697 303.245783 
L 691.608344 288.06506 
L 692.401991 295.655422 
L 693.195638 307.8 
L 699.544815 307.8 
L 700.338462 254.66747 
L 701.132109 307.8 
L 702.719403 307.8 
L 703.51305 278.956627 
L 704.306697 303.245783 
L 705.100344 307.8 
L 706.687638 307.8 
L 707.481285 172.691566 
L 708.274932 180.281928 
L 709.068579 209.125301 
L 709.862226 93.751807 
L 710.655873 228.860241 
L 711.44952 102.860241 
L 712.243167 207.607229 
L 713.036814 149.920482 
L 713.830461 198.498795 
L 714.624108 127.149398 
L 715.417755 160.546988 
L 716.211402 143.848193 
L 717.005049 193.944578 
L 717.798696 172.691566 
L 718.592343 148.40241 
L 719.38599 115.004819 
L 720.179637 184.836145 
L 720.973284 122.595181 
L 721.766931 163.583133 
L 722.560578 118.040964 
L 723.354225 155.992771 
L 724.147872 171.173494 
L 724.941519 163.583133 
L 725.735167 181.8 
L 726.528814 125.631325 
L 727.322461 160.546988 
L 728.116108 307.8 
L 728.909755 306.281928 
L 729.703402 269.848193 
L 730.497049 307.8 
L 731.290696 269.848193 
L 732.084343 306.281928 
L 732.87799 307.8 
L 733.671637 289.583133 
L 734.465284 274.40241 
L 735.258931 307.8 
L 736.052578 219.751807 
L 736.846225 307.8 
L 737.639872 280.474699 
L 738.433519 289.583133 
L 739.227166 307.8 
L 740.020813 307.8 
L 740.81446 245.559036 
L 741.608107 291.101205 
L 742.401754 292.619277 
L 743.195401 265.293976 
L 743.989048 307.8 
L 744.782695 294.137349 
L 745.576342 307.8 
L 746.369989 307.8 
L 747.163636 303.245783 
L 747.163636 303.245783 
" clip-path="url(#p8eee947d80)" style="fill: none; stroke: #191970; stroke-width: 2; stroke-linecap: square"/>
   </g>
   <g id="patch_3">
    <path d="M 108 320.4 
L 108 43.2 
" style="fill: none; stroke: #000000; stroke-width: 0.8; stroke-linejoin: miter; stroke-linecap: square"/>
   </g>
   <g id="patch_4">
    <path d="M 777.6 320.4 
L 777.6 43.2 
" style="fill: none; stroke: #000000; stroke-width: 0.8; stroke-linejoin: miter; stroke-linecap: square"/>
   </g>
   <g id="patch_5">
    <path d="M 108 320.4 
L 777.6 320.4 
" style="fill: none; stroke: #000000; stroke-width: 0.8; stroke-linejoin: miter; stroke-linecap: square"/>
   </g>
   <g id="patch_6">
    <path d="M 108 43.2 
L 777.6 43.2 
" style="fill: none; stroke: #000000; stroke-width: 0.8; stroke-linejoin: miter; stroke-linecap: square"/>
   </g>
   <g id="text_19">
    <!-- TIME SERIES -->
    <g transform="translate(405.350625 37.2) scale(0.12 -0.12)">
     <defs>
      <path id="DejaVuSans-52" d="M 2841 2188 
Q 3044 2119 3236 1894 
Q 3428 1669 3622 1275 
L 4263 0 
L 3584 0 
L 2988 1197 
Q 2756 1666 2539 1819 
Q 2322 1972 1947 1972 
L 1259 1972 
L 1259 0 
L 628 0 
L 628 4666 
L 2053 4666 
Q 2853 4666 3247 4331 
Q 3641 3997 3641 3322 
Q 3641 2881 3436 2590 
Q 3231 2300 2841 2188 
z
M 1259 4147 
L 1259 2491 
L 2053 2491 
Q 2509 2491 2742 2702 
Q 2975 2913 2975 3322 
Q 2975 3731 2742 3939 
Q 2509 4147 2053 4147 
L 1259 4147 
z
" transform="scale(0.015625)"/>
     </defs>
     <use xlink:href="#DejaVuSans-54"/>
     <use xlink:href="#DejaVuSans-49" x="61.083984"/>
     <use xlink:href="#DejaVuSans-4d" x="90.576172"/>
     <use xlink:href="#DejaVuSans-45" x="176.855469"/>
     <use xlink:href="#DejaVuSans-20" x="240.039062"/>
     <use xlink:href="#DejaVuSans-53" x="271.826172"/>
     <use xlink:href="#DejaVuSans-45" x="335.302734"/>
     <use xlink:href="#DejaVuSans-52" x="398.486328"/>
     <use xlink:href="#DejaVuSans-49" x="467.96875"/>
     <use xlink:href="#DejaVuSans-45" x="497.460938"/>
     <use xlink:href="#DejaVuSans-53" x="560.644531"/>
    </g>
   </g>
  </g>
 </g>
 <defs>
  <clipPath id="p8eee947d80">
   <rect x="108" y="43.2" width="669.6" height="277.2"/>
  </clipPath>
 </defs>
</svg>
