<?xml version="1.0" encoding="utf-8" standalone="no"?>
<!DOCTYPE svg PUBLIC "-//W3C//DTD SVG 1.1//EN"
  "http://www.w3.org/Graphics/SVG/1.1/DTD/svg11.dtd">
<svg xmlns:xlink="http://www.w3.org/1999/xlink" width="850.32pt" height="141.12pt" viewBox="0 0 850.32 141.12" xmlns="http://www.w3.org/2000/svg" version="1.1">
 <metadata>
  <rdf:RDF xmlns:dc="http://purl.org/dc/elements/1.1/" xmlns:cc="http://creativecommons.org/ns#" xmlns:rdf="http://www.w3.org/1999/02/22-rdf-syntax-ns#">
   <cc:Work>
    <dc:type rdf:resource="http://purl.org/dc/dcmitype/StillImage"/>
    <dc:date>2023-08-03T16:31:57.613985</dc:date>
    <dc:format>image/svg+xml</dc:format>
    <dc:creator>
     <cc:Agent>
      <dc:title>Matplotlib v3.7.1, https://matplotlib.org/</dc:title>
     </cc:Agent>
    </dc:creator>
   </cc:Work>
  </rdf:RDF>
 </metadata>
 <defs>
  <style type="text/css">*{stroke-linejoin: round; stroke-linecap: butt}</style>
 </defs>
 <g id="figure_1">
  <g id="patch_1">
   <path d="M 0 141.12 
L 850.32 141.12 
L 850.32 0 
L 0 0 
z
" style="fill: #ffffff"/>
  </g>
  <g id="axes_1">
   <g id="patch_2">
    <path d="M 47.95 89.48 
L 436.577076 89.48 
L 436.577076 54.672 
L 47.95 54.672 
z
" style="fill: #ffffff"/>
   </g>
   <g id="patch_3">
    <path d="M 45.775863 86.579333 
L 50.124137 86.579333 
L 50.124137 69.083249 
L 45.775863 69.083249 
z
" clip-path="url(#pb853914b08)" style="fill: #696969"/>
   </g>
   <g id="patch_4">
    <path d="M 48.493534 86.579333 
L 52.841809 86.579333 
L 52.841809 80.478725 
L 48.493534 80.478725 
z
" clip-path="url(#pb853914b08)" style="fill: #696969"/>
   </g>
   <g id="patch_5">
    <path d="M 51.211206 86.579333 
L 55.559481 86.579333 
L 55.559481 86.579333 
L 51.211206 86.579333 
z
" clip-path="url(#pb853914b08)" style="fill: #696969"/>
   </g>
   <g id="patch_6">
    <path d="M 53.928878 86.579333 
L 58.277153 86.579333 
L 58.277153 77.255762 
L 53.928878 77.255762 
z
" clip-path="url(#pb853914b08)" style="fill: #696969"/>
   </g>
   <g id="patch_7">
    <path d="M 56.64655 86.579333 
L 60.994825 86.579333 
L 60.994825 80.593831 
L 56.64655 80.593831 
z
" clip-path="url(#pb853914b08)" style="fill: #696969"/>
   </g>
   <g id="patch_8">
    <path d="M 59.364222 86.579333 
L 63.712497 86.579333 
L 63.712497 81.744889 
L 59.364222 81.744889 
z
" clip-path="url(#pb853914b08)" style="fill: #696969"/>
   </g>
   <g id="patch_9">
    <path d="M 62.081894 86.579333 
L 66.430169 86.579333 
L 66.430169 83.586582 
L 62.081894 83.586582 
z
" clip-path="url(#pb853914b08)" style="fill: #696969"/>
   </g>
   <g id="patch_10">
    <path d="M 64.799566 86.579333 
L 69.14784 86.579333 
L 69.14784 79.327667 
L 64.799566 79.327667 
z
" clip-path="url(#pb853914b08)" style="fill: #696969"/>
   </g>
   <g id="patch_11">
    <path d="M 67.517237 86.579333 
L 71.865512 86.579333 
L 71.865512 81.399571 
L 67.517237 81.399571 
z
" clip-path="url(#pb853914b08)" style="fill: #696969"/>
   </g>
   <g id="patch_12">
    <path d="M 70.234909 86.579333 
L 74.583184 86.579333 
L 74.583184 82.780841 
L 70.234909 82.780841 
z
" clip-path="url(#pb853914b08)" style="fill: #696969"/>
   </g>
   <g id="patch_13">
    <path d="M 72.952581 86.579333 
L 77.300856 86.579333 
L 77.300856 77.716185 
L 72.952581 77.716185 
z
" clip-path="url(#pb853914b08)" style="fill: #696969"/>
   </g>
   <g id="patch_14">
    <path d="M 75.670253 86.579333 
L 80.018528 86.579333 
L 80.018528 82.320418 
L 75.670253 82.320418 
z
" clip-path="url(#pb853914b08)" style="fill: #696969"/>
   </g>
   <g id="patch_15">
    <path d="M 78.387925 86.579333 
L 82.7362 86.579333 
L 82.7362 86.579333 
L 78.387925 86.579333 
z
" clip-path="url(#pb853914b08)" style="fill: #696969"/>
   </g>
   <g id="patch_16">
    <path d="M 81.105597 86.579333 
L 85.453872 86.579333 
L 85.453872 86.579333 
L 81.105597 86.579333 
z
" clip-path="url(#pb853914b08)" style="fill: #696969"/>
   </g>
   <g id="patch_17">
    <path d="M 83.823269 86.579333 
L 88.171543 86.579333 
L 88.171543 85.313169 
L 83.823269 85.313169 
z
" clip-path="url(#pb853914b08)" style="fill: #696969"/>
   </g>
   <g id="patch_18">
    <path d="M 86.54094 86.579333 
L 90.889215 86.579333 
L 90.889215 86.579333 
L 86.54094 86.579333 
z
" clip-path="url(#pb853914b08)" style="fill: #696969"/>
   </g>
   <g id="patch_19">
    <path d="M 89.258612 86.579333 
L 93.606887 86.579333 
L 93.606887 80.824042 
L 89.258612 80.824042 
z
" clip-path="url(#pb853914b08)" style="fill: #696969"/>
   </g>
   <g id="patch_20">
    <path d="M 91.976284 86.579333 
L 96.324559 86.579333 
L 96.324559 86.579333 
L 91.976284 86.579333 
z
" clip-path="url(#pb853914b08)" style="fill: #696969"/>
   </g>
   <g id="patch_21">
    <path d="M 94.693956 86.579333 
L 99.042231 86.579333 
L 99.042231 86.579333 
L 94.693956 86.579333 
z
" clip-path="url(#pb853914b08)" style="fill: #696969"/>
   </g>
   <g id="patch_22">
    <path d="M 97.411628 86.579333 
L 101.759903 86.579333 
L 101.759903 86.579333 
L 97.411628 86.579333 
z
" clip-path="url(#pb853914b08)" style="fill: #696969"/>
   </g>
   <g id="patch_23">
    <path d="M 100.1293 86.579333 
L 104.477575 86.579333 
L 104.477575 86.579333 
L 100.1293 86.579333 
z
" clip-path="url(#pb853914b08)" style="fill: #696969"/>
   </g>
   <g id="patch_24">
    <path d="M 102.846972 86.579333 
L 107.195246 86.579333 
L 107.195246 78.40682 
L 102.846972 78.40682 
z
" clip-path="url(#pb853914b08)" style="fill: #696969"/>
   </g>
   <g id="patch_25">
    <path d="M 105.564643 86.579333 
L 109.912918 86.579333 
L 109.912918 78.637032 
L 105.564643 78.637032 
z
" clip-path="url(#pb853914b08)" style="fill: #696969"/>
   </g>
   <g id="patch_26">
    <path d="M 108.282315 86.579333 
L 112.63059 86.579333 
L 112.63059 77.370868 
L 108.282315 77.370868 
z
" clip-path="url(#pb853914b08)" style="fill: #696969"/>
   </g>
   <g id="patch_27">
    <path d="M 110.999987 86.579333 
L 115.348262 86.579333 
L 115.348262 75.874492 
L 110.999987 75.874492 
z
" clip-path="url(#pb853914b08)" style="fill: #696969"/>
   </g>
   <g id="patch_28">
    <path d="M 113.717659 86.579333 
L 118.065934 86.579333 
L 118.065934 67.471767 
L 113.717659 67.471767 
z
" clip-path="url(#pb853914b08)" style="fill: #696969"/>
   </g>
   <g id="patch_29">
    <path d="M 116.435331 86.579333 
L 120.783606 86.579333 
L 120.783606 83.816794 
L 116.435331 83.816794 
z
" clip-path="url(#pb853914b08)" style="fill: #696969"/>
   </g>
   <g id="patch_30">
    <path d="M 119.153003 86.579333 
L 123.501278 86.579333 
L 123.501278 68.047296 
L 119.153003 68.047296 
z
" clip-path="url(#pb853914b08)" style="fill: #696969"/>
   </g>
   <g id="patch_31">
    <path d="M 121.870675 86.579333 
L 126.21895 86.579333 
L 126.21895 86.579333 
L 121.870675 86.579333 
z
" clip-path="url(#pb853914b08)" style="fill: #696969"/>
   </g>
   <g id="patch_32">
    <path d="M 124.588346 86.579333 
L 128.936621 86.579333 
L 128.936621 76.450021 
L 124.588346 76.450021 
z
" clip-path="url(#pb853914b08)" style="fill: #696969"/>
   </g>
   <g id="patch_33">
    <path d="M 127.306018 86.579333 
L 131.654293 86.579333 
L 131.654293 75.759386 
L 127.306018 75.759386 
z
" clip-path="url(#pb853914b08)" style="fill: #696969"/>
   </g>
   <g id="patch_34">
    <path d="M 130.02369 86.579333 
L 134.371965 86.579333 
L 134.371965 70.234307 
L 130.02369 70.234307 
z
" clip-path="url(#pb853914b08)" style="fill: #696969"/>
   </g>
   <g id="patch_35">
    <path d="M 132.741362 86.579333 
L 137.089637 86.579333 
L 137.089637 72.766635 
L 132.741362 72.766635 
z
" clip-path="url(#pb853914b08)" style="fill: #696969"/>
   </g>
   <g id="patch_36">
    <path d="M 135.459034 86.579333 
L 139.807309 86.579333 
L 139.807309 66.320709 
L 135.459034 66.320709 
z
" clip-path="url(#pb853914b08)" style="fill: #696969"/>
   </g>
   <g id="patch_37">
    <path d="M 138.176706 86.579333 
L 142.524981 86.579333 
L 142.524981 80.248513 
L 138.176706 80.248513 
z
" clip-path="url(#pb853914b08)" style="fill: #696969"/>
   </g>
   <g id="patch_38">
    <path d="M 140.894378 86.579333 
L 145.242653 86.579333 
L 145.242653 74.032799 
L 140.894378 74.032799 
z
" clip-path="url(#pb853914b08)" style="fill: #696969"/>
   </g>
   <g id="patch_39">
    <path d="M 143.612049 86.579333 
L 147.960324 86.579333 
L 147.960324 75.759386 
L 143.612049 75.759386 
z
" clip-path="url(#pb853914b08)" style="fill: #696969"/>
   </g>
   <g id="patch_40">
    <path d="M 146.329721 86.579333 
L 150.677996 86.579333 
L 150.677996 84.507429 
L 146.329721 84.507429 
z
" clip-path="url(#pb853914b08)" style="fill: #696969"/>
   </g>
   <g id="patch_41">
    <path d="M 149.047393 86.579333 
L 153.395668 86.579333 
L 153.395668 83.126159 
L 149.047393 83.126159 
z
" clip-path="url(#pb853914b08)" style="fill: #696969"/>
   </g>
   <g id="patch_42">
    <path d="M 151.765065 86.579333 
L 156.11334 86.579333 
L 156.11334 74.378116 
L 151.765065 74.378116 
z
" clip-path="url(#pb853914b08)" style="fill: #696969"/>
   </g>
   <g id="patch_43">
    <path d="M 154.482737 86.579333 
L 158.831012 86.579333 
L 158.831012 77.02555 
L 154.482737 77.02555 
z
" clip-path="url(#pb853914b08)" style="fill: #696969"/>
   </g>
   <g id="patch_44">
    <path d="M 157.200409 86.579333 
L 161.548684 86.579333 
L 161.548684 71.845788 
L 157.200409 71.845788 
z
" clip-path="url(#pb853914b08)" style="fill: #696969"/>
   </g>
   <g id="patch_45">
    <path d="M 159.918081 86.579333 
L 164.266356 86.579333 
L 164.266356 82.665735 
L 159.918081 82.665735 
z
" clip-path="url(#pb853914b08)" style="fill: #696969"/>
   </g>
   <g id="patch_46">
    <path d="M 162.635752 86.579333 
L 166.984027 86.579333 
L 166.984027 81.744889 
L 162.635752 81.744889 
z
" clip-path="url(#pb853914b08)" style="fill: #696969"/>
   </g>
   <g id="patch_47">
    <path d="M 165.353424 86.579333 
L 169.701699 86.579333 
L 169.701699 82.090206 
L 165.353424 82.090206 
z
" clip-path="url(#pb853914b08)" style="fill: #696969"/>
   </g>
   <g id="patch_48">
    <path d="M 168.071096 86.579333 
L 172.419371 86.579333 
L 172.419371 81.514677 
L 168.071096 81.514677 
z
" clip-path="url(#pb853914b08)" style="fill: #696969"/>
   </g>
   <g id="patch_49">
    <path d="M 170.788768 86.579333 
L 175.137043 86.579333 
L 175.137043 81.975101 
L 170.788768 81.975101 
z
" clip-path="url(#pb853914b08)" style="fill: #696969"/>
   </g>
   <g id="patch_50">
    <path d="M 173.50644 86.579333 
L 177.854715 86.579333 
L 177.854715 86.579333 
L 173.50644 86.579333 
z
" clip-path="url(#pb853914b08)" style="fill: #696969"/>
   </g>
   <g id="patch_51">
    <path d="M 176.224112 86.579333 
L 180.572387 86.579333 
L 180.572387 73.917693 
L 176.224112 73.917693 
z
" clip-path="url(#pb853914b08)" style="fill: #696969"/>
   </g>
   <g id="patch_52">
    <path d="M 178.941784 86.579333 
L 183.290059 86.579333 
L 183.290059 80.708937 
L 178.941784 80.708937 
z
" clip-path="url(#pb853914b08)" style="fill: #696969"/>
   </g>
   <g id="patch_53">
    <path d="M 181.659455 86.579333 
L 186.00773 86.579333 
L 186.00773 74.147905 
L 181.659455 74.147905 
z
" clip-path="url(#pb853914b08)" style="fill: #696969"/>
   </g>
   <g id="patch_54">
    <path d="M 184.377127 86.579333 
L 188.725402 86.579333 
L 188.725402 81.975101 
L 184.377127 81.975101 
z
" clip-path="url(#pb853914b08)" style="fill: #696969"/>
   </g>
   <g id="patch_55">
    <path d="M 187.094799 86.579333 
L 191.443074 86.579333 
L 191.443074 85.198063 
L 187.094799 85.198063 
z
" clip-path="url(#pb853914b08)" style="fill: #696969"/>
   </g>
   <g id="patch_56">
    <path d="M 189.812471 86.579333 
L 194.160746 86.579333 
L 194.160746 82.665735 
L 189.812471 82.665735 
z
" clip-path="url(#pb853914b08)" style="fill: #696969"/>
   </g>
   <g id="patch_57">
    <path d="M 192.530143 86.579333 
L 196.878418 86.579333 
L 196.878418 73.572376 
L 192.530143 73.572376 
z
" clip-path="url(#pb853914b08)" style="fill: #696969"/>
   </g>
   <g id="patch_58">
    <path d="M 195.247815 86.579333 
L 199.59609 86.579333 
L 199.59609 86.579333 
L 195.247815 86.579333 
z
" clip-path="url(#pb853914b08)" style="fill: #696969"/>
   </g>
   <g id="patch_59">
    <path d="M 197.965487 86.579333 
L 202.313762 86.579333 
L 202.313762 79.327667 
L 197.965487 79.327667 
z
" clip-path="url(#pb853914b08)" style="fill: #696969"/>
   </g>
   <g id="patch_60">
    <path d="M 200.683158 86.579333 
L 205.031433 86.579333 
L 205.031433 86.579333 
L 200.683158 86.579333 
z
" clip-path="url(#pb853914b08)" style="fill: #696969"/>
   </g>
   <g id="patch_61">
    <path d="M 203.40083 86.579333 
L 207.749105 86.579333 
L 207.749105 86.579333 
L 203.40083 86.579333 
z
" clip-path="url(#pb853914b08)" style="fill: #696969"/>
   </g>
   <g id="patch_62">
    <path d="M 206.118502 86.579333 
L 210.466777 86.579333 
L 210.466777 86.579333 
L 206.118502 86.579333 
z
" clip-path="url(#pb853914b08)" style="fill: #696969"/>
   </g>
   <g id="patch_63">
    <path d="M 208.836174 86.579333 
L 213.184449 86.579333 
L 213.184449 86.579333 
L 208.836174 86.579333 
z
" clip-path="url(#pb853914b08)" style="fill: #696969"/>
   </g>
   <g id="patch_64">
    <path d="M 211.553846 86.579333 
L 215.902121 86.579333 
L 215.902121 82.895947 
L 211.553846 82.895947 
z
" clip-path="url(#pb853914b08)" style="fill: #696969"/>
   </g>
   <g id="patch_65">
    <path d="M 214.271518 86.579333 
L 218.619793 86.579333 
L 218.619793 86.579333 
L 214.271518 86.579333 
z
" clip-path="url(#pb853914b08)" style="fill: #696969"/>
   </g>
   <g id="patch_66">
    <path d="M 216.98919 86.579333 
L 221.337465 86.579333 
L 221.337465 86.579333 
L 216.98919 86.579333 
z
" clip-path="url(#pb853914b08)" style="fill: #696969"/>
   </g>
   <g id="patch_67">
    <path d="M 219.706861 86.579333 
L 224.055136 86.579333 
L 224.055136 74.378116 
L 219.706861 74.378116 
z
" clip-path="url(#pb853914b08)" style="fill: #696969"/>
   </g>
   <g id="patch_68">
    <path d="M 222.424533 86.579333 
L 226.772808 86.579333 
L 226.772808 84.047005 
L 222.424533 84.047005 
z
" clip-path="url(#pb853914b08)" style="fill: #696969"/>
   </g>
   <g id="patch_69">
    <path d="M 225.142205 86.579333 
L 229.49048 86.579333 
L 229.49048 77.946397 
L 225.142205 77.946397 
z
" clip-path="url(#pb853914b08)" style="fill: #696969"/>
   </g>
   <g id="patch_70">
    <path d="M 227.859877 86.579333 
L 232.208152 86.579333 
L 232.208152 83.816794 
L 227.859877 83.816794 
z
" clip-path="url(#pb853914b08)" style="fill: #696969"/>
   </g>
   <g id="patch_71">
    <path d="M 230.577549 86.579333 
L 234.925824 86.579333 
L 234.925824 78.752138 
L 230.577549 78.752138 
z
" clip-path="url(#pb853914b08)" style="fill: #696969"/>
   </g>
   <g id="patch_72">
    <path d="M 233.295221 86.579333 
L 237.643496 86.579333 
L 237.643496 86.579333 
L 233.295221 86.579333 
z
" clip-path="url(#pb853914b08)" style="fill: #696969"/>
   </g>
   <g id="patch_73">
    <path d="M 236.012893 86.579333 
L 240.361168 86.579333 
L 240.361168 82.780841 
L 236.012893 82.780841 
z
" clip-path="url(#pb853914b08)" style="fill: #696969"/>
   </g>
   <g id="patch_74">
    <path d="M 238.730564 86.579333 
L 243.078839 86.579333 
L 243.078839 86.579333 
L 238.730564 86.579333 
z
" clip-path="url(#pb853914b08)" style="fill: #696969"/>
   </g>
   <g id="patch_75">
    <path d="M 241.448236 86.579333 
L 245.796511 86.579333 
L 245.796511 69.083249 
L 241.448236 69.083249 
z
" clip-path="url(#pb853914b08)" style="fill: #696969"/>
   </g>
   <g id="patch_76">
    <path d="M 244.165908 86.579333 
L 248.514183 86.579333 
L 248.514183 74.032799 
L 244.165908 74.032799 
z
" clip-path="url(#pb853914b08)" style="fill: #696969"/>
   </g>
   <g id="patch_77">
    <path d="M 246.88358 86.579333 
L 251.231855 86.579333 
L 251.231855 74.953646 
L 246.88358 74.953646 
z
" clip-path="url(#pb853914b08)" style="fill: #696969"/>
   </g>
   <g id="patch_78">
    <path d="M 249.601252 86.579333 
L 253.949527 86.579333 
L 253.949527 84.73764 
L 249.601252 84.73764 
z
" clip-path="url(#pb853914b08)" style="fill: #696969"/>
   </g>
   <g id="patch_79">
    <path d="M 252.318924 86.579333 
L 256.667199 86.579333 
L 256.667199 68.277508 
L 252.318924 68.277508 
z
" clip-path="url(#pb853914b08)" style="fill: #696969"/>
   </g>
   <g id="patch_80">
    <path d="M 255.036596 86.579333 
L 259.384871 86.579333 
L 259.384871 77.946397 
L 255.036596 77.946397 
z
" clip-path="url(#pb853914b08)" style="fill: #696969"/>
   </g>
   <g id="patch_81">
    <path d="M 257.754267 86.579333 
L 262.102542 86.579333 
L 262.102542 71.155153 
L 257.754267 71.155153 
z
" clip-path="url(#pb853914b08)" style="fill: #696969"/>
   </g>
   <g id="patch_82">
    <path d="M 260.471939 86.579333 
L 264.820214 86.579333 
L 264.820214 86.579333 
L 260.471939 86.579333 
z
" clip-path="url(#pb853914b08)" style="fill: #696969"/>
   </g>
   <g id="patch_83">
    <path d="M 263.189611 86.579333 
L 267.537886 86.579333 
L 267.537886 76.21981 
L 263.189611 76.21981 
z
" clip-path="url(#pb853914b08)" style="fill: #696969"/>
   </g>
   <g id="patch_84">
    <path d="M 265.907283 86.579333 
L 270.255558 86.579333 
L 270.255558 67.011344 
L 265.907283 67.011344 
z
" clip-path="url(#pb853914b08)" style="fill: #696969"/>
   </g>
   <g id="patch_85">
    <path d="M 268.624955 86.579333 
L 272.97323 86.579333 
L 272.97323 73.572376 
L 268.624955 73.572376 
z
" clip-path="url(#pb853914b08)" style="fill: #696969"/>
   </g>
   <g id="patch_86">
    <path d="M 271.342627 86.579333 
L 275.690902 86.579333 
L 275.690902 77.946397 
L 271.342627 77.946397 
z
" clip-path="url(#pb853914b08)" style="fill: #696969"/>
   </g>
   <g id="patch_87">
    <path d="M 274.060299 86.579333 
L 278.408574 86.579333 
L 278.408574 81.054254 
L 274.060299 81.054254 
z
" clip-path="url(#pb853914b08)" style="fill: #696969"/>
   </g>
   <g id="patch_88">
    <path d="M 276.77797 86.579333 
L 281.126245 86.579333 
L 281.126245 68.50772 
L 276.77797 68.50772 
z
" clip-path="url(#pb853914b08)" style="fill: #696969"/>
   </g>
   <g id="patch_89">
    <path d="M 279.495642 86.579333 
L 283.843917 86.579333 
L 283.843917 72.651529 
L 279.495642 72.651529 
z
" clip-path="url(#pb853914b08)" style="fill: #696969"/>
   </g>
   <g id="patch_90">
    <path d="M 282.213314 86.579333 
L 286.561589 86.579333 
L 286.561589 70.234307 
L 282.213314 70.234307 
z
" clip-path="url(#pb853914b08)" style="fill: #696969"/>
   </g>
   <g id="patch_91">
    <path d="M 284.930986 86.579333 
L 289.279261 86.579333 
L 289.279261 80.824042 
L 284.930986 80.824042 
z
" clip-path="url(#pb853914b08)" style="fill: #696969"/>
   </g>
   <g id="patch_92">
    <path d="M 287.648658 86.579333 
L 291.996933 86.579333 
L 291.996933 83.701688 
L 287.648658 83.701688 
z
" clip-path="url(#pb853914b08)" style="fill: #696969"/>
   </g>
   <g id="patch_93">
    <path d="M 290.36633 86.579333 
L 294.714605 86.579333 
L 294.714605 86.579333 
L 290.36633 86.579333 
z
" clip-path="url(#pb853914b08)" style="fill: #696969"/>
   </g>
   <g id="patch_94">
    <path d="M 293.084002 86.579333 
L 297.432277 86.579333 
L 297.432277 80.939148 
L 293.084002 80.939148 
z
" clip-path="url(#pb853914b08)" style="fill: #696969"/>
   </g>
   <g id="patch_95">
    <path d="M 295.801673 86.579333 
L 300.149948 86.579333 
L 300.149948 86.579333 
L 295.801673 86.579333 
z
" clip-path="url(#pb853914b08)" style="fill: #696969"/>
   </g>
   <g id="patch_96">
    <path d="M 298.519345 86.579333 
L 302.86762 86.579333 
L 302.86762 85.773593 
L 298.519345 85.773593 
z
" clip-path="url(#pb853914b08)" style="fill: #696969"/>
   </g>
   <g id="patch_97">
    <path d="M 301.237017 86.579333 
L 305.585292 86.579333 
L 305.585292 86.579333 
L 301.237017 86.579333 
z
" clip-path="url(#pb853914b08)" style="fill: #696969"/>
   </g>
   <g id="patch_98">
    <path d="M 303.954689 86.579333 
L 308.302964 86.579333 
L 308.302964 81.399571 
L 303.954689 81.399571 
z
" clip-path="url(#pb853914b08)" style="fill: #696969"/>
   </g>
   <g id="patch_99">
    <path d="M 306.672361 86.579333 
L 311.020636 86.579333 
L 311.020636 76.910444 
L 306.672361 76.910444 
z
" clip-path="url(#pb853914b08)" style="fill: #696969"/>
   </g>
   <g id="patch_100">
    <path d="M 309.390033 86.579333 
L 313.738308 86.579333 
L 313.738308 86.579333 
L 309.390033 86.579333 
z
" clip-path="url(#pb853914b08)" style="fill: #696969"/>
   </g>
   <g id="patch_101">
    <path d="M 312.107705 86.579333 
L 316.45598 86.579333 
L 316.45598 70.464519 
L 312.107705 70.464519 
z
" clip-path="url(#pb853914b08)" style="fill: #696969"/>
   </g>
   <g id="patch_102">
    <path d="M 314.825376 86.579333 
L 319.173651 86.579333 
L 319.173651 79.903196 
L 314.825376 79.903196 
z
" clip-path="url(#pb853914b08)" style="fill: #696969"/>
   </g>
   <g id="patch_103">
    <path d="M 317.543048 86.579333 
L 321.891323 86.579333 
L 321.891323 76.334915 
L 317.543048 76.334915 
z
" clip-path="url(#pb853914b08)" style="fill: #696969"/>
   </g>
   <g id="patch_104">
    <path d="M 320.26072 86.579333 
L 324.608995 86.579333 
L 324.608995 75.64428 
L 320.26072 75.64428 
z
" clip-path="url(#pb853914b08)" style="fill: #696969"/>
   </g>
   <g id="patch_105">
    <path d="M 322.978392 86.579333 
L 327.326667 86.579333 
L 327.326667 86.579333 
L 322.978392 86.579333 
z
" clip-path="url(#pb853914b08)" style="fill: #696969"/>
   </g>
   <g id="patch_106">
    <path d="M 325.696064 86.579333 
L 330.044339 86.579333 
L 330.044339 86.579333 
L 325.696064 86.579333 
z
" clip-path="url(#pb853914b08)" style="fill: #696969"/>
   </g>
   <g id="patch_107">
    <path d="M 328.413736 86.579333 
L 332.762011 86.579333 
L 332.762011 83.011053 
L 328.413736 83.011053 
z
" clip-path="url(#pb853914b08)" style="fill: #696969"/>
   </g>
   <g id="patch_108">
    <path d="M 331.131408 86.579333 
L 335.479683 86.579333 
L 335.479683 86.579333 
L 331.131408 86.579333 
z
" clip-path="url(#pb853914b08)" style="fill: #696969"/>
   </g>
   <g id="patch_109">
    <path d="M 333.849079 86.579333 
L 338.197354 86.579333 
L 338.197354 86.579333 
L 333.849079 86.579333 
z
" clip-path="url(#pb853914b08)" style="fill: #696969"/>
   </g>
   <g id="patch_110">
    <path d="M 336.566751 86.579333 
L 340.915026 86.579333 
L 340.915026 86.579333 
L 336.566751 86.579333 
z
" clip-path="url(#pb853914b08)" style="fill: #696969"/>
   </g>
   <g id="patch_111">
    <path d="M 339.284423 86.579333 
L 343.632698 86.579333 
L 343.632698 86.579333 
L 339.284423 86.579333 
z
" clip-path="url(#pb853914b08)" style="fill: #696969"/>
   </g>
   <g id="patch_112">
    <path d="M 342.002095 86.579333 
L 346.35037 86.579333 
L 346.35037 79.672984 
L 342.002095 79.672984 
z
" clip-path="url(#pb853914b08)" style="fill: #696969"/>
   </g>
   <g id="patch_113">
    <path d="M 344.719767 86.579333 
L 349.068042 86.579333 
L 349.068042 80.363619 
L 344.719767 80.363619 
z
" clip-path="url(#pb853914b08)" style="fill: #696969"/>
   </g>
   <g id="patch_114">
    <path d="M 347.437439 86.579333 
L 351.785714 86.579333 
L 351.785714 79.442772 
L 347.437439 79.442772 
z
" clip-path="url(#pb853914b08)" style="fill: #696969"/>
   </g>
   <g id="patch_115">
    <path d="M 350.155111 86.579333 
L 354.503386 86.579333 
L 354.503386 84.392323 
L 350.155111 84.392323 
z
" clip-path="url(#pb853914b08)" style="fill: #696969"/>
   </g>
   <g id="patch_116">
    <path d="M 352.872782 86.579333 
L 357.221057 86.579333 
L 357.221057 82.320418 
L 352.872782 82.320418 
z
" clip-path="url(#pb853914b08)" style="fill: #696969"/>
   </g>
   <g id="patch_117">
    <path d="M 355.590454 86.579333 
L 359.938729 86.579333 
L 359.938729 74.83854 
L 355.590454 74.83854 
z
" clip-path="url(#pb853914b08)" style="fill: #696969"/>
   </g>
   <g id="patch_118">
    <path d="M 358.308126 86.579333 
L 362.656401 86.579333 
L 362.656401 86.579333 
L 358.308126 86.579333 
z
" clip-path="url(#pb853914b08)" style="fill: #696969"/>
   </g>
   <g id="patch_119">
    <path d="M 361.025798 86.579333 
L 365.374073 86.579333 
L 365.374073 78.637032 
L 361.025798 78.637032 
z
" clip-path="url(#pb853914b08)" style="fill: #696969"/>
   </g>
   <g id="patch_120">
    <path d="M 363.74347 86.579333 
L 368.091745 86.579333 
L 368.091745 75.298963 
L 363.74347 75.298963 
z
" clip-path="url(#pb853914b08)" style="fill: #696969"/>
   </g>
   <g id="patch_121">
    <path d="M 366.461142 86.579333 
L 370.809417 86.579333 
L 370.809417 75.64428 
L 366.461142 75.64428 
z
" clip-path="url(#pb853914b08)" style="fill: #696969"/>
   </g>
   <g id="patch_122">
    <path d="M 369.178814 86.579333 
L 373.527089 86.579333 
L 373.527089 69.543672 
L 369.178814 69.543672 
z
" clip-path="url(#pb853914b08)" style="fill: #696969"/>
   </g>
   <g id="patch_123">
    <path d="M 371.896485 86.579333 
L 376.24476 86.579333 
L 376.24476 86.003804 
L 371.896485 86.003804 
z
" clip-path="url(#pb853914b08)" style="fill: #696969"/>
   </g>
   <g id="patch_124">
    <path d="M 374.614157 86.579333 
L 378.962432 86.579333 
L 378.962432 79.557878 
L 374.614157 79.557878 
z
" clip-path="url(#pb853914b08)" style="fill: #696969"/>
   </g>
   <g id="patch_125">
    <path d="M 377.331829 86.579333 
L 381.680104 86.579333 
L 381.680104 57.572667 
L 377.331829 57.572667 
z
" clip-path="url(#pb853914b08)" style="fill: #696969"/>
   </g>
   <g id="patch_126">
    <path d="M 380.049501 86.579333 
L 384.397776 86.579333 
L 384.397776 72.306212 
L 380.049501 72.306212 
z
" clip-path="url(#pb853914b08)" style="fill: #696969"/>
   </g>
   <g id="patch_127">
    <path d="M 382.767173 86.579333 
L 387.115448 86.579333 
L 387.115448 69.658778 
L 382.767173 69.658778 
z
" clip-path="url(#pb853914b08)" style="fill: #696969"/>
   </g>
   <g id="patch_128">
    <path d="M 385.484845 86.579333 
L 389.83312 86.579333 
L 389.83312 84.047005 
L 385.484845 84.047005 
z
" clip-path="url(#pb853914b08)" style="fill: #696969"/>
   </g>
   <g id="patch_129">
    <path d="M 388.202517 86.579333 
L 392.550792 86.579333 
L 392.550792 81.16936 
L 388.202517 81.16936 
z
" clip-path="url(#pb853914b08)" style="fill: #696969"/>
   </g>
   <g id="patch_130">
    <path d="M 390.920188 86.579333 
L 395.268463 86.579333 
L 395.268463 60.910735 
L 390.920188 60.910735 
z
" clip-path="url(#pb853914b08)" style="fill: #696969"/>
   </g>
   <g id="patch_131">
    <path d="M 393.63786 86.579333 
L 397.986135 86.579333 
L 397.986135 70.579624 
L 393.63786 70.579624 
z
" clip-path="url(#pb853914b08)" style="fill: #696969"/>
   </g>
   <g id="patch_132">
    <path d="M 396.355532 86.579333 
L 400.703807 86.579333 
L 400.703807 78.291714 
L 396.355532 78.291714 
z
" clip-path="url(#pb853914b08)" style="fill: #696969"/>
   </g>
   <g id="patch_133">
    <path d="M 399.073204 86.579333 
L 403.421479 86.579333 
L 403.421479 72.191106 
L 399.073204 72.191106 
z
" clip-path="url(#pb853914b08)" style="fill: #696969"/>
   </g>
   <g id="patch_134">
    <path d="M 401.790876 86.579333 
L 406.139151 86.579333 
L 406.139151 73.111952 
L 401.790876 73.111952 
z
" clip-path="url(#pb853914b08)" style="fill: #696969"/>
   </g>
   <g id="patch_135">
    <path d="M 404.508548 86.579333 
L 408.856823 86.579333 
L 408.856823 77.831291 
L 404.508548 77.831291 
z
" clip-path="url(#pb853914b08)" style="fill: #696969"/>
   </g>
   <g id="patch_136">
    <path d="M 407.22622 86.579333 
L 411.574495 86.579333 
L 411.574495 83.241265 
L 407.22622 83.241265 
z
" clip-path="url(#pb853914b08)" style="fill: #696969"/>
   </g>
   <g id="patch_137">
    <path d="M 409.943891 86.579333 
L 414.292166 86.579333 
L 414.292166 78.521926 
L 409.943891 78.521926 
z
" clip-path="url(#pb853914b08)" style="fill: #696969"/>
   </g>
   <g id="patch_138">
    <path d="M 412.661563 86.579333 
L 417.009838 86.579333 
L 417.009838 73.687481 
L 412.661563 73.687481 
z
" clip-path="url(#pb853914b08)" style="fill: #696969"/>
   </g>
   <g id="patch_139">
    <path d="M 415.379235 86.579333 
L 419.72751 86.579333 
L 419.72751 84.162111 
L 415.379235 84.162111 
z
" clip-path="url(#pb853914b08)" style="fill: #696969"/>
   </g>
   <g id="patch_140">
    <path d="M 418.096907 86.579333 
L 422.445182 86.579333 
L 422.445182 86.579333 
L 418.096907 86.579333 
z
" clip-path="url(#pb853914b08)" style="fill: #696969"/>
   </g>
   <g id="patch_141">
    <path d="M 420.814579 86.579333 
L 425.162854 86.579333 
L 425.162854 86.579333 
L 420.814579 86.579333 
z
" clip-path="url(#pb853914b08)" style="fill: #696969"/>
   </g>
   <g id="patch_142">
    <path d="M 423.532251 86.579333 
L 427.880526 86.579333 
L 427.880526 74.378116 
L 423.532251 74.378116 
z
" clip-path="url(#pb853914b08)" style="fill: #696969"/>
   </g>
   <g id="patch_143">
    <path d="M 426.249923 86.579333 
L 430.598198 86.579333 
L 430.598198 85.543381 
L 426.249923 85.543381 
z
" clip-path="url(#pb853914b08)" style="fill: #696969"/>
   </g>
   <g id="patch_144">
    <path d="M 428.967594 86.579333 
L 433.315869 86.579333 
L 433.315869 84.852746 
L 428.967594 84.852746 
z
" clip-path="url(#pb853914b08)" style="fill: #696969"/>
   </g>
   <g id="patch_145">
    <path d="M 431.685266 86.579333 
L 436.033541 86.579333 
L 436.033541 86.579333 
L 431.685266 86.579333 
z
" clip-path="url(#pb853914b08)" style="fill: #696969"/>
   </g>
   <g id="patch_146">
    <path d="M 434.402938 86.579333 
L 438.751213 86.579333 
L 438.751213 86.11891 
L 434.402938 86.11891 
z
" clip-path="url(#pb853914b08)" style="fill: #696969"/>
   </g>
   <g id="matplotlib.axis_1">
    <g id="xtick_1">
     <g id="line2d_1">
      <defs>
       <path id="m33f0dafc52" d="M 0 0 
L 0 3.5 
" style="stroke: #000000; stroke-width: 0.8"/>
      </defs>
      <g>
       <use xlink:href="#m33f0dafc52" x="47.95" y="89.48" style="stroke: #000000; stroke-width: 0.8"/>
      </g>
     </g>
     <g id="text_1">
      <!-- 0 -->
      <g transform="translate(44.76875 104.078438) scale(0.1 -0.1)">
       <defs>
        <path id="DejaVuSans-30" d="M 2034 4250 
Q 1547 4250 1301 3770 
Q 1056 3291 1056 2328 
Q 1056 1369 1301 889 
Q 1547 409 2034 409 
Q 2525 409 2770 889 
Q 3016 1369 3016 2328 
Q 3016 3291 2770 3770 
Q 2525 4250 2034 4250 
z
M 2034 4750 
Q 2819 4750 3233 4129 
Q 3647 3509 3647 2328 
Q 3647 1150 3233 529 
Q 2819 -91 2034 -91 
Q 1250 -91 836 529 
Q 422 1150 422 2328 
Q 422 3509 836 4129 
Q 1250 4750 2034 4750 
z
" transform="scale(0.015625)"/>
       </defs>
       <use xlink:href="#DejaVuSans-30"/>
      </g>
     </g>
    </g>
    <g id="xtick_2">
     <g id="line2d_2">
      <g>
       <use xlink:href="#m33f0dafc52" x="102.303437" y="89.48" style="stroke: #000000; stroke-width: 0.8"/>
      </g>
     </g>
     <g id="text_2">
      <!-- 10 -->
      <g transform="translate(95.940937 104.078438) scale(0.1 -0.1)">
       <defs>
        <path id="DejaVuSans-31" d="M 794 531 
L 1825 531 
L 1825 4091 
L 703 3866 
L 703 4441 
L 1819 4666 
L 2450 4666 
L 2450 531 
L 3481 531 
L 3481 0 
L 794 0 
L 794 531 
z
" transform="scale(0.015625)"/>
       </defs>
       <use xlink:href="#DejaVuSans-31"/>
       <use xlink:href="#DejaVuSans-30" x="63.623047"/>
      </g>
     </g>
    </g>
    <g id="xtick_3">
     <g id="line2d_3">
      <g>
       <use xlink:href="#m33f0dafc52" x="156.656874" y="89.48" style="stroke: #000000; stroke-width: 0.8"/>
      </g>
     </g>
     <g id="text_3">
      <!-- 20 -->
      <g transform="translate(150.294374 104.078438) scale(0.1 -0.1)">
       <defs>
        <path id="DejaVuSans-32" d="M 1228 531 
L 3431 531 
L 3431 0 
L 469 0 
L 469 531 
Q 828 903 1448 1529 
Q 2069 2156 2228 2338 
Q 2531 2678 2651 2914 
Q 2772 3150 2772 3378 
Q 2772 3750 2511 3984 
Q 2250 4219 1831 4219 
Q 1534 4219 1204 4116 
Q 875 4013 500 3803 
L 500 4441 
Q 881 4594 1212 4672 
Q 1544 4750 1819 4750 
Q 2544 4750 2975 4387 
Q 3406 4025 3406 3419 
Q 3406 3131 3298 2873 
Q 3191 2616 2906 2266 
Q 2828 2175 2409 1742 
Q 1991 1309 1228 531 
z
" transform="scale(0.015625)"/>
       </defs>
       <use xlink:href="#DejaVuSans-32"/>
       <use xlink:href="#DejaVuSans-30" x="63.623047"/>
      </g>
     </g>
    </g>
    <g id="xtick_4">
     <g id="line2d_4">
      <g>
       <use xlink:href="#m33f0dafc52" x="211.010311" y="89.48" style="stroke: #000000; stroke-width: 0.8"/>
      </g>
     </g>
     <g id="text_4">
      <!-- 30 -->
      <g transform="translate(204.647811 104.078438) scale(0.1 -0.1)">
       <defs>
        <path id="DejaVuSans-33" d="M 2597 2516 
Q 3050 2419 3304 2112 
Q 3559 1806 3559 1356 
Q 3559 666 3084 287 
Q 2609 -91 1734 -91 
Q 1441 -91 1130 -33 
Q 819 25 488 141 
L 488 750 
Q 750 597 1062 519 
Q 1375 441 1716 441 
Q 2309 441 2620 675 
Q 2931 909 2931 1356 
Q 2931 1769 2642 2001 
Q 2353 2234 1838 2234 
L 1294 2234 
L 1294 2753 
L 1863 2753 
Q 2328 2753 2575 2939 
Q 2822 3125 2822 3475 
Q 2822 3834 2567 4026 
Q 2313 4219 1838 4219 
Q 1578 4219 1281 4162 
Q 984 4106 628 3988 
L 628 4550 
Q 988 4650 1302 4700 
Q 1616 4750 1894 4750 
Q 2613 4750 3031 4423 
Q 3450 4097 3450 3541 
Q 3450 3153 3228 2886 
Q 3006 2619 2597 2516 
z
" transform="scale(0.015625)"/>
       </defs>
       <use xlink:href="#DejaVuSans-33"/>
       <use xlink:href="#DejaVuSans-30" x="63.623047"/>
      </g>
     </g>
    </g>
    <g id="xtick_5">
     <g id="line2d_5">
      <g>
       <use xlink:href="#m33f0dafc52" x="265.363749" y="89.48" style="stroke: #000000; stroke-width: 0.8"/>
      </g>
     </g>
     <g id="text_5">
      <!-- 40 -->
      <g transform="translate(259.001249 104.078438) scale(0.1 -0.1)">
       <defs>
        <path id="DejaVuSans-34" d="M 2419 4116 
L 825 1625 
L 2419 1625 
L 2419 4116 
z
M 2253 4666 
L 3047 4666 
L 3047 1625 
L 3713 1625 
L 3713 1100 
L 3047 1100 
L 3047 0 
L 2419 0 
L 2419 1100 
L 313 1100 
L 313 1709 
L 2253 4666 
z
" transform="scale(0.015625)"/>
       </defs>
       <use xlink:href="#DejaVuSans-34"/>
       <use xlink:href="#DejaVuSans-30" x="63.623047"/>
      </g>
     </g>
    </g>
    <g id="xtick_6">
     <g id="line2d_6">
      <g>
       <use xlink:href="#m33f0dafc52" x="319.717186" y="89.48" style="stroke: #000000; stroke-width: 0.8"/>
      </g>
     </g>
     <g id="text_6">
      <!-- 50 -->
      <g transform="translate(313.354686 104.078438) scale(0.1 -0.1)">
       <defs>
        <path id="DejaVuSans-35" d="M 691 4666 
L 3169 4666 
L 3169 4134 
L 1269 4134 
L 1269 2991 
Q 1406 3038 1543 3061 
Q 1681 3084 1819 3084 
Q 2600 3084 3056 2656 
Q 3513 2228 3513 1497 
Q 3513 744 3044 326 
Q 2575 -91 1722 -91 
Q 1428 -91 1123 -41 
Q 819 9 494 109 
L 494 744 
Q 775 591 1075 516 
Q 1375 441 1709 441 
Q 2250 441 2565 725 
Q 2881 1009 2881 1497 
Q 2881 1984 2565 2268 
Q 2250 2553 1709 2553 
Q 1456 2553 1204 2497 
Q 953 2441 691 2322 
L 691 4666 
z
" transform="scale(0.015625)"/>
       </defs>
       <use xlink:href="#DejaVuSans-35"/>
       <use xlink:href="#DejaVuSans-30" x="63.623047"/>
      </g>
     </g>
    </g>
    <g id="xtick_7">
     <g id="line2d_7">
      <g>
       <use xlink:href="#m33f0dafc52" x="374.070623" y="89.48" style="stroke: #000000; stroke-width: 0.8"/>
      </g>
     </g>
     <g id="text_7">
      <!-- 60 -->
      <g transform="translate(367.708123 104.078438) scale(0.1 -0.1)">
       <defs>
        <path id="DejaVuSans-36" d="M 2113 2584 
Q 1688 2584 1439 2293 
Q 1191 2003 1191 1497 
Q 1191 994 1439 701 
Q 1688 409 2113 409 
Q 2538 409 2786 701 
Q 3034 994 3034 1497 
Q 3034 2003 2786 2293 
Q 2538 2584 2113 2584 
z
M 3366 4563 
L 3366 3988 
Q 3128 4100 2886 4159 
Q 2644 4219 2406 4219 
Q 1781 4219 1451 3797 
Q 1122 3375 1075 2522 
Q 1259 2794 1537 2939 
Q 1816 3084 2150 3084 
Q 2853 3084 3261 2657 
Q 3669 2231 3669 1497 
Q 3669 778 3244 343 
Q 2819 -91 2113 -91 
Q 1303 -91 875 529 
Q 447 1150 447 2328 
Q 447 3434 972 4092 
Q 1497 4750 2381 4750 
Q 2619 4750 2861 4703 
Q 3103 4656 3366 4563 
z
" transform="scale(0.015625)"/>
       </defs>
       <use xlink:href="#DejaVuSans-36"/>
       <use xlink:href="#DejaVuSans-30" x="63.623047"/>
      </g>
     </g>
    </g>
    <g id="xtick_8">
     <g id="line2d_8">
      <g>
       <use xlink:href="#m33f0dafc52" x="428.42406" y="89.48" style="stroke: #000000; stroke-width: 0.8"/>
      </g>
     </g>
     <g id="text_8">
      <!-- 70 -->
      <g transform="translate(422.06156 104.078438) scale(0.1 -0.1)">
       <defs>
        <path id="DejaVuSans-37" d="M 525 4666 
L 3525 4666 
L 3525 4397 
L 1831 0 
L 1172 0 
L 2766 4134 
L 525 4134 
L 525 4666 
z
" transform="scale(0.015625)"/>
       </defs>
       <use xlink:href="#DejaVuSans-37"/>
       <use xlink:href="#DejaVuSans-30" x="63.623047"/>
      </g>
     </g>
    </g>
   </g>
   <g id="matplotlib.axis_2">
    <g id="ytick_1">
     <g id="line2d_9">
      <defs>
       <path id="m0b1e6c3aeb" d="M 0 0 
L -3.5 0 
" style="stroke: #000000; stroke-width: 0.8"/>
      </defs>
      <g>
       <use xlink:href="#m0b1e6c3aeb" x="47.95" y="86.579333" style="stroke: #000000; stroke-width: 0.8"/>
      </g>
     </g>
     <g id="text_9">
      <!-- 0.0 -->
      <g transform="translate(25.046875 90.378552) scale(0.1 -0.1)">
       <defs>
        <path id="DejaVuSans-2e" d="M 684 794 
L 1344 794 
L 1344 0 
L 684 0 
L 684 794 
z
" transform="scale(0.015625)"/>
       </defs>
       <use xlink:href="#DejaVuSans-30"/>
       <use xlink:href="#DejaVuSans-2e" x="63.623047"/>
       <use xlink:href="#DejaVuSans-30" x="95.410156"/>
      </g>
     </g>
    </g>
    <g id="ytick_2">
     <g id="line2d_10">
      <g>
       <use xlink:href="#m0b1e6c3aeb" x="47.95" y="57.802878" style="stroke: #000000; stroke-width: 0.8"/>
      </g>
     </g>
     <g id="text_10">
      <!-- 2.5 -->
      <g transform="translate(25.046875 61.602097) scale(0.1 -0.1)">
       <use xlink:href="#DejaVuSans-32"/>
       <use xlink:href="#DejaVuSans-2e" x="63.623047"/>
       <use xlink:href="#DejaVuSans-35" x="95.410156"/>
      </g>
     </g>
    </g>
    <g id="text_11">
     <!-- 1e2 -->
     <g transform="translate(47.95 51.672) scale(0.1 -0.1)">
      <defs>
       <path id="DejaVuSans-65" d="M 3597 1894 
L 3597 1613 
L 953 1613 
Q 991 1019 1311 708 
Q 1631 397 2203 397 
Q 2534 397 2845 478 
Q 3156 559 3463 722 
L 3463 178 
Q 3153 47 2828 -22 
Q 2503 -91 2169 -91 
Q 1331 -91 842 396 
Q 353 884 353 1716 
Q 353 2575 817 3079 
Q 1281 3584 2069 3584 
Q 2775 3584 3186 3129 
Q 3597 2675 3597 1894 
z
M 3022 2063 
Q 3016 2534 2758 2815 
Q 2500 3097 2075 3097 
Q 1594 3097 1305 2825 
Q 1016 2553 972 2059 
L 3022 2063 
z
" transform="scale(0.015625)"/>
      </defs>
      <use xlink:href="#DejaVuSans-31"/>
      <use xlink:href="#DejaVuSans-65" x="63.623047"/>
      <use xlink:href="#DejaVuSans-32" x="125.146484"/>
     </g>
    </g>
   </g>
   <g id="line2d_11">
    <path d="M 47.95 78.524481 
L 61.538359 81.745081 
L 66.973703 82.824358 
L 72.409047 83.649489 
L 77.84439 84.155402 
L 83.279734 84.302199 
L 88.715078 84.078304 
L 94.150422 83.501373 
L 99.585765 82.616905 
L 105.021109 81.494653 
L 115.891796 78.902584 
L 124.044812 77.056741 
L 129.480156 76.057632 
L 134.915499 75.338023 
L 140.350843 74.954667 
L 145.786187 74.937795 
L 151.221531 75.288739 
L 156.656874 75.979821 
L 162.092218 76.95654 
L 170.245234 78.783999 
L 183.833593 81.977421 
L 189.268937 83.012124 
L 194.70428 83.777874 
L 200.139624 84.214281 
L 205.574968 84.28693 
L 211.010311 83.990089 
L 216.445655 83.34717 
L 221.880999 82.408875 
L 227.316343 81.249201 
L 246.340046 76.838069 
L 251.775389 75.889182 
L 257.210733 75.233081 
L 262.646077 74.921507 
L 268.08142 74.979034 
L 273.516764 75.401123 
L 278.952108 76.154488 
L 284.387452 77.179715 
L 292.540467 79.046114 
L 303.411155 81.626313 
L 308.846498 82.726599 
L 314.281842 83.58045 
L 319.717186 84.120527 
L 325.152529 84.30424 
L 330.587873 84.117098 
L 336.023217 83.573861 
L 341.458561 82.717371 
L 346.893904 81.615173 
L 355.04692 79.694952 
L 363.199935 77.75833 
L 368.635279 76.628171 
L 374.070623 75.732519 
L 379.505967 75.142008 
L 384.94131 74.903206 
L 390.376654 75.034948 
L 395.811998 75.526843 
L 401.247342 76.340099 
L 406.682685 77.41058 
L 414.835701 79.309992 
L 425.706388 81.862148 
L 431.141732 82.919558 
L 436.577076 83.715314 
L 436.577076 83.715314 
" clip-path="url(#pb853914b08)" style="fill: none; stroke: #191970; stroke-width: 3; stroke-linecap: square"/>
   </g>
   <g id="line2d_12">
    <path d="M 143.314983 89.48 
L 143.314983 54.672 
" clip-path="url(#pb853914b08)" style="fill: none; stroke-dasharray: 7.4,3.2; stroke-dashoffset: 0; stroke: #000000; stroke-opacity: 0.8; stroke-width: 2"/>
   </g>
   <g id="patch_147">
    <path d="M 47.95 89.48 
L 47.95 54.672 
" style="fill: none; stroke: #000000; stroke-width: 0.8; stroke-linejoin: miter; stroke-linecap: square"/>
   </g>
   <g id="patch_148">
    <path d="M 47.95 89.48 
L 436.577076 89.48 
" style="fill: none; stroke: #000000; stroke-width: 0.8; stroke-linejoin: miter; stroke-linecap: square"/>
   </g>
   <g id="text_12">
    <!-- 1 -->
    <g transform="translate(239.718538 39.71375) scale(0.08 -0.08)">
     <use xlink:href="#DejaVuSans-31"/>
    </g>
    <!-- (AC: 17.55, PR: 22.3) -->
    <g transform="translate(200.479163 48.672) scale(0.08 -0.08)">
     <defs>
      <path id="DejaVuSans-28" d="M 1984 4856 
Q 1566 4138 1362 3434 
Q 1159 2731 1159 2009 
Q 1159 1288 1364 580 
Q 1569 -128 1984 -844 
L 1484 -844 
Q 1016 -109 783 600 
Q 550 1309 550 2009 
Q 550 2706 781 3412 
Q 1013 4119 1484 4856 
L 1984 4856 
z
" transform="scale(0.015625)"/>
      <path id="DejaVuSans-41" d="M 2188 4044 
L 1331 1722 
L 3047 1722 
L 2188 4044 
z
M 1831 4666 
L 2547 4666 
L 4325 0 
L 3669 0 
L 3244 1197 
L 1141 1197 
L 716 0 
L 50 0 
L 1831 4666 
z
" transform="scale(0.015625)"/>
      <path id="DejaVuSans-43" d="M 4122 4306 
L 4122 3641 
Q 3803 3938 3442 4084 
Q 3081 4231 2675 4231 
Q 1875 4231 1450 3742 
Q 1025 3253 1025 2328 
Q 1025 1406 1450 917 
Q 1875 428 2675 428 
Q 3081 428 3442 575 
Q 3803 722 4122 1019 
L 4122 359 
Q 3791 134 3420 21 
Q 3050 -91 2638 -91 
Q 1578 -91 968 557 
Q 359 1206 359 2328 
Q 359 3453 968 4101 
Q 1578 4750 2638 4750 
Q 3056 4750 3426 4639 
Q 3797 4528 4122 4306 
z
" transform="scale(0.015625)"/>
      <path id="DejaVuSans-3a" d="M 750 794 
L 1409 794 
L 1409 0 
L 750 0 
L 750 794 
z
M 750 3309 
L 1409 3309 
L 1409 2516 
L 750 2516 
L 750 3309 
z
" transform="scale(0.015625)"/>
      <path id="DejaVuSans-20" transform="scale(0.015625)"/>
      <path id="DejaVuSans-2c" d="M 750 794 
L 1409 794 
L 1409 256 
L 897 -744 
L 494 -744 
L 750 256 
L 750 794 
z
" transform="scale(0.015625)"/>
      <path id="DejaVuSans-50" d="M 1259 4147 
L 1259 2394 
L 2053 2394 
Q 2494 2394 2734 2622 
Q 2975 2850 2975 3272 
Q 2975 3691 2734 3919 
Q 2494 4147 2053 4147 
L 1259 4147 
z
M 628 4666 
L 2053 4666 
Q 2838 4666 3239 4311 
Q 3641 3956 3641 3272 
Q 3641 2581 3239 2228 
Q 2838 1875 2053 1875 
L 1259 1875 
L 1259 0 
L 628 0 
L 628 4666 
z
" transform="scale(0.015625)"/>
      <path id="DejaVuSans-52" d="M 2841 2188 
Q 3044 2119 3236 1894 
Q 3428 1669 3622 1275 
L 4263 0 
L 3584 0 
L 2988 1197 
Q 2756 1666 2539 1819 
Q 2322 1972 1947 1972 
L 1259 1972 
L 1259 0 
L 628 0 
L 628 4666 
L 2053 4666 
Q 2853 4666 3247 4331 
Q 3641 3997 3641 3322 
Q 3641 2881 3436 2590 
Q 3231 2300 2841 2188 
z
M 1259 4147 
L 1259 2491 
L 2053 2491 
Q 2509 2491 2742 2702 
Q 2975 2913 2975 3322 
Q 2975 3731 2742 3939 
Q 2509 4147 2053 4147 
L 1259 4147 
z
" transform="scale(0.015625)"/>
      <path id="DejaVuSans-29" d="M 513 4856 
L 1013 4856 
Q 1481 4119 1714 3412 
Q 1947 2706 1947 2009 
Q 1947 1309 1714 600 
Q 1481 -109 1013 -844 
L 513 -844 
Q 928 -128 1133 580 
Q 1338 1288 1338 2009 
Q 1338 2731 1133 3434 
Q 928 4138 513 4856 
z
" transform="scale(0.015625)"/>
     </defs>
     <use xlink:href="#DejaVuSans-28"/>
     <use xlink:href="#DejaVuSans-41" x="39.013672"/>
     <use xlink:href="#DejaVuSans-43" x="105.671875"/>
     <use xlink:href="#DejaVuSans-3a" x="175.496094"/>
     <use xlink:href="#DejaVuSans-20" x="209.1875"/>
     <use xlink:href="#DejaVuSans-31" x="240.974609"/>
     <use xlink:href="#DejaVuSans-37" x="304.597656"/>
     <use xlink:href="#DejaVuSans-2e" x="368.220703"/>
     <use xlink:href="#DejaVuSans-35" x="400.007812"/>
     <use xlink:href="#DejaVuSans-35" x="463.630859"/>
     <use xlink:href="#DejaVuSans-2c" x="527.253906"/>
     <use xlink:href="#DejaVuSans-20" x="559.041016"/>
     <use xlink:href="#DejaVuSans-50" x="590.828125"/>
     <use xlink:href="#DejaVuSans-52" x="651.130859"/>
     <use xlink:href="#DejaVuSans-3a" x="717.488281"/>
     <use xlink:href="#DejaVuSans-20" x="751.179688"/>
     <use xlink:href="#DejaVuSans-32" x="782.966797"/>
     <use xlink:href="#DejaVuSans-32" x="846.589844"/>
     <use xlink:href="#DejaVuSans-2e" x="910.212891"/>
     <use xlink:href="#DejaVuSans-33" x="942"/>
     <use xlink:href="#DejaVuSans-29" x="1005.623047"/>
    </g>
   </g>
  </g>
  <g id="axes_2">
   <g id="patch_149">
    <path d="M 450.892924 89.48 
L 839.52 89.48 
L 839.52 54.672 
L 450.892924 54.672 
z
" style="fill: #ffffff"/>
   </g>
   <g id="patch_150">
    <path d="M 448.718787 86.579333 
L 453.067062 86.579333 
L 453.067062 81.744889 
L 448.718787 81.744889 
z
" clip-path="url(#p73ef7aa72d)" style="fill: #696969"/>
   </g>
   <g id="patch_151">
    <path d="M 451.436459 86.579333 
L 455.784734 86.579333 
L 455.784734 83.35637 
L 451.436459 83.35637 
z
" clip-path="url(#p73ef7aa72d)" style="fill: #696969"/>
   </g>
   <g id="patch_152">
    <path d="M 454.154131 86.579333 
L 458.502406 86.579333 
L 458.502406 86.579333 
L 454.154131 86.579333 
z
" clip-path="url(#p73ef7aa72d)" style="fill: #696969"/>
   </g>
   <g id="patch_153">
    <path d="M 456.871802 86.579333 
L 461.220077 86.579333 
L 461.220077 86.579333 
L 456.871802 86.579333 
z
" clip-path="url(#p73ef7aa72d)" style="fill: #696969"/>
   </g>
   <g id="patch_154">
    <path d="M 459.589474 86.579333 
L 463.937749 86.579333 
L 463.937749 86.579333 
L 459.589474 86.579333 
z
" clip-path="url(#p73ef7aa72d)" style="fill: #696969"/>
   </g>
   <g id="patch_155">
    <path d="M 462.307146 86.579333 
L 466.655421 86.579333 
L 466.655421 81.975101 
L 462.307146 81.975101 
z
" clip-path="url(#p73ef7aa72d)" style="fill: #696969"/>
   </g>
   <g id="patch_156">
    <path d="M 465.024818 86.579333 
L 469.373093 86.579333 
L 469.373093 86.579333 
L 465.024818 86.579333 
z
" clip-path="url(#p73ef7aa72d)" style="fill: #696969"/>
   </g>
   <g id="patch_157">
    <path d="M 467.74249 86.579333 
L 472.090765 86.579333 
L 472.090765 86.579333 
L 467.74249 86.579333 
z
" clip-path="url(#p73ef7aa72d)" style="fill: #696969"/>
   </g>
   <g id="patch_158">
    <path d="M 470.460162 86.579333 
L 474.808437 86.579333 
L 474.808437 69.888989 
L 470.460162 69.888989 
z
" clip-path="url(#p73ef7aa72d)" style="fill: #696969"/>
   </g>
   <g id="patch_159">
    <path d="M 473.177834 86.579333 
L 477.526109 86.579333 
L 477.526109 79.327667 
L 473.177834 79.327667 
z
" clip-path="url(#p73ef7aa72d)" style="fill: #696969"/>
   </g>
   <g id="patch_160">
    <path d="M 475.895505 86.579333 
L 480.24378 86.579333 
L 480.24378 72.536423 
L 475.895505 72.536423 
z
" clip-path="url(#p73ef7aa72d)" style="fill: #696969"/>
   </g>
   <g id="patch_161">
    <path d="M 478.613177 86.579333 
L 482.961452 86.579333 
L 482.961452 84.047005 
L 478.613177 84.047005 
z
" clip-path="url(#p73ef7aa72d)" style="fill: #696969"/>
   </g>
   <g id="patch_162">
    <path d="M 481.330849 86.579333 
L 485.679124 86.579333 
L 485.679124 82.205312 
L 481.330849 82.205312 
z
" clip-path="url(#p73ef7aa72d)" style="fill: #696969"/>
   </g>
   <g id="patch_163">
    <path d="M 484.048521 86.579333 
L 488.396796 86.579333 
L 488.396796 75.64428 
L 484.048521 75.64428 
z
" clip-path="url(#p73ef7aa72d)" style="fill: #696969"/>
   </g>
   <g id="patch_164">
    <path d="M 486.766193 86.579333 
L 491.114468 86.579333 
L 491.114468 86.349122 
L 486.766193 86.349122 
z
" clip-path="url(#p73ef7aa72d)" style="fill: #696969"/>
   </g>
   <g id="patch_165">
    <path d="M 489.483865 86.579333 
L 493.83214 86.579333 
L 493.83214 77.370868 
L 489.483865 77.370868 
z
" clip-path="url(#p73ef7aa72d)" style="fill: #696969"/>
   </g>
   <g id="patch_166">
    <path d="M 492.201537 86.579333 
L 496.549812 86.579333 
L 496.549812 86.579333 
L 492.201537 86.579333 
z
" clip-path="url(#p73ef7aa72d)" style="fill: #696969"/>
   </g>
   <g id="patch_167">
    <path d="M 494.919208 86.579333 
L 499.267483 86.579333 
L 499.267483 86.579333 
L 494.919208 86.579333 
z
" clip-path="url(#p73ef7aa72d)" style="fill: #696969"/>
   </g>
   <g id="patch_168">
    <path d="M 497.63688 86.579333 
L 501.985155 86.579333 
L 501.985155 79.442772 
L 497.63688 79.442772 
z
" clip-path="url(#p73ef7aa72d)" style="fill: #696969"/>
   </g>
   <g id="patch_169">
    <path d="M 500.354552 86.579333 
L 504.702827 86.579333 
L 504.702827 67.471767 
L 500.354552 67.471767 
z
" clip-path="url(#p73ef7aa72d)" style="fill: #696969"/>
   </g>
   <g id="patch_170">
    <path d="M 503.072224 86.579333 
L 507.420499 86.579333 
L 507.420499 67.241556 
L 503.072224 67.241556 
z
" clip-path="url(#p73ef7aa72d)" style="fill: #696969"/>
   </g>
   <g id="patch_171">
    <path d="M 505.789896 86.579333 
L 510.138171 86.579333 
L 510.138171 75.068751 
L 505.789896 75.068751 
z
" clip-path="url(#p73ef7aa72d)" style="fill: #696969"/>
   </g>
   <g id="patch_172">
    <path d="M 508.507568 86.579333 
L 512.855843 86.579333 
L 512.855843 73.917693 
L 508.507568 73.917693 
z
" clip-path="url(#p73ef7aa72d)" style="fill: #696969"/>
   </g>
   <g id="patch_173">
    <path d="M 511.22524 86.579333 
L 515.573515 86.579333 
L 515.573515 76.21981 
L 511.22524 76.21981 
z
" clip-path="url(#p73ef7aa72d)" style="fill: #696969"/>
   </g>
   <g id="patch_174">
    <path d="M 513.942911 86.579333 
L 518.291186 86.579333 
L 518.291186 72.996847 
L 513.942911 72.996847 
z
" clip-path="url(#p73ef7aa72d)" style="fill: #696969"/>
   </g>
   <g id="patch_175">
    <path d="M 516.660583 86.579333 
L 521.008858 86.579333 
L 521.008858 78.982349 
L 516.660583 78.982349 
z
" clip-path="url(#p73ef7aa72d)" style="fill: #696969"/>
   </g>
   <g id="patch_176">
    <path d="M 519.378255 86.579333 
L 523.72653 86.579333 
L 523.72653 86.579333 
L 519.378255 86.579333 
z
" clip-path="url(#p73ef7aa72d)" style="fill: #696969"/>
   </g>
   <g id="patch_177">
    <path d="M 522.095927 86.579333 
L 526.444202 86.579333 
L 526.444202 76.21981 
L 522.095927 76.21981 
z
" clip-path="url(#p73ef7aa72d)" style="fill: #696969"/>
   </g>
   <g id="patch_178">
    <path d="M 524.813599 86.579333 
L 529.161874 86.579333 
L 529.161874 78.061503 
L 524.813599 78.061503 
z
" clip-path="url(#p73ef7aa72d)" style="fill: #696969"/>
   </g>
   <g id="patch_179">
    <path d="M 527.531271 86.579333 
L 531.879546 86.579333 
L 531.879546 78.061503 
L 527.531271 78.061503 
z
" clip-path="url(#p73ef7aa72d)" style="fill: #696969"/>
   </g>
   <g id="patch_180">
    <path d="M 530.248943 86.579333 
L 534.597218 86.579333 
L 534.597218 75.068751 
L 530.248943 75.068751 
z
" clip-path="url(#p73ef7aa72d)" style="fill: #696969"/>
   </g>
   <g id="patch_181">
    <path d="M 532.966614 86.579333 
L 537.314889 86.579333 
L 537.314889 80.018302 
L 532.966614 80.018302 
z
" clip-path="url(#p73ef7aa72d)" style="fill: #696969"/>
   </g>
   <g id="patch_182">
    <path d="M 535.684286 86.579333 
L 540.032561 86.579333 
L 540.032561 78.752138 
L 535.684286 78.752138 
z
" clip-path="url(#p73ef7aa72d)" style="fill: #696969"/>
   </g>
   <g id="patch_183">
    <path d="M 538.401958 86.579333 
L 542.750233 86.579333 
L 542.750233 68.737931 
L 538.401958 68.737931 
z
" clip-path="url(#p73ef7aa72d)" style="fill: #696969"/>
   </g>
   <g id="patch_184">
    <path d="M 541.11963 86.579333 
L 545.467905 86.579333 
L 545.467905 73.227058 
L 541.11963 73.227058 
z
" clip-path="url(#p73ef7aa72d)" style="fill: #696969"/>
   </g>
   <g id="patch_185">
    <path d="M 543.837302 86.579333 
L 548.185577 86.579333 
L 548.185577 71.385365 
L 543.837302 71.385365 
z
" clip-path="url(#p73ef7aa72d)" style="fill: #696969"/>
   </g>
   <g id="patch_186">
    <path d="M 546.554974 86.579333 
L 550.903249 86.579333 
L 550.903249 65.284757 
L 546.554974 65.284757 
z
" clip-path="url(#p73ef7aa72d)" style="fill: #696969"/>
   </g>
   <g id="patch_187">
    <path d="M 549.272646 86.579333 
L 553.620921 86.579333 
L 553.620921 86.579333 
L 549.272646 86.579333 
z
" clip-path="url(#p73ef7aa72d)" style="fill: #696969"/>
   </g>
   <g id="patch_188">
    <path d="M 551.990317 86.579333 
L 556.338592 86.579333 
L 556.338592 78.291714 
L 551.990317 78.291714 
z
" clip-path="url(#p73ef7aa72d)" style="fill: #696969"/>
   </g>
   <g id="patch_189">
    <path d="M 554.707989 86.579333 
L 559.056264 86.579333 
L 559.056264 78.521926 
L 554.707989 78.521926 
z
" clip-path="url(#p73ef7aa72d)" style="fill: #696969"/>
   </g>
   <g id="patch_190">
    <path d="M 557.425661 86.579333 
L 561.773936 86.579333 
L 561.773936 81.054254 
L 557.425661 81.054254 
z
" clip-path="url(#p73ef7aa72d)" style="fill: #696969"/>
   </g>
   <g id="patch_191">
    <path d="M 560.143333 86.579333 
L 564.491608 86.579333 
L 564.491608 80.939148 
L 560.143333 80.939148 
z
" clip-path="url(#p73ef7aa72d)" style="fill: #696969"/>
   </g>
   <g id="patch_192">
    <path d="M 562.861005 86.579333 
L 567.20928 86.579333 
L 567.20928 82.205312 
L 562.861005 82.205312 
z
" clip-path="url(#p73ef7aa72d)" style="fill: #696969"/>
   </g>
   <g id="patch_193">
    <path d="M 565.578677 86.579333 
L 569.926952 86.579333 
L 569.926952 86.579333 
L 565.578677 86.579333 
z
" clip-path="url(#p73ef7aa72d)" style="fill: #696969"/>
   </g>
   <g id="patch_194">
    <path d="M 568.296349 86.579333 
L 572.644624 86.579333 
L 572.644624 78.176608 
L 568.296349 78.176608 
z
" clip-path="url(#p73ef7aa72d)" style="fill: #696969"/>
   </g>
   <g id="patch_195">
    <path d="M 571.01402 86.579333 
L 575.362295 86.579333 
L 575.362295 86.579333 
L 571.01402 86.579333 
z
" clip-path="url(#p73ef7aa72d)" style="fill: #696969"/>
   </g>
   <g id="patch_196">
    <path d="M 573.731692 86.579333 
L 578.079967 86.579333 
L 578.079967 86.579333 
L 573.731692 86.579333 
z
" clip-path="url(#p73ef7aa72d)" style="fill: #696969"/>
   </g>
   <g id="patch_197">
    <path d="M 576.449364 86.579333 
L 580.797639 86.579333 
L 580.797639 84.392323 
L 576.449364 84.392323 
z
" clip-path="url(#p73ef7aa72d)" style="fill: #696969"/>
   </g>
   <g id="patch_198">
    <path d="M 579.167036 86.579333 
L 583.515311 86.579333 
L 583.515311 79.327667 
L 579.167036 79.327667 
z
" clip-path="url(#p73ef7aa72d)" style="fill: #696969"/>
   </g>
   <g id="patch_199">
    <path d="M 581.884708 86.579333 
L 586.232983 86.579333 
L 586.232983 86.579333 
L 581.884708 86.579333 
z
" clip-path="url(#p73ef7aa72d)" style="fill: #696969"/>
   </g>
   <g id="patch_200">
    <path d="M 584.60238 86.579333 
L 588.950655 86.579333 
L 588.950655 84.622534 
L 584.60238 84.622534 
z
" clip-path="url(#p73ef7aa72d)" style="fill: #696969"/>
   </g>
   <g id="patch_201">
    <path d="M 587.320052 86.579333 
L 591.668327 86.579333 
L 591.668327 81.859995 
L 587.320052 81.859995 
z
" clip-path="url(#p73ef7aa72d)" style="fill: #696969"/>
   </g>
   <g id="patch_202">
    <path d="M 590.037723 86.579333 
L 594.385998 86.579333 
L 594.385998 79.097455 
L 590.037723 79.097455 
z
" clip-path="url(#p73ef7aa72d)" style="fill: #696969"/>
   </g>
   <g id="patch_203">
    <path d="M 592.755395 86.579333 
L 597.10367 86.579333 
L 597.10367 86.579333 
L 592.755395 86.579333 
z
" clip-path="url(#p73ef7aa72d)" style="fill: #696969"/>
   </g>
   <g id="patch_204">
    <path d="M 595.473067 86.579333 
L 599.821342 86.579333 
L 599.821342 86.579333 
L 595.473067 86.579333 
z
" clip-path="url(#p73ef7aa72d)" style="fill: #696969"/>
   </g>
   <g id="patch_205">
    <path d="M 598.190739 86.579333 
L 602.539014 86.579333 
L 602.539014 81.514677 
L 598.190739 81.514677 
z
" clip-path="url(#p73ef7aa72d)" style="fill: #696969"/>
   </g>
   <g id="patch_206">
    <path d="M 600.908411 86.579333 
L 605.256686 86.579333 
L 605.256686 86.579333 
L 600.908411 86.579333 
z
" clip-path="url(#p73ef7aa72d)" style="fill: #696969"/>
   </g>
   <g id="patch_207">
    <path d="M 603.626083 86.579333 
L 607.974358 86.579333 
L 607.974358 86.579333 
L 603.626083 86.579333 
z
" clip-path="url(#p73ef7aa72d)" style="fill: #696969"/>
   </g>
   <g id="patch_208">
    <path d="M 606.343755 86.579333 
L 610.69203 86.579333 
L 610.69203 86.579333 
L 606.343755 86.579333 
z
" clip-path="url(#p73ef7aa72d)" style="fill: #696969"/>
   </g>
   <g id="patch_209">
    <path d="M 609.061426 86.579333 
L 613.409701 86.579333 
L 613.409701 86.579333 
L 609.061426 86.579333 
z
" clip-path="url(#p73ef7aa72d)" style="fill: #696969"/>
   </g>
   <g id="patch_210">
    <path d="M 611.779098 86.579333 
L 616.127373 86.579333 
L 616.127373 81.16936 
L 611.779098 81.16936 
z
" clip-path="url(#p73ef7aa72d)" style="fill: #696969"/>
   </g>
   <g id="patch_211">
    <path d="M 614.49677 86.579333 
L 618.845045 86.579333 
L 618.845045 86.579333 
L 614.49677 86.579333 
z
" clip-path="url(#p73ef7aa72d)" style="fill: #696969"/>
   </g>
   <g id="patch_212">
    <path d="M 617.214442 86.579333 
L 621.562717 86.579333 
L 621.562717 79.212561 
L 617.214442 79.212561 
z
" clip-path="url(#p73ef7aa72d)" style="fill: #696969"/>
   </g>
   <g id="patch_213">
    <path d="M 619.932114 86.579333 
L 624.280389 86.579333 
L 624.280389 84.967852 
L 619.932114 84.967852 
z
" clip-path="url(#p73ef7aa72d)" style="fill: #696969"/>
   </g>
   <g id="patch_214">
    <path d="M 622.649786 86.579333 
L 626.998061 86.579333 
L 626.998061 86.579333 
L 622.649786 86.579333 
z
" clip-path="url(#p73ef7aa72d)" style="fill: #696969"/>
   </g>
   <g id="patch_215">
    <path d="M 625.367458 86.579333 
L 629.715733 86.579333 
L 629.715733 75.298963 
L 625.367458 75.298963 
z
" clip-path="url(#p73ef7aa72d)" style="fill: #696969"/>
   </g>
   <g id="patch_216">
    <path d="M 628.085129 86.579333 
L 632.433404 86.579333 
L 632.433404 77.946397 
L 628.085129 77.946397 
z
" clip-path="url(#p73ef7aa72d)" style="fill: #696969"/>
   </g>
   <g id="patch_217">
    <path d="M 630.802801 86.579333 
L 635.151076 86.579333 
L 635.151076 74.608328 
L 630.802801 74.608328 
z
" clip-path="url(#p73ef7aa72d)" style="fill: #696969"/>
   </g>
   <g id="patch_218">
    <path d="M 633.520473 86.579333 
L 637.868748 86.579333 
L 637.868748 80.018302 
L 633.520473 80.018302 
z
" clip-path="url(#p73ef7aa72d)" style="fill: #696969"/>
   </g>
   <g id="patch_219">
    <path d="M 636.238145 86.579333 
L 640.58642 86.579333 
L 640.58642 78.867243 
L 636.238145 78.867243 
z
" clip-path="url(#p73ef7aa72d)" style="fill: #696969"/>
   </g>
   <g id="patch_220">
    <path d="M 638.955817 86.579333 
L 643.304092 86.579333 
L 643.304092 67.817085 
L 638.955817 67.817085 
z
" clip-path="url(#p73ef7aa72d)" style="fill: #696969"/>
   </g>
   <g id="patch_221">
    <path d="M 641.673489 86.579333 
L 646.021764 86.579333 
L 646.021764 82.895947 
L 641.673489 82.895947 
z
" clip-path="url(#p73ef7aa72d)" style="fill: #696969"/>
   </g>
   <g id="patch_222">
    <path d="M 644.391161 86.579333 
L 648.739436 86.579333 
L 648.739436 84.73764 
L 644.391161 84.73764 
z
" clip-path="url(#p73ef7aa72d)" style="fill: #696969"/>
   </g>
   <g id="patch_223">
    <path d="M 647.108832 86.579333 
L 651.457107 86.579333 
L 651.457107 73.572376 
L 647.108832 73.572376 
z
" clip-path="url(#p73ef7aa72d)" style="fill: #696969"/>
   </g>
   <g id="patch_224">
    <path d="M 649.826504 86.579333 
L 654.174779 86.579333 
L 654.174779 69.773884 
L 649.826504 69.773884 
z
" clip-path="url(#p73ef7aa72d)" style="fill: #696969"/>
   </g>
   <g id="patch_225">
    <path d="M 652.544176 86.579333 
L 656.892451 86.579333 
L 656.892451 64.479016 
L 652.544176 64.479016 
z
" clip-path="url(#p73ef7aa72d)" style="fill: #696969"/>
   </g>
   <g id="patch_226">
    <path d="M 655.261848 86.579333 
L 659.610123 86.579333 
L 659.610123 69.428566 
L 655.261848 69.428566 
z
" clip-path="url(#p73ef7aa72d)" style="fill: #696969"/>
   </g>
   <g id="patch_227">
    <path d="M 657.97952 86.579333 
L 662.327795 86.579333 
L 662.327795 79.212561 
L 657.97952 79.212561 
z
" clip-path="url(#p73ef7aa72d)" style="fill: #696969"/>
   </g>
   <g id="patch_228">
    <path d="M 660.697192 86.579333 
L 665.045467 86.579333 
L 665.045467 71.960894 
L 660.697192 71.960894 
z
" clip-path="url(#p73ef7aa72d)" style="fill: #696969"/>
   </g>
   <g id="patch_229">
    <path d="M 663.414864 86.579333 
L 667.763139 86.579333 
L 667.763139 61.025841 
L 663.414864 61.025841 
z
" clip-path="url(#p73ef7aa72d)" style="fill: #696969"/>
   </g>
   <g id="patch_230">
    <path d="M 666.132535 86.579333 
L 670.48081 86.579333 
L 670.48081 77.831291 
L 666.132535 77.831291 
z
" clip-path="url(#p73ef7aa72d)" style="fill: #696969"/>
   </g>
   <g id="patch_231">
    <path d="M 668.850207 86.579333 
L 673.198482 86.579333 
L 673.198482 84.162111 
L 668.850207 84.162111 
z
" clip-path="url(#p73ef7aa72d)" style="fill: #696969"/>
   </g>
   <g id="patch_232">
    <path d="M 671.567879 86.579333 
L 675.916154 86.579333 
L 675.916154 80.478725 
L 671.567879 80.478725 
z
" clip-path="url(#p73ef7aa72d)" style="fill: #696969"/>
   </g>
   <g id="patch_233">
    <path d="M 674.285551 86.579333 
L 678.633826 86.579333 
L 678.633826 66.090497 
L 674.285551 66.090497 
z
" clip-path="url(#p73ef7aa72d)" style="fill: #696969"/>
   </g>
   <g id="patch_234">
    <path d="M 677.003223 86.579333 
L 681.351498 86.579333 
L 681.351498 77.831291 
L 677.003223 77.831291 
z
" clip-path="url(#p73ef7aa72d)" style="fill: #696969"/>
   </g>
   <g id="patch_235">
    <path d="M 679.720895 86.579333 
L 684.06917 86.579333 
L 684.06917 80.018302 
L 679.720895 80.018302 
z
" clip-path="url(#p73ef7aa72d)" style="fill: #696969"/>
   </g>
   <g id="patch_236">
    <path d="M 682.438567 86.579333 
L 686.786842 86.579333 
L 686.786842 78.867243 
L 682.438567 78.867243 
z
" clip-path="url(#p73ef7aa72d)" style="fill: #696969"/>
   </g>
   <g id="patch_237">
    <path d="M 685.156238 86.579333 
L 689.504513 86.579333 
L 689.504513 86.579333 
L 685.156238 86.579333 
z
" clip-path="url(#p73ef7aa72d)" style="fill: #696969"/>
   </g>
   <g id="patch_238">
    <path d="M 687.87391 86.579333 
L 692.222185 86.579333 
L 692.222185 83.126159 
L 687.87391 83.126159 
z
" clip-path="url(#p73ef7aa72d)" style="fill: #696969"/>
   </g>
   <g id="patch_239">
    <path d="M 690.591582 86.579333 
L 694.939857 86.579333 
L 694.939857 86.579333 
L 690.591582 86.579333 
z
" clip-path="url(#p73ef7aa72d)" style="fill: #696969"/>
   </g>
   <g id="patch_240">
    <path d="M 693.309254 86.579333 
L 697.657529 86.579333 
L 697.657529 86.579333 
L 693.309254 86.579333 
z
" clip-path="url(#p73ef7aa72d)" style="fill: #696969"/>
   </g>
   <g id="patch_241">
    <path d="M 696.026926 86.579333 
L 700.375201 86.579333 
L 700.375201 74.263011 
L 696.026926 74.263011 
z
" clip-path="url(#p73ef7aa72d)" style="fill: #696969"/>
   </g>
   <g id="patch_242">
    <path d="M 698.744598 86.579333 
L 703.092873 86.579333 
L 703.092873 86.579333 
L 698.744598 86.579333 
z
" clip-path="url(#p73ef7aa72d)" style="fill: #696969"/>
   </g>
   <g id="patch_243">
    <path d="M 701.46227 86.579333 
L 705.810545 86.579333 
L 705.810545 84.277217 
L 701.46227 84.277217 
z
" clip-path="url(#p73ef7aa72d)" style="fill: #696969"/>
   </g>
   <g id="patch_244">
    <path d="M 704.179941 86.579333 
L 708.528216 86.579333 
L 708.528216 78.40682 
L 704.179941 78.40682 
z
" clip-path="url(#p73ef7aa72d)" style="fill: #696969"/>
   </g>
   <g id="patch_245">
    <path d="M 706.897613 86.579333 
L 711.245888 86.579333 
L 711.245888 84.622534 
L 706.897613 84.622534 
z
" clip-path="url(#p73ef7aa72d)" style="fill: #696969"/>
   </g>
   <g id="patch_246">
    <path d="M 709.615285 86.579333 
L 713.96356 86.579333 
L 713.96356 86.579333 
L 709.615285 86.579333 
z
" clip-path="url(#p73ef7aa72d)" style="fill: #696969"/>
   </g>
   <g id="patch_247">
    <path d="M 712.332957 86.579333 
L 716.681232 86.579333 
L 716.681232 82.55063 
L 712.332957 82.55063 
z
" clip-path="url(#p73ef7aa72d)" style="fill: #696969"/>
   </g>
   <g id="patch_248">
    <path d="M 715.050629 86.579333 
L 719.398904 86.579333 
L 719.398904 83.126159 
L 715.050629 83.126159 
z
" clip-path="url(#p73ef7aa72d)" style="fill: #696969"/>
   </g>
   <g id="patch_249">
    <path d="M 717.768301 86.579333 
L 722.116576 86.579333 
L 722.116576 83.35637 
L 717.768301 83.35637 
z
" clip-path="url(#p73ef7aa72d)" style="fill: #696969"/>
   </g>
   <g id="patch_250">
    <path d="M 720.485973 86.579333 
L 724.834248 86.579333 
L 724.834248 86.579333 
L 720.485973 86.579333 
z
" clip-path="url(#p73ef7aa72d)" style="fill: #696969"/>
   </g>
   <g id="patch_251">
    <path d="M 723.203644 86.579333 
L 727.551919 86.579333 
L 727.551919 82.780841 
L 723.203644 82.780841 
z
" clip-path="url(#p73ef7aa72d)" style="fill: #696969"/>
   </g>
   <g id="patch_252">
    <path d="M 725.921316 86.579333 
L 730.269591 86.579333 
L 730.269591 80.593831 
L 725.921316 80.593831 
z
" clip-path="url(#p73ef7aa72d)" style="fill: #696969"/>
   </g>
   <g id="patch_253">
    <path d="M 728.638988 86.579333 
L 732.987263 86.579333 
L 732.987263 82.320418 
L 728.638988 82.320418 
z
" clip-path="url(#p73ef7aa72d)" style="fill: #696969"/>
   </g>
   <g id="patch_254">
    <path d="M 731.35666 86.579333 
L 735.704935 86.579333 
L 735.704935 86.579333 
L 731.35666 86.579333 
z
" clip-path="url(#p73ef7aa72d)" style="fill: #696969"/>
   </g>
   <g id="patch_255">
    <path d="M 734.074332 86.579333 
L 738.422607 86.579333 
L 738.422607 86.579333 
L 734.074332 86.579333 
z
" clip-path="url(#p73ef7aa72d)" style="fill: #696969"/>
   </g>
   <g id="patch_256">
    <path d="M 736.792004 86.579333 
L 741.140279 86.579333 
L 741.140279 81.399571 
L 736.792004 81.399571 
z
" clip-path="url(#p73ef7aa72d)" style="fill: #696969"/>
   </g>
   <g id="patch_257">
    <path d="M 739.509676 86.579333 
L 743.857951 86.579333 
L 743.857951 86.234016 
L 739.509676 86.234016 
z
" clip-path="url(#p73ef7aa72d)" style="fill: #696969"/>
   </g>
   <g id="patch_258">
    <path d="M 742.227347 86.579333 
L 746.575622 86.579333 
L 746.575622 86.349122 
L 742.227347 86.349122 
z
" clip-path="url(#p73ef7aa72d)" style="fill: #696969"/>
   </g>
   <g id="patch_259">
    <path d="M 744.945019 86.579333 
L 749.293294 86.579333 
L 749.293294 79.672984 
L 744.945019 79.672984 
z
" clip-path="url(#p73ef7aa72d)" style="fill: #696969"/>
   </g>
   <g id="patch_260">
    <path d="M 747.662691 86.579333 
L 752.010966 86.579333 
L 752.010966 86.579333 
L 747.662691 86.579333 
z
" clip-path="url(#p73ef7aa72d)" style="fill: #696969"/>
   </g>
   <g id="patch_261">
    <path d="M 750.380363 86.579333 
L 754.728638 86.579333 
L 754.728638 76.680233 
L 750.380363 76.680233 
z
" clip-path="url(#p73ef7aa72d)" style="fill: #696969"/>
   </g>
   <g id="patch_262">
    <path d="M 753.098035 86.579333 
L 757.44631 86.579333 
L 757.44631 82.895947 
L 753.098035 82.895947 
z
" clip-path="url(#p73ef7aa72d)" style="fill: #696969"/>
   </g>
   <g id="patch_263">
    <path d="M 755.815707 86.579333 
L 760.163982 86.579333 
L 760.163982 63.788381 
L 755.815707 63.788381 
z
" clip-path="url(#p73ef7aa72d)" style="fill: #696969"/>
   </g>
   <g id="patch_264">
    <path d="M 758.533379 86.579333 
L 762.881654 86.579333 
L 762.881654 76.21981 
L 758.533379 76.21981 
z
" clip-path="url(#p73ef7aa72d)" style="fill: #696969"/>
   </g>
   <g id="patch_265">
    <path d="M 761.25105 86.579333 
L 765.599325 86.579333 
L 765.599325 79.327667 
L 761.25105 79.327667 
z
" clip-path="url(#p73ef7aa72d)" style="fill: #696969"/>
   </g>
   <g id="patch_266">
    <path d="M 763.968722 86.579333 
L 768.316997 86.579333 
L 768.316997 85.313169 
L 763.968722 85.313169 
z
" clip-path="url(#p73ef7aa72d)" style="fill: #696969"/>
   </g>
   <g id="patch_267">
    <path d="M 766.686394 86.579333 
L 771.034669 86.579333 
L 771.034669 59.184148 
L 766.686394 59.184148 
z
" clip-path="url(#p73ef7aa72d)" style="fill: #696969"/>
   </g>
   <g id="patch_268">
    <path d="M 769.404066 86.579333 
L 773.752341 86.579333 
L 773.752341 80.824042 
L 769.404066 80.824042 
z
" clip-path="url(#p73ef7aa72d)" style="fill: #696969"/>
   </g>
   <g id="patch_269">
    <path d="M 772.121738 86.579333 
L 776.470013 86.579333 
L 776.470013 74.032799 
L 772.121738 74.032799 
z
" clip-path="url(#p73ef7aa72d)" style="fill: #696969"/>
   </g>
   <g id="patch_270">
    <path d="M 774.83941 86.579333 
L 779.187685 86.579333 
L 779.187685 78.176608 
L 774.83941 78.176608 
z
" clip-path="url(#p73ef7aa72d)" style="fill: #696969"/>
   </g>
   <g id="patch_271">
    <path d="M 777.557082 86.579333 
L 781.905357 86.579333 
L 781.905357 68.853037 
L 777.557082 68.853037 
z
" clip-path="url(#p73ef7aa72d)" style="fill: #696969"/>
   </g>
   <g id="patch_272">
    <path d="M 780.274754 86.579333 
L 784.623028 86.579333 
L 784.623028 74.263011 
L 780.274754 74.263011 
z
" clip-path="url(#p73ef7aa72d)" style="fill: #696969"/>
   </g>
   <g id="patch_273">
    <path d="M 782.992425 86.579333 
L 787.3407 86.579333 
L 787.3407 75.64428 
L 782.992425 75.64428 
z
" clip-path="url(#p73ef7aa72d)" style="fill: #696969"/>
   </g>
   <g id="patch_274">
    <path d="M 785.710097 86.579333 
L 790.058372 86.579333 
L 790.058372 74.953646 
L 785.710097 74.953646 
z
" clip-path="url(#p73ef7aa72d)" style="fill: #696969"/>
   </g>
   <g id="patch_275">
    <path d="M 788.427769 86.579333 
L 792.776044 86.579333 
L 792.776044 70.69473 
L 788.427769 70.69473 
z
" clip-path="url(#p73ef7aa72d)" style="fill: #696969"/>
   </g>
   <g id="patch_276">
    <path d="M 791.145441 86.579333 
L 795.493716 86.579333 
L 795.493716 72.421317 
L 791.145441 72.421317 
z
" clip-path="url(#p73ef7aa72d)" style="fill: #696969"/>
   </g>
   <g id="patch_277">
    <path d="M 793.863113 86.579333 
L 798.211388 86.579333 
L 798.211388 86.579333 
L 793.863113 86.579333 
z
" clip-path="url(#p73ef7aa72d)" style="fill: #696969"/>
   </g>
   <g id="patch_278">
    <path d="M 796.580785 86.579333 
L 800.92906 86.579333 
L 800.92906 84.622534 
L 796.580785 84.622534 
z
" clip-path="url(#p73ef7aa72d)" style="fill: #696969"/>
   </g>
   <g id="patch_279">
    <path d="M 799.298457 86.579333 
L 803.646731 86.579333 
L 803.646731 73.111952 
L 799.298457 73.111952 
z
" clip-path="url(#p73ef7aa72d)" style="fill: #696969"/>
   </g>
   <g id="patch_280">
    <path d="M 802.016128 86.579333 
L 806.364403 86.579333 
L 806.364403 84.047005 
L 802.016128 84.047005 
z
" clip-path="url(#p73ef7aa72d)" style="fill: #696969"/>
   </g>
   <g id="patch_281">
    <path d="M 804.7338 86.579333 
L 809.082075 86.579333 
L 809.082075 79.78809 
L 804.7338 79.78809 
z
" clip-path="url(#p73ef7aa72d)" style="fill: #696969"/>
   </g>
   <g id="patch_282">
    <path d="M 807.451472 86.579333 
L 811.799747 86.579333 
L 811.799747 79.78809 
L 807.451472 79.78809 
z
" clip-path="url(#p73ef7aa72d)" style="fill: #696969"/>
   </g>
   <g id="patch_283">
    <path d="M 810.169144 86.579333 
L 814.517419 86.579333 
L 814.517419 86.579333 
L 810.169144 86.579333 
z
" clip-path="url(#p73ef7aa72d)" style="fill: #696969"/>
   </g>
   <g id="patch_284">
    <path d="M 812.886816 86.579333 
L 817.235091 86.579333 
L 817.235091 81.629783 
L 812.886816 81.629783 
z
" clip-path="url(#p73ef7aa72d)" style="fill: #696969"/>
   </g>
   <g id="patch_285">
    <path d="M 815.604488 86.579333 
L 819.952763 86.579333 
L 819.952763 86.579333 
L 815.604488 86.579333 
z
" clip-path="url(#p73ef7aa72d)" style="fill: #696969"/>
   </g>
   <g id="patch_286">
    <path d="M 818.32216 86.579333 
L 822.670434 86.579333 
L 822.670434 78.867243 
L 818.32216 78.867243 
z
" clip-path="url(#p73ef7aa72d)" style="fill: #696969"/>
   </g>
   <g id="patch_287">
    <path d="M 821.039831 86.579333 
L 825.388106 86.579333 
L 825.388106 80.939148 
L 821.039831 80.939148 
z
" clip-path="url(#p73ef7aa72d)" style="fill: #696969"/>
   </g>
   <g id="patch_288">
    <path d="M 823.757503 86.579333 
L 828.105778 86.579333 
L 828.105778 81.744889 
L 823.757503 81.744889 
z
" clip-path="url(#p73ef7aa72d)" style="fill: #696969"/>
   </g>
   <g id="patch_289">
    <path d="M 826.475175 86.579333 
L 830.82345 86.579333 
L 830.82345 86.579333 
L 826.475175 86.579333 
z
" clip-path="url(#p73ef7aa72d)" style="fill: #696969"/>
   </g>
   <g id="patch_290">
    <path d="M 829.192847 86.579333 
L 833.541122 86.579333 
L 833.541122 86.11891 
L 829.192847 86.11891 
z
" clip-path="url(#p73ef7aa72d)" style="fill: #696969"/>
   </g>
   <g id="patch_291">
    <path d="M 831.910519 86.579333 
L 836.258794 86.579333 
L 836.258794 79.442772 
L 831.910519 79.442772 
z
" clip-path="url(#p73ef7aa72d)" style="fill: #696969"/>
   </g>
   <g id="patch_292">
    <path d="M 834.628191 86.579333 
L 838.976466 86.579333 
L 838.976466 83.126159 
L 834.628191 83.126159 
z
" clip-path="url(#p73ef7aa72d)" style="fill: #696969"/>
   </g>
   <g id="patch_293">
    <path d="M 837.345863 86.579333 
L 841.694137 86.579333 
L 841.694137 86.579333 
L 837.345863 86.579333 
z
" clip-path="url(#p73ef7aa72d)" style="fill: #696969"/>
   </g>
   <g id="matplotlib.axis_3">
    <g id="xtick_9">
     <g id="line2d_13">
      <g>
       <use xlink:href="#m33f0dafc52" x="494.375674" y="89.48" style="stroke: #000000; stroke-width: 0.8"/>
      </g>
     </g>
     <g id="text_13">
      <!-- 80 -->
      <g transform="translate(488.013174 104.078438) scale(0.1 -0.1)">
       <defs>
        <path id="DejaVuSans-38" d="M 2034 2216 
Q 1584 2216 1326 1975 
Q 1069 1734 1069 1313 
Q 1069 891 1326 650 
Q 1584 409 2034 409 
Q 2484 409 2743 651 
Q 3003 894 3003 1313 
Q 3003 1734 2745 1975 
Q 2488 2216 2034 2216 
z
M 1403 2484 
Q 997 2584 770 2862 
Q 544 3141 544 3541 
Q 544 4100 942 4425 
Q 1341 4750 2034 4750 
Q 2731 4750 3128 4425 
Q 3525 4100 3525 3541 
Q 3525 3141 3298 2862 
Q 3072 2584 2669 2484 
Q 3125 2378 3379 2068 
Q 3634 1759 3634 1313 
Q 3634 634 3220 271 
Q 2806 -91 2034 -91 
Q 1263 -91 848 271 
Q 434 634 434 1313 
Q 434 1759 690 2068 
Q 947 2378 1403 2484 
z
M 1172 3481 
Q 1172 3119 1398 2916 
Q 1625 2713 2034 2713 
Q 2441 2713 2670 2916 
Q 2900 3119 2900 3481 
Q 2900 3844 2670 4047 
Q 2441 4250 2034 4250 
Q 1625 4250 1398 4047 
Q 1172 3844 1172 3481 
z
" transform="scale(0.015625)"/>
       </defs>
       <use xlink:href="#DejaVuSans-38"/>
       <use xlink:href="#DejaVuSans-30" x="63.623047"/>
      </g>
     </g>
    </g>
    <g id="xtick_10">
     <g id="line2d_14">
      <g>
       <use xlink:href="#m33f0dafc52" x="548.729111" y="89.48" style="stroke: #000000; stroke-width: 0.8"/>
      </g>
     </g>
     <g id="text_14">
      <!-- 90 -->
      <g transform="translate(542.366611 104.078438) scale(0.1 -0.1)">
       <defs>
        <path id="DejaVuSans-39" d="M 703 97 
L 703 672 
Q 941 559 1184 500 
Q 1428 441 1663 441 
Q 2288 441 2617 861 
Q 2947 1281 2994 2138 
Q 2813 1869 2534 1725 
Q 2256 1581 1919 1581 
Q 1219 1581 811 2004 
Q 403 2428 403 3163 
Q 403 3881 828 4315 
Q 1253 4750 1959 4750 
Q 2769 4750 3195 4129 
Q 3622 3509 3622 2328 
Q 3622 1225 3098 567 
Q 2575 -91 1691 -91 
Q 1453 -91 1209 -44 
Q 966 3 703 97 
z
M 1959 2075 
Q 2384 2075 2632 2365 
Q 2881 2656 2881 3163 
Q 2881 3666 2632 3958 
Q 2384 4250 1959 4250 
Q 1534 4250 1286 3958 
Q 1038 3666 1038 3163 
Q 1038 2656 1286 2365 
Q 1534 2075 1959 2075 
z
" transform="scale(0.015625)"/>
       </defs>
       <use xlink:href="#DejaVuSans-39"/>
       <use xlink:href="#DejaVuSans-30" x="63.623047"/>
      </g>
     </g>
    </g>
    <g id="xtick_11">
     <g id="line2d_15">
      <g>
       <use xlink:href="#m33f0dafc52" x="603.082548" y="89.48" style="stroke: #000000; stroke-width: 0.8"/>
      </g>
     </g>
     <g id="text_15">
      <!-- 100 -->
      <g transform="translate(593.538798 104.078438) scale(0.1 -0.1)">
       <use xlink:href="#DejaVuSans-31"/>
       <use xlink:href="#DejaVuSans-30" x="63.623047"/>
       <use xlink:href="#DejaVuSans-30" x="127.246094"/>
      </g>
     </g>
    </g>
    <g id="xtick_12">
     <g id="line2d_16">
      <g>
       <use xlink:href="#m33f0dafc52" x="657.435986" y="89.48" style="stroke: #000000; stroke-width: 0.8"/>
      </g>
     </g>
     <g id="text_16">
      <!-- 110 -->
      <g transform="translate(647.892236 104.078438) scale(0.1 -0.1)">
       <use xlink:href="#DejaVuSans-31"/>
       <use xlink:href="#DejaVuSans-31" x="63.623047"/>
       <use xlink:href="#DejaVuSans-30" x="127.246094"/>
      </g>
     </g>
    </g>
    <g id="xtick_13">
     <g id="line2d_17">
      <g>
       <use xlink:href="#m33f0dafc52" x="711.789423" y="89.48" style="stroke: #000000; stroke-width: 0.8"/>
      </g>
     </g>
     <g id="text_17">
      <!-- 120 -->
      <g transform="translate(702.245673 104.078438) scale(0.1 -0.1)">
       <use xlink:href="#DejaVuSans-31"/>
       <use xlink:href="#DejaVuSans-32" x="63.623047"/>
       <use xlink:href="#DejaVuSans-30" x="127.246094"/>
      </g>
     </g>
    </g>
    <g id="xtick_14">
     <g id="line2d_18">
      <g>
       <use xlink:href="#m33f0dafc52" x="766.14286" y="89.48" style="stroke: #000000; stroke-width: 0.8"/>
      </g>
     </g>
     <g id="text_18">
      <!-- 130 -->
      <g transform="translate(756.59911 104.078438) scale(0.1 -0.1)">
       <use xlink:href="#DejaVuSans-31"/>
       <use xlink:href="#DejaVuSans-33" x="63.623047"/>
       <use xlink:href="#DejaVuSans-30" x="127.246094"/>
      </g>
     </g>
    </g>
    <g id="xtick_15">
     <g id="line2d_19">
      <g>
       <use xlink:href="#m33f0dafc52" x="820.496297" y="89.48" style="stroke: #000000; stroke-width: 0.8"/>
      </g>
     </g>
     <g id="text_19">
      <!-- 140 -->
      <g transform="translate(810.952547 104.078438) scale(0.1 -0.1)">
       <use xlink:href="#DejaVuSans-31"/>
       <use xlink:href="#DejaVuSans-34" x="63.623047"/>
       <use xlink:href="#DejaVuSans-30" x="127.246094"/>
      </g>
     </g>
    </g>
   </g>
   <g id="matplotlib.axis_4">
    <g id="ytick_3">
     <g id="line2d_20">
      <g>
       <use xlink:href="#m0b1e6c3aeb" x="450.892924" y="86.579333" style="stroke: #000000; stroke-width: 0.8"/>
      </g>
     </g>
    </g>
    <g id="ytick_4">
     <g id="line2d_21">
      <g>
       <use xlink:href="#m0b1e6c3aeb" x="450.892924" y="57.802878" style="stroke: #000000; stroke-width: 0.8"/>
      </g>
     </g>
    </g>
   </g>
   <g id="line2d_22">
    <path d="M 450.892924 83.730735 
L 456.328268 84.396633 
L 461.763612 84.729172 
L 467.198955 84.704192 
L 472.634299 84.323509 
L 478.069643 83.614778 
L 483.504987 82.62949 
L 491.658002 80.793838 
L 505.246362 77.539462 
L 510.681705 76.445464 
L 516.117049 75.595765 
L 521.552393 75.052097 
L 526.987736 74.853958 
L 532.42308 75.015742 
L 537.858424 75.525696 
L 543.293768 76.346772 
L 548.729111 77.419316 
L 556.882127 79.325563 
L 567.752814 81.932698 
L 573.188158 83.050965 
L 578.623502 83.933636 
L 584.058845 84.516585 
L 589.494189 84.75746 
L 594.929533 84.638761 
L 600.364877 84.169111 
L 605.80022 83.382632 
L 611.235564 82.336462 
L 619.38858 80.450367 
L 630.259267 77.829843 
L 635.694611 76.688484 
L 641.129954 75.77377 
L 646.565298 75.152153 
L 652.000642 74.868797 
L 657.435986 74.944285 
L 662.871329 75.373135 
L 668.306673 76.12419 
L 673.742017 77.142886 
L 681.895032 79.006843 
L 695.483392 82.241826 
L 700.918735 83.306057 
L 706.354079 84.11616 
L 711.789423 84.613281 
L 717.224766 84.761302 
L 722.66011 84.54947 
L 728.095454 83.993175 
L 733.530798 83.132832 
L 738.966141 82.030945 
L 747.119157 80.103725 
L 757.989844 77.515678 
L 763.425188 76.425838 
L 768.860532 75.581722 
L 774.295875 75.044658 
L 779.731219 74.853662 
L 785.166563 75.022612 
L 790.601907 75.539233 
L 796.03725 76.365991 
L 801.472594 77.442822 
L 809.62561 79.352233 
L 820.496297 81.956869 
L 825.931641 83.071172 
L 831.366984 83.948412 
L 836.802328 84.524855 
L 839.52 84.686243 
L 839.52 84.686243 
" clip-path="url(#p73ef7aa72d)" style="fill: none; stroke: #191970; stroke-width: 3; stroke-linecap: square"/>
   </g>
   <g id="line2d_23">
    <path d="M 148.311747 89.48 
L 148.311747 54.672 
" clip-path="url(#p73ef7aa72d)" style="fill: none; stroke-dasharray: 7.4,3.2; stroke-dashoffset: 0; stroke: #000000; stroke-opacity: 0.8; stroke-width: 2"/>
   </g>
   <g id="patch_294">
    <path d="M 450.892924 89.48 
L 450.892924 54.672 
" style="fill: none; stroke: #000000; stroke-width: 0.8; stroke-linejoin: miter; stroke-linecap: square"/>
   </g>
   <g id="patch_295">
    <path d="M 450.892924 89.48 
L 839.52 89.48 
" style="fill: none; stroke: #000000; stroke-width: 0.8; stroke-linejoin: miter; stroke-linecap: square"/>
   </g>
   <g id="text_20">
    <!-- 2 -->
    <g transform="translate(642.661462 39.71375) scale(0.08 -0.08)">
     <use xlink:href="#DejaVuSans-32"/>
    </g>
    <!-- (AC: 16.33, PR: 23.24) -->
    <g transform="translate(600.877087 48.672) scale(0.08 -0.08)">
     <use xlink:href="#DejaVuSans-28"/>
     <use xlink:href="#DejaVuSans-41" x="39.013672"/>
     <use xlink:href="#DejaVuSans-43" x="105.671875"/>
     <use xlink:href="#DejaVuSans-3a" x="175.496094"/>
     <use xlink:href="#DejaVuSans-20" x="209.1875"/>
     <use xlink:href="#DejaVuSans-31" x="240.974609"/>
     <use xlink:href="#DejaVuSans-36" x="304.597656"/>
     <use xlink:href="#DejaVuSans-2e" x="368.220703"/>
     <use xlink:href="#DejaVuSans-33" x="400.007812"/>
     <use xlink:href="#DejaVuSans-33" x="463.630859"/>
     <use xlink:href="#DejaVuSans-2c" x="527.253906"/>
     <use xlink:href="#DejaVuSans-20" x="559.041016"/>
     <use xlink:href="#DejaVuSans-50" x="590.828125"/>
     <use xlink:href="#DejaVuSans-52" x="651.130859"/>
     <use xlink:href="#DejaVuSans-3a" x="717.488281"/>
     <use xlink:href="#DejaVuSans-20" x="751.179688"/>
     <use xlink:href="#DejaVuSans-32" x="782.966797"/>
     <use xlink:href="#DejaVuSans-33" x="846.589844"/>
     <use xlink:href="#DejaVuSans-2e" x="910.212891"/>
     <use xlink:href="#DejaVuSans-32" x="942"/>
     <use xlink:href="#DejaVuSans-34" x="1005.623047"/>
     <use xlink:href="#DejaVuSans-29" x="1069.246094"/>
    </g>
   </g>
  </g>
  <g id="text_21">
   <!-- COSINOR MODEL - 3 SINE 0.5 -->
   <g transform="translate(336.715313 11.940525) scale(0.12 -0.12)">
    <defs>
     <path id="DejaVuSans-4f" d="M 2522 4238 
Q 1834 4238 1429 3725 
Q 1025 3213 1025 2328 
Q 1025 1447 1429 934 
Q 1834 422 2522 422 
Q 3209 422 3611 934 
Q 4013 1447 4013 2328 
Q 4013 3213 3611 3725 
Q 3209 4238 2522 4238 
z
M 2522 4750 
Q 3503 4750 4090 4092 
Q 4678 3434 4678 2328 
Q 4678 1225 4090 567 
Q 3503 -91 2522 -91 
Q 1538 -91 948 565 
Q 359 1222 359 2328 
Q 359 3434 948 4092 
Q 1538 4750 2522 4750 
z
" transform="scale(0.015625)"/>
     <path id="DejaVuSans-53" d="M 3425 4513 
L 3425 3897 
Q 3066 4069 2747 4153 
Q 2428 4238 2131 4238 
Q 1616 4238 1336 4038 
Q 1056 3838 1056 3469 
Q 1056 3159 1242 3001 
Q 1428 2844 1947 2747 
L 2328 2669 
Q 3034 2534 3370 2195 
Q 3706 1856 3706 1288 
Q 3706 609 3251 259 
Q 2797 -91 1919 -91 
Q 1588 -91 1214 -16 
Q 841 59 441 206 
L 441 856 
Q 825 641 1194 531 
Q 1563 422 1919 422 
Q 2459 422 2753 634 
Q 3047 847 3047 1241 
Q 3047 1584 2836 1778 
Q 2625 1972 2144 2069 
L 1759 2144 
Q 1053 2284 737 2584 
Q 422 2884 422 3419 
Q 422 4038 858 4394 
Q 1294 4750 2059 4750 
Q 2388 4750 2728 4690 
Q 3069 4631 3425 4513 
z
" transform="scale(0.015625)"/>
     <path id="DejaVuSans-49" d="M 628 4666 
L 1259 4666 
L 1259 0 
L 628 0 
L 628 4666 
z
" transform="scale(0.015625)"/>
     <path id="DejaVuSans-4e" d="M 628 4666 
L 1478 4666 
L 3547 763 
L 3547 4666 
L 4159 4666 
L 4159 0 
L 3309 0 
L 1241 3903 
L 1241 0 
L 628 0 
L 628 4666 
z
" transform="scale(0.015625)"/>
     <path id="DejaVuSans-4d" d="M 628 4666 
L 1569 4666 
L 2759 1491 
L 3956 4666 
L 4897 4666 
L 4897 0 
L 4281 0 
L 4281 4097 
L 3078 897 
L 2444 897 
L 1241 4097 
L 1241 0 
L 628 0 
L 628 4666 
z
" transform="scale(0.015625)"/>
     <path id="DejaVuSans-44" d="M 1259 4147 
L 1259 519 
L 2022 519 
Q 2988 519 3436 956 
Q 3884 1394 3884 2338 
Q 3884 3275 3436 3711 
Q 2988 4147 2022 4147 
L 1259 4147 
z
M 628 4666 
L 1925 4666 
Q 3281 4666 3915 4102 
Q 4550 3538 4550 2338 
Q 4550 1131 3912 565 
Q 3275 0 1925 0 
L 628 0 
L 628 4666 
z
" transform="scale(0.015625)"/>
     <path id="DejaVuSans-45" d="M 628 4666 
L 3578 4666 
L 3578 4134 
L 1259 4134 
L 1259 2753 
L 3481 2753 
L 3481 2222 
L 1259 2222 
L 1259 531 
L 3634 531 
L 3634 0 
L 628 0 
L 628 4666 
z
" transform="scale(0.015625)"/>
     <path id="DejaVuSans-4c" d="M 628 4666 
L 1259 4666 
L 1259 531 
L 3531 531 
L 3531 0 
L 628 0 
L 628 4666 
z
" transform="scale(0.015625)"/>
     <path id="DejaVuSans-2d" d="M 313 2009 
L 1997 2009 
L 1997 1497 
L 313 1497 
L 313 2009 
z
" transform="scale(0.015625)"/>
    </defs>
    <use xlink:href="#DejaVuSans-43"/>
    <use xlink:href="#DejaVuSans-4f" x="69.824219"/>
    <use xlink:href="#DejaVuSans-53" x="148.535156"/>
    <use xlink:href="#DejaVuSans-49" x="212.011719"/>
    <use xlink:href="#DejaVuSans-4e" x="241.503906"/>
    <use xlink:href="#DejaVuSans-4f" x="316.308594"/>
    <use xlink:href="#DejaVuSans-52" x="395.019531"/>
    <use xlink:href="#DejaVuSans-20" x="464.501953"/>
    <use xlink:href="#DejaVuSans-4d" x="496.289062"/>
    <use xlink:href="#DejaVuSans-4f" x="582.568359"/>
    <use xlink:href="#DejaVuSans-44" x="661.279297"/>
    <use xlink:href="#DejaVuSans-45" x="738.28125"/>
    <use xlink:href="#DejaVuSans-4c" x="801.464844"/>
    <use xlink:href="#DejaVuSans-20" x="857.177734"/>
    <use xlink:href="#DejaVuSans-2d" x="888.964844"/>
    <use xlink:href="#DejaVuSans-20" x="925.048828"/>
    <use xlink:href="#DejaVuSans-33" x="956.835938"/>
    <use xlink:href="#DejaVuSans-20" x="1020.458984"/>
    <use xlink:href="#DejaVuSans-53" x="1052.246094"/>
    <use xlink:href="#DejaVuSans-49" x="1115.722656"/>
    <use xlink:href="#DejaVuSans-4e" x="1145.214844"/>
    <use xlink:href="#DejaVuSans-45" x="1220.019531"/>
    <use xlink:href="#DejaVuSans-20" x="1283.203125"/>
    <use xlink:href="#DejaVuSans-30" x="1314.990234"/>
    <use xlink:href="#DejaVuSans-2e" x="1378.613281"/>
    <use xlink:href="#DejaVuSans-35" x="1410.400391"/>
   </g>
  </g>
  <g id="text_22">
   <!-- TIME (HOURS FROM START OF PROTOCOL) -->
   <g transform="translate(297.576563 137.213175) scale(0.12 -0.12)">
    <defs>
     <path id="DejaVuSans-54" d="M -19 4666 
L 3928 4666 
L 3928 4134 
L 2272 4134 
L 2272 0 
L 1638 0 
L 1638 4134 
L -19 4134 
L -19 4666 
z
" transform="scale(0.015625)"/>
     <path id="DejaVuSans-48" d="M 628 4666 
L 1259 4666 
L 1259 2753 
L 3553 2753 
L 3553 4666 
L 4184 4666 
L 4184 0 
L 3553 0 
L 3553 2222 
L 1259 2222 
L 1259 0 
L 628 0 
L 628 4666 
z
" transform="scale(0.015625)"/>
     <path id="DejaVuSans-55" d="M 556 4666 
L 1191 4666 
L 1191 1831 
Q 1191 1081 1462 751 
Q 1734 422 2344 422 
Q 2950 422 3222 751 
Q 3494 1081 3494 1831 
L 3494 4666 
L 4128 4666 
L 4128 1753 
Q 4128 841 3676 375 
Q 3225 -91 2344 -91 
Q 1459 -91 1007 375 
Q 556 841 556 1753 
L 556 4666 
z
" transform="scale(0.015625)"/>
     <path id="DejaVuSans-46" d="M 628 4666 
L 3309 4666 
L 3309 4134 
L 1259 4134 
L 1259 2759 
L 3109 2759 
L 3109 2228 
L 1259 2228 
L 1259 0 
L 628 0 
L 628 4666 
z
" transform="scale(0.015625)"/>
    </defs>
    <use xlink:href="#DejaVuSans-54"/>
    <use xlink:href="#DejaVuSans-49" x="61.083984"/>
    <use xlink:href="#DejaVuSans-4d" x="90.576172"/>
    <use xlink:href="#DejaVuSans-45" x="176.855469"/>
    <use xlink:href="#DejaVuSans-20" x="240.039062"/>
    <use xlink:href="#DejaVuSans-28" x="271.826172"/>
    <use xlink:href="#DejaVuSans-48" x="310.839844"/>
    <use xlink:href="#DejaVuSans-4f" x="386.035156"/>
    <use xlink:href="#DejaVuSans-55" x="464.746094"/>
    <use xlink:href="#DejaVuSans-52" x="537.939453"/>
    <use xlink:href="#DejaVuSans-53" x="607.421875"/>
    <use xlink:href="#DejaVuSans-20" x="670.898438"/>
    <use xlink:href="#DejaVuSans-46" x="702.685547"/>
    <use xlink:href="#DejaVuSans-52" x="760.205078"/>
    <use xlink:href="#DejaVuSans-4f" x="829.6875"/>
    <use xlink:href="#DejaVuSans-4d" x="908.398438"/>
    <use xlink:href="#DejaVuSans-20" x="994.677734"/>
    <use xlink:href="#DejaVuSans-53" x="1026.464844"/>
    <use xlink:href="#DejaVuSans-54" x="1089.941406"/>
    <use xlink:href="#DejaVuSans-41" x="1143.275391"/>
    <use xlink:href="#DejaVuSans-52" x="1211.683594"/>
    <use xlink:href="#DejaVuSans-54" x="1273.916016"/>
    <use xlink:href="#DejaVuSans-20" x="1335"/>
    <use xlink:href="#DejaVuSans-4f" x="1366.787109"/>
    <use xlink:href="#DejaVuSans-46" x="1445.498047"/>
    <use xlink:href="#DejaVuSans-20" x="1503.017578"/>
    <use xlink:href="#DejaVuSans-50" x="1534.804688"/>
    <use xlink:href="#DejaVuSans-52" x="1595.107422"/>
    <use xlink:href="#DejaVuSans-4f" x="1664.589844"/>
    <use xlink:href="#DejaVuSans-54" x="1743.300781"/>
    <use xlink:href="#DejaVuSans-4f" x="1804.384766"/>
    <use xlink:href="#DejaVuSans-43" x="1883.095703"/>
    <use xlink:href="#DejaVuSans-4f" x="1952.919922"/>
    <use xlink:href="#DejaVuSans-4c" x="2031.630859"/>
    <use xlink:href="#DejaVuSans-29" x="2087.34375"/>
   </g>
  </g>
  <g id="text_23">
   <!-- AMPLITUDE -->
   <g transform="translate(26.124525 105.039375) rotate(-90) scale(0.12 -0.12)">
    <use xlink:href="#DejaVuSans-41"/>
    <use xlink:href="#DejaVuSans-4d" x="68.408203"/>
    <use xlink:href="#DejaVuSans-50" x="154.6875"/>
    <use xlink:href="#DejaVuSans-4c" x="214.990234"/>
    <use xlink:href="#DejaVuSans-49" x="270.703125"/>
    <use xlink:href="#DejaVuSans-54" x="300.195312"/>
    <use xlink:href="#DejaVuSans-55" x="361.279297"/>
    <use xlink:href="#DejaVuSans-44" x="434.472656"/>
    <use xlink:href="#DejaVuSans-45" x="511.474609"/>
   </g>
  </g>
 </g>
 <defs>
  <clipPath id="pb853914b08">
   <rect x="47.95" y="54.672" width="388.627076" height="34.808"/>
  </clipPath>
  <clipPath id="p73ef7aa72d">
   <rect x="450.892924" y="54.672" width="388.627076" height="34.808"/>
  </clipPath>
 </defs>
</svg>
