<?xml version="1.0" encoding="utf-8" standalone="no"?>
<!DOCTYPE svg PUBLIC "-//W3C//DTD SVG 1.1//EN"
  "http://www.w3.org/Graphics/SVG/1.1/DTD/svg11.dtd">
<svg xmlns:xlink="http://www.w3.org/1999/xlink" width="850.32pt" height="141.12pt" viewBox="0 0 850.32 141.12" xmlns="http://www.w3.org/2000/svg" version="1.1">
 <metadata>
  <rdf:RDF xmlns:dc="http://purl.org/dc/elements/1.1/" xmlns:cc="http://creativecommons.org/ns#" xmlns:rdf="http://www.w3.org/1999/02/22-rdf-syntax-ns#">
   <cc:Work>
    <dc:type rdf:resource="http://purl.org/dc/dcmitype/StillImage"/>
    <dc:date>2023-08-03T21:27:19.519009</dc:date>
    <dc:format>image/svg+xml</dc:format>
    <dc:creator>
     <cc:Agent>
      <dc:title>Matplotlib v3.7.1, https://matplotlib.org/</dc:title>
     </cc:Agent>
    </dc:creator>
   </cc:Work>
  </rdf:RDF>
 </metadata>
 <defs>
  <style type="text/css">*{stroke-linejoin: round; stroke-linecap: butt}</style>
 </defs>
 <g id="figure_1">
  <g id="patch_1">
   <path d="M 0 141.12 
L 850.32 141.12 
L 850.32 0 
L 0 0 
z
" style="fill: #ffffff"/>
  </g>
  <g id="axes_1">
   <g id="patch_2">
    <path d="M 54.25 89.48 
L 439.735 89.48 
L 439.735 54.672 
L 54.25 54.672 
z
" style="fill: #ffffff"/>
   </g>
   <g id="patch_3">
    <path d="M 52.635403 86.579333 
L 55.864597 86.579333 
L 55.864597 62.196918 
L 52.635403 62.196918 
z
" clip-path="url(#pe237eaf752)" style="fill: #696969"/>
   </g>
   <g id="patch_4">
    <path d="M 54.653649 86.579333 
L 57.882843 86.579333 
L 57.882843 73.126966 
L 54.653649 73.126966 
z
" clip-path="url(#pe237eaf752)" style="fill: #696969"/>
   </g>
   <g id="patch_5">
    <path d="M 56.671895 86.579333 
L 59.901089 86.579333 
L 59.901089 73.547353 
L 56.671895 73.547353 
z
" clip-path="url(#pe237eaf752)" style="fill: #696969"/>
   </g>
   <g id="patch_6">
    <path d="M 58.690141 86.579333 
L 61.919335 86.579333 
L 61.919335 73.126966 
L 58.690141 73.126966 
z
" clip-path="url(#pe237eaf752)" style="fill: #696969"/>
   </g>
   <g id="patch_7">
    <path d="M 60.708387 86.579333 
L 63.937581 86.579333 
L 63.937581 77.751217 
L 60.708387 77.751217 
z
" clip-path="url(#pe237eaf752)" style="fill: #696969"/>
   </g>
   <g id="patch_8">
    <path d="M 62.726634 86.579333 
L 65.955827 86.579333 
L 65.955827 81.955082 
L 62.726634 81.955082 
z
" clip-path="url(#pe237eaf752)" style="fill: #696969"/>
   </g>
   <g id="patch_9">
    <path d="M 64.74488 86.579333 
L 67.974073 86.579333 
L 67.974073 78.59199 
L 64.74488 78.59199 
z
" clip-path="url(#pe237eaf752)" style="fill: #696969"/>
   </g>
   <g id="patch_10">
    <path d="M 66.763126 86.579333 
L 69.992319 86.579333 
L 69.992319 80.273536 
L 66.763126 80.273536 
z
" clip-path="url(#pe237eaf752)" style="fill: #696969"/>
   </g>
   <g id="patch_11">
    <path d="M 68.781372 86.579333 
L 72.010565 86.579333 
L 72.010565 83.216242 
L 68.781372 83.216242 
z
" clip-path="url(#pe237eaf752)" style="fill: #696969"/>
   </g>
   <g id="patch_12">
    <path d="M 70.799618 86.579333 
L 74.028812 86.579333 
L 74.028812 81.114309 
L 70.799618 81.114309 
z
" clip-path="url(#pe237eaf752)" style="fill: #696969"/>
   </g>
   <g id="patch_13">
    <path d="M 72.817864 86.579333 
L 76.047058 86.579333 
L 76.047058 84.477401 
L 72.817864 84.477401 
z
" clip-path="url(#pe237eaf752)" style="fill: #696969"/>
   </g>
   <g id="patch_14">
    <path d="M 74.83611 86.579333 
L 78.065304 86.579333 
L 78.065304 86.579333 
L 74.83611 86.579333 
z
" clip-path="url(#pe237eaf752)" style="fill: #696969"/>
   </g>
   <g id="patch_15">
    <path d="M 76.854356 86.579333 
L 80.08355 86.579333 
L 80.08355 86.579333 
L 76.854356 86.579333 
z
" clip-path="url(#pe237eaf752)" style="fill: #696969"/>
   </g>
   <g id="patch_16">
    <path d="M 78.872602 86.579333 
L 82.101796 86.579333 
L 82.101796 86.579333 
L 78.872602 86.579333 
z
" clip-path="url(#pe237eaf752)" style="fill: #696969"/>
   </g>
   <g id="patch_17">
    <path d="M 80.890848 86.579333 
L 84.120042 86.579333 
L 84.120042 85.318174 
L 80.890848 85.318174 
z
" clip-path="url(#pe237eaf752)" style="fill: #696969"/>
   </g>
   <g id="patch_18">
    <path d="M 82.909094 86.579333 
L 86.138288 86.579333 
L 86.138288 86.579333 
L 82.909094 86.579333 
z
" clip-path="url(#pe237eaf752)" style="fill: #696969"/>
   </g>
   <g id="patch_19">
    <path d="M 84.92734 86.579333 
L 88.156534 86.579333 
L 88.156534 83.636628 
L 84.92734 83.636628 
z
" clip-path="url(#pe237eaf752)" style="fill: #696969"/>
   </g>
   <g id="patch_20">
    <path d="M 86.945586 86.579333 
L 90.17478 86.579333 
L 90.17478 81.114309 
L 86.945586 81.114309 
z
" clip-path="url(#pe237eaf752)" style="fill: #696969"/>
   </g>
   <g id="patch_21">
    <path d="M 88.963832 86.579333 
L 92.193026 86.579333 
L 92.193026 84.897787 
L 88.963832 84.897787 
z
" clip-path="url(#pe237eaf752)" style="fill: #696969"/>
   </g>
   <g id="patch_22">
    <path d="M 90.982079 86.579333 
L 94.211272 86.579333 
L 94.211272 83.636628 
L 90.982079 83.636628 
z
" clip-path="url(#pe237eaf752)" style="fill: #696969"/>
   </g>
   <g id="patch_23">
    <path d="M 93.000325 86.579333 
L 96.229518 86.579333 
L 96.229518 73.547353 
L 93.000325 73.547353 
z
" clip-path="url(#pe237eaf752)" style="fill: #696969"/>
   </g>
   <g id="patch_24">
    <path d="M 95.018571 86.579333 
L 98.247764 86.579333 
L 98.247764 78.171604 
L 95.018571 78.171604 
z
" clip-path="url(#pe237eaf752)" style="fill: #696969"/>
   </g>
   <g id="patch_25">
    <path d="M 97.036817 86.579333 
L 100.26601 86.579333 
L 100.26601 74.388126 
L 97.036817 74.388126 
z
" clip-path="url(#pe237eaf752)" style="fill: #696969"/>
   </g>
   <g id="patch_26">
    <path d="M 99.055063 86.579333 
L 102.284257 86.579333 
L 102.284257 73.967739 
L 99.055063 73.967739 
z
" clip-path="url(#pe237eaf752)" style="fill: #696969"/>
   </g>
   <g id="patch_27">
    <path d="M 101.073309 86.579333 
L 104.302503 86.579333 
L 104.302503 68.923101 
L 101.073309 68.923101 
z
" clip-path="url(#pe237eaf752)" style="fill: #696969"/>
   </g>
   <g id="patch_28">
    <path d="M 103.091555 86.579333 
L 106.320749 86.579333 
L 106.320749 64.29885 
L 103.091555 64.29885 
z
" clip-path="url(#pe237eaf752)" style="fill: #696969"/>
   </g>
   <g id="patch_29">
    <path d="M 105.109801 86.579333 
L 108.338995 86.579333 
L 108.338995 62.617304 
L 105.109801 62.617304 
z
" clip-path="url(#pe237eaf752)" style="fill: #696969"/>
   </g>
   <g id="patch_30">
    <path d="M 107.128047 86.579333 
L 110.357241 86.579333 
L 110.357241 69.343488 
L 107.128047 69.343488 
z
" clip-path="url(#pe237eaf752)" style="fill: #696969"/>
   </g>
   <g id="patch_31">
    <path d="M 109.146293 86.579333 
L 112.375487 86.579333 
L 112.375487 70.604647 
L 109.146293 70.604647 
z
" clip-path="url(#pe237eaf752)" style="fill: #696969"/>
   </g>
   <g id="patch_32">
    <path d="M 111.164539 86.579333 
L 114.393733 86.579333 
L 114.393733 73.967739 
L 111.164539 73.967739 
z
" clip-path="url(#pe237eaf752)" style="fill: #696969"/>
   </g>
   <g id="patch_33">
    <path d="M 113.182785 86.579333 
L 116.411979 86.579333 
L 116.411979 73.126966 
L 113.182785 73.126966 
z
" clip-path="url(#pe237eaf752)" style="fill: #696969"/>
   </g>
   <g id="patch_34">
    <path d="M 115.201031 86.579333 
L 118.430225 86.579333 
L 118.430225 79.012377 
L 115.201031 79.012377 
z
" clip-path="url(#pe237eaf752)" style="fill: #696969"/>
   </g>
   <g id="patch_35">
    <path d="M 117.219277 86.579333 
L 120.448471 86.579333 
L 120.448471 76.069671 
L 117.219277 76.069671 
z
" clip-path="url(#pe237eaf752)" style="fill: #696969"/>
   </g>
   <g id="patch_36">
    <path d="M 119.237524 86.579333 
L 122.466717 86.579333 
L 122.466717 78.171604 
L 119.237524 78.171604 
z
" clip-path="url(#pe237eaf752)" style="fill: #696969"/>
   </g>
   <g id="patch_37">
    <path d="M 121.25577 86.579333 
L 124.484963 86.579333 
L 124.484963 81.534696 
L 121.25577 81.534696 
z
" clip-path="url(#pe237eaf752)" style="fill: #696969"/>
   </g>
   <g id="patch_38">
    <path d="M 123.274016 86.579333 
L 126.503209 86.579333 
L 126.503209 80.273536 
L 123.274016 80.273536 
z
" clip-path="url(#pe237eaf752)" style="fill: #696969"/>
   </g>
   <g id="patch_39">
    <path d="M 125.292262 86.579333 
L 128.521455 86.579333 
L 128.521455 84.897787 
L 125.292262 84.897787 
z
" clip-path="url(#pe237eaf752)" style="fill: #696969"/>
   </g>
   <g id="patch_40">
    <path d="M 127.310508 86.579333 
L 130.539702 86.579333 
L 130.539702 86.579333 
L 127.310508 86.579333 
z
" clip-path="url(#pe237eaf752)" style="fill: #696969"/>
   </g>
   <g id="patch_41">
    <path d="M 129.328754 86.579333 
L 132.557948 86.579333 
L 132.557948 81.114309 
L 129.328754 81.114309 
z
" clip-path="url(#pe237eaf752)" style="fill: #696969"/>
   </g>
   <g id="patch_42">
    <path d="M 131.347 86.579333 
L 134.576194 86.579333 
L 134.576194 85.73856 
L 131.347 85.73856 
z
" clip-path="url(#pe237eaf752)" style="fill: #696969"/>
   </g>
   <g id="patch_43">
    <path d="M 133.365246 86.579333 
L 136.59444 86.579333 
L 136.59444 83.216242 
L 133.365246 83.216242 
z
" clip-path="url(#pe237eaf752)" style="fill: #696969"/>
   </g>
   <g id="patch_44">
    <path d="M 135.383492 86.579333 
L 138.612686 86.579333 
L 138.612686 84.057014 
L 135.383492 84.057014 
z
" clip-path="url(#pe237eaf752)" style="fill: #696969"/>
   </g>
   <g id="patch_45">
    <path d="M 137.401738 86.579333 
L 140.630932 86.579333 
L 140.630932 86.579333 
L 137.401738 86.579333 
z
" clip-path="url(#pe237eaf752)" style="fill: #696969"/>
   </g>
   <g id="patch_46">
    <path d="M 139.419984 86.579333 
L 142.649178 86.579333 
L 142.649178 86.579333 
L 139.419984 86.579333 
z
" clip-path="url(#pe237eaf752)" style="fill: #696969"/>
   </g>
   <g id="patch_47">
    <path d="M 141.43823 86.579333 
L 144.667424 86.579333 
L 144.667424 77.330831 
L 141.43823 77.330831 
z
" clip-path="url(#pe237eaf752)" style="fill: #696969"/>
   </g>
   <g id="patch_48">
    <path d="M 143.456476 86.579333 
L 146.68567 86.579333 
L 146.68567 80.273536 
L 143.456476 80.273536 
z
" clip-path="url(#pe237eaf752)" style="fill: #696969"/>
   </g>
   <g id="patch_49">
    <path d="M 145.474723 86.579333 
L 148.703916 86.579333 
L 148.703916 78.171604 
L 145.474723 78.171604 
z
" clip-path="url(#pe237eaf752)" style="fill: #696969"/>
   </g>
   <g id="patch_50">
    <path d="M 147.492969 86.579333 
L 150.722162 86.579333 
L 150.722162 73.126966 
L 147.492969 73.126966 
z
" clip-path="url(#pe237eaf752)" style="fill: #696969"/>
   </g>
   <g id="patch_51">
    <path d="M 149.511215 86.579333 
L 152.740408 86.579333 
L 152.740408 69.763874 
L 149.511215 69.763874 
z
" clip-path="url(#pe237eaf752)" style="fill: #696969"/>
   </g>
   <g id="patch_52">
    <path d="M 151.529461 86.579333 
L 154.758654 86.579333 
L 154.758654 76.069671 
L 151.529461 76.069671 
z
" clip-path="url(#pe237eaf752)" style="fill: #696969"/>
   </g>
   <g id="patch_53">
    <path d="M 153.547707 86.579333 
L 156.776901 86.579333 
L 156.776901 70.604647 
L 153.547707 70.604647 
z
" clip-path="url(#pe237eaf752)" style="fill: #696969"/>
   </g>
   <g id="patch_54">
    <path d="M 155.565953 86.579333 
L 158.795147 86.579333 
L 158.795147 68.923101 
L 155.565953 68.923101 
z
" clip-path="url(#pe237eaf752)" style="fill: #696969"/>
   </g>
   <g id="patch_55">
    <path d="M 157.584199 86.579333 
L 160.813393 86.579333 
L 160.813393 68.502715 
L 157.584199 68.502715 
z
" clip-path="url(#pe237eaf752)" style="fill: #696969"/>
   </g>
   <g id="patch_56">
    <path d="M 159.602445 86.579333 
L 162.831639 86.579333 
L 162.831639 67.241556 
L 159.602445 67.241556 
z
" clip-path="url(#pe237eaf752)" style="fill: #696969"/>
   </g>
   <g id="patch_57">
    <path d="M 161.620691 86.579333 
L 164.849885 86.579333 
L 164.849885 65.980396 
L 161.620691 65.980396 
z
" clip-path="url(#pe237eaf752)" style="fill: #696969"/>
   </g>
   <g id="patch_58">
    <path d="M 163.638937 86.579333 
L 166.868131 86.579333 
L 166.868131 77.330831 
L 163.638937 77.330831 
z
" clip-path="url(#pe237eaf752)" style="fill: #696969"/>
   </g>
   <g id="patch_59">
    <path d="M 165.657183 86.579333 
L 168.886377 86.579333 
L 168.886377 76.910444 
L 165.657183 76.910444 
z
" clip-path="url(#pe237eaf752)" style="fill: #696969"/>
   </g>
   <g id="patch_60">
    <path d="M 167.675429 86.579333 
L 170.904623 86.579333 
L 170.904623 85.318174 
L 167.675429 85.318174 
z
" clip-path="url(#pe237eaf752)" style="fill: #696969"/>
   </g>
   <g id="patch_61">
    <path d="M 169.693675 86.579333 
L 172.922869 86.579333 
L 172.922869 80.273536 
L 169.693675 80.273536 
z
" clip-path="url(#pe237eaf752)" style="fill: #696969"/>
   </g>
   <g id="patch_62">
    <path d="M 171.711921 86.579333 
L 174.941115 86.579333 
L 174.941115 83.216242 
L 171.711921 83.216242 
z
" clip-path="url(#pe237eaf752)" style="fill: #696969"/>
   </g>
   <g id="patch_63">
    <path d="M 173.730168 86.579333 
L 176.959361 86.579333 
L 176.959361 83.636628 
L 173.730168 83.636628 
z
" clip-path="url(#pe237eaf752)" style="fill: #696969"/>
   </g>
   <g id="patch_64">
    <path d="M 175.748414 86.579333 
L 178.977607 86.579333 
L 178.977607 85.318174 
L 175.748414 85.318174 
z
" clip-path="url(#pe237eaf752)" style="fill: #696969"/>
   </g>
   <g id="patch_65">
    <path d="M 177.76666 86.579333 
L 180.995853 86.579333 
L 180.995853 81.955082 
L 177.76666 81.955082 
z
" clip-path="url(#pe237eaf752)" style="fill: #696969"/>
   </g>
   <g id="patch_66">
    <path d="M 179.784906 86.579333 
L 183.014099 86.579333 
L 183.014099 83.636628 
L 179.784906 83.636628 
z
" clip-path="url(#pe237eaf752)" style="fill: #696969"/>
   </g>
   <g id="patch_67">
    <path d="M 181.803152 86.579333 
L 185.032346 86.579333 
L 185.032346 83.216242 
L 181.803152 83.216242 
z
" clip-path="url(#pe237eaf752)" style="fill: #696969"/>
   </g>
   <g id="patch_68">
    <path d="M 183.821398 86.579333 
L 187.050592 86.579333 
L 187.050592 84.897787 
L 183.821398 84.897787 
z
" clip-path="url(#pe237eaf752)" style="fill: #696969"/>
   </g>
   <g id="patch_69">
    <path d="M 185.839644 86.579333 
L 189.068838 86.579333 
L 189.068838 86.579333 
L 185.839644 86.579333 
z
" clip-path="url(#pe237eaf752)" style="fill: #696969"/>
   </g>
   <g id="patch_70">
    <path d="M 187.85789 86.579333 
L 191.087084 86.579333 
L 191.087084 86.579333 
L 187.85789 86.579333 
z
" clip-path="url(#pe237eaf752)" style="fill: #696969"/>
   </g>
   <g id="patch_71">
    <path d="M 189.876136 86.579333 
L 193.10533 86.579333 
L 193.10533 86.158947 
L 189.876136 86.158947 
z
" clip-path="url(#pe237eaf752)" style="fill: #696969"/>
   </g>
   <g id="patch_72">
    <path d="M 191.894382 86.579333 
L 195.123576 86.579333 
L 195.123576 85.73856 
L 191.894382 85.73856 
z
" clip-path="url(#pe237eaf752)" style="fill: #696969"/>
   </g>
   <g id="patch_73">
    <path d="M 193.912628 86.579333 
L 197.141822 86.579333 
L 197.141822 80.693923 
L 193.912628 80.693923 
z
" clip-path="url(#pe237eaf752)" style="fill: #696969"/>
   </g>
   <g id="patch_74">
    <path d="M 195.930874 86.579333 
L 199.160068 86.579333 
L 199.160068 86.158947 
L 195.930874 86.158947 
z
" clip-path="url(#pe237eaf752)" style="fill: #696969"/>
   </g>
   <g id="patch_75">
    <path d="M 197.94912 86.579333 
L 201.178314 86.579333 
L 201.178314 85.73856 
L 197.94912 85.73856 
z
" clip-path="url(#pe237eaf752)" style="fill: #696969"/>
   </g>
   <g id="patch_76">
    <path d="M 199.967366 86.579333 
L 203.19656 86.579333 
L 203.19656 78.171604 
L 199.967366 78.171604 
z
" clip-path="url(#pe237eaf752)" style="fill: #696969"/>
   </g>
   <g id="patch_77">
    <path d="M 201.985613 86.579333 
L 205.214806 86.579333 
L 205.214806 75.228899 
L 201.985613 75.228899 
z
" clip-path="url(#pe237eaf752)" style="fill: #696969"/>
   </g>
   <g id="patch_78">
    <path d="M 204.003859 86.579333 
L 207.233052 86.579333 
L 207.233052 68.923101 
L 204.003859 68.923101 
z
" clip-path="url(#pe237eaf752)" style="fill: #696969"/>
   </g>
   <g id="patch_79">
    <path d="M 206.022105 86.579333 
L 209.251298 86.579333 
L 209.251298 76.069671 
L 206.022105 76.069671 
z
" clip-path="url(#pe237eaf752)" style="fill: #696969"/>
   </g>
   <g id="patch_80">
    <path d="M 208.040351 86.579333 
L 211.269545 86.579333 
L 211.269545 66.400783 
L 208.040351 66.400783 
z
" clip-path="url(#pe237eaf752)" style="fill: #696969"/>
   </g>
   <g id="patch_81">
    <path d="M 210.058597 86.579333 
L 213.287791 86.579333 
L 213.287791 67.241556 
L 210.058597 67.241556 
z
" clip-path="url(#pe237eaf752)" style="fill: #696969"/>
   </g>
   <g id="patch_82">
    <path d="M 212.076843 86.579333 
L 215.306037 86.579333 
L 215.306037 67.661942 
L 212.076843 67.661942 
z
" clip-path="url(#pe237eaf752)" style="fill: #696969"/>
   </g>
   <g id="patch_83">
    <path d="M 214.095089 86.579333 
L 217.324283 86.579333 
L 217.324283 70.604647 
L 214.095089 70.604647 
z
" clip-path="url(#pe237eaf752)" style="fill: #696969"/>
   </g>
   <g id="patch_84">
    <path d="M 216.113335 86.579333 
L 219.342529 86.579333 
L 219.342529 71.025034 
L 216.113335 71.025034 
z
" clip-path="url(#pe237eaf752)" style="fill: #696969"/>
   </g>
   <g id="patch_85">
    <path d="M 218.131581 86.579333 
L 221.360775 86.579333 
L 221.360775 77.330831 
L 218.131581 77.330831 
z
" clip-path="url(#pe237eaf752)" style="fill: #696969"/>
   </g>
   <g id="patch_86">
    <path d="M 220.149827 86.579333 
L 223.379021 86.579333 
L 223.379021 79.012377 
L 220.149827 79.012377 
z
" clip-path="url(#pe237eaf752)" style="fill: #696969"/>
   </g>
   <g id="patch_87">
    <path d="M 222.168073 86.579333 
L 225.397267 86.579333 
L 225.397267 79.012377 
L 222.168073 79.012377 
z
" clip-path="url(#pe237eaf752)" style="fill: #696969"/>
   </g>
   <g id="patch_88">
    <path d="M 224.186319 86.579333 
L 227.415513 86.579333 
L 227.415513 84.897787 
L 224.186319 84.897787 
z
" clip-path="url(#pe237eaf752)" style="fill: #696969"/>
   </g>
   <g id="patch_89">
    <path d="M 226.204565 86.579333 
L 229.433759 86.579333 
L 229.433759 85.73856 
L 226.204565 85.73856 
z
" clip-path="url(#pe237eaf752)" style="fill: #696969"/>
   </g>
   <g id="patch_90">
    <path d="M 228.222812 86.579333 
L 231.452005 86.579333 
L 231.452005 83.636628 
L 228.222812 83.636628 
z
" clip-path="url(#pe237eaf752)" style="fill: #696969"/>
   </g>
   <g id="patch_91">
    <path d="M 230.241058 86.579333 
L 233.470251 86.579333 
L 233.470251 86.579333 
L 230.241058 86.579333 
z
" clip-path="url(#pe237eaf752)" style="fill: #696969"/>
   </g>
   <g id="patch_92">
    <path d="M 232.259304 86.579333 
L 235.488497 86.579333 
L 235.488497 84.897787 
L 232.259304 84.897787 
z
" clip-path="url(#pe237eaf752)" style="fill: #696969"/>
   </g>
   <g id="patch_93">
    <path d="M 234.27755 86.579333 
L 237.506743 86.579333 
L 237.506743 86.579333 
L 234.27755 86.579333 
z
" clip-path="url(#pe237eaf752)" style="fill: #696969"/>
   </g>
   <g id="patch_94">
    <path d="M 236.295796 86.579333 
L 239.52499 86.579333 
L 239.52499 83.636628 
L 236.295796 83.636628 
z
" clip-path="url(#pe237eaf752)" style="fill: #696969"/>
   </g>
   <g id="patch_95">
    <path d="M 238.314042 86.579333 
L 241.543236 86.579333 
L 241.543236 86.158947 
L 238.314042 86.158947 
z
" clip-path="url(#pe237eaf752)" style="fill: #696969"/>
   </g>
   <g id="patch_96">
    <path d="M 240.332288 86.579333 
L 243.561482 86.579333 
L 243.561482 85.73856 
L 240.332288 85.73856 
z
" clip-path="url(#pe237eaf752)" style="fill: #696969"/>
   </g>
   <g id="patch_97">
    <path d="M 242.350534 86.579333 
L 245.579728 86.579333 
L 245.579728 86.579333 
L 242.350534 86.579333 
z
" clip-path="url(#pe237eaf752)" style="fill: #696969"/>
   </g>
   <g id="patch_98">
    <path d="M 244.36878 86.579333 
L 247.597974 86.579333 
L 247.597974 79.85315 
L 244.36878 79.85315 
z
" clip-path="url(#pe237eaf752)" style="fill: #696969"/>
   </g>
   <g id="patch_99">
    <path d="M 246.387026 86.579333 
L 249.61622 86.579333 
L 249.61622 79.432763 
L 246.387026 79.432763 
z
" clip-path="url(#pe237eaf752)" style="fill: #696969"/>
   </g>
   <g id="patch_100">
    <path d="M 248.405272 86.579333 
L 251.634466 86.579333 
L 251.634466 83.216242 
L 248.405272 83.216242 
z
" clip-path="url(#pe237eaf752)" style="fill: #696969"/>
   </g>
   <g id="patch_101">
    <path d="M 250.423518 86.579333 
L 253.652712 86.579333 
L 253.652712 76.910444 
L 250.423518 76.910444 
z
" clip-path="url(#pe237eaf752)" style="fill: #696969"/>
   </g>
   <g id="patch_102">
    <path d="M 252.441764 86.579333 
L 255.670958 86.579333 
L 255.670958 73.126966 
L 252.441764 73.126966 
z
" clip-path="url(#pe237eaf752)" style="fill: #696969"/>
   </g>
   <g id="patch_103">
    <path d="M 254.46001 86.579333 
L 257.689204 86.579333 
L 257.689204 73.547353 
L 254.46001 73.547353 
z
" clip-path="url(#pe237eaf752)" style="fill: #696969"/>
   </g>
   <g id="patch_104">
    <path d="M 256.478257 86.579333 
L 259.70745 86.579333 
L 259.70745 73.967739 
L 256.478257 73.967739 
z
" clip-path="url(#pe237eaf752)" style="fill: #696969"/>
   </g>
   <g id="patch_105">
    <path d="M 258.496503 86.579333 
L 261.725696 86.579333 
L 261.725696 71.025034 
L 258.496503 71.025034 
z
" clip-path="url(#pe237eaf752)" style="fill: #696969"/>
   </g>
   <g id="patch_106">
    <path d="M 260.514749 86.579333 
L 263.743942 86.579333 
L 263.743942 61.776531 
L 260.514749 61.776531 
z
" clip-path="url(#pe237eaf752)" style="fill: #696969"/>
   </g>
   <g id="patch_107">
    <path d="M 262.532995 86.579333 
L 265.762188 86.579333 
L 265.762188 71.025034 
L 262.532995 71.025034 
z
" clip-path="url(#pe237eaf752)" style="fill: #696969"/>
   </g>
   <g id="patch_108">
    <path d="M 264.551241 86.579333 
L 267.780435 86.579333 
L 267.780435 65.56001 
L 264.551241 65.56001 
z
" clip-path="url(#pe237eaf752)" style="fill: #696969"/>
   </g>
   <g id="patch_109">
    <path d="M 266.569487 86.579333 
L 269.798681 86.579333 
L 269.798681 70.184261 
L 266.569487 70.184261 
z
" clip-path="url(#pe237eaf752)" style="fill: #696969"/>
   </g>
   <g id="patch_110">
    <path d="M 268.587733 86.579333 
L 271.816927 86.579333 
L 271.816927 73.547353 
L 268.587733 73.547353 
z
" clip-path="url(#pe237eaf752)" style="fill: #696969"/>
   </g>
   <g id="patch_111">
    <path d="M 270.605979 86.579333 
L 273.835173 86.579333 
L 273.835173 72.286193 
L 270.605979 72.286193 
z
" clip-path="url(#pe237eaf752)" style="fill: #696969"/>
   </g>
   <g id="patch_112">
    <path d="M 272.624225 86.579333 
L 275.853419 86.579333 
L 275.853419 86.579333 
L 272.624225 86.579333 
z
" clip-path="url(#pe237eaf752)" style="fill: #696969"/>
   </g>
   <g id="patch_113">
    <path d="M 274.642471 86.579333 
L 277.871665 86.579333 
L 277.871665 78.171604 
L 274.642471 78.171604 
z
" clip-path="url(#pe237eaf752)" style="fill: #696969"/>
   </g>
   <g id="patch_114">
    <path d="M 276.660717 86.579333 
L 279.889911 86.579333 
L 279.889911 84.897787 
L 276.660717 84.897787 
z
" clip-path="url(#pe237eaf752)" style="fill: #696969"/>
   </g>
   <g id="patch_115">
    <path d="M 278.678963 86.579333 
L 281.908157 86.579333 
L 281.908157 83.216242 
L 278.678963 83.216242 
z
" clip-path="url(#pe237eaf752)" style="fill: #696969"/>
   </g>
   <g id="patch_116">
    <path d="M 280.697209 86.579333 
L 283.926403 86.579333 
L 283.926403 86.579333 
L 280.697209 86.579333 
z
" clip-path="url(#pe237eaf752)" style="fill: #696969"/>
   </g>
   <g id="patch_117">
    <path d="M 282.715455 86.579333 
L 285.944649 86.579333 
L 285.944649 86.579333 
L 282.715455 86.579333 
z
" clip-path="url(#pe237eaf752)" style="fill: #696969"/>
   </g>
   <g id="patch_118">
    <path d="M 284.733702 86.579333 
L 287.962895 86.579333 
L 287.962895 82.375469 
L 284.733702 82.375469 
z
" clip-path="url(#pe237eaf752)" style="fill: #696969"/>
   </g>
   <g id="patch_119">
    <path d="M 286.751948 86.579333 
L 289.981141 86.579333 
L 289.981141 86.579333 
L 286.751948 86.579333 
z
" clip-path="url(#pe237eaf752)" style="fill: #696969"/>
   </g>
   <g id="patch_120">
    <path d="M 288.770194 86.579333 
L 291.999387 86.579333 
L 291.999387 86.579333 
L 288.770194 86.579333 
z
" clip-path="url(#pe237eaf752)" style="fill: #696969"/>
   </g>
   <g id="patch_121">
    <path d="M 290.78844 86.579333 
L 294.017634 86.579333 
L 294.017634 86.579333 
L 290.78844 86.579333 
z
" clip-path="url(#pe237eaf752)" style="fill: #696969"/>
   </g>
   <g id="patch_122">
    <path d="M 292.806686 86.579333 
L 296.03588 86.579333 
L 296.03588 84.057014 
L 292.806686 84.057014 
z
" clip-path="url(#pe237eaf752)" style="fill: #696969"/>
   </g>
   <g id="patch_123">
    <path d="M 294.824932 86.579333 
L 298.054126 86.579333 
L 298.054126 86.579333 
L 294.824932 86.579333 
z
" clip-path="url(#pe237eaf752)" style="fill: #696969"/>
   </g>
   <g id="patch_124">
    <path d="M 296.843178 86.579333 
L 300.072372 86.579333 
L 300.072372 85.318174 
L 296.843178 85.318174 
z
" clip-path="url(#pe237eaf752)" style="fill: #696969"/>
   </g>
   <g id="patch_125">
    <path d="M 298.861424 86.579333 
L 302.090618 86.579333 
L 302.090618 84.057014 
L 298.861424 84.057014 
z
" clip-path="url(#pe237eaf752)" style="fill: #696969"/>
   </g>
   <g id="patch_126">
    <path d="M 300.87967 86.579333 
L 304.108864 86.579333 
L 304.108864 74.388126 
L 300.87967 74.388126 
z
" clip-path="url(#pe237eaf752)" style="fill: #696969"/>
   </g>
   <g id="patch_127">
    <path d="M 302.897916 86.579333 
L 306.12711 86.579333 
L 306.12711 78.171604 
L 302.897916 78.171604 
z
" clip-path="url(#pe237eaf752)" style="fill: #696969"/>
   </g>
   <g id="patch_128">
    <path d="M 304.916162 86.579333 
L 308.145356 86.579333 
L 308.145356 78.171604 
L 304.916162 78.171604 
z
" clip-path="url(#pe237eaf752)" style="fill: #696969"/>
   </g>
   <g id="patch_129">
    <path d="M 306.934408 86.579333 
L 310.163602 86.579333 
L 310.163602 71.44542 
L 306.934408 71.44542 
z
" clip-path="url(#pe237eaf752)" style="fill: #696969"/>
   </g>
   <g id="patch_130">
    <path d="M 308.952654 86.579333 
L 312.181848 86.579333 
L 312.181848 72.70658 
L 308.952654 72.70658 
z
" clip-path="url(#pe237eaf752)" style="fill: #696969"/>
   </g>
   <g id="patch_131">
    <path d="M 310.970901 86.579333 
L 314.200094 86.579333 
L 314.200094 68.923101 
L 310.970901 68.923101 
z
" clip-path="url(#pe237eaf752)" style="fill: #696969"/>
   </g>
   <g id="patch_132">
    <path d="M 312.989147 86.579333 
L 316.21834 86.579333 
L 316.21834 68.082329 
L 312.989147 68.082329 
z
" clip-path="url(#pe237eaf752)" style="fill: #696969"/>
   </g>
   <g id="patch_133">
    <path d="M 315.007393 86.579333 
L 318.236586 86.579333 
L 318.236586 67.661942 
L 315.007393 67.661942 
z
" clip-path="url(#pe237eaf752)" style="fill: #696969"/>
   </g>
   <g id="patch_134">
    <path d="M 317.025639 86.579333 
L 320.254832 86.579333 
L 320.254832 66.821169 
L 317.025639 66.821169 
z
" clip-path="url(#pe237eaf752)" style="fill: #696969"/>
   </g>
   <g id="patch_135">
    <path d="M 319.043885 86.579333 
L 322.273079 86.579333 
L 322.273079 72.70658 
L 319.043885 72.70658 
z
" clip-path="url(#pe237eaf752)" style="fill: #696969"/>
   </g>
   <g id="patch_136">
    <path d="M 321.062131 86.579333 
L 324.291325 86.579333 
L 324.291325 75.649285 
L 321.062131 75.649285 
z
" clip-path="url(#pe237eaf752)" style="fill: #696969"/>
   </g>
   <g id="patch_137">
    <path d="M 323.080377 86.579333 
L 326.309571 86.579333 
L 326.309571 81.955082 
L 323.080377 81.955082 
z
" clip-path="url(#pe237eaf752)" style="fill: #696969"/>
   </g>
   <g id="patch_138">
    <path d="M 325.098623 86.579333 
L 328.327817 86.579333 
L 328.327817 81.534696 
L 325.098623 81.534696 
z
" clip-path="url(#pe237eaf752)" style="fill: #696969"/>
   </g>
   <g id="patch_139">
    <path d="M 327.116869 86.579333 
L 330.346063 86.579333 
L 330.346063 80.693923 
L 327.116869 80.693923 
z
" clip-path="url(#pe237eaf752)" style="fill: #696969"/>
   </g>
   <g id="patch_140">
    <path d="M 329.135115 86.579333 
L 332.364309 86.579333 
L 332.364309 80.693923 
L 329.135115 80.693923 
z
" clip-path="url(#pe237eaf752)" style="fill: #696969"/>
   </g>
   <g id="patch_141">
    <path d="M 331.153361 86.579333 
L 334.382555 86.579333 
L 334.382555 79.432763 
L 331.153361 79.432763 
z
" clip-path="url(#pe237eaf752)" style="fill: #696969"/>
   </g>
   <g id="patch_142">
    <path d="M 333.171607 86.579333 
L 336.400801 86.579333 
L 336.400801 86.579333 
L 333.171607 86.579333 
z
" clip-path="url(#pe237eaf752)" style="fill: #696969"/>
   </g>
   <g id="patch_143">
    <path d="M 335.189853 86.579333 
L 338.419047 86.579333 
L 338.419047 80.273536 
L 335.189853 80.273536 
z
" clip-path="url(#pe237eaf752)" style="fill: #696969"/>
   </g>
   <g id="patch_144">
    <path d="M 337.208099 86.579333 
L 340.437293 86.579333 
L 340.437293 84.897787 
L 337.208099 84.897787 
z
" clip-path="url(#pe237eaf752)" style="fill: #696969"/>
   </g>
   <g id="patch_145">
    <path d="M 339.226346 86.579333 
L 342.455539 86.579333 
L 342.455539 86.579333 
L 339.226346 86.579333 
z
" clip-path="url(#pe237eaf752)" style="fill: #696969"/>
   </g>
   <g id="patch_146">
    <path d="M 341.244592 86.579333 
L 344.473785 86.579333 
L 344.473785 84.477401 
L 341.244592 84.477401 
z
" clip-path="url(#pe237eaf752)" style="fill: #696969"/>
   </g>
   <g id="patch_147">
    <path d="M 343.262838 86.579333 
L 346.492031 86.579333 
L 346.492031 85.73856 
L 343.262838 85.73856 
z
" clip-path="url(#pe237eaf752)" style="fill: #696969"/>
   </g>
   <g id="patch_148">
    <path d="M 345.281084 86.579333 
L 348.510277 86.579333 
L 348.510277 86.579333 
L 345.281084 86.579333 
z
" clip-path="url(#pe237eaf752)" style="fill: #696969"/>
   </g>
   <g id="patch_149">
    <path d="M 347.29933 86.579333 
L 350.528524 86.579333 
L 350.528524 76.910444 
L 347.29933 76.910444 
z
" clip-path="url(#pe237eaf752)" style="fill: #696969"/>
   </g>
   <g id="patch_150">
    <path d="M 349.317576 86.579333 
L 352.54677 86.579333 
L 352.54677 83.216242 
L 349.317576 83.216242 
z
" clip-path="url(#pe237eaf752)" style="fill: #696969"/>
   </g>
   <g id="patch_151">
    <path d="M 351.335822 86.579333 
L 354.565016 86.579333 
L 354.565016 84.477401 
L 351.335822 84.477401 
z
" clip-path="url(#pe237eaf752)" style="fill: #696969"/>
   </g>
   <g id="patch_152">
    <path d="M 353.354068 86.579333 
L 356.583262 86.579333 
L 356.583262 81.534696 
L 353.354068 81.534696 
z
" clip-path="url(#pe237eaf752)" style="fill: #696969"/>
   </g>
   <g id="patch_153">
    <path d="M 355.372314 86.579333 
L 358.601508 86.579333 
L 358.601508 77.330831 
L 355.372314 77.330831 
z
" clip-path="url(#pe237eaf752)" style="fill: #696969"/>
   </g>
   <g id="patch_154">
    <path d="M 357.39056 86.579333 
L 360.619754 86.579333 
L 360.619754 76.490058 
L 357.39056 76.490058 
z
" clip-path="url(#pe237eaf752)" style="fill: #696969"/>
   </g>
   <g id="patch_155">
    <path d="M 359.408806 86.579333 
L 362.638 86.579333 
L 362.638 68.502715 
L 359.408806 68.502715 
z
" clip-path="url(#pe237eaf752)" style="fill: #696969"/>
   </g>
   <g id="patch_156">
    <path d="M 361.427052 86.579333 
L 364.656246 86.579333 
L 364.656246 67.661942 
L 361.427052 67.661942 
z
" clip-path="url(#pe237eaf752)" style="fill: #696969"/>
   </g>
   <g id="patch_157">
    <path d="M 363.445298 86.579333 
L 366.674492 86.579333 
L 366.674492 65.139623 
L 363.445298 65.139623 
z
" clip-path="url(#pe237eaf752)" style="fill: #696969"/>
   </g>
   <g id="patch_158">
    <path d="M 365.463545 86.579333 
L 368.692738 86.579333 
L 368.692738 57.572667 
L 365.463545 57.572667 
z
" clip-path="url(#pe237eaf752)" style="fill: #696969"/>
   </g>
   <g id="patch_159">
    <path d="M 367.481791 86.579333 
L 370.710984 86.579333 
L 370.710984 77.330831 
L 367.481791 77.330831 
z
" clip-path="url(#pe237eaf752)" style="fill: #696969"/>
   </g>
   <g id="patch_160">
    <path d="M 369.500037 86.579333 
L 372.72923 86.579333 
L 372.72923 66.821169 
L 369.500037 66.821169 
z
" clip-path="url(#pe237eaf752)" style="fill: #696969"/>
   </g>
   <g id="patch_161">
    <path d="M 371.518283 86.579333 
L 374.747476 86.579333 
L 374.747476 73.967739 
L 371.518283 73.967739 
z
" clip-path="url(#pe237eaf752)" style="fill: #696969"/>
   </g>
   <g id="patch_162">
    <path d="M 373.536529 86.579333 
L 376.765723 86.579333 
L 376.765723 79.85315 
L 373.536529 79.85315 
z
" clip-path="url(#pe237eaf752)" style="fill: #696969"/>
   </g>
   <g id="patch_163">
    <path d="M 375.554775 86.579333 
L 378.783969 86.579333 
L 378.783969 78.171604 
L 375.554775 78.171604 
z
" clip-path="url(#pe237eaf752)" style="fill: #696969"/>
   </g>
   <g id="patch_164">
    <path d="M 377.573021 86.579333 
L 380.802215 86.579333 
L 380.802215 81.114309 
L 377.573021 81.114309 
z
" clip-path="url(#pe237eaf752)" style="fill: #696969"/>
   </g>
   <g id="patch_165">
    <path d="M 379.591267 86.579333 
L 382.820461 86.579333 
L 382.820461 76.910444 
L 379.591267 76.910444 
z
" clip-path="url(#pe237eaf752)" style="fill: #696969"/>
   </g>
   <g id="patch_166">
    <path d="M 381.609513 86.579333 
L 384.838707 86.579333 
L 384.838707 85.318174 
L 381.609513 85.318174 
z
" clip-path="url(#pe237eaf752)" style="fill: #696969"/>
   </g>
   <g id="patch_167">
    <path d="M 383.627759 86.579333 
L 386.856953 86.579333 
L 386.856953 84.477401 
L 383.627759 84.477401 
z
" clip-path="url(#pe237eaf752)" style="fill: #696969"/>
   </g>
   <g id="patch_168">
    <path d="M 385.646005 86.579333 
L 388.875199 86.579333 
L 388.875199 82.375469 
L 385.646005 82.375469 
z
" clip-path="url(#pe237eaf752)" style="fill: #696969"/>
   </g>
   <g id="patch_169">
    <path d="M 387.664251 86.579333 
L 390.893445 86.579333 
L 390.893445 82.795855 
L 387.664251 82.795855 
z
" clip-path="url(#pe237eaf752)" style="fill: #696969"/>
   </g>
   <g id="patch_170">
    <path d="M 389.682497 86.579333 
L 392.911691 86.579333 
L 392.911691 86.579333 
L 389.682497 86.579333 
z
" clip-path="url(#pe237eaf752)" style="fill: #696969"/>
   </g>
   <g id="patch_171">
    <path d="M 391.700743 86.579333 
L 394.929937 86.579333 
L 394.929937 86.579333 
L 391.700743 86.579333 
z
" clip-path="url(#pe237eaf752)" style="fill: #696969"/>
   </g>
   <g id="patch_172">
    <path d="M 393.71899 86.579333 
L 396.948183 86.579333 
L 396.948183 86.579333 
L 393.71899 86.579333 
z
" clip-path="url(#pe237eaf752)" style="fill: #696969"/>
   </g>
   <g id="patch_173">
    <path d="M 395.737236 86.579333 
L 398.966429 86.579333 
L 398.966429 84.897787 
L 395.737236 84.897787 
z
" clip-path="url(#pe237eaf752)" style="fill: #696969"/>
   </g>
   <g id="patch_174">
    <path d="M 397.755482 86.579333 
L 400.984675 86.579333 
L 400.984675 86.579333 
L 397.755482 86.579333 
z
" clip-path="url(#pe237eaf752)" style="fill: #696969"/>
   </g>
   <g id="patch_175">
    <path d="M 399.773728 86.579333 
L 403.002921 86.579333 
L 403.002921 80.693923 
L 399.773728 80.693923 
z
" clip-path="url(#pe237eaf752)" style="fill: #696969"/>
   </g>
   <g id="patch_176">
    <path d="M 401.791974 86.579333 
L 405.021168 86.579333 
L 405.021168 82.795855 
L 401.791974 82.795855 
z
" clip-path="url(#pe237eaf752)" style="fill: #696969"/>
   </g>
   <g id="patch_177">
    <path d="M 403.81022 86.579333 
L 407.039414 86.579333 
L 407.039414 81.114309 
L 403.81022 81.114309 
z
" clip-path="url(#pe237eaf752)" style="fill: #696969"/>
   </g>
   <g id="patch_178">
    <path d="M 405.828466 86.579333 
L 409.05766 86.579333 
L 409.05766 77.751217 
L 405.828466 77.751217 
z
" clip-path="url(#pe237eaf752)" style="fill: #696969"/>
   </g>
   <g id="patch_179">
    <path d="M 407.846712 86.579333 
L 411.075906 86.579333 
L 411.075906 71.025034 
L 407.846712 71.025034 
z
" clip-path="url(#pe237eaf752)" style="fill: #696969"/>
   </g>
   <g id="patch_180">
    <path d="M 409.864958 86.579333 
L 413.094152 86.579333 
L 413.094152 71.44542 
L 409.864958 71.44542 
z
" clip-path="url(#pe237eaf752)" style="fill: #696969"/>
   </g>
   <g id="patch_181">
    <path d="M 411.883204 86.579333 
L 415.112398 86.579333 
L 415.112398 71.44542 
L 411.883204 71.44542 
z
" clip-path="url(#pe237eaf752)" style="fill: #696969"/>
   </g>
   <g id="patch_182">
    <path d="M 413.90145 86.579333 
L 417.130644 86.579333 
L 417.130644 71.865807 
L 413.90145 71.865807 
z
" clip-path="url(#pe237eaf752)" style="fill: #696969"/>
   </g>
   <g id="patch_183">
    <path d="M 415.919696 86.579333 
L 419.14889 86.579333 
L 419.14889 66.400783 
L 415.919696 66.400783 
z
" clip-path="url(#pe237eaf752)" style="fill: #696969"/>
   </g>
   <g id="patch_184">
    <path d="M 417.937942 86.579333 
L 421.167136 86.579333 
L 421.167136 67.241556 
L 417.937942 67.241556 
z
" clip-path="url(#pe237eaf752)" style="fill: #696969"/>
   </g>
   <g id="patch_185">
    <path d="M 419.956188 86.579333 
L 423.185382 86.579333 
L 423.185382 66.400783 
L 419.956188 66.400783 
z
" clip-path="url(#pe237eaf752)" style="fill: #696969"/>
   </g>
   <g id="patch_186">
    <path d="M 421.974435 86.579333 
L 425.203628 86.579333 
L 425.203628 71.025034 
L 421.974435 71.025034 
z
" clip-path="url(#pe237eaf752)" style="fill: #696969"/>
   </g>
   <g id="patch_187">
    <path d="M 423.992681 86.579333 
L 427.221874 86.579333 
L 427.221874 69.763874 
L 423.992681 69.763874 
z
" clip-path="url(#pe237eaf752)" style="fill: #696969"/>
   </g>
   <g id="patch_188">
    <path d="M 426.010927 86.579333 
L 429.24012 86.579333 
L 429.24012 78.59199 
L 426.010927 78.59199 
z
" clip-path="url(#pe237eaf752)" style="fill: #696969"/>
   </g>
   <g id="patch_189">
    <path d="M 428.029173 86.579333 
L 431.258366 86.579333 
L 431.258366 78.171604 
L 428.029173 78.171604 
z
" clip-path="url(#pe237eaf752)" style="fill: #696969"/>
   </g>
   <g id="patch_190">
    <path d="M 430.047419 86.579333 
L 433.276613 86.579333 
L 433.276613 81.955082 
L 430.047419 81.955082 
z
" clip-path="url(#pe237eaf752)" style="fill: #696969"/>
   </g>
   <g id="patch_191">
    <path d="M 432.065665 86.579333 
L 435.294859 86.579333 
L 435.294859 82.795855 
L 432.065665 82.795855 
z
" clip-path="url(#pe237eaf752)" style="fill: #696969"/>
   </g>
   <g id="patch_192">
    <path d="M 434.083911 86.579333 
L 437.313105 86.579333 
L 437.313105 82.375469 
L 434.083911 82.375469 
z
" clip-path="url(#pe237eaf752)" style="fill: #696969"/>
   </g>
   <g id="patch_193">
    <path d="M 436.102157 86.579333 
L 439.331351 86.579333 
L 439.331351 79.85315 
L 436.102157 79.85315 
z
" clip-path="url(#pe237eaf752)" style="fill: #696969"/>
   </g>
   <g id="patch_194">
    <path d="M 438.120403 86.579333 
L 441.349597 86.579333 
L 441.349597 86.579333 
L 438.120403 86.579333 
z
" clip-path="url(#pe237eaf752)" style="fill: #696969"/>
   </g>
   <g id="matplotlib.axis_1">
    <g id="xtick_1">
     <g id="line2d_1">
      <defs>
       <path id="mcd816a7625" d="M 0 0 
L 0 3.5 
" style="stroke: #000000; stroke-width: 0.8"/>
      </defs>
      <g>
       <use xlink:href="#mcd816a7625" x="54.25" y="89.48" style="stroke: #000000; stroke-width: 0.8"/>
      </g>
     </g>
     <g id="text_1">
      <!-- 0 -->
      <g transform="translate(51.06875 104.078438) scale(0.1 -0.1)">
       <defs>
        <path id="DejaVuSans-30" d="M 2034 4250 
Q 1547 4250 1301 3770 
Q 1056 3291 1056 2328 
Q 1056 1369 1301 889 
Q 1547 409 2034 409 
Q 2525 409 2770 889 
Q 3016 1369 3016 2328 
Q 3016 3291 2770 3770 
Q 2525 4250 2034 4250 
z
M 2034 4750 
Q 2819 4750 3233 4129 
Q 3647 3509 3647 2328 
Q 3647 1150 3233 529 
Q 2819 -91 2034 -91 
Q 1250 -91 836 529 
Q 422 1150 422 2328 
Q 422 3509 836 4129 
Q 1250 4750 2034 4750 
z
" transform="scale(0.015625)"/>
       </defs>
       <use xlink:href="#DejaVuSans-30"/>
      </g>
     </g>
    </g>
    <g id="xtick_2">
     <g id="line2d_2">
      <g>
       <use xlink:href="#mcd816a7625" x="134.979843" y="89.48" style="stroke: #000000; stroke-width: 0.8"/>
      </g>
     </g>
     <g id="text_2">
      <!-- 20 -->
      <g transform="translate(128.617343 104.078438) scale(0.1 -0.1)">
       <defs>
        <path id="DejaVuSans-32" d="M 1228 531 
L 3431 531 
L 3431 0 
L 469 0 
L 469 531 
Q 828 903 1448 1529 
Q 2069 2156 2228 2338 
Q 2531 2678 2651 2914 
Q 2772 3150 2772 3378 
Q 2772 3750 2511 3984 
Q 2250 4219 1831 4219 
Q 1534 4219 1204 4116 
Q 875 4013 500 3803 
L 500 4441 
Q 881 4594 1212 4672 
Q 1544 4750 1819 4750 
Q 2544 4750 2975 4387 
Q 3406 4025 3406 3419 
Q 3406 3131 3298 2873 
Q 3191 2616 2906 2266 
Q 2828 2175 2409 1742 
Q 1991 1309 1228 531 
z
" transform="scale(0.015625)"/>
       </defs>
       <use xlink:href="#DejaVuSans-32"/>
       <use xlink:href="#DejaVuSans-30" x="63.623047"/>
      </g>
     </g>
    </g>
    <g id="xtick_3">
     <g id="line2d_3">
      <g>
       <use xlink:href="#mcd816a7625" x="215.709686" y="89.48" style="stroke: #000000; stroke-width: 0.8"/>
      </g>
     </g>
     <g id="text_3">
      <!-- 40 -->
      <g transform="translate(209.347186 104.078438) scale(0.1 -0.1)">
       <defs>
        <path id="DejaVuSans-34" d="M 2419 4116 
L 825 1625 
L 2419 1625 
L 2419 4116 
z
M 2253 4666 
L 3047 4666 
L 3047 1625 
L 3713 1625 
L 3713 1100 
L 3047 1100 
L 3047 0 
L 2419 0 
L 2419 1100 
L 313 1100 
L 313 1709 
L 2253 4666 
z
" transform="scale(0.015625)"/>
       </defs>
       <use xlink:href="#DejaVuSans-34"/>
       <use xlink:href="#DejaVuSans-30" x="63.623047"/>
      </g>
     </g>
    </g>
    <g id="xtick_4">
     <g id="line2d_4">
      <g>
       <use xlink:href="#mcd816a7625" x="296.439529" y="89.48" style="stroke: #000000; stroke-width: 0.8"/>
      </g>
     </g>
     <g id="text_4">
      <!-- 60 -->
      <g transform="translate(290.077029 104.078438) scale(0.1 -0.1)">
       <defs>
        <path id="DejaVuSans-36" d="M 2113 2584 
Q 1688 2584 1439 2293 
Q 1191 2003 1191 1497 
Q 1191 994 1439 701 
Q 1688 409 2113 409 
Q 2538 409 2786 701 
Q 3034 994 3034 1497 
Q 3034 2003 2786 2293 
Q 2538 2584 2113 2584 
z
M 3366 4563 
L 3366 3988 
Q 3128 4100 2886 4159 
Q 2644 4219 2406 4219 
Q 1781 4219 1451 3797 
Q 1122 3375 1075 2522 
Q 1259 2794 1537 2939 
Q 1816 3084 2150 3084 
Q 2853 3084 3261 2657 
Q 3669 2231 3669 1497 
Q 3669 778 3244 343 
Q 2819 -91 2113 -91 
Q 1303 -91 875 529 
Q 447 1150 447 2328 
Q 447 3434 972 4092 
Q 1497 4750 2381 4750 
Q 2619 4750 2861 4703 
Q 3103 4656 3366 4563 
z
" transform="scale(0.015625)"/>
       </defs>
       <use xlink:href="#DejaVuSans-36"/>
       <use xlink:href="#DejaVuSans-30" x="63.623047"/>
      </g>
     </g>
    </g>
    <g id="xtick_5">
     <g id="line2d_5">
      <g>
       <use xlink:href="#mcd816a7625" x="377.169372" y="89.48" style="stroke: #000000; stroke-width: 0.8"/>
      </g>
     </g>
     <g id="text_5">
      <!-- 80 -->
      <g transform="translate(370.806872 104.078438) scale(0.1 -0.1)">
       <defs>
        <path id="DejaVuSans-38" d="M 2034 2216 
Q 1584 2216 1326 1975 
Q 1069 1734 1069 1313 
Q 1069 891 1326 650 
Q 1584 409 2034 409 
Q 2484 409 2743 651 
Q 3003 894 3003 1313 
Q 3003 1734 2745 1975 
Q 2488 2216 2034 2216 
z
M 1403 2484 
Q 997 2584 770 2862 
Q 544 3141 544 3541 
Q 544 4100 942 4425 
Q 1341 4750 2034 4750 
Q 2731 4750 3128 4425 
Q 3525 4100 3525 3541 
Q 3525 3141 3298 2862 
Q 3072 2584 2669 2484 
Q 3125 2378 3379 2068 
Q 3634 1759 3634 1313 
Q 3634 634 3220 271 
Q 2806 -91 2034 -91 
Q 1263 -91 848 271 
Q 434 634 434 1313 
Q 434 1759 690 2068 
Q 947 2378 1403 2484 
z
M 1172 3481 
Q 1172 3119 1398 2916 
Q 1625 2713 2034 2713 
Q 2441 2713 2670 2916 
Q 2900 3119 2900 3481 
Q 2900 3844 2670 4047 
Q 2441 4250 2034 4250 
Q 1625 4250 1398 4047 
Q 1172 3844 1172 3481 
z
" transform="scale(0.015625)"/>
       </defs>
       <use xlink:href="#DejaVuSans-38"/>
       <use xlink:href="#DejaVuSans-30" x="63.623047"/>
      </g>
     </g>
    </g>
   </g>
   <g id="matplotlib.axis_2">
    <g id="ytick_1">
     <g id="line2d_6">
      <defs>
       <path id="m63b864dc6c" d="M 0 0 
L -3.5 0 
" style="stroke: #000000; stroke-width: 0.8"/>
      </defs>
      <g>
       <use xlink:href="#m63b864dc6c" x="54.25" y="86.579333" style="stroke: #000000; stroke-width: 0.8"/>
      </g>
     </g>
     <g id="text_6">
      <!-- 0 -->
      <g transform="translate(40.8875 90.378552) scale(0.1 -0.1)">
       <use xlink:href="#DejaVuSans-30"/>
      </g>
     </g>
    </g>
    <g id="ytick_2">
     <g id="line2d_7">
      <g>
       <use xlink:href="#m63b864dc6c" x="54.25" y="65.56001" style="stroke: #000000; stroke-width: 0.8"/>
      </g>
     </g>
     <g id="text_7">
      <!-- 50 -->
      <g transform="translate(34.525 69.359228) scale(0.1 -0.1)">
       <defs>
        <path id="DejaVuSans-35" d="M 691 4666 
L 3169 4666 
L 3169 4134 
L 1269 4134 
L 1269 2991 
Q 1406 3038 1543 3061 
Q 1681 3084 1819 3084 
Q 2600 3084 3056 2656 
Q 3513 2228 3513 1497 
Q 3513 744 3044 326 
Q 2575 -91 1722 -91 
Q 1428 -91 1123 -41 
Q 819 9 494 109 
L 494 744 
Q 775 591 1075 516 
Q 1375 441 1709 441 
Q 2250 441 2565 725 
Q 2881 1009 2881 1497 
Q 2881 1984 2565 2268 
Q 2250 2553 1709 2553 
Q 1456 2553 1204 2497 
Q 953 2441 691 2322 
L 691 4666 
z
" transform="scale(0.015625)"/>
       </defs>
       <use xlink:href="#DejaVuSans-35"/>
       <use xlink:href="#DejaVuSans-30" x="63.623047"/>
      </g>
     </g>
    </g>
   </g>
   <g id="line2d_8">
    <path d="M 54.25 78.277199 
L 70.395969 79.217563 
L 78.468953 79.455037 
L 86.541937 79.441248 
L 94.614921 79.179682 
L 104.706152 78.609727 
L 120.85212 77.680865 
L 128.925105 77.459126 
L 136.998089 77.490493 
L 145.071073 77.767039 
L 157.18055 78.475846 
L 169.290026 79.176288 
L 177.36301 79.439914 
L 185.435995 79.4561 
L 193.508979 79.220755 
L 203.600209 78.668436 
L 219.746178 77.72064 
L 227.819162 77.472261 
L 235.892147 77.473669 
L 243.965131 77.724508 
L 254.056361 78.287411 
L 270.20233 79.224482 
L 278.275314 79.457321 
L 286.348298 79.438322 
L 294.421283 79.172284 
L 304.512513 78.599459 
L 320.658482 77.674216 
L 328.731466 77.457189 
L 336.80445 77.493759 
L 344.877435 77.774682 
L 356.986911 78.486216 
L 369.096387 79.183646 
L 377.169372 79.442786 
L 385.242356 79.45376 
L 393.31534 79.213795 
L 403.406571 78.658271 
L 419.552539 77.713537 
L 427.625524 77.469733 
L 435.698508 77.476354 
L 439.735 77.575627 
L 439.735 77.575627 
" clip-path="url(#pe237eaf752)" style="fill: none; stroke: #191970; stroke-width: 3; stroke-linecap: square"/>
   </g>
   <g id="line2d_9">
    <path d="M 131.989606 89.48 
L 131.989606 54.672 
" clip-path="url(#pe237eaf752)" style="fill: none; stroke-dasharray: 7.4,3.2; stroke-dashoffset: 0; stroke: #000000; stroke-opacity: 0.8; stroke-width: 2"/>
   </g>
   <g id="patch_195">
    <path d="M 54.25 89.48 
L 54.25 54.672 
" style="fill: none; stroke: #000000; stroke-width: 0.8; stroke-linejoin: miter; stroke-linecap: square"/>
   </g>
   <g id="patch_196">
    <path d="M 54.25 89.48 
L 439.735 89.48 
" style="fill: none; stroke: #000000; stroke-width: 0.8; stroke-linejoin: miter; stroke-linecap: square"/>
   </g>
   <g id="text_8">
    <!-- 1 -->
    <g transform="translate(244.4475 39.71375) scale(0.08 -0.08)">
     <defs>
      <path id="DejaVuSans-31" d="M 794 531 
L 1825 531 
L 1825 4091 
L 703 3866 
L 703 4441 
L 1819 4666 
L 2450 4666 
L 2450 531 
L 3481 531 
L 3481 0 
L 794 0 
L 794 531 
z
" transform="scale(0.015625)"/>
     </defs>
     <use xlink:href="#DejaVuSans-31"/>
    </g>
    <!-- (AC: 19.26, PR: 24.73 - NS) -->
    <g transform="translate(193.145625 48.672) scale(0.08 -0.08)">
     <defs>
      <path id="DejaVuSans-28" d="M 1984 4856 
Q 1566 4138 1362 3434 
Q 1159 2731 1159 2009 
Q 1159 1288 1364 580 
Q 1569 -128 1984 -844 
L 1484 -844 
Q 1016 -109 783 600 
Q 550 1309 550 2009 
Q 550 2706 781 3412 
Q 1013 4119 1484 4856 
L 1984 4856 
z
" transform="scale(0.015625)"/>
      <path id="DejaVuSans-41" d="M 2188 4044 
L 1331 1722 
L 3047 1722 
L 2188 4044 
z
M 1831 4666 
L 2547 4666 
L 4325 0 
L 3669 0 
L 3244 1197 
L 1141 1197 
L 716 0 
L 50 0 
L 1831 4666 
z
" transform="scale(0.015625)"/>
      <path id="DejaVuSans-43" d="M 4122 4306 
L 4122 3641 
Q 3803 3938 3442 4084 
Q 3081 4231 2675 4231 
Q 1875 4231 1450 3742 
Q 1025 3253 1025 2328 
Q 1025 1406 1450 917 
Q 1875 428 2675 428 
Q 3081 428 3442 575 
Q 3803 722 4122 1019 
L 4122 359 
Q 3791 134 3420 21 
Q 3050 -91 2638 -91 
Q 1578 -91 968 557 
Q 359 1206 359 2328 
Q 359 3453 968 4101 
Q 1578 4750 2638 4750 
Q 3056 4750 3426 4639 
Q 3797 4528 4122 4306 
z
" transform="scale(0.015625)"/>
      <path id="DejaVuSans-3a" d="M 750 794 
L 1409 794 
L 1409 0 
L 750 0 
L 750 794 
z
M 750 3309 
L 1409 3309 
L 1409 2516 
L 750 2516 
L 750 3309 
z
" transform="scale(0.015625)"/>
      <path id="DejaVuSans-20" transform="scale(0.015625)"/>
      <path id="DejaVuSans-39" d="M 703 97 
L 703 672 
Q 941 559 1184 500 
Q 1428 441 1663 441 
Q 2288 441 2617 861 
Q 2947 1281 2994 2138 
Q 2813 1869 2534 1725 
Q 2256 1581 1919 1581 
Q 1219 1581 811 2004 
Q 403 2428 403 3163 
Q 403 3881 828 4315 
Q 1253 4750 1959 4750 
Q 2769 4750 3195 4129 
Q 3622 3509 3622 2328 
Q 3622 1225 3098 567 
Q 2575 -91 1691 -91 
Q 1453 -91 1209 -44 
Q 966 3 703 97 
z
M 1959 2075 
Q 2384 2075 2632 2365 
Q 2881 2656 2881 3163 
Q 2881 3666 2632 3958 
Q 2384 4250 1959 4250 
Q 1534 4250 1286 3958 
Q 1038 3666 1038 3163 
Q 1038 2656 1286 2365 
Q 1534 2075 1959 2075 
z
" transform="scale(0.015625)"/>
      <path id="DejaVuSans-2e" d="M 684 794 
L 1344 794 
L 1344 0 
L 684 0 
L 684 794 
z
" transform="scale(0.015625)"/>
      <path id="DejaVuSans-2c" d="M 750 794 
L 1409 794 
L 1409 256 
L 897 -744 
L 494 -744 
L 750 256 
L 750 794 
z
" transform="scale(0.015625)"/>
      <path id="DejaVuSans-50" d="M 1259 4147 
L 1259 2394 
L 2053 2394 
Q 2494 2394 2734 2622 
Q 2975 2850 2975 3272 
Q 2975 3691 2734 3919 
Q 2494 4147 2053 4147 
L 1259 4147 
z
M 628 4666 
L 2053 4666 
Q 2838 4666 3239 4311 
Q 3641 3956 3641 3272 
Q 3641 2581 3239 2228 
Q 2838 1875 2053 1875 
L 1259 1875 
L 1259 0 
L 628 0 
L 628 4666 
z
" transform="scale(0.015625)"/>
      <path id="DejaVuSans-52" d="M 2841 2188 
Q 3044 2119 3236 1894 
Q 3428 1669 3622 1275 
L 4263 0 
L 3584 0 
L 2988 1197 
Q 2756 1666 2539 1819 
Q 2322 1972 1947 1972 
L 1259 1972 
L 1259 0 
L 628 0 
L 628 4666 
L 2053 4666 
Q 2853 4666 3247 4331 
Q 3641 3997 3641 3322 
Q 3641 2881 3436 2590 
Q 3231 2300 2841 2188 
z
M 1259 4147 
L 1259 2491 
L 2053 2491 
Q 2509 2491 2742 2702 
Q 2975 2913 2975 3322 
Q 2975 3731 2742 3939 
Q 2509 4147 2053 4147 
L 1259 4147 
z
" transform="scale(0.015625)"/>
      <path id="DejaVuSans-37" d="M 525 4666 
L 3525 4666 
L 3525 4397 
L 1831 0 
L 1172 0 
L 2766 4134 
L 525 4134 
L 525 4666 
z
" transform="scale(0.015625)"/>
      <path id="DejaVuSans-33" d="M 2597 2516 
Q 3050 2419 3304 2112 
Q 3559 1806 3559 1356 
Q 3559 666 3084 287 
Q 2609 -91 1734 -91 
Q 1441 -91 1130 -33 
Q 819 25 488 141 
L 488 750 
Q 750 597 1062 519 
Q 1375 441 1716 441 
Q 2309 441 2620 675 
Q 2931 909 2931 1356 
Q 2931 1769 2642 2001 
Q 2353 2234 1838 2234 
L 1294 2234 
L 1294 2753 
L 1863 2753 
Q 2328 2753 2575 2939 
Q 2822 3125 2822 3475 
Q 2822 3834 2567 4026 
Q 2313 4219 1838 4219 
Q 1578 4219 1281 4162 
Q 984 4106 628 3988 
L 628 4550 
Q 988 4650 1302 4700 
Q 1616 4750 1894 4750 
Q 2613 4750 3031 4423 
Q 3450 4097 3450 3541 
Q 3450 3153 3228 2886 
Q 3006 2619 2597 2516 
z
" transform="scale(0.015625)"/>
      <path id="DejaVuSans-2d" d="M 313 2009 
L 1997 2009 
L 1997 1497 
L 313 1497 
L 313 2009 
z
" transform="scale(0.015625)"/>
      <path id="DejaVuSans-4e" d="M 628 4666 
L 1478 4666 
L 3547 763 
L 3547 4666 
L 4159 4666 
L 4159 0 
L 3309 0 
L 1241 3903 
L 1241 0 
L 628 0 
L 628 4666 
z
" transform="scale(0.015625)"/>
      <path id="DejaVuSans-53" d="M 3425 4513 
L 3425 3897 
Q 3066 4069 2747 4153 
Q 2428 4238 2131 4238 
Q 1616 4238 1336 4038 
Q 1056 3838 1056 3469 
Q 1056 3159 1242 3001 
Q 1428 2844 1947 2747 
L 2328 2669 
Q 3034 2534 3370 2195 
Q 3706 1856 3706 1288 
Q 3706 609 3251 259 
Q 2797 -91 1919 -91 
Q 1588 -91 1214 -16 
Q 841 59 441 206 
L 441 856 
Q 825 641 1194 531 
Q 1563 422 1919 422 
Q 2459 422 2753 634 
Q 3047 847 3047 1241 
Q 3047 1584 2836 1778 
Q 2625 1972 2144 2069 
L 1759 2144 
Q 1053 2284 737 2584 
Q 422 2884 422 3419 
Q 422 4038 858 4394 
Q 1294 4750 2059 4750 
Q 2388 4750 2728 4690 
Q 3069 4631 3425 4513 
z
" transform="scale(0.015625)"/>
      <path id="DejaVuSans-29" d="M 513 4856 
L 1013 4856 
Q 1481 4119 1714 3412 
Q 1947 2706 1947 2009 
Q 1947 1309 1714 600 
Q 1481 -109 1013 -844 
L 513 -844 
Q 928 -128 1133 580 
Q 1338 1288 1338 2009 
Q 1338 2731 1133 3434 
Q 928 4138 513 4856 
z
" transform="scale(0.015625)"/>
     </defs>
     <use xlink:href="#DejaVuSans-28"/>
     <use xlink:href="#DejaVuSans-41" x="39.013672"/>
     <use xlink:href="#DejaVuSans-43" x="105.671875"/>
     <use xlink:href="#DejaVuSans-3a" x="175.496094"/>
     <use xlink:href="#DejaVuSans-20" x="209.1875"/>
     <use xlink:href="#DejaVuSans-31" x="240.974609"/>
     <use xlink:href="#DejaVuSans-39" x="304.597656"/>
     <use xlink:href="#DejaVuSans-2e" x="368.220703"/>
     <use xlink:href="#DejaVuSans-32" x="400.007812"/>
     <use xlink:href="#DejaVuSans-36" x="463.630859"/>
     <use xlink:href="#DejaVuSans-2c" x="527.253906"/>
     <use xlink:href="#DejaVuSans-20" x="559.041016"/>
     <use xlink:href="#DejaVuSans-50" x="590.828125"/>
     <use xlink:href="#DejaVuSans-52" x="651.130859"/>
     <use xlink:href="#DejaVuSans-3a" x="717.488281"/>
     <use xlink:href="#DejaVuSans-20" x="751.179688"/>
     <use xlink:href="#DejaVuSans-32" x="782.966797"/>
     <use xlink:href="#DejaVuSans-34" x="846.589844"/>
     <use xlink:href="#DejaVuSans-2e" x="910.212891"/>
     <use xlink:href="#DejaVuSans-37" x="942"/>
     <use xlink:href="#DejaVuSans-33" x="1005.623047"/>
     <use xlink:href="#DejaVuSans-20" x="1069.246094"/>
     <use xlink:href="#DejaVuSans-2d" x="1101.033203"/>
     <use xlink:href="#DejaVuSans-20" x="1137.117188"/>
     <use xlink:href="#DejaVuSans-4e" x="1168.904297"/>
     <use xlink:href="#DejaVuSans-53" x="1243.708984"/>
     <use xlink:href="#DejaVuSans-29" x="1307.185547"/>
    </g>
   </g>
  </g>
  <g id="axes_2">
   <g id="patch_197">
    <path d="M 454.035 89.48 
L 839.52 89.48 
L 839.52 54.672 
L 454.035 54.672 
z
" style="fill: #ffffff"/>
   </g>
   <g id="patch_198">
    <path d="M 451.878441 86.579333 
L 456.191559 86.579333 
L 456.191559 79.432763 
L 451.878441 79.432763 
z
" clip-path="url(#pff90a771ed)" style="fill: #696969"/>
   </g>
   <g id="patch_199">
    <path d="M 454.57414 86.579333 
L 458.887259 86.579333 
L 458.887259 81.955082 
L 454.57414 81.955082 
z
" clip-path="url(#pff90a771ed)" style="fill: #696969"/>
   </g>
   <g id="patch_200">
    <path d="M 457.269839 86.579333 
L 461.582958 86.579333 
L 461.582958 86.579333 
L 457.269839 86.579333 
z
" clip-path="url(#pff90a771ed)" style="fill: #696969"/>
   </g>
   <g id="patch_201">
    <path d="M 459.965538 86.579333 
L 464.278657 86.579333 
L 464.278657 84.477401 
L 459.965538 84.477401 
z
" clip-path="url(#pff90a771ed)" style="fill: #696969"/>
   </g>
   <g id="patch_202">
    <path d="M 462.661238 86.579333 
L 466.974357 86.579333 
L 466.974357 84.897787 
L 462.661238 84.897787 
z
" clip-path="url(#pff90a771ed)" style="fill: #696969"/>
   </g>
   <g id="patch_203">
    <path d="M 465.356937 86.579333 
L 469.670056 86.579333 
L 469.670056 84.057014 
L 465.356937 84.057014 
z
" clip-path="url(#pff90a771ed)" style="fill: #696969"/>
   </g>
   <g id="patch_204">
    <path d="M 468.052636 86.579333 
L 472.365755 86.579333 
L 472.365755 80.693923 
L 468.052636 80.693923 
z
" clip-path="url(#pff90a771ed)" style="fill: #696969"/>
   </g>
   <g id="patch_205">
    <path d="M 470.748336 86.579333 
L 475.061455 86.579333 
L 475.061455 81.534696 
L 470.748336 81.534696 
z
" clip-path="url(#pff90a771ed)" style="fill: #696969"/>
   </g>
   <g id="patch_206">
    <path d="M 473.444035 86.579333 
L 477.757154 86.579333 
L 477.757154 79.85315 
L 473.444035 79.85315 
z
" clip-path="url(#pff90a771ed)" style="fill: #696969"/>
   </g>
   <g id="patch_207">
    <path d="M 476.139734 86.579333 
L 480.452853 86.579333 
L 480.452853 74.388126 
L 476.139734 74.388126 
z
" clip-path="url(#pff90a771ed)" style="fill: #696969"/>
   </g>
   <g id="patch_208">
    <path d="M 478.835434 86.579333 
L 483.148552 86.579333 
L 483.148552 77.330831 
L 478.835434 77.330831 
z
" clip-path="url(#pff90a771ed)" style="fill: #696969"/>
   </g>
   <g id="patch_209">
    <path d="M 481.531133 86.579333 
L 485.844252 86.579333 
L 485.844252 75.649285 
L 481.531133 75.649285 
z
" clip-path="url(#pff90a771ed)" style="fill: #696969"/>
   </g>
   <g id="patch_210">
    <path d="M 484.226832 86.579333 
L 488.539951 86.579333 
L 488.539951 71.025034 
L 484.226832 71.025034 
z
" clip-path="url(#pff90a771ed)" style="fill: #696969"/>
   </g>
   <g id="patch_211">
    <path d="M 486.922531 86.579333 
L 491.23565 86.579333 
L 491.23565 65.56001 
L 486.922531 65.56001 
z
" clip-path="url(#pff90a771ed)" style="fill: #696969"/>
   </g>
   <g id="patch_212">
    <path d="M 489.618231 86.579333 
L 493.93135 86.579333 
L 493.93135 65.980396 
L 489.618231 65.980396 
z
" clip-path="url(#pff90a771ed)" style="fill: #696969"/>
   </g>
   <g id="patch_213">
    <path d="M 492.31393 86.579333 
L 496.627049 86.579333 
L 496.627049 70.604647 
L 492.31393 70.604647 
z
" clip-path="url(#pff90a771ed)" style="fill: #696969"/>
   </g>
   <g id="patch_214">
    <path d="M 495.009629 86.579333 
L 499.322748 86.579333 
L 499.322748 70.184261 
L 495.009629 70.184261 
z
" clip-path="url(#pff90a771ed)" style="fill: #696969"/>
   </g>
   <g id="patch_215">
    <path d="M 497.705329 86.579333 
L 502.018448 86.579333 
L 502.018448 76.490058 
L 497.705329 76.490058 
z
" clip-path="url(#pff90a771ed)" style="fill: #696969"/>
   </g>
   <g id="patch_216">
    <path d="M 500.401028 86.579333 
L 504.714147 86.579333 
L 504.714147 73.967739 
L 500.401028 73.967739 
z
" clip-path="url(#pff90a771ed)" style="fill: #696969"/>
   </g>
   <g id="patch_217">
    <path d="M 503.096727 86.579333 
L 507.409846 86.579333 
L 507.409846 78.171604 
L 503.096727 78.171604 
z
" clip-path="url(#pff90a771ed)" style="fill: #696969"/>
   </g>
   <g id="patch_218">
    <path d="M 505.792427 86.579333 
L 510.105545 86.579333 
L 510.105545 82.795855 
L 505.792427 82.795855 
z
" clip-path="url(#pff90a771ed)" style="fill: #696969"/>
   </g>
   <g id="patch_219">
    <path d="M 508.488126 86.579333 
L 512.801245 86.579333 
L 512.801245 79.012377 
L 508.488126 79.012377 
z
" clip-path="url(#pff90a771ed)" style="fill: #696969"/>
   </g>
   <g id="patch_220">
    <path d="M 511.183825 86.579333 
L 515.496944 86.579333 
L 515.496944 82.375469 
L 511.183825 82.375469 
z
" clip-path="url(#pff90a771ed)" style="fill: #696969"/>
   </g>
   <g id="patch_221">
    <path d="M 513.879524 86.579333 
L 518.192643 86.579333 
L 518.192643 86.579333 
L 513.879524 86.579333 
z
" clip-path="url(#pff90a771ed)" style="fill: #696969"/>
   </g>
   <g id="patch_222">
    <path d="M 516.575224 86.579333 
L 520.888343 86.579333 
L 520.888343 82.795855 
L 516.575224 82.795855 
z
" clip-path="url(#pff90a771ed)" style="fill: #696969"/>
   </g>
   <g id="patch_223">
    <path d="M 519.270923 86.579333 
L 523.584042 86.579333 
L 523.584042 86.579333 
L 519.270923 86.579333 
z
" clip-path="url(#pff90a771ed)" style="fill: #696969"/>
   </g>
   <g id="patch_224">
    <path d="M 521.966622 86.579333 
L 526.279741 86.579333 
L 526.279741 86.579333 
L 521.966622 86.579333 
z
" clip-path="url(#pff90a771ed)" style="fill: #696969"/>
   </g>
   <g id="patch_225">
    <path d="M 524.662322 86.579333 
L 528.975441 86.579333 
L 528.975441 86.579333 
L 524.662322 86.579333 
z
" clip-path="url(#pff90a771ed)" style="fill: #696969"/>
   </g>
   <g id="patch_226">
    <path d="M 527.358021 86.579333 
L 531.67114 86.579333 
L 531.67114 86.579333 
L 527.358021 86.579333 
z
" clip-path="url(#pff90a771ed)" style="fill: #696969"/>
   </g>
   <g id="patch_227">
    <path d="M 530.05372 86.579333 
L 534.366839 86.579333 
L 534.366839 86.579333 
L 530.05372 86.579333 
z
" clip-path="url(#pff90a771ed)" style="fill: #696969"/>
   </g>
   <g id="patch_228">
    <path d="M 532.74942 86.579333 
L 537.062538 86.579333 
L 537.062538 81.534696 
L 532.74942 81.534696 
z
" clip-path="url(#pff90a771ed)" style="fill: #696969"/>
   </g>
   <g id="patch_229">
    <path d="M 535.445119 86.579333 
L 539.758238 86.579333 
L 539.758238 82.795855 
L 535.445119 82.795855 
z
" clip-path="url(#pff90a771ed)" style="fill: #696969"/>
   </g>
   <g id="patch_230">
    <path d="M 538.140818 86.579333 
L 542.453937 86.579333 
L 542.453937 84.477401 
L 538.140818 84.477401 
z
" clip-path="url(#pff90a771ed)" style="fill: #696969"/>
   </g>
   <g id="patch_231">
    <path d="M 540.836517 86.579333 
L 545.149636 86.579333 
L 545.149636 77.330831 
L 540.836517 77.330831 
z
" clip-path="url(#pff90a771ed)" style="fill: #696969"/>
   </g>
   <g id="patch_232">
    <path d="M 543.532217 86.579333 
L 547.845336 86.579333 
L 547.845336 76.490058 
L 543.532217 76.490058 
z
" clip-path="url(#pff90a771ed)" style="fill: #696969"/>
   </g>
   <g id="patch_233">
    <path d="M 546.227916 86.579333 
L 550.541035 86.579333 
L 550.541035 77.330831 
L 546.227916 77.330831 
z
" clip-path="url(#pff90a771ed)" style="fill: #696969"/>
   </g>
   <g id="patch_234">
    <path d="M 548.923615 86.579333 
L 553.236734 86.579333 
L 553.236734 68.923101 
L 548.923615 68.923101 
z
" clip-path="url(#pff90a771ed)" style="fill: #696969"/>
   </g>
   <g id="patch_235">
    <path d="M 551.619315 86.579333 
L 555.932434 86.579333 
L 555.932434 68.923101 
L 551.619315 68.923101 
z
" clip-path="url(#pff90a771ed)" style="fill: #696969"/>
   </g>
   <g id="patch_236">
    <path d="M 554.315014 86.579333 
L 558.628133 86.579333 
L 558.628133 70.604647 
L 554.315014 70.604647 
z
" clip-path="url(#pff90a771ed)" style="fill: #696969"/>
   </g>
   <g id="patch_237">
    <path d="M 557.010713 86.579333 
L 561.323832 86.579333 
L 561.323832 65.980396 
L 557.010713 65.980396 
z
" clip-path="url(#pff90a771ed)" style="fill: #696969"/>
   </g>
   <g id="patch_238">
    <path d="M 559.706413 86.579333 
L 564.019531 86.579333 
L 564.019531 68.923101 
L 559.706413 68.923101 
z
" clip-path="url(#pff90a771ed)" style="fill: #696969"/>
   </g>
   <g id="patch_239">
    <path d="M 562.402112 86.579333 
L 566.715231 86.579333 
L 566.715231 75.228899 
L 562.402112 75.228899 
z
" clip-path="url(#pff90a771ed)" style="fill: #696969"/>
   </g>
   <g id="patch_240">
    <path d="M 565.097811 86.579333 
L 569.41093 86.579333 
L 569.41093 76.490058 
L 565.097811 76.490058 
z
" clip-path="url(#pff90a771ed)" style="fill: #696969"/>
   </g>
   <g id="patch_241">
    <path d="M 567.79351 86.579333 
L 572.106629 86.579333 
L 572.106629 81.955082 
L 567.79351 81.955082 
z
" clip-path="url(#pff90a771ed)" style="fill: #696969"/>
   </g>
   <g id="patch_242">
    <path d="M 570.48921 86.579333 
L 574.802329 86.579333 
L 574.802329 84.057014 
L 570.48921 84.057014 
z
" clip-path="url(#pff90a771ed)" style="fill: #696969"/>
   </g>
   <g id="patch_243">
    <path d="M 573.184909 86.579333 
L 577.498028 86.579333 
L 577.498028 85.318174 
L 573.184909 85.318174 
z
" clip-path="url(#pff90a771ed)" style="fill: #696969"/>
   </g>
   <g id="patch_244">
    <path d="M 575.880608 86.579333 
L 580.193727 86.579333 
L 580.193727 86.579333 
L 575.880608 86.579333 
z
" clip-path="url(#pff90a771ed)" style="fill: #696969"/>
   </g>
   <g id="patch_245">
    <path d="M 578.576308 86.579333 
L 582.889427 86.579333 
L 582.889427 86.579333 
L 578.576308 86.579333 
z
" clip-path="url(#pff90a771ed)" style="fill: #696969"/>
   </g>
   <g id="patch_246">
    <path d="M 581.272007 86.579333 
L 585.585126 86.579333 
L 585.585126 86.579333 
L 581.272007 86.579333 
z
" clip-path="url(#pff90a771ed)" style="fill: #696969"/>
   </g>
   <g id="patch_247">
    <path d="M 583.967706 86.579333 
L 588.280825 86.579333 
L 588.280825 86.579333 
L 583.967706 86.579333 
z
" clip-path="url(#pff90a771ed)" style="fill: #696969"/>
   </g>
   <g id="patch_248">
    <path d="M 586.663406 86.579333 
L 590.976524 86.579333 
L 590.976524 85.318174 
L 586.663406 85.318174 
z
" clip-path="url(#pff90a771ed)" style="fill: #696969"/>
   </g>
   <g id="patch_249">
    <path d="M 589.359105 86.579333 
L 593.672224 86.579333 
L 593.672224 83.636628 
L 589.359105 83.636628 
z
" clip-path="url(#pff90a771ed)" style="fill: #696969"/>
   </g>
   <g id="patch_250">
    <path d="M 592.054804 86.579333 
L 596.367923 86.579333 
L 596.367923 84.897787 
L 592.054804 84.897787 
z
" clip-path="url(#pff90a771ed)" style="fill: #696969"/>
   </g>
   <g id="patch_251">
    <path d="M 594.750503 86.579333 
L 599.063622 86.579333 
L 599.063622 80.273536 
L 594.750503 80.273536 
z
" clip-path="url(#pff90a771ed)" style="fill: #696969"/>
   </g>
   <g id="patch_252">
    <path d="M 597.446203 86.579333 
L 601.759322 86.579333 
L 601.759322 82.795855 
L 597.446203 82.795855 
z
" clip-path="url(#pff90a771ed)" style="fill: #696969"/>
   </g>
   <g id="patch_253">
    <path d="M 600.141902 86.579333 
L 604.455021 86.579333 
L 604.455021 74.808512 
L 600.141902 74.808512 
z
" clip-path="url(#pff90a771ed)" style="fill: #696969"/>
   </g>
   <g id="patch_254">
    <path d="M 602.837601 86.579333 
L 607.15072 86.579333 
L 607.15072 77.751217 
L 602.837601 77.751217 
z
" clip-path="url(#pff90a771ed)" style="fill: #696969"/>
   </g>
   <g id="patch_255">
    <path d="M 605.533301 86.579333 
L 609.84642 86.579333 
L 609.84642 78.59199 
L 605.533301 78.59199 
z
" clip-path="url(#pff90a771ed)" style="fill: #696969"/>
   </g>
   <g id="patch_256">
    <path d="M 608.229 86.579333 
L 612.542119 86.579333 
L 612.542119 76.490058 
L 608.229 76.490058 
z
" clip-path="url(#pff90a771ed)" style="fill: #696969"/>
   </g>
   <g id="patch_257">
    <path d="M 610.924699 86.579333 
L 615.237818 86.579333 
L 615.237818 70.184261 
L 610.924699 70.184261 
z
" clip-path="url(#pff90a771ed)" style="fill: #696969"/>
   </g>
   <g id="patch_258">
    <path d="M 613.620399 86.579333 
L 617.933517 86.579333 
L 617.933517 68.923101 
L 613.620399 68.923101 
z
" clip-path="url(#pff90a771ed)" style="fill: #696969"/>
   </g>
   <g id="patch_259">
    <path d="M 616.316098 86.579333 
L 620.629217 86.579333 
L 620.629217 65.139623 
L 616.316098 65.139623 
z
" clip-path="url(#pff90a771ed)" style="fill: #696969"/>
   </g>
   <g id="patch_260">
    <path d="M 619.011797 86.579333 
L 623.324916 86.579333 
L 623.324916 65.980396 
L 619.011797 65.980396 
z
" clip-path="url(#pff90a771ed)" style="fill: #696969"/>
   </g>
   <g id="patch_261">
    <path d="M 621.707497 86.579333 
L 626.020615 86.579333 
L 626.020615 69.343488 
L 621.707497 69.343488 
z
" clip-path="url(#pff90a771ed)" style="fill: #696969"/>
   </g>
   <g id="patch_262">
    <path d="M 624.403196 86.579333 
L 628.716315 86.579333 
L 628.716315 73.967739 
L 624.403196 73.967739 
z
" clip-path="url(#pff90a771ed)" style="fill: #696969"/>
   </g>
   <g id="patch_263">
    <path d="M 627.098895 86.579333 
L 631.412014 86.579333 
L 631.412014 73.547353 
L 627.098895 73.547353 
z
" clip-path="url(#pff90a771ed)" style="fill: #696969"/>
   </g>
   <g id="patch_264">
    <path d="M 629.794594 86.579333 
L 634.107713 86.579333 
L 634.107713 76.069671 
L 629.794594 76.069671 
z
" clip-path="url(#pff90a771ed)" style="fill: #696969"/>
   </g>
   <g id="patch_265">
    <path d="M 632.490294 86.579333 
L 636.803413 86.579333 
L 636.803413 76.490058 
L 632.490294 76.490058 
z
" clip-path="url(#pff90a771ed)" style="fill: #696969"/>
   </g>
   <g id="patch_266">
    <path d="M 635.185993 86.579333 
L 639.499112 86.579333 
L 639.499112 82.795855 
L 635.185993 82.795855 
z
" clip-path="url(#pff90a771ed)" style="fill: #696969"/>
   </g>
   <g id="patch_267">
    <path d="M 637.881692 86.579333 
L 642.194811 86.579333 
L 642.194811 85.318174 
L 637.881692 85.318174 
z
" clip-path="url(#pff90a771ed)" style="fill: #696969"/>
   </g>
   <g id="patch_268">
    <path d="M 640.577392 86.579333 
L 644.89051 86.579333 
L 644.89051 86.579333 
L 640.577392 86.579333 
z
" clip-path="url(#pff90a771ed)" style="fill: #696969"/>
   </g>
   <g id="patch_269">
    <path d="M 643.273091 86.579333 
L 647.58621 86.579333 
L 647.58621 86.579333 
L 643.273091 86.579333 
z
" clip-path="url(#pff90a771ed)" style="fill: #696969"/>
   </g>
   <g id="patch_270">
    <path d="M 645.96879 86.579333 
L 650.281909 86.579333 
L 650.281909 86.579333 
L 645.96879 86.579333 
z
" clip-path="url(#pff90a771ed)" style="fill: #696969"/>
   </g>
   <g id="patch_271">
    <path d="M 648.66449 86.579333 
L 652.977608 86.579333 
L 652.977608 85.73856 
L 648.66449 85.73856 
z
" clip-path="url(#pff90a771ed)" style="fill: #696969"/>
   </g>
   <g id="patch_272">
    <path d="M 651.360189 86.579333 
L 655.673308 86.579333 
L 655.673308 86.579333 
L 651.360189 86.579333 
z
" clip-path="url(#pff90a771ed)" style="fill: #696969"/>
   </g>
   <g id="patch_273">
    <path d="M 654.055888 86.579333 
L 658.369007 86.579333 
L 658.369007 86.579333 
L 654.055888 86.579333 
z
" clip-path="url(#pff90a771ed)" style="fill: #696969"/>
   </g>
   <g id="patch_274">
    <path d="M 656.751587 86.579333 
L 661.064706 86.579333 
L 661.064706 83.216242 
L 656.751587 83.216242 
z
" clip-path="url(#pff90a771ed)" style="fill: #696969"/>
   </g>
   <g id="patch_275">
    <path d="M 659.447287 86.579333 
L 663.760406 86.579333 
L 663.760406 81.534696 
L 659.447287 81.534696 
z
" clip-path="url(#pff90a771ed)" style="fill: #696969"/>
   </g>
   <g id="patch_276">
    <path d="M 662.142986 86.579333 
L 666.456105 86.579333 
L 666.456105 76.490058 
L 662.142986 76.490058 
z
" clip-path="url(#pff90a771ed)" style="fill: #696969"/>
   </g>
   <g id="patch_277">
    <path d="M 664.838685 86.579333 
L 669.151804 86.579333 
L 669.151804 81.955082 
L 664.838685 81.955082 
z
" clip-path="url(#pff90a771ed)" style="fill: #696969"/>
   </g>
   <g id="patch_278">
    <path d="M 667.534385 86.579333 
L 671.847503 86.579333 
L 671.847503 78.59199 
L 667.534385 78.59199 
z
" clip-path="url(#pff90a771ed)" style="fill: #696969"/>
   </g>
   <g id="patch_279">
    <path d="M 670.230084 86.579333 
L 674.543203 86.579333 
L 674.543203 76.069671 
L 670.230084 76.069671 
z
" clip-path="url(#pff90a771ed)" style="fill: #696969"/>
   </g>
   <g id="patch_280">
    <path d="M 672.925783 86.579333 
L 677.238902 86.579333 
L 677.238902 73.126966 
L 672.925783 73.126966 
z
" clip-path="url(#pff90a771ed)" style="fill: #696969"/>
   </g>
   <g id="patch_281">
    <path d="M 675.621483 86.579333 
L 679.934601 86.579333 
L 679.934601 67.241556 
L 675.621483 67.241556 
z
" clip-path="url(#pff90a771ed)" style="fill: #696969"/>
   </g>
   <g id="patch_282">
    <path d="M 678.317182 86.579333 
L 682.630301 86.579333 
L 682.630301 65.56001 
L 678.317182 65.56001 
z
" clip-path="url(#pff90a771ed)" style="fill: #696969"/>
   </g>
   <g id="patch_283">
    <path d="M 681.012881 86.579333 
L 685.326 86.579333 
L 685.326 67.661942 
L 681.012881 67.661942 
z
" clip-path="url(#pff90a771ed)" style="fill: #696969"/>
   </g>
   <g id="patch_284">
    <path d="M 683.70858 86.579333 
L 688.021699 86.579333 
L 688.021699 71.865807 
L 683.70858 71.865807 
z
" clip-path="url(#pff90a771ed)" style="fill: #696969"/>
   </g>
   <g id="patch_285">
    <path d="M 686.40428 86.579333 
L 690.717399 86.579333 
L 690.717399 73.967739 
L 686.40428 73.967739 
z
" clip-path="url(#pff90a771ed)" style="fill: #696969"/>
   </g>
   <g id="patch_286">
    <path d="M 689.099979 86.579333 
L 693.413098 86.579333 
L 693.413098 78.59199 
L 689.099979 78.59199 
z
" clip-path="url(#pff90a771ed)" style="fill: #696969"/>
   </g>
   <g id="patch_287">
    <path d="M 691.795678 86.579333 
L 696.108797 86.579333 
L 696.108797 75.649285 
L 691.795678 75.649285 
z
" clip-path="url(#pff90a771ed)" style="fill: #696969"/>
   </g>
   <g id="patch_288">
    <path d="M 694.491378 86.579333 
L 698.804497 86.579333 
L 698.804497 75.228899 
L 694.491378 75.228899 
z
" clip-path="url(#pff90a771ed)" style="fill: #696969"/>
   </g>
   <g id="patch_289">
    <path d="M 697.187077 86.579333 
L 701.500196 86.579333 
L 701.500196 78.171604 
L 697.187077 78.171604 
z
" clip-path="url(#pff90a771ed)" style="fill: #696969"/>
   </g>
   <g id="patch_290">
    <path d="M 699.882776 86.579333 
L 704.195895 86.579333 
L 704.195895 80.273536 
L 699.882776 80.273536 
z
" clip-path="url(#pff90a771ed)" style="fill: #696969"/>
   </g>
   <g id="patch_291">
    <path d="M 702.578476 86.579333 
L 706.891594 86.579333 
L 706.891594 86.579333 
L 702.578476 86.579333 
z
" clip-path="url(#pff90a771ed)" style="fill: #696969"/>
   </g>
   <g id="patch_292">
    <path d="M 705.274175 86.579333 
L 709.587294 86.579333 
L 709.587294 85.318174 
L 705.274175 85.318174 
z
" clip-path="url(#pff90a771ed)" style="fill: #696969"/>
   </g>
   <g id="patch_293">
    <path d="M 707.969874 86.579333 
L 712.282993 86.579333 
L 712.282993 85.73856 
L 707.969874 85.73856 
z
" clip-path="url(#pff90a771ed)" style="fill: #696969"/>
   </g>
   <g id="patch_294">
    <path d="M 710.665573 86.579333 
L 714.978692 86.579333 
L 714.978692 86.158947 
L 710.665573 86.158947 
z
" clip-path="url(#pff90a771ed)" style="fill: #696969"/>
   </g>
   <g id="patch_295">
    <path d="M 713.361273 86.579333 
L 717.674392 86.579333 
L 717.674392 84.477401 
L 713.361273 84.477401 
z
" clip-path="url(#pff90a771ed)" style="fill: #696969"/>
   </g>
   <g id="patch_296">
    <path d="M 716.056972 86.579333 
L 720.370091 86.579333 
L 720.370091 77.330831 
L 716.056972 77.330831 
z
" clip-path="url(#pff90a771ed)" style="fill: #696969"/>
   </g>
   <g id="patch_297">
    <path d="M 718.752671 86.579333 
L 723.06579 86.579333 
L 723.06579 86.579333 
L 718.752671 86.579333 
z
" clip-path="url(#pff90a771ed)" style="fill: #696969"/>
   </g>
   <g id="patch_298">
    <path d="M 721.448371 86.579333 
L 725.76149 86.579333 
L 725.76149 86.579333 
L 721.448371 86.579333 
z
" clip-path="url(#pff90a771ed)" style="fill: #696969"/>
   </g>
   <g id="patch_299">
    <path d="M 724.14407 86.579333 
L 728.457189 86.579333 
L 728.457189 82.795855 
L 724.14407 82.795855 
z
" clip-path="url(#pff90a771ed)" style="fill: #696969"/>
   </g>
   <g id="patch_300">
    <path d="M 726.839769 86.579333 
L 731.152888 86.579333 
L 731.152888 79.432763 
L 726.839769 79.432763 
z
" clip-path="url(#pff90a771ed)" style="fill: #696969"/>
   </g>
   <g id="patch_301">
    <path d="M 729.535469 86.579333 
L 733.848587 86.579333 
L 733.848587 82.375469 
L 729.535469 82.375469 
z
" clip-path="url(#pff90a771ed)" style="fill: #696969"/>
   </g>
   <g id="patch_302">
    <path d="M 732.231168 86.579333 
L 736.544287 86.579333 
L 736.544287 75.228899 
L 732.231168 75.228899 
z
" clip-path="url(#pff90a771ed)" style="fill: #696969"/>
   </g>
   <g id="patch_303">
    <path d="M 734.926867 86.579333 
L 739.239986 86.579333 
L 739.239986 72.70658 
L 734.926867 72.70658 
z
" clip-path="url(#pff90a771ed)" style="fill: #696969"/>
   </g>
   <g id="patch_304">
    <path d="M 737.622566 86.579333 
L 741.935685 86.579333 
L 741.935685 71.025034 
L 737.622566 71.025034 
z
" clip-path="url(#pff90a771ed)" style="fill: #696969"/>
   </g>
   <g id="patch_305">
    <path d="M 740.318266 86.579333 
L 744.631385 86.579333 
L 744.631385 69.343488 
L 740.318266 69.343488 
z
" clip-path="url(#pff90a771ed)" style="fill: #696969"/>
   </g>
   <g id="patch_306">
    <path d="M 743.013965 86.579333 
L 747.327084 86.579333 
L 747.327084 67.241556 
L 743.013965 67.241556 
z
" clip-path="url(#pff90a771ed)" style="fill: #696969"/>
   </g>
   <g id="patch_307">
    <path d="M 745.709664 86.579333 
L 750.022783 86.579333 
L 750.022783 68.502715 
L 745.709664 68.502715 
z
" clip-path="url(#pff90a771ed)" style="fill: #696969"/>
   </g>
   <g id="patch_308">
    <path d="M 748.405364 86.579333 
L 752.718483 86.579333 
L 752.718483 72.286193 
L 748.405364 72.286193 
z
" clip-path="url(#pff90a771ed)" style="fill: #696969"/>
   </g>
   <g id="patch_309">
    <path d="M 751.101063 86.579333 
L 755.414182 86.579333 
L 755.414182 72.70658 
L 751.101063 72.70658 
z
" clip-path="url(#pff90a771ed)" style="fill: #696969"/>
   </g>
   <g id="patch_310">
    <path d="M 753.796762 86.579333 
L 758.109881 86.579333 
L 758.109881 83.636628 
L 753.796762 83.636628 
z
" clip-path="url(#pff90a771ed)" style="fill: #696969"/>
   </g>
   <g id="patch_311">
    <path d="M 756.492462 86.579333 
L 760.80558 86.579333 
L 760.80558 73.967739 
L 756.492462 73.967739 
z
" clip-path="url(#pff90a771ed)" style="fill: #696969"/>
   </g>
   <g id="patch_312">
    <path d="M 759.188161 86.579333 
L 763.50128 86.579333 
L 763.50128 81.955082 
L 759.188161 81.955082 
z
" clip-path="url(#pff90a771ed)" style="fill: #696969"/>
   </g>
   <g id="patch_313">
    <path d="M 761.88386 86.579333 
L 766.196979 86.579333 
L 766.196979 83.636628 
L 761.88386 83.636628 
z
" clip-path="url(#pff90a771ed)" style="fill: #696969"/>
   </g>
   <g id="patch_314">
    <path d="M 764.579559 86.579333 
L 768.892678 86.579333 
L 768.892678 80.273536 
L 764.579559 80.273536 
z
" clip-path="url(#pff90a771ed)" style="fill: #696969"/>
   </g>
   <g id="patch_315">
    <path d="M 767.275259 86.579333 
L 771.588378 86.579333 
L 771.588378 84.897787 
L 767.275259 84.897787 
z
" clip-path="url(#pff90a771ed)" style="fill: #696969"/>
   </g>
   <g id="patch_316">
    <path d="M 769.970958 86.579333 
L 774.284077 86.579333 
L 774.284077 86.579333 
L 769.970958 86.579333 
z
" clip-path="url(#pff90a771ed)" style="fill: #696969"/>
   </g>
   <g id="patch_317">
    <path d="M 772.666657 86.579333 
L 776.979776 86.579333 
L 776.979776 79.012377 
L 772.666657 79.012377 
z
" clip-path="url(#pff90a771ed)" style="fill: #696969"/>
   </g>
   <g id="patch_318">
    <path d="M 775.362357 86.579333 
L 779.675476 86.579333 
L 779.675476 84.897787 
L 775.362357 84.897787 
z
" clip-path="url(#pff90a771ed)" style="fill: #696969"/>
   </g>
   <g id="patch_319">
    <path d="M 778.058056 86.579333 
L 782.371175 86.579333 
L 782.371175 81.955082 
L 778.058056 81.955082 
z
" clip-path="url(#pff90a771ed)" style="fill: #696969"/>
   </g>
   <g id="patch_320">
    <path d="M 780.753755 86.579333 
L 785.066874 86.579333 
L 785.066874 86.579333 
L 780.753755 86.579333 
z
" clip-path="url(#pff90a771ed)" style="fill: #696969"/>
   </g>
   <g id="patch_321">
    <path d="M 783.449455 86.579333 
L 787.762573 86.579333 
L 787.762573 82.795855 
L 783.449455 82.795855 
z
" clip-path="url(#pff90a771ed)" style="fill: #696969"/>
   </g>
   <g id="patch_322">
    <path d="M 786.145154 86.579333 
L 790.458273 86.579333 
L 790.458273 78.171604 
L 786.145154 78.171604 
z
" clip-path="url(#pff90a771ed)" style="fill: #696969"/>
   </g>
   <g id="patch_323">
    <path d="M 788.840853 86.579333 
L 793.153972 86.579333 
L 793.153972 84.477401 
L 788.840853 84.477401 
z
" clip-path="url(#pff90a771ed)" style="fill: #696969"/>
   </g>
   <g id="patch_324">
    <path d="M 791.536552 86.579333 
L 795.849671 86.579333 
L 795.849671 84.897787 
L 791.536552 84.897787 
z
" clip-path="url(#pff90a771ed)" style="fill: #696969"/>
   </g>
   <g id="patch_325">
    <path d="M 794.232252 86.579333 
L 798.545371 86.579333 
L 798.545371 79.012377 
L 794.232252 79.012377 
z
" clip-path="url(#pff90a771ed)" style="fill: #696969"/>
   </g>
   <g id="patch_326">
    <path d="M 796.927951 86.579333 
L 801.24107 86.579333 
L 801.24107 74.388126 
L 796.927951 74.388126 
z
" clip-path="url(#pff90a771ed)" style="fill: #696969"/>
   </g>
   <g id="patch_327">
    <path d="M 799.62365 86.579333 
L 803.936769 86.579333 
L 803.936769 71.44542 
L 799.62365 71.44542 
z
" clip-path="url(#pff90a771ed)" style="fill: #696969"/>
   </g>
   <g id="patch_328">
    <path d="M 802.31935 86.579333 
L 806.632469 86.579333 
L 806.632469 65.139623 
L 802.31935 65.139623 
z
" clip-path="url(#pff90a771ed)" style="fill: #696969"/>
   </g>
   <g id="patch_329">
    <path d="M 805.015049 86.579333 
L 809.328168 86.579333 
L 809.328168 68.923101 
L 805.015049 68.923101 
z
" clip-path="url(#pff90a771ed)" style="fill: #696969"/>
   </g>
   <g id="patch_330">
    <path d="M 807.710748 86.579333 
L 812.023867 86.579333 
L 812.023867 65.139623 
L 807.710748 65.139623 
z
" clip-path="url(#pff90a771ed)" style="fill: #696969"/>
   </g>
   <g id="patch_331">
    <path d="M 810.406448 86.579333 
L 814.719566 86.579333 
L 814.719566 71.025034 
L 810.406448 71.025034 
z
" clip-path="url(#pff90a771ed)" style="fill: #696969"/>
   </g>
   <g id="patch_332">
    <path d="M 813.102147 86.579333 
L 817.415266 86.579333 
L 817.415266 72.286193 
L 813.102147 72.286193 
z
" clip-path="url(#pff90a771ed)" style="fill: #696969"/>
   </g>
   <g id="patch_333">
    <path d="M 815.797846 86.579333 
L 820.110965 86.579333 
L 820.110965 76.069671 
L 815.797846 76.069671 
z
" clip-path="url(#pff90a771ed)" style="fill: #696969"/>
   </g>
   <g id="patch_334">
    <path d="M 818.493545 86.579333 
L 822.806664 86.579333 
L 822.806664 83.216242 
L 818.493545 83.216242 
z
" clip-path="url(#pff90a771ed)" style="fill: #696969"/>
   </g>
   <g id="patch_335">
    <path d="M 821.189245 86.579333 
L 825.502364 86.579333 
L 825.502364 82.795855 
L 821.189245 82.795855 
z
" clip-path="url(#pff90a771ed)" style="fill: #696969"/>
   </g>
   <g id="patch_336">
    <path d="M 823.884944 86.579333 
L 828.198063 86.579333 
L 828.198063 78.171604 
L 823.884944 78.171604 
z
" clip-path="url(#pff90a771ed)" style="fill: #696969"/>
   </g>
   <g id="patch_337">
    <path d="M 826.580643 86.579333 
L 830.893762 86.579333 
L 830.893762 86.579333 
L 826.580643 86.579333 
z
" clip-path="url(#pff90a771ed)" style="fill: #696969"/>
   </g>
   <g id="patch_338">
    <path d="M 829.276343 86.579333 
L 833.589462 86.579333 
L 833.589462 86.579333 
L 829.276343 86.579333 
z
" clip-path="url(#pff90a771ed)" style="fill: #696969"/>
   </g>
   <g id="patch_339">
    <path d="M 831.972042 86.579333 
L 836.285161 86.579333 
L 836.285161 79.85315 
L 831.972042 79.85315 
z
" clip-path="url(#pff90a771ed)" style="fill: #696969"/>
   </g>
   <g id="patch_340">
    <path d="M 834.667741 86.579333 
L 838.98086 86.579333 
L 838.98086 85.73856 
L 834.667741 85.73856 
z
" clip-path="url(#pff90a771ed)" style="fill: #696969"/>
   </g>
   <g id="patch_341">
    <path d="M 837.363441 86.579333 
L 841.676559 86.579333 
L 841.676559 83.216242 
L 837.363441 83.216242 
z
" clip-path="url(#pff90a771ed)" style="fill: #696969"/>
   </g>
   <g id="matplotlib.axis_3">
    <g id="xtick_6">
     <g id="line2d_10">
      <g>
       <use xlink:href="#mcd816a7625" x="475.600594" y="89.48" style="stroke: #000000; stroke-width: 0.8"/>
      </g>
     </g>
     <g id="text_9">
      <!-- 100 -->
      <g transform="translate(466.056844 104.078438) scale(0.1 -0.1)">
       <use xlink:href="#DejaVuSans-31"/>
       <use xlink:href="#DejaVuSans-30" x="63.623047"/>
       <use xlink:href="#DejaVuSans-30" x="127.246094"/>
      </g>
     </g>
    </g>
    <g id="xtick_7">
     <g id="line2d_11">
      <g>
       <use xlink:href="#mcd816a7625" x="529.51458" y="89.48" style="stroke: #000000; stroke-width: 0.8"/>
      </g>
     </g>
     <g id="text_10">
      <!-- 110 -->
      <g transform="translate(519.97083 104.078438) scale(0.1 -0.1)">
       <use xlink:href="#DejaVuSans-31"/>
       <use xlink:href="#DejaVuSans-31" x="63.623047"/>
       <use xlink:href="#DejaVuSans-30" x="127.246094"/>
      </g>
     </g>
    </g>
    <g id="xtick_8">
     <g id="line2d_12">
      <g>
       <use xlink:href="#mcd816a7625" x="583.428566" y="89.48" style="stroke: #000000; stroke-width: 0.8"/>
      </g>
     </g>
     <g id="text_11">
      <!-- 120 -->
      <g transform="translate(573.884816 104.078438) scale(0.1 -0.1)">
       <use xlink:href="#DejaVuSans-31"/>
       <use xlink:href="#DejaVuSans-32" x="63.623047"/>
       <use xlink:href="#DejaVuSans-30" x="127.246094"/>
      </g>
     </g>
    </g>
    <g id="xtick_9">
     <g id="line2d_13">
      <g>
       <use xlink:href="#mcd816a7625" x="637.342552" y="89.48" style="stroke: #000000; stroke-width: 0.8"/>
      </g>
     </g>
     <g id="text_12">
      <!-- 130 -->
      <g transform="translate(627.798802 104.078438) scale(0.1 -0.1)">
       <use xlink:href="#DejaVuSans-31"/>
       <use xlink:href="#DejaVuSans-33" x="63.623047"/>
       <use xlink:href="#DejaVuSans-30" x="127.246094"/>
      </g>
     </g>
    </g>
    <g id="xtick_10">
     <g id="line2d_14">
      <g>
       <use xlink:href="#mcd816a7625" x="691.256538" y="89.48" style="stroke: #000000; stroke-width: 0.8"/>
      </g>
     </g>
     <g id="text_13">
      <!-- 140 -->
      <g transform="translate(681.712788 104.078438) scale(0.1 -0.1)">
       <use xlink:href="#DejaVuSans-31"/>
       <use xlink:href="#DejaVuSans-34" x="63.623047"/>
       <use xlink:href="#DejaVuSans-30" x="127.246094"/>
      </g>
     </g>
    </g>
    <g id="xtick_11">
     <g id="line2d_15">
      <g>
       <use xlink:href="#mcd816a7625" x="745.170524" y="89.48" style="stroke: #000000; stroke-width: 0.8"/>
      </g>
     </g>
     <g id="text_14">
      <!-- 150 -->
      <g transform="translate(735.626774 104.078438) scale(0.1 -0.1)">
       <use xlink:href="#DejaVuSans-31"/>
       <use xlink:href="#DejaVuSans-35" x="63.623047"/>
       <use xlink:href="#DejaVuSans-30" x="127.246094"/>
      </g>
     </g>
    </g>
    <g id="xtick_12">
     <g id="line2d_16">
      <g>
       <use xlink:href="#mcd816a7625" x="799.08451" y="89.48" style="stroke: #000000; stroke-width: 0.8"/>
      </g>
     </g>
     <g id="text_15">
      <!-- 160 -->
      <g transform="translate(789.54076 104.078438) scale(0.1 -0.1)">
       <use xlink:href="#DejaVuSans-31"/>
       <use xlink:href="#DejaVuSans-36" x="63.623047"/>
       <use xlink:href="#DejaVuSans-30" x="127.246094"/>
      </g>
     </g>
    </g>
   </g>
   <g id="matplotlib.axis_4">
    <g id="ytick_3">
     <g id="line2d_17">
      <g>
       <use xlink:href="#m63b864dc6c" x="454.035" y="86.579333" style="stroke: #000000; stroke-width: 0.8"/>
      </g>
     </g>
    </g>
    <g id="ytick_4">
     <g id="line2d_18">
      <g>
       <use xlink:href="#m63b864dc6c" x="454.035" y="65.56001" style="stroke: #000000; stroke-width: 0.8"/>
      </g>
     </g>
    </g>
   </g>
   <g id="line2d_19">
    <path d="M 454.035 79.015646 
L 483.687692 78.167084 
L 497.166189 78.054896 
L 510.644685 78.201198 
L 526.818881 78.639389 
L 553.775874 79.402349 
L 567.254371 79.514029 
L 580.732867 79.367233 
L 596.907063 78.928708 
L 623.864056 78.166144 
L 637.342552 78.054971 
L 650.821049 78.202261 
L 666.995245 78.64112 
L 691.256538 79.352028 
L 704.735035 79.512568 
L 718.213531 79.415149 
L 734.387727 79.012294 
L 764.04042 78.165206 
L 777.518916 78.05505 
L 790.997413 78.203328 
L 807.171608 78.642851 
L 831.432902 79.353137 
L 839.52 79.478648 
L 839.52 79.478648 
" clip-path="url(#pff90a771ed)" style="fill: none; stroke: #191970; stroke-width: 3; stroke-linecap: square"/>
   </g>
   <g id="line2d_20">
    <path d="M 75.88187 89.48 
L 75.88187 54.672 
" clip-path="url(#pff90a771ed)" style="fill: none; stroke-dasharray: 7.4,3.2; stroke-dashoffset: 0; stroke: #000000; stroke-opacity: 0.8; stroke-width: 2"/>
   </g>
   <g id="patch_342">
    <path d="M 454.035 89.48 
L 454.035 54.672 
" style="fill: none; stroke: #000000; stroke-width: 0.8; stroke-linejoin: miter; stroke-linecap: square"/>
   </g>
   <g id="patch_343">
    <path d="M 454.035 89.48 
L 839.52 89.48 
" style="fill: none; stroke: #000000; stroke-width: 0.8; stroke-linejoin: miter; stroke-linecap: square"/>
   </g>
   <g id="text_16">
    <!-- 2 -->
    <g transform="translate(644.2325 39.71375) scale(0.08 -0.08)">
     <use xlink:href="#DejaVuSans-32"/>
    </g>
    <!-- (AC: 25.86, PR: 25.99 - NS) -->
    <g transform="translate(592.930625 48.672) scale(0.08 -0.08)">
     <use xlink:href="#DejaVuSans-28"/>
     <use xlink:href="#DejaVuSans-41" x="39.013672"/>
     <use xlink:href="#DejaVuSans-43" x="105.671875"/>
     <use xlink:href="#DejaVuSans-3a" x="175.496094"/>
     <use xlink:href="#DejaVuSans-20" x="209.1875"/>
     <use xlink:href="#DejaVuSans-32" x="240.974609"/>
     <use xlink:href="#DejaVuSans-35" x="304.597656"/>
     <use xlink:href="#DejaVuSans-2e" x="368.220703"/>
     <use xlink:href="#DejaVuSans-38" x="400.007812"/>
     <use xlink:href="#DejaVuSans-36" x="463.630859"/>
     <use xlink:href="#DejaVuSans-2c" x="527.253906"/>
     <use xlink:href="#DejaVuSans-20" x="559.041016"/>
     <use xlink:href="#DejaVuSans-50" x="590.828125"/>
     <use xlink:href="#DejaVuSans-52" x="651.130859"/>
     <use xlink:href="#DejaVuSans-3a" x="717.488281"/>
     <use xlink:href="#DejaVuSans-20" x="751.179688"/>
     <use xlink:href="#DejaVuSans-32" x="782.966797"/>
     <use xlink:href="#DejaVuSans-35" x="846.589844"/>
     <use xlink:href="#DejaVuSans-2e" x="910.212891"/>
     <use xlink:href="#DejaVuSans-39" x="942"/>
     <use xlink:href="#DejaVuSans-39" x="1005.623047"/>
     <use xlink:href="#DejaVuSans-20" x="1069.246094"/>
     <use xlink:href="#DejaVuSans-2d" x="1101.033203"/>
     <use xlink:href="#DejaVuSans-20" x="1137.117188"/>
     <use xlink:href="#DejaVuSans-4e" x="1168.904297"/>
     <use xlink:href="#DejaVuSans-53" x="1243.708984"/>
     <use xlink:href="#DejaVuSans-29" x="1307.185547"/>
    </g>
   </g>
  </g>
  <g id="text_17">
   <!-- COSINOR MODEL - 0 TRIANGLE 10 -->
   <g transform="translate(322.500938 11.940525) scale(0.12 -0.12)">
    <defs>
     <path id="DejaVuSans-4f" d="M 2522 4238 
Q 1834 4238 1429 3725 
Q 1025 3213 1025 2328 
Q 1025 1447 1429 934 
Q 1834 422 2522 422 
Q 3209 422 3611 934 
Q 4013 1447 4013 2328 
Q 4013 3213 3611 3725 
Q 3209 4238 2522 4238 
z
M 2522 4750 
Q 3503 4750 4090 4092 
Q 4678 3434 4678 2328 
Q 4678 1225 4090 567 
Q 3503 -91 2522 -91 
Q 1538 -91 948 565 
Q 359 1222 359 2328 
Q 359 3434 948 4092 
Q 1538 4750 2522 4750 
z
" transform="scale(0.015625)"/>
     <path id="DejaVuSans-49" d="M 628 4666 
L 1259 4666 
L 1259 0 
L 628 0 
L 628 4666 
z
" transform="scale(0.015625)"/>
     <path id="DejaVuSans-4d" d="M 628 4666 
L 1569 4666 
L 2759 1491 
L 3956 4666 
L 4897 4666 
L 4897 0 
L 4281 0 
L 4281 4097 
L 3078 897 
L 2444 897 
L 1241 4097 
L 1241 0 
L 628 0 
L 628 4666 
z
" transform="scale(0.015625)"/>
     <path id="DejaVuSans-44" d="M 1259 4147 
L 1259 519 
L 2022 519 
Q 2988 519 3436 956 
Q 3884 1394 3884 2338 
Q 3884 3275 3436 3711 
Q 2988 4147 2022 4147 
L 1259 4147 
z
M 628 4666 
L 1925 4666 
Q 3281 4666 3915 4102 
Q 4550 3538 4550 2338 
Q 4550 1131 3912 565 
Q 3275 0 1925 0 
L 628 0 
L 628 4666 
z
" transform="scale(0.015625)"/>
     <path id="DejaVuSans-45" d="M 628 4666 
L 3578 4666 
L 3578 4134 
L 1259 4134 
L 1259 2753 
L 3481 2753 
L 3481 2222 
L 1259 2222 
L 1259 531 
L 3634 531 
L 3634 0 
L 628 0 
L 628 4666 
z
" transform="scale(0.015625)"/>
     <path id="DejaVuSans-4c" d="M 628 4666 
L 1259 4666 
L 1259 531 
L 3531 531 
L 3531 0 
L 628 0 
L 628 4666 
z
" transform="scale(0.015625)"/>
     <path id="DejaVuSans-54" d="M -19 4666 
L 3928 4666 
L 3928 4134 
L 2272 4134 
L 2272 0 
L 1638 0 
L 1638 4134 
L -19 4134 
L -19 4666 
z
" transform="scale(0.015625)"/>
     <path id="DejaVuSans-47" d="M 3809 666 
L 3809 1919 
L 2778 1919 
L 2778 2438 
L 4434 2438 
L 4434 434 
Q 4069 175 3628 42 
Q 3188 -91 2688 -91 
Q 1594 -91 976 548 
Q 359 1188 359 2328 
Q 359 3472 976 4111 
Q 1594 4750 2688 4750 
Q 3144 4750 3555 4637 
Q 3966 4525 4313 4306 
L 4313 3634 
Q 3963 3931 3569 4081 
Q 3175 4231 2741 4231 
Q 1884 4231 1454 3753 
Q 1025 3275 1025 2328 
Q 1025 1384 1454 906 
Q 1884 428 2741 428 
Q 3075 428 3337 486 
Q 3600 544 3809 666 
z
" transform="scale(0.015625)"/>
    </defs>
    <use xlink:href="#DejaVuSans-43"/>
    <use xlink:href="#DejaVuSans-4f" x="69.824219"/>
    <use xlink:href="#DejaVuSans-53" x="148.535156"/>
    <use xlink:href="#DejaVuSans-49" x="212.011719"/>
    <use xlink:href="#DejaVuSans-4e" x="241.503906"/>
    <use xlink:href="#DejaVuSans-4f" x="316.308594"/>
    <use xlink:href="#DejaVuSans-52" x="395.019531"/>
    <use xlink:href="#DejaVuSans-20" x="464.501953"/>
    <use xlink:href="#DejaVuSans-4d" x="496.289062"/>
    <use xlink:href="#DejaVuSans-4f" x="582.568359"/>
    <use xlink:href="#DejaVuSans-44" x="661.279297"/>
    <use xlink:href="#DejaVuSans-45" x="738.28125"/>
    <use xlink:href="#DejaVuSans-4c" x="801.464844"/>
    <use xlink:href="#DejaVuSans-20" x="857.177734"/>
    <use xlink:href="#DejaVuSans-2d" x="888.964844"/>
    <use xlink:href="#DejaVuSans-20" x="925.048828"/>
    <use xlink:href="#DejaVuSans-30" x="956.835938"/>
    <use xlink:href="#DejaVuSans-20" x="1020.458984"/>
    <use xlink:href="#DejaVuSans-54" x="1052.246094"/>
    <use xlink:href="#DejaVuSans-52" x="1113.330078"/>
    <use xlink:href="#DejaVuSans-49" x="1182.8125"/>
    <use xlink:href="#DejaVuSans-41" x="1212.304688"/>
    <use xlink:href="#DejaVuSans-4e" x="1280.712891"/>
    <use xlink:href="#DejaVuSans-47" x="1355.517578"/>
    <use xlink:href="#DejaVuSans-4c" x="1433.007812"/>
    <use xlink:href="#DejaVuSans-45" x="1488.720703"/>
    <use xlink:href="#DejaVuSans-20" x="1551.904297"/>
    <use xlink:href="#DejaVuSans-31" x="1583.691406"/>
    <use xlink:href="#DejaVuSans-30" x="1647.314453"/>
   </g>
  </g>
  <g id="text_18">
   <!-- TIME (HOURS FROM START OF PROTOCOL) -->
   <g transform="translate(297.576563 137.213175) scale(0.12 -0.12)">
    <defs>
     <path id="DejaVuSans-48" d="M 628 4666 
L 1259 4666 
L 1259 2753 
L 3553 2753 
L 3553 4666 
L 4184 4666 
L 4184 0 
L 3553 0 
L 3553 2222 
L 1259 2222 
L 1259 0 
L 628 0 
L 628 4666 
z
" transform="scale(0.015625)"/>
     <path id="DejaVuSans-55" d="M 556 4666 
L 1191 4666 
L 1191 1831 
Q 1191 1081 1462 751 
Q 1734 422 2344 422 
Q 2950 422 3222 751 
Q 3494 1081 3494 1831 
L 3494 4666 
L 4128 4666 
L 4128 1753 
Q 4128 841 3676 375 
Q 3225 -91 2344 -91 
Q 1459 -91 1007 375 
Q 556 841 556 1753 
L 556 4666 
z
" transform="scale(0.015625)"/>
     <path id="DejaVuSans-46" d="M 628 4666 
L 3309 4666 
L 3309 4134 
L 1259 4134 
L 1259 2759 
L 3109 2759 
L 3109 2228 
L 1259 2228 
L 1259 0 
L 628 0 
L 628 4666 
z
" transform="scale(0.015625)"/>
    </defs>
    <use xlink:href="#DejaVuSans-54"/>
    <use xlink:href="#DejaVuSans-49" x="61.083984"/>
    <use xlink:href="#DejaVuSans-4d" x="90.576172"/>
    <use xlink:href="#DejaVuSans-45" x="176.855469"/>
    <use xlink:href="#DejaVuSans-20" x="240.039062"/>
    <use xlink:href="#DejaVuSans-28" x="271.826172"/>
    <use xlink:href="#DejaVuSans-48" x="310.839844"/>
    <use xlink:href="#DejaVuSans-4f" x="386.035156"/>
    <use xlink:href="#DejaVuSans-55" x="464.746094"/>
    <use xlink:href="#DejaVuSans-52" x="537.939453"/>
    <use xlink:href="#DejaVuSans-53" x="607.421875"/>
    <use xlink:href="#DejaVuSans-20" x="670.898438"/>
    <use xlink:href="#DejaVuSans-46" x="702.685547"/>
    <use xlink:href="#DejaVuSans-52" x="760.205078"/>
    <use xlink:href="#DejaVuSans-4f" x="829.6875"/>
    <use xlink:href="#DejaVuSans-4d" x="908.398438"/>
    <use xlink:href="#DejaVuSans-20" x="994.677734"/>
    <use xlink:href="#DejaVuSans-53" x="1026.464844"/>
    <use xlink:href="#DejaVuSans-54" x="1089.941406"/>
    <use xlink:href="#DejaVuSans-41" x="1143.275391"/>
    <use xlink:href="#DejaVuSans-52" x="1211.683594"/>
    <use xlink:href="#DejaVuSans-54" x="1273.916016"/>
    <use xlink:href="#DejaVuSans-20" x="1335"/>
    <use xlink:href="#DejaVuSans-4f" x="1366.787109"/>
    <use xlink:href="#DejaVuSans-46" x="1445.498047"/>
    <use xlink:href="#DejaVuSans-20" x="1503.017578"/>
    <use xlink:href="#DejaVuSans-50" x="1534.804688"/>
    <use xlink:href="#DejaVuSans-52" x="1595.107422"/>
    <use xlink:href="#DejaVuSans-4f" x="1664.589844"/>
    <use xlink:href="#DejaVuSans-54" x="1743.300781"/>
    <use xlink:href="#DejaVuSans-4f" x="1804.384766"/>
    <use xlink:href="#DejaVuSans-43" x="1883.095703"/>
    <use xlink:href="#DejaVuSans-4f" x="1952.919922"/>
    <use xlink:href="#DejaVuSans-4c" x="2031.630859"/>
    <use xlink:href="#DejaVuSans-29" x="2087.34375"/>
   </g>
  </g>
  <g id="text_19">
   <!-- AMPLITUDE -->
   <g transform="translate(26.124525 105.039375) rotate(-90) scale(0.12 -0.12)">
    <use xlink:href="#DejaVuSans-41"/>
    <use xlink:href="#DejaVuSans-4d" x="68.408203"/>
    <use xlink:href="#DejaVuSans-50" x="154.6875"/>
    <use xlink:href="#DejaVuSans-4c" x="214.990234"/>
    <use xlink:href="#DejaVuSans-49" x="270.703125"/>
    <use xlink:href="#DejaVuSans-54" x="300.195312"/>
    <use xlink:href="#DejaVuSans-55" x="361.279297"/>
    <use xlink:href="#DejaVuSans-44" x="434.472656"/>
    <use xlink:href="#DejaVuSans-45" x="511.474609"/>
   </g>
  </g>
 </g>
 <defs>
  <clipPath id="pe237eaf752">
   <rect x="54.25" y="54.672" width="385.485" height="34.808"/>
  </clipPath>
  <clipPath id="pff90a771ed">
   <rect x="454.035" y="54.672" width="385.485" height="34.808"/>
  </clipPath>
 </defs>
</svg>
