<?xml version="1.0" encoding="utf-8" standalone="no"?>
<!DOCTYPE svg PUBLIC "-//W3C//DTD SVG 1.1//EN"
  "http://www.w3.org/Graphics/SVG/1.1/DTD/svg11.dtd">
<svg xmlns:xlink="http://www.w3.org/1999/xlink" width="850.32pt" height="141.12pt" viewBox="0 0 850.32 141.12" xmlns="http://www.w3.org/2000/svg" version="1.1">
 <metadata>
  <rdf:RDF xmlns:dc="http://purl.org/dc/elements/1.1/" xmlns:cc="http://creativecommons.org/ns#" xmlns:rdf="http://www.w3.org/1999/02/22-rdf-syntax-ns#">
   <cc:Work>
    <dc:type rdf:resource="http://purl.org/dc/dcmitype/StillImage"/>
    <dc:date>2023-08-03T16:37:00.850584</dc:date>
    <dc:format>image/svg+xml</dc:format>
    <dc:creator>
     <cc:Agent>
      <dc:title>Matplotlib v3.7.1, https://matplotlib.org/</dc:title>
     </cc:Agent>
    </dc:creator>
   </cc:Work>
  </rdf:RDF>
 </metadata>
 <defs>
  <style type="text/css">*{stroke-linejoin: round; stroke-linecap: butt}</style>
 </defs>
 <g id="figure_1">
  <g id="patch_1">
   <path d="M 0 141.12 
L 850.32 141.12 
L 850.32 0 
L 0 0 
z
" style="fill: #ffffff"/>
  </g>
  <g id="axes_1">
   <g id="patch_2">
    <path d="M 57.4 89.48 
L 441.302076 89.48 
L 441.302076 54.672 
L 57.4 54.672 
z
" style="fill: #ffffff"/>
   </g>
   <g id="patch_3">
    <path d="M 55.252296 86.579333 
L 59.547704 86.579333 
L 59.547704 83.027497 
L 55.252296 83.027497 
z
" clip-path="url(#pb680c97994)" style="fill: #696969"/>
   </g>
   <g id="patch_4">
    <path d="M 57.936926 86.579333 
L 62.232334 86.579333 
L 62.232334 80.659605 
L 57.936926 80.659605 
z
" clip-path="url(#pb680c97994)" style="fill: #696969"/>
   </g>
   <g id="patch_5">
    <path d="M 60.621556 86.579333 
L 64.916964 86.579333 
L 64.916964 77.107769 
L 60.621556 77.107769 
z
" clip-path="url(#pb680c97994)" style="fill: #696969"/>
   </g>
   <g id="patch_6">
    <path d="M 63.306186 86.579333 
L 67.601594 86.579333 
L 67.601594 73.555932 
L 63.306186 73.555932 
z
" clip-path="url(#pb680c97994)" style="fill: #696969"/>
   </g>
   <g id="patch_7">
    <path d="M 65.990816 86.579333 
L 70.286224 86.579333 
L 70.286224 86.135354 
L 65.990816 86.135354 
z
" clip-path="url(#pb680c97994)" style="fill: #696969"/>
   </g>
   <g id="patch_8">
    <path d="M 68.675446 86.579333 
L 72.970853 86.579333 
L 72.970853 86.579333 
L 68.675446 86.579333 
z
" clip-path="url(#pb680c97994)" style="fill: #696969"/>
   </g>
   <g id="patch_9">
    <path d="M 71.360075 86.579333 
L 75.655483 86.579333 
L 75.655483 86.579333 
L 71.360075 86.579333 
z
" clip-path="url(#pb680c97994)" style="fill: #696969"/>
   </g>
   <g id="patch_10">
    <path d="M 74.044705 86.579333 
L 78.340113 86.579333 
L 78.340113 83.767463 
L 74.044705 83.767463 
z
" clip-path="url(#pb680c97994)" style="fill: #696969"/>
   </g>
   <g id="patch_11">
    <path d="M 76.729335 86.579333 
L 81.024743 86.579333 
L 81.024743 86.579333 
L 76.729335 86.579333 
z
" clip-path="url(#pb680c97994)" style="fill: #696969"/>
   </g>
   <g id="patch_12">
    <path d="M 79.413965 86.579333 
L 83.709373 86.579333 
L 83.709373 86.579333 
L 79.413965 86.579333 
z
" clip-path="url(#pb680c97994)" style="fill: #696969"/>
   </g>
   <g id="patch_13">
    <path d="M 82.098595 86.579333 
L 86.394003 86.579333 
L 86.394003 86.579333 
L 82.098595 86.579333 
z
" clip-path="url(#pb680c97994)" style="fill: #696969"/>
   </g>
   <g id="patch_14">
    <path d="M 84.783225 86.579333 
L 89.078633 86.579333 
L 89.078633 74.887871 
L 84.783225 74.887871 
z
" clip-path="url(#pb680c97994)" style="fill: #696969"/>
   </g>
   <g id="patch_15">
    <path d="M 87.467855 86.579333 
L 91.763263 86.579333 
L 91.763263 86.579333 
L 87.467855 86.579333 
z
" clip-path="url(#pb680c97994)" style="fill: #696969"/>
   </g>
   <g id="patch_16">
    <path d="M 90.152485 86.579333 
L 94.447893 86.579333 
L 94.447893 79.919639 
L 90.152485 79.919639 
z
" clip-path="url(#pb680c97994)" style="fill: #696969"/>
   </g>
   <g id="patch_17">
    <path d="M 92.837115 86.579333 
L 97.132523 86.579333 
L 97.132523 86.579333 
L 92.837115 86.579333 
z
" clip-path="url(#pb680c97994)" style="fill: #696969"/>
   </g>
   <g id="patch_18">
    <path d="M 95.521745 86.579333 
L 99.817152 86.579333 
L 99.817152 86.579333 
L 95.521745 86.579333 
z
" clip-path="url(#pb680c97994)" style="fill: #696969"/>
   </g>
   <g id="patch_19">
    <path d="M 98.206374 86.579333 
L 102.501782 86.579333 
L 102.501782 84.655422 
L 98.206374 84.655422 
z
" clip-path="url(#pb680c97994)" style="fill: #696969"/>
   </g>
   <g id="patch_20">
    <path d="M 100.891004 86.579333 
L 105.186412 86.579333 
L 105.186412 86.579333 
L 100.891004 86.579333 
z
" clip-path="url(#pb680c97994)" style="fill: #696969"/>
   </g>
   <g id="patch_21">
    <path d="M 103.575634 86.579333 
L 107.871042 86.579333 
L 107.871042 86.579333 
L 103.575634 86.579333 
z
" clip-path="url(#pb680c97994)" style="fill: #696969"/>
   </g>
   <g id="patch_22">
    <path d="M 106.260264 86.579333 
L 110.555672 86.579333 
L 110.555672 83.471476 
L 106.260264 83.471476 
z
" clip-path="url(#pb680c97994)" style="fill: #696969"/>
   </g>
   <g id="patch_23">
    <path d="M 108.944894 86.579333 
L 113.240302 86.579333 
L 113.240302 78.291714 
L 108.944894 78.291714 
z
" clip-path="url(#pb680c97994)" style="fill: #696969"/>
   </g>
   <g id="patch_24">
    <path d="M 111.629524 86.579333 
L 115.924932 86.579333 
L 115.924932 77.403755 
L 111.629524 77.403755 
z
" clip-path="url(#pb680c97994)" style="fill: #696969"/>
   </g>
   <g id="patch_25">
    <path d="M 114.314154 86.579333 
L 118.609562 86.579333 
L 118.609562 67.93219 
L 114.314154 67.93219 
z
" clip-path="url(#pb680c97994)" style="fill: #696969"/>
   </g>
   <g id="patch_26">
    <path d="M 116.998784 86.579333 
L 121.294192 86.579333 
L 121.294192 80.067633 
L 116.998784 80.067633 
z
" clip-path="url(#pb680c97994)" style="fill: #696969"/>
   </g>
   <g id="patch_27">
    <path d="M 119.683414 86.579333 
L 123.978822 86.579333 
L 123.978822 83.619469 
L 119.683414 83.619469 
z
" clip-path="url(#pb680c97994)" style="fill: #696969"/>
   </g>
   <g id="patch_28">
    <path d="M 122.368044 86.579333 
L 126.663451 86.579333 
L 126.663451 79.179673 
L 122.368044 79.179673 
z
" clip-path="url(#pb680c97994)" style="fill: #696969"/>
   </g>
   <g id="patch_29">
    <path d="M 125.052673 86.579333 
L 129.348081 86.579333 
L 129.348081 77.403755 
L 125.052673 77.403755 
z
" clip-path="url(#pb680c97994)" style="fill: #696969"/>
   </g>
   <g id="patch_30">
    <path d="M 127.737303 86.579333 
L 132.032711 86.579333 
L 132.032711 80.363619 
L 127.737303 80.363619 
z
" clip-path="url(#pb680c97994)" style="fill: #696969"/>
   </g>
   <g id="patch_31">
    <path d="M 130.421933 86.579333 
L 134.717341 86.579333 
L 134.717341 78.439707 
L 130.421933 78.439707 
z
" clip-path="url(#pb680c97994)" style="fill: #696969"/>
   </g>
   <g id="patch_32">
    <path d="M 133.106563 86.579333 
L 137.401971 86.579333 
L 137.401971 73.111952 
L 133.106563 73.111952 
z
" clip-path="url(#pb680c97994)" style="fill: #696969"/>
   </g>
   <g id="patch_33">
    <path d="M 135.791193 86.579333 
L 140.086601 86.579333 
L 140.086601 82.287531 
L 135.791193 82.287531 
z
" clip-path="url(#pb680c97994)" style="fill: #696969"/>
   </g>
   <g id="patch_34">
    <path d="M 138.475823 86.579333 
L 142.771231 86.579333 
L 142.771231 81.991544 
L 138.475823 81.991544 
z
" clip-path="url(#pb680c97994)" style="fill: #696969"/>
   </g>
   <g id="patch_35">
    <path d="M 141.160453 86.579333 
L 145.455861 86.579333 
L 145.455861 65.860286 
L 141.160453 65.860286 
z
" clip-path="url(#pb680c97994)" style="fill: #696969"/>
   </g>
   <g id="patch_36">
    <path d="M 143.845083 86.579333 
L 148.140491 86.579333 
L 148.140491 70.152088 
L 143.845083 70.152088 
z
" clip-path="url(#pb680c97994)" style="fill: #696969"/>
   </g>
   <g id="patch_37">
    <path d="M 146.529713 86.579333 
L 150.825121 86.579333 
L 150.825121 70.892054 
L 146.529713 70.892054 
z
" clip-path="url(#pb680c97994)" style="fill: #696969"/>
   </g>
   <g id="patch_38">
    <path d="M 149.214343 86.579333 
L 153.50975 86.579333 
L 153.50975 76.811782 
L 149.214343 76.811782 
z
" clip-path="url(#pb680c97994)" style="fill: #696969"/>
   </g>
   <g id="patch_39">
    <path d="M 151.898972 86.579333 
L 156.19438 86.579333 
L 156.19438 71.336034 
L 151.898972 71.336034 
z
" clip-path="url(#pb680c97994)" style="fill: #696969"/>
   </g>
   <g id="patch_40">
    <path d="M 154.583602 86.579333 
L 158.87901 86.579333 
L 158.87901 75.035864 
L 154.583602 75.035864 
z
" clip-path="url(#pb680c97994)" style="fill: #696969"/>
   </g>
   <g id="patch_41">
    <path d="M 157.268232 86.579333 
L 161.56364 86.579333 
L 161.56364 74.591884 
L 157.268232 74.591884 
z
" clip-path="url(#pb680c97994)" style="fill: #696969"/>
   </g>
   <g id="patch_42">
    <path d="M 159.952862 86.579333 
L 164.24827 86.579333 
L 164.24827 72.51998 
L 159.952862 72.51998 
z
" clip-path="url(#pb680c97994)" style="fill: #696969"/>
   </g>
   <g id="patch_43">
    <path d="M 162.637492 86.579333 
L 166.9329 86.579333 
L 166.9329 73.851918 
L 162.637492 73.851918 
z
" clip-path="url(#pb680c97994)" style="fill: #696969"/>
   </g>
   <g id="patch_44">
    <path d="M 165.322122 86.579333 
L 169.61753 86.579333 
L 169.61753 72.963959 
L 165.322122 72.963959 
z
" clip-path="url(#pb680c97994)" style="fill: #696969"/>
   </g>
   <g id="patch_45">
    <path d="M 168.006752 86.579333 
L 172.30216 86.579333 
L 172.30216 82.287531 
L 168.006752 82.287531 
z
" clip-path="url(#pb680c97994)" style="fill: #696969"/>
   </g>
   <g id="patch_46">
    <path d="M 170.691382 86.579333 
L 174.98679 86.579333 
L 174.98679 74.591884 
L 170.691382 74.591884 
z
" clip-path="url(#pb680c97994)" style="fill: #696969"/>
   </g>
   <g id="patch_47">
    <path d="M 173.376012 86.579333 
L 177.67142 86.579333 
L 177.67142 80.511612 
L 173.376012 80.511612 
z
" clip-path="url(#pb680c97994)" style="fill: #696969"/>
   </g>
   <g id="patch_48">
    <path d="M 176.060642 86.579333 
L 180.356049 86.579333 
L 180.356049 86.579333 
L 176.060642 86.579333 
z
" clip-path="url(#pb680c97994)" style="fill: #696969"/>
   </g>
   <g id="patch_49">
    <path d="M 178.745271 86.579333 
L 183.040679 86.579333 
L 183.040679 78.587701 
L 178.745271 78.587701 
z
" clip-path="url(#pb680c97994)" style="fill: #696969"/>
   </g>
   <g id="patch_50">
    <path d="M 181.429901 86.579333 
L 185.725309 86.579333 
L 185.725309 85.691374 
L 181.429901 85.691374 
z
" clip-path="url(#pb680c97994)" style="fill: #696969"/>
   </g>
   <g id="patch_51">
    <path d="M 184.114531 86.579333 
L 188.409939 86.579333 
L 188.409939 76.811782 
L 184.114531 76.811782 
z
" clip-path="url(#pb680c97994)" style="fill: #696969"/>
   </g>
   <g id="patch_52">
    <path d="M 186.799161 86.579333 
L 191.094569 86.579333 
L 191.094569 86.283347 
L 186.799161 86.283347 
z
" clip-path="url(#pb680c97994)" style="fill: #696969"/>
   </g>
   <g id="patch_53">
    <path d="M 189.483791 86.579333 
L 193.779199 86.579333 
L 193.779199 86.579333 
L 189.483791 86.579333 
z
" clip-path="url(#pb680c97994)" style="fill: #696969"/>
   </g>
   <g id="patch_54">
    <path d="M 192.168421 86.579333 
L 196.463829 86.579333 
L 196.463829 75.627837 
L 192.168421 75.627837 
z
" clip-path="url(#pb680c97994)" style="fill: #696969"/>
   </g>
   <g id="patch_55">
    <path d="M 194.853051 86.579333 
L 199.148459 86.579333 
L 199.148459 86.579333 
L 194.853051 86.579333 
z
" clip-path="url(#pb680c97994)" style="fill: #696969"/>
   </g>
   <g id="patch_56">
    <path d="M 197.537681 86.579333 
L 201.833089 86.579333 
L 201.833089 77.995728 
L 197.537681 77.995728 
z
" clip-path="url(#pb680c97994)" style="fill: #696969"/>
   </g>
   <g id="patch_57">
    <path d="M 200.222311 86.579333 
L 204.517719 86.579333 
L 204.517719 86.579333 
L 200.222311 86.579333 
z
" clip-path="url(#pb680c97994)" style="fill: #696969"/>
   </g>
   <g id="patch_58">
    <path d="M 202.906941 86.579333 
L 207.202348 86.579333 
L 207.202348 86.579333 
L 202.906941 86.579333 
z
" clip-path="url(#pb680c97994)" style="fill: #696969"/>
   </g>
   <g id="patch_59">
    <path d="M 205.59157 86.579333 
L 209.886978 86.579333 
L 209.886978 77.403755 
L 205.59157 77.403755 
z
" clip-path="url(#pb680c97994)" style="fill: #696969"/>
   </g>
   <g id="patch_60">
    <path d="M 208.2762 86.579333 
L 212.571608 86.579333 
L 212.571608 80.363619 
L 208.2762 80.363619 
z
" clip-path="url(#pb680c97994)" style="fill: #696969"/>
   </g>
   <g id="patch_61">
    <path d="M 210.96083 86.579333 
L 215.256238 86.579333 
L 215.256238 86.579333 
L 210.96083 86.579333 
z
" clip-path="url(#pb680c97994)" style="fill: #696969"/>
   </g>
   <g id="patch_62">
    <path d="M 213.64546 86.579333 
L 217.940868 86.579333 
L 217.940868 86.579333 
L 213.64546 86.579333 
z
" clip-path="url(#pb680c97994)" style="fill: #696969"/>
   </g>
   <g id="patch_63">
    <path d="M 216.33009 86.579333 
L 220.625498 86.579333 
L 220.625498 86.579333 
L 216.33009 86.579333 
z
" clip-path="url(#pb680c97994)" style="fill: #696969"/>
   </g>
   <g id="patch_64">
    <path d="M 219.01472 86.579333 
L 223.310128 86.579333 
L 223.310128 86.579333 
L 219.01472 86.579333 
z
" clip-path="url(#pb680c97994)" style="fill: #696969"/>
   </g>
   <g id="patch_65">
    <path d="M 221.69935 86.579333 
L 225.994758 86.579333 
L 225.994758 86.579333 
L 221.69935 86.579333 
z
" clip-path="url(#pb680c97994)" style="fill: #696969"/>
   </g>
   <g id="patch_66">
    <path d="M 224.38398 86.579333 
L 228.679388 86.579333 
L 228.679388 86.579333 
L 224.38398 86.579333 
z
" clip-path="url(#pb680c97994)" style="fill: #696969"/>
   </g>
   <g id="patch_67">
    <path d="M 227.06861 86.579333 
L 231.364017 86.579333 
L 231.364017 84.951408 
L 227.06861 84.951408 
z
" clip-path="url(#pb680c97994)" style="fill: #696969"/>
   </g>
   <g id="patch_68">
    <path d="M 229.75324 86.579333 
L 234.048647 86.579333 
L 234.048647 81.991544 
L 229.75324 81.991544 
z
" clip-path="url(#pb680c97994)" style="fill: #696969"/>
   </g>
   <g id="patch_69">
    <path d="M 232.437869 86.579333 
L 236.733277 86.579333 
L 236.733277 74.443891 
L 232.437869 74.443891 
z
" clip-path="url(#pb680c97994)" style="fill: #696969"/>
   </g>
   <g id="patch_70">
    <path d="M 235.122499 86.579333 
L 239.417907 86.579333 
L 239.417907 83.17549 
L 235.122499 83.17549 
z
" clip-path="url(#pb680c97994)" style="fill: #696969"/>
   </g>
   <g id="patch_71">
    <path d="M 237.807129 86.579333 
L 242.102537 86.579333 
L 242.102537 80.215626 
L 237.807129 80.215626 
z
" clip-path="url(#pb680c97994)" style="fill: #696969"/>
   </g>
   <g id="patch_72">
    <path d="M 240.491759 86.579333 
L 244.787167 86.579333 
L 244.787167 66.156272 
L 240.491759 66.156272 
z
" clip-path="url(#pb680c97994)" style="fill: #696969"/>
   </g>
   <g id="patch_73">
    <path d="M 243.176389 86.579333 
L 247.471797 86.579333 
L 247.471797 76.959776 
L 243.176389 76.959776 
z
" clip-path="url(#pb680c97994)" style="fill: #696969"/>
   </g>
   <g id="patch_74">
    <path d="M 245.861019 86.579333 
L 250.156427 86.579333 
L 250.156427 72.51998 
L 245.861019 72.51998 
z
" clip-path="url(#pb680c97994)" style="fill: #696969"/>
   </g>
   <g id="patch_75">
    <path d="M 248.545649 86.579333 
L 252.841057 86.579333 
L 252.841057 79.03168 
L 248.545649 79.03168 
z
" clip-path="url(#pb680c97994)" style="fill: #696969"/>
   </g>
   <g id="patch_76">
    <path d="M 251.230279 86.579333 
L 255.525687 86.579333 
L 255.525687 74.147905 
L 251.230279 74.147905 
z
" clip-path="url(#pb680c97994)" style="fill: #696969"/>
   </g>
   <g id="patch_77">
    <path d="M 253.914909 86.579333 
L 258.210316 86.579333 
L 258.210316 66.748245 
L 253.914909 66.748245 
z
" clip-path="url(#pb680c97994)" style="fill: #696969"/>
   </g>
   <g id="patch_78">
    <path d="M 256.599539 86.579333 
L 260.894946 86.579333 
L 260.894946 72.371986 
L 256.599539 72.371986 
z
" clip-path="url(#pb680c97994)" style="fill: #696969"/>
   </g>
   <g id="patch_79">
    <path d="M 259.284168 86.579333 
L 263.579576 86.579333 
L 263.579576 71.484027 
L 259.284168 71.484027 
z
" clip-path="url(#pb680c97994)" style="fill: #696969"/>
   </g>
   <g id="patch_80">
    <path d="M 261.968798 86.579333 
L 266.264206 86.579333 
L 266.264206 77.107769 
L 261.968798 77.107769 
z
" clip-path="url(#pb680c97994)" style="fill: #696969"/>
   </g>
   <g id="patch_81">
    <path d="M 264.653428 86.579333 
L 268.948836 86.579333 
L 268.948836 72.223993 
L 264.653428 72.223993 
z
" clip-path="url(#pb680c97994)" style="fill: #696969"/>
   </g>
   <g id="patch_82">
    <path d="M 267.338058 86.579333 
L 271.633466 86.579333 
L 271.633466 76.071816 
L 267.338058 76.071816 
z
" clip-path="url(#pb680c97994)" style="fill: #696969"/>
   </g>
   <g id="patch_83">
    <path d="M 270.022688 86.579333 
L 274.318096 86.579333 
L 274.318096 66.896238 
L 270.022688 66.896238 
z
" clip-path="url(#pb680c97994)" style="fill: #696969"/>
   </g>
   <g id="patch_84">
    <path d="M 272.707318 86.579333 
L 277.002726 86.579333 
L 277.002726 71.63202 
L 272.707318 71.63202 
z
" clip-path="url(#pb680c97994)" style="fill: #696969"/>
   </g>
   <g id="patch_85">
    <path d="M 275.391948 86.579333 
L 279.687356 86.579333 
L 279.687356 81.251578 
L 275.391948 81.251578 
z
" clip-path="url(#pb680c97994)" style="fill: #696969"/>
   </g>
   <g id="patch_86">
    <path d="M 278.076578 86.579333 
L 282.371986 86.579333 
L 282.371986 79.623653 
L 278.076578 79.623653 
z
" clip-path="url(#pb680c97994)" style="fill: #696969"/>
   </g>
   <g id="patch_87">
    <path d="M 280.761208 86.579333 
L 285.056615 86.579333 
L 285.056615 73.999912 
L 280.761208 73.999912 
z
" clip-path="url(#pb680c97994)" style="fill: #696969"/>
   </g>
   <g id="patch_88">
    <path d="M 283.445838 86.579333 
L 287.741245 86.579333 
L 287.741245 66.896238 
L 283.445838 66.896238 
z
" clip-path="url(#pb680c97994)" style="fill: #696969"/>
   </g>
   <g id="patch_89">
    <path d="M 286.130467 86.579333 
L 290.425875 86.579333 
L 290.425875 73.111952 
L 286.130467 73.111952 
z
" clip-path="url(#pb680c97994)" style="fill: #696969"/>
   </g>
   <g id="patch_90">
    <path d="M 288.815097 86.579333 
L 293.110505 86.579333 
L 293.110505 70.300082 
L 288.815097 70.300082 
z
" clip-path="url(#pb680c97994)" style="fill: #696969"/>
   </g>
   <g id="patch_91">
    <path d="M 291.499727 86.579333 
L 295.795135 86.579333 
L 295.795135 73.555932 
L 291.499727 73.555932 
z
" clip-path="url(#pb680c97994)" style="fill: #696969"/>
   </g>
   <g id="patch_92">
    <path d="M 294.184357 86.579333 
L 298.479765 86.579333 
L 298.479765 75.923823 
L 294.184357 75.923823 
z
" clip-path="url(#pb680c97994)" style="fill: #696969"/>
   </g>
   <g id="patch_93">
    <path d="M 296.868987 86.579333 
L 301.164395 86.579333 
L 301.164395 77.551748 
L 296.868987 77.551748 
z
" clip-path="url(#pb680c97994)" style="fill: #696969"/>
   </g>
   <g id="patch_94">
    <path d="M 299.553617 86.579333 
L 303.849025 86.579333 
L 303.849025 72.371986 
L 299.553617 72.371986 
z
" clip-path="url(#pb680c97994)" style="fill: #696969"/>
   </g>
   <g id="patch_95">
    <path d="M 302.238247 86.579333 
L 306.533655 86.579333 
L 306.533655 81.399571 
L 302.238247 81.399571 
z
" clip-path="url(#pb680c97994)" style="fill: #696969"/>
   </g>
   <g id="patch_96">
    <path d="M 304.922877 86.579333 
L 309.218285 86.579333 
L 309.218285 77.255762 
L 304.922877 77.255762 
z
" clip-path="url(#pb680c97994)" style="fill: #696969"/>
   </g>
   <g id="patch_97">
    <path d="M 307.607507 86.579333 
L 311.902914 86.579333 
L 311.902914 79.47566 
L 307.607507 79.47566 
z
" clip-path="url(#pb680c97994)" style="fill: #696969"/>
   </g>
   <g id="patch_98">
    <path d="M 310.292137 86.579333 
L 314.587544 86.579333 
L 314.587544 80.955592 
L 310.292137 80.955592 
z
" clip-path="url(#pb680c97994)" style="fill: #696969"/>
   </g>
   <g id="patch_99">
    <path d="M 312.976766 86.579333 
L 317.272174 86.579333 
L 317.272174 86.579333 
L 312.976766 86.579333 
z
" clip-path="url(#pb680c97994)" style="fill: #696969"/>
   </g>
   <g id="patch_100">
    <path d="M 315.661396 86.579333 
L 319.956804 86.579333 
L 319.956804 80.511612 
L 315.661396 80.511612 
z
" clip-path="url(#pb680c97994)" style="fill: #696969"/>
   </g>
   <g id="patch_101">
    <path d="M 318.346026 86.579333 
L 322.641434 86.579333 
L 322.641434 86.579333 
L 318.346026 86.579333 
z
" clip-path="url(#pb680c97994)" style="fill: #696969"/>
   </g>
   <g id="patch_102">
    <path d="M 321.030656 86.579333 
L 325.326064 86.579333 
L 325.326064 86.579333 
L 321.030656 86.579333 
z
" clip-path="url(#pb680c97994)" style="fill: #696969"/>
   </g>
   <g id="patch_103">
    <path d="M 323.715286 86.579333 
L 328.010694 86.579333 
L 328.010694 86.579333 
L 323.715286 86.579333 
z
" clip-path="url(#pb680c97994)" style="fill: #696969"/>
   </g>
   <g id="patch_104">
    <path d="M 326.399916 86.579333 
L 330.695324 86.579333 
L 330.695324 83.619469 
L 326.399916 83.619469 
z
" clip-path="url(#pb680c97994)" style="fill: #696969"/>
   </g>
   <g id="patch_105">
    <path d="M 329.084546 86.579333 
L 333.379954 86.579333 
L 333.379954 86.579333 
L 329.084546 86.579333 
z
" clip-path="url(#pb680c97994)" style="fill: #696969"/>
   </g>
   <g id="patch_106">
    <path d="M 331.769176 86.579333 
L 336.064584 86.579333 
L 336.064584 84.951408 
L 331.769176 84.951408 
z
" clip-path="url(#pb680c97994)" style="fill: #696969"/>
   </g>
   <g id="patch_107">
    <path d="M 334.453806 86.579333 
L 338.749213 86.579333 
L 338.749213 86.579333 
L 334.453806 86.579333 
z
" clip-path="url(#pb680c97994)" style="fill: #696969"/>
   </g>
   <g id="patch_108">
    <path d="M 337.138436 86.579333 
L 341.433843 86.579333 
L 341.433843 86.579333 
L 337.138436 86.579333 
z
" clip-path="url(#pb680c97994)" style="fill: #696969"/>
   </g>
   <g id="patch_109">
    <path d="M 339.823065 86.579333 
L 344.118473 86.579333 
L 344.118473 86.579333 
L 339.823065 86.579333 
z
" clip-path="url(#pb680c97994)" style="fill: #696969"/>
   </g>
   <g id="patch_110">
    <path d="M 342.507695 86.579333 
L 346.803103 86.579333 
L 346.803103 86.283347 
L 342.507695 86.283347 
z
" clip-path="url(#pb680c97994)" style="fill: #696969"/>
   </g>
   <g id="patch_111">
    <path d="M 345.192325 86.579333 
L 349.487733 86.579333 
L 349.487733 86.579333 
L 345.192325 86.579333 
z
" clip-path="url(#pb680c97994)" style="fill: #696969"/>
   </g>
   <g id="patch_112">
    <path d="M 347.876955 86.579333 
L 352.172363 86.579333 
L 352.172363 75.479844 
L 347.876955 75.479844 
z
" clip-path="url(#pb680c97994)" style="fill: #696969"/>
   </g>
   <g id="patch_113">
    <path d="M 350.561585 86.579333 
L 354.856993 86.579333 
L 354.856993 86.579333 
L 350.561585 86.579333 
z
" clip-path="url(#pb680c97994)" style="fill: #696969"/>
   </g>
   <g id="patch_114">
    <path d="M 353.246215 86.579333 
L 357.541623 86.579333 
L 357.541623 79.919639 
L 353.246215 79.919639 
z
" clip-path="url(#pb680c97994)" style="fill: #696969"/>
   </g>
   <g id="patch_115">
    <path d="M 355.930845 86.579333 
L 360.226253 86.579333 
L 360.226253 72.076 
L 355.930845 72.076 
z
" clip-path="url(#pb680c97994)" style="fill: #696969"/>
   </g>
   <g id="patch_116">
    <path d="M 358.615475 86.579333 
L 362.910883 86.579333 
L 362.910883 83.915456 
L 358.615475 83.915456 
z
" clip-path="url(#pb680c97994)" style="fill: #696969"/>
   </g>
   <g id="patch_117">
    <path d="M 361.300105 86.579333 
L 365.595512 86.579333 
L 365.595512 71.63202 
L 361.300105 71.63202 
z
" clip-path="url(#pb680c97994)" style="fill: #696969"/>
   </g>
   <g id="patch_118">
    <path d="M 363.984735 86.579333 
L 368.280142 86.579333 
L 368.280142 76.21981 
L 363.984735 76.21981 
z
" clip-path="url(#pb680c97994)" style="fill: #696969"/>
   </g>
   <g id="patch_119">
    <path d="M 366.669364 86.579333 
L 370.964772 86.579333 
L 370.964772 74.147905 
L 366.669364 74.147905 
z
" clip-path="url(#pb680c97994)" style="fill: #696969"/>
   </g>
   <g id="patch_120">
    <path d="M 369.353994 86.579333 
L 373.649402 86.579333 
L 373.649402 68.82015 
L 369.353994 68.82015 
z
" clip-path="url(#pb680c97994)" style="fill: #696969"/>
   </g>
   <g id="patch_121">
    <path d="M 372.038624 86.579333 
L 376.334032 86.579333 
L 376.334032 71.188041 
L 372.038624 71.188041 
z
" clip-path="url(#pb680c97994)" style="fill: #696969"/>
   </g>
   <g id="patch_122">
    <path d="M 374.723254 86.579333 
L 379.018662 86.579333 
L 379.018662 71.336034 
L 374.723254 71.336034 
z
" clip-path="url(#pb680c97994)" style="fill: #696969"/>
   </g>
   <g id="patch_123">
    <path d="M 377.407884 86.579333 
L 381.703292 86.579333 
L 381.703292 75.77583 
L 377.407884 75.77583 
z
" clip-path="url(#pb680c97994)" style="fill: #696969"/>
   </g>
   <g id="patch_124">
    <path d="M 380.092514 86.579333 
L 384.387922 86.579333 
L 384.387922 64.67634 
L 380.092514 64.67634 
z
" clip-path="url(#pb680c97994)" style="fill: #696969"/>
   </g>
   <g id="patch_125">
    <path d="M 382.777144 86.579333 
L 387.072552 86.579333 
L 387.072552 68.228177 
L 382.777144 68.228177 
z
" clip-path="url(#pb680c97994)" style="fill: #696969"/>
   </g>
   <g id="patch_126">
    <path d="M 385.461774 86.579333 
L 389.757182 86.579333 
L 389.757182 75.183857 
L 385.461774 75.183857 
z
" clip-path="url(#pb680c97994)" style="fill: #696969"/>
   </g>
   <g id="patch_127">
    <path d="M 388.146404 86.579333 
L 392.441811 86.579333 
L 392.441811 73.555932 
L 388.146404 73.555932 
z
" clip-path="url(#pb680c97994)" style="fill: #696969"/>
   </g>
   <g id="patch_128">
    <path d="M 390.831034 86.579333 
L 395.126441 86.579333 
L 395.126441 69.708109 
L 390.831034 69.708109 
z
" clip-path="url(#pb680c97994)" style="fill: #696969"/>
   </g>
   <g id="patch_129">
    <path d="M 393.515663 86.579333 
L 397.811071 86.579333 
L 397.811071 77.107769 
L 393.515663 77.107769 
z
" clip-path="url(#pb680c97994)" style="fill: #696969"/>
   </g>
   <g id="patch_130">
    <path d="M 396.200293 86.579333 
L 400.495701 86.579333 
L 400.495701 74.887871 
L 396.200293 74.887871 
z
" clip-path="url(#pb680c97994)" style="fill: #696969"/>
   </g>
   <g id="patch_131">
    <path d="M 398.884923 86.579333 
L 403.180331 86.579333 
L 403.180331 73.259946 
L 398.884923 73.259946 
z
" clip-path="url(#pb680c97994)" style="fill: #696969"/>
   </g>
   <g id="patch_132">
    <path d="M 401.569553 86.579333 
L 405.864961 86.579333 
L 405.864961 81.991544 
L 401.569553 81.991544 
z
" clip-path="url(#pb680c97994)" style="fill: #696969"/>
   </g>
   <g id="patch_133">
    <path d="M 404.254183 86.579333 
L 408.549591 86.579333 
L 408.549591 71.928007 
L 404.254183 71.928007 
z
" clip-path="url(#pb680c97994)" style="fill: #696969"/>
   </g>
   <g id="patch_134">
    <path d="M 406.938813 86.579333 
L 411.234221 86.579333 
L 411.234221 75.77583 
L 406.938813 75.77583 
z
" clip-path="url(#pb680c97994)" style="fill: #696969"/>
   </g>
   <g id="patch_135">
    <path d="M 409.623443 86.579333 
L 413.918851 86.579333 
L 413.918851 69.708109 
L 409.623443 69.708109 
z
" clip-path="url(#pb680c97994)" style="fill: #696969"/>
   </g>
   <g id="patch_136">
    <path d="M 412.308073 86.579333 
L 416.603481 86.579333 
L 416.603481 80.215626 
L 412.308073 80.215626 
z
" clip-path="url(#pb680c97994)" style="fill: #696969"/>
   </g>
   <g id="patch_137">
    <path d="M 414.992703 86.579333 
L 419.28811 86.579333 
L 419.28811 77.699741 
L 414.992703 77.699741 
z
" clip-path="url(#pb680c97994)" style="fill: #696969"/>
   </g>
   <g id="patch_138">
    <path d="M 417.677333 86.579333 
L 421.97274 86.579333 
L 421.97274 74.887871 
L 417.677333 74.887871 
z
" clip-path="url(#pb680c97994)" style="fill: #696969"/>
   </g>
   <g id="patch_139">
    <path d="M 420.361962 86.579333 
L 424.65737 86.579333 
L 424.65737 85.395388 
L 420.361962 85.395388 
z
" clip-path="url(#pb680c97994)" style="fill: #696969"/>
   </g>
   <g id="patch_140">
    <path d="M 423.046592 86.579333 
L 427.342 86.579333 
L 427.342 86.579333 
L 423.046592 86.579333 
z
" clip-path="url(#pb680c97994)" style="fill: #696969"/>
   </g>
   <g id="patch_141">
    <path d="M 425.731222 86.579333 
L 430.02663 86.579333 
L 430.02663 86.579333 
L 425.731222 86.579333 
z
" clip-path="url(#pb680c97994)" style="fill: #696969"/>
   </g>
   <g id="patch_142">
    <path d="M 428.415852 86.579333 
L 432.71126 86.579333 
L 432.71126 77.107769 
L 428.415852 77.107769 
z
" clip-path="url(#pb680c97994)" style="fill: #696969"/>
   </g>
   <g id="patch_143">
    <path d="M 431.100482 86.579333 
L 435.39589 86.579333 
L 435.39589 83.767463 
L 431.100482 83.767463 
z
" clip-path="url(#pb680c97994)" style="fill: #696969"/>
   </g>
   <g id="patch_144">
    <path d="M 433.785112 86.579333 
L 438.08052 86.579333 
L 438.08052 86.579333 
L 433.785112 86.579333 
z
" clip-path="url(#pb680c97994)" style="fill: #696969"/>
   </g>
   <g id="patch_145">
    <path d="M 436.469742 86.579333 
L 440.76515 86.579333 
L 440.76515 86.579333 
L 436.469742 86.579333 
z
" clip-path="url(#pb680c97994)" style="fill: #696969"/>
   </g>
   <g id="patch_146">
    <path d="M 439.154372 86.579333 
L 443.44978 86.579333 
L 443.44978 86.579333 
L 439.154372 86.579333 
z
" clip-path="url(#pb680c97994)" style="fill: #696969"/>
   </g>
   <g id="matplotlib.axis_1">
    <g id="xtick_1">
     <g id="line2d_1">
      <defs>
       <path id="mdb0d1deac2" d="M 0 0 
L 0 3.5 
" style="stroke: #000000; stroke-width: 0.8"/>
      </defs>
      <g>
       <use xlink:href="#mdb0d1deac2" x="57.4" y="89.48" style="stroke: #000000; stroke-width: 0.8"/>
      </g>
     </g>
     <g id="text_1">
      <!-- 0 -->
      <g transform="translate(54.21875 104.078438) scale(0.1 -0.1)">
       <defs>
        <path id="DejaVuSans-30" d="M 2034 4250 
Q 1547 4250 1301 3770 
Q 1056 3291 1056 2328 
Q 1056 1369 1301 889 
Q 1547 409 2034 409 
Q 2525 409 2770 889 
Q 3016 1369 3016 2328 
Q 3016 3291 2770 3770 
Q 2525 4250 2034 4250 
z
M 2034 4750 
Q 2819 4750 3233 4129 
Q 3647 3509 3647 2328 
Q 3647 1150 3233 529 
Q 2819 -91 2034 -91 
Q 1250 -91 836 529 
Q 422 1150 422 2328 
Q 422 3509 836 4129 
Q 1250 4750 2034 4750 
z
" transform="scale(0.015625)"/>
       </defs>
       <use xlink:href="#DejaVuSans-30"/>
      </g>
     </g>
    </g>
    <g id="xtick_2">
     <g id="line2d_2">
      <g>
       <use xlink:href="#mdb0d1deac2" x="111.092598" y="89.48" style="stroke: #000000; stroke-width: 0.8"/>
      </g>
     </g>
     <g id="text_2">
      <!-- 10 -->
      <g transform="translate(104.730098 104.078438) scale(0.1 -0.1)">
       <defs>
        <path id="DejaVuSans-31" d="M 794 531 
L 1825 531 
L 1825 4091 
L 703 3866 
L 703 4441 
L 1819 4666 
L 2450 4666 
L 2450 531 
L 3481 531 
L 3481 0 
L 794 0 
L 794 531 
z
" transform="scale(0.015625)"/>
       </defs>
       <use xlink:href="#DejaVuSans-31"/>
       <use xlink:href="#DejaVuSans-30" x="63.623047"/>
      </g>
     </g>
    </g>
    <g id="xtick_3">
     <g id="line2d_3">
      <g>
       <use xlink:href="#mdb0d1deac2" x="164.785196" y="89.48" style="stroke: #000000; stroke-width: 0.8"/>
      </g>
     </g>
     <g id="text_3">
      <!-- 20 -->
      <g transform="translate(158.422696 104.078438) scale(0.1 -0.1)">
       <defs>
        <path id="DejaVuSans-32" d="M 1228 531 
L 3431 531 
L 3431 0 
L 469 0 
L 469 531 
Q 828 903 1448 1529 
Q 2069 2156 2228 2338 
Q 2531 2678 2651 2914 
Q 2772 3150 2772 3378 
Q 2772 3750 2511 3984 
Q 2250 4219 1831 4219 
Q 1534 4219 1204 4116 
Q 875 4013 500 3803 
L 500 4441 
Q 881 4594 1212 4672 
Q 1544 4750 1819 4750 
Q 2544 4750 2975 4387 
Q 3406 4025 3406 3419 
Q 3406 3131 3298 2873 
Q 3191 2616 2906 2266 
Q 2828 2175 2409 1742 
Q 1991 1309 1228 531 
z
" transform="scale(0.015625)"/>
       </defs>
       <use xlink:href="#DejaVuSans-32"/>
       <use xlink:href="#DejaVuSans-30" x="63.623047"/>
      </g>
     </g>
    </g>
    <g id="xtick_4">
     <g id="line2d_4">
      <g>
       <use xlink:href="#mdb0d1deac2" x="218.477794" y="89.48" style="stroke: #000000; stroke-width: 0.8"/>
      </g>
     </g>
     <g id="text_4">
      <!-- 30 -->
      <g transform="translate(212.115294 104.078438) scale(0.1 -0.1)">
       <defs>
        <path id="DejaVuSans-33" d="M 2597 2516 
Q 3050 2419 3304 2112 
Q 3559 1806 3559 1356 
Q 3559 666 3084 287 
Q 2609 -91 1734 -91 
Q 1441 -91 1130 -33 
Q 819 25 488 141 
L 488 750 
Q 750 597 1062 519 
Q 1375 441 1716 441 
Q 2309 441 2620 675 
Q 2931 909 2931 1356 
Q 2931 1769 2642 2001 
Q 2353 2234 1838 2234 
L 1294 2234 
L 1294 2753 
L 1863 2753 
Q 2328 2753 2575 2939 
Q 2822 3125 2822 3475 
Q 2822 3834 2567 4026 
Q 2313 4219 1838 4219 
Q 1578 4219 1281 4162 
Q 984 4106 628 3988 
L 628 4550 
Q 988 4650 1302 4700 
Q 1616 4750 1894 4750 
Q 2613 4750 3031 4423 
Q 3450 4097 3450 3541 
Q 3450 3153 3228 2886 
Q 3006 2619 2597 2516 
z
" transform="scale(0.015625)"/>
       </defs>
       <use xlink:href="#DejaVuSans-33"/>
       <use xlink:href="#DejaVuSans-30" x="63.623047"/>
      </g>
     </g>
    </g>
    <g id="xtick_5">
     <g id="line2d_5">
      <g>
       <use xlink:href="#mdb0d1deac2" x="272.170392" y="89.48" style="stroke: #000000; stroke-width: 0.8"/>
      </g>
     </g>
     <g id="text_5">
      <!-- 40 -->
      <g transform="translate(265.807892 104.078438) scale(0.1 -0.1)">
       <defs>
        <path id="DejaVuSans-34" d="M 2419 4116 
L 825 1625 
L 2419 1625 
L 2419 4116 
z
M 2253 4666 
L 3047 4666 
L 3047 1625 
L 3713 1625 
L 3713 1100 
L 3047 1100 
L 3047 0 
L 2419 0 
L 2419 1100 
L 313 1100 
L 313 1709 
L 2253 4666 
z
" transform="scale(0.015625)"/>
       </defs>
       <use xlink:href="#DejaVuSans-34"/>
       <use xlink:href="#DejaVuSans-30" x="63.623047"/>
      </g>
     </g>
    </g>
    <g id="xtick_6">
     <g id="line2d_6">
      <g>
       <use xlink:href="#mdb0d1deac2" x="325.86299" y="89.48" style="stroke: #000000; stroke-width: 0.8"/>
      </g>
     </g>
     <g id="text_6">
      <!-- 50 -->
      <g transform="translate(319.50049 104.078438) scale(0.1 -0.1)">
       <defs>
        <path id="DejaVuSans-35" d="M 691 4666 
L 3169 4666 
L 3169 4134 
L 1269 4134 
L 1269 2991 
Q 1406 3038 1543 3061 
Q 1681 3084 1819 3084 
Q 2600 3084 3056 2656 
Q 3513 2228 3513 1497 
Q 3513 744 3044 326 
Q 2575 -91 1722 -91 
Q 1428 -91 1123 -41 
Q 819 9 494 109 
L 494 744 
Q 775 591 1075 516 
Q 1375 441 1709 441 
Q 2250 441 2565 725 
Q 2881 1009 2881 1497 
Q 2881 1984 2565 2268 
Q 2250 2553 1709 2553 
Q 1456 2553 1204 2497 
Q 953 2441 691 2322 
L 691 4666 
z
" transform="scale(0.015625)"/>
       </defs>
       <use xlink:href="#DejaVuSans-35"/>
       <use xlink:href="#DejaVuSans-30" x="63.623047"/>
      </g>
     </g>
    </g>
    <g id="xtick_7">
     <g id="line2d_7">
      <g>
       <use xlink:href="#mdb0d1deac2" x="379.555588" y="89.48" style="stroke: #000000; stroke-width: 0.8"/>
      </g>
     </g>
     <g id="text_7">
      <!-- 60 -->
      <g transform="translate(373.193088 104.078438) scale(0.1 -0.1)">
       <defs>
        <path id="DejaVuSans-36" d="M 2113 2584 
Q 1688 2584 1439 2293 
Q 1191 2003 1191 1497 
Q 1191 994 1439 701 
Q 1688 409 2113 409 
Q 2538 409 2786 701 
Q 3034 994 3034 1497 
Q 3034 2003 2786 2293 
Q 2538 2584 2113 2584 
z
M 3366 4563 
L 3366 3988 
Q 3128 4100 2886 4159 
Q 2644 4219 2406 4219 
Q 1781 4219 1451 3797 
Q 1122 3375 1075 2522 
Q 1259 2794 1537 2939 
Q 1816 3084 2150 3084 
Q 2853 3084 3261 2657 
Q 3669 2231 3669 1497 
Q 3669 778 3244 343 
Q 2819 -91 2113 -91 
Q 1303 -91 875 529 
Q 447 1150 447 2328 
Q 447 3434 972 4092 
Q 1497 4750 2381 4750 
Q 2619 4750 2861 4703 
Q 3103 4656 3366 4563 
z
" transform="scale(0.015625)"/>
       </defs>
       <use xlink:href="#DejaVuSans-36"/>
       <use xlink:href="#DejaVuSans-30" x="63.623047"/>
      </g>
     </g>
    </g>
    <g id="xtick_8">
     <g id="line2d_8">
      <g>
       <use xlink:href="#mdb0d1deac2" x="433.248186" y="89.48" style="stroke: #000000; stroke-width: 0.8"/>
      </g>
     </g>
     <g id="text_8">
      <!-- 70 -->
      <g transform="translate(426.885686 104.078438) scale(0.1 -0.1)">
       <defs>
        <path id="DejaVuSans-37" d="M 525 4666 
L 3525 4666 
L 3525 4397 
L 1831 0 
L 1172 0 
L 2766 4134 
L 525 4134 
L 525 4666 
z
" transform="scale(0.015625)"/>
       </defs>
       <use xlink:href="#DejaVuSans-37"/>
       <use xlink:href="#DejaVuSans-30" x="63.623047"/>
      </g>
     </g>
    </g>
   </g>
   <g id="matplotlib.axis_2">
    <g id="ytick_1">
     <g id="line2d_9">
      <defs>
       <path id="m09291fe99c" d="M 0 0 
L -3.5 0 
" style="stroke: #000000; stroke-width: 0.8"/>
      </defs>
      <g>
       <use xlink:href="#m09291fe99c" x="57.4" y="86.579333" style="stroke: #000000; stroke-width: 0.8"/>
      </g>
     </g>
     <g id="text_9">
      <!-- 0 -->
      <g transform="translate(44.0375 90.378552) scale(0.1 -0.1)">
       <use xlink:href="#DejaVuSans-30"/>
      </g>
     </g>
    </g>
    <g id="ytick_2">
     <g id="line2d_10">
      <g>
       <use xlink:href="#m09291fe99c" x="57.4" y="56.980694" style="stroke: #000000; stroke-width: 0.8"/>
      </g>
     </g>
     <g id="text_10">
      <!-- 2 -->
      <g transform="translate(44.0375 60.779913) scale(0.1 -0.1)">
       <use xlink:href="#DejaVuSans-32"/>
      </g>
     </g>
    </g>
    <g id="text_11">
     <!-- 1e2 -->
     <g transform="translate(57.4 51.672) scale(0.1 -0.1)">
      <defs>
       <path id="DejaVuSans-65" d="M 3597 1894 
L 3597 1613 
L 953 1613 
Q 991 1019 1311 708 
Q 1631 397 2203 397 
Q 2534 397 2845 478 
Q 3156 559 3463 722 
L 3463 178 
Q 3153 47 2828 -22 
Q 2503 -91 2169 -91 
Q 1331 -91 842 396 
Q 353 884 353 1716 
Q 353 2575 817 3079 
Q 1281 3584 2069 3584 
Q 2775 3584 3186 3129 
Q 3597 2675 3597 1894 
z
M 3022 2063 
Q 3016 2534 2758 2815 
Q 2500 3097 2075 3097 
Q 1594 3097 1305 2825 
Q 1016 2553 972 2059 
L 3022 2063 
z
" transform="scale(0.015625)"/>
      </defs>
      <use xlink:href="#DejaVuSans-31"/>
      <use xlink:href="#DejaVuSans-65" x="63.623047"/>
      <use xlink:href="#DejaVuSans-32" x="125.146484"/>
     </g>
    </g>
   </g>
   <g id="line2d_11">
    <path d="M 57.4 78.077794 
L 68.13852 81.682428 
L 73.507779 83.218069 
L 78.877039 84.407961 
L 81.561669 84.842531 
L 84.246299 85.157928 
L 86.930929 85.347882 
L 89.615559 85.408615 
L 92.300189 85.33892 
L 94.984819 85.140182 
L 97.669448 84.816353 
L 103.038708 83.821539 
L 108.407968 82.433214 
L 113.777228 80.761256 
L 129.885007 75.415315 
L 135.254267 73.994703 
L 140.623527 72.958325 
L 143.308157 72.61124 
L 145.992787 72.388205 
L 148.677417 72.293654 
L 151.362046 72.329466 
L 154.046676 72.494931 
L 156.731306 72.786757 
L 162.100566 73.723885 
L 167.469826 75.066682 
L 172.839086 76.708871 
L 191.631495 82.847564 
L 197.000755 84.137667 
L 199.685385 84.630934 
L 202.370015 85.009237 
L 205.054644 85.265054 
L 207.739274 85.393296 
L 210.423904 85.391414 
L 213.108534 85.259446 
L 215.793164 85.000016 
L 218.477794 84.618281 
L 223.847054 83.520547 
L 229.216314 82.053122 
L 234.585573 80.332148 
L 248.008723 75.834308 
L 253.377983 74.33117 
L 258.747242 73.185636 
L 261.431872 72.776623 
L 264.116502 72.48837 
L 266.801132 72.326609 
L 269.485762 72.294557 
L 272.170392 72.392852 
L 274.855022 72.619537 
L 277.539652 72.970107 
L 282.908912 74.012688 
L 288.278171 75.43808 
L 293.647431 77.13347 
L 307.070581 81.648986 
L 312.43984 83.190379 
L 317.8091 84.388214 
L 320.49373 84.827386 
L 323.17836 85.147687 
L 325.86299 85.342748 
L 328.54762 85.408691 
L 331.23225 85.344203 
L 333.91688 85.150568 
L 336.60151 84.831635 
L 341.970769 83.84561 
L 347.340029 82.464169 
L 352.709289 80.796646 
L 368.817068 75.446917 
L 374.186328 74.019679 
L 379.555588 72.974699 
L 382.240218 72.62278 
L 384.924848 72.394681 
L 387.609478 72.294937 
L 390.294108 72.325531 
L 392.978737 72.485856 
L 395.663367 72.772723 
L 398.347997 73.180427 
L 403.717257 74.323679 
L 409.086517 75.825128 
L 417.140407 78.483504 
L 425.194296 81.206518 
L 430.563556 82.818146 
L 435.932816 84.115676 
L 438.617446 84.613353 
L 441.302076 84.996415 
L 441.302076 84.996415 
" clip-path="url(#pb680c97994)" style="fill: none; stroke: #191970; stroke-width: 3; stroke-linecap: square"/>
   </g>
   <g id="line2d_12">
    <path d="M 149.28303 89.48 
L 149.28303 54.672 
" clip-path="url(#pb680c97994)" style="fill: none; stroke-dasharray: 7.4,3.2; stroke-dashoffset: 0; stroke: #000000; stroke-opacity: 0.8; stroke-width: 2"/>
   </g>
   <g id="patch_147">
    <path d="M 57.4 89.48 
L 57.4 54.672 
" style="fill: none; stroke: #000000; stroke-width: 0.8; stroke-linejoin: miter; stroke-linecap: square"/>
   </g>
   <g id="patch_148">
    <path d="M 57.4 89.48 
L 441.302076 89.48 
" style="fill: none; stroke: #000000; stroke-width: 0.8; stroke-linejoin: miter; stroke-linecap: square"/>
   </g>
   <g id="text_12">
    <!-- 1 -->
    <g transform="translate(246.806038 39.71375) scale(0.08 -0.08)">
     <use xlink:href="#DejaVuSans-31"/>
    </g>
    <!-- (AC: 17.11, PR: 22.26) -->
    <g transform="translate(205.021663 48.672) scale(0.08 -0.08)">
     <defs>
      <path id="DejaVuSans-28" d="M 1984 4856 
Q 1566 4138 1362 3434 
Q 1159 2731 1159 2009 
Q 1159 1288 1364 580 
Q 1569 -128 1984 -844 
L 1484 -844 
Q 1016 -109 783 600 
Q 550 1309 550 2009 
Q 550 2706 781 3412 
Q 1013 4119 1484 4856 
L 1984 4856 
z
" transform="scale(0.015625)"/>
      <path id="DejaVuSans-41" d="M 2188 4044 
L 1331 1722 
L 3047 1722 
L 2188 4044 
z
M 1831 4666 
L 2547 4666 
L 4325 0 
L 3669 0 
L 3244 1197 
L 1141 1197 
L 716 0 
L 50 0 
L 1831 4666 
z
" transform="scale(0.015625)"/>
      <path id="DejaVuSans-43" d="M 4122 4306 
L 4122 3641 
Q 3803 3938 3442 4084 
Q 3081 4231 2675 4231 
Q 1875 4231 1450 3742 
Q 1025 3253 1025 2328 
Q 1025 1406 1450 917 
Q 1875 428 2675 428 
Q 3081 428 3442 575 
Q 3803 722 4122 1019 
L 4122 359 
Q 3791 134 3420 21 
Q 3050 -91 2638 -91 
Q 1578 -91 968 557 
Q 359 1206 359 2328 
Q 359 3453 968 4101 
Q 1578 4750 2638 4750 
Q 3056 4750 3426 4639 
Q 3797 4528 4122 4306 
z
" transform="scale(0.015625)"/>
      <path id="DejaVuSans-3a" d="M 750 794 
L 1409 794 
L 1409 0 
L 750 0 
L 750 794 
z
M 750 3309 
L 1409 3309 
L 1409 2516 
L 750 2516 
L 750 3309 
z
" transform="scale(0.015625)"/>
      <path id="DejaVuSans-20" transform="scale(0.015625)"/>
      <path id="DejaVuSans-2e" d="M 684 794 
L 1344 794 
L 1344 0 
L 684 0 
L 684 794 
z
" transform="scale(0.015625)"/>
      <path id="DejaVuSans-2c" d="M 750 794 
L 1409 794 
L 1409 256 
L 897 -744 
L 494 -744 
L 750 256 
L 750 794 
z
" transform="scale(0.015625)"/>
      <path id="DejaVuSans-50" d="M 1259 4147 
L 1259 2394 
L 2053 2394 
Q 2494 2394 2734 2622 
Q 2975 2850 2975 3272 
Q 2975 3691 2734 3919 
Q 2494 4147 2053 4147 
L 1259 4147 
z
M 628 4666 
L 2053 4666 
Q 2838 4666 3239 4311 
Q 3641 3956 3641 3272 
Q 3641 2581 3239 2228 
Q 2838 1875 2053 1875 
L 1259 1875 
L 1259 0 
L 628 0 
L 628 4666 
z
" transform="scale(0.015625)"/>
      <path id="DejaVuSans-52" d="M 2841 2188 
Q 3044 2119 3236 1894 
Q 3428 1669 3622 1275 
L 4263 0 
L 3584 0 
L 2988 1197 
Q 2756 1666 2539 1819 
Q 2322 1972 1947 1972 
L 1259 1972 
L 1259 0 
L 628 0 
L 628 4666 
L 2053 4666 
Q 2853 4666 3247 4331 
Q 3641 3997 3641 3322 
Q 3641 2881 3436 2590 
Q 3231 2300 2841 2188 
z
M 1259 4147 
L 1259 2491 
L 2053 2491 
Q 2509 2491 2742 2702 
Q 2975 2913 2975 3322 
Q 2975 3731 2742 3939 
Q 2509 4147 2053 4147 
L 1259 4147 
z
" transform="scale(0.015625)"/>
      <path id="DejaVuSans-29" d="M 513 4856 
L 1013 4856 
Q 1481 4119 1714 3412 
Q 1947 2706 1947 2009 
Q 1947 1309 1714 600 
Q 1481 -109 1013 -844 
L 513 -844 
Q 928 -128 1133 580 
Q 1338 1288 1338 2009 
Q 1338 2731 1133 3434 
Q 928 4138 513 4856 
z
" transform="scale(0.015625)"/>
     </defs>
     <use xlink:href="#DejaVuSans-28"/>
     <use xlink:href="#DejaVuSans-41" x="39.013672"/>
     <use xlink:href="#DejaVuSans-43" x="105.671875"/>
     <use xlink:href="#DejaVuSans-3a" x="175.496094"/>
     <use xlink:href="#DejaVuSans-20" x="209.1875"/>
     <use xlink:href="#DejaVuSans-31" x="240.974609"/>
     <use xlink:href="#DejaVuSans-37" x="304.597656"/>
     <use xlink:href="#DejaVuSans-2e" x="368.220703"/>
     <use xlink:href="#DejaVuSans-31" x="400.007812"/>
     <use xlink:href="#DejaVuSans-31" x="463.630859"/>
     <use xlink:href="#DejaVuSans-2c" x="527.253906"/>
     <use xlink:href="#DejaVuSans-20" x="559.041016"/>
     <use xlink:href="#DejaVuSans-50" x="590.828125"/>
     <use xlink:href="#DejaVuSans-52" x="651.130859"/>
     <use xlink:href="#DejaVuSans-3a" x="717.488281"/>
     <use xlink:href="#DejaVuSans-20" x="751.179688"/>
     <use xlink:href="#DejaVuSans-32" x="782.966797"/>
     <use xlink:href="#DejaVuSans-32" x="846.589844"/>
     <use xlink:href="#DejaVuSans-2e" x="910.212891"/>
     <use xlink:href="#DejaVuSans-32" x="942"/>
     <use xlink:href="#DejaVuSans-36" x="1005.623047"/>
     <use xlink:href="#DejaVuSans-29" x="1069.246094"/>
    </g>
   </g>
  </g>
  <g id="axes_2">
   <g id="patch_149">
    <path d="M 455.617924 89.48 
L 839.52 89.48 
L 839.52 54.672 
L 455.617924 54.672 
z
" style="fill: #ffffff"/>
   </g>
   <g id="patch_150">
    <path d="M 453.47022 86.579333 
L 457.765628 86.579333 
L 457.765628 86.579333 
L 453.47022 86.579333 
z
" clip-path="url(#p4044181ecd)" style="fill: #696969"/>
   </g>
   <g id="patch_151">
    <path d="M 456.15485 86.579333 
L 460.450258 86.579333 
L 460.450258 86.579333 
L 456.15485 86.579333 
z
" clip-path="url(#p4044181ecd)" style="fill: #696969"/>
   </g>
   <g id="patch_152">
    <path d="M 458.83948 86.579333 
L 463.134888 86.579333 
L 463.134888 82.435524 
L 458.83948 82.435524 
z
" clip-path="url(#p4044181ecd)" style="fill: #696969"/>
   </g>
   <g id="patch_153">
    <path d="M 461.52411 86.579333 
L 465.819518 86.579333 
L 465.819518 82.879503 
L 461.52411 82.879503 
z
" clip-path="url(#p4044181ecd)" style="fill: #696969"/>
   </g>
   <g id="patch_154">
    <path d="M 464.20874 86.579333 
L 468.504148 86.579333 
L 468.504148 79.919639 
L 464.20874 79.919639 
z
" clip-path="url(#p4044181ecd)" style="fill: #696969"/>
   </g>
   <g id="patch_155">
    <path d="M 466.89337 86.579333 
L 471.188778 86.579333 
L 471.188778 86.579333 
L 466.89337 86.579333 
z
" clip-path="url(#p4044181ecd)" style="fill: #696969"/>
   </g>
   <g id="patch_156">
    <path d="M 469.578 86.579333 
L 473.873408 86.579333 
L 473.873408 86.579333 
L 469.578 86.579333 
z
" clip-path="url(#p4044181ecd)" style="fill: #696969"/>
   </g>
   <g id="patch_157">
    <path d="M 472.26263 86.579333 
L 476.558038 86.579333 
L 476.558038 85.691374 
L 472.26263 85.691374 
z
" clip-path="url(#p4044181ecd)" style="fill: #696969"/>
   </g>
   <g id="patch_158">
    <path d="M 474.94726 86.579333 
L 479.242667 86.579333 
L 479.242667 86.579333 
L 474.94726 86.579333 
z
" clip-path="url(#p4044181ecd)" style="fill: #696969"/>
   </g>
   <g id="patch_159">
    <path d="M 477.63189 86.579333 
L 481.927297 86.579333 
L 481.927297 86.579333 
L 477.63189 86.579333 
z
" clip-path="url(#p4044181ecd)" style="fill: #696969"/>
   </g>
   <g id="patch_160">
    <path d="M 480.316519 86.579333 
L 484.611927 86.579333 
L 484.611927 86.579333 
L 480.316519 86.579333 
z
" clip-path="url(#p4044181ecd)" style="fill: #696969"/>
   </g>
   <g id="patch_161">
    <path d="M 483.001149 86.579333 
L 487.296557 86.579333 
L 487.296557 86.579333 
L 483.001149 86.579333 
z
" clip-path="url(#p4044181ecd)" style="fill: #696969"/>
   </g>
   <g id="patch_162">
    <path d="M 485.685779 86.579333 
L 489.981187 86.579333 
L 489.981187 77.107769 
L 485.685779 77.107769 
z
" clip-path="url(#p4044181ecd)" style="fill: #696969"/>
   </g>
   <g id="patch_163">
    <path d="M 488.370409 86.579333 
L 492.665817 86.579333 
L 492.665817 85.247395 
L 488.370409 85.247395 
z
" clip-path="url(#p4044181ecd)" style="fill: #696969"/>
   </g>
   <g id="patch_164">
    <path d="M 491.055039 86.579333 
L 495.350447 86.579333 
L 495.350447 79.03168 
L 491.055039 79.03168 
z
" clip-path="url(#p4044181ecd)" style="fill: #696969"/>
   </g>
   <g id="patch_165">
    <path d="M 493.739669 86.579333 
L 498.035077 86.579333 
L 498.035077 78.291714 
L 493.739669 78.291714 
z
" clip-path="url(#p4044181ecd)" style="fill: #696969"/>
   </g>
   <g id="patch_166">
    <path d="M 496.424299 86.579333 
L 500.719707 86.579333 
L 500.719707 74.591884 
L 496.424299 74.591884 
z
" clip-path="url(#p4044181ecd)" style="fill: #696969"/>
   </g>
   <g id="patch_167">
    <path d="M 499.108929 86.579333 
L 503.404337 86.579333 
L 503.404337 76.515796 
L 499.108929 76.515796 
z
" clip-path="url(#p4044181ecd)" style="fill: #696969"/>
   </g>
   <g id="patch_168">
    <path d="M 501.793559 86.579333 
L 506.088966 86.579333 
L 506.088966 76.367803 
L 501.793559 76.367803 
z
" clip-path="url(#p4044181ecd)" style="fill: #696969"/>
   </g>
   <g id="patch_169">
    <path d="M 504.478189 86.579333 
L 508.773596 86.579333 
L 508.773596 84.507429 
L 504.478189 84.507429 
z
" clip-path="url(#p4044181ecd)" style="fill: #696969"/>
   </g>
   <g id="patch_170">
    <path d="M 507.162818 86.579333 
L 511.458226 86.579333 
L 511.458226 79.771646 
L 507.162818 79.771646 
z
" clip-path="url(#p4044181ecd)" style="fill: #696969"/>
   </g>
   <g id="patch_171">
    <path d="M 509.847448 86.579333 
L 514.142856 86.579333 
L 514.142856 73.703925 
L 509.847448 73.703925 
z
" clip-path="url(#p4044181ecd)" style="fill: #696969"/>
   </g>
   <g id="patch_172">
    <path d="M 512.532078 86.579333 
L 516.827486 86.579333 
L 516.827486 70.152088 
L 512.532078 70.152088 
z
" clip-path="url(#p4044181ecd)" style="fill: #696969"/>
   </g>
   <g id="patch_173">
    <path d="M 515.216708 86.579333 
L 519.512116 86.579333 
L 519.512116 70.300082 
L 515.216708 70.300082 
z
" clip-path="url(#p4044181ecd)" style="fill: #696969"/>
   </g>
   <g id="patch_174">
    <path d="M 517.901338 86.579333 
L 522.196746 86.579333 
L 522.196746 74.887871 
L 517.901338 74.887871 
z
" clip-path="url(#p4044181ecd)" style="fill: #696969"/>
   </g>
   <g id="patch_175">
    <path d="M 520.585968 86.579333 
L 524.881376 86.579333 
L 524.881376 72.667973 
L 520.585968 72.667973 
z
" clip-path="url(#p4044181ecd)" style="fill: #696969"/>
   </g>
   <g id="patch_176">
    <path d="M 523.270598 86.579333 
L 527.566006 86.579333 
L 527.566006 70.448075 
L 523.270598 70.448075 
z
" clip-path="url(#p4044181ecd)" style="fill: #696969"/>
   </g>
   <g id="patch_177">
    <path d="M 525.955228 86.579333 
L 530.250636 86.579333 
L 530.250636 68.82015 
L 525.955228 68.82015 
z
" clip-path="url(#p4044181ecd)" style="fill: #696969"/>
   </g>
   <g id="patch_178">
    <path d="M 528.639858 86.579333 
L 532.935265 86.579333 
L 532.935265 72.076 
L 528.639858 72.076 
z
" clip-path="url(#p4044181ecd)" style="fill: #696969"/>
   </g>
   <g id="patch_179">
    <path d="M 531.324488 86.579333 
L 535.619895 86.579333 
L 535.619895 78.587701 
L 531.324488 78.587701 
z
" clip-path="url(#p4044181ecd)" style="fill: #696969"/>
   </g>
   <g id="patch_180">
    <path d="M 534.009117 86.579333 
L 538.304525 86.579333 
L 538.304525 71.040048 
L 534.009117 71.040048 
z
" clip-path="url(#p4044181ecd)" style="fill: #696969"/>
   </g>
   <g id="patch_181">
    <path d="M 536.693747 86.579333 
L 540.989155 86.579333 
L 540.989155 71.336034 
L 536.693747 71.336034 
z
" clip-path="url(#p4044181ecd)" style="fill: #696969"/>
   </g>
   <g id="patch_182">
    <path d="M 539.378377 86.579333 
L 543.673785 86.579333 
L 543.673785 75.33185 
L 539.378377 75.33185 
z
" clip-path="url(#p4044181ecd)" style="fill: #696969"/>
   </g>
   <g id="patch_183">
    <path d="M 542.063007 86.579333 
L 546.358415 86.579333 
L 546.358415 79.03168 
L 542.063007 79.03168 
z
" clip-path="url(#p4044181ecd)" style="fill: #696969"/>
   </g>
   <g id="patch_184">
    <path d="M 544.747637 86.579333 
L 549.043045 86.579333 
L 549.043045 72.963959 
L 544.747637 72.963959 
z
" clip-path="url(#p4044181ecd)" style="fill: #696969"/>
   </g>
   <g id="patch_185">
    <path d="M 547.432267 86.579333 
L 551.727675 86.579333 
L 551.727675 67.93219 
L 547.432267 67.93219 
z
" clip-path="url(#p4044181ecd)" style="fill: #696969"/>
   </g>
   <g id="patch_186">
    <path d="M 550.116897 86.579333 
L 554.412305 86.579333 
L 554.412305 79.03168 
L 550.116897 79.03168 
z
" clip-path="url(#p4044181ecd)" style="fill: #696969"/>
   </g>
   <g id="patch_187">
    <path d="M 552.801527 86.579333 
L 557.096935 86.579333 
L 557.096935 85.543381 
L 552.801527 85.543381 
z
" clip-path="url(#p4044181ecd)" style="fill: #696969"/>
   </g>
   <g id="patch_188">
    <path d="M 555.486157 86.579333 
L 559.781564 86.579333 
L 559.781564 83.471476 
L 555.486157 83.471476 
z
" clip-path="url(#p4044181ecd)" style="fill: #696969"/>
   </g>
   <g id="patch_189">
    <path d="M 558.170787 86.579333 
L 562.466194 86.579333 
L 562.466194 77.255762 
L 558.170787 77.255762 
z
" clip-path="url(#p4044181ecd)" style="fill: #696969"/>
   </g>
   <g id="patch_190">
    <path d="M 560.855416 86.579333 
L 565.150824 86.579333 
L 565.150824 84.803415 
L 560.855416 84.803415 
z
" clip-path="url(#p4044181ecd)" style="fill: #696969"/>
   </g>
   <g id="patch_191">
    <path d="M 563.540046 86.579333 
L 567.835454 86.579333 
L 567.835454 83.619469 
L 563.540046 83.619469 
z
" clip-path="url(#p4044181ecd)" style="fill: #696969"/>
   </g>
   <g id="patch_192">
    <path d="M 566.224676 86.579333 
L 570.520084 86.579333 
L 570.520084 77.847735 
L 566.224676 77.847735 
z
" clip-path="url(#p4044181ecd)" style="fill: #696969"/>
   </g>
   <g id="patch_193">
    <path d="M 568.909306 86.579333 
L 573.204714 86.579333 
L 573.204714 76.071816 
L 568.909306 76.071816 
z
" clip-path="url(#p4044181ecd)" style="fill: #696969"/>
   </g>
   <g id="patch_194">
    <path d="M 571.593936 86.579333 
L 575.889344 86.579333 
L 575.889344 81.991544 
L 571.593936 81.991544 
z
" clip-path="url(#p4044181ecd)" style="fill: #696969"/>
   </g>
   <g id="patch_195">
    <path d="M 574.278566 86.579333 
L 578.573974 86.579333 
L 578.573974 80.067633 
L 574.278566 80.067633 
z
" clip-path="url(#p4044181ecd)" style="fill: #696969"/>
   </g>
   <g id="patch_196">
    <path d="M 576.963196 86.579333 
L 581.258604 86.579333 
L 581.258604 79.03168 
L 576.963196 79.03168 
z
" clip-path="url(#p4044181ecd)" style="fill: #696969"/>
   </g>
   <g id="patch_197">
    <path d="M 579.647826 86.579333 
L 583.943234 86.579333 
L 583.943234 85.247395 
L 579.647826 85.247395 
z
" clip-path="url(#p4044181ecd)" style="fill: #696969"/>
   </g>
   <g id="patch_198">
    <path d="M 582.332456 86.579333 
L 586.627863 86.579333 
L 586.627863 86.579333 
L 582.332456 86.579333 
z
" clip-path="url(#p4044181ecd)" style="fill: #696969"/>
   </g>
   <g id="patch_199">
    <path d="M 585.017086 86.579333 
L 589.312493 86.579333 
L 589.312493 86.579333 
L 585.017086 86.579333 
z
" clip-path="url(#p4044181ecd)" style="fill: #696969"/>
   </g>
   <g id="patch_200">
    <path d="M 587.701715 86.579333 
L 591.997123 86.579333 
L 591.997123 81.695558 
L 587.701715 81.695558 
z
" clip-path="url(#p4044181ecd)" style="fill: #696969"/>
   </g>
   <g id="patch_201">
    <path d="M 590.386345 86.579333 
L 594.681753 86.579333 
L 594.681753 86.579333 
L 590.386345 86.579333 
z
" clip-path="url(#p4044181ecd)" style="fill: #696969"/>
   </g>
   <g id="patch_202">
    <path d="M 593.070975 86.579333 
L 597.366383 86.579333 
L 597.366383 86.579333 
L 593.070975 86.579333 
z
" clip-path="url(#p4044181ecd)" style="fill: #696969"/>
   </g>
   <g id="patch_203">
    <path d="M 595.755605 86.579333 
L 600.051013 86.579333 
L 600.051013 86.579333 
L 595.755605 86.579333 
z
" clip-path="url(#p4044181ecd)" style="fill: #696969"/>
   </g>
   <g id="patch_204">
    <path d="M 598.440235 86.579333 
L 602.735643 86.579333 
L 602.735643 86.579333 
L 598.440235 86.579333 
z
" clip-path="url(#p4044181ecd)" style="fill: #696969"/>
   </g>
   <g id="patch_205">
    <path d="M 601.124865 86.579333 
L 605.420273 86.579333 
L 605.420273 85.543381 
L 601.124865 85.543381 
z
" clip-path="url(#p4044181ecd)" style="fill: #696969"/>
   </g>
   <g id="patch_206">
    <path d="M 603.809495 86.579333 
L 608.104903 86.579333 
L 608.104903 86.579333 
L 603.809495 86.579333 
z
" clip-path="url(#p4044181ecd)" style="fill: #696969"/>
   </g>
   <g id="patch_207">
    <path d="M 606.494125 86.579333 
L 610.789533 86.579333 
L 610.789533 83.323483 
L 606.494125 83.323483 
z
" clip-path="url(#p4044181ecd)" style="fill: #696969"/>
   </g>
   <g id="patch_208">
    <path d="M 609.178755 86.579333 
L 613.474162 86.579333 
L 613.474162 77.551748 
L 609.178755 77.551748 
z
" clip-path="url(#p4044181ecd)" style="fill: #696969"/>
   </g>
   <g id="patch_209">
    <path d="M 611.863385 86.579333 
L 616.158792 86.579333 
L 616.158792 86.579333 
L 611.863385 86.579333 
z
" clip-path="url(#p4044181ecd)" style="fill: #696969"/>
   </g>
   <g id="patch_210">
    <path d="M 614.548014 86.579333 
L 618.843422 86.579333 
L 618.843422 78.735694 
L 614.548014 78.735694 
z
" clip-path="url(#p4044181ecd)" style="fill: #696969"/>
   </g>
   <g id="patch_211">
    <path d="M 617.232644 86.579333 
L 621.528052 86.579333 
L 621.528052 72.667973 
L 617.232644 72.667973 
z
" clip-path="url(#p4044181ecd)" style="fill: #696969"/>
   </g>
   <g id="patch_212">
    <path d="M 619.917274 86.579333 
L 624.212682 86.579333 
L 624.212682 84.507429 
L 619.917274 84.507429 
z
" clip-path="url(#p4044181ecd)" style="fill: #696969"/>
   </g>
   <g id="patch_213">
    <path d="M 622.601904 86.579333 
L 626.897312 86.579333 
L 626.897312 76.21981 
L 622.601904 76.21981 
z
" clip-path="url(#p4044181ecd)" style="fill: #696969"/>
   </g>
   <g id="patch_214">
    <path d="M 625.286534 86.579333 
L 629.581942 86.579333 
L 629.581942 72.667973 
L 625.286534 72.667973 
z
" clip-path="url(#p4044181ecd)" style="fill: #696969"/>
   </g>
   <g id="patch_215">
    <path d="M 627.971164 86.579333 
L 632.266572 86.579333 
L 632.266572 77.699741 
L 627.971164 77.699741 
z
" clip-path="url(#p4044181ecd)" style="fill: #696969"/>
   </g>
   <g id="patch_216">
    <path d="M 630.655794 86.579333 
L 634.951202 86.579333 
L 634.951202 77.847735 
L 630.655794 77.847735 
z
" clip-path="url(#p4044181ecd)" style="fill: #696969"/>
   </g>
   <g id="patch_217">
    <path d="M 633.340424 86.579333 
L 637.635832 86.579333 
L 637.635832 72.667973 
L 633.340424 72.667973 
z
" clip-path="url(#p4044181ecd)" style="fill: #696969"/>
   </g>
   <g id="patch_218">
    <path d="M 636.025054 86.579333 
L 640.320461 86.579333 
L 640.320461 70.152088 
L 636.025054 70.152088 
z
" clip-path="url(#p4044181ecd)" style="fill: #696969"/>
   </g>
   <g id="patch_219">
    <path d="M 638.709684 86.579333 
L 643.005091 86.579333 
L 643.005091 71.63202 
L 638.709684 71.63202 
z
" clip-path="url(#p4044181ecd)" style="fill: #696969"/>
   </g>
   <g id="patch_220">
    <path d="M 641.394313 86.579333 
L 645.689721 86.579333 
L 645.689721 71.780014 
L 641.394313 71.780014 
z
" clip-path="url(#p4044181ecd)" style="fill: #696969"/>
   </g>
   <g id="patch_221">
    <path d="M 644.078943 86.579333 
L 648.374351 86.579333 
L 648.374351 66.304265 
L 644.078943 66.304265 
z
" clip-path="url(#p4044181ecd)" style="fill: #696969"/>
   </g>
   <g id="patch_222">
    <path d="M 646.763573 86.579333 
L 651.058981 86.579333 
L 651.058981 73.407939 
L 646.763573 73.407939 
z
" clip-path="url(#p4044181ecd)" style="fill: #696969"/>
   </g>
   <g id="patch_223">
    <path d="M 649.448203 86.579333 
L 653.743611 86.579333 
L 653.743611 70.596068 
L 649.448203 70.596068 
z
" clip-path="url(#p4044181ecd)" style="fill: #696969"/>
   </g>
   <g id="patch_224">
    <path d="M 652.132833 86.579333 
L 656.428241 86.579333 
L 656.428241 74.887871 
L 652.132833 74.887871 
z
" clip-path="url(#p4044181ecd)" style="fill: #696969"/>
   </g>
   <g id="patch_225">
    <path d="M 654.817463 86.579333 
L 659.112871 86.579333 
L 659.112871 66.304265 
L 654.817463 66.304265 
z
" clip-path="url(#p4044181ecd)" style="fill: #696969"/>
   </g>
   <g id="patch_226">
    <path d="M 657.502093 86.579333 
L 661.797501 86.579333 
L 661.797501 79.179673 
L 657.502093 79.179673 
z
" clip-path="url(#p4044181ecd)" style="fill: #696969"/>
   </g>
   <g id="patch_227">
    <path d="M 660.186723 86.579333 
L 664.482131 86.579333 
L 664.482131 64.380354 
L 660.186723 64.380354 
z
" clip-path="url(#p4044181ecd)" style="fill: #696969"/>
   </g>
   <g id="patch_228">
    <path d="M 662.871353 86.579333 
L 667.16676 86.579333 
L 667.16676 57.572667 
L 662.871353 57.572667 
z
" clip-path="url(#p4044181ecd)" style="fill: #696969"/>
   </g>
   <g id="patch_229">
    <path d="M 665.555983 86.579333 
L 669.85139 86.579333 
L 669.85139 71.188041 
L 665.555983 71.188041 
z
" clip-path="url(#p4044181ecd)" style="fill: #696969"/>
   </g>
   <g id="patch_230">
    <path d="M 668.240612 86.579333 
L 672.53602 86.579333 
L 672.53602 70.892054 
L 668.240612 70.892054 
z
" clip-path="url(#p4044181ecd)" style="fill: #696969"/>
   </g>
   <g id="patch_231">
    <path d="M 670.925242 86.579333 
L 675.22065 86.579333 
L 675.22065 71.63202 
L 670.925242 71.63202 
z
" clip-path="url(#p4044181ecd)" style="fill: #696969"/>
   </g>
   <g id="patch_232">
    <path d="M 673.609872 86.579333 
L 677.90528 86.579333 
L 677.90528 77.847735 
L 673.609872 77.847735 
z
" clip-path="url(#p4044181ecd)" style="fill: #696969"/>
   </g>
   <g id="patch_233">
    <path d="M 676.294502 86.579333 
L 680.58991 86.579333 
L 680.58991 71.63202 
L 676.294502 71.63202 
z
" clip-path="url(#p4044181ecd)" style="fill: #696969"/>
   </g>
   <g id="patch_234">
    <path d="M 678.979132 86.579333 
L 683.27454 86.579333 
L 683.27454 83.027497 
L 678.979132 83.027497 
z
" clip-path="url(#p4044181ecd)" style="fill: #696969"/>
   </g>
   <g id="patch_235">
    <path d="M 681.663762 86.579333 
L 685.95917 86.579333 
L 685.95917 78.439707 
L 681.663762 78.439707 
z
" clip-path="url(#p4044181ecd)" style="fill: #696969"/>
   </g>
   <g id="patch_236">
    <path d="M 684.348392 86.579333 
L 688.6438 86.579333 
L 688.6438 86.135354 
L 684.348392 86.135354 
z
" clip-path="url(#p4044181ecd)" style="fill: #696969"/>
   </g>
   <g id="patch_237">
    <path d="M 687.033022 86.579333 
L 691.32843 86.579333 
L 691.32843 77.403755 
L 687.033022 77.403755 
z
" clip-path="url(#p4044181ecd)" style="fill: #696969"/>
   </g>
   <g id="patch_238">
    <path d="M 689.717652 86.579333 
L 694.013059 86.579333 
L 694.013059 82.139537 
L 689.717652 82.139537 
z
" clip-path="url(#p4044181ecd)" style="fill: #696969"/>
   </g>
   <g id="patch_239">
    <path d="M 692.402281 86.579333 
L 696.697689 86.579333 
L 696.697689 78.735694 
L 692.402281 78.735694 
z
" clip-path="url(#p4044181ecd)" style="fill: #696969"/>
   </g>
   <g id="patch_240">
    <path d="M 695.086911 86.579333 
L 699.382319 86.579333 
L 699.382319 86.579333 
L 695.086911 86.579333 
z
" clip-path="url(#p4044181ecd)" style="fill: #696969"/>
   </g>
   <g id="patch_241">
    <path d="M 697.771541 86.579333 
L 702.066949 86.579333 
L 702.066949 85.395388 
L 697.771541 85.395388 
z
" clip-path="url(#p4044181ecd)" style="fill: #696969"/>
   </g>
   <g id="patch_242">
    <path d="M 700.456171 86.579333 
L 704.751579 86.579333 
L 704.751579 83.767463 
L 700.456171 83.767463 
z
" clip-path="url(#p4044181ecd)" style="fill: #696969"/>
   </g>
   <g id="patch_243">
    <path d="M 703.140801 86.579333 
L 707.436209 86.579333 
L 707.436209 86.579333 
L 703.140801 86.579333 
z
" clip-path="url(#p4044181ecd)" style="fill: #696969"/>
   </g>
   <g id="patch_244">
    <path d="M 705.825431 86.579333 
L 710.120839 86.579333 
L 710.120839 78.735694 
L 705.825431 78.735694 
z
" clip-path="url(#p4044181ecd)" style="fill: #696969"/>
   </g>
   <g id="patch_245">
    <path d="M 708.510061 86.579333 
L 712.805469 86.579333 
L 712.805469 86.579333 
L 708.510061 86.579333 
z
" clip-path="url(#p4044181ecd)" style="fill: #696969"/>
   </g>
   <g id="patch_246">
    <path d="M 711.194691 86.579333 
L 715.490099 86.579333 
L 715.490099 86.579333 
L 711.194691 86.579333 
z
" clip-path="url(#p4044181ecd)" style="fill: #696969"/>
   </g>
   <g id="patch_247">
    <path d="M 713.879321 86.579333 
L 718.174729 86.579333 
L 718.174729 86.135354 
L 713.879321 86.135354 
z
" clip-path="url(#p4044181ecd)" style="fill: #696969"/>
   </g>
   <g id="patch_248">
    <path d="M 716.563951 86.579333 
L 720.859358 86.579333 
L 720.859358 75.33185 
L 716.563951 75.33185 
z
" clip-path="url(#p4044181ecd)" style="fill: #696969"/>
   </g>
   <g id="patch_249">
    <path d="M 719.24858 86.579333 
L 723.543988 86.579333 
L 723.543988 83.027497 
L 719.24858 83.027497 
z
" clip-path="url(#p4044181ecd)" style="fill: #696969"/>
   </g>
   <g id="patch_250">
    <path d="M 721.93321 86.579333 
L 726.228618 86.579333 
L 726.228618 82.435524 
L 721.93321 82.435524 
z
" clip-path="url(#p4044181ecd)" style="fill: #696969"/>
   </g>
   <g id="patch_251">
    <path d="M 724.61784 86.579333 
L 728.913248 86.579333 
L 728.913248 74.591884 
L 724.61784 74.591884 
z
" clip-path="url(#p4044181ecd)" style="fill: #696969"/>
   </g>
   <g id="patch_252">
    <path d="M 727.30247 86.579333 
L 731.597878 86.579333 
L 731.597878 85.395388 
L 727.30247 85.395388 
z
" clip-path="url(#p4044181ecd)" style="fill: #696969"/>
   </g>
   <g id="patch_253">
    <path d="M 729.9871 86.579333 
L 734.282508 86.579333 
L 734.282508 81.399571 
L 729.9871 81.399571 
z
" clip-path="url(#p4044181ecd)" style="fill: #696969"/>
   </g>
   <g id="patch_254">
    <path d="M 732.67173 86.579333 
L 736.967138 86.579333 
L 736.967138 80.363619 
L 732.67173 80.363619 
z
" clip-path="url(#p4044181ecd)" style="fill: #696969"/>
   </g>
   <g id="patch_255">
    <path d="M 735.35636 86.579333 
L 739.651768 86.579333 
L 739.651768 86.579333 
L 735.35636 86.579333 
z
" clip-path="url(#p4044181ecd)" style="fill: #696969"/>
   </g>
   <g id="patch_256">
    <path d="M 738.04099 86.579333 
L 742.336398 86.579333 
L 742.336398 84.655422 
L 738.04099 84.655422 
z
" clip-path="url(#p4044181ecd)" style="fill: #696969"/>
   </g>
   <g id="patch_257">
    <path d="M 740.72562 86.579333 
L 745.021028 86.579333 
L 745.021028 86.579333 
L 740.72562 86.579333 
z
" clip-path="url(#p4044181ecd)" style="fill: #696969"/>
   </g>
   <g id="patch_258">
    <path d="M 743.41025 86.579333 
L 747.705657 86.579333 
L 747.705657 81.843551 
L 743.41025 81.843551 
z
" clip-path="url(#p4044181ecd)" style="fill: #696969"/>
   </g>
   <g id="patch_259">
    <path d="M 746.094879 86.579333 
L 750.390287 86.579333 
L 750.390287 75.627837 
L 746.094879 75.627837 
z
" clip-path="url(#p4044181ecd)" style="fill: #696969"/>
   </g>
   <g id="patch_260">
    <path d="M 748.779509 86.579333 
L 753.074917 86.579333 
L 753.074917 76.367803 
L 748.779509 76.367803 
z
" clip-path="url(#p4044181ecd)" style="fill: #696969"/>
   </g>
   <g id="patch_261">
    <path d="M 751.464139 86.579333 
L 755.759547 86.579333 
L 755.759547 83.767463 
L 751.464139 83.767463 
z
" clip-path="url(#p4044181ecd)" style="fill: #696969"/>
   </g>
   <g id="patch_262">
    <path d="M 754.148769 86.579333 
L 758.444177 86.579333 
L 758.444177 78.143721 
L 754.148769 78.143721 
z
" clip-path="url(#p4044181ecd)" style="fill: #696969"/>
   </g>
   <g id="patch_263">
    <path d="M 756.833399 86.579333 
L 761.128807 86.579333 
L 761.128807 76.663789 
L 756.833399 76.663789 
z
" clip-path="url(#p4044181ecd)" style="fill: #696969"/>
   </g>
   <g id="patch_264">
    <path d="M 759.518029 86.579333 
L 763.813437 86.579333 
L 763.813437 64.67634 
L 759.518029 64.67634 
z
" clip-path="url(#p4044181ecd)" style="fill: #696969"/>
   </g>
   <g id="patch_265">
    <path d="M 762.202659 86.579333 
L 766.498067 86.579333 
L 766.498067 75.183857 
L 762.202659 75.183857 
z
" clip-path="url(#p4044181ecd)" style="fill: #696969"/>
   </g>
   <g id="patch_266">
    <path d="M 764.887289 86.579333 
L 769.182697 86.579333 
L 769.182697 70.744061 
L 764.887289 70.744061 
z
" clip-path="url(#p4044181ecd)" style="fill: #696969"/>
   </g>
   <g id="patch_267">
    <path d="M 767.571919 86.579333 
L 771.867327 86.579333 
L 771.867327 76.071816 
L 767.571919 76.071816 
z
" clip-path="url(#p4044181ecd)" style="fill: #696969"/>
   </g>
   <g id="patch_268">
    <path d="M 770.256549 86.579333 
L 774.551956 86.579333 
L 774.551956 70.004095 
L 770.256549 70.004095 
z
" clip-path="url(#p4044181ecd)" style="fill: #696969"/>
   </g>
   <g id="patch_269">
    <path d="M 772.941178 86.579333 
L 777.236586 86.579333 
L 777.236586 62.752429 
L 772.941178 62.752429 
z
" clip-path="url(#p4044181ecd)" style="fill: #696969"/>
   </g>
   <g id="patch_270">
    <path d="M 775.625808 86.579333 
L 779.921216 86.579333 
L 779.921216 73.407939 
L 775.625808 73.407939 
z
" clip-path="url(#p4044181ecd)" style="fill: #696969"/>
   </g>
   <g id="patch_271">
    <path d="M 778.310438 86.579333 
L 782.605846 86.579333 
L 782.605846 69.560116 
L 778.310438 69.560116 
z
" clip-path="url(#p4044181ecd)" style="fill: #696969"/>
   </g>
   <g id="patch_272">
    <path d="M 780.995068 86.579333 
L 785.290476 86.579333 
L 785.290476 67.044231 
L 780.995068 67.044231 
z
" clip-path="url(#p4044181ecd)" style="fill: #696969"/>
   </g>
   <g id="patch_273">
    <path d="M 783.679698 86.579333 
L 787.975106 86.579333 
L 787.975106 77.551748 
L 783.679698 77.551748 
z
" clip-path="url(#p4044181ecd)" style="fill: #696969"/>
   </g>
   <g id="patch_274">
    <path d="M 786.364328 86.579333 
L 790.659736 86.579333 
L 790.659736 69.264129 
L 786.364328 69.264129 
z
" clip-path="url(#p4044181ecd)" style="fill: #696969"/>
   </g>
   <g id="patch_275">
    <path d="M 789.048958 86.579333 
L 793.344366 86.579333 
L 793.344366 76.071816 
L 789.048958 76.071816 
z
" clip-path="url(#p4044181ecd)" style="fill: #696969"/>
   </g>
   <g id="patch_276">
    <path d="M 791.733588 86.579333 
L 796.028996 86.579333 
L 796.028996 79.623653 
L 791.733588 79.623653 
z
" clip-path="url(#p4044181ecd)" style="fill: #696969"/>
   </g>
   <g id="patch_277">
    <path d="M 794.418218 86.579333 
L 798.713626 86.579333 
L 798.713626 76.21981 
L 794.418218 76.21981 
z
" clip-path="url(#p4044181ecd)" style="fill: #696969"/>
   </g>
   <g id="patch_278">
    <path d="M 797.102848 86.579333 
L 801.398255 86.579333 
L 801.398255 81.251578 
L 797.102848 81.251578 
z
" clip-path="url(#p4044181ecd)" style="fill: #696969"/>
   </g>
   <g id="patch_279">
    <path d="M 799.787477 86.579333 
L 804.082885 86.579333 
L 804.082885 83.767463 
L 799.787477 83.767463 
z
" clip-path="url(#p4044181ecd)" style="fill: #696969"/>
   </g>
   <g id="patch_280">
    <path d="M 802.472107 86.579333 
L 806.767515 86.579333 
L 806.767515 84.507429 
L 802.472107 84.507429 
z
" clip-path="url(#p4044181ecd)" style="fill: #696969"/>
   </g>
   <g id="patch_281">
    <path d="M 805.156737 86.579333 
L 809.452145 86.579333 
L 809.452145 72.667973 
L 805.156737 72.667973 
z
" clip-path="url(#p4044181ecd)" style="fill: #696969"/>
   </g>
   <g id="patch_282">
    <path d="M 807.841367 86.579333 
L 812.136775 86.579333 
L 812.136775 77.847735 
L 807.841367 77.847735 
z
" clip-path="url(#p4044181ecd)" style="fill: #696969"/>
   </g>
   <g id="patch_283">
    <path d="M 810.525997 86.579333 
L 814.821405 86.579333 
L 814.821405 82.73151 
L 810.525997 82.73151 
z
" clip-path="url(#p4044181ecd)" style="fill: #696969"/>
   </g>
   <g id="patch_284">
    <path d="M 813.210627 86.579333 
L 817.506035 86.579333 
L 817.506035 84.063449 
L 813.210627 84.063449 
z
" clip-path="url(#p4044181ecd)" style="fill: #696969"/>
   </g>
   <g id="patch_285">
    <path d="M 815.895257 86.579333 
L 820.190665 86.579333 
L 820.190665 86.579333 
L 815.895257 86.579333 
z
" clip-path="url(#p4044181ecd)" style="fill: #696969"/>
   </g>
   <g id="patch_286">
    <path d="M 818.579887 86.579333 
L 822.875295 86.579333 
L 822.875295 76.663789 
L 818.579887 76.663789 
z
" clip-path="url(#p4044181ecd)" style="fill: #696969"/>
   </g>
   <g id="patch_287">
    <path d="M 821.264517 86.579333 
L 825.559925 86.579333 
L 825.559925 86.579333 
L 821.264517 86.579333 
z
" clip-path="url(#p4044181ecd)" style="fill: #696969"/>
   </g>
   <g id="patch_288">
    <path d="M 823.949147 86.579333 
L 828.244554 86.579333 
L 828.244554 86.283347 
L 823.949147 86.283347 
z
" clip-path="url(#p4044181ecd)" style="fill: #696969"/>
   </g>
   <g id="patch_289">
    <path d="M 826.633776 86.579333 
L 830.929184 86.579333 
L 830.929184 86.579333 
L 826.633776 86.579333 
z
" clip-path="url(#p4044181ecd)" style="fill: #696969"/>
   </g>
   <g id="patch_290">
    <path d="M 829.318406 86.579333 
L 833.613814 86.579333 
L 833.613814 85.543381 
L 829.318406 85.543381 
z
" clip-path="url(#p4044181ecd)" style="fill: #696969"/>
   </g>
   <g id="patch_291">
    <path d="M 832.003036 86.579333 
L 836.298444 86.579333 
L 836.298444 82.73151 
L 832.003036 82.73151 
z
" clip-path="url(#p4044181ecd)" style="fill: #696969"/>
   </g>
   <g id="patch_292">
    <path d="M 834.687666 86.579333 
L 838.983074 86.579333 
L 838.983074 82.139537 
L 834.687666 82.139537 
z
" clip-path="url(#p4044181ecd)" style="fill: #696969"/>
   </g>
   <g id="patch_293">
    <path d="M 837.372296 86.579333 
L 841.667704 86.579333 
L 841.667704 86.579333 
L 837.372296 86.579333 
z
" clip-path="url(#p4044181ecd)" style="fill: #696969"/>
   </g>
   <g id="matplotlib.axis_3">
    <g id="xtick_9">
     <g id="line2d_13">
      <g>
       <use xlink:href="#mdb0d1deac2" x="498.572003" y="89.48" style="stroke: #000000; stroke-width: 0.8"/>
      </g>
     </g>
     <g id="text_13">
      <!-- 80 -->
      <g transform="translate(492.209503 104.078438) scale(0.1 -0.1)">
       <defs>
        <path id="DejaVuSans-38" d="M 2034 2216 
Q 1584 2216 1326 1975 
Q 1069 1734 1069 1313 
Q 1069 891 1326 650 
Q 1584 409 2034 409 
Q 2484 409 2743 651 
Q 3003 894 3003 1313 
Q 3003 1734 2745 1975 
Q 2488 2216 2034 2216 
z
M 1403 2484 
Q 997 2584 770 2862 
Q 544 3141 544 3541 
Q 544 4100 942 4425 
Q 1341 4750 2034 4750 
Q 2731 4750 3128 4425 
Q 3525 4100 3525 3541 
Q 3525 3141 3298 2862 
Q 3072 2584 2669 2484 
Q 3125 2378 3379 2068 
Q 3634 1759 3634 1313 
Q 3634 634 3220 271 
Q 2806 -91 2034 -91 
Q 1263 -91 848 271 
Q 434 634 434 1313 
Q 434 1759 690 2068 
Q 947 2378 1403 2484 
z
M 1172 3481 
Q 1172 3119 1398 2916 
Q 1625 2713 2034 2713 
Q 2441 2713 2670 2916 
Q 2900 3119 2900 3481 
Q 2900 3844 2670 4047 
Q 2441 4250 2034 4250 
Q 1625 4250 1398 4047 
Q 1172 3844 1172 3481 
z
" transform="scale(0.015625)"/>
       </defs>
       <use xlink:href="#DejaVuSans-38"/>
       <use xlink:href="#DejaVuSans-30" x="63.623047"/>
      </g>
     </g>
    </g>
    <g id="xtick_10">
     <g id="line2d_14">
      <g>
       <use xlink:href="#mdb0d1deac2" x="552.264601" y="89.48" style="stroke: #000000; stroke-width: 0.8"/>
      </g>
     </g>
     <g id="text_14">
      <!-- 90 -->
      <g transform="translate(545.902101 104.078438) scale(0.1 -0.1)">
       <defs>
        <path id="DejaVuSans-39" d="M 703 97 
L 703 672 
Q 941 559 1184 500 
Q 1428 441 1663 441 
Q 2288 441 2617 861 
Q 2947 1281 2994 2138 
Q 2813 1869 2534 1725 
Q 2256 1581 1919 1581 
Q 1219 1581 811 2004 
Q 403 2428 403 3163 
Q 403 3881 828 4315 
Q 1253 4750 1959 4750 
Q 2769 4750 3195 4129 
Q 3622 3509 3622 2328 
Q 3622 1225 3098 567 
Q 2575 -91 1691 -91 
Q 1453 -91 1209 -44 
Q 966 3 703 97 
z
M 1959 2075 
Q 2384 2075 2632 2365 
Q 2881 2656 2881 3163 
Q 2881 3666 2632 3958 
Q 2384 4250 1959 4250 
Q 1534 4250 1286 3958 
Q 1038 3666 1038 3163 
Q 1038 2656 1286 2365 
Q 1534 2075 1959 2075 
z
" transform="scale(0.015625)"/>
       </defs>
       <use xlink:href="#DejaVuSans-39"/>
       <use xlink:href="#DejaVuSans-30" x="63.623047"/>
      </g>
     </g>
    </g>
    <g id="xtick_11">
     <g id="line2d_15">
      <g>
       <use xlink:href="#mdb0d1deac2" x="605.957199" y="89.48" style="stroke: #000000; stroke-width: 0.8"/>
      </g>
     </g>
     <g id="text_15">
      <!-- 100 -->
      <g transform="translate(596.413449 104.078438) scale(0.1 -0.1)">
       <use xlink:href="#DejaVuSans-31"/>
       <use xlink:href="#DejaVuSans-30" x="63.623047"/>
       <use xlink:href="#DejaVuSans-30" x="127.246094"/>
      </g>
     </g>
    </g>
    <g id="xtick_12">
     <g id="line2d_16">
      <g>
       <use xlink:href="#mdb0d1deac2" x="659.649797" y="89.48" style="stroke: #000000; stroke-width: 0.8"/>
      </g>
     </g>
     <g id="text_16">
      <!-- 110 -->
      <g transform="translate(650.106047 104.078438) scale(0.1 -0.1)">
       <use xlink:href="#DejaVuSans-31"/>
       <use xlink:href="#DejaVuSans-31" x="63.623047"/>
       <use xlink:href="#DejaVuSans-30" x="127.246094"/>
      </g>
     </g>
    </g>
    <g id="xtick_13">
     <g id="line2d_17">
      <g>
       <use xlink:href="#mdb0d1deac2" x="713.342395" y="89.48" style="stroke: #000000; stroke-width: 0.8"/>
      </g>
     </g>
     <g id="text_17">
      <!-- 120 -->
      <g transform="translate(703.798645 104.078438) scale(0.1 -0.1)">
       <use xlink:href="#DejaVuSans-31"/>
       <use xlink:href="#DejaVuSans-32" x="63.623047"/>
       <use xlink:href="#DejaVuSans-30" x="127.246094"/>
      </g>
     </g>
    </g>
    <g id="xtick_14">
     <g id="line2d_18">
      <g>
       <use xlink:href="#mdb0d1deac2" x="767.034993" y="89.48" style="stroke: #000000; stroke-width: 0.8"/>
      </g>
     </g>
     <g id="text_18">
      <!-- 130 -->
      <g transform="translate(757.491243 104.078438) scale(0.1 -0.1)">
       <use xlink:href="#DejaVuSans-31"/>
       <use xlink:href="#DejaVuSans-33" x="63.623047"/>
       <use xlink:href="#DejaVuSans-30" x="127.246094"/>
      </g>
     </g>
    </g>
    <g id="xtick_15">
     <g id="line2d_19">
      <g>
       <use xlink:href="#mdb0d1deac2" x="820.727591" y="89.48" style="stroke: #000000; stroke-width: 0.8"/>
      </g>
     </g>
     <g id="text_19">
      <!-- 140 -->
      <g transform="translate(811.183841 104.078438) scale(0.1 -0.1)">
       <use xlink:href="#DejaVuSans-31"/>
       <use xlink:href="#DejaVuSans-34" x="63.623047"/>
       <use xlink:href="#DejaVuSans-30" x="127.246094"/>
      </g>
     </g>
    </g>
   </g>
   <g id="matplotlib.axis_4">
    <g id="ytick_3">
     <g id="line2d_20">
      <g>
       <use xlink:href="#m09291fe99c" x="455.617924" y="86.579333" style="stroke: #000000; stroke-width: 0.8"/>
      </g>
     </g>
    </g>
    <g id="ytick_4">
     <g id="line2d_21">
      <g>
       <use xlink:href="#m09291fe99c" x="455.617924" y="56.980694" style="stroke: #000000; stroke-width: 0.8"/>
      </g>
     </g>
    </g>
   </g>
   <g id="line2d_22">
    <path d="M 455.617924 83.860453 
L 460.987184 84.861576 
L 463.671814 85.186667 
L 466.356444 85.385812 
L 469.041074 85.45524 
L 471.725704 85.393635 
L 474.410334 85.202165 
L 477.094964 84.884456 
L 482.464223 83.896665 
L 487.833483 82.504741 
L 493.202743 80.813631 
L 511.995152 74.467626 
L 517.364412 73.099109 
L 522.733672 72.140575 
L 525.418302 71.839012 
L 528.102932 71.664297 
L 530.787562 71.61974 
L 533.472191 71.706184 
L 536.156821 71.921993 
L 538.841451 72.263079 
L 544.210711 73.292992 
L 549.579971 74.71827 
L 554.949231 76.431449 
L 571.05701 81.957489 
L 576.42627 83.464195 
L 581.79553 84.599374 
L 584.48016 84.999606 
L 587.164789 85.277436 
L 589.849419 85.427601 
L 592.534049 85.447257 
L 595.218679 85.336032 
L 597.903309 85.096032 
L 600.587939 84.731803 
L 605.957199 83.660473 
L 611.326459 82.202818 
L 616.695718 80.468742 
L 632.803498 74.959685 
L 638.172758 73.483773 
L 643.542017 72.38884 
L 646.226647 72.01135 
L 648.911277 71.757444 
L 651.595907 71.631932 
L 654.280537 71.637191 
L 656.965167 71.77312 
L 659.649797 72.037147 
L 662.334427 72.424269 
L 667.703686 73.536283 
L 673.072946 75.025318 
L 678.442206 76.779103 
L 691.865356 81.432123 
L 697.234615 83.032028 
L 702.603875 84.292991 
L 705.288505 84.765449 
L 707.973135 85.119938 
L 710.657765 85.349746 
L 713.342395 85.450519 
L 716.027025 85.420349 
L 718.711655 85.259808 
L 721.396284 84.971936 
L 724.080914 84.562185 
L 729.450174 83.410249 
L 734.819434 81.890855 
L 740.188694 80.118561 
L 753.611843 75.477811 
L 758.981103 73.905259 
L 764.350363 72.681907 
L 767.034993 72.23124 
L 769.719623 71.899994 
L 772.404253 71.694442 
L 775.088882 71.618477 
L 777.773512 71.673537 
L 780.458142 71.858579 
L 783.142772 72.1701 
L 788.512032 73.146692 
L 793.881292 74.52968 
L 799.250552 76.214789 
L 818.042961 82.567101 
L 823.412221 83.94466 
L 828.78148 84.914466 
L 831.46611 85.222241 
L 834.15074 85.403397 
L 836.83537 85.454503 
L 839.52 85.374591 
L 839.52 85.374591 
" clip-path="url(#p4044181ecd)" style="fill: none; stroke: #191970; stroke-width: 3; stroke-linecap: square"/>
   </g>
   <g id="line2d_23">
    <path d="M 162.939304 89.48 
L 162.939304 54.672 
" clip-path="url(#p4044181ecd)" style="fill: none; stroke-dasharray: 7.4,3.2; stroke-dashoffset: 0; stroke: #000000; stroke-opacity: 0.8; stroke-width: 2"/>
   </g>
   <g id="patch_294">
    <path d="M 455.617924 89.48 
L 455.617924 54.672 
" style="fill: none; stroke: #000000; stroke-width: 0.8; stroke-linejoin: miter; stroke-linecap: square"/>
   </g>
   <g id="patch_295">
    <path d="M 455.617924 89.48 
L 839.52 89.48 
" style="fill: none; stroke: #000000; stroke-width: 0.8; stroke-linejoin: miter; stroke-linecap: square"/>
   </g>
   <g id="text_20">
    <!-- 2 -->
    <g transform="translate(645.023962 39.71375) scale(0.08 -0.08)">
     <use xlink:href="#DejaVuSans-32"/>
    </g>
    <!-- (AC: 17.49, PR: 22.81) -->
    <g transform="translate(603.239587 48.672) scale(0.08 -0.08)">
     <use xlink:href="#DejaVuSans-28"/>
     <use xlink:href="#DejaVuSans-41" x="39.013672"/>
     <use xlink:href="#DejaVuSans-43" x="105.671875"/>
     <use xlink:href="#DejaVuSans-3a" x="175.496094"/>
     <use xlink:href="#DejaVuSans-20" x="209.1875"/>
     <use xlink:href="#DejaVuSans-31" x="240.974609"/>
     <use xlink:href="#DejaVuSans-37" x="304.597656"/>
     <use xlink:href="#DejaVuSans-2e" x="368.220703"/>
     <use xlink:href="#DejaVuSans-34" x="400.007812"/>
     <use xlink:href="#DejaVuSans-39" x="463.630859"/>
     <use xlink:href="#DejaVuSans-2c" x="527.253906"/>
     <use xlink:href="#DejaVuSans-20" x="559.041016"/>
     <use xlink:href="#DejaVuSans-50" x="590.828125"/>
     <use xlink:href="#DejaVuSans-52" x="651.130859"/>
     <use xlink:href="#DejaVuSans-3a" x="717.488281"/>
     <use xlink:href="#DejaVuSans-20" x="751.179688"/>
     <use xlink:href="#DejaVuSans-32" x="782.966797"/>
     <use xlink:href="#DejaVuSans-32" x="846.589844"/>
     <use xlink:href="#DejaVuSans-2e" x="910.212891"/>
     <use xlink:href="#DejaVuSans-38" x="942"/>
     <use xlink:href="#DejaVuSans-31" x="1005.623047"/>
     <use xlink:href="#DejaVuSans-29" x="1069.246094"/>
    </g>
   </g>
  </g>
  <g id="text_21">
   <!-- COSINOR MODEL - 3 SINE 5 -->
   <g transform="translate(342.439688 11.940525) scale(0.12 -0.12)">
    <defs>
     <path id="DejaVuSans-4f" d="M 2522 4238 
Q 1834 4238 1429 3725 
Q 1025 3213 1025 2328 
Q 1025 1447 1429 934 
Q 1834 422 2522 422 
Q 3209 422 3611 934 
Q 4013 1447 4013 2328 
Q 4013 3213 3611 3725 
Q 3209 4238 2522 4238 
z
M 2522 4750 
Q 3503 4750 4090 4092 
Q 4678 3434 4678 2328 
Q 4678 1225 4090 567 
Q 3503 -91 2522 -91 
Q 1538 -91 948 565 
Q 359 1222 359 2328 
Q 359 3434 948 4092 
Q 1538 4750 2522 4750 
z
" transform="scale(0.015625)"/>
     <path id="DejaVuSans-53" d="M 3425 4513 
L 3425 3897 
Q 3066 4069 2747 4153 
Q 2428 4238 2131 4238 
Q 1616 4238 1336 4038 
Q 1056 3838 1056 3469 
Q 1056 3159 1242 3001 
Q 1428 2844 1947 2747 
L 2328 2669 
Q 3034 2534 3370 2195 
Q 3706 1856 3706 1288 
Q 3706 609 3251 259 
Q 2797 -91 1919 -91 
Q 1588 -91 1214 -16 
Q 841 59 441 206 
L 441 856 
Q 825 641 1194 531 
Q 1563 422 1919 422 
Q 2459 422 2753 634 
Q 3047 847 3047 1241 
Q 3047 1584 2836 1778 
Q 2625 1972 2144 2069 
L 1759 2144 
Q 1053 2284 737 2584 
Q 422 2884 422 3419 
Q 422 4038 858 4394 
Q 1294 4750 2059 4750 
Q 2388 4750 2728 4690 
Q 3069 4631 3425 4513 
z
" transform="scale(0.015625)"/>
     <path id="DejaVuSans-49" d="M 628 4666 
L 1259 4666 
L 1259 0 
L 628 0 
L 628 4666 
z
" transform="scale(0.015625)"/>
     <path id="DejaVuSans-4e" d="M 628 4666 
L 1478 4666 
L 3547 763 
L 3547 4666 
L 4159 4666 
L 4159 0 
L 3309 0 
L 1241 3903 
L 1241 0 
L 628 0 
L 628 4666 
z
" transform="scale(0.015625)"/>
     <path id="DejaVuSans-4d" d="M 628 4666 
L 1569 4666 
L 2759 1491 
L 3956 4666 
L 4897 4666 
L 4897 0 
L 4281 0 
L 4281 4097 
L 3078 897 
L 2444 897 
L 1241 4097 
L 1241 0 
L 628 0 
L 628 4666 
z
" transform="scale(0.015625)"/>
     <path id="DejaVuSans-44" d="M 1259 4147 
L 1259 519 
L 2022 519 
Q 2988 519 3436 956 
Q 3884 1394 3884 2338 
Q 3884 3275 3436 3711 
Q 2988 4147 2022 4147 
L 1259 4147 
z
M 628 4666 
L 1925 4666 
Q 3281 4666 3915 4102 
Q 4550 3538 4550 2338 
Q 4550 1131 3912 565 
Q 3275 0 1925 0 
L 628 0 
L 628 4666 
z
" transform="scale(0.015625)"/>
     <path id="DejaVuSans-45" d="M 628 4666 
L 3578 4666 
L 3578 4134 
L 1259 4134 
L 1259 2753 
L 3481 2753 
L 3481 2222 
L 1259 2222 
L 1259 531 
L 3634 531 
L 3634 0 
L 628 0 
L 628 4666 
z
" transform="scale(0.015625)"/>
     <path id="DejaVuSans-4c" d="M 628 4666 
L 1259 4666 
L 1259 531 
L 3531 531 
L 3531 0 
L 628 0 
L 628 4666 
z
" transform="scale(0.015625)"/>
     <path id="DejaVuSans-2d" d="M 313 2009 
L 1997 2009 
L 1997 1497 
L 313 1497 
L 313 2009 
z
" transform="scale(0.015625)"/>
    </defs>
    <use xlink:href="#DejaVuSans-43"/>
    <use xlink:href="#DejaVuSans-4f" x="69.824219"/>
    <use xlink:href="#DejaVuSans-53" x="148.535156"/>
    <use xlink:href="#DejaVuSans-49" x="212.011719"/>
    <use xlink:href="#DejaVuSans-4e" x="241.503906"/>
    <use xlink:href="#DejaVuSans-4f" x="316.308594"/>
    <use xlink:href="#DejaVuSans-52" x="395.019531"/>
    <use xlink:href="#DejaVuSans-20" x="464.501953"/>
    <use xlink:href="#DejaVuSans-4d" x="496.289062"/>
    <use xlink:href="#DejaVuSans-4f" x="582.568359"/>
    <use xlink:href="#DejaVuSans-44" x="661.279297"/>
    <use xlink:href="#DejaVuSans-45" x="738.28125"/>
    <use xlink:href="#DejaVuSans-4c" x="801.464844"/>
    <use xlink:href="#DejaVuSans-20" x="857.177734"/>
    <use xlink:href="#DejaVuSans-2d" x="888.964844"/>
    <use xlink:href="#DejaVuSans-20" x="925.048828"/>
    <use xlink:href="#DejaVuSans-33" x="956.835938"/>
    <use xlink:href="#DejaVuSans-20" x="1020.458984"/>
    <use xlink:href="#DejaVuSans-53" x="1052.246094"/>
    <use xlink:href="#DejaVuSans-49" x="1115.722656"/>
    <use xlink:href="#DejaVuSans-4e" x="1145.214844"/>
    <use xlink:href="#DejaVuSans-45" x="1220.019531"/>
    <use xlink:href="#DejaVuSans-20" x="1283.203125"/>
    <use xlink:href="#DejaVuSans-35" x="1314.990234"/>
   </g>
  </g>
  <g id="text_22">
   <!-- TIME (HOURS FROM START OF PROTOCOL) -->
   <g transform="translate(297.576563 137.213175) scale(0.12 -0.12)">
    <defs>
     <path id="DejaVuSans-54" d="M -19 4666 
L 3928 4666 
L 3928 4134 
L 2272 4134 
L 2272 0 
L 1638 0 
L 1638 4134 
L -19 4134 
L -19 4666 
z
" transform="scale(0.015625)"/>
     <path id="DejaVuSans-48" d="M 628 4666 
L 1259 4666 
L 1259 2753 
L 3553 2753 
L 3553 4666 
L 4184 4666 
L 4184 0 
L 3553 0 
L 3553 2222 
L 1259 2222 
L 1259 0 
L 628 0 
L 628 4666 
z
" transform="scale(0.015625)"/>
     <path id="DejaVuSans-55" d="M 556 4666 
L 1191 4666 
L 1191 1831 
Q 1191 1081 1462 751 
Q 1734 422 2344 422 
Q 2950 422 3222 751 
Q 3494 1081 3494 1831 
L 3494 4666 
L 4128 4666 
L 4128 1753 
Q 4128 841 3676 375 
Q 3225 -91 2344 -91 
Q 1459 -91 1007 375 
Q 556 841 556 1753 
L 556 4666 
z
" transform="scale(0.015625)"/>
     <path id="DejaVuSans-46" d="M 628 4666 
L 3309 4666 
L 3309 4134 
L 1259 4134 
L 1259 2759 
L 3109 2759 
L 3109 2228 
L 1259 2228 
L 1259 0 
L 628 0 
L 628 4666 
z
" transform="scale(0.015625)"/>
    </defs>
    <use xlink:href="#DejaVuSans-54"/>
    <use xlink:href="#DejaVuSans-49" x="61.083984"/>
    <use xlink:href="#DejaVuSans-4d" x="90.576172"/>
    <use xlink:href="#DejaVuSans-45" x="176.855469"/>
    <use xlink:href="#DejaVuSans-20" x="240.039062"/>
    <use xlink:href="#DejaVuSans-28" x="271.826172"/>
    <use xlink:href="#DejaVuSans-48" x="310.839844"/>
    <use xlink:href="#DejaVuSans-4f" x="386.035156"/>
    <use xlink:href="#DejaVuSans-55" x="464.746094"/>
    <use xlink:href="#DejaVuSans-52" x="537.939453"/>
    <use xlink:href="#DejaVuSans-53" x="607.421875"/>
    <use xlink:href="#DejaVuSans-20" x="670.898438"/>
    <use xlink:href="#DejaVuSans-46" x="702.685547"/>
    <use xlink:href="#DejaVuSans-52" x="760.205078"/>
    <use xlink:href="#DejaVuSans-4f" x="829.6875"/>
    <use xlink:href="#DejaVuSans-4d" x="908.398438"/>
    <use xlink:href="#DejaVuSans-20" x="994.677734"/>
    <use xlink:href="#DejaVuSans-53" x="1026.464844"/>
    <use xlink:href="#DejaVuSans-54" x="1089.941406"/>
    <use xlink:href="#DejaVuSans-41" x="1143.275391"/>
    <use xlink:href="#DejaVuSans-52" x="1211.683594"/>
    <use xlink:href="#DejaVuSans-54" x="1273.916016"/>
    <use xlink:href="#DejaVuSans-20" x="1335"/>
    <use xlink:href="#DejaVuSans-4f" x="1366.787109"/>
    <use xlink:href="#DejaVuSans-46" x="1445.498047"/>
    <use xlink:href="#DejaVuSans-20" x="1503.017578"/>
    <use xlink:href="#DejaVuSans-50" x="1534.804688"/>
    <use xlink:href="#DejaVuSans-52" x="1595.107422"/>
    <use xlink:href="#DejaVuSans-4f" x="1664.589844"/>
    <use xlink:href="#DejaVuSans-54" x="1743.300781"/>
    <use xlink:href="#DejaVuSans-4f" x="1804.384766"/>
    <use xlink:href="#DejaVuSans-43" x="1883.095703"/>
    <use xlink:href="#DejaVuSans-4f" x="1952.919922"/>
    <use xlink:href="#DejaVuSans-4c" x="2031.630859"/>
    <use xlink:href="#DejaVuSans-29" x="2087.34375"/>
   </g>
  </g>
  <g id="text_23">
   <!-- AMPLITUDE -->
   <g transform="translate(26.124525 105.039375) rotate(-90) scale(0.12 -0.12)">
    <use xlink:href="#DejaVuSans-41"/>
    <use xlink:href="#DejaVuSans-4d" x="68.408203"/>
    <use xlink:href="#DejaVuSans-50" x="154.6875"/>
    <use xlink:href="#DejaVuSans-4c" x="214.990234"/>
    <use xlink:href="#DejaVuSans-49" x="270.703125"/>
    <use xlink:href="#DejaVuSans-54" x="300.195312"/>
    <use xlink:href="#DejaVuSans-55" x="361.279297"/>
    <use xlink:href="#DejaVuSans-44" x="434.472656"/>
    <use xlink:href="#DejaVuSans-45" x="511.474609"/>
   </g>
  </g>
 </g>
 <defs>
  <clipPath id="pb680c97994">
   <rect x="57.4" y="54.672" width="383.902076" height="34.808"/>
  </clipPath>
  <clipPath id="p4044181ecd">
   <rect x="455.617924" y="54.672" width="383.902076" height="34.808"/>
  </clipPath>
 </defs>
</svg>
