<?xml version="1.0" encoding="utf-8" standalone="no"?>
<!DOCTYPE svg PUBLIC "-//W3C//DTD SVG 1.1//EN"
  "http://www.w3.org/Graphics/SVG/1.1/DTD/svg11.dtd">
<svg xmlns:xlink="http://www.w3.org/1999/xlink" width="864pt" height="360pt" viewBox="0 0 864 360" xmlns="http://www.w3.org/2000/svg" version="1.1">
 <metadata>
  <rdf:RDF xmlns:dc="http://purl.org/dc/elements/1.1/" xmlns:cc="http://creativecommons.org/ns#" xmlns:rdf="http://www.w3.org/1999/02/22-rdf-syntax-ns#">
   <cc:Work>
    <dc:type rdf:resource="http://purl.org/dc/dcmitype/StillImage"/>
    <dc:date>2023-08-03T16:44:30.961327</dc:date>
    <dc:format>image/svg+xml</dc:format>
    <dc:creator>
     <cc:Agent>
      <dc:title>Matplotlib v3.7.1, https://matplotlib.org/</dc:title>
     </cc:Agent>
    </dc:creator>
   </cc:Work>
  </rdf:RDF>
 </metadata>
 <defs>
  <style type="text/css">*{stroke-linejoin: round; stroke-linecap: butt}</style>
 </defs>
 <g id="figure_1">
  <g id="patch_1">
   <path d="M 0 360 
L 864 360 
L 864 0 
L 0 0 
z
" style="fill: #ffffff"/>
  </g>
  <g id="axes_1">
   <g id="patch_2">
    <path d="M 108 320.4 
L 777.6 320.4 
L 777.6 43.2 
L 108 43.2 
z
" style="fill: #ffffff"/>
   </g>
   <g id="matplotlib.axis_1">
    <g id="xtick_1">
     <g id="line2d_1">
      <defs>
       <path id="m79087631d5" d="M 0 0 
L 0 3.5 
" style="stroke: #000000; stroke-width: 0.8"/>
      </defs>
      <g>
       <use xlink:href="#m79087631d5" x="138.436364" y="320.4" style="stroke: #000000; stroke-width: 0.8"/>
      </g>
     </g>
     <g id="text_1">
      <!-- 2022-01-01 -->
      <g transform="translate(109.378551 334.998438) scale(0.1 -0.1)">
       <defs>
        <path id="DejaVuSans-32" d="M 1228 531 
L 3431 531 
L 3431 0 
L 469 0 
L 469 531 
Q 828 903 1448 1529 
Q 2069 2156 2228 2338 
Q 2531 2678 2651 2914 
Q 2772 3150 2772 3378 
Q 2772 3750 2511 3984 
Q 2250 4219 1831 4219 
Q 1534 4219 1204 4116 
Q 875 4013 500 3803 
L 500 4441 
Q 881 4594 1212 4672 
Q 1544 4750 1819 4750 
Q 2544 4750 2975 4387 
Q 3406 4025 3406 3419 
Q 3406 3131 3298 2873 
Q 3191 2616 2906 2266 
Q 2828 2175 2409 1742 
Q 1991 1309 1228 531 
z
" transform="scale(0.015625)"/>
        <path id="DejaVuSans-30" d="M 2034 4250 
Q 1547 4250 1301 3770 
Q 1056 3291 1056 2328 
Q 1056 1369 1301 889 
Q 1547 409 2034 409 
Q 2525 409 2770 889 
Q 3016 1369 3016 2328 
Q 3016 3291 2770 3770 
Q 2525 4250 2034 4250 
z
M 2034 4750 
Q 2819 4750 3233 4129 
Q 3647 3509 3647 2328 
Q 3647 1150 3233 529 
Q 2819 -91 2034 -91 
Q 1250 -91 836 529 
Q 422 1150 422 2328 
Q 422 3509 836 4129 
Q 1250 4750 2034 4750 
z
" transform="scale(0.015625)"/>
        <path id="DejaVuSans-2d" d="M 313 2009 
L 1997 2009 
L 1997 1497 
L 313 1497 
L 313 2009 
z
" transform="scale(0.015625)"/>
        <path id="DejaVuSans-31" d="M 794 531 
L 1825 531 
L 1825 4091 
L 703 3866 
L 703 4441 
L 1819 4666 
L 2450 4666 
L 2450 531 
L 3481 531 
L 3481 0 
L 794 0 
L 794 531 
z
" transform="scale(0.015625)"/>
       </defs>
       <use xlink:href="#DejaVuSans-32"/>
       <use xlink:href="#DejaVuSans-30" x="63.623047"/>
       <use xlink:href="#DejaVuSans-32" x="127.246094"/>
       <use xlink:href="#DejaVuSans-32" x="190.869141"/>
       <use xlink:href="#DejaVuSans-2d" x="254.492188"/>
       <use xlink:href="#DejaVuSans-30" x="290.576172"/>
       <use xlink:href="#DejaVuSans-31" x="354.199219"/>
       <use xlink:href="#DejaVuSans-2d" x="417.822266"/>
       <use xlink:href="#DejaVuSans-30" x="453.90625"/>
       <use xlink:href="#DejaVuSans-31" x="517.529297"/>
      </g>
     </g>
    </g>
    <g id="xtick_2">
     <g id="line2d_2">
      <g>
       <use xlink:href="#m79087631d5" x="219.712884" y="320.4" style="stroke: #000000; stroke-width: 0.8"/>
      </g>
     </g>
     <g id="text_2">
      <!-- 2022-01-03 -->
      <g transform="translate(190.655072 334.998438) scale(0.1 -0.1)">
       <defs>
        <path id="DejaVuSans-33" d="M 2597 2516 
Q 3050 2419 3304 2112 
Q 3559 1806 3559 1356 
Q 3559 666 3084 287 
Q 2609 -91 1734 -91 
Q 1441 -91 1130 -33 
Q 819 25 488 141 
L 488 750 
Q 750 597 1062 519 
Q 1375 441 1716 441 
Q 2309 441 2620 675 
Q 2931 909 2931 1356 
Q 2931 1769 2642 2001 
Q 2353 2234 1838 2234 
L 1294 2234 
L 1294 2753 
L 1863 2753 
Q 2328 2753 2575 2939 
Q 2822 3125 2822 3475 
Q 2822 3834 2567 4026 
Q 2313 4219 1838 4219 
Q 1578 4219 1281 4162 
Q 984 4106 628 3988 
L 628 4550 
Q 988 4650 1302 4700 
Q 1616 4750 1894 4750 
Q 2613 4750 3031 4423 
Q 3450 4097 3450 3541 
Q 3450 3153 3228 2886 
Q 3006 2619 2597 2516 
z
" transform="scale(0.015625)"/>
       </defs>
       <use xlink:href="#DejaVuSans-32"/>
       <use xlink:href="#DejaVuSans-30" x="63.623047"/>
       <use xlink:href="#DejaVuSans-32" x="127.246094"/>
       <use xlink:href="#DejaVuSans-32" x="190.869141"/>
       <use xlink:href="#DejaVuSans-2d" x="254.492188"/>
       <use xlink:href="#DejaVuSans-30" x="290.576172"/>
       <use xlink:href="#DejaVuSans-31" x="354.199219"/>
       <use xlink:href="#DejaVuSans-2d" x="417.822266"/>
       <use xlink:href="#DejaVuSans-30" x="453.90625"/>
       <use xlink:href="#DejaVuSans-33" x="517.529297"/>
      </g>
     </g>
    </g>
    <g id="xtick_3">
     <g id="line2d_3">
      <g>
       <use xlink:href="#m79087631d5" x="300.989404" y="320.4" style="stroke: #000000; stroke-width: 0.8"/>
      </g>
     </g>
     <g id="text_3">
      <!-- 2022-01-05 -->
      <g transform="translate(271.931592 334.998438) scale(0.1 -0.1)">
       <defs>
        <path id="DejaVuSans-35" d="M 691 4666 
L 3169 4666 
L 3169 4134 
L 1269 4134 
L 1269 2991 
Q 1406 3038 1543 3061 
Q 1681 3084 1819 3084 
Q 2600 3084 3056 2656 
Q 3513 2228 3513 1497 
Q 3513 744 3044 326 
Q 2575 -91 1722 -91 
Q 1428 -91 1123 -41 
Q 819 9 494 109 
L 494 744 
Q 775 591 1075 516 
Q 1375 441 1709 441 
Q 2250 441 2565 725 
Q 2881 1009 2881 1497 
Q 2881 1984 2565 2268 
Q 2250 2553 1709 2553 
Q 1456 2553 1204 2497 
Q 953 2441 691 2322 
L 691 4666 
z
" transform="scale(0.015625)"/>
       </defs>
       <use xlink:href="#DejaVuSans-32"/>
       <use xlink:href="#DejaVuSans-30" x="63.623047"/>
       <use xlink:href="#DejaVuSans-32" x="127.246094"/>
       <use xlink:href="#DejaVuSans-32" x="190.869141"/>
       <use xlink:href="#DejaVuSans-2d" x="254.492188"/>
       <use xlink:href="#DejaVuSans-30" x="290.576172"/>
       <use xlink:href="#DejaVuSans-31" x="354.199219"/>
       <use xlink:href="#DejaVuSans-2d" x="417.822266"/>
       <use xlink:href="#DejaVuSans-30" x="453.90625"/>
       <use xlink:href="#DejaVuSans-35" x="517.529297"/>
      </g>
     </g>
    </g>
    <g id="xtick_4">
     <g id="line2d_4">
      <g>
       <use xlink:href="#m79087631d5" x="382.265925" y="320.4" style="stroke: #000000; stroke-width: 0.8"/>
      </g>
     </g>
     <g id="text_4">
      <!-- 2022-01-07 -->
      <g transform="translate(353.208112 334.998438) scale(0.1 -0.1)">
       <defs>
        <path id="DejaVuSans-37" d="M 525 4666 
L 3525 4666 
L 3525 4397 
L 1831 0 
L 1172 0 
L 2766 4134 
L 525 4134 
L 525 4666 
z
" transform="scale(0.015625)"/>
       </defs>
       <use xlink:href="#DejaVuSans-32"/>
       <use xlink:href="#DejaVuSans-30" x="63.623047"/>
       <use xlink:href="#DejaVuSans-32" x="127.246094"/>
       <use xlink:href="#DejaVuSans-32" x="190.869141"/>
       <use xlink:href="#DejaVuSans-2d" x="254.492188"/>
       <use xlink:href="#DejaVuSans-30" x="290.576172"/>
       <use xlink:href="#DejaVuSans-31" x="354.199219"/>
       <use xlink:href="#DejaVuSans-2d" x="417.822266"/>
       <use xlink:href="#DejaVuSans-30" x="453.90625"/>
       <use xlink:href="#DejaVuSans-37" x="517.529297"/>
      </g>
     </g>
    </g>
    <g id="xtick_5">
     <g id="line2d_5">
      <g>
       <use xlink:href="#m79087631d5" x="463.542445" y="320.4" style="stroke: #000000; stroke-width: 0.8"/>
      </g>
     </g>
     <g id="text_5">
      <!-- 2022-01-09 -->
      <g transform="translate(434.484633 334.998438) scale(0.1 -0.1)">
       <defs>
        <path id="DejaVuSans-39" d="M 703 97 
L 703 672 
Q 941 559 1184 500 
Q 1428 441 1663 441 
Q 2288 441 2617 861 
Q 2947 1281 2994 2138 
Q 2813 1869 2534 1725 
Q 2256 1581 1919 1581 
Q 1219 1581 811 2004 
Q 403 2428 403 3163 
Q 403 3881 828 4315 
Q 1253 4750 1959 4750 
Q 2769 4750 3195 4129 
Q 3622 3509 3622 2328 
Q 3622 1225 3098 567 
Q 2575 -91 1691 -91 
Q 1453 -91 1209 -44 
Q 966 3 703 97 
z
M 1959 2075 
Q 2384 2075 2632 2365 
Q 2881 2656 2881 3163 
Q 2881 3666 2632 3958 
Q 2384 4250 1959 4250 
Q 1534 4250 1286 3958 
Q 1038 3666 1038 3163 
Q 1038 2656 1286 2365 
Q 1534 2075 1959 2075 
z
" transform="scale(0.015625)"/>
       </defs>
       <use xlink:href="#DejaVuSans-32"/>
       <use xlink:href="#DejaVuSans-30" x="63.623047"/>
       <use xlink:href="#DejaVuSans-32" x="127.246094"/>
       <use xlink:href="#DejaVuSans-32" x="190.869141"/>
       <use xlink:href="#DejaVuSans-2d" x="254.492188"/>
       <use xlink:href="#DejaVuSans-30" x="290.576172"/>
       <use xlink:href="#DejaVuSans-31" x="354.199219"/>
       <use xlink:href="#DejaVuSans-2d" x="417.822266"/>
       <use xlink:href="#DejaVuSans-30" x="453.90625"/>
       <use xlink:href="#DejaVuSans-39" x="517.529297"/>
      </g>
     </g>
    </g>
    <g id="xtick_6">
     <g id="line2d_6">
      <g>
       <use xlink:href="#m79087631d5" x="544.818966" y="320.4" style="stroke: #000000; stroke-width: 0.8"/>
      </g>
     </g>
     <g id="text_6">
      <!-- 2022-01-11 -->
      <g transform="translate(515.761153 334.998438) scale(0.1 -0.1)">
       <use xlink:href="#DejaVuSans-32"/>
       <use xlink:href="#DejaVuSans-30" x="63.623047"/>
       <use xlink:href="#DejaVuSans-32" x="127.246094"/>
       <use xlink:href="#DejaVuSans-32" x="190.869141"/>
       <use xlink:href="#DejaVuSans-2d" x="254.492188"/>
       <use xlink:href="#DejaVuSans-30" x="290.576172"/>
       <use xlink:href="#DejaVuSans-31" x="354.199219"/>
       <use xlink:href="#DejaVuSans-2d" x="417.822266"/>
       <use xlink:href="#DejaVuSans-31" x="453.90625"/>
       <use xlink:href="#DejaVuSans-31" x="517.529297"/>
      </g>
     </g>
    </g>
    <g id="xtick_7">
     <g id="line2d_7">
      <g>
       <use xlink:href="#m79087631d5" x="626.095486" y="320.4" style="stroke: #000000; stroke-width: 0.8"/>
      </g>
     </g>
     <g id="text_7">
      <!-- 2022-01-13 -->
      <g transform="translate(597.037674 334.998438) scale(0.1 -0.1)">
       <use xlink:href="#DejaVuSans-32"/>
       <use xlink:href="#DejaVuSans-30" x="63.623047"/>
       <use xlink:href="#DejaVuSans-32" x="127.246094"/>
       <use xlink:href="#DejaVuSans-32" x="190.869141"/>
       <use xlink:href="#DejaVuSans-2d" x="254.492188"/>
       <use xlink:href="#DejaVuSans-30" x="290.576172"/>
       <use xlink:href="#DejaVuSans-31" x="354.199219"/>
       <use xlink:href="#DejaVuSans-2d" x="417.822266"/>
       <use xlink:href="#DejaVuSans-31" x="453.90625"/>
       <use xlink:href="#DejaVuSans-33" x="517.529297"/>
      </g>
     </g>
    </g>
    <g id="xtick_8">
     <g id="line2d_8">
      <g>
       <use xlink:href="#m79087631d5" x="707.372007" y="320.4" style="stroke: #000000; stroke-width: 0.8"/>
      </g>
     </g>
     <g id="text_8">
      <!-- 2022-01-15 -->
      <g transform="translate(678.314194 334.998438) scale(0.1 -0.1)">
       <use xlink:href="#DejaVuSans-32"/>
       <use xlink:href="#DejaVuSans-30" x="63.623047"/>
       <use xlink:href="#DejaVuSans-32" x="127.246094"/>
       <use xlink:href="#DejaVuSans-32" x="190.869141"/>
       <use xlink:href="#DejaVuSans-2d" x="254.492188"/>
       <use xlink:href="#DejaVuSans-30" x="290.576172"/>
       <use xlink:href="#DejaVuSans-31" x="354.199219"/>
       <use xlink:href="#DejaVuSans-2d" x="417.822266"/>
       <use xlink:href="#DejaVuSans-31" x="453.90625"/>
       <use xlink:href="#DejaVuSans-35" x="517.529297"/>
      </g>
     </g>
    </g>
    <g id="text_9">
     <!-- TIME (DAYS) -->
     <g transform="translate(412.283594 348.676562) scale(0.1 -0.1)">
      <defs>
       <path id="DejaVuSans-54" d="M -19 4666 
L 3928 4666 
L 3928 4134 
L 2272 4134 
L 2272 0 
L 1638 0 
L 1638 4134 
L -19 4134 
L -19 4666 
z
" transform="scale(0.015625)"/>
       <path id="DejaVuSans-49" d="M 628 4666 
L 1259 4666 
L 1259 0 
L 628 0 
L 628 4666 
z
" transform="scale(0.015625)"/>
       <path id="DejaVuSans-4d" d="M 628 4666 
L 1569 4666 
L 2759 1491 
L 3956 4666 
L 4897 4666 
L 4897 0 
L 4281 0 
L 4281 4097 
L 3078 897 
L 2444 897 
L 1241 4097 
L 1241 0 
L 628 0 
L 628 4666 
z
" transform="scale(0.015625)"/>
       <path id="DejaVuSans-45" d="M 628 4666 
L 3578 4666 
L 3578 4134 
L 1259 4134 
L 1259 2753 
L 3481 2753 
L 3481 2222 
L 1259 2222 
L 1259 531 
L 3634 531 
L 3634 0 
L 628 0 
L 628 4666 
z
" transform="scale(0.015625)"/>
       <path id="DejaVuSans-20" transform="scale(0.015625)"/>
       <path id="DejaVuSans-28" d="M 1984 4856 
Q 1566 4138 1362 3434 
Q 1159 2731 1159 2009 
Q 1159 1288 1364 580 
Q 1569 -128 1984 -844 
L 1484 -844 
Q 1016 -109 783 600 
Q 550 1309 550 2009 
Q 550 2706 781 3412 
Q 1013 4119 1484 4856 
L 1984 4856 
z
" transform="scale(0.015625)"/>
       <path id="DejaVuSans-44" d="M 1259 4147 
L 1259 519 
L 2022 519 
Q 2988 519 3436 956 
Q 3884 1394 3884 2338 
Q 3884 3275 3436 3711 
Q 2988 4147 2022 4147 
L 1259 4147 
z
M 628 4666 
L 1925 4666 
Q 3281 4666 3915 4102 
Q 4550 3538 4550 2338 
Q 4550 1131 3912 565 
Q 3275 0 1925 0 
L 628 0 
L 628 4666 
z
" transform="scale(0.015625)"/>
       <path id="DejaVuSans-41" d="M 2188 4044 
L 1331 1722 
L 3047 1722 
L 2188 4044 
z
M 1831 4666 
L 2547 4666 
L 4325 0 
L 3669 0 
L 3244 1197 
L 1141 1197 
L 716 0 
L 50 0 
L 1831 4666 
z
" transform="scale(0.015625)"/>
       <path id="DejaVuSans-59" d="M -13 4666 
L 666 4666 
L 1959 2747 
L 3244 4666 
L 3922 4666 
L 2272 2222 
L 2272 0 
L 1638 0 
L 1638 2222 
L -13 4666 
z
" transform="scale(0.015625)"/>
       <path id="DejaVuSans-53" d="M 3425 4513 
L 3425 3897 
Q 3066 4069 2747 4153 
Q 2428 4238 2131 4238 
Q 1616 4238 1336 4038 
Q 1056 3838 1056 3469 
Q 1056 3159 1242 3001 
Q 1428 2844 1947 2747 
L 2328 2669 
Q 3034 2534 3370 2195 
Q 3706 1856 3706 1288 
Q 3706 609 3251 259 
Q 2797 -91 1919 -91 
Q 1588 -91 1214 -16 
Q 841 59 441 206 
L 441 856 
Q 825 641 1194 531 
Q 1563 422 1919 422 
Q 2459 422 2753 634 
Q 3047 847 3047 1241 
Q 3047 1584 2836 1778 
Q 2625 1972 2144 2069 
L 1759 2144 
Q 1053 2284 737 2584 
Q 422 2884 422 3419 
Q 422 4038 858 4394 
Q 1294 4750 2059 4750 
Q 2388 4750 2728 4690 
Q 3069 4631 3425 4513 
z
" transform="scale(0.015625)"/>
       <path id="DejaVuSans-29" d="M 513 4856 
L 1013 4856 
Q 1481 4119 1714 3412 
Q 1947 2706 1947 2009 
Q 1947 1309 1714 600 
Q 1481 -109 1013 -844 
L 513 -844 
Q 928 -128 1133 580 
Q 1338 1288 1338 2009 
Q 1338 2731 1133 3434 
Q 928 4138 513 4856 
z
" transform="scale(0.015625)"/>
      </defs>
      <use xlink:href="#DejaVuSans-54"/>
      <use xlink:href="#DejaVuSans-49" x="61.083984"/>
      <use xlink:href="#DejaVuSans-4d" x="90.576172"/>
      <use xlink:href="#DejaVuSans-45" x="176.855469"/>
      <use xlink:href="#DejaVuSans-20" x="240.039062"/>
      <use xlink:href="#DejaVuSans-28" x="271.826172"/>
      <use xlink:href="#DejaVuSans-44" x="310.839844"/>
      <use xlink:href="#DejaVuSans-41" x="386.091797"/>
      <use xlink:href="#DejaVuSans-59" x="446.75"/>
      <use xlink:href="#DejaVuSans-53" x="507.833984"/>
      <use xlink:href="#DejaVuSans-29" x="571.310547"/>
     </g>
    </g>
   </g>
   <g id="matplotlib.axis_2">
    <g id="ytick_1">
     <g id="line2d_9">
      <defs>
       <path id="m0ab95bf8c3" d="M 0 0 
L -3.5 0 
" style="stroke: #000000; stroke-width: 0.8"/>
      </defs>
      <g>
       <use xlink:href="#m0ab95bf8c3" x="108" y="307.8" style="stroke: #000000; stroke-width: 0.8"/>
      </g>
     </g>
     <g id="text_10">
      <!-- 0 -->
      <g transform="translate(94.6375 311.599219) scale(0.1 -0.1)">
       <use xlink:href="#DejaVuSans-30"/>
      </g>
     </g>
    </g>
    <g id="ytick_2">
     <g id="line2d_10">
      <g>
       <use xlink:href="#m0ab95bf8c3" x="108" y="268.547664" style="stroke: #000000; stroke-width: 0.8"/>
      </g>
     </g>
     <g id="text_11">
      <!-- 50 -->
      <g transform="translate(88.275 272.346882) scale(0.1 -0.1)">
       <use xlink:href="#DejaVuSans-35"/>
       <use xlink:href="#DejaVuSans-30" x="63.623047"/>
      </g>
     </g>
    </g>
    <g id="ytick_3">
     <g id="line2d_11">
      <g>
       <use xlink:href="#m0ab95bf8c3" x="108" y="229.295327" style="stroke: #000000; stroke-width: 0.8"/>
      </g>
     </g>
     <g id="text_12">
      <!-- 100 -->
      <g transform="translate(81.9125 233.094546) scale(0.1 -0.1)">
       <use xlink:href="#DejaVuSans-31"/>
       <use xlink:href="#DejaVuSans-30" x="63.623047"/>
       <use xlink:href="#DejaVuSans-30" x="127.246094"/>
      </g>
     </g>
    </g>
    <g id="ytick_4">
     <g id="line2d_12">
      <g>
       <use xlink:href="#m0ab95bf8c3" x="108" y="190.042991" style="stroke: #000000; stroke-width: 0.8"/>
      </g>
     </g>
     <g id="text_13">
      <!-- 150 -->
      <g transform="translate(81.9125 193.842209) scale(0.1 -0.1)">
       <use xlink:href="#DejaVuSans-31"/>
       <use xlink:href="#DejaVuSans-35" x="63.623047"/>
       <use xlink:href="#DejaVuSans-30" x="127.246094"/>
      </g>
     </g>
    </g>
    <g id="ytick_5">
     <g id="line2d_13">
      <g>
       <use xlink:href="#m0ab95bf8c3" x="108" y="150.790654" style="stroke: #000000; stroke-width: 0.8"/>
      </g>
     </g>
     <g id="text_14">
      <!-- 200 -->
      <g transform="translate(81.9125 154.589873) scale(0.1 -0.1)">
       <use xlink:href="#DejaVuSans-32"/>
       <use xlink:href="#DejaVuSans-30" x="63.623047"/>
       <use xlink:href="#DejaVuSans-30" x="127.246094"/>
      </g>
     </g>
    </g>
    <g id="ytick_6">
     <g id="line2d_14">
      <g>
       <use xlink:href="#m0ab95bf8c3" x="108" y="111.538318" style="stroke: #000000; stroke-width: 0.8"/>
      </g>
     </g>
     <g id="text_15">
      <!-- 250 -->
      <g transform="translate(81.9125 115.337537) scale(0.1 -0.1)">
       <use xlink:href="#DejaVuSans-32"/>
       <use xlink:href="#DejaVuSans-35" x="63.623047"/>
       <use xlink:href="#DejaVuSans-30" x="127.246094"/>
      </g>
     </g>
    </g>
    <g id="ytick_7">
     <g id="line2d_15">
      <g>
       <use xlink:href="#m0ab95bf8c3" x="108" y="72.285981" style="stroke: #000000; stroke-width: 0.8"/>
      </g>
     </g>
     <g id="text_16">
      <!-- 300 -->
      <g transform="translate(81.9125 76.0852) scale(0.1 -0.1)">
       <use xlink:href="#DejaVuSans-33"/>
       <use xlink:href="#DejaVuSans-30" x="63.623047"/>
       <use xlink:href="#DejaVuSans-30" x="127.246094"/>
      </g>
     </g>
    </g>
    <g id="text_17">
     <!-- AMPLITUDE -->
     <g transform="translate(75.832812 210.532812) rotate(-90) scale(0.1 -0.1)">
      <defs>
       <path id="DejaVuSans-50" d="M 1259 4147 
L 1259 2394 
L 2053 2394 
Q 2494 2394 2734 2622 
Q 2975 2850 2975 3272 
Q 2975 3691 2734 3919 
Q 2494 4147 2053 4147 
L 1259 4147 
z
M 628 4666 
L 2053 4666 
Q 2838 4666 3239 4311 
Q 3641 3956 3641 3272 
Q 3641 2581 3239 2228 
Q 2838 1875 2053 1875 
L 1259 1875 
L 1259 0 
L 628 0 
L 628 4666 
z
" transform="scale(0.015625)"/>
       <path id="DejaVuSans-4c" d="M 628 4666 
L 1259 4666 
L 1259 531 
L 3531 531 
L 3531 0 
L 628 0 
L 628 4666 
z
" transform="scale(0.015625)"/>
       <path id="DejaVuSans-55" d="M 556 4666 
L 1191 4666 
L 1191 1831 
Q 1191 1081 1462 751 
Q 1734 422 2344 422 
Q 2950 422 3222 751 
Q 3494 1081 3494 1831 
L 3494 4666 
L 4128 4666 
L 4128 1753 
Q 4128 841 3676 375 
Q 3225 -91 2344 -91 
Q 1459 -91 1007 375 
Q 556 841 556 1753 
L 556 4666 
z
" transform="scale(0.015625)"/>
      </defs>
      <use xlink:href="#DejaVuSans-41"/>
      <use xlink:href="#DejaVuSans-4d" x="68.408203"/>
      <use xlink:href="#DejaVuSans-50" x="154.6875"/>
      <use xlink:href="#DejaVuSans-4c" x="214.990234"/>
      <use xlink:href="#DejaVuSans-49" x="270.703125"/>
      <use xlink:href="#DejaVuSans-54" x="300.195312"/>
      <use xlink:href="#DejaVuSans-55" x="361.279297"/>
      <use xlink:href="#DejaVuSans-44" x="434.472656"/>
      <use xlink:href="#DejaVuSans-45" x="511.474609"/>
     </g>
    </g>
   </g>
   <g id="line2d_16">
    <path d="M 138.436364 218.304673 
L 139.282994 307.8 
L 140.976255 291.314019 
L 141.822885 264.62243 
L 142.669516 307.8 
L 143.516146 307.8 
L 144.362777 281.108411 
L 145.209407 307.8 
L 146.902668 307.8 
L 147.749298 262.26729 
L 148.595929 278.753271 
L 149.442559 187.68785 
L 150.28919 288.958879 
L 151.13582 307.8 
L 153.675711 307.8 
L 154.522342 296.024299 
L 155.368972 307.8 
L 156.215602 307.8 
L 157.062233 251.276636 
L 157.908863 307.8 
L 158.755494 306.229907 
L 159.602124 230.865421 
L 160.448755 195.538318 
L 161.295385 269.33271 
L 162.142015 214.379439 
L 162.988646 247.351402 
L 163.835276 180.62243 
L 164.681907 203.388785 
L 165.528537 209.669159 
L 166.375168 248.921495 
L 168.068428 222.229907 
L 168.915059 201.033645 
L 169.761689 221.44486 
L 170.60832 233.220561 
L 171.45495 269.33271 
L 172.30158 238.715888 
L 173.148211 252.846729 
L 173.994841 212.809346 
L 174.841472 226.940187 
L 175.688102 248.921495 
L 176.534733 235.575701 
L 177.381363 307.014953 
L 178.227993 196.323364 
L 179.074624 230.865421 
L 179.921254 287.388785 
L 180.767885 307.8 
L 181.614515 226.15514 
L 182.461146 307.8 
L 183.307776 307.8 
L 184.154406 259.91215 
L 185.001037 291.314019 
L 185.847667 266.192523 
L 186.694298 307.8 
L 194.313971 307.8 
L 195.160602 216.734579 
L 196.007232 307.8 
L 199.393754 307.8 
L 200.240384 238.715888 
L 201.087015 255.201869 
L 201.933645 237.145794 
L 202.780276 187.68785 
L 203.626906 241.071028 
L 204.473536 307.014953 
L 205.320167 215.949533 
L 206.166797 197.108411 
L 207.013428 203.388785 
L 207.860058 186.902804 
L 208.706689 212.024299 
L 209.553319 189.257944 
L 210.399949 184.547664 
L 211.24658 260.697196 
L 212.09321 277.968224 
L 212.939841 223.014953 
L 213.786471 201.033645 
L 214.633102 218.304673 
L 215.479732 183.762617 
L 216.326362 116.248598 
L 217.172993 266.192523 
L 218.019623 204.958879 
L 218.866254 186.902804 
L 219.712884 229.295327 
L 220.559514 215.164486 
L 221.406145 243.426168 
L 222.252775 296.809346 
L 223.099406 307.8 
L 223.946036 304.659813 
L 224.792667 230.865421 
L 225.639297 307.8 
L 226.485927 307.8 
L 227.332558 264.62243 
L 228.179188 237.930841 
L 229.025819 270.902804 
L 229.872449 216.734579 
L 230.71908 294.454206 
L 231.56571 307.8 
L 232.41234 307.8 
L 233.258971 277.968224 
L 234.105601 219.874766 
L 234.952232 277.183178 
L 235.798862 307.8 
L 236.645492 307.8 
L 237.492123 230.080374 
L 238.338753 204.958879 
L 239.185384 307.8 
L 240.032014 248.921495 
L 240.878645 307.8 
L 241.725275 307.8 
L 242.571905 275.613084 
L 243.418536 307.8 
L 244.265166 190.042991 
L 245.111797 284.248598 
L 245.958427 208.884112 
L 246.805058 288.173832 
L 247.651688 307.8 
L 248.498318 179.052336 
L 249.344949 177.482243 
L 250.191579 176.697196 
L 251.03821 219.874766 
L 251.88484 221.44486 
L 252.73147 208.099065 
L 253.578101 191.613084 
L 254.424731 221.44486 
L 255.271362 198.678505 
L 256.117992 220.659813 
L 256.964623 239.500935 
L 257.811253 247.351402 
L 258.657883 292.884112 
L 259.504514 307.8 
L 260.351144 109.183178 
L 261.197775 266.192523 
L 262.044405 232.435514 
L 262.891036 80.921495 
L 263.737666 249.706542 
L 264.584296 237.930841 
L 265.430927 307.8 
L 266.277557 300.734579 
L 267.124188 307.8 
L 268.817448 307.8 
L 269.664079 248.136449 
L 270.510709 307.8 
L 273.050601 307.8 
L 273.897231 303.874766 
L 274.743861 307.8 
L 278.130383 307.8 
L 278.977014 212.809346 
L 279.823644 307.8 
L 280.670274 301.519626 
L 281.516905 307.8 
L 284.056796 307.8 
L 284.903426 238.715888 
L 285.750057 296.809346 
L 286.596687 247.351402 
L 287.443318 149.220561 
L 288.289948 307.8 
L 289.136579 226.940187 
L 289.983209 277.968224 
L 290.829839 179.052336 
L 291.67647 143.725234 
L 292.5231 140.585047 
L 293.369731 255.986916 
L 294.216361 237.145794 
L 295.062992 204.958879 
L 295.909622 168.061682 
L 296.756252 228.51028 
L 297.602883 145.295327 
L 298.449513 197.108411 
L 299.296144 226.940187 
L 300.142774 226.15514 
L 300.989404 251.276636 
L 301.836035 152.360748 
L 303.529296 307.8 
L 304.375926 154.715888 
L 305.222557 296.024299 
L 306.069187 307.8 
L 306.915817 283.463551 
L 307.762448 244.996262 
L 308.609078 224.585047 
L 309.455709 254.416822 
L 310.302339 307.8 
L 311.14897 299.949533 
L 311.9956 307.014953 
L 312.84223 307.8 
L 314.535491 307.8 
L 315.382122 305.44486 
L 316.228752 292.884112 
L 317.075382 301.519626 
L 317.922013 304.659813 
L 318.768643 216.734579 
L 319.615274 282.678505 
L 320.461904 258.342056 
L 321.308535 307.8 
L 323.001795 307.8 
L 323.848426 293.669159 
L 324.695056 307.8 
L 325.541687 307.8 
L 326.388317 295.239252 
L 327.234948 303.874766 
L 328.081578 307.8 
L 328.928208 286.603738 
L 329.774839 274.042991 
L 330.621469 252.061682 
L 331.4681 294.454206 
L 332.31473 153.930841 
L 333.16136 158.641121 
L 334.007991 270.902804 
L 334.854621 299.164486 
L 335.701252 189.257944 
L 336.547882 221.44486 
L 337.394513 271.68785 
L 338.241143 153.145794 
L 339.087773 153.930841 
L 339.934404 273.257944 
L 340.781034 264.62243 
L 341.627665 246.566355 
L 342.474295 103.68785 
L 343.320926 241.071028 
L 344.167556 226.15514 
L 345.014186 244.211215 
L 345.860817 183.762617 
L 346.707447 246.566355 
L 347.554078 236.360748 
L 348.400708 275.613084 
L 349.247338 267.762617 
L 350.093969 292.099065 
L 350.940599 307.8 
L 354.327121 307.8 
L 355.173751 302.304673 
L 356.020382 270.117757 
L 356.867012 265.407477 
L 357.713643 252.846729 
L 358.560273 285.033645 
L 359.406904 285.033645 
L 360.253534 276.398131 
L 361.100164 307.8 
L 364.486686 307.8 
L 365.333316 288.173832 
L 366.179947 289.743925 
L 367.026577 307.8 
L 368.719838 307.8 
L 369.566469 244.211215 
L 370.413099 307.8 
L 371.259729 186.902804 
L 372.10636 247.351402 
L 372.95299 178.26729 
L 373.799621 212.809346 
L 374.646251 161.781308 
L 375.492882 184.547664 
L 376.339512 270.902804 
L 377.186142 307.8 
L 378.032773 270.902804 
L 378.879403 253.631776 
L 379.726034 214.379439 
L 380.572664 164.136449 
L 381.419294 231.650467 
L 382.265925 284.248598 
L 383.959186 224.585047 
L 384.805816 219.08972 
L 385.652447 157.071028 
L 386.499077 248.136449 
L 387.345707 248.136449 
L 388.192338 175.91215 
L 389.038968 291.314019 
L 389.885599 307.8 
L 390.732229 201.818692 
L 391.57886 203.388785 
L 392.42549 292.884112 
L 393.27212 307.8 
L 394.118751 295.239252 
L 394.965381 307.8 
L 395.812012 307.8 
L 396.658642 282.678505 
L 398.351903 302.304673 
L 399.198533 209.669159 
L 400.045164 307.8 
L 400.891794 241.071028 
L 401.738425 297.594393 
L 402.585055 294.454206 
L 403.431685 307.8 
L 404.278316 305.44486 
L 405.124946 270.117757 
L 405.971577 215.949533 
L 406.818207 248.136449 
L 407.664838 275.613084 
L 408.511468 307.8 
L 409.358098 262.26729 
L 410.204729 255.201869 
L 411.051359 307.8 
L 411.89799 216.734579 
L 412.74462 307.8 
L 413.59125 253.631776 
L 414.437881 270.902804 
L 415.284511 227.725234 
L 416.131142 259.91215 
L 416.977772 241.856075 
L 417.824403 307.014953 
L 418.671033 256.771963 
L 419.517663 234.790654 
L 420.364294 194.753271 
L 421.210924 228.51028 
L 422.057555 177.482243 
L 422.904185 253.631776 
L 423.750816 213.594393 
L 424.597446 250.491589 
L 425.444076 221.44486 
L 426.290707 247.351402 
L 427.137337 307.8 
L 427.983968 179.052336 
L 428.830598 302.304673 
L 429.677228 164.136449 
L 430.523859 208.884112 
L 431.370489 274.042991 
L 432.21712 219.08972 
L 433.06375 210.454206 
L 433.910381 55.8 
L 434.757011 298.379439 
L 436.450272 273.257944 
L 437.296902 307.8 
L 438.143533 307.8 
L 438.990163 260.697196 
L 439.836794 307.8 
L 440.683424 307.8 
L 441.530054 273.257944 
L 442.376685 307.8 
L 443.223315 193.968224 
L 444.069946 307.8 
L 444.916576 184.547664 
L 445.763206 307.8 
L 446.609837 243.426168 
L 447.456467 307.8 
L 448.303098 307.8 
L 449.149728 260.697196 
L 449.996359 307.014953 
L 450.842989 307.8 
L 452.53625 307.8 
L 453.38288 302.304673 
L 454.229511 191.613084 
L 455.076141 146.080374 
L 455.922772 247.351402 
L 456.769402 235.575701 
L 457.616032 206.528972 
L 458.462663 256.771963 
L 459.309293 252.846729 
L 460.155924 214.379439 
L 461.002554 307.8 
L 461.849184 175.91215 
L 462.695815 177.482243 
L 463.542445 259.91215 
L 464.389076 162.566355 
L 465.235706 266.97757 
L 466.082337 191.613084 
L 466.928967 164.921495 
L 467.775597 165.706542 
L 468.622228 216.734579 
L 469.468858 251.276636 
L 470.315489 236.360748 
L 471.162119 237.930841 
L 472.00875 307.8 
L 472.85538 221.44486 
L 473.70201 254.416822 
L 474.548641 213.594393 
L 475.395271 238.715888 
L 476.241902 280.323364 
L 477.088532 298.379439 
L 477.935162 299.164486 
L 478.781793 295.239252 
L 479.628423 285.818692 
L 480.475054 307.014953 
L 481.321684 274.042991 
L 483.014945 302.304673 
L 483.861575 295.239252 
L 484.708206 291.314019 
L 485.554836 307.8 
L 486.401467 307.8 
L 487.248097 251.276636 
L 488.094728 307.8 
L 488.941358 257.557009 
L 489.787988 307.8 
L 492.32788 307.8 
L 493.17451 207.314019 
L 494.02114 268.547664 
L 494.867771 230.865421 
L 495.714401 230.865421 
L 496.561032 307.8 
L 497.407662 188.472897 
L 498.254293 266.192523 
L 499.100923 212.024299 
L 499.947553 299.164486 
L 500.794184 166.491589 
L 501.640814 284.248598 
L 502.487445 279.538318 
L 503.334075 226.15514 
L 504.180706 181.407477 
L 505.027336 226.15514 
L 505.873966 210.454206 
L 506.720597 209.669159 
L 507.567227 238.715888 
L 508.413858 205.743925 
L 509.260488 137.44486 
L 510.107118 265.407477 
L 510.953749 222.229907 
L 511.800379 268.547664 
L 512.64701 307.8 
L 513.49364 307.8 
L 514.340271 259.127103 
L 515.186901 307.8 
L 519.420053 307.8 
L 520.266684 286.603738 
L 521.113314 307.8 
L 522.806575 307.8 
L 523.653205 249.706542 
L 524.499836 307.8 
L 525.346466 248.921495 
L 526.193096 307.8 
L 528.732988 307.8 
L 529.579618 269.33271 
L 530.426249 296.024299 
L 531.272879 307.8 
L 532.119509 216.734579 
L 532.96614 291.314019 
L 533.81277 221.44486 
L 534.659401 307.8 
L 535.506031 224.585047 
L 536.352662 225.370093 
L 537.199292 163.351402 
L 538.045922 204.173832 
L 538.892553 170.416822 
L 539.739183 285.818692 
L 540.585814 142.940187 
L 541.432444 259.127103 
L 542.279074 268.547664 
L 543.125705 178.26729 
L 543.972335 200.248598 
L 544.818966 244.211215 
L 545.665596 218.304673 
L 546.512227 236.360748 
L 547.358857 307.8 
L 548.205487 215.164486 
L 549.052118 246.566355 
L 549.898748 259.127103 
L 550.745379 248.921495 
L 551.592009 307.8 
L 552.43864 266.97757 
L 553.28527 307.8 
L 554.1319 275.613084 
L 554.978531 188.472897 
L 555.825161 285.818692 
L 556.671792 274.828037 
L 557.518422 307.8 
L 558.365052 290.528972 
L 559.211683 307.8 
L 560.904944 307.8 
L 561.751574 307.014953 
L 562.598205 272.472897 
L 563.444835 203.388785 
L 564.291465 307.8 
L 565.138096 307.8 
L 565.984726 268.547664 
L 566.831357 278.753271 
L 567.677987 281.108411 
L 568.524618 284.248598 
L 569.371248 253.631776 
L 570.217878 250.491589 
L 571.064509 278.753271 
L 571.911139 222.229907 
L 572.75777 213.594393 
L 573.6044 268.547664 
L 574.45103 230.865421 
L 575.297661 256.771963 
L 576.144291 165.706542 
L 576.990922 307.8 
L 577.837552 282.678505 
L 578.684183 112.323364 
L 579.530813 256.771963 
L 580.377443 241.071028 
L 581.224074 216.734579 
L 582.070704 199.463551 
L 582.917335 198.678505 
L 583.763965 285.818692 
L 584.610596 163.351402 
L 585.457226 247.351402 
L 586.303856 170.416822 
L 587.150487 225.370093 
L 587.997117 241.071028 
L 588.843748 234.005607 
L 589.690378 141.370093 
L 590.537008 252.061682 
L 591.383639 285.818692 
L 592.230269 307.8 
L 594.770161 307.8 
L 595.616791 248.921495 
L 596.463421 307.8 
L 597.310052 271.68785 
L 598.156682 307.8 
L 599.003313 212.809346 
L 599.849943 298.379439 
L 600.696574 290.528972 
L 601.543204 307.8 
L 603.236465 307.8 
L 604.083095 258.342056 
L 604.929726 290.528972 
L 605.776356 307.8 
L 607.469617 307.8 
L 608.316247 239.500935 
L 609.162878 255.986916 
L 610.009508 268.547664 
L 610.856139 202.603738 
L 611.702769 307.8 
L 612.549399 176.697196 
L 613.39603 191.613084 
L 614.24266 302.304673 
L 615.089291 164.921495 
L 615.935921 225.370093 
L 616.782552 149.220561 
L 617.629182 213.594393 
L 618.475812 262.26729 
L 619.322443 209.669159 
L 620.169073 177.482243 
L 621.015704 307.014953 
L 621.862334 191.613084 
L 622.708964 253.631776 
L 623.555595 288.173832 
L 624.402225 288.958879 
L 625.248856 223.8 
L 626.095486 169.631776 
L 626.942117 307.8 
L 627.788747 275.613084 
L 628.635377 307.8 
L 629.482008 299.164486 
L 630.328638 247.351402 
L 631.175269 241.856075 
L 632.021899 307.8 
L 632.86853 299.164486 
L 633.71516 296.809346 
L 634.56179 307.8 
L 635.408421 307.8 
L 636.255051 251.276636 
L 637.101682 307.8 
L 637.948312 273.257944 
L 638.794942 307.8 
L 639.641573 304.659813 
L 640.488203 307.8 
L 641.334834 298.379439 
L 642.181464 296.809346 
L 643.028095 279.538318 
L 643.874725 307.8 
L 644.721355 307.8 
L 645.567986 270.117757 
L 646.414616 274.042991 
L 647.261247 248.136449 
L 648.954508 212.024299 
L 649.801138 252.846729 
L 650.647768 299.949533 
L 651.494399 212.024299 
L 652.341029 156.285981 
L 653.18766 155.500935 
L 654.03429 207.314019 
L 654.88092 296.809346 
L 655.727551 292.884112 
L 656.574181 191.613084 
L 657.420812 144.51028 
L 658.267442 235.575701 
L 659.114073 178.26729 
L 659.960703 162.566355 
L 660.807333 261.482243 
L 662.500594 173.557009 
L 663.347225 157.071028 
L 664.193855 212.024299 
L 665.040486 307.8 
L 665.887116 246.566355 
L 666.733746 164.921495 
L 667.580377 271.68785 
L 668.427007 307.8 
L 669.273638 248.136449 
L 670.120268 307.8 
L 673.50679 307.8 
L 674.35342 307.014953 
L 675.200051 277.968224 
L 676.046681 307.8 
L 677.739942 255.201869 
L 678.586572 307.8 
L 679.433203 237.930841 
L 680.279833 307.8 
L 681.126464 307.8 
L 681.973094 297.594393 
L 682.819724 307.8 
L 683.666355 307.8 
L 684.512985 190.042991 
L 685.359616 307.8 
L 687.052876 307.8 
L 687.899507 169.631776 
L 688.746137 277.183178 
L 689.592768 270.902804 
L 690.439398 163.351402 
L 691.286029 220.659813 
L 692.132659 220.659813 
L 692.979289 256.771963 
L 693.82592 223.8 
L 694.67255 258.342056 
L 695.519181 303.08972 
L 696.365811 207.314019 
L 697.212442 174.342056 
L 698.059072 248.921495 
L 698.905702 277.183178 
L 699.752333 231.650467 
L 700.598963 206.528972 
L 701.445594 202.603738 
L 702.292224 242.641121 
L 703.138854 191.613084 
L 703.985485 179.052336 
L 704.832115 244.211215 
L 705.678746 244.211215 
L 706.525376 283.463551 
L 707.372007 307.8 
L 708.218637 222.229907 
L 709.065267 266.97757 
L 709.911898 267.762617 
L 710.758528 179.837383 
L 711.605159 307.8 
L 712.451789 229.295327 
L 713.29842 291.314019 
L 714.14505 300.734579 
L 714.99168 307.8 
L 715.838311 210.454206 
L 716.684941 307.8 
L 720.071463 307.8 
L 720.918093 270.117757 
L 721.764724 281.108411 
L 722.611354 307.8 
L 723.457985 259.91215 
L 724.304615 281.108411 
L 725.151245 272.472897 
L 725.997876 226.940187 
L 726.844506 216.734579 
L 727.691137 247.351402 
L 728.537767 270.902804 
L 729.384398 157.071028 
L 730.231028 252.061682 
L 731.077658 201.818692 
L 731.924289 296.809346 
L 732.770919 265.407477 
L 733.61755 307.8 
L 734.46418 255.201869 
L 735.31081 259.127103 
L 736.157441 307.014953 
L 737.004071 281.108411 
L 737.850702 226.15514 
L 738.697332 215.949533 
L 739.543963 184.547664 
L 740.390593 216.734579 
L 741.237223 307.8 
L 742.083854 178.26729 
L 742.930484 226.15514 
L 743.777115 185.33271 
L 744.623745 272.472897 
L 745.470376 292.099065 
L 746.317006 291.314019 
L 747.163636 307.8 
L 747.163636 307.8 
" clip-path="url(#pde5e4a1fea)" style="fill: none; stroke: #191970; stroke-width: 2; stroke-linecap: square"/>
   </g>
   <g id="patch_3">
    <path d="M 108 320.4 
L 108 43.2 
" style="fill: none; stroke: #000000; stroke-width: 0.8; stroke-linejoin: miter; stroke-linecap: square"/>
   </g>
   <g id="patch_4">
    <path d="M 777.6 320.4 
L 777.6 43.2 
" style="fill: none; stroke: #000000; stroke-width: 0.8; stroke-linejoin: miter; stroke-linecap: square"/>
   </g>
   <g id="patch_5">
    <path d="M 108 320.4 
L 777.6 320.4 
" style="fill: none; stroke: #000000; stroke-width: 0.8; stroke-linejoin: miter; stroke-linecap: square"/>
   </g>
   <g id="patch_6">
    <path d="M 108 43.2 
L 777.6 43.2 
" style="fill: none; stroke: #000000; stroke-width: 0.8; stroke-linejoin: miter; stroke-linecap: square"/>
   </g>
   <g id="text_18">
    <!-- TIME SERIES -->
    <g transform="translate(405.350625 37.2) scale(0.12 -0.12)">
     <defs>
      <path id="DejaVuSans-52" d="M 2841 2188 
Q 3044 2119 3236 1894 
Q 3428 1669 3622 1275 
L 4263 0 
L 3584 0 
L 2988 1197 
Q 2756 1666 2539 1819 
Q 2322 1972 1947 1972 
L 1259 1972 
L 1259 0 
L 628 0 
L 628 4666 
L 2053 4666 
Q 2853 4666 3247 4331 
Q 3641 3997 3641 3322 
Q 3641 2881 3436 2590 
Q 3231 2300 2841 2188 
z
M 1259 4147 
L 1259 2491 
L 2053 2491 
Q 2509 2491 2742 2702 
Q 2975 2913 2975 3322 
Q 2975 3731 2742 3939 
Q 2509 4147 2053 4147 
L 1259 4147 
z
" transform="scale(0.015625)"/>
     </defs>
     <use xlink:href="#DejaVuSans-54"/>
     <use xlink:href="#DejaVuSans-49" x="61.083984"/>
     <use xlink:href="#DejaVuSans-4d" x="90.576172"/>
     <use xlink:href="#DejaVuSans-45" x="176.855469"/>
     <use xlink:href="#DejaVuSans-20" x="240.039062"/>
     <use xlink:href="#DejaVuSans-53" x="271.826172"/>
     <use xlink:href="#DejaVuSans-45" x="335.302734"/>
     <use xlink:href="#DejaVuSans-52" x="398.486328"/>
     <use xlink:href="#DejaVuSans-49" x="467.96875"/>
     <use xlink:href="#DejaVuSans-45" x="497.460938"/>
     <use xlink:href="#DejaVuSans-53" x="560.644531"/>
    </g>
   </g>
  </g>
 </g>
 <defs>
  <clipPath id="pde5e4a1fea">
   <rect x="108" y="43.2" width="669.6" height="277.2"/>
  </clipPath>
 </defs>
</svg>
