<?xml version="1.0" encoding="utf-8" standalone="no"?>
<!DOCTYPE svg PUBLIC "-//W3C//DTD SVG 1.1//EN"
  "http://www.w3.org/Graphics/SVG/1.1/DTD/svg11.dtd">
<svg xmlns:xlink="http://www.w3.org/1999/xlink" width="850.32pt" height="141.12pt" viewBox="0 0 850.32 141.12" xmlns="http://www.w3.org/2000/svg" version="1.1">
 <metadata>
  <rdf:RDF xmlns:dc="http://purl.org/dc/elements/1.1/" xmlns:cc="http://creativecommons.org/ns#" xmlns:rdf="http://www.w3.org/1999/02/22-rdf-syntax-ns#">
   <cc:Work>
    <dc:type rdf:resource="http://purl.org/dc/dcmitype/StillImage"/>
    <dc:date>2023-08-03T21:20:40.481179</dc:date>
    <dc:format>image/svg+xml</dc:format>
    <dc:creator>
     <cc:Agent>
      <dc:title>Matplotlib v3.7.1, https://matplotlib.org/</dc:title>
     </cc:Agent>
    </dc:creator>
   </cc:Work>
  </rdf:RDF>
 </metadata>
 <defs>
  <style type="text/css">*{stroke-linejoin: round; stroke-linecap: butt}</style>
 </defs>
 <g id="figure_1">
  <g id="patch_1">
   <path d="M 0 141.12 
L 850.32 141.12 
L 850.32 0 
L 0 0 
z
" style="fill: #ffffff"/>
  </g>
  <g id="axes_1">
   <g id="patch_2">
    <path d="M 54.16 89.48 
L 439.69 89.48 
L 439.69 54.672 
L 54.16 54.672 
z
" style="fill: #ffffff"/>
   </g>
   <g id="patch_3">
    <path d="M 52.545215 86.579333 
L 55.774785 86.579333 
L 55.774785 57.572667 
L 52.545215 57.572667 
z
" clip-path="url(#p72586b0f79)" style="fill: #696969"/>
   </g>
   <g id="patch_4">
    <path d="M 54.563696 86.579333 
L 57.793267 86.579333 
L 57.793267 61.053467 
L 54.563696 61.053467 
z
" clip-path="url(#p72586b0f79)" style="fill: #696969"/>
   </g>
   <g id="patch_5">
    <path d="M 56.582178 86.579333 
L 59.811749 86.579333 
L 59.811749 64.534267 
L 56.582178 64.534267 
z
" clip-path="url(#p72586b0f79)" style="fill: #696969"/>
   </g>
   <g id="patch_6">
    <path d="M 58.60066 86.579333 
L 61.83023 86.579333 
L 61.83023 68.015067 
L 58.60066 68.015067 
z
" clip-path="url(#p72586b0f79)" style="fill: #696969"/>
   </g>
   <g id="patch_7">
    <path d="M 60.619141 86.579333 
L 63.848712 86.579333 
L 63.848712 70.915733 
L 60.619141 70.915733 
z
" clip-path="url(#p72586b0f79)" style="fill: #696969"/>
   </g>
   <g id="patch_8">
    <path d="M 62.637623 86.579333 
L 65.867194 86.579333 
L 65.867194 74.396533 
L 62.637623 74.396533 
z
" clip-path="url(#p72586b0f79)" style="fill: #696969"/>
   </g>
   <g id="patch_9">
    <path d="M 64.656105 86.579333 
L 67.885675 86.579333 
L 67.885675 76.717067 
L 64.656105 76.717067 
z
" clip-path="url(#p72586b0f79)" style="fill: #696969"/>
   </g>
   <g id="patch_10">
    <path d="M 66.674586 86.579333 
L 69.904157 86.579333 
L 69.904157 79.617733 
L 66.674586 79.617733 
z
" clip-path="url(#p72586b0f79)" style="fill: #696969"/>
   </g>
   <g id="patch_11">
    <path d="M 68.693068 86.579333 
L 71.922639 86.579333 
L 71.922639 81.358133 
L 68.693068 81.358133 
z
" clip-path="url(#p72586b0f79)" style="fill: #696969"/>
   </g>
   <g id="patch_12">
    <path d="M 70.71155 86.579333 
L 73.94112 86.579333 
L 73.94112 83.098533 
L 70.71155 83.098533 
z
" clip-path="url(#p72586b0f79)" style="fill: #696969"/>
   </g>
   <g id="patch_13">
    <path d="M 72.730031 86.579333 
L 75.959602 86.579333 
L 75.959602 84.838933 
L 72.730031 84.838933 
z
" clip-path="url(#p72586b0f79)" style="fill: #696969"/>
   </g>
   <g id="patch_14">
    <path d="M 74.748513 86.579333 
L 77.978084 86.579333 
L 77.978084 85.9992 
L 74.748513 85.9992 
z
" clip-path="url(#p72586b0f79)" style="fill: #696969"/>
   </g>
   <g id="patch_15">
    <path d="M 76.766995 86.579333 
L 79.996565 86.579333 
L 79.996565 86.579333 
L 76.766995 86.579333 
z
" clip-path="url(#p72586b0f79)" style="fill: #696969"/>
   </g>
   <g id="patch_16">
    <path d="M 78.785476 86.579333 
L 82.015047 86.579333 
L 82.015047 86.579333 
L 78.785476 86.579333 
z
" clip-path="url(#p72586b0f79)" style="fill: #696969"/>
   </g>
   <g id="patch_17">
    <path d="M 80.803958 86.579333 
L 84.033529 86.579333 
L 84.033529 86.579333 
L 80.803958 86.579333 
z
" clip-path="url(#p72586b0f79)" style="fill: #696969"/>
   </g>
   <g id="patch_18">
    <path d="M 82.82244 86.579333 
L 86.05201 86.579333 
L 86.05201 85.419067 
L 82.82244 85.419067 
z
" clip-path="url(#p72586b0f79)" style="fill: #696969"/>
   </g>
   <g id="patch_19">
    <path d="M 84.840921 86.579333 
L 88.070492 86.579333 
L 88.070492 84.2588 
L 84.840921 84.2588 
z
" clip-path="url(#p72586b0f79)" style="fill: #696969"/>
   </g>
   <g id="patch_20">
    <path d="M 86.859403 86.579333 
L 90.088974 86.579333 
L 90.088974 83.098533 
L 86.859403 83.098533 
z
" clip-path="url(#p72586b0f79)" style="fill: #696969"/>
   </g>
   <g id="patch_21">
    <path d="M 88.877885 86.579333 
L 92.107455 86.579333 
L 92.107455 81.358133 
L 88.877885 81.358133 
z
" clip-path="url(#p72586b0f79)" style="fill: #696969"/>
   </g>
   <g id="patch_22">
    <path d="M 90.896366 86.579333 
L 94.125937 86.579333 
L 94.125937 79.0376 
L 90.896366 79.0376 
z
" clip-path="url(#p72586b0f79)" style="fill: #696969"/>
   </g>
   <g id="patch_23">
    <path d="M 92.914848 86.579333 
L 96.144419 86.579333 
L 96.144419 76.136933 
L 92.914848 76.136933 
z
" clip-path="url(#p72586b0f79)" style="fill: #696969"/>
   </g>
   <g id="patch_24">
    <path d="M 94.93333 86.579333 
L 98.162901 86.579333 
L 98.162901 73.8164 
L 94.93333 73.8164 
z
" clip-path="url(#p72586b0f79)" style="fill: #696969"/>
   </g>
   <g id="patch_25">
    <path d="M 96.951812 86.579333 
L 100.181382 86.579333 
L 100.181382 70.3356 
L 96.951812 70.3356 
z
" clip-path="url(#p72586b0f79)" style="fill: #696969"/>
   </g>
   <g id="patch_26">
    <path d="M 98.970293 86.579333 
L 102.199864 86.579333 
L 102.199864 67.434933 
L 98.970293 67.434933 
z
" clip-path="url(#p72586b0f79)" style="fill: #696969"/>
   </g>
   <g id="patch_27">
    <path d="M 100.988775 86.579333 
L 104.218346 86.579333 
L 104.218346 63.954133 
L 100.988775 63.954133 
z
" clip-path="url(#p72586b0f79)" style="fill: #696969"/>
   </g>
   <g id="patch_28">
    <path d="M 103.007257 86.579333 
L 106.236827 86.579333 
L 106.236827 60.473333 
L 103.007257 60.473333 
z
" clip-path="url(#p72586b0f79)" style="fill: #696969"/>
   </g>
   <g id="patch_29">
    <path d="M 105.025738 86.579333 
L 108.255309 86.579333 
L 108.255309 58.1528 
L 105.025738 58.1528 
z
" clip-path="url(#p72586b0f79)" style="fill: #696969"/>
   </g>
   <g id="patch_30">
    <path d="M 107.04422 86.579333 
L 110.273791 86.579333 
L 110.273791 61.6336 
L 107.04422 61.6336 
z
" clip-path="url(#p72586b0f79)" style="fill: #696969"/>
   </g>
   <g id="patch_31">
    <path d="M 109.062702 86.579333 
L 112.292272 86.579333 
L 112.292272 65.1144 
L 109.062702 65.1144 
z
" clip-path="url(#p72586b0f79)" style="fill: #696969"/>
   </g>
   <g id="patch_32">
    <path d="M 111.081183 86.579333 
L 114.310754 86.579333 
L 114.310754 68.5952 
L 111.081183 68.5952 
z
" clip-path="url(#p72586b0f79)" style="fill: #696969"/>
   </g>
   <g id="patch_33">
    <path d="M 113.099665 86.579333 
L 116.329236 86.579333 
L 116.329236 72.076 
L 113.099665 72.076 
z
" clip-path="url(#p72586b0f79)" style="fill: #696969"/>
   </g>
   <g id="patch_34">
    <path d="M 115.118147 86.579333 
L 118.347717 86.579333 
L 118.347717 74.976667 
L 115.118147 74.976667 
z
" clip-path="url(#p72586b0f79)" style="fill: #696969"/>
   </g>
   <g id="patch_35">
    <path d="M 117.136628 86.579333 
L 120.366199 86.579333 
L 120.366199 77.2972 
L 117.136628 77.2972 
z
" clip-path="url(#p72586b0f79)" style="fill: #696969"/>
   </g>
   <g id="patch_36">
    <path d="M 119.15511 86.579333 
L 122.384681 86.579333 
L 122.384681 79.617733 
L 119.15511 79.617733 
z
" clip-path="url(#p72586b0f79)" style="fill: #696969"/>
   </g>
   <g id="patch_37">
    <path d="M 121.173592 86.579333 
L 124.403162 86.579333 
L 124.403162 81.938267 
L 121.173592 81.938267 
z
" clip-path="url(#p72586b0f79)" style="fill: #696969"/>
   </g>
   <g id="patch_38">
    <path d="M 123.192073 86.579333 
L 126.421644 86.579333 
L 126.421644 83.678667 
L 123.192073 83.678667 
z
" clip-path="url(#p72586b0f79)" style="fill: #696969"/>
   </g>
   <g id="patch_39">
    <path d="M 125.210555 86.579333 
L 128.440126 86.579333 
L 128.440126 84.838933 
L 125.210555 84.838933 
z
" clip-path="url(#p72586b0f79)" style="fill: #696969"/>
   </g>
   <g id="patch_40">
    <path d="M 127.229037 86.579333 
L 130.458607 86.579333 
L 130.458607 85.9992 
L 127.229037 85.9992 
z
" clip-path="url(#p72586b0f79)" style="fill: #696969"/>
   </g>
   <g id="patch_41">
    <path d="M 129.247518 86.579333 
L 132.477089 86.579333 
L 132.477089 86.579333 
L 129.247518 86.579333 
z
" clip-path="url(#p72586b0f79)" style="fill: #696969"/>
   </g>
   <g id="patch_42">
    <path d="M 131.266 86.579333 
L 134.495571 86.579333 
L 134.495571 86.579333 
L 131.266 86.579333 
z
" clip-path="url(#p72586b0f79)" style="fill: #696969"/>
   </g>
   <g id="patch_43">
    <path d="M 133.284482 86.579333 
L 136.514052 86.579333 
L 136.514052 85.9992 
L 133.284482 85.9992 
z
" clip-path="url(#p72586b0f79)" style="fill: #696969"/>
   </g>
   <g id="patch_44">
    <path d="M 135.302963 86.579333 
L 138.532534 86.579333 
L 138.532534 85.419067 
L 135.302963 85.419067 
z
" clip-path="url(#p72586b0f79)" style="fill: #696969"/>
   </g>
   <g id="patch_45">
    <path d="M 137.321445 86.579333 
L 140.551016 86.579333 
L 140.551016 84.2588 
L 137.321445 84.2588 
z
" clip-path="url(#p72586b0f79)" style="fill: #696969"/>
   </g>
   <g id="patch_46">
    <path d="M 139.339927 86.579333 
L 142.569497 86.579333 
L 142.569497 82.5184 
L 139.339927 82.5184 
z
" clip-path="url(#p72586b0f79)" style="fill: #696969"/>
   </g>
   <g id="patch_47">
    <path d="M 141.358408 86.579333 
L 144.587979 86.579333 
L 144.587979 80.778 
L 141.358408 80.778 
z
" clip-path="url(#p72586b0f79)" style="fill: #696969"/>
   </g>
   <g id="patch_48">
    <path d="M 143.37689 86.579333 
L 146.606461 86.579333 
L 146.606461 78.457467 
L 143.37689 78.457467 
z
" clip-path="url(#p72586b0f79)" style="fill: #696969"/>
   </g>
   <g id="patch_49">
    <path d="M 145.395372 86.579333 
L 148.624942 86.579333 
L 148.624942 75.5568 
L 145.395372 75.5568 
z
" clip-path="url(#p72586b0f79)" style="fill: #696969"/>
   </g>
   <g id="patch_50">
    <path d="M 147.413853 86.579333 
L 150.643424 86.579333 
L 150.643424 72.656133 
L 147.413853 72.656133 
z
" clip-path="url(#p72586b0f79)" style="fill: #696969"/>
   </g>
   <g id="patch_51">
    <path d="M 149.432335 86.579333 
L 152.661906 86.579333 
L 152.661906 69.755467 
L 149.432335 69.755467 
z
" clip-path="url(#p72586b0f79)" style="fill: #696969"/>
   </g>
   <g id="patch_52">
    <path d="M 151.450817 86.579333 
L 154.680387 86.579333 
L 154.680387 66.274667 
L 151.450817 66.274667 
z
" clip-path="url(#p72586b0f79)" style="fill: #696969"/>
   </g>
   <g id="patch_53">
    <path d="M 153.469298 86.579333 
L 156.698869 86.579333 
L 156.698869 63.374 
L 153.469298 63.374 
z
" clip-path="url(#p72586b0f79)" style="fill: #696969"/>
   </g>
   <g id="patch_54">
    <path d="M 155.48778 86.579333 
L 158.717351 86.579333 
L 158.717351 59.8932 
L 155.48778 59.8932 
z
" clip-path="url(#p72586b0f79)" style="fill: #696969"/>
   </g>
   <g id="patch_55">
    <path d="M 157.506262 86.579333 
L 160.735832 86.579333 
L 160.735832 59.313067 
L 157.506262 59.313067 
z
" clip-path="url(#p72586b0f79)" style="fill: #696969"/>
   </g>
   <g id="patch_56">
    <path d="M 159.524743 86.579333 
L 162.754314 86.579333 
L 162.754314 62.793867 
L 159.524743 62.793867 
z
" clip-path="url(#p72586b0f79)" style="fill: #696969"/>
   </g>
   <g id="patch_57">
    <path d="M 161.543225 86.579333 
L 164.772796 86.579333 
L 164.772796 66.274667 
L 161.543225 66.274667 
z
" clip-path="url(#p72586b0f79)" style="fill: #696969"/>
   </g>
   <g id="patch_58">
    <path d="M 163.561707 86.579333 
L 166.791277 86.579333 
L 166.791277 69.175333 
L 163.561707 69.175333 
z
" clip-path="url(#p72586b0f79)" style="fill: #696969"/>
   </g>
   <g id="patch_59">
    <path d="M 165.580188 86.579333 
L 168.809759 86.579333 
L 168.809759 72.656133 
L 165.580188 72.656133 
z
" clip-path="url(#p72586b0f79)" style="fill: #696969"/>
   </g>
   <g id="patch_60">
    <path d="M 167.59867 86.579333 
L 170.828241 86.579333 
L 170.828241 75.5568 
L 167.59867 75.5568 
z
" clip-path="url(#p72586b0f79)" style="fill: #696969"/>
   </g>
   <g id="patch_61">
    <path d="M 169.617152 86.579333 
L 172.846723 86.579333 
L 172.846723 77.877333 
L 169.617152 77.877333 
z
" clip-path="url(#p72586b0f79)" style="fill: #696969"/>
   </g>
   <g id="patch_62">
    <path d="M 171.635634 86.579333 
L 174.865204 86.579333 
L 174.865204 80.197867 
L 171.635634 80.197867 
z
" clip-path="url(#p72586b0f79)" style="fill: #696969"/>
   </g>
   <g id="patch_63">
    <path d="M 173.654115 86.579333 
L 176.883686 86.579333 
L 176.883686 82.5184 
L 173.654115 82.5184 
z
" clip-path="url(#p72586b0f79)" style="fill: #696969"/>
   </g>
   <g id="patch_64">
    <path d="M 175.672597 86.579333 
L 178.902168 86.579333 
L 178.902168 84.2588 
L 175.672597 84.2588 
z
" clip-path="url(#p72586b0f79)" style="fill: #696969"/>
   </g>
   <g id="patch_65">
    <path d="M 177.691079 86.579333 
L 180.920649 86.579333 
L 180.920649 85.419067 
L 177.691079 85.419067 
z
" clip-path="url(#p72586b0f79)" style="fill: #696969"/>
   </g>
   <g id="patch_66">
    <path d="M 179.70956 86.579333 
L 182.939131 86.579333 
L 182.939131 85.9992 
L 179.70956 85.9992 
z
" clip-path="url(#p72586b0f79)" style="fill: #696969"/>
   </g>
   <g id="patch_67">
    <path d="M 181.728042 86.579333 
L 184.957613 86.579333 
L 184.957613 86.579333 
L 181.728042 86.579333 
z
" clip-path="url(#p72586b0f79)" style="fill: #696969"/>
   </g>
   <g id="patch_68">
    <path d="M 183.746524 86.579333 
L 186.976094 86.579333 
L 186.976094 86.579333 
L 183.746524 86.579333 
z
" clip-path="url(#p72586b0f79)" style="fill: #696969"/>
   </g>
   <g id="patch_69">
    <path d="M 185.765005 86.579333 
L 188.994576 86.579333 
L 188.994576 85.9992 
L 185.765005 85.9992 
z
" clip-path="url(#p72586b0f79)" style="fill: #696969"/>
   </g>
   <g id="patch_70">
    <path d="M 187.783487 86.579333 
L 191.013058 86.579333 
L 191.013058 85.419067 
L 187.783487 85.419067 
z
" clip-path="url(#p72586b0f79)" style="fill: #696969"/>
   </g>
   <g id="patch_71">
    <path d="M 189.801969 86.579333 
L 193.031539 86.579333 
L 193.031539 83.678667 
L 189.801969 83.678667 
z
" clip-path="url(#p72586b0f79)" style="fill: #696969"/>
   </g>
   <g id="patch_72">
    <path d="M 191.82045 86.579333 
L 195.050021 86.579333 
L 195.050021 82.5184 
L 191.82045 82.5184 
z
" clip-path="url(#p72586b0f79)" style="fill: #696969"/>
   </g>
   <g id="patch_73">
    <path d="M 193.838932 86.579333 
L 197.068503 86.579333 
L 197.068503 80.197867 
L 193.838932 80.197867 
z
" clip-path="url(#p72586b0f79)" style="fill: #696969"/>
   </g>
   <g id="patch_74">
    <path d="M 195.857414 86.579333 
L 199.086984 86.579333 
L 199.086984 77.877333 
L 195.857414 77.877333 
z
" clip-path="url(#p72586b0f79)" style="fill: #696969"/>
   </g>
   <g id="patch_75">
    <path d="M 197.875895 86.579333 
L 201.105466 86.579333 
L 201.105466 74.976667 
L 197.875895 74.976667 
z
" clip-path="url(#p72586b0f79)" style="fill: #696969"/>
   </g>
   <g id="patch_76">
    <path d="M 199.894377 86.579333 
L 203.123948 86.579333 
L 203.123948 72.076 
L 199.894377 72.076 
z
" clip-path="url(#p72586b0f79)" style="fill: #696969"/>
   </g>
   <g id="patch_77">
    <path d="M 201.912859 86.579333 
L 205.142429 86.579333 
L 205.142429 69.175333 
L 201.912859 69.175333 
z
" clip-path="url(#p72586b0f79)" style="fill: #696969"/>
   </g>
   <g id="patch_78">
    <path d="M 203.93134 86.579333 
L 207.160911 86.579333 
L 207.160911 65.694533 
L 203.93134 65.694533 
z
" clip-path="url(#p72586b0f79)" style="fill: #696969"/>
   </g>
   <g id="patch_79">
    <path d="M 205.949822 86.579333 
L 209.179393 86.579333 
L 209.179393 62.213733 
L 205.949822 62.213733 
z
" clip-path="url(#p72586b0f79)" style="fill: #696969"/>
   </g>
   <g id="patch_80">
    <path d="M 207.968304 86.579333 
L 211.197874 86.579333 
L 211.197874 58.732933 
L 207.968304 58.732933 
z
" clip-path="url(#p72586b0f79)" style="fill: #696969"/>
   </g>
   <g id="patch_81">
    <path d="M 209.986785 86.579333 
L 213.216356 86.579333 
L 213.216356 59.8932 
L 209.986785 59.8932 
z
" clip-path="url(#p72586b0f79)" style="fill: #696969"/>
   </g>
   <g id="patch_82">
    <path d="M 212.005267 86.579333 
L 215.234838 86.579333 
L 215.234838 63.374 
L 212.005267 63.374 
z
" clip-path="url(#p72586b0f79)" style="fill: #696969"/>
   </g>
   <g id="patch_83">
    <path d="M 214.023749 86.579333 
L 217.253319 86.579333 
L 217.253319 66.8548 
L 214.023749 66.8548 
z
" clip-path="url(#p72586b0f79)" style="fill: #696969"/>
   </g>
   <g id="patch_84">
    <path d="M 216.04223 86.579333 
L 219.271801 86.579333 
L 219.271801 69.755467 
L 216.04223 69.755467 
z
" clip-path="url(#p72586b0f79)" style="fill: #696969"/>
   </g>
   <g id="patch_85">
    <path d="M 218.060712 86.579333 
L 221.290283 86.579333 
L 221.290283 73.236267 
L 218.060712 73.236267 
z
" clip-path="url(#p72586b0f79)" style="fill: #696969"/>
   </g>
   <g id="patch_86">
    <path d="M 220.079194 86.579333 
L 223.308764 86.579333 
L 223.308764 76.136933 
L 220.079194 76.136933 
z
" clip-path="url(#p72586b0f79)" style="fill: #696969"/>
   </g>
   <g id="patch_87">
    <path d="M 222.097675 86.579333 
L 225.327246 86.579333 
L 225.327246 78.457467 
L 222.097675 78.457467 
z
" clip-path="url(#p72586b0f79)" style="fill: #696969"/>
   </g>
   <g id="patch_88">
    <path d="M 224.116157 86.579333 
L 227.345728 86.579333 
L 227.345728 80.778 
L 224.116157 80.778 
z
" clip-path="url(#p72586b0f79)" style="fill: #696969"/>
   </g>
   <g id="patch_89">
    <path d="M 226.134639 86.579333 
L 229.364209 86.579333 
L 229.364209 82.5184 
L 226.134639 82.5184 
z
" clip-path="url(#p72586b0f79)" style="fill: #696969"/>
   </g>
   <g id="patch_90">
    <path d="M 228.15312 86.579333 
L 231.382691 86.579333 
L 231.382691 84.2588 
L 228.15312 84.2588 
z
" clip-path="url(#p72586b0f79)" style="fill: #696969"/>
   </g>
   <g id="patch_91">
    <path d="M 230.171602 86.579333 
L 233.401173 86.579333 
L 233.401173 85.419067 
L 230.171602 85.419067 
z
" clip-path="url(#p72586b0f79)" style="fill: #696969"/>
   </g>
   <g id="patch_92">
    <path d="M 232.190084 86.579333 
L 235.419654 86.579333 
L 235.419654 85.9992 
L 232.190084 85.9992 
z
" clip-path="url(#p72586b0f79)" style="fill: #696969"/>
   </g>
   <g id="patch_93">
    <path d="M 234.208565 86.579333 
L 237.438136 86.579333 
L 237.438136 86.579333 
L 234.208565 86.579333 
z
" clip-path="url(#p72586b0f79)" style="fill: #696969"/>
   </g>
   <g id="patch_94">
    <path d="M 236.227047 86.579333 
L 239.456618 86.579333 
L 239.456618 86.579333 
L 236.227047 86.579333 
z
" clip-path="url(#p72586b0f79)" style="fill: #696969"/>
   </g>
   <g id="patch_95">
    <path d="M 238.245529 86.579333 
L 241.475099 86.579333 
L 241.475099 85.9992 
L 238.245529 85.9992 
z
" clip-path="url(#p72586b0f79)" style="fill: #696969"/>
   </g>
   <g id="patch_96">
    <path d="M 240.26401 86.579333 
L 243.493581 86.579333 
L 243.493581 84.838933 
L 240.26401 84.838933 
z
" clip-path="url(#p72586b0f79)" style="fill: #696969"/>
   </g>
   <g id="patch_97">
    <path d="M 242.282492 86.579333 
L 245.512063 86.579333 
L 245.512063 83.678667 
L 242.282492 83.678667 
z
" clip-path="url(#p72586b0f79)" style="fill: #696969"/>
   </g>
   <g id="patch_98">
    <path d="M 244.300974 86.579333 
L 247.530545 86.579333 
L 247.530545 81.938267 
L 244.300974 81.938267 
z
" clip-path="url(#p72586b0f79)" style="fill: #696969"/>
   </g>
   <g id="patch_99">
    <path d="M 246.319455 86.579333 
L 249.549026 86.579333 
L 249.549026 79.617733 
L 246.319455 79.617733 
z
" clip-path="url(#p72586b0f79)" style="fill: #696969"/>
   </g>
   <g id="patch_100">
    <path d="M 248.337937 86.579333 
L 251.567508 86.579333 
L 251.567508 77.2972 
L 248.337937 77.2972 
z
" clip-path="url(#p72586b0f79)" style="fill: #696969"/>
   </g>
   <g id="patch_101">
    <path d="M 250.356419 86.579333 
L 253.58599 86.579333 
L 253.58599 74.396533 
L 250.356419 74.396533 
z
" clip-path="url(#p72586b0f79)" style="fill: #696969"/>
   </g>
   <g id="patch_102">
    <path d="M 252.374901 86.579333 
L 255.604471 86.579333 
L 255.604471 71.495867 
L 252.374901 71.495867 
z
" clip-path="url(#p72586b0f79)" style="fill: #696969"/>
   </g>
   <g id="patch_103">
    <path d="M 254.393382 86.579333 
L 257.622953 86.579333 
L 257.622953 68.5952 
L 254.393382 68.5952 
z
" clip-path="url(#p72586b0f79)" style="fill: #696969"/>
   </g>
   <g id="patch_104">
    <path d="M 256.411864 86.579333 
L 259.641435 86.579333 
L 259.641435 65.1144 
L 256.411864 65.1144 
z
" clip-path="url(#p72586b0f79)" style="fill: #696969"/>
   </g>
   <g id="patch_105">
    <path d="M 258.430346 86.579333 
L 261.659916 86.579333 
L 261.659916 61.6336 
L 258.430346 61.6336 
z
" clip-path="url(#p72586b0f79)" style="fill: #696969"/>
   </g>
   <g id="patch_106">
    <path d="M 260.448827 86.579333 
L 263.678398 86.579333 
L 263.678398 58.1528 
L 260.448827 58.1528 
z
" clip-path="url(#p72586b0f79)" style="fill: #696969"/>
   </g>
   <g id="patch_107">
    <path d="M 262.467309 86.579333 
L 265.69688 86.579333 
L 265.69688 60.473333 
L 262.467309 60.473333 
z
" clip-path="url(#p72586b0f79)" style="fill: #696969"/>
   </g>
   <g id="patch_108">
    <path d="M 264.485791 86.579333 
L 267.715361 86.579333 
L 267.715361 63.954133 
L 264.485791 63.954133 
z
" clip-path="url(#p72586b0f79)" style="fill: #696969"/>
   </g>
   <g id="patch_109">
    <path d="M 266.504272 86.579333 
L 269.733843 86.579333 
L 269.733843 67.434933 
L 266.504272 67.434933 
z
" clip-path="url(#p72586b0f79)" style="fill: #696969"/>
   </g>
   <g id="patch_110">
    <path d="M 268.522754 86.579333 
L 271.752325 86.579333 
L 271.752325 70.915733 
L 268.522754 70.915733 
z
" clip-path="url(#p72586b0f79)" style="fill: #696969"/>
   </g>
   <g id="patch_111">
    <path d="M 270.541236 86.579333 
L 273.770806 86.579333 
L 273.770806 73.8164 
L 270.541236 73.8164 
z
" clip-path="url(#p72586b0f79)" style="fill: #696969"/>
   </g>
   <g id="patch_112">
    <path d="M 272.559717 86.579333 
L 275.789288 86.579333 
L 275.789288 76.717067 
L 272.559717 76.717067 
z
" clip-path="url(#p72586b0f79)" style="fill: #696969"/>
   </g>
   <g id="patch_113">
    <path d="M 274.578199 86.579333 
L 277.80777 86.579333 
L 277.80777 79.0376 
L 274.578199 79.0376 
z
" clip-path="url(#p72586b0f79)" style="fill: #696969"/>
   </g>
   <g id="patch_114">
    <path d="M 276.596681 86.579333 
L 279.826251 86.579333 
L 279.826251 81.358133 
L 276.596681 81.358133 
z
" clip-path="url(#p72586b0f79)" style="fill: #696969"/>
   </g>
   <g id="patch_115">
    <path d="M 278.615162 86.579333 
L 281.844733 86.579333 
L 281.844733 83.098533 
L 278.615162 83.098533 
z
" clip-path="url(#p72586b0f79)" style="fill: #696969"/>
   </g>
   <g id="patch_116">
    <path d="M 280.633644 86.579333 
L 283.863215 86.579333 
L 283.863215 84.838933 
L 280.633644 84.838933 
z
" clip-path="url(#p72586b0f79)" style="fill: #696969"/>
   </g>
   <g id="patch_117">
    <path d="M 282.652126 86.579333 
L 285.881696 86.579333 
L 285.881696 85.419067 
L 282.652126 85.419067 
z
" clip-path="url(#p72586b0f79)" style="fill: #696969"/>
   </g>
   <g id="patch_118">
    <path d="M 284.670607 86.579333 
L 287.900178 86.579333 
L 287.900178 86.579333 
L 284.670607 86.579333 
z
" clip-path="url(#p72586b0f79)" style="fill: #696969"/>
   </g>
   <g id="patch_119">
    <path d="M 286.689089 86.579333 
L 289.91866 86.579333 
L 289.91866 86.579333 
L 286.689089 86.579333 
z
" clip-path="url(#p72586b0f79)" style="fill: #696969"/>
   </g>
   <g id="patch_120">
    <path d="M 288.707571 86.579333 
L 291.937141 86.579333 
L 291.937141 86.579333 
L 288.707571 86.579333 
z
" clip-path="url(#p72586b0f79)" style="fill: #696969"/>
   </g>
   <g id="patch_121">
    <path d="M 290.726052 86.579333 
L 293.955623 86.579333 
L 293.955623 85.9992 
L 290.726052 85.9992 
z
" clip-path="url(#p72586b0f79)" style="fill: #696969"/>
   </g>
   <g id="patch_122">
    <path d="M 292.744534 86.579333 
L 295.974105 86.579333 
L 295.974105 84.838933 
L 292.744534 84.838933 
z
" clip-path="url(#p72586b0f79)" style="fill: #696969"/>
   </g>
   <g id="patch_123">
    <path d="M 294.763016 86.579333 
L 297.992586 86.579333 
L 297.992586 83.098533 
L 294.763016 83.098533 
z
" clip-path="url(#p72586b0f79)" style="fill: #696969"/>
   </g>
   <g id="patch_124">
    <path d="M 296.781497 86.579333 
L 300.011068 86.579333 
L 300.011068 81.358133 
L 296.781497 81.358133 
z
" clip-path="url(#p72586b0f79)" style="fill: #696969"/>
   </g>
   <g id="patch_125">
    <path d="M 298.799979 86.579333 
L 302.02955 86.579333 
L 302.02955 79.0376 
L 298.799979 79.0376 
z
" clip-path="url(#p72586b0f79)" style="fill: #696969"/>
   </g>
   <g id="patch_126">
    <path d="M 300.818461 86.579333 
L 304.048031 86.579333 
L 304.048031 76.717067 
L 300.818461 76.717067 
z
" clip-path="url(#p72586b0f79)" style="fill: #696969"/>
   </g>
   <g id="patch_127">
    <path d="M 302.836942 86.579333 
L 306.066513 86.579333 
L 306.066513 73.8164 
L 302.836942 73.8164 
z
" clip-path="url(#p72586b0f79)" style="fill: #696969"/>
   </g>
   <g id="patch_128">
    <path d="M 304.855424 86.579333 
L 308.084995 86.579333 
L 308.084995 70.915733 
L 304.855424 70.915733 
z
" clip-path="url(#p72586b0f79)" style="fill: #696969"/>
   </g>
   <g id="patch_129">
    <path d="M 306.873906 86.579333 
L 310.103476 86.579333 
L 310.103476 68.015067 
L 306.873906 68.015067 
z
" clip-path="url(#p72586b0f79)" style="fill: #696969"/>
   </g>
   <g id="patch_130">
    <path d="M 308.892387 86.579333 
L 312.121958 86.579333 
L 312.121958 64.534267 
L 308.892387 64.534267 
z
" clip-path="url(#p72586b0f79)" style="fill: #696969"/>
   </g>
   <g id="patch_131">
    <path d="M 310.910869 86.579333 
L 314.14044 86.579333 
L 314.14044 61.053467 
L 310.910869 61.053467 
z
" clip-path="url(#p72586b0f79)" style="fill: #696969"/>
   </g>
   <g id="patch_132">
    <path d="M 312.929351 86.579333 
L 316.158921 86.579333 
L 316.158921 57.572667 
L 312.929351 57.572667 
z
" clip-path="url(#p72586b0f79)" style="fill: #696969"/>
   </g>
   <g id="patch_133">
    <path d="M 314.947832 86.579333 
L 318.177403 86.579333 
L 318.177403 61.053467 
L 314.947832 61.053467 
z
" clip-path="url(#p72586b0f79)" style="fill: #696969"/>
   </g>
   <g id="patch_134">
    <path d="M 316.966314 86.579333 
L 320.195885 86.579333 
L 320.195885 64.534267 
L 316.966314 64.534267 
z
" clip-path="url(#p72586b0f79)" style="fill: #696969"/>
   </g>
   <g id="patch_135">
    <path d="M 318.984796 86.579333 
L 322.214366 86.579333 
L 322.214366 68.015067 
L 318.984796 68.015067 
z
" clip-path="url(#p72586b0f79)" style="fill: #696969"/>
   </g>
   <g id="patch_136">
    <path d="M 321.003277 86.579333 
L 324.232848 86.579333 
L 324.232848 71.495867 
L 321.003277 71.495867 
z
" clip-path="url(#p72586b0f79)" style="fill: #696969"/>
   </g>
   <g id="patch_137">
    <path d="M 323.021759 86.579333 
L 326.25133 86.579333 
L 326.25133 74.396533 
L 323.021759 74.396533 
z
" clip-path="url(#p72586b0f79)" style="fill: #696969"/>
   </g>
   <g id="patch_138">
    <path d="M 325.040241 86.579333 
L 328.269812 86.579333 
L 328.269812 77.2972 
L 325.040241 77.2972 
z
" clip-path="url(#p72586b0f79)" style="fill: #696969"/>
   </g>
   <g id="patch_139">
    <path d="M 327.058723 86.579333 
L 330.288293 86.579333 
L 330.288293 79.617733 
L 327.058723 79.617733 
z
" clip-path="url(#p72586b0f79)" style="fill: #696969"/>
   </g>
   <g id="patch_140">
    <path d="M 329.077204 86.579333 
L 332.306775 86.579333 
L 332.306775 81.938267 
L 329.077204 81.938267 
z
" clip-path="url(#p72586b0f79)" style="fill: #696969"/>
   </g>
   <g id="patch_141">
    <path d="M 331.095686 86.579333 
L 334.325257 86.579333 
L 334.325257 83.678667 
L 331.095686 83.678667 
z
" clip-path="url(#p72586b0f79)" style="fill: #696969"/>
   </g>
   <g id="patch_142">
    <path d="M 333.114168 86.579333 
L 336.343738 86.579333 
L 336.343738 84.838933 
L 333.114168 84.838933 
z
" clip-path="url(#p72586b0f79)" style="fill: #696969"/>
   </g>
   <g id="patch_143">
    <path d="M 335.132649 86.579333 
L 338.36222 86.579333 
L 338.36222 85.9992 
L 335.132649 85.9992 
z
" clip-path="url(#p72586b0f79)" style="fill: #696969"/>
   </g>
   <g id="patch_144">
    <path d="M 337.151131 86.579333 
L 340.380702 86.579333 
L 340.380702 86.579333 
L 337.151131 86.579333 
z
" clip-path="url(#p72586b0f79)" style="fill: #696969"/>
   </g>
   <g id="patch_145">
    <path d="M 339.169613 86.579333 
L 342.399183 86.579333 
L 342.399183 86.579333 
L 339.169613 86.579333 
z
" clip-path="url(#p72586b0f79)" style="fill: #696969"/>
   </g>
   <g id="patch_146">
    <path d="M 341.188094 86.579333 
L 344.417665 86.579333 
L 344.417665 86.579333 
L 341.188094 86.579333 
z
" clip-path="url(#p72586b0f79)" style="fill: #696969"/>
   </g>
   <g id="patch_147">
    <path d="M 343.206576 86.579333 
L 346.436147 86.579333 
L 346.436147 85.419067 
L 343.206576 85.419067 
z
" clip-path="url(#p72586b0f79)" style="fill: #696969"/>
   </g>
   <g id="patch_148">
    <path d="M 345.225058 86.579333 
L 348.454628 86.579333 
L 348.454628 84.2588 
L 345.225058 84.2588 
z
" clip-path="url(#p72586b0f79)" style="fill: #696969"/>
   </g>
   <g id="patch_149">
    <path d="M 347.243539 86.579333 
L 350.47311 86.579333 
L 350.47311 83.098533 
L 347.243539 83.098533 
z
" clip-path="url(#p72586b0f79)" style="fill: #696969"/>
   </g>
   <g id="patch_150">
    <path d="M 349.262021 86.579333 
L 352.491592 86.579333 
L 352.491592 80.778 
L 349.262021 80.778 
z
" clip-path="url(#p72586b0f79)" style="fill: #696969"/>
   </g>
   <g id="patch_151">
    <path d="M 351.280503 86.579333 
L 354.510073 86.579333 
L 354.510073 79.0376 
L 351.280503 79.0376 
z
" clip-path="url(#p72586b0f79)" style="fill: #696969"/>
   </g>
   <g id="patch_152">
    <path d="M 353.298984 86.579333 
L 356.528555 86.579333 
L 356.528555 76.136933 
L 353.298984 76.136933 
z
" clip-path="url(#p72586b0f79)" style="fill: #696969"/>
   </g>
   <g id="patch_153">
    <path d="M 355.317466 86.579333 
L 358.547037 86.579333 
L 358.547037 73.236267 
L 355.317466 73.236267 
z
" clip-path="url(#p72586b0f79)" style="fill: #696969"/>
   </g>
   <g id="patch_154">
    <path d="M 357.335948 86.579333 
L 360.565518 86.579333 
L 360.565518 70.3356 
L 357.335948 70.3356 
z
" clip-path="url(#p72586b0f79)" style="fill: #696969"/>
   </g>
   <g id="patch_155">
    <path d="M 359.354429 86.579333 
L 362.584 86.579333 
L 362.584 66.8548 
L 359.354429 66.8548 
z
" clip-path="url(#p72586b0f79)" style="fill: #696969"/>
   </g>
   <g id="patch_156">
    <path d="M 361.372911 86.579333 
L 364.602482 86.579333 
L 364.602482 63.954133 
L 361.372911 63.954133 
z
" clip-path="url(#p72586b0f79)" style="fill: #696969"/>
   </g>
   <g id="patch_157">
    <path d="M 363.391393 86.579333 
L 366.620963 86.579333 
L 366.620963 60.473333 
L 363.391393 60.473333 
z
" clip-path="url(#p72586b0f79)" style="fill: #696969"/>
   </g>
   <g id="patch_158">
    <path d="M 365.409874 86.579333 
L 368.639445 86.579333 
L 368.639445 58.732933 
L 365.409874 58.732933 
z
" clip-path="url(#p72586b0f79)" style="fill: #696969"/>
   </g>
   <g id="patch_159">
    <path d="M 367.428356 86.579333 
L 370.657927 86.579333 
L 370.657927 62.213733 
L 367.428356 62.213733 
z
" clip-path="url(#p72586b0f79)" style="fill: #696969"/>
   </g>
   <g id="patch_160">
    <path d="M 369.446838 86.579333 
L 372.676408 86.579333 
L 372.676408 65.694533 
L 369.446838 65.694533 
z
" clip-path="url(#p72586b0f79)" style="fill: #696969"/>
   </g>
   <g id="patch_161">
    <path d="M 371.465319 86.579333 
L 374.69489 86.579333 
L 374.69489 68.5952 
L 371.465319 68.5952 
z
" clip-path="url(#p72586b0f79)" style="fill: #696969"/>
   </g>
   <g id="patch_162">
    <path d="M 373.483801 86.579333 
L 376.713372 86.579333 
L 376.713372 72.076 
L 373.483801 72.076 
z
" clip-path="url(#p72586b0f79)" style="fill: #696969"/>
   </g>
   <g id="patch_163">
    <path d="M 375.502283 86.579333 
L 378.731853 86.579333 
L 378.731853 74.976667 
L 375.502283 74.976667 
z
" clip-path="url(#p72586b0f79)" style="fill: #696969"/>
   </g>
   <g id="patch_164">
    <path d="M 377.520764 86.579333 
L 380.750335 86.579333 
L 380.750335 77.877333 
L 377.520764 77.877333 
z
" clip-path="url(#p72586b0f79)" style="fill: #696969"/>
   </g>
   <g id="patch_165">
    <path d="M 379.539246 86.579333 
L 382.768817 86.579333 
L 382.768817 80.197867 
L 379.539246 80.197867 
z
" clip-path="url(#p72586b0f79)" style="fill: #696969"/>
   </g>
   <g id="patch_166">
    <path d="M 381.557728 86.579333 
L 384.787298 86.579333 
L 384.787298 81.938267 
L 381.557728 81.938267 
z
" clip-path="url(#p72586b0f79)" style="fill: #696969"/>
   </g>
   <g id="patch_167">
    <path d="M 383.576209 86.579333 
L 386.80578 86.579333 
L 386.80578 83.678667 
L 383.576209 83.678667 
z
" clip-path="url(#p72586b0f79)" style="fill: #696969"/>
   </g>
   <g id="patch_168">
    <path d="M 385.594691 86.579333 
L 388.824262 86.579333 
L 388.824262 84.838933 
L 385.594691 84.838933 
z
" clip-path="url(#p72586b0f79)" style="fill: #696969"/>
   </g>
   <g id="patch_169">
    <path d="M 387.613173 86.579333 
L 390.842743 86.579333 
L 390.842743 85.9992 
L 387.613173 85.9992 
z
" clip-path="url(#p72586b0f79)" style="fill: #696969"/>
   </g>
   <g id="patch_170">
    <path d="M 389.631654 86.579333 
L 392.861225 86.579333 
L 392.861225 86.579333 
L 389.631654 86.579333 
z
" clip-path="url(#p72586b0f79)" style="fill: #696969"/>
   </g>
   <g id="patch_171">
    <path d="M 391.650136 86.579333 
L 394.879707 86.579333 
L 394.879707 86.579333 
L 391.650136 86.579333 
z
" clip-path="url(#p72586b0f79)" style="fill: #696969"/>
   </g>
   <g id="patch_172">
    <path d="M 393.668618 86.579333 
L 396.898188 86.579333 
L 396.898188 85.9992 
L 393.668618 85.9992 
z
" clip-path="url(#p72586b0f79)" style="fill: #696969"/>
   </g>
   <g id="patch_173">
    <path d="M 395.687099 86.579333 
L 398.91667 86.579333 
L 398.91667 85.419067 
L 395.687099 85.419067 
z
" clip-path="url(#p72586b0f79)" style="fill: #696969"/>
   </g>
   <g id="patch_174">
    <path d="M 397.705581 86.579333 
L 400.935152 86.579333 
L 400.935152 84.2588 
L 397.705581 84.2588 
z
" clip-path="url(#p72586b0f79)" style="fill: #696969"/>
   </g>
   <g id="patch_175">
    <path d="M 399.724063 86.579333 
L 402.953634 86.579333 
L 402.953634 82.5184 
L 399.724063 82.5184 
z
" clip-path="url(#p72586b0f79)" style="fill: #696969"/>
   </g>
   <g id="patch_176">
    <path d="M 401.742545 86.579333 
L 404.972115 86.579333 
L 404.972115 80.778 
L 401.742545 80.778 
z
" clip-path="url(#p72586b0f79)" style="fill: #696969"/>
   </g>
   <g id="patch_177">
    <path d="M 403.761026 86.579333 
L 406.990597 86.579333 
L 406.990597 78.457467 
L 403.761026 78.457467 
z
" clip-path="url(#p72586b0f79)" style="fill: #696969"/>
   </g>
   <g id="patch_178">
    <path d="M 405.779508 86.579333 
L 409.009079 86.579333 
L 409.009079 75.5568 
L 405.779508 75.5568 
z
" clip-path="url(#p72586b0f79)" style="fill: #696969"/>
   </g>
   <g id="patch_179">
    <path d="M 407.79799 86.579333 
L 411.02756 86.579333 
L 411.02756 72.656133 
L 407.79799 72.656133 
z
" clip-path="url(#p72586b0f79)" style="fill: #696969"/>
   </g>
   <g id="patch_180">
    <path d="M 409.816471 86.579333 
L 413.046042 86.579333 
L 413.046042 69.755467 
L 409.816471 69.755467 
z
" clip-path="url(#p72586b0f79)" style="fill: #696969"/>
   </g>
   <g id="patch_181">
    <path d="M 411.834953 86.579333 
L 415.064524 86.579333 
L 415.064524 66.274667 
L 411.834953 66.274667 
z
" clip-path="url(#p72586b0f79)" style="fill: #696969"/>
   </g>
   <g id="patch_182">
    <path d="M 413.853435 86.579333 
L 417.083005 86.579333 
L 417.083005 62.793867 
L 413.853435 62.793867 
z
" clip-path="url(#p72586b0f79)" style="fill: #696969"/>
   </g>
   <g id="patch_183">
    <path d="M 415.871916 86.579333 
L 419.101487 86.579333 
L 419.101487 59.313067 
L 415.871916 59.313067 
z
" clip-path="url(#p72586b0f79)" style="fill: #696969"/>
   </g>
   <g id="patch_184">
    <path d="M 417.890398 86.579333 
L 421.119969 86.579333 
L 421.119969 59.313067 
L 417.890398 59.313067 
z
" clip-path="url(#p72586b0f79)" style="fill: #696969"/>
   </g>
   <g id="patch_185">
    <path d="M 419.90888 86.579333 
L 423.13845 86.579333 
L 423.13845 62.793867 
L 419.90888 62.793867 
z
" clip-path="url(#p72586b0f79)" style="fill: #696969"/>
   </g>
   <g id="patch_186">
    <path d="M 421.927361 86.579333 
L 425.156932 86.579333 
L 425.156932 66.274667 
L 421.927361 66.274667 
z
" clip-path="url(#p72586b0f79)" style="fill: #696969"/>
   </g>
   <g id="patch_187">
    <path d="M 423.945843 86.579333 
L 427.175414 86.579333 
L 427.175414 69.755467 
L 423.945843 69.755467 
z
" clip-path="url(#p72586b0f79)" style="fill: #696969"/>
   </g>
   <g id="patch_188">
    <path d="M 425.964325 86.579333 
L 429.193895 86.579333 
L 429.193895 72.656133 
L 425.964325 72.656133 
z
" clip-path="url(#p72586b0f79)" style="fill: #696969"/>
   </g>
   <g id="patch_189">
    <path d="M 427.982806 86.579333 
L 431.212377 86.579333 
L 431.212377 75.5568 
L 427.982806 75.5568 
z
" clip-path="url(#p72586b0f79)" style="fill: #696969"/>
   </g>
   <g id="patch_190">
    <path d="M 430.001288 86.579333 
L 433.230859 86.579333 
L 433.230859 77.877333 
L 430.001288 77.877333 
z
" clip-path="url(#p72586b0f79)" style="fill: #696969"/>
   </g>
   <g id="patch_191">
    <path d="M 432.01977 86.579333 
L 435.24934 86.579333 
L 435.24934 80.197867 
L 432.01977 80.197867 
z
" clip-path="url(#p72586b0f79)" style="fill: #696969"/>
   </g>
   <g id="patch_192">
    <path d="M 434.038251 86.579333 
L 437.267822 86.579333 
L 437.267822 82.5184 
L 434.038251 82.5184 
z
" clip-path="url(#p72586b0f79)" style="fill: #696969"/>
   </g>
   <g id="patch_193">
    <path d="M 436.056733 86.579333 
L 439.286304 86.579333 
L 439.286304 84.2588 
L 436.056733 84.2588 
z
" clip-path="url(#p72586b0f79)" style="fill: #696969"/>
   </g>
   <g id="patch_194">
    <path d="M 438.075215 86.579333 
L 441.304785 86.579333 
L 441.304785 85.419067 
L 438.075215 85.419067 
z
" clip-path="url(#p72586b0f79)" style="fill: #696969"/>
   </g>
   <g id="matplotlib.axis_1">
    <g id="xtick_1">
     <g id="line2d_1">
      <defs>
       <path id="m198b9a9451" d="M 0 0 
L 0 3.5 
" style="stroke: #000000; stroke-width: 0.8"/>
      </defs>
      <g>
       <use xlink:href="#m198b9a9451" x="54.16" y="89.48" style="stroke: #000000; stroke-width: 0.8"/>
      </g>
     </g>
     <g id="text_1">
      <!-- 0 -->
      <g transform="translate(50.97875 104.078438) scale(0.1 -0.1)">
       <defs>
        <path id="DejaVuSans-30" d="M 2034 4250 
Q 1547 4250 1301 3770 
Q 1056 3291 1056 2328 
Q 1056 1369 1301 889 
Q 1547 409 2034 409 
Q 2525 409 2770 889 
Q 3016 1369 3016 2328 
Q 3016 3291 2770 3770 
Q 2525 4250 2034 4250 
z
M 2034 4750 
Q 2819 4750 3233 4129 
Q 3647 3509 3647 2328 
Q 3647 1150 3233 529 
Q 2819 -91 2034 -91 
Q 1250 -91 836 529 
Q 422 1150 422 2328 
Q 422 3509 836 4129 
Q 1250 4750 2034 4750 
z
" transform="scale(0.015625)"/>
       </defs>
       <use xlink:href="#DejaVuSans-30"/>
      </g>
     </g>
    </g>
    <g id="xtick_2">
     <g id="line2d_2">
      <g>
       <use xlink:href="#m198b9a9451" x="134.899267" y="89.48" style="stroke: #000000; stroke-width: 0.8"/>
      </g>
     </g>
     <g id="text_2">
      <!-- 20 -->
      <g transform="translate(128.536767 104.078438) scale(0.1 -0.1)">
       <defs>
        <path id="DejaVuSans-32" d="M 1228 531 
L 3431 531 
L 3431 0 
L 469 0 
L 469 531 
Q 828 903 1448 1529 
Q 2069 2156 2228 2338 
Q 2531 2678 2651 2914 
Q 2772 3150 2772 3378 
Q 2772 3750 2511 3984 
Q 2250 4219 1831 4219 
Q 1534 4219 1204 4116 
Q 875 4013 500 3803 
L 500 4441 
Q 881 4594 1212 4672 
Q 1544 4750 1819 4750 
Q 2544 4750 2975 4387 
Q 3406 4025 3406 3419 
Q 3406 3131 3298 2873 
Q 3191 2616 2906 2266 
Q 2828 2175 2409 1742 
Q 1991 1309 1228 531 
z
" transform="scale(0.015625)"/>
       </defs>
       <use xlink:href="#DejaVuSans-32"/>
       <use xlink:href="#DejaVuSans-30" x="63.623047"/>
      </g>
     </g>
    </g>
    <g id="xtick_3">
     <g id="line2d_3">
      <g>
       <use xlink:href="#m198b9a9451" x="215.638534" y="89.48" style="stroke: #000000; stroke-width: 0.8"/>
      </g>
     </g>
     <g id="text_3">
      <!-- 40 -->
      <g transform="translate(209.276034 104.078438) scale(0.1 -0.1)">
       <defs>
        <path id="DejaVuSans-34" d="M 2419 4116 
L 825 1625 
L 2419 1625 
L 2419 4116 
z
M 2253 4666 
L 3047 4666 
L 3047 1625 
L 3713 1625 
L 3713 1100 
L 3047 1100 
L 3047 0 
L 2419 0 
L 2419 1100 
L 313 1100 
L 313 1709 
L 2253 4666 
z
" transform="scale(0.015625)"/>
       </defs>
       <use xlink:href="#DejaVuSans-34"/>
       <use xlink:href="#DejaVuSans-30" x="63.623047"/>
      </g>
     </g>
    </g>
    <g id="xtick_4">
     <g id="line2d_4">
      <g>
       <use xlink:href="#m198b9a9451" x="296.377801" y="89.48" style="stroke: #000000; stroke-width: 0.8"/>
      </g>
     </g>
     <g id="text_4">
      <!-- 60 -->
      <g transform="translate(290.015301 104.078438) scale(0.1 -0.1)">
       <defs>
        <path id="DejaVuSans-36" d="M 2113 2584 
Q 1688 2584 1439 2293 
Q 1191 2003 1191 1497 
Q 1191 994 1439 701 
Q 1688 409 2113 409 
Q 2538 409 2786 701 
Q 3034 994 3034 1497 
Q 3034 2003 2786 2293 
Q 2538 2584 2113 2584 
z
M 3366 4563 
L 3366 3988 
Q 3128 4100 2886 4159 
Q 2644 4219 2406 4219 
Q 1781 4219 1451 3797 
Q 1122 3375 1075 2522 
Q 1259 2794 1537 2939 
Q 1816 3084 2150 3084 
Q 2853 3084 3261 2657 
Q 3669 2231 3669 1497 
Q 3669 778 3244 343 
Q 2819 -91 2113 -91 
Q 1303 -91 875 529 
Q 447 1150 447 2328 
Q 447 3434 972 4092 
Q 1497 4750 2381 4750 
Q 2619 4750 2861 4703 
Q 3103 4656 3366 4563 
z
" transform="scale(0.015625)"/>
       </defs>
       <use xlink:href="#DejaVuSans-36"/>
       <use xlink:href="#DejaVuSans-30" x="63.623047"/>
      </g>
     </g>
    </g>
    <g id="xtick_5">
     <g id="line2d_5">
      <g>
       <use xlink:href="#m198b9a9451" x="377.117068" y="89.48" style="stroke: #000000; stroke-width: 0.8"/>
      </g>
     </g>
     <g id="text_5">
      <!-- 80 -->
      <g transform="translate(370.754568 104.078438) scale(0.1 -0.1)">
       <defs>
        <path id="DejaVuSans-38" d="M 2034 2216 
Q 1584 2216 1326 1975 
Q 1069 1734 1069 1313 
Q 1069 891 1326 650 
Q 1584 409 2034 409 
Q 2484 409 2743 651 
Q 3003 894 3003 1313 
Q 3003 1734 2745 1975 
Q 2488 2216 2034 2216 
z
M 1403 2484 
Q 997 2584 770 2862 
Q 544 3141 544 3541 
Q 544 4100 942 4425 
Q 1341 4750 2034 4750 
Q 2731 4750 3128 4425 
Q 3525 4100 3525 3541 
Q 3525 3141 3298 2862 
Q 3072 2584 2669 2484 
Q 3125 2378 3379 2068 
Q 3634 1759 3634 1313 
Q 3634 634 3220 271 
Q 2806 -91 2034 -91 
Q 1263 -91 848 271 
Q 434 634 434 1313 
Q 434 1759 690 2068 
Q 947 2378 1403 2484 
z
M 1172 3481 
Q 1172 3119 1398 2916 
Q 1625 2713 2034 2713 
Q 2441 2713 2670 2916 
Q 2900 3119 2900 3481 
Q 2900 3844 2670 4047 
Q 2441 4250 2034 4250 
Q 1625 4250 1398 4047 
Q 1172 3844 1172 3481 
z
" transform="scale(0.015625)"/>
       </defs>
       <use xlink:href="#DejaVuSans-38"/>
       <use xlink:href="#DejaVuSans-30" x="63.623047"/>
      </g>
     </g>
    </g>
   </g>
   <g id="matplotlib.axis_2">
    <g id="ytick_1">
     <g id="line2d_6">
      <defs>
       <path id="m19895ee4b7" d="M 0 0 
L -3.5 0 
" style="stroke: #000000; stroke-width: 0.8"/>
      </defs>
      <g>
       <use xlink:href="#m19895ee4b7" x="54.16" y="86.579333" style="stroke: #000000; stroke-width: 0.8"/>
      </g>
     </g>
     <g id="text_6">
      <!-- 0 -->
      <g transform="translate(40.7975 90.378552) scale(0.1 -0.1)">
       <use xlink:href="#DejaVuSans-30"/>
      </g>
     </g>
    </g>
    <g id="ytick_2">
     <g id="line2d_7">
      <g>
       <use xlink:href="#m19895ee4b7" x="54.16" y="57.572667" style="stroke: #000000; stroke-width: 0.8"/>
      </g>
     </g>
     <g id="text_7">
      <!-- 50 -->
      <g transform="translate(34.435 61.371885) scale(0.1 -0.1)">
       <defs>
        <path id="DejaVuSans-35" d="M 691 4666 
L 3169 4666 
L 3169 4134 
L 1269 4134 
L 1269 2991 
Q 1406 3038 1543 3061 
Q 1681 3084 1819 3084 
Q 2600 3084 3056 2656 
Q 3513 2228 3513 1497 
Q 3513 744 3044 326 
Q 2575 -91 1722 -91 
Q 1428 -91 1123 -41 
Q 819 9 494 109 
L 494 744 
Q 775 591 1075 516 
Q 1375 441 1709 441 
Q 2250 441 2565 725 
Q 2881 1009 2881 1497 
Q 2881 1984 2565 2268 
Q 2250 2553 1709 2553 
Q 1456 2553 1204 2497 
Q 953 2441 691 2322 
L 691 4666 
z
" transform="scale(0.015625)"/>
       </defs>
       <use xlink:href="#DejaVuSans-35"/>
       <use xlink:href="#DejaVuSans-30" x="63.623047"/>
      </g>
     </g>
    </g>
   </g>
   <g id="line2d_8">
    <path d="M 54.16 75.578346 
L 74.344817 76.621713 
L 82.418743 76.787471 
L 90.49267 76.716192 
L 98.566597 76.42676 
L 128.843822 75.021847 
L 136.917749 75.024702 
L 144.991675 75.257514 
L 157.102565 75.890074 
L 171.231937 76.602014 
L 179.305864 76.783417 
L 187.379791 76.728856 
L 195.453717 76.452788 
L 209.583089 75.679619 
L 219.675497 75.193639 
L 227.749424 75.004503 
L 235.823351 75.050676 
L 243.897277 75.319925 
L 258.026649 76.089869 
L 268.119058 76.581374 
L 276.192984 76.77818 
L 284.266911 76.74041 
L 292.340838 76.478071 
L 306.470209 75.711607 
L 318.581099 75.143706 
L 326.655026 74.994953 
L 334.728953 75.084038 
L 342.80288 75.387361 
L 371.061623 76.739414 
L 379.13555 76.778701 
L 387.209476 76.583275 
L 397.301885 76.092754 
L 415.46822 75.162366 
L 423.542147 74.997734 
L 431.616073 75.070203 
L 439.69 75.360576 
L 439.69 75.360576 
" clip-path="url(#p72586b0f79)" style="fill: none; stroke: #191970; stroke-width: 3; stroke-linecap: square"/>
   </g>
   <g id="line2d_9">
    <path d="M 132.785175 89.48 
L 132.785175 54.672 
" clip-path="url(#p72586b0f79)" style="fill: none; stroke-dasharray: 7.4,3.2; stroke-dashoffset: 0; stroke: #000000; stroke-opacity: 0.8; stroke-width: 2"/>
   </g>
   <g id="patch_195">
    <path d="M 54.16 89.48 
L 54.16 54.672 
" style="fill: none; stroke: #000000; stroke-width: 0.8; stroke-linejoin: miter; stroke-linecap: square"/>
   </g>
   <g id="patch_196">
    <path d="M 54.16 89.48 
L 439.69 89.48 
" style="fill: none; stroke: #000000; stroke-width: 0.8; stroke-linejoin: miter; stroke-linecap: square"/>
   </g>
   <g id="text_8">
    <!-- 1 -->
    <g transform="translate(244.38 39.71375) scale(0.08 -0.08)">
     <defs>
      <path id="DejaVuSans-31" d="M 794 531 
L 1825 531 
L 1825 4091 
L 703 3866 
L 703 4441 
L 1819 4666 
L 2450 4666 
L 2450 531 
L 3481 531 
L 3481 0 
L 794 0 
L 794 531 
z
" transform="scale(0.015625)"/>
     </defs>
     <use xlink:href="#DejaVuSans-31"/>
    </g>
    <!-- (AC: 19.48, PR: 24.14 - NS) -->
    <g transform="translate(193.078125 48.672) scale(0.08 -0.08)">
     <defs>
      <path id="DejaVuSans-28" d="M 1984 4856 
Q 1566 4138 1362 3434 
Q 1159 2731 1159 2009 
Q 1159 1288 1364 580 
Q 1569 -128 1984 -844 
L 1484 -844 
Q 1016 -109 783 600 
Q 550 1309 550 2009 
Q 550 2706 781 3412 
Q 1013 4119 1484 4856 
L 1984 4856 
z
" transform="scale(0.015625)"/>
      <path id="DejaVuSans-41" d="M 2188 4044 
L 1331 1722 
L 3047 1722 
L 2188 4044 
z
M 1831 4666 
L 2547 4666 
L 4325 0 
L 3669 0 
L 3244 1197 
L 1141 1197 
L 716 0 
L 50 0 
L 1831 4666 
z
" transform="scale(0.015625)"/>
      <path id="DejaVuSans-43" d="M 4122 4306 
L 4122 3641 
Q 3803 3938 3442 4084 
Q 3081 4231 2675 4231 
Q 1875 4231 1450 3742 
Q 1025 3253 1025 2328 
Q 1025 1406 1450 917 
Q 1875 428 2675 428 
Q 3081 428 3442 575 
Q 3803 722 4122 1019 
L 4122 359 
Q 3791 134 3420 21 
Q 3050 -91 2638 -91 
Q 1578 -91 968 557 
Q 359 1206 359 2328 
Q 359 3453 968 4101 
Q 1578 4750 2638 4750 
Q 3056 4750 3426 4639 
Q 3797 4528 4122 4306 
z
" transform="scale(0.015625)"/>
      <path id="DejaVuSans-3a" d="M 750 794 
L 1409 794 
L 1409 0 
L 750 0 
L 750 794 
z
M 750 3309 
L 1409 3309 
L 1409 2516 
L 750 2516 
L 750 3309 
z
" transform="scale(0.015625)"/>
      <path id="DejaVuSans-20" transform="scale(0.015625)"/>
      <path id="DejaVuSans-39" d="M 703 97 
L 703 672 
Q 941 559 1184 500 
Q 1428 441 1663 441 
Q 2288 441 2617 861 
Q 2947 1281 2994 2138 
Q 2813 1869 2534 1725 
Q 2256 1581 1919 1581 
Q 1219 1581 811 2004 
Q 403 2428 403 3163 
Q 403 3881 828 4315 
Q 1253 4750 1959 4750 
Q 2769 4750 3195 4129 
Q 3622 3509 3622 2328 
Q 3622 1225 3098 567 
Q 2575 -91 1691 -91 
Q 1453 -91 1209 -44 
Q 966 3 703 97 
z
M 1959 2075 
Q 2384 2075 2632 2365 
Q 2881 2656 2881 3163 
Q 2881 3666 2632 3958 
Q 2384 4250 1959 4250 
Q 1534 4250 1286 3958 
Q 1038 3666 1038 3163 
Q 1038 2656 1286 2365 
Q 1534 2075 1959 2075 
z
" transform="scale(0.015625)"/>
      <path id="DejaVuSans-2e" d="M 684 794 
L 1344 794 
L 1344 0 
L 684 0 
L 684 794 
z
" transform="scale(0.015625)"/>
      <path id="DejaVuSans-2c" d="M 750 794 
L 1409 794 
L 1409 256 
L 897 -744 
L 494 -744 
L 750 256 
L 750 794 
z
" transform="scale(0.015625)"/>
      <path id="DejaVuSans-50" d="M 1259 4147 
L 1259 2394 
L 2053 2394 
Q 2494 2394 2734 2622 
Q 2975 2850 2975 3272 
Q 2975 3691 2734 3919 
Q 2494 4147 2053 4147 
L 1259 4147 
z
M 628 4666 
L 2053 4666 
Q 2838 4666 3239 4311 
Q 3641 3956 3641 3272 
Q 3641 2581 3239 2228 
Q 2838 1875 2053 1875 
L 1259 1875 
L 1259 0 
L 628 0 
L 628 4666 
z
" transform="scale(0.015625)"/>
      <path id="DejaVuSans-52" d="M 2841 2188 
Q 3044 2119 3236 1894 
Q 3428 1669 3622 1275 
L 4263 0 
L 3584 0 
L 2988 1197 
Q 2756 1666 2539 1819 
Q 2322 1972 1947 1972 
L 1259 1972 
L 1259 0 
L 628 0 
L 628 4666 
L 2053 4666 
Q 2853 4666 3247 4331 
Q 3641 3997 3641 3322 
Q 3641 2881 3436 2590 
Q 3231 2300 2841 2188 
z
M 1259 4147 
L 1259 2491 
L 2053 2491 
Q 2509 2491 2742 2702 
Q 2975 2913 2975 3322 
Q 2975 3731 2742 3939 
Q 2509 4147 2053 4147 
L 1259 4147 
z
" transform="scale(0.015625)"/>
      <path id="DejaVuSans-2d" d="M 313 2009 
L 1997 2009 
L 1997 1497 
L 313 1497 
L 313 2009 
z
" transform="scale(0.015625)"/>
      <path id="DejaVuSans-4e" d="M 628 4666 
L 1478 4666 
L 3547 763 
L 3547 4666 
L 4159 4666 
L 4159 0 
L 3309 0 
L 1241 3903 
L 1241 0 
L 628 0 
L 628 4666 
z
" transform="scale(0.015625)"/>
      <path id="DejaVuSans-53" d="M 3425 4513 
L 3425 3897 
Q 3066 4069 2747 4153 
Q 2428 4238 2131 4238 
Q 1616 4238 1336 4038 
Q 1056 3838 1056 3469 
Q 1056 3159 1242 3001 
Q 1428 2844 1947 2747 
L 2328 2669 
Q 3034 2534 3370 2195 
Q 3706 1856 3706 1288 
Q 3706 609 3251 259 
Q 2797 -91 1919 -91 
Q 1588 -91 1214 -16 
Q 841 59 441 206 
L 441 856 
Q 825 641 1194 531 
Q 1563 422 1919 422 
Q 2459 422 2753 634 
Q 3047 847 3047 1241 
Q 3047 1584 2836 1778 
Q 2625 1972 2144 2069 
L 1759 2144 
Q 1053 2284 737 2584 
Q 422 2884 422 3419 
Q 422 4038 858 4394 
Q 1294 4750 2059 4750 
Q 2388 4750 2728 4690 
Q 3069 4631 3425 4513 
z
" transform="scale(0.015625)"/>
      <path id="DejaVuSans-29" d="M 513 4856 
L 1013 4856 
Q 1481 4119 1714 3412 
Q 1947 2706 1947 2009 
Q 1947 1309 1714 600 
Q 1481 -109 1013 -844 
L 513 -844 
Q 928 -128 1133 580 
Q 1338 1288 1338 2009 
Q 1338 2731 1133 3434 
Q 928 4138 513 4856 
z
" transform="scale(0.015625)"/>
     </defs>
     <use xlink:href="#DejaVuSans-28"/>
     <use xlink:href="#DejaVuSans-41" x="39.013672"/>
     <use xlink:href="#DejaVuSans-43" x="105.671875"/>
     <use xlink:href="#DejaVuSans-3a" x="175.496094"/>
     <use xlink:href="#DejaVuSans-20" x="209.1875"/>
     <use xlink:href="#DejaVuSans-31" x="240.974609"/>
     <use xlink:href="#DejaVuSans-39" x="304.597656"/>
     <use xlink:href="#DejaVuSans-2e" x="368.220703"/>
     <use xlink:href="#DejaVuSans-34" x="400.007812"/>
     <use xlink:href="#DejaVuSans-38" x="463.630859"/>
     <use xlink:href="#DejaVuSans-2c" x="527.253906"/>
     <use xlink:href="#DejaVuSans-20" x="559.041016"/>
     <use xlink:href="#DejaVuSans-50" x="590.828125"/>
     <use xlink:href="#DejaVuSans-52" x="651.130859"/>
     <use xlink:href="#DejaVuSans-3a" x="717.488281"/>
     <use xlink:href="#DejaVuSans-20" x="751.179688"/>
     <use xlink:href="#DejaVuSans-32" x="782.966797"/>
     <use xlink:href="#DejaVuSans-34" x="846.589844"/>
     <use xlink:href="#DejaVuSans-2e" x="910.212891"/>
     <use xlink:href="#DejaVuSans-31" x="942"/>
     <use xlink:href="#DejaVuSans-34" x="1005.623047"/>
     <use xlink:href="#DejaVuSans-20" x="1069.246094"/>
     <use xlink:href="#DejaVuSans-2d" x="1101.033203"/>
     <use xlink:href="#DejaVuSans-20" x="1137.117188"/>
     <use xlink:href="#DejaVuSans-4e" x="1168.904297"/>
     <use xlink:href="#DejaVuSans-53" x="1243.708984"/>
     <use xlink:href="#DejaVuSans-29" x="1307.185547"/>
    </g>
   </g>
  </g>
  <g id="axes_2">
   <g id="patch_197">
    <path d="M 453.99 89.48 
L 839.52 89.48 
L 839.52 54.672 
L 453.99 54.672 
z
" style="fill: #ffffff"/>
   </g>
   <g id="patch_198">
    <path d="M 451.833189 86.579333 
L 456.146811 86.579333 
L 456.146811 85.419067 
L 451.833189 85.419067 
z
" clip-path="url(#p9a8beae982)" style="fill: #696969"/>
   </g>
   <g id="patch_199">
    <path d="M 454.529203 86.579333 
L 458.842825 86.579333 
L 458.842825 85.9992 
L 454.529203 85.9992 
z
" clip-path="url(#p9a8beae982)" style="fill: #696969"/>
   </g>
   <g id="patch_200">
    <path d="M 457.225217 86.579333 
L 461.538839 86.579333 
L 461.538839 86.579333 
L 457.225217 86.579333 
z
" clip-path="url(#p9a8beae982)" style="fill: #696969"/>
   </g>
   <g id="patch_201">
    <path d="M 459.921231 86.579333 
L 464.234853 86.579333 
L 464.234853 86.579333 
L 459.921231 86.579333 
z
" clip-path="url(#p9a8beae982)" style="fill: #696969"/>
   </g>
   <g id="patch_202">
    <path d="M 462.617245 86.579333 
L 466.930867 86.579333 
L 466.930867 85.9992 
L 462.617245 85.9992 
z
" clip-path="url(#p9a8beae982)" style="fill: #696969"/>
   </g>
   <g id="patch_203">
    <path d="M 465.313259 86.579333 
L 469.626881 86.579333 
L 469.626881 84.838933 
L 465.313259 84.838933 
z
" clip-path="url(#p9a8beae982)" style="fill: #696969"/>
   </g>
   <g id="patch_204">
    <path d="M 468.009273 86.579333 
L 472.322895 86.579333 
L 472.322895 83.098533 
L 468.009273 83.098533 
z
" clip-path="url(#p9a8beae982)" style="fill: #696969"/>
   </g>
   <g id="patch_205">
    <path d="M 470.705287 86.579333 
L 475.018909 86.579333 
L 475.018909 80.778 
L 470.705287 80.778 
z
" clip-path="url(#p9a8beae982)" style="fill: #696969"/>
   </g>
   <g id="patch_206">
    <path d="M 473.401301 86.579333 
L 477.714923 86.579333 
L 477.714923 78.457467 
L 473.401301 78.457467 
z
" clip-path="url(#p9a8beae982)" style="fill: #696969"/>
   </g>
   <g id="patch_207">
    <path d="M 476.097315 86.579333 
L 480.410937 86.579333 
L 480.410937 75.5568 
L 476.097315 75.5568 
z
" clip-path="url(#p9a8beae982)" style="fill: #696969"/>
   </g>
   <g id="patch_208">
    <path d="M 478.793329 86.579333 
L 483.106951 86.579333 
L 483.106951 72.076 
L 478.793329 72.076 
z
" clip-path="url(#p9a8beae982)" style="fill: #696969"/>
   </g>
   <g id="patch_209">
    <path d="M 481.489343 86.579333 
L 485.802965 86.579333 
L 485.802965 68.5952 
L 481.489343 68.5952 
z
" clip-path="url(#p9a8beae982)" style="fill: #696969"/>
   </g>
   <g id="patch_210">
    <path d="M 484.185357 86.579333 
L 488.498979 86.579333 
L 488.498979 65.1144 
L 484.185357 65.1144 
z
" clip-path="url(#p9a8beae982)" style="fill: #696969"/>
   </g>
   <g id="patch_211">
    <path d="M 486.881371 86.579333 
L 491.194993 86.579333 
L 491.194993 61.053467 
L 486.881371 61.053467 
z
" clip-path="url(#p9a8beae982)" style="fill: #696969"/>
   </g>
   <g id="patch_212">
    <path d="M 489.577385 86.579333 
L 493.891007 86.579333 
L 493.891007 58.1528 
L 489.577385 58.1528 
z
" clip-path="url(#p9a8beae982)" style="fill: #696969"/>
   </g>
   <g id="patch_213">
    <path d="M 492.273399 86.579333 
L 496.587021 86.579333 
L 496.587021 61.6336 
L 492.273399 61.6336 
z
" clip-path="url(#p9a8beae982)" style="fill: #696969"/>
   </g>
   <g id="patch_214">
    <path d="M 494.969413 86.579333 
L 499.283035 86.579333 
L 499.283035 65.694533 
L 494.969413 65.694533 
z
" clip-path="url(#p9a8beae982)" style="fill: #696969"/>
   </g>
   <g id="patch_215">
    <path d="M 497.665427 86.579333 
L 501.979049 86.579333 
L 501.979049 69.175333 
L 497.665427 69.175333 
z
" clip-path="url(#p9a8beae982)" style="fill: #696969"/>
   </g>
   <g id="patch_216">
    <path d="M 500.361441 86.579333 
L 504.675063 86.579333 
L 504.675063 72.656133 
L 500.361441 72.656133 
z
" clip-path="url(#p9a8beae982)" style="fill: #696969"/>
   </g>
   <g id="patch_217">
    <path d="M 503.057455 86.579333 
L 507.371077 86.579333 
L 507.371077 76.136933 
L 503.057455 76.136933 
z
" clip-path="url(#p9a8beae982)" style="fill: #696969"/>
   </g>
   <g id="patch_218">
    <path d="M 505.753469 86.579333 
L 510.067091 86.579333 
L 510.067091 79.0376 
L 505.753469 79.0376 
z
" clip-path="url(#p9a8beae982)" style="fill: #696969"/>
   </g>
   <g id="patch_219">
    <path d="M 508.449483 86.579333 
L 512.763105 86.579333 
L 512.763105 81.358133 
L 508.449483 81.358133 
z
" clip-path="url(#p9a8beae982)" style="fill: #696969"/>
   </g>
   <g id="patch_220">
    <path d="M 511.145497 86.579333 
L 515.459119 86.579333 
L 515.459119 83.098533 
L 511.145497 83.098533 
z
" clip-path="url(#p9a8beae982)" style="fill: #696969"/>
   </g>
   <g id="patch_221">
    <path d="M 513.84151 86.579333 
L 518.155133 86.579333 
L 518.155133 84.838933 
L 513.84151 84.838933 
z
" clip-path="url(#p9a8beae982)" style="fill: #696969"/>
   </g>
   <g id="patch_222">
    <path d="M 516.537524 86.579333 
L 520.851147 86.579333 
L 520.851147 85.9992 
L 516.537524 85.9992 
z
" clip-path="url(#p9a8beae982)" style="fill: #696969"/>
   </g>
   <g id="patch_223">
    <path d="M 519.233538 86.579333 
L 523.547161 86.579333 
L 523.547161 86.579333 
L 519.233538 86.579333 
z
" clip-path="url(#p9a8beae982)" style="fill: #696969"/>
   </g>
   <g id="patch_224">
    <path d="M 521.929552 86.579333 
L 526.243175 86.579333 
L 526.243175 86.579333 
L 521.929552 86.579333 
z
" clip-path="url(#p9a8beae982)" style="fill: #696969"/>
   </g>
   <g id="patch_225">
    <path d="M 524.625566 86.579333 
L 528.939189 86.579333 
L 528.939189 85.9992 
L 524.625566 85.9992 
z
" clip-path="url(#p9a8beae982)" style="fill: #696969"/>
   </g>
   <g id="patch_226">
    <path d="M 527.32158 86.579333 
L 531.635203 86.579333 
L 531.635203 84.838933 
L 527.32158 84.838933 
z
" clip-path="url(#p9a8beae982)" style="fill: #696969"/>
   </g>
   <g id="patch_227">
    <path d="M 530.017594 86.579333 
L 534.331217 86.579333 
L 534.331217 83.678667 
L 530.017594 83.678667 
z
" clip-path="url(#p9a8beae982)" style="fill: #696969"/>
   </g>
   <g id="patch_228">
    <path d="M 532.713608 86.579333 
L 537.027231 86.579333 
L 537.027231 81.938267 
L 532.713608 81.938267 
z
" clip-path="url(#p9a8beae982)" style="fill: #696969"/>
   </g>
   <g id="patch_229">
    <path d="M 535.409622 86.579333 
L 539.723245 86.579333 
L 539.723245 79.0376 
L 535.409622 79.0376 
z
" clip-path="url(#p9a8beae982)" style="fill: #696969"/>
   </g>
   <g id="patch_230">
    <path d="M 538.105636 86.579333 
L 542.419259 86.579333 
L 542.419259 76.717067 
L 538.105636 76.717067 
z
" clip-path="url(#p9a8beae982)" style="fill: #696969"/>
   </g>
   <g id="patch_231">
    <path d="M 540.80165 86.579333 
L 545.115273 86.579333 
L 545.115273 73.236267 
L 540.80165 73.236267 
z
" clip-path="url(#p9a8beae982)" style="fill: #696969"/>
   </g>
   <g id="patch_232">
    <path d="M 543.497664 86.579333 
L 547.811287 86.579333 
L 547.811287 69.755467 
L 543.497664 69.755467 
z
" clip-path="url(#p9a8beae982)" style="fill: #696969"/>
   </g>
   <g id="patch_233">
    <path d="M 546.193678 86.579333 
L 550.507301 86.579333 
L 550.507301 66.274667 
L 546.193678 66.274667 
z
" clip-path="url(#p9a8beae982)" style="fill: #696969"/>
   </g>
   <g id="patch_234">
    <path d="M 548.889692 86.579333 
L 553.203315 86.579333 
L 553.203315 62.793867 
L 548.889692 62.793867 
z
" clip-path="url(#p9a8beae982)" style="fill: #696969"/>
   </g>
   <g id="patch_235">
    <path d="M 551.585706 86.579333 
L 555.899329 86.579333 
L 555.899329 58.732933 
L 551.585706 58.732933 
z
" clip-path="url(#p9a8beae982)" style="fill: #696969"/>
   </g>
   <g id="patch_236">
    <path d="M 554.28172 86.579333 
L 558.595343 86.579333 
L 558.595343 60.473333 
L 554.28172 60.473333 
z
" clip-path="url(#p9a8beae982)" style="fill: #696969"/>
   </g>
   <g id="patch_237">
    <path d="M 556.977734 86.579333 
L 561.291357 86.579333 
L 561.291357 63.954133 
L 556.977734 63.954133 
z
" clip-path="url(#p9a8beae982)" style="fill: #696969"/>
   </g>
   <g id="patch_238">
    <path d="M 559.673748 86.579333 
L 563.987371 86.579333 
L 563.987371 68.015067 
L 559.673748 68.015067 
z
" clip-path="url(#p9a8beae982)" style="fill: #696969"/>
   </g>
   <g id="patch_239">
    <path d="M 562.369762 86.579333 
L 566.683385 86.579333 
L 566.683385 71.495867 
L 562.369762 71.495867 
z
" clip-path="url(#p9a8beae982)" style="fill: #696969"/>
   </g>
   <g id="patch_240">
    <path d="M 565.065776 86.579333 
L 569.379399 86.579333 
L 569.379399 74.396533 
L 565.065776 74.396533 
z
" clip-path="url(#p9a8beae982)" style="fill: #696969"/>
   </g>
   <g id="patch_241">
    <path d="M 567.76179 86.579333 
L 572.075413 86.579333 
L 572.075413 77.877333 
L 567.76179 77.877333 
z
" clip-path="url(#p9a8beae982)" style="fill: #696969"/>
   </g>
   <g id="patch_242">
    <path d="M 570.457804 86.579333 
L 574.771427 86.579333 
L 574.771427 80.197867 
L 570.457804 80.197867 
z
" clip-path="url(#p9a8beae982)" style="fill: #696969"/>
   </g>
   <g id="patch_243">
    <path d="M 573.153818 86.579333 
L 577.467441 86.579333 
L 577.467441 82.5184 
L 573.153818 82.5184 
z
" clip-path="url(#p9a8beae982)" style="fill: #696969"/>
   </g>
   <g id="patch_244">
    <path d="M 575.849832 86.579333 
L 580.163455 86.579333 
L 580.163455 84.2588 
L 575.849832 84.2588 
z
" clip-path="url(#p9a8beae982)" style="fill: #696969"/>
   </g>
   <g id="patch_245">
    <path d="M 578.545846 86.579333 
L 582.859469 86.579333 
L 582.859469 85.419067 
L 578.545846 85.419067 
z
" clip-path="url(#p9a8beae982)" style="fill: #696969"/>
   </g>
   <g id="patch_246">
    <path d="M 581.24186 86.579333 
L 585.555483 86.579333 
L 585.555483 86.579333 
L 581.24186 86.579333 
z
" clip-path="url(#p9a8beae982)" style="fill: #696969"/>
   </g>
   <g id="patch_247">
    <path d="M 583.937874 86.579333 
L 588.251497 86.579333 
L 588.251497 86.579333 
L 583.937874 86.579333 
z
" clip-path="url(#p9a8beae982)" style="fill: #696969"/>
   </g>
   <g id="patch_248">
    <path d="M 586.633888 86.579333 
L 590.94751 86.579333 
L 590.94751 86.579333 
L 586.633888 86.579333 
z
" clip-path="url(#p9a8beae982)" style="fill: #696969"/>
   </g>
   <g id="patch_249">
    <path d="M 589.329902 86.579333 
L 593.643524 86.579333 
L 593.643524 85.419067 
L 589.329902 85.419067 
z
" clip-path="url(#p9a8beae982)" style="fill: #696969"/>
   </g>
   <g id="patch_250">
    <path d="M 592.025916 86.579333 
L 596.339538 86.579333 
L 596.339538 84.2588 
L 592.025916 84.2588 
z
" clip-path="url(#p9a8beae982)" style="fill: #696969"/>
   </g>
   <g id="patch_251">
    <path d="M 594.72193 86.579333 
L 599.035552 86.579333 
L 599.035552 82.5184 
L 594.72193 82.5184 
z
" clip-path="url(#p9a8beae982)" style="fill: #696969"/>
   </g>
   <g id="patch_252">
    <path d="M 597.417944 86.579333 
L 601.731566 86.579333 
L 601.731566 80.197867 
L 597.417944 80.197867 
z
" clip-path="url(#p9a8beae982)" style="fill: #696969"/>
   </g>
   <g id="patch_253">
    <path d="M 600.113958 86.579333 
L 604.42758 86.579333 
L 604.42758 77.877333 
L 600.113958 77.877333 
z
" clip-path="url(#p9a8beae982)" style="fill: #696969"/>
   </g>
   <g id="patch_254">
    <path d="M 602.809972 86.579333 
L 607.123594 86.579333 
L 607.123594 74.396533 
L 602.809972 74.396533 
z
" clip-path="url(#p9a8beae982)" style="fill: #696969"/>
   </g>
   <g id="patch_255">
    <path d="M 605.505986 86.579333 
L 609.819608 86.579333 
L 609.819608 71.495867 
L 605.505986 71.495867 
z
" clip-path="url(#p9a8beae982)" style="fill: #696969"/>
   </g>
   <g id="patch_256">
    <path d="M 608.202 86.579333 
L 612.515622 86.579333 
L 612.515622 68.015067 
L 608.202 68.015067 
z
" clip-path="url(#p9a8beae982)" style="fill: #696969"/>
   </g>
   <g id="patch_257">
    <path d="M 610.898014 86.579333 
L 615.211636 86.579333 
L 615.211636 63.954133 
L 610.898014 63.954133 
z
" clip-path="url(#p9a8beae982)" style="fill: #696969"/>
   </g>
   <g id="patch_258">
    <path d="M 613.594028 86.579333 
L 617.90765 86.579333 
L 617.90765 60.473333 
L 613.594028 60.473333 
z
" clip-path="url(#p9a8beae982)" style="fill: #696969"/>
   </g>
   <g id="patch_259">
    <path d="M 616.290042 86.579333 
L 620.603664 86.579333 
L 620.603664 58.732933 
L 616.290042 58.732933 
z
" clip-path="url(#p9a8beae982)" style="fill: #696969"/>
   </g>
   <g id="patch_260">
    <path d="M 618.986056 86.579333 
L 623.299678 86.579333 
L 623.299678 62.793867 
L 618.986056 62.793867 
z
" clip-path="url(#p9a8beae982)" style="fill: #696969"/>
   </g>
   <g id="patch_261">
    <path d="M 621.68207 86.579333 
L 625.995692 86.579333 
L 625.995692 66.274667 
L 621.68207 66.274667 
z
" clip-path="url(#p9a8beae982)" style="fill: #696969"/>
   </g>
   <g id="patch_262">
    <path d="M 624.378084 86.579333 
L 628.691706 86.579333 
L 628.691706 69.755467 
L 624.378084 69.755467 
z
" clip-path="url(#p9a8beae982)" style="fill: #696969"/>
   </g>
   <g id="patch_263">
    <path d="M 627.074098 86.579333 
L 631.38772 86.579333 
L 631.38772 73.236267 
L 627.074098 73.236267 
z
" clip-path="url(#p9a8beae982)" style="fill: #696969"/>
   </g>
   <g id="patch_264">
    <path d="M 629.770112 86.579333 
L 634.083734 86.579333 
L 634.083734 76.717067 
L 629.770112 76.717067 
z
" clip-path="url(#p9a8beae982)" style="fill: #696969"/>
   </g>
   <g id="patch_265">
    <path d="M 632.466126 86.579333 
L 636.779748 86.579333 
L 636.779748 79.0376 
L 632.466126 79.0376 
z
" clip-path="url(#p9a8beae982)" style="fill: #696969"/>
   </g>
   <g id="patch_266">
    <path d="M 635.16214 86.579333 
L 639.475762 86.579333 
L 639.475762 81.938267 
L 635.16214 81.938267 
z
" clip-path="url(#p9a8beae982)" style="fill: #696969"/>
   </g>
   <g id="patch_267">
    <path d="M 637.858154 86.579333 
L 642.171776 86.579333 
L 642.171776 83.678667 
L 637.858154 83.678667 
z
" clip-path="url(#p9a8beae982)" style="fill: #696969"/>
   </g>
   <g id="patch_268">
    <path d="M 640.554168 86.579333 
L 644.86779 86.579333 
L 644.86779 84.838933 
L 640.554168 84.838933 
z
" clip-path="url(#p9a8beae982)" style="fill: #696969"/>
   </g>
   <g id="patch_269">
    <path d="M 643.250182 86.579333 
L 647.563804 86.579333 
L 647.563804 85.9992 
L 643.250182 85.9992 
z
" clip-path="url(#p9a8beae982)" style="fill: #696969"/>
   </g>
   <g id="patch_270">
    <path d="M 645.946196 86.579333 
L 650.259818 86.579333 
L 650.259818 86.579333 
L 645.946196 86.579333 
z
" clip-path="url(#p9a8beae982)" style="fill: #696969"/>
   </g>
   <g id="patch_271">
    <path d="M 648.64221 86.579333 
L 652.955832 86.579333 
L 652.955832 86.579333 
L 648.64221 86.579333 
z
" clip-path="url(#p9a8beae982)" style="fill: #696969"/>
   </g>
   <g id="patch_272">
    <path d="M 651.338224 86.579333 
L 655.651846 86.579333 
L 655.651846 85.9992 
L 651.338224 85.9992 
z
" clip-path="url(#p9a8beae982)" style="fill: #696969"/>
   </g>
   <g id="patch_273">
    <path d="M 654.034238 86.579333 
L 658.34786 86.579333 
L 658.34786 84.838933 
L 654.034238 84.838933 
z
" clip-path="url(#p9a8beae982)" style="fill: #696969"/>
   </g>
   <g id="patch_274">
    <path d="M 656.730252 86.579333 
L 661.043874 86.579333 
L 661.043874 83.098533 
L 656.730252 83.098533 
z
" clip-path="url(#p9a8beae982)" style="fill: #696969"/>
   </g>
   <g id="patch_275">
    <path d="M 659.426266 86.579333 
L 663.739888 86.579333 
L 663.739888 81.358133 
L 659.426266 81.358133 
z
" clip-path="url(#p9a8beae982)" style="fill: #696969"/>
   </g>
   <g id="patch_276">
    <path d="M 662.12228 86.579333 
L 666.435902 86.579333 
L 666.435902 79.0376 
L 662.12228 79.0376 
z
" clip-path="url(#p9a8beae982)" style="fill: #696969"/>
   </g>
   <g id="patch_277">
    <path d="M 664.818294 86.579333 
L 669.131916 86.579333 
L 669.131916 76.136933 
L 664.818294 76.136933 
z
" clip-path="url(#p9a8beae982)" style="fill: #696969"/>
   </g>
   <g id="patch_278">
    <path d="M 667.514308 86.579333 
L 671.82793 86.579333 
L 671.82793 72.656133 
L 667.514308 72.656133 
z
" clip-path="url(#p9a8beae982)" style="fill: #696969"/>
   </g>
   <g id="patch_279">
    <path d="M 670.210322 86.579333 
L 674.523944 86.579333 
L 674.523944 69.175333 
L 670.210322 69.175333 
z
" clip-path="url(#p9a8beae982)" style="fill: #696969"/>
   </g>
   <g id="patch_280">
    <path d="M 672.906336 86.579333 
L 677.219958 86.579333 
L 677.219958 65.694533 
L 672.906336 65.694533 
z
" clip-path="url(#p9a8beae982)" style="fill: #696969"/>
   </g>
   <g id="patch_281">
    <path d="M 675.60235 86.579333 
L 679.915972 86.579333 
L 679.915972 61.6336 
L 675.60235 61.6336 
z
" clip-path="url(#p9a8beae982)" style="fill: #696969"/>
   </g>
   <g id="patch_282">
    <path d="M 678.298364 86.579333 
L 682.611986 86.579333 
L 682.611986 58.1528 
L 678.298364 58.1528 
z
" clip-path="url(#p9a8beae982)" style="fill: #696969"/>
   </g>
   <g id="patch_283">
    <path d="M 680.994378 86.579333 
L 685.308 86.579333 
L 685.308 61.053467 
L 680.994378 61.053467 
z
" clip-path="url(#p9a8beae982)" style="fill: #696969"/>
   </g>
   <g id="patch_284">
    <path d="M 683.690392 86.579333 
L 688.004014 86.579333 
L 688.004014 65.1144 
L 683.690392 65.1144 
z
" clip-path="url(#p9a8beae982)" style="fill: #696969"/>
   </g>
   <g id="patch_285">
    <path d="M 686.386406 86.579333 
L 690.700028 86.579333 
L 690.700028 68.5952 
L 686.386406 68.5952 
z
" clip-path="url(#p9a8beae982)" style="fill: #696969"/>
   </g>
   <g id="patch_286">
    <path d="M 689.08242 86.579333 
L 693.396042 86.579333 
L 693.396042 72.076 
L 689.08242 72.076 
z
" clip-path="url(#p9a8beae982)" style="fill: #696969"/>
   </g>
   <g id="patch_287">
    <path d="M 691.778434 86.579333 
L 696.092056 86.579333 
L 696.092056 75.5568 
L 691.778434 75.5568 
z
" clip-path="url(#p9a8beae982)" style="fill: #696969"/>
   </g>
   <g id="patch_288">
    <path d="M 694.474448 86.579333 
L 698.78807 86.579333 
L 698.78807 78.457467 
L 694.474448 78.457467 
z
" clip-path="url(#p9a8beae982)" style="fill: #696969"/>
   </g>
   <g id="patch_289">
    <path d="M 697.170462 86.579333 
L 701.484084 86.579333 
L 701.484084 80.778 
L 697.170462 80.778 
z
" clip-path="url(#p9a8beae982)" style="fill: #696969"/>
   </g>
   <g id="patch_290">
    <path d="M 699.866476 86.579333 
L 704.180098 86.579333 
L 704.180098 83.098533 
L 699.866476 83.098533 
z
" clip-path="url(#p9a8beae982)" style="fill: #696969"/>
   </g>
   <g id="patch_291">
    <path d="M 702.56249 86.579333 
L 706.876112 86.579333 
L 706.876112 84.838933 
L 702.56249 84.838933 
z
" clip-path="url(#p9a8beae982)" style="fill: #696969"/>
   </g>
   <g id="patch_292">
    <path d="M 705.258503 86.579333 
L 709.572126 86.579333 
L 709.572126 85.9992 
L 705.258503 85.9992 
z
" clip-path="url(#p9a8beae982)" style="fill: #696969"/>
   </g>
   <g id="patch_293">
    <path d="M 707.954517 86.579333 
L 712.26814 86.579333 
L 712.26814 86.579333 
L 707.954517 86.579333 
z
" clip-path="url(#p9a8beae982)" style="fill: #696969"/>
   </g>
   <g id="patch_294">
    <path d="M 710.650531 86.579333 
L 714.964154 86.579333 
L 714.964154 86.579333 
L 710.650531 86.579333 
z
" clip-path="url(#p9a8beae982)" style="fill: #696969"/>
   </g>
   <g id="patch_295">
    <path d="M 713.346545 86.579333 
L 717.660168 86.579333 
L 717.660168 85.9992 
L 713.346545 85.9992 
z
" clip-path="url(#p9a8beae982)" style="fill: #696969"/>
   </g>
   <g id="patch_296">
    <path d="M 716.042559 86.579333 
L 720.356182 86.579333 
L 720.356182 85.419067 
L 716.042559 85.419067 
z
" clip-path="url(#p9a8beae982)" style="fill: #696969"/>
   </g>
   <g id="patch_297">
    <path d="M 718.738573 86.579333 
L 723.052196 86.579333 
L 723.052196 83.678667 
L 718.738573 83.678667 
z
" clip-path="url(#p9a8beae982)" style="fill: #696969"/>
   </g>
   <g id="patch_298">
    <path d="M 721.434587 86.579333 
L 725.74821 86.579333 
L 725.74821 81.938267 
L 721.434587 81.938267 
z
" clip-path="url(#p9a8beae982)" style="fill: #696969"/>
   </g>
   <g id="patch_299">
    <path d="M 724.130601 86.579333 
L 728.444224 86.579333 
L 728.444224 79.617733 
L 724.130601 79.617733 
z
" clip-path="url(#p9a8beae982)" style="fill: #696969"/>
   </g>
   <g id="patch_300">
    <path d="M 726.826615 86.579333 
L 731.140238 86.579333 
L 731.140238 77.2972 
L 726.826615 77.2972 
z
" clip-path="url(#p9a8beae982)" style="fill: #696969"/>
   </g>
   <g id="patch_301">
    <path d="M 729.522629 86.579333 
L 733.836252 86.579333 
L 733.836252 73.8164 
L 729.522629 73.8164 
z
" clip-path="url(#p9a8beae982)" style="fill: #696969"/>
   </g>
   <g id="patch_302">
    <path d="M 732.218643 86.579333 
L 736.532266 86.579333 
L 736.532266 70.915733 
L 732.218643 70.915733 
z
" clip-path="url(#p9a8beae982)" style="fill: #696969"/>
   </g>
   <g id="patch_303">
    <path d="M 734.914657 86.579333 
L 739.22828 86.579333 
L 739.22828 66.8548 
L 734.914657 66.8548 
z
" clip-path="url(#p9a8beae982)" style="fill: #696969"/>
   </g>
   <g id="patch_304">
    <path d="M 737.610671 86.579333 
L 741.924294 86.579333 
L 741.924294 63.374 
L 737.610671 63.374 
z
" clip-path="url(#p9a8beae982)" style="fill: #696969"/>
   </g>
   <g id="patch_305">
    <path d="M 740.306685 86.579333 
L 744.620308 86.579333 
L 744.620308 59.313067 
L 740.306685 59.313067 
z
" clip-path="url(#p9a8beae982)" style="fill: #696969"/>
   </g>
   <g id="patch_306">
    <path d="M 743.002699 86.579333 
L 747.316322 86.579333 
L 747.316322 59.313067 
L 743.002699 59.313067 
z
" clip-path="url(#p9a8beae982)" style="fill: #696969"/>
   </g>
   <g id="patch_307">
    <path d="M 745.698713 86.579333 
L 750.012336 86.579333 
L 750.012336 63.374 
L 745.698713 63.374 
z
" clip-path="url(#p9a8beae982)" style="fill: #696969"/>
   </g>
   <g id="patch_308">
    <path d="M 748.394727 86.579333 
L 752.70835 86.579333 
L 752.70835 66.8548 
L 748.394727 66.8548 
z
" clip-path="url(#p9a8beae982)" style="fill: #696969"/>
   </g>
   <g id="patch_309">
    <path d="M 751.090741 86.579333 
L 755.404364 86.579333 
L 755.404364 70.915733 
L 751.090741 70.915733 
z
" clip-path="url(#p9a8beae982)" style="fill: #696969"/>
   </g>
   <g id="patch_310">
    <path d="M 753.786755 86.579333 
L 758.100378 86.579333 
L 758.100378 73.8164 
L 753.786755 73.8164 
z
" clip-path="url(#p9a8beae982)" style="fill: #696969"/>
   </g>
   <g id="patch_311">
    <path d="M 756.482769 86.579333 
L 760.796392 86.579333 
L 760.796392 77.2972 
L 756.482769 77.2972 
z
" clip-path="url(#p9a8beae982)" style="fill: #696969"/>
   </g>
   <g id="patch_312">
    <path d="M 759.178783 86.579333 
L 763.492406 86.579333 
L 763.492406 79.617733 
L 759.178783 79.617733 
z
" clip-path="url(#p9a8beae982)" style="fill: #696969"/>
   </g>
   <g id="patch_313">
    <path d="M 761.874797 86.579333 
L 766.18842 86.579333 
L 766.18842 81.938267 
L 761.874797 81.938267 
z
" clip-path="url(#p9a8beae982)" style="fill: #696969"/>
   </g>
   <g id="patch_314">
    <path d="M 764.570811 86.579333 
L 768.884434 86.579333 
L 768.884434 83.678667 
L 764.570811 83.678667 
z
" clip-path="url(#p9a8beae982)" style="fill: #696969"/>
   </g>
   <g id="patch_315">
    <path d="M 767.266825 86.579333 
L 771.580448 86.579333 
L 771.580448 85.419067 
L 767.266825 85.419067 
z
" clip-path="url(#p9a8beae982)" style="fill: #696969"/>
   </g>
   <g id="patch_316">
    <path d="M 769.962839 86.579333 
L 774.276462 86.579333 
L 774.276462 85.9992 
L 769.962839 85.9992 
z
" clip-path="url(#p9a8beae982)" style="fill: #696969"/>
   </g>
   <g id="patch_317">
    <path d="M 772.658853 86.579333 
L 776.972476 86.579333 
L 776.972476 86.579333 
L 772.658853 86.579333 
z
" clip-path="url(#p9a8beae982)" style="fill: #696969"/>
   </g>
   <g id="patch_318">
    <path d="M 775.354867 86.579333 
L 779.66849 86.579333 
L 779.66849 86.579333 
L 775.354867 86.579333 
z
" clip-path="url(#p9a8beae982)" style="fill: #696969"/>
   </g>
   <g id="patch_319">
    <path d="M 778.050881 86.579333 
L 782.364503 86.579333 
L 782.364503 85.9992 
L 778.050881 85.9992 
z
" clip-path="url(#p9a8beae982)" style="fill: #696969"/>
   </g>
   <g id="patch_320">
    <path d="M 780.746895 86.579333 
L 785.060517 86.579333 
L 785.060517 84.838933 
L 780.746895 84.838933 
z
" clip-path="url(#p9a8beae982)" style="fill: #696969"/>
   </g>
   <g id="patch_321">
    <path d="M 783.442909 86.579333 
L 787.756531 86.579333 
L 787.756531 83.098533 
L 783.442909 83.098533 
z
" clip-path="url(#p9a8beae982)" style="fill: #696969"/>
   </g>
   <g id="patch_322">
    <path d="M 786.138923 86.579333 
L 790.452545 86.579333 
L 790.452545 80.778 
L 786.138923 80.778 
z
" clip-path="url(#p9a8beae982)" style="fill: #696969"/>
   </g>
   <g id="patch_323">
    <path d="M 788.834937 86.579333 
L 793.148559 86.579333 
L 793.148559 78.457467 
L 788.834937 78.457467 
z
" clip-path="url(#p9a8beae982)" style="fill: #696969"/>
   </g>
   <g id="patch_324">
    <path d="M 791.530951 86.579333 
L 795.844573 86.579333 
L 795.844573 75.5568 
L 791.530951 75.5568 
z
" clip-path="url(#p9a8beae982)" style="fill: #696969"/>
   </g>
   <g id="patch_325">
    <path d="M 794.226965 86.579333 
L 798.540587 86.579333 
L 798.540587 72.076 
L 794.226965 72.076 
z
" clip-path="url(#p9a8beae982)" style="fill: #696969"/>
   </g>
   <g id="patch_326">
    <path d="M 796.922979 86.579333 
L 801.236601 86.579333 
L 801.236601 68.5952 
L 796.922979 68.5952 
z
" clip-path="url(#p9a8beae982)" style="fill: #696969"/>
   </g>
   <g id="patch_327">
    <path d="M 799.618993 86.579333 
L 803.932615 86.579333 
L 803.932615 65.1144 
L 799.618993 65.1144 
z
" clip-path="url(#p9a8beae982)" style="fill: #696969"/>
   </g>
   <g id="patch_328">
    <path d="M 802.315007 86.579333 
L 806.628629 86.579333 
L 806.628629 61.053467 
L 802.315007 61.053467 
z
" clip-path="url(#p9a8beae982)" style="fill: #696969"/>
   </g>
   <g id="patch_329">
    <path d="M 805.011021 86.579333 
L 809.324643 86.579333 
L 809.324643 58.1528 
L 805.011021 58.1528 
z
" clip-path="url(#p9a8beae982)" style="fill: #696969"/>
   </g>
   <g id="patch_330">
    <path d="M 807.707035 86.579333 
L 812.020657 86.579333 
L 812.020657 61.6336 
L 807.707035 61.6336 
z
" clip-path="url(#p9a8beae982)" style="fill: #696969"/>
   </g>
   <g id="patch_331">
    <path d="M 810.403049 86.579333 
L 814.716671 86.579333 
L 814.716671 65.694533 
L 810.403049 65.694533 
z
" clip-path="url(#p9a8beae982)" style="fill: #696969"/>
   </g>
   <g id="patch_332">
    <path d="M 813.099063 86.579333 
L 817.412685 86.579333 
L 817.412685 69.175333 
L 813.099063 69.175333 
z
" clip-path="url(#p9a8beae982)" style="fill: #696969"/>
   </g>
   <g id="patch_333">
    <path d="M 815.795077 86.579333 
L 820.108699 86.579333 
L 820.108699 72.656133 
L 815.795077 72.656133 
z
" clip-path="url(#p9a8beae982)" style="fill: #696969"/>
   </g>
   <g id="patch_334">
    <path d="M 818.491091 86.579333 
L 822.804713 86.579333 
L 822.804713 76.136933 
L 818.491091 76.136933 
z
" clip-path="url(#p9a8beae982)" style="fill: #696969"/>
   </g>
   <g id="patch_335">
    <path d="M 821.187105 86.579333 
L 825.500727 86.579333 
L 825.500727 79.0376 
L 821.187105 79.0376 
z
" clip-path="url(#p9a8beae982)" style="fill: #696969"/>
   </g>
   <g id="patch_336">
    <path d="M 823.883119 86.579333 
L 828.196741 86.579333 
L 828.196741 81.358133 
L 823.883119 81.358133 
z
" clip-path="url(#p9a8beae982)" style="fill: #696969"/>
   </g>
   <g id="patch_337">
    <path d="M 826.579133 86.579333 
L 830.892755 86.579333 
L 830.892755 83.098533 
L 826.579133 83.098533 
z
" clip-path="url(#p9a8beae982)" style="fill: #696969"/>
   </g>
   <g id="patch_338">
    <path d="M 829.275147 86.579333 
L 833.588769 86.579333 
L 833.588769 84.838933 
L 829.275147 84.838933 
z
" clip-path="url(#p9a8beae982)" style="fill: #696969"/>
   </g>
   <g id="patch_339">
    <path d="M 831.971161 86.579333 
L 836.284783 86.579333 
L 836.284783 85.9992 
L 831.971161 85.9992 
z
" clip-path="url(#p9a8beae982)" style="fill: #696969"/>
   </g>
   <g id="patch_340">
    <path d="M 834.667175 86.579333 
L 838.980797 86.579333 
L 838.980797 86.579333 
L 834.667175 86.579333 
z
" clip-path="url(#p9a8beae982)" style="fill: #696969"/>
   </g>
   <g id="patch_341">
    <path d="M 837.363189 86.579333 
L 841.676811 86.579333 
L 841.676811 86.579333 
L 837.363189 86.579333 
z
" clip-path="url(#p9a8beae982)" style="fill: #696969"/>
   </g>
   <g id="matplotlib.axis_3">
    <g id="xtick_6">
     <g id="line2d_10">
      <g>
       <use xlink:href="#m198b9a9451" x="475.558112" y="89.48" style="stroke: #000000; stroke-width: 0.8"/>
      </g>
     </g>
     <g id="text_9">
      <!-- 100 -->
      <g transform="translate(466.014362 104.078438) scale(0.1 -0.1)">
       <use xlink:href="#DejaVuSans-31"/>
       <use xlink:href="#DejaVuSans-30" x="63.623047"/>
       <use xlink:href="#DejaVuSans-30" x="127.246094"/>
      </g>
     </g>
    </g>
    <g id="xtick_7">
     <g id="line2d_11">
      <g>
       <use xlink:href="#m198b9a9451" x="529.478392" y="89.48" style="stroke: #000000; stroke-width: 0.8"/>
      </g>
     </g>
     <g id="text_10">
      <!-- 110 -->
      <g transform="translate(519.934642 104.078438) scale(0.1 -0.1)">
       <use xlink:href="#DejaVuSans-31"/>
       <use xlink:href="#DejaVuSans-31" x="63.623047"/>
       <use xlink:href="#DejaVuSans-30" x="127.246094"/>
      </g>
     </g>
    </g>
    <g id="xtick_8">
     <g id="line2d_12">
      <g>
       <use xlink:href="#m198b9a9451" x="583.398671" y="89.48" style="stroke: #000000; stroke-width: 0.8"/>
      </g>
     </g>
     <g id="text_11">
      <!-- 120 -->
      <g transform="translate(573.854921 104.078438) scale(0.1 -0.1)">
       <use xlink:href="#DejaVuSans-31"/>
       <use xlink:href="#DejaVuSans-32" x="63.623047"/>
       <use xlink:href="#DejaVuSans-30" x="127.246094"/>
      </g>
     </g>
    </g>
    <g id="xtick_9">
     <g id="line2d_13">
      <g>
       <use xlink:href="#m198b9a9451" x="637.318951" y="89.48" style="stroke: #000000; stroke-width: 0.8"/>
      </g>
     </g>
     <g id="text_12">
      <!-- 130 -->
      <g transform="translate(627.775201 104.078438) scale(0.1 -0.1)">
       <defs>
        <path id="DejaVuSans-33" d="M 2597 2516 
Q 3050 2419 3304 2112 
Q 3559 1806 3559 1356 
Q 3559 666 3084 287 
Q 2609 -91 1734 -91 
Q 1441 -91 1130 -33 
Q 819 25 488 141 
L 488 750 
Q 750 597 1062 519 
Q 1375 441 1716 441 
Q 2309 441 2620 675 
Q 2931 909 2931 1356 
Q 2931 1769 2642 2001 
Q 2353 2234 1838 2234 
L 1294 2234 
L 1294 2753 
L 1863 2753 
Q 2328 2753 2575 2939 
Q 2822 3125 2822 3475 
Q 2822 3834 2567 4026 
Q 2313 4219 1838 4219 
Q 1578 4219 1281 4162 
Q 984 4106 628 3988 
L 628 4550 
Q 988 4650 1302 4700 
Q 1616 4750 1894 4750 
Q 2613 4750 3031 4423 
Q 3450 4097 3450 3541 
Q 3450 3153 3228 2886 
Q 3006 2619 2597 2516 
z
" transform="scale(0.015625)"/>
       </defs>
       <use xlink:href="#DejaVuSans-31"/>
       <use xlink:href="#DejaVuSans-33" x="63.623047"/>
       <use xlink:href="#DejaVuSans-30" x="127.246094"/>
      </g>
     </g>
    </g>
    <g id="xtick_10">
     <g id="line2d_14">
      <g>
       <use xlink:href="#m198b9a9451" x="691.239231" y="89.48" style="stroke: #000000; stroke-width: 0.8"/>
      </g>
     </g>
     <g id="text_13">
      <!-- 140 -->
      <g transform="translate(681.695481 104.078438) scale(0.1 -0.1)">
       <use xlink:href="#DejaVuSans-31"/>
       <use xlink:href="#DejaVuSans-34" x="63.623047"/>
       <use xlink:href="#DejaVuSans-30" x="127.246094"/>
      </g>
     </g>
    </g>
    <g id="xtick_11">
     <g id="line2d_15">
      <g>
       <use xlink:href="#m198b9a9451" x="745.15951" y="89.48" style="stroke: #000000; stroke-width: 0.8"/>
      </g>
     </g>
     <g id="text_14">
      <!-- 150 -->
      <g transform="translate(735.61576 104.078438) scale(0.1 -0.1)">
       <use xlink:href="#DejaVuSans-31"/>
       <use xlink:href="#DejaVuSans-35" x="63.623047"/>
       <use xlink:href="#DejaVuSans-30" x="127.246094"/>
      </g>
     </g>
    </g>
    <g id="xtick_12">
     <g id="line2d_16">
      <g>
       <use xlink:href="#m198b9a9451" x="799.07979" y="89.48" style="stroke: #000000; stroke-width: 0.8"/>
      </g>
     </g>
     <g id="text_15">
      <!-- 160 -->
      <g transform="translate(789.53604 104.078438) scale(0.1 -0.1)">
       <use xlink:href="#DejaVuSans-31"/>
       <use xlink:href="#DejaVuSans-36" x="63.623047"/>
       <use xlink:href="#DejaVuSans-30" x="127.246094"/>
      </g>
     </g>
    </g>
   </g>
   <g id="matplotlib.axis_4">
    <g id="ytick_3">
     <g id="line2d_17">
      <g>
       <use xlink:href="#m19895ee4b7" x="453.99" y="86.579333" style="stroke: #000000; stroke-width: 0.8"/>
      </g>
     </g>
    </g>
    <g id="ytick_4">
     <g id="line2d_18">
      <g>
       <use xlink:href="#m19895ee4b7" x="453.99" y="57.572667" style="stroke: #000000; stroke-width: 0.8"/>
      </g>
     </g>
    </g>
   </g>
   <g id="line2d_19">
    <path d="M 453.99 77.256748 
L 467.47007 76.802508 
L 499.822238 75.521974 
L 510.606294 75.381193 
L 521.39035 75.47241 
L 532.174406 75.774714 
L 551.046503 76.584246 
L 567.222587 77.19627 
L 578.006643 77.391478 
L 588.790699 77.357804 
L 599.574755 77.10297 
L 615.750839 76.444608 
L 634.622937 75.669516 
L 645.406993 75.422675 
L 656.191049 75.398322 
L 666.975105 75.602041 
L 680.455175 76.102046 
L 707.415315 77.197762 
L 718.199371 77.391895 
L 728.983427 77.357051 
L 739.767483 77.10122 
L 755.943566 76.442161 
L 774.815664 75.667803 
L 785.59972 75.421972 
L 796.383776 75.398791 
L 807.167832 75.603574 
L 820.647902 76.104393 
L 839.52 76.929001 
L 839.52 76.929001 
" clip-path="url(#p9a8beae982)" style="fill: none; stroke: #191970; stroke-width: 3; stroke-linecap: square"/>
   </g>
   <g id="line2d_20">
    <path clip-path="url(#p9a8beae982)" style="fill: none; stroke-dasharray: 7.4,3.2; stroke-dashoffset: 0; stroke: #000000; stroke-opacity: 0.8; stroke-width: 2"/>
   </g>
   <g id="patch_342">
    <path d="M 453.99 89.48 
L 453.99 54.672 
" style="fill: none; stroke: #000000; stroke-width: 0.8; stroke-linejoin: miter; stroke-linecap: square"/>
   </g>
   <g id="patch_343">
    <path d="M 453.99 89.48 
L 839.52 89.48 
" style="fill: none; stroke: #000000; stroke-width: 0.8; stroke-linejoin: miter; stroke-linecap: square"/>
   </g>
   <g id="text_16">
    <!-- 2 -->
    <g transform="translate(644.21 39.71375) scale(0.08 -0.08)">
     <use xlink:href="#DejaVuSans-32"/>
    </g>
    <!-- (AC: 2.76, PR: 25.99 - NS) -->
    <g transform="translate(595.453125 48.672) scale(0.08 -0.08)">
     <defs>
      <path id="DejaVuSans-37" d="M 525 4666 
L 3525 4666 
L 3525 4397 
L 1831 0 
L 1172 0 
L 2766 4134 
L 525 4134 
L 525 4666 
z
" transform="scale(0.015625)"/>
     </defs>
     <use xlink:href="#DejaVuSans-28"/>
     <use xlink:href="#DejaVuSans-41" x="39.013672"/>
     <use xlink:href="#DejaVuSans-43" x="105.671875"/>
     <use xlink:href="#DejaVuSans-3a" x="175.496094"/>
     <use xlink:href="#DejaVuSans-20" x="209.1875"/>
     <use xlink:href="#DejaVuSans-32" x="240.974609"/>
     <use xlink:href="#DejaVuSans-2e" x="304.597656"/>
     <use xlink:href="#DejaVuSans-37" x="336.384766"/>
     <use xlink:href="#DejaVuSans-36" x="400.007812"/>
     <use xlink:href="#DejaVuSans-2c" x="463.630859"/>
     <use xlink:href="#DejaVuSans-20" x="495.417969"/>
     <use xlink:href="#DejaVuSans-50" x="527.205078"/>
     <use xlink:href="#DejaVuSans-52" x="587.507812"/>
     <use xlink:href="#DejaVuSans-3a" x="653.865234"/>
     <use xlink:href="#DejaVuSans-20" x="687.556641"/>
     <use xlink:href="#DejaVuSans-32" x="719.34375"/>
     <use xlink:href="#DejaVuSans-35" x="782.966797"/>
     <use xlink:href="#DejaVuSans-2e" x="846.589844"/>
     <use xlink:href="#DejaVuSans-39" x="878.376953"/>
     <use xlink:href="#DejaVuSans-39" x="942"/>
     <use xlink:href="#DejaVuSans-20" x="1005.623047"/>
     <use xlink:href="#DejaVuSans-2d" x="1037.410156"/>
     <use xlink:href="#DejaVuSans-20" x="1073.494141"/>
     <use xlink:href="#DejaVuSans-4e" x="1105.28125"/>
     <use xlink:href="#DejaVuSans-53" x="1180.085938"/>
     <use xlink:href="#DejaVuSans-29" x="1243.5625"/>
    </g>
   </g>
  </g>
  <g id="text_17">
   <!-- COSINOR MODEL - 0 TRIANGLE 0 -->
   <g transform="translate(326.318438 11.940525) scale(0.12 -0.12)">
    <defs>
     <path id="DejaVuSans-4f" d="M 2522 4238 
Q 1834 4238 1429 3725 
Q 1025 3213 1025 2328 
Q 1025 1447 1429 934 
Q 1834 422 2522 422 
Q 3209 422 3611 934 
Q 4013 1447 4013 2328 
Q 4013 3213 3611 3725 
Q 3209 4238 2522 4238 
z
M 2522 4750 
Q 3503 4750 4090 4092 
Q 4678 3434 4678 2328 
Q 4678 1225 4090 567 
Q 3503 -91 2522 -91 
Q 1538 -91 948 565 
Q 359 1222 359 2328 
Q 359 3434 948 4092 
Q 1538 4750 2522 4750 
z
" transform="scale(0.015625)"/>
     <path id="DejaVuSans-49" d="M 628 4666 
L 1259 4666 
L 1259 0 
L 628 0 
L 628 4666 
z
" transform="scale(0.015625)"/>
     <path id="DejaVuSans-4d" d="M 628 4666 
L 1569 4666 
L 2759 1491 
L 3956 4666 
L 4897 4666 
L 4897 0 
L 4281 0 
L 4281 4097 
L 3078 897 
L 2444 897 
L 1241 4097 
L 1241 0 
L 628 0 
L 628 4666 
z
" transform="scale(0.015625)"/>
     <path id="DejaVuSans-44" d="M 1259 4147 
L 1259 519 
L 2022 519 
Q 2988 519 3436 956 
Q 3884 1394 3884 2338 
Q 3884 3275 3436 3711 
Q 2988 4147 2022 4147 
L 1259 4147 
z
M 628 4666 
L 1925 4666 
Q 3281 4666 3915 4102 
Q 4550 3538 4550 2338 
Q 4550 1131 3912 565 
Q 3275 0 1925 0 
L 628 0 
L 628 4666 
z
" transform="scale(0.015625)"/>
     <path id="DejaVuSans-45" d="M 628 4666 
L 3578 4666 
L 3578 4134 
L 1259 4134 
L 1259 2753 
L 3481 2753 
L 3481 2222 
L 1259 2222 
L 1259 531 
L 3634 531 
L 3634 0 
L 628 0 
L 628 4666 
z
" transform="scale(0.015625)"/>
     <path id="DejaVuSans-4c" d="M 628 4666 
L 1259 4666 
L 1259 531 
L 3531 531 
L 3531 0 
L 628 0 
L 628 4666 
z
" transform="scale(0.015625)"/>
     <path id="DejaVuSans-54" d="M -19 4666 
L 3928 4666 
L 3928 4134 
L 2272 4134 
L 2272 0 
L 1638 0 
L 1638 4134 
L -19 4134 
L -19 4666 
z
" transform="scale(0.015625)"/>
     <path id="DejaVuSans-47" d="M 3809 666 
L 3809 1919 
L 2778 1919 
L 2778 2438 
L 4434 2438 
L 4434 434 
Q 4069 175 3628 42 
Q 3188 -91 2688 -91 
Q 1594 -91 976 548 
Q 359 1188 359 2328 
Q 359 3472 976 4111 
Q 1594 4750 2688 4750 
Q 3144 4750 3555 4637 
Q 3966 4525 4313 4306 
L 4313 3634 
Q 3963 3931 3569 4081 
Q 3175 4231 2741 4231 
Q 1884 4231 1454 3753 
Q 1025 3275 1025 2328 
Q 1025 1384 1454 906 
Q 1884 428 2741 428 
Q 3075 428 3337 486 
Q 3600 544 3809 666 
z
" transform="scale(0.015625)"/>
    </defs>
    <use xlink:href="#DejaVuSans-43"/>
    <use xlink:href="#DejaVuSans-4f" x="69.824219"/>
    <use xlink:href="#DejaVuSans-53" x="148.535156"/>
    <use xlink:href="#DejaVuSans-49" x="212.011719"/>
    <use xlink:href="#DejaVuSans-4e" x="241.503906"/>
    <use xlink:href="#DejaVuSans-4f" x="316.308594"/>
    <use xlink:href="#DejaVuSans-52" x="395.019531"/>
    <use xlink:href="#DejaVuSans-20" x="464.501953"/>
    <use xlink:href="#DejaVuSans-4d" x="496.289062"/>
    <use xlink:href="#DejaVuSans-4f" x="582.568359"/>
    <use xlink:href="#DejaVuSans-44" x="661.279297"/>
    <use xlink:href="#DejaVuSans-45" x="738.28125"/>
    <use xlink:href="#DejaVuSans-4c" x="801.464844"/>
    <use xlink:href="#DejaVuSans-20" x="857.177734"/>
    <use xlink:href="#DejaVuSans-2d" x="888.964844"/>
    <use xlink:href="#DejaVuSans-20" x="925.048828"/>
    <use xlink:href="#DejaVuSans-30" x="956.835938"/>
    <use xlink:href="#DejaVuSans-20" x="1020.458984"/>
    <use xlink:href="#DejaVuSans-54" x="1052.246094"/>
    <use xlink:href="#DejaVuSans-52" x="1113.330078"/>
    <use xlink:href="#DejaVuSans-49" x="1182.8125"/>
    <use xlink:href="#DejaVuSans-41" x="1212.304688"/>
    <use xlink:href="#DejaVuSans-4e" x="1280.712891"/>
    <use xlink:href="#DejaVuSans-47" x="1355.517578"/>
    <use xlink:href="#DejaVuSans-4c" x="1433.007812"/>
    <use xlink:href="#DejaVuSans-45" x="1488.720703"/>
    <use xlink:href="#DejaVuSans-20" x="1551.904297"/>
    <use xlink:href="#DejaVuSans-30" x="1583.691406"/>
   </g>
  </g>
  <g id="text_18">
   <!-- TIME (HOURS FROM START OF PROTOCOL) -->
   <g transform="translate(297.576563 137.213175) scale(0.12 -0.12)">
    <defs>
     <path id="DejaVuSans-48" d="M 628 4666 
L 1259 4666 
L 1259 2753 
L 3553 2753 
L 3553 4666 
L 4184 4666 
L 4184 0 
L 3553 0 
L 3553 2222 
L 1259 2222 
L 1259 0 
L 628 0 
L 628 4666 
z
" transform="scale(0.015625)"/>
     <path id="DejaVuSans-55" d="M 556 4666 
L 1191 4666 
L 1191 1831 
Q 1191 1081 1462 751 
Q 1734 422 2344 422 
Q 2950 422 3222 751 
Q 3494 1081 3494 1831 
L 3494 4666 
L 4128 4666 
L 4128 1753 
Q 4128 841 3676 375 
Q 3225 -91 2344 -91 
Q 1459 -91 1007 375 
Q 556 841 556 1753 
L 556 4666 
z
" transform="scale(0.015625)"/>
     <path id="DejaVuSans-46" d="M 628 4666 
L 3309 4666 
L 3309 4134 
L 1259 4134 
L 1259 2759 
L 3109 2759 
L 3109 2228 
L 1259 2228 
L 1259 0 
L 628 0 
L 628 4666 
z
" transform="scale(0.015625)"/>
    </defs>
    <use xlink:href="#DejaVuSans-54"/>
    <use xlink:href="#DejaVuSans-49" x="61.083984"/>
    <use xlink:href="#DejaVuSans-4d" x="90.576172"/>
    <use xlink:href="#DejaVuSans-45" x="176.855469"/>
    <use xlink:href="#DejaVuSans-20" x="240.039062"/>
    <use xlink:href="#DejaVuSans-28" x="271.826172"/>
    <use xlink:href="#DejaVuSans-48" x="310.839844"/>
    <use xlink:href="#DejaVuSans-4f" x="386.035156"/>
    <use xlink:href="#DejaVuSans-55" x="464.746094"/>
    <use xlink:href="#DejaVuSans-52" x="537.939453"/>
    <use xlink:href="#DejaVuSans-53" x="607.421875"/>
    <use xlink:href="#DejaVuSans-20" x="670.898438"/>
    <use xlink:href="#DejaVuSans-46" x="702.685547"/>
    <use xlink:href="#DejaVuSans-52" x="760.205078"/>
    <use xlink:href="#DejaVuSans-4f" x="829.6875"/>
    <use xlink:href="#DejaVuSans-4d" x="908.398438"/>
    <use xlink:href="#DejaVuSans-20" x="994.677734"/>
    <use xlink:href="#DejaVuSans-53" x="1026.464844"/>
    <use xlink:href="#DejaVuSans-54" x="1089.941406"/>
    <use xlink:href="#DejaVuSans-41" x="1143.275391"/>
    <use xlink:href="#DejaVuSans-52" x="1211.683594"/>
    <use xlink:href="#DejaVuSans-54" x="1273.916016"/>
    <use xlink:href="#DejaVuSans-20" x="1335"/>
    <use xlink:href="#DejaVuSans-4f" x="1366.787109"/>
    <use xlink:href="#DejaVuSans-46" x="1445.498047"/>
    <use xlink:href="#DejaVuSans-20" x="1503.017578"/>
    <use xlink:href="#DejaVuSans-50" x="1534.804688"/>
    <use xlink:href="#DejaVuSans-52" x="1595.107422"/>
    <use xlink:href="#DejaVuSans-4f" x="1664.589844"/>
    <use xlink:href="#DejaVuSans-54" x="1743.300781"/>
    <use xlink:href="#DejaVuSans-4f" x="1804.384766"/>
    <use xlink:href="#DejaVuSans-43" x="1883.095703"/>
    <use xlink:href="#DejaVuSans-4f" x="1952.919922"/>
    <use xlink:href="#DejaVuSans-4c" x="2031.630859"/>
    <use xlink:href="#DejaVuSans-29" x="2087.34375"/>
   </g>
  </g>
  <g id="text_19">
   <!-- AMPLITUDE -->
   <g transform="translate(26.124525 105.039375) rotate(-90) scale(0.12 -0.12)">
    <use xlink:href="#DejaVuSans-41"/>
    <use xlink:href="#DejaVuSans-4d" x="68.408203"/>
    <use xlink:href="#DejaVuSans-50" x="154.6875"/>
    <use xlink:href="#DejaVuSans-4c" x="214.990234"/>
    <use xlink:href="#DejaVuSans-49" x="270.703125"/>
    <use xlink:href="#DejaVuSans-54" x="300.195312"/>
    <use xlink:href="#DejaVuSans-55" x="361.279297"/>
    <use xlink:href="#DejaVuSans-44" x="434.472656"/>
    <use xlink:href="#DejaVuSans-45" x="511.474609"/>
   </g>
  </g>
 </g>
 <defs>
  <clipPath id="p72586b0f79">
   <rect x="54.16" y="54.672" width="385.53" height="34.808"/>
  </clipPath>
  <clipPath id="p9a8beae982">
   <rect x="453.99" y="54.672" width="385.53" height="34.808"/>
  </clipPath>
 </defs>
</svg>
