<?xml version="1.0" encoding="utf-8" standalone="no"?>
<!DOCTYPE svg PUBLIC "-//W3C//DTD SVG 1.1//EN"
  "http://www.w3.org/Graphics/SVG/1.1/DTD/svg11.dtd">
<svg xmlns:xlink="http://www.w3.org/1999/xlink" width="864pt" height="360pt" viewBox="0 0 864 360" xmlns="http://www.w3.org/2000/svg" version="1.1">
 <metadata>
  <rdf:RDF xmlns:dc="http://purl.org/dc/elements/1.1/" xmlns:cc="http://creativecommons.org/ns#" xmlns:rdf="http://www.w3.org/1999/02/22-rdf-syntax-ns#">
   <cc:Work>
    <dc:type rdf:resource="http://purl.org/dc/dcmitype/StillImage"/>
    <dc:date>2023-08-03T16:43:10.869977</dc:date>
    <dc:format>image/svg+xml</dc:format>
    <dc:creator>
     <cc:Agent>
      <dc:title>Matplotlib v3.7.1, https://matplotlib.org/</dc:title>
     </cc:Agent>
    </dc:creator>
   </cc:Work>
  </rdf:RDF>
 </metadata>
 <defs>
  <style type="text/css">*{stroke-linejoin: round; stroke-linecap: butt}</style>
 </defs>
 <g id="figure_1">
  <g id="patch_1">
   <path d="M 0 360 
L 864 360 
L 864 0 
L 0 0 
z
" style="fill: #ffffff"/>
  </g>
  <g id="axes_1">
   <g id="patch_2">
    <path d="M 108 320.4 
L 777.6 320.4 
L 777.6 43.2 
L 108 43.2 
z
" style="fill: #ffffff"/>
   </g>
   <g id="matplotlib.axis_1">
    <g id="xtick_1">
     <g id="line2d_1">
      <defs>
       <path id="m2aa87178b9" d="M 0 0 
L 0 3.5 
" style="stroke: #000000; stroke-width: 0.8"/>
      </defs>
      <g>
       <use xlink:href="#m2aa87178b9" x="138.436364" y="320.4" style="stroke: #000000; stroke-width: 0.8"/>
      </g>
     </g>
     <g id="text_1">
      <!-- 2022-01-01 -->
      <g transform="translate(109.378551 334.998438) scale(0.1 -0.1)">
       <defs>
        <path id="DejaVuSans-32" d="M 1228 531 
L 3431 531 
L 3431 0 
L 469 0 
L 469 531 
Q 828 903 1448 1529 
Q 2069 2156 2228 2338 
Q 2531 2678 2651 2914 
Q 2772 3150 2772 3378 
Q 2772 3750 2511 3984 
Q 2250 4219 1831 4219 
Q 1534 4219 1204 4116 
Q 875 4013 500 3803 
L 500 4441 
Q 881 4594 1212 4672 
Q 1544 4750 1819 4750 
Q 2544 4750 2975 4387 
Q 3406 4025 3406 3419 
Q 3406 3131 3298 2873 
Q 3191 2616 2906 2266 
Q 2828 2175 2409 1742 
Q 1991 1309 1228 531 
z
" transform="scale(0.015625)"/>
        <path id="DejaVuSans-30" d="M 2034 4250 
Q 1547 4250 1301 3770 
Q 1056 3291 1056 2328 
Q 1056 1369 1301 889 
Q 1547 409 2034 409 
Q 2525 409 2770 889 
Q 3016 1369 3016 2328 
Q 3016 3291 2770 3770 
Q 2525 4250 2034 4250 
z
M 2034 4750 
Q 2819 4750 3233 4129 
Q 3647 3509 3647 2328 
Q 3647 1150 3233 529 
Q 2819 -91 2034 -91 
Q 1250 -91 836 529 
Q 422 1150 422 2328 
Q 422 3509 836 4129 
Q 1250 4750 2034 4750 
z
" transform="scale(0.015625)"/>
        <path id="DejaVuSans-2d" d="M 313 2009 
L 1997 2009 
L 1997 1497 
L 313 1497 
L 313 2009 
z
" transform="scale(0.015625)"/>
        <path id="DejaVuSans-31" d="M 794 531 
L 1825 531 
L 1825 4091 
L 703 3866 
L 703 4441 
L 1819 4666 
L 2450 4666 
L 2450 531 
L 3481 531 
L 3481 0 
L 794 0 
L 794 531 
z
" transform="scale(0.015625)"/>
       </defs>
       <use xlink:href="#DejaVuSans-32"/>
       <use xlink:href="#DejaVuSans-30" x="63.623047"/>
       <use xlink:href="#DejaVuSans-32" x="127.246094"/>
       <use xlink:href="#DejaVuSans-32" x="190.869141"/>
       <use xlink:href="#DejaVuSans-2d" x="254.492188"/>
       <use xlink:href="#DejaVuSans-30" x="290.576172"/>
       <use xlink:href="#DejaVuSans-31" x="354.199219"/>
       <use xlink:href="#DejaVuSans-2d" x="417.822266"/>
       <use xlink:href="#DejaVuSans-30" x="453.90625"/>
       <use xlink:href="#DejaVuSans-31" x="517.529297"/>
      </g>
     </g>
    </g>
    <g id="xtick_2">
     <g id="line2d_2">
      <g>
       <use xlink:href="#m2aa87178b9" x="214.626479" y="320.4" style="stroke: #000000; stroke-width: 0.8"/>
      </g>
     </g>
     <g id="text_2">
      <!-- 2022-01-03 -->
      <g transform="translate(185.568666 334.998438) scale(0.1 -0.1)">
       <defs>
        <path id="DejaVuSans-33" d="M 2597 2516 
Q 3050 2419 3304 2112 
Q 3559 1806 3559 1356 
Q 3559 666 3084 287 
Q 2609 -91 1734 -91 
Q 1441 -91 1130 -33 
Q 819 25 488 141 
L 488 750 
Q 750 597 1062 519 
Q 1375 441 1716 441 
Q 2309 441 2620 675 
Q 2931 909 2931 1356 
Q 2931 1769 2642 2001 
Q 2353 2234 1838 2234 
L 1294 2234 
L 1294 2753 
L 1863 2753 
Q 2328 2753 2575 2939 
Q 2822 3125 2822 3475 
Q 2822 3834 2567 4026 
Q 2313 4219 1838 4219 
Q 1578 4219 1281 4162 
Q 984 4106 628 3988 
L 628 4550 
Q 988 4650 1302 4700 
Q 1616 4750 1894 4750 
Q 2613 4750 3031 4423 
Q 3450 4097 3450 3541 
Q 3450 3153 3228 2886 
Q 3006 2619 2597 2516 
z
" transform="scale(0.015625)"/>
       </defs>
       <use xlink:href="#DejaVuSans-32"/>
       <use xlink:href="#DejaVuSans-30" x="63.623047"/>
       <use xlink:href="#DejaVuSans-32" x="127.246094"/>
       <use xlink:href="#DejaVuSans-32" x="190.869141"/>
       <use xlink:href="#DejaVuSans-2d" x="254.492188"/>
       <use xlink:href="#DejaVuSans-30" x="290.576172"/>
       <use xlink:href="#DejaVuSans-31" x="354.199219"/>
       <use xlink:href="#DejaVuSans-2d" x="417.822266"/>
       <use xlink:href="#DejaVuSans-30" x="453.90625"/>
       <use xlink:href="#DejaVuSans-33" x="517.529297"/>
      </g>
     </g>
    </g>
    <g id="xtick_3">
     <g id="line2d_3">
      <g>
       <use xlink:href="#m2aa87178b9" x="290.816594" y="320.4" style="stroke: #000000; stroke-width: 0.8"/>
      </g>
     </g>
     <g id="text_3">
      <!-- 2022-01-05 -->
      <g transform="translate(261.758781 334.998438) scale(0.1 -0.1)">
       <defs>
        <path id="DejaVuSans-35" d="M 691 4666 
L 3169 4666 
L 3169 4134 
L 1269 4134 
L 1269 2991 
Q 1406 3038 1543 3061 
Q 1681 3084 1819 3084 
Q 2600 3084 3056 2656 
Q 3513 2228 3513 1497 
Q 3513 744 3044 326 
Q 2575 -91 1722 -91 
Q 1428 -91 1123 -41 
Q 819 9 494 109 
L 494 744 
Q 775 591 1075 516 
Q 1375 441 1709 441 
Q 2250 441 2565 725 
Q 2881 1009 2881 1497 
Q 2881 1984 2565 2268 
Q 2250 2553 1709 2553 
Q 1456 2553 1204 2497 
Q 953 2441 691 2322 
L 691 4666 
z
" transform="scale(0.015625)"/>
       </defs>
       <use xlink:href="#DejaVuSans-32"/>
       <use xlink:href="#DejaVuSans-30" x="63.623047"/>
       <use xlink:href="#DejaVuSans-32" x="127.246094"/>
       <use xlink:href="#DejaVuSans-32" x="190.869141"/>
       <use xlink:href="#DejaVuSans-2d" x="254.492188"/>
       <use xlink:href="#DejaVuSans-30" x="290.576172"/>
       <use xlink:href="#DejaVuSans-31" x="354.199219"/>
       <use xlink:href="#DejaVuSans-2d" x="417.822266"/>
       <use xlink:href="#DejaVuSans-30" x="453.90625"/>
       <use xlink:href="#DejaVuSans-35" x="517.529297"/>
      </g>
     </g>
    </g>
    <g id="xtick_4">
     <g id="line2d_4">
      <g>
       <use xlink:href="#m2aa87178b9" x="367.006709" y="320.4" style="stroke: #000000; stroke-width: 0.8"/>
      </g>
     </g>
     <g id="text_4">
      <!-- 2022-01-07 -->
      <g transform="translate(337.948896 334.998438) scale(0.1 -0.1)">
       <defs>
        <path id="DejaVuSans-37" d="M 525 4666 
L 3525 4666 
L 3525 4397 
L 1831 0 
L 1172 0 
L 2766 4134 
L 525 4134 
L 525 4666 
z
" transform="scale(0.015625)"/>
       </defs>
       <use xlink:href="#DejaVuSans-32"/>
       <use xlink:href="#DejaVuSans-30" x="63.623047"/>
       <use xlink:href="#DejaVuSans-32" x="127.246094"/>
       <use xlink:href="#DejaVuSans-32" x="190.869141"/>
       <use xlink:href="#DejaVuSans-2d" x="254.492188"/>
       <use xlink:href="#DejaVuSans-30" x="290.576172"/>
       <use xlink:href="#DejaVuSans-31" x="354.199219"/>
       <use xlink:href="#DejaVuSans-2d" x="417.822266"/>
       <use xlink:href="#DejaVuSans-30" x="453.90625"/>
       <use xlink:href="#DejaVuSans-37" x="517.529297"/>
      </g>
     </g>
    </g>
    <g id="xtick_5">
     <g id="line2d_5">
      <g>
       <use xlink:href="#m2aa87178b9" x="443.196824" y="320.4" style="stroke: #000000; stroke-width: 0.8"/>
      </g>
     </g>
     <g id="text_5">
      <!-- 2022-01-09 -->
      <g transform="translate(414.139011 334.998438) scale(0.1 -0.1)">
       <defs>
        <path id="DejaVuSans-39" d="M 703 97 
L 703 672 
Q 941 559 1184 500 
Q 1428 441 1663 441 
Q 2288 441 2617 861 
Q 2947 1281 2994 2138 
Q 2813 1869 2534 1725 
Q 2256 1581 1919 1581 
Q 1219 1581 811 2004 
Q 403 2428 403 3163 
Q 403 3881 828 4315 
Q 1253 4750 1959 4750 
Q 2769 4750 3195 4129 
Q 3622 3509 3622 2328 
Q 3622 1225 3098 567 
Q 2575 -91 1691 -91 
Q 1453 -91 1209 -44 
Q 966 3 703 97 
z
M 1959 2075 
Q 2384 2075 2632 2365 
Q 2881 2656 2881 3163 
Q 2881 3666 2632 3958 
Q 2384 4250 1959 4250 
Q 1534 4250 1286 3958 
Q 1038 3666 1038 3163 
Q 1038 2656 1286 2365 
Q 1534 2075 1959 2075 
z
" transform="scale(0.015625)"/>
       </defs>
       <use xlink:href="#DejaVuSans-32"/>
       <use xlink:href="#DejaVuSans-30" x="63.623047"/>
       <use xlink:href="#DejaVuSans-32" x="127.246094"/>
       <use xlink:href="#DejaVuSans-32" x="190.869141"/>
       <use xlink:href="#DejaVuSans-2d" x="254.492188"/>
       <use xlink:href="#DejaVuSans-30" x="290.576172"/>
       <use xlink:href="#DejaVuSans-31" x="354.199219"/>
       <use xlink:href="#DejaVuSans-2d" x="417.822266"/>
       <use xlink:href="#DejaVuSans-30" x="453.90625"/>
       <use xlink:href="#DejaVuSans-39" x="517.529297"/>
      </g>
     </g>
    </g>
    <g id="xtick_6">
     <g id="line2d_6">
      <g>
       <use xlink:href="#m2aa87178b9" x="519.386938" y="320.4" style="stroke: #000000; stroke-width: 0.8"/>
      </g>
     </g>
     <g id="text_6">
      <!-- 2022-01-11 -->
      <g transform="translate(490.329126 334.998438) scale(0.1 -0.1)">
       <use xlink:href="#DejaVuSans-32"/>
       <use xlink:href="#DejaVuSans-30" x="63.623047"/>
       <use xlink:href="#DejaVuSans-32" x="127.246094"/>
       <use xlink:href="#DejaVuSans-32" x="190.869141"/>
       <use xlink:href="#DejaVuSans-2d" x="254.492188"/>
       <use xlink:href="#DejaVuSans-30" x="290.576172"/>
       <use xlink:href="#DejaVuSans-31" x="354.199219"/>
       <use xlink:href="#DejaVuSans-2d" x="417.822266"/>
       <use xlink:href="#DejaVuSans-31" x="453.90625"/>
       <use xlink:href="#DejaVuSans-31" x="517.529297"/>
      </g>
     </g>
    </g>
    <g id="xtick_7">
     <g id="line2d_7">
      <g>
       <use xlink:href="#m2aa87178b9" x="595.577053" y="320.4" style="stroke: #000000; stroke-width: 0.8"/>
      </g>
     </g>
     <g id="text_7">
      <!-- 2022-01-13 -->
      <g transform="translate(566.519241 334.998438) scale(0.1 -0.1)">
       <use xlink:href="#DejaVuSans-32"/>
       <use xlink:href="#DejaVuSans-30" x="63.623047"/>
       <use xlink:href="#DejaVuSans-32" x="127.246094"/>
       <use xlink:href="#DejaVuSans-32" x="190.869141"/>
       <use xlink:href="#DejaVuSans-2d" x="254.492188"/>
       <use xlink:href="#DejaVuSans-30" x="290.576172"/>
       <use xlink:href="#DejaVuSans-31" x="354.199219"/>
       <use xlink:href="#DejaVuSans-2d" x="417.822266"/>
       <use xlink:href="#DejaVuSans-31" x="453.90625"/>
       <use xlink:href="#DejaVuSans-33" x="517.529297"/>
      </g>
     </g>
    </g>
    <g id="xtick_8">
     <g id="line2d_8">
      <g>
       <use xlink:href="#m2aa87178b9" x="671.767168" y="320.4" style="stroke: #000000; stroke-width: 0.8"/>
      </g>
     </g>
     <g id="text_8">
      <!-- 2022-01-15 -->
      <g transform="translate(642.709356 334.998438) scale(0.1 -0.1)">
       <use xlink:href="#DejaVuSans-32"/>
       <use xlink:href="#DejaVuSans-30" x="63.623047"/>
       <use xlink:href="#DejaVuSans-32" x="127.246094"/>
       <use xlink:href="#DejaVuSans-32" x="190.869141"/>
       <use xlink:href="#DejaVuSans-2d" x="254.492188"/>
       <use xlink:href="#DejaVuSans-30" x="290.576172"/>
       <use xlink:href="#DejaVuSans-31" x="354.199219"/>
       <use xlink:href="#DejaVuSans-2d" x="417.822266"/>
       <use xlink:href="#DejaVuSans-31" x="453.90625"/>
       <use xlink:href="#DejaVuSans-35" x="517.529297"/>
      </g>
     </g>
    </g>
    <g id="xtick_9">
     <g id="line2d_9">
      <g>
       <use xlink:href="#m2aa87178b9" x="747.957283" y="320.4" style="stroke: #000000; stroke-width: 0.8"/>
      </g>
     </g>
     <g id="text_9">
      <!-- 2022-01-17 -->
      <g transform="translate(718.899471 334.998438) scale(0.1 -0.1)">
       <use xlink:href="#DejaVuSans-32"/>
       <use xlink:href="#DejaVuSans-30" x="63.623047"/>
       <use xlink:href="#DejaVuSans-32" x="127.246094"/>
       <use xlink:href="#DejaVuSans-32" x="190.869141"/>
       <use xlink:href="#DejaVuSans-2d" x="254.492188"/>
       <use xlink:href="#DejaVuSans-30" x="290.576172"/>
       <use xlink:href="#DejaVuSans-31" x="354.199219"/>
       <use xlink:href="#DejaVuSans-2d" x="417.822266"/>
       <use xlink:href="#DejaVuSans-31" x="453.90625"/>
       <use xlink:href="#DejaVuSans-37" x="517.529297"/>
      </g>
     </g>
    </g>
    <g id="text_10">
     <!-- TIME (DAYS) -->
     <g transform="translate(412.283594 348.676562) scale(0.1 -0.1)">
      <defs>
       <path id="DejaVuSans-54" d="M -19 4666 
L 3928 4666 
L 3928 4134 
L 2272 4134 
L 2272 0 
L 1638 0 
L 1638 4134 
L -19 4134 
L -19 4666 
z
" transform="scale(0.015625)"/>
       <path id="DejaVuSans-49" d="M 628 4666 
L 1259 4666 
L 1259 0 
L 628 0 
L 628 4666 
z
" transform="scale(0.015625)"/>
       <path id="DejaVuSans-4d" d="M 628 4666 
L 1569 4666 
L 2759 1491 
L 3956 4666 
L 4897 4666 
L 4897 0 
L 4281 0 
L 4281 4097 
L 3078 897 
L 2444 897 
L 1241 4097 
L 1241 0 
L 628 0 
L 628 4666 
z
" transform="scale(0.015625)"/>
       <path id="DejaVuSans-45" d="M 628 4666 
L 3578 4666 
L 3578 4134 
L 1259 4134 
L 1259 2753 
L 3481 2753 
L 3481 2222 
L 1259 2222 
L 1259 531 
L 3634 531 
L 3634 0 
L 628 0 
L 628 4666 
z
" transform="scale(0.015625)"/>
       <path id="DejaVuSans-20" transform="scale(0.015625)"/>
       <path id="DejaVuSans-28" d="M 1984 4856 
Q 1566 4138 1362 3434 
Q 1159 2731 1159 2009 
Q 1159 1288 1364 580 
Q 1569 -128 1984 -844 
L 1484 -844 
Q 1016 -109 783 600 
Q 550 1309 550 2009 
Q 550 2706 781 3412 
Q 1013 4119 1484 4856 
L 1984 4856 
z
" transform="scale(0.015625)"/>
       <path id="DejaVuSans-44" d="M 1259 4147 
L 1259 519 
L 2022 519 
Q 2988 519 3436 956 
Q 3884 1394 3884 2338 
Q 3884 3275 3436 3711 
Q 2988 4147 2022 4147 
L 1259 4147 
z
M 628 4666 
L 1925 4666 
Q 3281 4666 3915 4102 
Q 4550 3538 4550 2338 
Q 4550 1131 3912 565 
Q 3275 0 1925 0 
L 628 0 
L 628 4666 
z
" transform="scale(0.015625)"/>
       <path id="DejaVuSans-41" d="M 2188 4044 
L 1331 1722 
L 3047 1722 
L 2188 4044 
z
M 1831 4666 
L 2547 4666 
L 4325 0 
L 3669 0 
L 3244 1197 
L 1141 1197 
L 716 0 
L 50 0 
L 1831 4666 
z
" transform="scale(0.015625)"/>
       <path id="DejaVuSans-59" d="M -13 4666 
L 666 4666 
L 1959 2747 
L 3244 4666 
L 3922 4666 
L 2272 2222 
L 2272 0 
L 1638 0 
L 1638 2222 
L -13 4666 
z
" transform="scale(0.015625)"/>
       <path id="DejaVuSans-53" d="M 3425 4513 
L 3425 3897 
Q 3066 4069 2747 4153 
Q 2428 4238 2131 4238 
Q 1616 4238 1336 4038 
Q 1056 3838 1056 3469 
Q 1056 3159 1242 3001 
Q 1428 2844 1947 2747 
L 2328 2669 
Q 3034 2534 3370 2195 
Q 3706 1856 3706 1288 
Q 3706 609 3251 259 
Q 2797 -91 1919 -91 
Q 1588 -91 1214 -16 
Q 841 59 441 206 
L 441 856 
Q 825 641 1194 531 
Q 1563 422 1919 422 
Q 2459 422 2753 634 
Q 3047 847 3047 1241 
Q 3047 1584 2836 1778 
Q 2625 1972 2144 2069 
L 1759 2144 
Q 1053 2284 737 2584 
Q 422 2884 422 3419 
Q 422 4038 858 4394 
Q 1294 4750 2059 4750 
Q 2388 4750 2728 4690 
Q 3069 4631 3425 4513 
z
" transform="scale(0.015625)"/>
       <path id="DejaVuSans-29" d="M 513 4856 
L 1013 4856 
Q 1481 4119 1714 3412 
Q 1947 2706 1947 2009 
Q 1947 1309 1714 600 
Q 1481 -109 1013 -844 
L 513 -844 
Q 928 -128 1133 580 
Q 1338 1288 1338 2009 
Q 1338 2731 1133 3434 
Q 928 4138 513 4856 
z
" transform="scale(0.015625)"/>
      </defs>
      <use xlink:href="#DejaVuSans-54"/>
      <use xlink:href="#DejaVuSans-49" x="61.083984"/>
      <use xlink:href="#DejaVuSans-4d" x="90.576172"/>
      <use xlink:href="#DejaVuSans-45" x="176.855469"/>
      <use xlink:href="#DejaVuSans-20" x="240.039062"/>
      <use xlink:href="#DejaVuSans-28" x="271.826172"/>
      <use xlink:href="#DejaVuSans-44" x="310.839844"/>
      <use xlink:href="#DejaVuSans-41" x="386.091797"/>
      <use xlink:href="#DejaVuSans-59" x="446.75"/>
      <use xlink:href="#DejaVuSans-53" x="507.833984"/>
      <use xlink:href="#DejaVuSans-29" x="571.310547"/>
     </g>
    </g>
   </g>
   <g id="matplotlib.axis_2">
    <g id="ytick_1">
     <g id="line2d_10">
      <defs>
       <path id="ma288418dd0" d="M 0 0 
L -3.5 0 
" style="stroke: #000000; stroke-width: 0.8"/>
      </defs>
      <g>
       <use xlink:href="#ma288418dd0" x="108" y="307.8" style="stroke: #000000; stroke-width: 0.8"/>
      </g>
     </g>
     <g id="text_11">
      <!-- 0 -->
      <g transform="translate(94.6375 311.599219) scale(0.1 -0.1)">
       <use xlink:href="#DejaVuSans-30"/>
      </g>
     </g>
    </g>
    <g id="ytick_2">
     <g id="line2d_11">
      <g>
       <use xlink:href="#ma288418dd0" x="108" y="262.476259" style="stroke: #000000; stroke-width: 0.8"/>
      </g>
     </g>
     <g id="text_12">
      <!-- 50 -->
      <g transform="translate(88.275 266.275478) scale(0.1 -0.1)">
       <use xlink:href="#DejaVuSans-35"/>
       <use xlink:href="#DejaVuSans-30" x="63.623047"/>
      </g>
     </g>
    </g>
    <g id="ytick_3">
     <g id="line2d_12">
      <g>
       <use xlink:href="#ma288418dd0" x="108" y="217.152518" style="stroke: #000000; stroke-width: 0.8"/>
      </g>
     </g>
     <g id="text_13">
      <!-- 100 -->
      <g transform="translate(81.9125 220.951737) scale(0.1 -0.1)">
       <use xlink:href="#DejaVuSans-31"/>
       <use xlink:href="#DejaVuSans-30" x="63.623047"/>
       <use xlink:href="#DejaVuSans-30" x="127.246094"/>
      </g>
     </g>
    </g>
    <g id="ytick_4">
     <g id="line2d_13">
      <g>
       <use xlink:href="#ma288418dd0" x="108" y="171.828777" style="stroke: #000000; stroke-width: 0.8"/>
      </g>
     </g>
     <g id="text_14">
      <!-- 150 -->
      <g transform="translate(81.9125 175.627996) scale(0.1 -0.1)">
       <use xlink:href="#DejaVuSans-31"/>
       <use xlink:href="#DejaVuSans-35" x="63.623047"/>
       <use xlink:href="#DejaVuSans-30" x="127.246094"/>
      </g>
     </g>
    </g>
    <g id="ytick_5">
     <g id="line2d_14">
      <g>
       <use xlink:href="#ma288418dd0" x="108" y="126.505036" style="stroke: #000000; stroke-width: 0.8"/>
      </g>
     </g>
     <g id="text_15">
      <!-- 200 -->
      <g transform="translate(81.9125 130.304255) scale(0.1 -0.1)">
       <use xlink:href="#DejaVuSans-32"/>
       <use xlink:href="#DejaVuSans-30" x="63.623047"/>
       <use xlink:href="#DejaVuSans-30" x="127.246094"/>
      </g>
     </g>
    </g>
    <g id="ytick_6">
     <g id="line2d_15">
      <g>
       <use xlink:href="#ma288418dd0" x="108" y="81.181295" style="stroke: #000000; stroke-width: 0.8"/>
      </g>
     </g>
     <g id="text_16">
      <!-- 250 -->
      <g transform="translate(81.9125 84.980514) scale(0.1 -0.1)">
       <use xlink:href="#DejaVuSans-32"/>
       <use xlink:href="#DejaVuSans-35" x="63.623047"/>
       <use xlink:href="#DejaVuSans-30" x="127.246094"/>
      </g>
     </g>
    </g>
    <g id="text_17">
     <!-- AMPLITUDE -->
     <g transform="translate(75.832812 210.532812) rotate(-90) scale(0.1 -0.1)">
      <defs>
       <path id="DejaVuSans-50" d="M 1259 4147 
L 1259 2394 
L 2053 2394 
Q 2494 2394 2734 2622 
Q 2975 2850 2975 3272 
Q 2975 3691 2734 3919 
Q 2494 4147 2053 4147 
L 1259 4147 
z
M 628 4666 
L 2053 4666 
Q 2838 4666 3239 4311 
Q 3641 3956 3641 3272 
Q 3641 2581 3239 2228 
Q 2838 1875 2053 1875 
L 1259 1875 
L 1259 0 
L 628 0 
L 628 4666 
z
" transform="scale(0.015625)"/>
       <path id="DejaVuSans-4c" d="M 628 4666 
L 1259 4666 
L 1259 531 
L 3531 531 
L 3531 0 
L 628 0 
L 628 4666 
z
" transform="scale(0.015625)"/>
       <path id="DejaVuSans-55" d="M 556 4666 
L 1191 4666 
L 1191 1831 
Q 1191 1081 1462 751 
Q 1734 422 2344 422 
Q 2950 422 3222 751 
Q 3494 1081 3494 1831 
L 3494 4666 
L 4128 4666 
L 4128 1753 
Q 4128 841 3676 375 
Q 3225 -91 2344 -91 
Q 1459 -91 1007 375 
Q 556 841 556 1753 
L 556 4666 
z
" transform="scale(0.015625)"/>
      </defs>
      <use xlink:href="#DejaVuSans-41"/>
      <use xlink:href="#DejaVuSans-4d" x="68.408203"/>
      <use xlink:href="#DejaVuSans-50" x="154.6875"/>
      <use xlink:href="#DejaVuSans-4c" x="214.990234"/>
      <use xlink:href="#DejaVuSans-49" x="270.703125"/>
      <use xlink:href="#DejaVuSans-54" x="300.195312"/>
      <use xlink:href="#DejaVuSans-55" x="361.279297"/>
      <use xlink:href="#DejaVuSans-44" x="434.472656"/>
      <use xlink:href="#DejaVuSans-45" x="511.474609"/>
     </g>
    </g>
   </g>
   <g id="line2d_16">
    <path d="M 138.436364 122.879137 
L 139.230011 303.267626 
L 140.023658 307.8 
L 140.817305 232.56259 
L 141.610952 216.246043 
L 143.198246 285.138129 
L 143.991893 307.8 
L 144.78554 307.8 
L 145.579187 285.138129 
L 146.372834 307.8 
L 147.166481 307.8 
L 147.960128 283.32518 
L 148.753775 298.735252 
L 149.547422 307.8 
L 150.341069 307.8 
L 151.134716 297.828777 
L 151.928363 257.03741 
L 152.72201 307.8 
L 153.515657 290.576978 
L 154.309304 247.066187 
L 155.102951 299.641727 
L 155.896598 307.8 
L 156.690245 282.418705 
L 157.483892 307.8 
L 158.277539 124.692086 
L 159.071186 276.073381 
L 159.864833 58.519424 
L 160.658481 194.490647 
L 161.452128 184.519424 
L 162.245775 250.692086 
L 163.039422 270.634532 
L 163.833069 184.519424 
L 164.626716 273.353957 
L 165.420363 246.159712 
L 166.21401 263.382734 
L 167.007657 223.497842 
L 167.801304 220.778417 
L 168.594951 273.353957 
L 169.388598 235.282014 
L 170.182245 133.756835 
L 170.975892 239.814388 
L 171.769539 177.267626 
L 172.563186 307.8 
L 173.356833 55.8 
L 174.15048 265.195683 
L 174.944127 201.742446 
L 175.737774 153.699281 
L 176.531421 237.094964 
L 177.325068 307.8 
L 180.499656 307.8 
L 181.293303 281.51223 
L 182.08695 307.8 
L 184.467891 307.8 
L 185.261538 239.814388 
L 186.055185 276.073381 
L 186.848833 209.900719 
L 187.64248 289.670504 
L 188.436127 303.267626 
L 189.229774 286.044604 
L 190.023421 280.605755 
L 190.817068 307.8 
L 191.610715 197.210072 
L 192.404362 307.8 
L 193.991656 247.066187 
L 194.785303 307.8 
L 196.372597 307.8 
L 197.166244 174.548201 
L 197.959891 177.267626 
L 198.753538 307.8 
L 199.547185 231.656115 
L 200.340832 256.130935 
L 201.134479 177.267626 
L 201.928126 198.116547 
L 202.721773 211.713669 
L 203.51542 178.174101 
L 204.309067 192.677698 
L 205.102714 251.598561 
L 205.896361 126.505036 
L 206.690008 206.27482 
L 207.483655 192.677698 
L 208.277302 233.469065 
L 209.070949 298.735252 
L 209.864596 246.159712 
L 210.658243 244.346763 
L 211.45189 125.598561 
L 212.245538 273.353957 
L 213.039185 147.353957 
L 213.832832 215.339568 
L 214.626479 200.835971 
L 215.420126 244.346763 
L 216.213773 245.253237 
L 217.00742 307.8 
L 219.388361 307.8 
L 220.182008 303.267626 
L 220.975655 307.8 
L 224.150243 307.8 
L 224.94389 296.922302 
L 225.737537 307.8 
L 226.531184 285.138129 
L 227.324831 307.8 
L 228.912125 307.8 
L 229.705772 212.620144 
L 230.499419 306.893525 
L 231.293066 282.418705 
L 232.086713 241.627338 
L 232.88036 307.8 
L 234.467654 307.8 
L 235.261301 202.648921 
L 236.054948 212.620144 
L 236.848595 116.533813 
L 237.642243 307.8 
L 238.43589 290.576978 
L 239.229537 134.663309 
L 240.023184 168.202878 
L 240.816831 154.605755 
L 241.610478 307.8 
L 242.404125 238.907914 
L 243.197772 307.8 
L 243.991419 249.785612 
L 244.785066 231.656115 
L 245.578713 232.56259 
L 246.37236 272.447482 
L 247.166007 254.317986 
L 247.959654 233.469065 
L 248.753301 275.166906 
L 249.546948 228.936691 
L 250.340595 244.346763 
L 251.134242 151.886331 
L 251.927889 199.023022 
L 252.721536 262.476259 
L 253.515183 215.339568 
L 255.102477 307.8 
L 255.896124 289.670504 
L 256.689771 307.8 
L 257.483418 231.656115 
L 258.277065 257.943885 
L 259.070712 307.8 
L 263.832595 307.8 
L 264.626242 303.267626 
L 265.419889 307.8 
L 266.213536 267.008633 
L 267.007183 307.8 
L 267.80083 307.8 
L 268.594477 294.202878 
L 269.388124 307.8 
L 270.181771 283.32518 
L 270.975418 213.526619 
L 271.769065 237.094964 
L 272.562712 307.8 
L 273.356359 307.8 
L 274.150006 145.541007 
L 274.943653 159.138129 
L 275.7373 169.109353 
L 276.530947 205.368345 
L 277.324594 218.965468 
L 278.118241 307.8 
L 278.911888 131.03741 
L 279.705535 215.339568 
L 280.499182 248.879137 
L 281.292829 274.260432 
L 282.086476 169.109353 
L 282.880123 103.843165 
L 283.67377 161.857554 
L 284.467417 256.130935 
L 285.261064 225.310791 
L 286.054711 280.605755 
L 286.848358 141.915108 
L 287.642005 177.267626 
L 288.435652 291.483453 
L 289.2293 264.289209 
L 290.022947 105.656115 
L 290.816594 184.519424 
L 291.610241 222.591367 
L 292.403888 89.339568 
L 293.197535 292.389928 
L 293.991182 289.670504 
L 294.784829 307.8 
L 295.578476 229.843165 
L 296.372123 307.8 
L 297.16577 235.282014 
L 297.959417 224.404317 
L 298.753064 290.576978 
L 299.546711 304.174101 
L 300.340358 307.8 
L 302.721299 307.8 
L 303.514946 280.605755 
L 304.308593 307.8 
L 305.10224 307.8 
L 305.895887 226.217266 
L 306.689534 212.620144 
L 307.483181 271.541007 
L 308.276828 299.641727 
L 309.070475 307.8 
L 309.864122 300.548201 
L 310.657769 298.735252 
L 311.451416 281.51223 
L 312.245063 207.181295 
L 313.03871 307.8 
L 313.832357 278.792806 
L 314.626005 154.605755 
L 315.419652 207.181295 
L 316.213299 202.648921 
L 317.006946 169.109353 
L 317.800593 280.605755 
L 318.59424 141.008633 
L 319.387887 307.8 
L 320.181534 296.922302 
L 320.975181 288.764029 
L 321.768828 218.965468 
L 322.562475 120.159712 
L 323.356122 207.181295 
L 324.149769 278.792806 
L 324.943416 270.634532 
L 325.737063 238.001439 
L 326.53071 277.886331 
L 327.324357 211.713669 
L 328.118004 307.8 
L 328.911651 220.778417 
L 329.705298 120.159712 
L 330.498945 264.289209 
L 331.292592 222.591367 
L 332.086239 149.166906 
L 332.879886 269.728058 
L 333.673533 307.8 
L 334.46718 289.670504 
L 335.260827 151.886331 
L 336.054474 266.102158 
L 336.848121 307.8 
L 337.641768 229.843165 
L 338.435415 307.8 
L 339.229062 201.742446 
L 340.022709 291.483453 
L 340.816357 307.8 
L 341.610004 231.656115 
L 342.403651 307.8 
L 343.197298 268.821583 
L 343.990945 307.8 
L 344.784592 307.8 
L 345.578239 230.74964 
L 346.371886 212.620144 
L 347.165533 307.8 
L 347.95918 195.397122 
L 348.752827 282.418705 
L 349.546474 307.8 
L 350.340121 307.8 
L 351.133768 240.720863 
L 351.927415 301.454676 
L 352.721062 232.56259 
L 353.514709 142.821583 
L 354.308356 120.159712 
L 355.102003 192.677698 
L 355.89565 170.015827 
L 356.689297 200.835971 
L 357.482944 177.267626 
L 358.276591 161.857554 
L 359.070238 291.483453 
L 359.863885 185.425899 
L 360.657532 119.253237 
L 361.451179 210.807194 
L 362.244826 244.346763 
L 363.038473 257.943885 
L 363.83212 204.461871 
L 364.625767 260.663309 
L 365.419414 218.058993 
L 366.213062 226.217266 
L 367.006709 217.152518 
L 367.800356 160.951079 
L 368.594003 158.231655 
L 369.38765 189.051799 
L 370.181297 307.8 
L 370.974944 294.202878 
L 371.768591 307.8 
L 372.562238 307.8 
L 373.355885 289.670504 
L 374.149532 307.8 
L 374.943179 245.253237 
L 375.736826 307.8 
L 376.530473 279.699281 
L 377.32412 307.8 
L 378.117767 266.102158 
L 378.911414 307.8 
L 380.498708 307.8 
L 381.292355 283.32518 
L 382.086002 307.8 
L 382.879649 307.8 
L 383.673296 300.548201 
L 384.466943 237.094964 
L 385.26059 276.979856 
L 386.054237 214.433094 
L 386.847884 254.317986 
L 387.641531 307.8 
L 388.435178 280.605755 
L 389.228825 307.8 
L 390.022472 241.627338 
L 390.816119 154.605755 
L 391.609767 171.828777 
L 392.403414 130.130935 
L 393.197061 286.044604 
L 393.990708 205.368345 
L 394.784355 307.8 
L 395.578002 220.778417 
L 396.371649 307.8 
L 397.165296 161.857554 
L 397.958943 282.418705 
L 398.75259 232.56259 
L 399.546237 166.389928 
L 400.339884 155.51223 
L 401.133531 295.109353 
L 401.927178 286.951079 
L 402.720825 219.871942 
L 403.514472 137.382734 
L 404.308119 179.98705 
L 405.101766 275.166906 
L 405.895413 284.231655 
L 406.68906 295.109353 
L 407.482707 247.066187 
L 408.276354 267.008633 
L 409.070001 307.8 
L 409.863648 307.8 
L 410.657295 289.670504 
L 411.450942 301.454676 
L 412.244589 238.907914 
L 413.038236 307.8 
L 414.62553 307.8 
L 415.419177 299.641727 
L 416.212824 307.8 
L 418.593766 307.8 
L 419.387413 158.231655 
L 420.18106 307.8 
L 420.974707 307.8 
L 421.768354 260.663309 
L 422.562001 307.8 
L 423.355648 305.98705 
L 424.149295 289.670504 
L 424.942942 238.907914 
L 425.736589 307.8 
L 426.530236 240.720863 
L 427.323883 199.023022 
L 428.11753 273.353957 
L 428.911177 298.735252 
L 429.704824 307.8 
L 431.292118 175.454676 
L 432.085765 259.756835 
L 432.879412 190.864748 
L 433.673059 179.98705 
L 435.260353 302.361151 
L 436.054 108.37554 
L 436.847647 219.871942 
L 437.641294 131.943885 
L 438.434941 181.8 
L 439.228588 219.871942 
L 440.022235 307.8 
L 440.815882 191.771223 
L 441.609529 135.569784 
L 442.403176 152.792806 
L 443.196824 246.159712 
L 443.990471 184.519424 
L 444.784118 272.447482 
L 445.577765 250.692086 
L 446.371412 191.771223 
L 447.165059 122.879137 
L 447.958706 302.361151 
L 448.752353 273.353957 
L 449.546 294.202878 
L 450.339647 255.22446 
L 451.133294 307.8 
L 451.926941 307.8 
L 452.720588 125.598561 
L 453.514235 269.728058 
L 454.307882 189.958273 
L 455.101529 307.8 
L 455.895176 276.979856 
L 456.688823 307.8 
L 457.48247 307.8 
L 458.276117 180.893525 
L 459.069764 289.670504 
L 459.863411 307.8 
L 460.657058 272.447482 
L 461.450705 264.289209 
L 462.244352 234.37554 
L 463.037999 280.605755 
L 463.831646 165.483453 
L 464.625293 307.8 
L 466.212587 307.8 
L 467.006234 222.591367 
L 467.799881 214.433094 
L 468.593529 181.8 
L 469.387176 164.576978 
L 470.180823 189.958273 
L 470.97447 111.094964 
L 471.768117 238.907914 
L 472.561764 168.202878 
L 473.355411 111.094964 
L 474.149058 261.569784 
L 474.942705 157.32518 
L 475.736352 217.152518 
L 476.529999 140.102158 
L 477.323646 307.8 
L 478.117293 188.145324 
L 478.91094 227.123741 
L 479.704587 223.497842 
L 480.498234 189.958273 
L 481.291881 298.735252 
L 482.085528 224.404317 
L 482.879175 185.425899 
L 483.672822 252.505036 
L 484.466469 292.389928 
L 485.260116 288.764029 
L 486.053763 141.915108 
L 486.84741 172.735252 
L 488.434704 307.8 
L 489.228351 199.929496 
L 490.021998 219.871942 
L 490.815645 257.03741 
L 491.609292 226.217266 
L 492.402939 234.37554 
L 493.196586 288.764029 
L 493.990233 267.008633 
L 494.783881 267.008633 
L 495.577528 250.692086 
L 496.371175 307.8 
L 497.164822 248.879137 
L 497.958469 258.85036 
L 498.752116 307.8 
L 499.545763 307.8 
L 500.33941 247.972662 
L 501.133057 307.8 
L 501.926704 307.8 
L 502.720351 306.893525 
L 503.513998 307.8 
L 504.307645 254.317986 
L 505.101292 307.8 
L 505.894939 258.85036 
L 506.688586 307.8 
L 507.482233 189.051799 
L 508.27588 253.411511 
L 509.069527 103.843165 
L 509.863174 184.519424 
L 510.656821 162.764029 
L 511.450468 290.576978 
L 512.244115 242.533813 
L 513.037762 162.764029 
L 513.831409 267.008633 
L 514.625056 166.389928 
L 515.418703 278.792806 
L 516.21235 224.404317 
L 517.005997 230.74964 
L 517.799644 261.569784 
L 518.593291 229.843165 
L 519.386938 231.656115 
L 520.180586 238.001439 
L 520.974233 134.663309 
L 521.76788 261.569784 
L 522.561527 274.260432 
L 523.355174 282.418705 
L 524.148821 209.900719 
L 524.942468 166.389928 
L 525.736115 226.217266 
L 526.529762 168.202878 
L 527.323409 307.8 
L 530.497997 307.8 
L 531.291644 301.454676 
L 532.085291 186.332374 
L 532.878938 270.634532 
L 533.672585 197.210072 
L 534.466232 307.8 
L 536.053526 307.8 
L 536.847173 199.023022 
L 537.64082 283.32518 
L 538.434467 286.951079 
L 539.228114 307.8 
L 540.021761 210.807194 
L 540.815408 303.267626 
L 541.609055 248.879137 
L 542.402702 307.8 
L 543.196349 279.699281 
L 543.989996 299.641727 
L 544.783643 307.8 
L 546.370938 307.8 
L 547.164585 242.533813 
L 547.958232 240.720863 
L 548.751879 151.886331 
L 549.545526 307.8 
L 550.339173 286.044604 
L 551.13282 60.332374 
L 551.926467 133.756835 
L 552.720114 236.188489 
L 553.513761 221.684892 
L 554.307408 243.440288 
L 555.101055 208.994245 
L 555.894702 238.907914 
L 556.688349 285.138129 
L 557.481996 216.246043 
L 558.275643 290.576978 
L 559.06929 222.591367 
L 559.862937 205.368345 
L 560.656584 168.202878 
L 561.450231 159.138129 
L 562.243878 95.684892 
L 563.037525 181.8 
L 563.831172 290.576978 
L 564.624819 216.246043 
L 565.418466 307.8 
L 566.212113 256.130935 
L 567.00576 268.821583 
L 567.799407 208.08777 
L 568.593054 226.217266 
L 569.386701 277.886331 
L 570.180348 307.8 
L 570.973995 307.8 
L 571.767643 201.742446 
L 572.56129 307.8 
L 573.354937 268.821583 
L 574.148584 287.857554 
L 574.942231 275.166906 
L 575.735878 278.792806 
L 576.529525 229.843165 
L 577.323172 307.8 
L 578.116819 261.569784 
L 578.910466 307.8 
L 582.878701 307.8 
L 583.672348 266.102158 
L 584.465995 307.8 
L 585.259642 305.080576 
L 586.053289 307.8 
L 586.846936 268.821583 
L 587.640583 109.282014 
L 588.43423 248.879137 
L 589.227877 187.238849 
L 590.021524 148.260432 
L 590.815171 249.785612 
L 591.608818 209.900719 
L 592.402465 302.361151 
L 593.196112 285.138129 
L 593.989759 307.8 
L 594.783406 285.138129 
L 595.577053 89.339568 
L 596.3707 149.166906 
L 597.164348 179.080576 
L 597.957995 118.346763 
L 598.751642 216.246043 
L 599.545289 224.404317 
L 600.338936 199.023022 
L 601.132583 167.296403 
L 602.719877 282.418705 
L 603.513524 170.015827 
L 604.307171 288.764029 
L 605.100818 167.296403 
L 605.894465 247.972662 
L 606.688112 254.317986 
L 607.481759 307.8 
L 608.275406 307.8 
L 609.069053 267.915108 
L 609.8627 307.8 
L 610.656347 245.253237 
L 611.449994 265.195683 
L 612.243641 307.8 
L 613.037288 307.8 
L 613.830935 186.332374 
L 614.624582 303.267626 
L 615.418229 307.8 
L 616.211876 307.8 
L 617.005523 305.080576 
L 617.79917 124.692086 
L 618.592817 307.8 
L 619.386464 300.548201 
L 620.180111 307.8 
L 620.973758 242.533813 
L 621.767405 276.073381 
L 622.561053 216.246043 
L 623.3547 137.382734 
L 624.148347 307.8 
L 626.529288 307.8 
L 627.322935 271.541007 
L 628.116582 103.843165 
L 628.910229 202.648921 
L 629.703876 224.404317 
L 630.497523 152.792806 
L 631.29117 200.835971 
L 632.084817 128.317986 
L 632.878464 211.713669 
L 633.672111 168.202878 
L 634.465758 111.094964 
L 635.259405 228.936691 
L 636.053052 143.728058 
L 636.846699 148.260432 
L 637.640346 206.27482 
L 638.433993 246.159712 
L 639.22764 127.411511 
L 640.021287 185.425899 
L 640.814934 306.893525 
L 642.402228 162.764029 
L 643.195875 294.202878 
L 643.989522 184.519424 
L 644.783169 195.397122 
L 645.576816 178.174101 
L 646.370463 182.706475 
L 647.16411 219.871942 
L 647.957757 307.8 
L 648.751405 212.620144 
L 649.545052 307.8 
L 650.338699 307.8 
L 651.132346 294.202878 
L 651.925993 307.8 
L 654.306934 307.8 
L 655.100581 281.51223 
L 655.894228 259.756835 
L 656.687875 307.8 
L 657.481522 307.8 
L 658.275169 300.548201 
L 659.068816 256.130935 
L 659.862463 299.641727 
L 660.65611 307.8 
L 664.624345 307.8 
L 665.417992 293.296403 
L 666.211639 258.85036 
L 667.005286 307.8 
L 667.798933 244.346763 
L 668.59258 255.22446 
L 669.386227 197.210072 
L 670.179874 219.871942 
L 670.973521 206.27482 
L 671.767168 243.440288 
L 672.560815 248.879137 
L 673.354462 166.389928 
L 674.14811 189.958273 
L 674.941757 158.231655 
L 675.735404 218.058993 
L 676.529051 211.713669 
L 677.322698 198.116547 
L 678.116345 142.821583 
L 678.909992 241.627338 
L 679.703639 220.778417 
L 681.290933 100.217266 
L 682.878227 257.03741 
L 683.671874 158.231655 
L 684.465521 257.943885 
L 685.259168 144.634532 
L 686.052815 307.8 
L 686.846462 168.202878 
L 687.640109 307.8 
L 688.433756 228.030216 
L 689.227403 307.8 
L 693.195638 307.8 
L 693.989285 275.166906 
L 694.782932 282.418705 
L 696.370226 307.8 
L 697.163873 179.080576 
L 697.95752 286.044604 
L 698.751167 307.8 
L 700.338462 307.8 
L 701.132109 208.08777 
L 701.925756 307.8 
L 702.719403 272.447482 
L 703.51305 307.8 
L 705.893991 307.8 
L 706.687638 272.447482 
L 707.481285 275.166906 
L 708.274932 208.08777 
L 709.068579 242.533813 
L 709.862226 269.728058 
L 710.655873 83.900719 
L 711.44952 207.181295 
L 712.243167 223.497842 
L 713.036814 276.979856 
L 713.830461 277.886331 
L 714.624108 179.080576 
L 715.417755 306.893525 
L 716.211402 136.476259 
L 717.005049 203.555396 
L 717.798696 226.217266 
L 718.592343 189.051799 
L 719.38599 243.440288 
L 720.179637 268.821583 
L 720.973284 176.361151 
L 721.766931 178.174101 
L 722.560578 167.296403 
L 723.354225 190.864748 
L 724.147872 251.598561 
L 724.941519 199.929496 
L 725.735167 198.116547 
L 726.528814 232.56259 
L 727.322461 307.8 
L 728.116108 307.8 
L 728.909755 281.51223 
L 729.703402 205.368345 
L 730.497049 307.8 
L 731.290696 307.8 
L 732.084343 202.648921 
L 732.87799 293.296403 
L 733.671637 307.8 
L 735.258931 307.8 
L 736.052578 266.102158 
L 736.846225 258.85036 
L 737.639872 307.8 
L 738.433519 222.591367 
L 739.227166 307.8 
L 740.020813 295.109353 
L 740.81446 295.109353 
L 741.608107 215.339568 
L 742.401754 252.505036 
L 743.195401 307.8 
L 743.989048 307.8 
L 744.782695 296.015827 
L 745.576342 256.130935 
L 746.369989 307.8 
L 747.163636 307.8 
L 747.163636 307.8 
" clip-path="url(#pee4448fccf)" style="fill: none; stroke: #191970; stroke-width: 2; stroke-linecap: square"/>
   </g>
   <g id="patch_3">
    <path d="M 108 320.4 
L 108 43.2 
" style="fill: none; stroke: #000000; stroke-width: 0.8; stroke-linejoin: miter; stroke-linecap: square"/>
   </g>
   <g id="patch_4">
    <path d="M 777.6 320.4 
L 777.6 43.2 
" style="fill: none; stroke: #000000; stroke-width: 0.8; stroke-linejoin: miter; stroke-linecap: square"/>
   </g>
   <g id="patch_5">
    <path d="M 108 320.4 
L 777.6 320.4 
" style="fill: none; stroke: #000000; stroke-width: 0.8; stroke-linejoin: miter; stroke-linecap: square"/>
   </g>
   <g id="patch_6">
    <path d="M 108 43.2 
L 777.6 43.2 
" style="fill: none; stroke: #000000; stroke-width: 0.8; stroke-linejoin: miter; stroke-linecap: square"/>
   </g>
   <g id="text_18">
    <!-- TIME SERIES -->
    <g transform="translate(405.350625 37.2) scale(0.12 -0.12)">
     <defs>
      <path id="DejaVuSans-52" d="M 2841 2188 
Q 3044 2119 3236 1894 
Q 3428 1669 3622 1275 
L 4263 0 
L 3584 0 
L 2988 1197 
Q 2756 1666 2539 1819 
Q 2322 1972 1947 1972 
L 1259 1972 
L 1259 0 
L 628 0 
L 628 4666 
L 2053 4666 
Q 2853 4666 3247 4331 
Q 3641 3997 3641 3322 
Q 3641 2881 3436 2590 
Q 3231 2300 2841 2188 
z
M 1259 4147 
L 1259 2491 
L 2053 2491 
Q 2509 2491 2742 2702 
Q 2975 2913 2975 3322 
Q 2975 3731 2742 3939 
Q 2509 4147 2053 4147 
L 1259 4147 
z
" transform="scale(0.015625)"/>
     </defs>
     <use xlink:href="#DejaVuSans-54"/>
     <use xlink:href="#DejaVuSans-49" x="61.083984"/>
     <use xlink:href="#DejaVuSans-4d" x="90.576172"/>
     <use xlink:href="#DejaVuSans-45" x="176.855469"/>
     <use xlink:href="#DejaVuSans-20" x="240.039062"/>
     <use xlink:href="#DejaVuSans-53" x="271.826172"/>
     <use xlink:href="#DejaVuSans-45" x="335.302734"/>
     <use xlink:href="#DejaVuSans-52" x="398.486328"/>
     <use xlink:href="#DejaVuSans-49" x="467.96875"/>
     <use xlink:href="#DejaVuSans-45" x="497.460938"/>
     <use xlink:href="#DejaVuSans-53" x="560.644531"/>
    </g>
   </g>
  </g>
 </g>
 <defs>
  <clipPath id="pee4448fccf">
   <rect x="108" y="43.2" width="669.6" height="277.2"/>
  </clipPath>
 </defs>
</svg>
