<?xml version="1.0" encoding="utf-8" standalone="no"?>
<!DOCTYPE svg PUBLIC "-//W3C//DTD SVG 1.1//EN"
  "http://www.w3.org/Graphics/SVG/1.1/DTD/svg11.dtd">
<svg xmlns:xlink="http://www.w3.org/1999/xlink" width="424.8pt" height="141.12pt" viewBox="0 0 424.8 141.12" xmlns="http://www.w3.org/2000/svg" version="1.1">
 <metadata>
  <rdf:RDF xmlns:dc="http://purl.org/dc/elements/1.1/" xmlns:cc="http://creativecommons.org/ns#" xmlns:rdf="http://www.w3.org/1999/02/22-rdf-syntax-ns#">
   <cc:Work>
    <dc:type rdf:resource="http://purl.org/dc/dcmitype/StillImage"/>
    <dc:date>2023-08-01T18:12:54.139298</dc:date>
    <dc:format>image/svg+xml</dc:format>
    <dc:creator>
     <cc:Agent>
      <dc:title>Matplotlib v3.7.1, https://matplotlib.org/</dc:title>
     </cc:Agent>
    </dc:creator>
   </cc:Work>
  </rdf:RDF>
 </metadata>
 <defs>
  <style type="text/css">*{stroke-linejoin: round; stroke-linecap: butt}</style>
 </defs>
 <g id="figure_1">
  <g id="patch_1">
   <path d="M 0 141.12 
L 424.8 141.12 
L 424.8 0 
L 0 0 
z
" style="fill: #ffffff"/>
  </g>
  <g id="axes_1">
   <g id="patch_2">
    <path d="M 56.23 89.48 
L 414 89.48 
L 414 54.672 
L 56.23 54.672 
z
" style="fill: #ffffff"/>
   </g>
   <g id="patch_3">
    <path d="M 72.492273 72.674158 
L 77.935711 72.674158 
L 77.935711 60.738474 
L 72.492273 60.738474 
z
" clip-path="url(#p30c760707c)" style="fill: #696969"/>
   </g>
   <g id="patch_4">
    <path d="M 79.296571 72.674158 
L 84.74001 72.674158 
L 84.74001 60.21163 
L 79.296571 60.21163 
z
" clip-path="url(#p30c760707c)" style="fill: #696969"/>
   </g>
   <g id="patch_5">
    <path d="M 86.100869 72.674158 
L 91.544308 72.674158 
L 91.544308 61.844824 
L 86.100869 61.844824 
z
" clip-path="url(#p30c760707c)" style="fill: #696969"/>
   </g>
   <g id="patch_6">
    <path d="M 92.905167 72.674158 
L 98.348606 72.674158 
L 98.348606 65.917663 
L 92.905167 65.917663 
z
" clip-path="url(#p30c760707c)" style="fill: #696969"/>
   </g>
   <g id="patch_7">
    <path d="M 99.709466 72.674158 
L 105.152904 72.674158 
L 105.152904 68.667001 
L 99.709466 68.667001 
z
" clip-path="url(#p30c760707c)" style="fill: #696969"/>
   </g>
   <g id="patch_8">
    <path d="M 106.513764 72.674158 
L 111.957202 72.674158 
L 111.957202 68.539211 
L 106.513764 68.539211 
z
" clip-path="url(#p30c760707c)" style="fill: #696969"/>
   </g>
   <g id="patch_9">
    <path d="M 113.318062 72.674158 
L 118.761501 72.674158 
L 118.761501 73.350568 
L 113.318062 73.350568 
z
" clip-path="url(#p30c760707c)" style="fill: #696969"/>
   </g>
   <g id="patch_10">
    <path d="M 120.12236 72.674158 
L 125.565799 72.674158 
L 125.565799 78.257925 
L 120.12236 78.257925 
z
" clip-path="url(#p30c760707c)" style="fill: #696969"/>
   </g>
   <g id="patch_11">
    <path d="M 126.926658 72.674158 
L 132.370097 72.674158 
L 132.370097 83.495514 
L 126.926658 83.495514 
z
" clip-path="url(#p30c760707c)" style="fill: #696969"/>
   </g>
   <g id="patch_12">
    <path d="M 133.730957 72.674158 
L 139.174395 72.674158 
L 139.174395 83.781808 
L 133.730957 83.781808 
z
" clip-path="url(#p30c760707c)" style="fill: #696969"/>
   </g>
   <g id="patch_13">
    <path d="M 140.535255 72.674158 
L 145.978693 72.674158 
L 145.978693 85.053236 
L 140.535255 85.053236 
z
" clip-path="url(#p30c760707c)" style="fill: #696969"/>
   </g>
   <g id="patch_14">
    <path d="M 147.339553 72.674158 
L 152.782992 72.674158 
L 152.782992 86.473976 
L 147.339553 86.473976 
z
" clip-path="url(#p30c760707c)" style="fill: #696969"/>
   </g>
   <g id="patch_15">
    <path d="M 154.143851 72.674158 
L 159.58729 72.674158 
L 159.58729 86.579333 
L 154.143851 86.579333 
z
" clip-path="url(#p30c760707c)" style="fill: #696969"/>
   </g>
   <g id="patch_16">
    <path d="M 160.948149 72.674158 
L 166.391588 72.674158 
L 166.391588 85.468672 
L 160.948149 85.468672 
z
" clip-path="url(#p30c760707c)" style="fill: #696969"/>
   </g>
   <g id="patch_17">
    <path d="M 167.752448 72.674158 
L 173.195886 72.674158 
L 173.195886 83.566567 
L 167.752448 83.566567 
z
" clip-path="url(#p30c760707c)" style="fill: #696969"/>
   </g>
   <g id="patch_18">
    <path d="M 174.556746 72.674158 
L 180.000184 72.674158 
L 180.000184 82.844002 
L 174.556746 82.844002 
z
" clip-path="url(#p30c760707c)" style="fill: #696969"/>
   </g>
   <g id="patch_19">
    <path d="M 181.361044 72.674158 
L 186.804483 72.674158 
L 186.804483 79.213871 
L 181.361044 79.213871 
z
" clip-path="url(#p30c760707c)" style="fill: #696969"/>
   </g>
   <g id="patch_20">
    <path d="M 188.165342 72.674158 
L 193.608781 72.674158 
L 193.608781 77.189412 
L 188.165342 77.189412 
z
" clip-path="url(#p30c760707c)" style="fill: #696969"/>
   </g>
   <g id="patch_21">
    <path d="M 194.969641 72.674158 
L 200.413079 72.674158 
L 200.413079 72.68396 
L 194.969641 72.68396 
z
" clip-path="url(#p30c760707c)" style="fill: #696969"/>
   </g>
   <g id="patch_22">
    <path d="M 201.773939 72.674158 
L 207.217377 72.674158 
L 207.217377 69.372749 
L 201.773939 69.372749 
z
" clip-path="url(#p30c760707c)" style="fill: #696969"/>
   </g>
   <g id="patch_23">
    <path d="M 208.578237 72.674158 
L 214.021676 72.674158 
L 214.021676 65.163248 
L 208.578237 65.163248 
z
" clip-path="url(#p30c760707c)" style="fill: #696969"/>
   </g>
   <g id="patch_24">
    <path d="M 215.382535 72.674158 
L 220.825974 72.674158 
L 220.825974 62.75397 
L 215.382535 62.75397 
z
" clip-path="url(#p30c760707c)" style="fill: #696969"/>
   </g>
   <g id="patch_25">
    <path d="M 222.186833 72.674158 
L 227.630272 72.674158 
L 227.630272 61.642601 
L 222.186833 61.642601 
z
" clip-path="url(#p30c760707c)" style="fill: #696969"/>
   </g>
   <g id="patch_26">
    <path d="M 228.991132 72.674158 
L 234.43457 72.674158 
L 234.43457 61.162789 
L 228.991132 61.162789 
z
" clip-path="url(#p30c760707c)" style="fill: #696969"/>
   </g>
   <g id="patch_27">
    <path d="M 235.79543 72.674158 
L 241.238868 72.674158 
L 241.238868 59.685954 
L 235.79543 59.685954 
z
" clip-path="url(#p30c760707c)" style="fill: #696969"/>
   </g>
   <g id="patch_28">
    <path d="M 242.599728 72.674158 
L 248.043167 72.674158 
L 248.043167 58.822016 
L 242.599728 58.822016 
z
" clip-path="url(#p30c760707c)" style="fill: #696969"/>
   </g>
   <g id="patch_29">
    <path d="M 249.404026 72.674158 
L 254.847465 72.674158 
L 254.847465 57.572667 
L 249.404026 57.572667 
z
" clip-path="url(#p30c760707c)" style="fill: #696969"/>
   </g>
   <g id="patch_30">
    <path d="M 256.208324 72.674158 
L 261.651763 72.674158 
L 261.651763 59.768382 
L 256.208324 59.768382 
z
" clip-path="url(#p30c760707c)" style="fill: #696969"/>
   </g>
   <g id="patch_31">
    <path d="M 263.012623 72.674158 
L 268.456061 72.674158 
L 268.456061 62.102986 
L 263.012623 62.102986 
z
" clip-path="url(#p30c760707c)" style="fill: #696969"/>
   </g>
   <g id="patch_32">
    <path d="M 269.816921 72.674158 
L 275.260359 72.674158 
L 275.260359 65.479005 
L 269.816921 65.479005 
z
" clip-path="url(#p30c760707c)" style="fill: #696969"/>
   </g>
   <g id="patch_33">
    <path d="M 276.621219 72.674158 
L 282.064658 72.674158 
L 282.064658 68.773014 
L 276.621219 68.773014 
z
" clip-path="url(#p30c760707c)" style="fill: #696969"/>
   </g>
   <g id="patch_34">
    <path d="M 283.425517 72.674158 
L 288.868956 72.674158 
L 288.868956 71.679081 
L 283.425517 71.679081 
z
" clip-path="url(#p30c760707c)" style="fill: #696969"/>
   </g>
   <g id="patch_35">
    <path d="M 290.229816 72.674158 
L 295.673254 72.674158 
L 295.673254 73.288451 
L 290.229816 73.288451 
z
" clip-path="url(#p30c760707c)" style="fill: #696969"/>
   </g>
   <g id="patch_36">
    <path d="M 297.034114 72.674158 
L 302.477552 72.674158 
L 302.477552 75.89772 
L 297.034114 75.89772 
z
" clip-path="url(#p30c760707c)" style="fill: #696969"/>
   </g>
   <g id="patch_37">
    <path d="M 303.838412 72.674158 
L 309.281851 72.674158 
L 309.281851 77.649304 
L 303.838412 77.649304 
z
" clip-path="url(#p30c760707c)" style="fill: #696969"/>
   </g>
   <g id="patch_38">
    <path d="M 310.64271 72.674158 
L 316.086149 72.674158 
L 316.086149 80.662411 
L 310.64271 80.662411 
z
" clip-path="url(#p30c760707c)" style="fill: #696969"/>
   </g>
   <g id="patch_39">
    <path d="M 317.447008 72.674158 
L 322.890447 72.674158 
L 322.890447 83.424739 
L 317.447008 83.424739 
z
" clip-path="url(#p30c760707c)" style="fill: #696969"/>
   </g>
   <g id="patch_40">
    <path d="M 324.251307 72.674158 
L 329.694745 72.674158 
L 329.694745 85.728315 
L 324.251307 85.728315 
z
" clip-path="url(#p30c760707c)" style="fill: #696969"/>
   </g>
   <g id="patch_41">
    <path d="M 331.055605 72.674158 
L 336.499043 72.674158 
L 336.499043 86.520905 
L 331.055605 86.520905 
z
" clip-path="url(#p30c760707c)" style="fill: #696969"/>
   </g>
   <g id="patch_42">
    <path d="M 337.859903 72.674158 
L 343.303342 72.674158 
L 343.303342 84.701084 
L 337.859903 84.701084 
z
" clip-path="url(#p30c760707c)" style="fill: #696969"/>
   </g>
   <g id="patch_43">
    <path d="M 344.664201 72.674158 
L 350.10764 72.674158 
L 350.10764 83.63316 
L 344.664201 83.63316 
z
" clip-path="url(#p30c760707c)" style="fill: #696969"/>
   </g>
   <g id="patch_44">
    <path d="M 351.468499 72.674158 
L 356.911938 72.674158 
L 356.911938 80.788053 
L 351.468499 80.788053 
z
" clip-path="url(#p30c760707c)" style="fill: #696969"/>
   </g>
   <g id="patch_45">
    <path d="M 358.272798 72.674158 
L 363.716236 72.674158 
L 363.716236 77.773624 
L 358.272798 77.773624 
z
" clip-path="url(#p30c760707c)" style="fill: #696969"/>
   </g>
   <g id="patch_46">
    <path d="M 365.077096 72.674158 
L 370.520534 72.674158 
L 370.520534 73.725617 
L 365.077096 73.725617 
z
" clip-path="url(#p30c760707c)" style="fill: #696969"/>
   </g>
   <g id="patch_47">
    <path d="M 371.881394 72.674158 
L 377.324833 72.674158 
L 377.324833 71.004893 
L 371.881394 71.004893 
z
" clip-path="url(#p30c760707c)" style="fill: #696969"/>
   </g>
   <g id="patch_48">
    <path d="M 378.685692 72.674158 
L 384.129131 72.674158 
L 384.129131 69.405029 
L 378.685692 69.405029 
z
" clip-path="url(#p30c760707c)" style="fill: #696969"/>
   </g>
   <g id="patch_49">
    <path d="M 385.48999 72.674158 
L 390.933429 72.674158 
L 390.933429 66.657741 
L 385.48999 66.657741 
z
" clip-path="url(#p30c760707c)" style="fill: #696969"/>
   </g>
   <g id="patch_50">
    <path d="M 392.294289 72.674158 
L 397.737727 72.674158 
L 397.737727 64.940562 
L 392.294289 64.940562 
z
" clip-path="url(#p30c760707c)" style="fill: #696969"/>
   </g>
   <g id="matplotlib.axis_1">
    <g id="xtick_1">
     <g id="line2d_1">
      <defs>
       <path id="ma2e7cc78f9" d="M 0 0 
L 0 3.5 
" style="stroke: #000000; stroke-width: 0.8"/>
      </defs>
      <g>
       <use xlink:href="#ma2e7cc78f9" x="75.213992" y="89.48" style="stroke: #000000; stroke-width: 0.8"/>
      </g>
     </g>
     <g id="text_1">
      <!-- 0 -->
      <g transform="translate(72.032742 104.078438) scale(0.1 -0.1)">
       <defs>
        <path id="DejaVuSans-30" d="M 2034 4250 
Q 1547 4250 1301 3770 
Q 1056 3291 1056 2328 
Q 1056 1369 1301 889 
Q 1547 409 2034 409 
Q 2525 409 2770 889 
Q 3016 1369 3016 2328 
Q 3016 3291 2770 3770 
Q 2525 4250 2034 4250 
z
M 2034 4750 
Q 2819 4750 3233 4129 
Q 3647 3509 3647 2328 
Q 3647 1150 3233 529 
Q 2819 -91 2034 -91 
Q 1250 -91 836 529 
Q 422 1150 422 2328 
Q 422 3509 836 4129 
Q 1250 4750 2034 4750 
z
" transform="scale(0.015625)"/>
       </defs>
       <use xlink:href="#DejaVuSans-30"/>
      </g>
     </g>
    </g>
    <g id="xtick_2">
     <g id="line2d_2">
      <g>
       <use xlink:href="#ma2e7cc78f9" x="143.256974" y="89.48" style="stroke: #000000; stroke-width: 0.8"/>
      </g>
     </g>
     <g id="text_2">
      <!-- 10 -->
      <g transform="translate(136.894474 104.078438) scale(0.1 -0.1)">
       <defs>
        <path id="DejaVuSans-31" d="M 794 531 
L 1825 531 
L 1825 4091 
L 703 3866 
L 703 4441 
L 1819 4666 
L 2450 4666 
L 2450 531 
L 3481 531 
L 3481 0 
L 794 0 
L 794 531 
z
" transform="scale(0.015625)"/>
       </defs>
       <use xlink:href="#DejaVuSans-31"/>
       <use xlink:href="#DejaVuSans-30" x="63.623047"/>
      </g>
     </g>
    </g>
    <g id="xtick_3">
     <g id="line2d_3">
      <g>
       <use xlink:href="#ma2e7cc78f9" x="211.299956" y="89.48" style="stroke: #000000; stroke-width: 0.8"/>
      </g>
     </g>
     <g id="text_3">
      <!-- 20 -->
      <g transform="translate(204.937456 104.078438) scale(0.1 -0.1)">
       <defs>
        <path id="DejaVuSans-32" d="M 1228 531 
L 3431 531 
L 3431 0 
L 469 0 
L 469 531 
Q 828 903 1448 1529 
Q 2069 2156 2228 2338 
Q 2531 2678 2651 2914 
Q 2772 3150 2772 3378 
Q 2772 3750 2511 3984 
Q 2250 4219 1831 4219 
Q 1534 4219 1204 4116 
Q 875 4013 500 3803 
L 500 4441 
Q 881 4594 1212 4672 
Q 1544 4750 1819 4750 
Q 2544 4750 2975 4387 
Q 3406 4025 3406 3419 
Q 3406 3131 3298 2873 
Q 3191 2616 2906 2266 
Q 2828 2175 2409 1742 
Q 1991 1309 1228 531 
z
" transform="scale(0.015625)"/>
       </defs>
       <use xlink:href="#DejaVuSans-32"/>
       <use xlink:href="#DejaVuSans-30" x="63.623047"/>
      </g>
     </g>
    </g>
    <g id="xtick_4">
     <g id="line2d_4">
      <g>
       <use xlink:href="#ma2e7cc78f9" x="279.342938" y="89.48" style="stroke: #000000; stroke-width: 0.8"/>
      </g>
     </g>
     <g id="text_4">
      <!-- 30 -->
      <g transform="translate(272.980438 104.078438) scale(0.1 -0.1)">
       <defs>
        <path id="DejaVuSans-33" d="M 2597 2516 
Q 3050 2419 3304 2112 
Q 3559 1806 3559 1356 
Q 3559 666 3084 287 
Q 2609 -91 1734 -91 
Q 1441 -91 1130 -33 
Q 819 25 488 141 
L 488 750 
Q 750 597 1062 519 
Q 1375 441 1716 441 
Q 2309 441 2620 675 
Q 2931 909 2931 1356 
Q 2931 1769 2642 2001 
Q 2353 2234 1838 2234 
L 1294 2234 
L 1294 2753 
L 1863 2753 
Q 2328 2753 2575 2939 
Q 2822 3125 2822 3475 
Q 2822 3834 2567 4026 
Q 2313 4219 1838 4219 
Q 1578 4219 1281 4162 
Q 984 4106 628 3988 
L 628 4550 
Q 988 4650 1302 4700 
Q 1616 4750 1894 4750 
Q 2613 4750 3031 4423 
Q 3450 4097 3450 3541 
Q 3450 3153 3228 2886 
Q 3006 2619 2597 2516 
z
" transform="scale(0.015625)"/>
       </defs>
       <use xlink:href="#DejaVuSans-33"/>
       <use xlink:href="#DejaVuSans-30" x="63.623047"/>
      </g>
     </g>
    </g>
    <g id="xtick_5">
     <g id="line2d_5">
      <g>
       <use xlink:href="#ma2e7cc78f9" x="347.385921" y="89.48" style="stroke: #000000; stroke-width: 0.8"/>
      </g>
     </g>
     <g id="text_5">
      <!-- 40 -->
      <g transform="translate(341.023421 104.078438) scale(0.1 -0.1)">
       <defs>
        <path id="DejaVuSans-34" d="M 2419 4116 
L 825 1625 
L 2419 1625 
L 2419 4116 
z
M 2253 4666 
L 3047 4666 
L 3047 1625 
L 3713 1625 
L 3713 1100 
L 3047 1100 
L 3047 0 
L 2419 0 
L 2419 1100 
L 313 1100 
L 313 1709 
L 2253 4666 
z
" transform="scale(0.015625)"/>
       </defs>
       <use xlink:href="#DejaVuSans-34"/>
       <use xlink:href="#DejaVuSans-30" x="63.623047"/>
      </g>
     </g>
    </g>
   </g>
   <g id="matplotlib.axis_2">
    <g id="ytick_1">
     <g id="line2d_6">
      <defs>
       <path id="m8634e4464e" d="M 0 0 
L -3.5 0 
" style="stroke: #000000; stroke-width: 0.8"/>
      </defs>
      <g>
       <use xlink:href="#m8634e4464e" x="56.23" y="84.139747" style="stroke: #000000; stroke-width: 0.8"/>
      </g>
     </g>
     <g id="text_6">
      <!-- −5 -->
      <g transform="translate(34.487813 87.938966) scale(0.1 -0.1)">
       <defs>
        <path id="DejaVuSans-2212" d="M 678 2272 
L 4684 2272 
L 4684 1741 
L 678 1741 
L 678 2272 
z
" transform="scale(0.015625)"/>
        <path id="DejaVuSans-35" d="M 691 4666 
L 3169 4666 
L 3169 4134 
L 1269 4134 
L 1269 2991 
Q 1406 3038 1543 3061 
Q 1681 3084 1819 3084 
Q 2600 3084 3056 2656 
Q 3513 2228 3513 1497 
Q 3513 744 3044 326 
Q 2575 -91 1722 -91 
Q 1428 -91 1123 -41 
Q 819 9 494 109 
L 494 744 
Q 775 591 1075 516 
Q 1375 441 1709 441 
Q 2250 441 2565 725 
Q 2881 1009 2881 1497 
Q 2881 1984 2565 2268 
Q 2250 2553 1709 2553 
Q 1456 2553 1204 2497 
Q 953 2441 691 2322 
L 691 4666 
z
" transform="scale(0.015625)"/>
       </defs>
       <use xlink:href="#DejaVuSans-2212"/>
       <use xlink:href="#DejaVuSans-35" x="83.789062"/>
      </g>
     </g>
    </g>
    <g id="ytick_2">
     <g id="line2d_7">
      <g>
       <use xlink:href="#m8634e4464e" x="56.23" y="72.674158" style="stroke: #000000; stroke-width: 0.8"/>
      </g>
     </g>
     <g id="text_7">
      <!-- 0 -->
      <g transform="translate(42.8675 76.473377) scale(0.1 -0.1)">
       <use xlink:href="#DejaVuSans-30"/>
      </g>
     </g>
    </g>
    <g id="ytick_3">
     <g id="line2d_8">
      <g>
       <use xlink:href="#m8634e4464e" x="56.23" y="61.20857" style="stroke: #000000; stroke-width: 0.8"/>
      </g>
     </g>
     <g id="text_8">
      <!-- 5 -->
      <g transform="translate(42.8675 65.007788) scale(0.1 -0.1)">
       <use xlink:href="#DejaVuSans-35"/>
      </g>
     </g>
    </g>
   </g>
   <g id="line2d_9">
    <path d="M 75.213992 59.031805 
L 82.01829 60.35045 
L 88.822588 62.344401 
L 95.626887 64.897689 
L 102.431185 67.861811 
L 109.235483 71.064372 
L 116.039781 74.319108 
L 122.844079 77.43672 
L 129.648378 80.235887 
L 136.452676 82.553805 
L 143.256974 84.255663 
L 150.061272 85.242478 
L 156.865571 85.456858 
L 163.669869 84.886333 
L 170.474167 83.564086 
L 177.278465 81.567019 
L 184.082763 79.011285 
L 190.887062 76.045525 
L 197.69136 72.842233 
L 204.495658 69.587714 
L 211.299956 66.471254 
L 218.104254 63.674108 
L 224.908553 61.358962 
L 231.712851 59.660466 
L 238.517149 58.677406 
L 245.321447 58.466958 
L 252.125746 59.041362 
L 258.930044 60.36721 
L 265.734342 62.367389 
L 272.53864 64.925567 
L 279.342938 67.892959 
L 286.147237 71.096977 
L 292.951535 74.351275 
L 299.755833 77.466578 
L 306.560131 80.261699 
L 313.364429 82.57407 
L 320.168728 84.269202 
L 326.973026 85.248504 
L 333.777324 85.45502 
L 340.581622 84.876739 
L 347.385921 83.547292 
L 354.190219 81.544004 
L 360.994517 78.983386 
L 367.798815 76.014366 
L 374.603113 72.809625 
L 381.407412 69.555554 
L 388.21171 66.441412 
L 395.016008 63.64832 
" clip-path="url(#p30c760707c)" style="fill: none; stroke: #191970; stroke-width: 3; stroke-linecap: square"/>
   </g>
   <g id="line2d_10">
    <path d="M 243.737728 89.48 
L 243.737728 54.672 
" clip-path="url(#p30c760707c)" style="fill: none; stroke-dasharray: 7.4,3.2; stroke-dashoffset: 0; stroke: #000000; stroke-opacity: 0.8; stroke-width: 2"/>
   </g>
   <g id="patch_51">
    <path d="M 56.23 89.48 
L 56.23 54.672 
" style="fill: none; stroke: #000000; stroke-width: 0.8; stroke-linejoin: miter; stroke-linecap: square"/>
   </g>
   <g id="patch_52">
    <path d="M 56.23 89.48 
L 414 89.48 
" style="fill: none; stroke: #000000; stroke-width: 0.8; stroke-linejoin: miter; stroke-linecap: square"/>
   </g>
   <g id="text_9">
    <!-- GENE -->
    <g transform="translate(223.968125 39.71375) scale(0.08 -0.08)">
     <defs>
      <path id="DejaVuSans-47" d="M 3809 666 
L 3809 1919 
L 2778 1919 
L 2778 2438 
L 4434 2438 
L 4434 434 
Q 4069 175 3628 42 
Q 3188 -91 2688 -91 
Q 1594 -91 976 548 
Q 359 1188 359 2328 
Q 359 3472 976 4111 
Q 1594 4750 2688 4750 
Q 3144 4750 3555 4637 
Q 3966 4525 4313 4306 
L 4313 3634 
Q 3963 3931 3569 4081 
Q 3175 4231 2741 4231 
Q 1884 4231 1454 3753 
Q 1025 3275 1025 2328 
Q 1025 1384 1454 906 
Q 1884 428 2741 428 
Q 3075 428 3337 486 
Q 3600 544 3809 666 
z
" transform="scale(0.015625)"/>
      <path id="DejaVuSans-45" d="M 628 4666 
L 3578 4666 
L 3578 4134 
L 1259 4134 
L 1259 2753 
L 3481 2753 
L 3481 2222 
L 1259 2222 
L 1259 531 
L 3634 531 
L 3634 0 
L 628 0 
L 628 4666 
z
" transform="scale(0.015625)"/>
      <path id="DejaVuSans-4e" d="M 628 4666 
L 1478 4666 
L 3547 763 
L 3547 4666 
L 4159 4666 
L 4159 0 
L 3309 0 
L 1241 3903 
L 1241 0 
L 628 0 
L 628 4666 
z
" transform="scale(0.015625)"/>
     </defs>
     <use xlink:href="#DejaVuSans-47"/>
     <use xlink:href="#DejaVuSans-45" x="77.490234"/>
     <use xlink:href="#DejaVuSans-4e" x="140.673828"/>
     <use xlink:href="#DejaVuSans-45" x="215.478516"/>
    </g>
    <!-- (AC: 24.77, PR: 25.99) -->
    <g transform="translate(190.785625 48.672) scale(0.08 -0.08)">
     <defs>
      <path id="DejaVuSans-28" d="M 1984 4856 
Q 1566 4138 1362 3434 
Q 1159 2731 1159 2009 
Q 1159 1288 1364 580 
Q 1569 -128 1984 -844 
L 1484 -844 
Q 1016 -109 783 600 
Q 550 1309 550 2009 
Q 550 2706 781 3412 
Q 1013 4119 1484 4856 
L 1984 4856 
z
" transform="scale(0.015625)"/>
      <path id="DejaVuSans-41" d="M 2188 4044 
L 1331 1722 
L 3047 1722 
L 2188 4044 
z
M 1831 4666 
L 2547 4666 
L 4325 0 
L 3669 0 
L 3244 1197 
L 1141 1197 
L 716 0 
L 50 0 
L 1831 4666 
z
" transform="scale(0.015625)"/>
      <path id="DejaVuSans-43" d="M 4122 4306 
L 4122 3641 
Q 3803 3938 3442 4084 
Q 3081 4231 2675 4231 
Q 1875 4231 1450 3742 
Q 1025 3253 1025 2328 
Q 1025 1406 1450 917 
Q 1875 428 2675 428 
Q 3081 428 3442 575 
Q 3803 722 4122 1019 
L 4122 359 
Q 3791 134 3420 21 
Q 3050 -91 2638 -91 
Q 1578 -91 968 557 
Q 359 1206 359 2328 
Q 359 3453 968 4101 
Q 1578 4750 2638 4750 
Q 3056 4750 3426 4639 
Q 3797 4528 4122 4306 
z
" transform="scale(0.015625)"/>
      <path id="DejaVuSans-3a" d="M 750 794 
L 1409 794 
L 1409 0 
L 750 0 
L 750 794 
z
M 750 3309 
L 1409 3309 
L 1409 2516 
L 750 2516 
L 750 3309 
z
" transform="scale(0.015625)"/>
      <path id="DejaVuSans-20" transform="scale(0.015625)"/>
      <path id="DejaVuSans-2e" d="M 684 794 
L 1344 794 
L 1344 0 
L 684 0 
L 684 794 
z
" transform="scale(0.015625)"/>
      <path id="DejaVuSans-37" d="M 525 4666 
L 3525 4666 
L 3525 4397 
L 1831 0 
L 1172 0 
L 2766 4134 
L 525 4134 
L 525 4666 
z
" transform="scale(0.015625)"/>
      <path id="DejaVuSans-2c" d="M 750 794 
L 1409 794 
L 1409 256 
L 897 -744 
L 494 -744 
L 750 256 
L 750 794 
z
" transform="scale(0.015625)"/>
      <path id="DejaVuSans-50" d="M 1259 4147 
L 1259 2394 
L 2053 2394 
Q 2494 2394 2734 2622 
Q 2975 2850 2975 3272 
Q 2975 3691 2734 3919 
Q 2494 4147 2053 4147 
L 1259 4147 
z
M 628 4666 
L 2053 4666 
Q 2838 4666 3239 4311 
Q 3641 3956 3641 3272 
Q 3641 2581 3239 2228 
Q 2838 1875 2053 1875 
L 1259 1875 
L 1259 0 
L 628 0 
L 628 4666 
z
" transform="scale(0.015625)"/>
      <path id="DejaVuSans-52" d="M 2841 2188 
Q 3044 2119 3236 1894 
Q 3428 1669 3622 1275 
L 4263 0 
L 3584 0 
L 2988 1197 
Q 2756 1666 2539 1819 
Q 2322 1972 1947 1972 
L 1259 1972 
L 1259 0 
L 628 0 
L 628 4666 
L 2053 4666 
Q 2853 4666 3247 4331 
Q 3641 3997 3641 3322 
Q 3641 2881 3436 2590 
Q 3231 2300 2841 2188 
z
M 1259 4147 
L 1259 2491 
L 2053 2491 
Q 2509 2491 2742 2702 
Q 2975 2913 2975 3322 
Q 2975 3731 2742 3939 
Q 2509 4147 2053 4147 
L 1259 4147 
z
" transform="scale(0.015625)"/>
      <path id="DejaVuSans-39" d="M 703 97 
L 703 672 
Q 941 559 1184 500 
Q 1428 441 1663 441 
Q 2288 441 2617 861 
Q 2947 1281 2994 2138 
Q 2813 1869 2534 1725 
Q 2256 1581 1919 1581 
Q 1219 1581 811 2004 
Q 403 2428 403 3163 
Q 403 3881 828 4315 
Q 1253 4750 1959 4750 
Q 2769 4750 3195 4129 
Q 3622 3509 3622 2328 
Q 3622 1225 3098 567 
Q 2575 -91 1691 -91 
Q 1453 -91 1209 -44 
Q 966 3 703 97 
z
M 1959 2075 
Q 2384 2075 2632 2365 
Q 2881 2656 2881 3163 
Q 2881 3666 2632 3958 
Q 2384 4250 1959 4250 
Q 1534 4250 1286 3958 
Q 1038 3666 1038 3163 
Q 1038 2656 1286 2365 
Q 1534 2075 1959 2075 
z
" transform="scale(0.015625)"/>
      <path id="DejaVuSans-29" d="M 513 4856 
L 1013 4856 
Q 1481 4119 1714 3412 
Q 1947 2706 1947 2009 
Q 1947 1309 1714 600 
Q 1481 -109 1013 -844 
L 513 -844 
Q 928 -128 1133 580 
Q 1338 1288 1338 2009 
Q 1338 2731 1133 3434 
Q 928 4138 513 4856 
z
" transform="scale(0.015625)"/>
     </defs>
     <use xlink:href="#DejaVuSans-28"/>
     <use xlink:href="#DejaVuSans-41" x="39.013672"/>
     <use xlink:href="#DejaVuSans-43" x="105.671875"/>
     <use xlink:href="#DejaVuSans-3a" x="175.496094"/>
     <use xlink:href="#DejaVuSans-20" x="209.1875"/>
     <use xlink:href="#DejaVuSans-32" x="240.974609"/>
     <use xlink:href="#DejaVuSans-34" x="304.597656"/>
     <use xlink:href="#DejaVuSans-2e" x="368.220703"/>
     <use xlink:href="#DejaVuSans-37" x="400.007812"/>
     <use xlink:href="#DejaVuSans-37" x="463.630859"/>
     <use xlink:href="#DejaVuSans-2c" x="527.253906"/>
     <use xlink:href="#DejaVuSans-20" x="559.041016"/>
     <use xlink:href="#DejaVuSans-50" x="590.828125"/>
     <use xlink:href="#DejaVuSans-52" x="651.130859"/>
     <use xlink:href="#DejaVuSans-3a" x="717.488281"/>
     <use xlink:href="#DejaVuSans-20" x="751.179688"/>
     <use xlink:href="#DejaVuSans-32" x="782.966797"/>
     <use xlink:href="#DejaVuSans-35" x="846.589844"/>
     <use xlink:href="#DejaVuSans-2e" x="910.212891"/>
     <use xlink:href="#DejaVuSans-39" x="942"/>
     <use xlink:href="#DejaVuSans-39" x="1005.623047"/>
     <use xlink:href="#DejaVuSans-29" x="1069.246094"/>
    </g>
   </g>
  </g>
  <g id="text_10">
   <!-- COSINOR MODEL - SIMULATION 42 -->
   <g transform="translate(108.534375 11.940525) scale(0.12 -0.12)">
    <defs>
     <path id="DejaVuSans-4f" d="M 2522 4238 
Q 1834 4238 1429 3725 
Q 1025 3213 1025 2328 
Q 1025 1447 1429 934 
Q 1834 422 2522 422 
Q 3209 422 3611 934 
Q 4013 1447 4013 2328 
Q 4013 3213 3611 3725 
Q 3209 4238 2522 4238 
z
M 2522 4750 
Q 3503 4750 4090 4092 
Q 4678 3434 4678 2328 
Q 4678 1225 4090 567 
Q 3503 -91 2522 -91 
Q 1538 -91 948 565 
Q 359 1222 359 2328 
Q 359 3434 948 4092 
Q 1538 4750 2522 4750 
z
" transform="scale(0.015625)"/>
     <path id="DejaVuSans-53" d="M 3425 4513 
L 3425 3897 
Q 3066 4069 2747 4153 
Q 2428 4238 2131 4238 
Q 1616 4238 1336 4038 
Q 1056 3838 1056 3469 
Q 1056 3159 1242 3001 
Q 1428 2844 1947 2747 
L 2328 2669 
Q 3034 2534 3370 2195 
Q 3706 1856 3706 1288 
Q 3706 609 3251 259 
Q 2797 -91 1919 -91 
Q 1588 -91 1214 -16 
Q 841 59 441 206 
L 441 856 
Q 825 641 1194 531 
Q 1563 422 1919 422 
Q 2459 422 2753 634 
Q 3047 847 3047 1241 
Q 3047 1584 2836 1778 
Q 2625 1972 2144 2069 
L 1759 2144 
Q 1053 2284 737 2584 
Q 422 2884 422 3419 
Q 422 4038 858 4394 
Q 1294 4750 2059 4750 
Q 2388 4750 2728 4690 
Q 3069 4631 3425 4513 
z
" transform="scale(0.015625)"/>
     <path id="DejaVuSans-49" d="M 628 4666 
L 1259 4666 
L 1259 0 
L 628 0 
L 628 4666 
z
" transform="scale(0.015625)"/>
     <path id="DejaVuSans-4d" d="M 628 4666 
L 1569 4666 
L 2759 1491 
L 3956 4666 
L 4897 4666 
L 4897 0 
L 4281 0 
L 4281 4097 
L 3078 897 
L 2444 897 
L 1241 4097 
L 1241 0 
L 628 0 
L 628 4666 
z
" transform="scale(0.015625)"/>
     <path id="DejaVuSans-44" d="M 1259 4147 
L 1259 519 
L 2022 519 
Q 2988 519 3436 956 
Q 3884 1394 3884 2338 
Q 3884 3275 3436 3711 
Q 2988 4147 2022 4147 
L 1259 4147 
z
M 628 4666 
L 1925 4666 
Q 3281 4666 3915 4102 
Q 4550 3538 4550 2338 
Q 4550 1131 3912 565 
Q 3275 0 1925 0 
L 628 0 
L 628 4666 
z
" transform="scale(0.015625)"/>
     <path id="DejaVuSans-4c" d="M 628 4666 
L 1259 4666 
L 1259 531 
L 3531 531 
L 3531 0 
L 628 0 
L 628 4666 
z
" transform="scale(0.015625)"/>
     <path id="DejaVuSans-2d" d="M 313 2009 
L 1997 2009 
L 1997 1497 
L 313 1497 
L 313 2009 
z
" transform="scale(0.015625)"/>
     <path id="DejaVuSans-55" d="M 556 4666 
L 1191 4666 
L 1191 1831 
Q 1191 1081 1462 751 
Q 1734 422 2344 422 
Q 2950 422 3222 751 
Q 3494 1081 3494 1831 
L 3494 4666 
L 4128 4666 
L 4128 1753 
Q 4128 841 3676 375 
Q 3225 -91 2344 -91 
Q 1459 -91 1007 375 
Q 556 841 556 1753 
L 556 4666 
z
" transform="scale(0.015625)"/>
     <path id="DejaVuSans-54" d="M -19 4666 
L 3928 4666 
L 3928 4134 
L 2272 4134 
L 2272 0 
L 1638 0 
L 1638 4134 
L -19 4134 
L -19 4666 
z
" transform="scale(0.015625)"/>
    </defs>
    <use xlink:href="#DejaVuSans-43"/>
    <use xlink:href="#DejaVuSans-4f" x="69.824219"/>
    <use xlink:href="#DejaVuSans-53" x="148.535156"/>
    <use xlink:href="#DejaVuSans-49" x="212.011719"/>
    <use xlink:href="#DejaVuSans-4e" x="241.503906"/>
    <use xlink:href="#DejaVuSans-4f" x="316.308594"/>
    <use xlink:href="#DejaVuSans-52" x="395.019531"/>
    <use xlink:href="#DejaVuSans-20" x="464.501953"/>
    <use xlink:href="#DejaVuSans-4d" x="496.289062"/>
    <use xlink:href="#DejaVuSans-4f" x="582.568359"/>
    <use xlink:href="#DejaVuSans-44" x="661.279297"/>
    <use xlink:href="#DejaVuSans-45" x="738.28125"/>
    <use xlink:href="#DejaVuSans-4c" x="801.464844"/>
    <use xlink:href="#DejaVuSans-20" x="857.177734"/>
    <use xlink:href="#DejaVuSans-2d" x="888.964844"/>
    <use xlink:href="#DejaVuSans-20" x="925.048828"/>
    <use xlink:href="#DejaVuSans-53" x="956.835938"/>
    <use xlink:href="#DejaVuSans-49" x="1020.3125"/>
    <use xlink:href="#DejaVuSans-4d" x="1049.804688"/>
    <use xlink:href="#DejaVuSans-55" x="1136.083984"/>
    <use xlink:href="#DejaVuSans-4c" x="1209.277344"/>
    <use xlink:href="#DejaVuSans-41" x="1267.240234"/>
    <use xlink:href="#DejaVuSans-54" x="1327.898438"/>
    <use xlink:href="#DejaVuSans-49" x="1388.982422"/>
    <use xlink:href="#DejaVuSans-4f" x="1418.474609"/>
    <use xlink:href="#DejaVuSans-4e" x="1497.185547"/>
    <use xlink:href="#DejaVuSans-20" x="1571.990234"/>
    <use xlink:href="#DejaVuSans-34" x="1603.777344"/>
    <use xlink:href="#DejaVuSans-32" x="1667.400391"/>
   </g>
  </g>
  <g id="text_11">
   <!-- TIME (HOURS FROM START OF PROTOCOL) -->
   <g transform="translate(84.816563 137.213175) scale(0.12 -0.12)">
    <defs>
     <path id="DejaVuSans-48" d="M 628 4666 
L 1259 4666 
L 1259 2753 
L 3553 2753 
L 3553 4666 
L 4184 4666 
L 4184 0 
L 3553 0 
L 3553 2222 
L 1259 2222 
L 1259 0 
L 628 0 
L 628 4666 
z
" transform="scale(0.015625)"/>
     <path id="DejaVuSans-46" d="M 628 4666 
L 3309 4666 
L 3309 4134 
L 1259 4134 
L 1259 2759 
L 3109 2759 
L 3109 2228 
L 1259 2228 
L 1259 0 
L 628 0 
L 628 4666 
z
" transform="scale(0.015625)"/>
    </defs>
    <use xlink:href="#DejaVuSans-54"/>
    <use xlink:href="#DejaVuSans-49" x="61.083984"/>
    <use xlink:href="#DejaVuSans-4d" x="90.576172"/>
    <use xlink:href="#DejaVuSans-45" x="176.855469"/>
    <use xlink:href="#DejaVuSans-20" x="240.039062"/>
    <use xlink:href="#DejaVuSans-28" x="271.826172"/>
    <use xlink:href="#DejaVuSans-48" x="310.839844"/>
    <use xlink:href="#DejaVuSans-4f" x="386.035156"/>
    <use xlink:href="#DejaVuSans-55" x="464.746094"/>
    <use xlink:href="#DejaVuSans-52" x="537.939453"/>
    <use xlink:href="#DejaVuSans-53" x="607.421875"/>
    <use xlink:href="#DejaVuSans-20" x="670.898438"/>
    <use xlink:href="#DejaVuSans-46" x="702.685547"/>
    <use xlink:href="#DejaVuSans-52" x="760.205078"/>
    <use xlink:href="#DejaVuSans-4f" x="829.6875"/>
    <use xlink:href="#DejaVuSans-4d" x="908.398438"/>
    <use xlink:href="#DejaVuSans-20" x="994.677734"/>
    <use xlink:href="#DejaVuSans-53" x="1026.464844"/>
    <use xlink:href="#DejaVuSans-54" x="1089.941406"/>
    <use xlink:href="#DejaVuSans-41" x="1143.275391"/>
    <use xlink:href="#DejaVuSans-52" x="1211.683594"/>
    <use xlink:href="#DejaVuSans-54" x="1273.916016"/>
    <use xlink:href="#DejaVuSans-20" x="1335"/>
    <use xlink:href="#DejaVuSans-4f" x="1366.787109"/>
    <use xlink:href="#DejaVuSans-46" x="1445.498047"/>
    <use xlink:href="#DejaVuSans-20" x="1503.017578"/>
    <use xlink:href="#DejaVuSans-50" x="1534.804688"/>
    <use xlink:href="#DejaVuSans-52" x="1595.107422"/>
    <use xlink:href="#DejaVuSans-4f" x="1664.589844"/>
    <use xlink:href="#DejaVuSans-54" x="1743.300781"/>
    <use xlink:href="#DejaVuSans-4f" x="1804.384766"/>
    <use xlink:href="#DejaVuSans-43" x="1883.095703"/>
    <use xlink:href="#DejaVuSans-4f" x="1952.919922"/>
    <use xlink:href="#DejaVuSans-4c" x="2031.630859"/>
    <use xlink:href="#DejaVuSans-29" x="2087.34375"/>
   </g>
  </g>
  <g id="text_12">
   <!-- AMPLITUDE -->
   <g transform="translate(17.614125 105.039375) rotate(-90) scale(0.12 -0.12)">
    <use xlink:href="#DejaVuSans-41"/>
    <use xlink:href="#DejaVuSans-4d" x="68.408203"/>
    <use xlink:href="#DejaVuSans-50" x="154.6875"/>
    <use xlink:href="#DejaVuSans-4c" x="214.990234"/>
    <use xlink:href="#DejaVuSans-49" x="270.703125"/>
    <use xlink:href="#DejaVuSans-54" x="300.195312"/>
    <use xlink:href="#DejaVuSans-55" x="361.279297"/>
    <use xlink:href="#DejaVuSans-44" x="434.472656"/>
    <use xlink:href="#DejaVuSans-45" x="511.474609"/>
   </g>
  </g>
 </g>
 <defs>
  <clipPath id="p30c760707c">
   <rect x="56.23" y="54.672" width="357.77" height="34.808"/>
  </clipPath>
 </defs>
</svg>
