<?xml version="1.0" encoding="utf-8" standalone="no"?>
<!DOCTYPE svg PUBLIC "-//W3C//DTD SVG 1.1//EN"
  "http://www.w3.org/Graphics/SVG/1.1/DTD/svg11.dtd">
<svg xmlns:xlink="http://www.w3.org/1999/xlink" width="424.8pt" height="141.12pt" viewBox="0 0 424.8 141.12" xmlns="http://www.w3.org/2000/svg" version="1.1">
 <metadata>
  <rdf:RDF xmlns:dc="http://purl.org/dc/elements/1.1/" xmlns:cc="http://creativecommons.org/ns#" xmlns:rdf="http://www.w3.org/1999/02/22-rdf-syntax-ns#">
   <cc:Work>
    <dc:type rdf:resource="http://purl.org/dc/dcmitype/StillImage"/>
    <dc:date>2023-08-01T18:15:41.416003</dc:date>
    <dc:format>image/svg+xml</dc:format>
    <dc:creator>
     <cc:Agent>
      <dc:title>Matplotlib v3.7.1, https://matplotlib.org/</dc:title>
     </cc:Agent>
    </dc:creator>
   </cc:Work>
  </rdf:RDF>
 </metadata>
 <defs>
  <style type="text/css">*{stroke-linejoin: round; stroke-linecap: butt}</style>
 </defs>
 <g id="figure_1">
  <g id="patch_1">
   <path d="M 0 141.12 
L 424.8 141.12 
L 424.8 0 
L 0 0 
z
" style="fill: #ffffff"/>
  </g>
  <g id="axes_1">
   <g id="patch_2">
    <path d="M 65.68 89.48 
L 414 89.48 
L 414 54.672 
L 65.68 54.672 
z
" style="fill: #ffffff"/>
   </g>
   <g id="patch_3">
    <path d="M 81.512727 72.836076 
L 86.812385 72.836076 
L 86.812385 60.173952 
L 81.512727 60.173952 
z
" clip-path="url(#p21112b774a)" style="fill: #696969"/>
   </g>
   <g id="patch_4">
    <path d="M 88.137299 72.836076 
L 93.436957 72.836076 
L 93.436957 57.90827 
L 88.137299 57.90827 
z
" clip-path="url(#p21112b774a)" style="fill: #696969"/>
   </g>
   <g id="patch_5">
    <path d="M 94.761871 72.836076 
L 100.061529 72.836076 
L 100.061529 58.407978 
L 94.761871 58.407978 
z
" clip-path="url(#p21112b774a)" style="fill: #696969"/>
   </g>
   <g id="patch_6">
    <path d="M 101.386444 72.836076 
L 106.686101 72.836076 
L 106.686101 59.958292 
L 101.386444 59.958292 
z
" clip-path="url(#p21112b774a)" style="fill: #696969"/>
   </g>
   <g id="patch_7">
    <path d="M 108.011016 72.836076 
L 113.310673 72.836076 
L 113.310673 61.149023 
L 108.011016 61.149023 
z
" clip-path="url(#p21112b774a)" style="fill: #696969"/>
   </g>
   <g id="patch_8">
    <path d="M 114.635588 72.836076 
L 119.935245 72.836076 
L 119.935245 61.880605 
L 114.635588 61.880605 
z
" clip-path="url(#p21112b774a)" style="fill: #696969"/>
   </g>
   <g id="patch_9">
    <path d="M 121.26016 72.836076 
L 126.559817 72.836076 
L 126.559817 64.94497 
L 121.26016 64.94497 
z
" clip-path="url(#p21112b774a)" style="fill: #696969"/>
   </g>
   <g id="patch_10">
    <path d="M 127.884732 72.836076 
L 133.18439 72.836076 
L 133.18439 70.657063 
L 127.884732 70.657063 
z
" clip-path="url(#p21112b774a)" style="fill: #696969"/>
   </g>
   <g id="patch_11">
    <path d="M 134.509304 72.836076 
L 139.808962 72.836076 
L 139.808962 72.706774 
L 134.509304 72.706774 
z
" clip-path="url(#p21112b774a)" style="fill: #696969"/>
   </g>
   <g id="patch_12">
    <path d="M 141.133876 72.836076 
L 146.433534 72.836076 
L 146.433534 76.704319 
L 141.133876 76.704319 
z
" clip-path="url(#p21112b774a)" style="fill: #696969"/>
   </g>
   <g id="patch_13">
    <path d="M 147.758448 72.836076 
L 153.058106 72.836076 
L 153.058106 78.549007 
L 147.758448 78.549007 
z
" clip-path="url(#p21112b774a)" style="fill: #696969"/>
   </g>
   <g id="patch_14">
    <path d="M 154.38302 72.836076 
L 159.682678 72.836076 
L 159.682678 83.01563 
L 154.38302 83.01563 
z
" clip-path="url(#p21112b774a)" style="fill: #696969"/>
   </g>
   <g id="patch_15">
    <path d="M 161.007592 72.836076 
L 166.30725 72.836076 
L 166.30725 83.537276 
L 161.007592 83.537276 
z
" clip-path="url(#p21112b774a)" style="fill: #696969"/>
   </g>
   <g id="patch_16">
    <path d="M 167.632164 72.836076 
L 172.931822 72.836076 
L 172.931822 85.378066 
L 167.632164 85.378066 
z
" clip-path="url(#p21112b774a)" style="fill: #696969"/>
   </g>
   <g id="patch_17">
    <path d="M 174.256736 72.836076 
L 179.556394 72.836076 
L 179.556394 83.698635 
L 174.256736 83.698635 
z
" clip-path="url(#p21112b774a)" style="fill: #696969"/>
   </g>
   <g id="patch_18">
    <path d="M 180.881308 72.836076 
L 186.180966 72.836076 
L 186.180966 83.46671 
L 180.881308 83.46671 
z
" clip-path="url(#p21112b774a)" style="fill: #696969"/>
   </g>
   <g id="patch_19">
    <path d="M 187.505881 72.836076 
L 192.805538 72.836076 
L 192.805538 82.300989 
L 187.505881 82.300989 
z
" clip-path="url(#p21112b774a)" style="fill: #696969"/>
   </g>
   <g id="patch_20">
    <path d="M 194.130453 72.836076 
L 199.43011 72.836076 
L 199.43011 81.69356 
L 194.130453 81.69356 
z
" clip-path="url(#p21112b774a)" style="fill: #696969"/>
   </g>
   <g id="patch_21">
    <path d="M 200.755025 72.836076 
L 206.054682 72.836076 
L 206.054682 79.428641 
L 200.755025 79.428641 
z
" clip-path="url(#p21112b774a)" style="fill: #696969"/>
   </g>
   <g id="patch_22">
    <path d="M 207.379597 72.836076 
L 212.679254 72.836076 
L 212.679254 74.554999 
L 207.379597 74.554999 
z
" clip-path="url(#p21112b774a)" style="fill: #696969"/>
   </g>
   <g id="patch_23">
    <path d="M 214.004169 72.836076 
L 219.303827 72.836076 
L 219.303827 70.574113 
L 214.004169 70.574113 
z
" clip-path="url(#p21112b774a)" style="fill: #696969"/>
   </g>
   <g id="patch_24">
    <path d="M 220.628741 72.836076 
L 225.928399 72.836076 
L 225.928399 65.271971 
L 220.628741 65.271971 
z
" clip-path="url(#p21112b774a)" style="fill: #696969"/>
   </g>
   <g id="patch_25">
    <path d="M 227.253313 72.836076 
L 232.552971 72.836076 
L 232.552971 62.002755 
L 227.253313 62.002755 
z
" clip-path="url(#p21112b774a)" style="fill: #696969"/>
   </g>
   <g id="patch_26">
    <path d="M 233.877885 72.836076 
L 239.177543 72.836076 
L 239.177543 60.10654 
L 233.877885 60.10654 
z
" clip-path="url(#p21112b774a)" style="fill: #696969"/>
   </g>
   <g id="patch_27">
    <path d="M 240.502457 72.836076 
L 245.802115 72.836076 
L 245.802115 61.419552 
L 240.502457 61.419552 
z
" clip-path="url(#p21112b774a)" style="fill: #696969"/>
   </g>
   <g id="patch_28">
    <path d="M 247.127029 72.836076 
L 252.426687 72.836076 
L 252.426687 60.606324 
L 247.127029 60.606324 
z
" clip-path="url(#p21112b774a)" style="fill: #696969"/>
   </g>
   <g id="patch_29">
    <path d="M 253.751601 72.836076 
L 259.051259 72.836076 
L 259.051259 59.713049 
L 253.751601 59.713049 
z
" clip-path="url(#p21112b774a)" style="fill: #696969"/>
   </g>
   <g id="patch_30">
    <path d="M 260.376173 72.836076 
L 265.675831 72.836076 
L 265.675831 57.572667 
L 260.376173 57.572667 
z
" clip-path="url(#p21112b774a)" style="fill: #696969"/>
   </g>
   <g id="patch_31">
    <path d="M 267.000746 72.836076 
L 272.300403 72.836076 
L 272.300403 58.981528 
L 267.000746 58.981528 
z
" clip-path="url(#p21112b774a)" style="fill: #696969"/>
   </g>
   <g id="patch_32">
    <path d="M 273.625318 72.836076 
L 278.924975 72.836076 
L 278.924975 61.681587 
L 273.625318 61.681587 
z
" clip-path="url(#p21112b774a)" style="fill: #696969"/>
   </g>
   <g id="patch_33">
    <path d="M 280.24989 72.836076 
L 285.549547 72.836076 
L 285.549547 67.355955 
L 280.24989 67.355955 
z
" clip-path="url(#p21112b774a)" style="fill: #696969"/>
   </g>
   <g id="patch_34">
    <path d="M 286.874462 72.836076 
L 292.174119 72.836076 
L 292.174119 71.063353 
L 286.874462 71.063353 
z
" clip-path="url(#p21112b774a)" style="fill: #696969"/>
   </g>
   <g id="patch_35">
    <path d="M 293.499034 72.836076 
L 298.798692 72.836076 
L 298.798692 75.270298 
L 293.499034 75.270298 
z
" clip-path="url(#p21112b774a)" style="fill: #696969"/>
   </g>
   <g id="patch_36">
    <path d="M 300.123606 72.836076 
L 305.423264 72.836076 
L 305.423264 78.963013 
L 300.123606 78.963013 
z
" clip-path="url(#p21112b774a)" style="fill: #696969"/>
   </g>
   <g id="patch_37">
    <path d="M 306.748178 72.836076 
L 312.047836 72.836076 
L 312.047836 80.463052 
L 306.748178 80.463052 
z
" clip-path="url(#p21112b774a)" style="fill: #696969"/>
   </g>
   <g id="patch_38">
    <path d="M 313.37275 72.836076 
L 318.672408 72.836076 
L 318.672408 81.576497 
L 313.37275 81.576497 
z
" clip-path="url(#p21112b774a)" style="fill: #696969"/>
   </g>
   <g id="patch_39">
    <path d="M 319.997322 72.836076 
L 325.29698 72.836076 
L 325.29698 82.41419 
L 319.997322 82.41419 
z
" clip-path="url(#p21112b774a)" style="fill: #696969"/>
   </g>
   <g id="patch_40">
    <path d="M 326.621894 72.836076 
L 331.921552 72.836076 
L 331.921552 85.169755 
L 326.621894 85.169755 
z
" clip-path="url(#p21112b774a)" style="fill: #696969"/>
   </g>
   <g id="patch_41">
    <path d="M 333.246466 72.836076 
L 338.546124 72.836076 
L 338.546124 86.579333 
L 333.246466 86.579333 
z
" clip-path="url(#p21112b774a)" style="fill: #696969"/>
   </g>
   <g id="patch_42">
    <path d="M 339.871038 72.836076 
L 345.170696 72.836076 
L 345.170696 84.58059 
L 339.871038 84.58059 
z
" clip-path="url(#p21112b774a)" style="fill: #696969"/>
   </g>
   <g id="patch_43">
    <path d="M 346.49561 72.836076 
L 351.795268 72.836076 
L 351.795268 81.681187 
L 346.49561 81.681187 
z
" clip-path="url(#p21112b774a)" style="fill: #696969"/>
   </g>
   <g id="patch_44">
    <path d="M 353.120183 72.836076 
L 358.41984 72.836076 
L 358.41984 78.338243 
L 353.120183 78.338243 
z
" clip-path="url(#p21112b774a)" style="fill: #696969"/>
   </g>
   <g id="patch_45">
    <path d="M 359.744755 72.836076 
L 365.044412 72.836076 
L 365.044412 75.248942 
L 359.744755 75.248942 
z
" clip-path="url(#p21112b774a)" style="fill: #696969"/>
   </g>
   <g id="patch_46">
    <path d="M 366.369327 72.836076 
L 371.668984 72.836076 
L 371.668984 74.877657 
L 366.369327 74.877657 
z
" clip-path="url(#p21112b774a)" style="fill: #696969"/>
   </g>
   <g id="patch_47">
    <path d="M 372.993899 72.836076 
L 378.293556 72.836076 
L 378.293556 70.294274 
L 372.993899 70.294274 
z
" clip-path="url(#p21112b774a)" style="fill: #696969"/>
   </g>
   <g id="patch_48">
    <path d="M 379.618471 72.836076 
L 384.918129 72.836076 
L 384.918129 68.774981 
L 379.618471 68.774981 
z
" clip-path="url(#p21112b774a)" style="fill: #696969"/>
   </g>
   <g id="patch_49">
    <path d="M 386.243043 72.836076 
L 391.542701 72.836076 
L 391.542701 63.110758 
L 386.243043 63.110758 
z
" clip-path="url(#p21112b774a)" style="fill: #696969"/>
   </g>
   <g id="patch_50">
    <path d="M 392.867615 72.836076 
L 398.167273 72.836076 
L 398.167273 61.554433 
L 392.867615 61.554433 
z
" clip-path="url(#p21112b774a)" style="fill: #696969"/>
   </g>
   <g id="matplotlib.axis_1">
    <g id="xtick_1">
     <g id="line2d_1">
      <defs>
       <path id="m274bd8bafb" d="M 0 0 
L 0 3.5 
" style="stroke: #000000; stroke-width: 0.8"/>
      </defs>
      <g>
       <use xlink:href="#m274bd8bafb" x="84.162556" y="89.48" style="stroke: #000000; stroke-width: 0.8"/>
      </g>
     </g>
     <g id="text_1">
      <!-- 0 -->
      <g transform="translate(80.981306 104.078438) scale(0.1 -0.1)">
       <defs>
        <path id="DejaVuSans-30" d="M 2034 4250 
Q 1547 4250 1301 3770 
Q 1056 3291 1056 2328 
Q 1056 1369 1301 889 
Q 1547 409 2034 409 
Q 2525 409 2770 889 
Q 3016 1369 3016 2328 
Q 3016 3291 2770 3770 
Q 2525 4250 2034 4250 
z
M 2034 4750 
Q 2819 4750 3233 4129 
Q 3647 3509 3647 2328 
Q 3647 1150 3233 529 
Q 2819 -91 2034 -91 
Q 1250 -91 836 529 
Q 422 1150 422 2328 
Q 422 3509 836 4129 
Q 1250 4750 2034 4750 
z
" transform="scale(0.015625)"/>
       </defs>
       <use xlink:href="#DejaVuSans-30"/>
      </g>
     </g>
    </g>
    <g id="xtick_2">
     <g id="line2d_2">
      <g>
       <use xlink:href="#m274bd8bafb" x="150.408277" y="89.48" style="stroke: #000000; stroke-width: 0.8"/>
      </g>
     </g>
     <g id="text_2">
      <!-- 10 -->
      <g transform="translate(144.045777 104.078438) scale(0.1 -0.1)">
       <defs>
        <path id="DejaVuSans-31" d="M 794 531 
L 1825 531 
L 1825 4091 
L 703 3866 
L 703 4441 
L 1819 4666 
L 2450 4666 
L 2450 531 
L 3481 531 
L 3481 0 
L 794 0 
L 794 531 
z
" transform="scale(0.015625)"/>
       </defs>
       <use xlink:href="#DejaVuSans-31"/>
       <use xlink:href="#DejaVuSans-30" x="63.623047"/>
      </g>
     </g>
    </g>
    <g id="xtick_3">
     <g id="line2d_3">
      <g>
       <use xlink:href="#m274bd8bafb" x="216.653998" y="89.48" style="stroke: #000000; stroke-width: 0.8"/>
      </g>
     </g>
     <g id="text_3">
      <!-- 20 -->
      <g transform="translate(210.291498 104.078438) scale(0.1 -0.1)">
       <defs>
        <path id="DejaVuSans-32" d="M 1228 531 
L 3431 531 
L 3431 0 
L 469 0 
L 469 531 
Q 828 903 1448 1529 
Q 2069 2156 2228 2338 
Q 2531 2678 2651 2914 
Q 2772 3150 2772 3378 
Q 2772 3750 2511 3984 
Q 2250 4219 1831 4219 
Q 1534 4219 1204 4116 
Q 875 4013 500 3803 
L 500 4441 
Q 881 4594 1212 4672 
Q 1544 4750 1819 4750 
Q 2544 4750 2975 4387 
Q 3406 4025 3406 3419 
Q 3406 3131 3298 2873 
Q 3191 2616 2906 2266 
Q 2828 2175 2409 1742 
Q 1991 1309 1228 531 
z
" transform="scale(0.015625)"/>
       </defs>
       <use xlink:href="#DejaVuSans-32"/>
       <use xlink:href="#DejaVuSans-30" x="63.623047"/>
      </g>
     </g>
    </g>
    <g id="xtick_4">
     <g id="line2d_4">
      <g>
       <use xlink:href="#m274bd8bafb" x="282.899719" y="89.48" style="stroke: #000000; stroke-width: 0.8"/>
      </g>
     </g>
     <g id="text_4">
      <!-- 30 -->
      <g transform="translate(276.537219 104.078438) scale(0.1 -0.1)">
       <defs>
        <path id="DejaVuSans-33" d="M 2597 2516 
Q 3050 2419 3304 2112 
Q 3559 1806 3559 1356 
Q 3559 666 3084 287 
Q 2609 -91 1734 -91 
Q 1441 -91 1130 -33 
Q 819 25 488 141 
L 488 750 
Q 750 597 1062 519 
Q 1375 441 1716 441 
Q 2309 441 2620 675 
Q 2931 909 2931 1356 
Q 2931 1769 2642 2001 
Q 2353 2234 1838 2234 
L 1294 2234 
L 1294 2753 
L 1863 2753 
Q 2328 2753 2575 2939 
Q 2822 3125 2822 3475 
Q 2822 3834 2567 4026 
Q 2313 4219 1838 4219 
Q 1578 4219 1281 4162 
Q 984 4106 628 3988 
L 628 4550 
Q 988 4650 1302 4700 
Q 1616 4750 1894 4750 
Q 2613 4750 3031 4423 
Q 3450 4097 3450 3541 
Q 3450 3153 3228 2886 
Q 3006 2619 2597 2516 
z
" transform="scale(0.015625)"/>
       </defs>
       <use xlink:href="#DejaVuSans-33"/>
       <use xlink:href="#DejaVuSans-30" x="63.623047"/>
      </g>
     </g>
    </g>
    <g id="xtick_5">
     <g id="line2d_5">
      <g>
       <use xlink:href="#m274bd8bafb" x="349.145439" y="89.48" style="stroke: #000000; stroke-width: 0.8"/>
      </g>
     </g>
     <g id="text_5">
      <!-- 40 -->
      <g transform="translate(342.782939 104.078438) scale(0.1 -0.1)">
       <defs>
        <path id="DejaVuSans-34" d="M 2419 4116 
L 825 1625 
L 2419 1625 
L 2419 4116 
z
M 2253 4666 
L 3047 4666 
L 3047 1625 
L 3713 1625 
L 3713 1100 
L 3047 1100 
L 3047 0 
L 2419 0 
L 2419 1100 
L 313 1100 
L 313 1709 
L 2253 4666 
z
" transform="scale(0.015625)"/>
       </defs>
       <use xlink:href="#DejaVuSans-34"/>
       <use xlink:href="#DejaVuSans-30" x="63.623047"/>
      </g>
     </g>
    </g>
   </g>
   <g id="matplotlib.axis_2">
    <g id="ytick_1">
     <g id="line2d_6">
      <defs>
       <path id="m090752894a" d="M 0 0 
L -3.5 0 
" style="stroke: #000000; stroke-width: 0.8"/>
      </defs>
      <g>
       <use xlink:href="#m090752894a" x="65.68" y="86.947558" style="stroke: #000000; stroke-width: 0.8"/>
      </g>
     </g>
     <g id="text_6">
      <!-- −5 -->
      <g transform="translate(43.937813 90.746777) scale(0.1 -0.1)">
       <defs>
        <path id="DejaVuSans-2212" d="M 678 2272 
L 4684 2272 
L 4684 1741 
L 678 1741 
L 678 2272 
z
" transform="scale(0.015625)"/>
        <path id="DejaVuSans-35" d="M 691 4666 
L 3169 4666 
L 3169 4134 
L 1269 4134 
L 1269 2991 
Q 1406 3038 1543 3061 
Q 1681 3084 1819 3084 
Q 2600 3084 3056 2656 
Q 3513 2228 3513 1497 
Q 3513 744 3044 326 
Q 2575 -91 1722 -91 
Q 1428 -91 1123 -41 
Q 819 9 494 109 
L 494 744 
Q 775 591 1075 516 
Q 1375 441 1709 441 
Q 2250 441 2565 725 
Q 2881 1009 2881 1497 
Q 2881 1984 2565 2268 
Q 2250 2553 1709 2553 
Q 1456 2553 1204 2497 
Q 953 2441 691 2322 
L 691 4666 
z
" transform="scale(0.015625)"/>
       </defs>
       <use xlink:href="#DejaVuSans-2212"/>
       <use xlink:href="#DejaVuSans-35" x="83.789062"/>
      </g>
     </g>
    </g>
    <g id="ytick_2">
     <g id="line2d_7">
      <g>
       <use xlink:href="#m090752894a" x="65.68" y="72.836076" style="stroke: #000000; stroke-width: 0.8"/>
      </g>
     </g>
     <g id="text_7">
      <!-- 0 -->
      <g transform="translate(52.3175 76.635295) scale(0.1 -0.1)">
       <use xlink:href="#DejaVuSans-30"/>
      </g>
     </g>
    </g>
    <g id="ytick_3">
     <g id="line2d_8">
      <g>
       <use xlink:href="#m090752894a" x="65.68" y="58.724594" style="stroke: #000000; stroke-width: 0.8"/>
      </g>
     </g>
     <g id="text_8">
      <!-- 5 -->
      <g transform="translate(52.3175 62.523813) scale(0.1 -0.1)">
       <use xlink:href="#DejaVuSans-35"/>
      </g>
     </g>
    </g>
   </g>
   <g id="line2d_9">
    <path d="M 84.162556 59.911209 
L 90.787128 58.759465 
L 97.4117 58.514265 
L 104.036272 59.192571 
L 110.660844 60.74746 
L 117.285417 63.071372 
L 123.909989 66.003547 
L 130.534561 69.341148 
L 137.159133 72.853292 
L 143.783705 76.297024 
L 150.408277 79.434118 
L 157.032849 82.047563 
L 163.657421 83.95657 
L 170.281993 85.029081 
L 176.906565 85.190905 
L 183.531137 84.430847 
L 190.155709 82.801484 
L 196.780281 80.415531 
L 203.404854 77.438037 
L 210.029426 74.074976 
L 216.653998 70.558989 
L 223.27857 67.133301 
L 229.903142 64.034887 
L 236.527714 61.478084 
L 243.152286 59.639761 
L 249.776858 58.647086 
L 256.40143 58.56873 
L 263.026002 59.410112 
L 269.650574 61.113029 
L 276.275146 63.55968 
L 282.899719 66.580814 
L 289.524291 69.967442 
L 296.148863 73.485288 
L 302.773435 76.891002 
L 309.398007 79.94899 
L 316.022579 82.447711 
L 322.647151 84.214314 
L 329.271723 85.126592 
L 335.896295 85.121436 
L 342.520867 84.199205 
L 349.145439 82.423693 
L 355.770011 79.917724 
L 362.394583 76.854651 
L 369.019156 73.446367 
L 375.643728 69.928643 
L 382.2683 66.544822 
L 388.892872 63.528984 
L 395.517444 61.089753 
" clip-path="url(#p21112b774a)" style="fill: none; stroke: #191970; stroke-width: 3; stroke-linecap: square"/>
   </g>
   <g id="line2d_10">
    <path d="M 95.851246 89.48 
L 95.851246 54.672 
" clip-path="url(#p21112b774a)" style="fill: none; stroke-dasharray: 7.4,3.2; stroke-dashoffset: 0; stroke: #000000; stroke-opacity: 0.8; stroke-width: 2"/>
   </g>
   <g id="patch_51">
    <path d="M 65.68 89.48 
L 65.68 54.672 
" style="fill: none; stroke: #000000; stroke-width: 0.8; stroke-linejoin: miter; stroke-linecap: square"/>
   </g>
   <g id="patch_52">
    <path d="M 65.68 89.48 
L 414 89.48 
" style="fill: none; stroke: #000000; stroke-width: 0.8; stroke-linejoin: miter; stroke-linecap: square"/>
   </g>
   <g id="text_9">
    <!-- GENE -->
    <g transform="translate(228.693125 39.71375) scale(0.08 -0.08)">
     <defs>
      <path id="DejaVuSans-47" d="M 3809 666 
L 3809 1919 
L 2778 1919 
L 2778 2438 
L 4434 2438 
L 4434 434 
Q 4069 175 3628 42 
Q 3188 -91 2688 -91 
Q 1594 -91 976 548 
Q 359 1188 359 2328 
Q 359 3472 976 4111 
Q 1594 4750 2688 4750 
Q 3144 4750 3555 4637 
Q 3966 4525 4313 4306 
L 4313 3634 
Q 3963 3931 3569 4081 
Q 3175 4231 2741 4231 
Q 1884 4231 1454 3753 
Q 1025 3275 1025 2328 
Q 1025 1384 1454 906 
Q 1884 428 2741 428 
Q 3075 428 3337 486 
Q 3600 544 3809 666 
z
" transform="scale(0.015625)"/>
      <path id="DejaVuSans-45" d="M 628 4666 
L 3578 4666 
L 3578 4134 
L 1259 4134 
L 1259 2753 
L 3481 2753 
L 3481 2222 
L 1259 2222 
L 1259 531 
L 3634 531 
L 3634 0 
L 628 0 
L 628 4666 
z
" transform="scale(0.015625)"/>
      <path id="DejaVuSans-4e" d="M 628 4666 
L 1478 4666 
L 3547 763 
L 3547 4666 
L 4159 4666 
L 4159 0 
L 3309 0 
L 1241 3903 
L 1241 0 
L 628 0 
L 628 4666 
z
" transform="scale(0.015625)"/>
     </defs>
     <use xlink:href="#DejaVuSans-47"/>
     <use xlink:href="#DejaVuSans-45" x="77.490234"/>
     <use xlink:href="#DejaVuSans-4e" x="140.673828"/>
     <use xlink:href="#DejaVuSans-45" x="215.478516"/>
    </g>
    <!-- (AC: 1.76, PR: 23.82) -->
    <g transform="translate(198.055625 48.672) scale(0.08 -0.08)">
     <defs>
      <path id="DejaVuSans-28" d="M 1984 4856 
Q 1566 4138 1362 3434 
Q 1159 2731 1159 2009 
Q 1159 1288 1364 580 
Q 1569 -128 1984 -844 
L 1484 -844 
Q 1016 -109 783 600 
Q 550 1309 550 2009 
Q 550 2706 781 3412 
Q 1013 4119 1484 4856 
L 1984 4856 
z
" transform="scale(0.015625)"/>
      <path id="DejaVuSans-41" d="M 2188 4044 
L 1331 1722 
L 3047 1722 
L 2188 4044 
z
M 1831 4666 
L 2547 4666 
L 4325 0 
L 3669 0 
L 3244 1197 
L 1141 1197 
L 716 0 
L 50 0 
L 1831 4666 
z
" transform="scale(0.015625)"/>
      <path id="DejaVuSans-43" d="M 4122 4306 
L 4122 3641 
Q 3803 3938 3442 4084 
Q 3081 4231 2675 4231 
Q 1875 4231 1450 3742 
Q 1025 3253 1025 2328 
Q 1025 1406 1450 917 
Q 1875 428 2675 428 
Q 3081 428 3442 575 
Q 3803 722 4122 1019 
L 4122 359 
Q 3791 134 3420 21 
Q 3050 -91 2638 -91 
Q 1578 -91 968 557 
Q 359 1206 359 2328 
Q 359 3453 968 4101 
Q 1578 4750 2638 4750 
Q 3056 4750 3426 4639 
Q 3797 4528 4122 4306 
z
" transform="scale(0.015625)"/>
      <path id="DejaVuSans-3a" d="M 750 794 
L 1409 794 
L 1409 0 
L 750 0 
L 750 794 
z
M 750 3309 
L 1409 3309 
L 1409 2516 
L 750 2516 
L 750 3309 
z
" transform="scale(0.015625)"/>
      <path id="DejaVuSans-20" transform="scale(0.015625)"/>
      <path id="DejaVuSans-2e" d="M 684 794 
L 1344 794 
L 1344 0 
L 684 0 
L 684 794 
z
" transform="scale(0.015625)"/>
      <path id="DejaVuSans-37" d="M 525 4666 
L 3525 4666 
L 3525 4397 
L 1831 0 
L 1172 0 
L 2766 4134 
L 525 4134 
L 525 4666 
z
" transform="scale(0.015625)"/>
      <path id="DejaVuSans-36" d="M 2113 2584 
Q 1688 2584 1439 2293 
Q 1191 2003 1191 1497 
Q 1191 994 1439 701 
Q 1688 409 2113 409 
Q 2538 409 2786 701 
Q 3034 994 3034 1497 
Q 3034 2003 2786 2293 
Q 2538 2584 2113 2584 
z
M 3366 4563 
L 3366 3988 
Q 3128 4100 2886 4159 
Q 2644 4219 2406 4219 
Q 1781 4219 1451 3797 
Q 1122 3375 1075 2522 
Q 1259 2794 1537 2939 
Q 1816 3084 2150 3084 
Q 2853 3084 3261 2657 
Q 3669 2231 3669 1497 
Q 3669 778 3244 343 
Q 2819 -91 2113 -91 
Q 1303 -91 875 529 
Q 447 1150 447 2328 
Q 447 3434 972 4092 
Q 1497 4750 2381 4750 
Q 2619 4750 2861 4703 
Q 3103 4656 3366 4563 
z
" transform="scale(0.015625)"/>
      <path id="DejaVuSans-2c" d="M 750 794 
L 1409 794 
L 1409 256 
L 897 -744 
L 494 -744 
L 750 256 
L 750 794 
z
" transform="scale(0.015625)"/>
      <path id="DejaVuSans-50" d="M 1259 4147 
L 1259 2394 
L 2053 2394 
Q 2494 2394 2734 2622 
Q 2975 2850 2975 3272 
Q 2975 3691 2734 3919 
Q 2494 4147 2053 4147 
L 1259 4147 
z
M 628 4666 
L 2053 4666 
Q 2838 4666 3239 4311 
Q 3641 3956 3641 3272 
Q 3641 2581 3239 2228 
Q 2838 1875 2053 1875 
L 1259 1875 
L 1259 0 
L 628 0 
L 628 4666 
z
" transform="scale(0.015625)"/>
      <path id="DejaVuSans-52" d="M 2841 2188 
Q 3044 2119 3236 1894 
Q 3428 1669 3622 1275 
L 4263 0 
L 3584 0 
L 2988 1197 
Q 2756 1666 2539 1819 
Q 2322 1972 1947 1972 
L 1259 1972 
L 1259 0 
L 628 0 
L 628 4666 
L 2053 4666 
Q 2853 4666 3247 4331 
Q 3641 3997 3641 3322 
Q 3641 2881 3436 2590 
Q 3231 2300 2841 2188 
z
M 1259 4147 
L 1259 2491 
L 2053 2491 
Q 2509 2491 2742 2702 
Q 2975 2913 2975 3322 
Q 2975 3731 2742 3939 
Q 2509 4147 2053 4147 
L 1259 4147 
z
" transform="scale(0.015625)"/>
      <path id="DejaVuSans-38" d="M 2034 2216 
Q 1584 2216 1326 1975 
Q 1069 1734 1069 1313 
Q 1069 891 1326 650 
Q 1584 409 2034 409 
Q 2484 409 2743 651 
Q 3003 894 3003 1313 
Q 3003 1734 2745 1975 
Q 2488 2216 2034 2216 
z
M 1403 2484 
Q 997 2584 770 2862 
Q 544 3141 544 3541 
Q 544 4100 942 4425 
Q 1341 4750 2034 4750 
Q 2731 4750 3128 4425 
Q 3525 4100 3525 3541 
Q 3525 3141 3298 2862 
Q 3072 2584 2669 2484 
Q 3125 2378 3379 2068 
Q 3634 1759 3634 1313 
Q 3634 634 3220 271 
Q 2806 -91 2034 -91 
Q 1263 -91 848 271 
Q 434 634 434 1313 
Q 434 1759 690 2068 
Q 947 2378 1403 2484 
z
M 1172 3481 
Q 1172 3119 1398 2916 
Q 1625 2713 2034 2713 
Q 2441 2713 2670 2916 
Q 2900 3119 2900 3481 
Q 2900 3844 2670 4047 
Q 2441 4250 2034 4250 
Q 1625 4250 1398 4047 
Q 1172 3844 1172 3481 
z
" transform="scale(0.015625)"/>
      <path id="DejaVuSans-29" d="M 513 4856 
L 1013 4856 
Q 1481 4119 1714 3412 
Q 1947 2706 1947 2009 
Q 1947 1309 1714 600 
Q 1481 -109 1013 -844 
L 513 -844 
Q 928 -128 1133 580 
Q 1338 1288 1338 2009 
Q 1338 2731 1133 3434 
Q 928 4138 513 4856 
z
" transform="scale(0.015625)"/>
     </defs>
     <use xlink:href="#DejaVuSans-28"/>
     <use xlink:href="#DejaVuSans-41" x="39.013672"/>
     <use xlink:href="#DejaVuSans-43" x="105.671875"/>
     <use xlink:href="#DejaVuSans-3a" x="175.496094"/>
     <use xlink:href="#DejaVuSans-20" x="209.1875"/>
     <use xlink:href="#DejaVuSans-31" x="240.974609"/>
     <use xlink:href="#DejaVuSans-2e" x="304.597656"/>
     <use xlink:href="#DejaVuSans-37" x="336.384766"/>
     <use xlink:href="#DejaVuSans-36" x="400.007812"/>
     <use xlink:href="#DejaVuSans-2c" x="463.630859"/>
     <use xlink:href="#DejaVuSans-20" x="495.417969"/>
     <use xlink:href="#DejaVuSans-50" x="527.205078"/>
     <use xlink:href="#DejaVuSans-52" x="587.507812"/>
     <use xlink:href="#DejaVuSans-3a" x="653.865234"/>
     <use xlink:href="#DejaVuSans-20" x="687.556641"/>
     <use xlink:href="#DejaVuSans-32" x="719.34375"/>
     <use xlink:href="#DejaVuSans-33" x="782.966797"/>
     <use xlink:href="#DejaVuSans-2e" x="846.589844"/>
     <use xlink:href="#DejaVuSans-38" x="878.376953"/>
     <use xlink:href="#DejaVuSans-32" x="942"/>
     <use xlink:href="#DejaVuSans-29" x="1005.623047"/>
    </g>
   </g>
  </g>
  <g id="text_10">
   <!-- COSINOR MODEL - SIMULATION 74 -->
   <g transform="translate(108.534375 11.940525) scale(0.12 -0.12)">
    <defs>
     <path id="DejaVuSans-4f" d="M 2522 4238 
Q 1834 4238 1429 3725 
Q 1025 3213 1025 2328 
Q 1025 1447 1429 934 
Q 1834 422 2522 422 
Q 3209 422 3611 934 
Q 4013 1447 4013 2328 
Q 4013 3213 3611 3725 
Q 3209 4238 2522 4238 
z
M 2522 4750 
Q 3503 4750 4090 4092 
Q 4678 3434 4678 2328 
Q 4678 1225 4090 567 
Q 3503 -91 2522 -91 
Q 1538 -91 948 565 
Q 359 1222 359 2328 
Q 359 3434 948 4092 
Q 1538 4750 2522 4750 
z
" transform="scale(0.015625)"/>
     <path id="DejaVuSans-53" d="M 3425 4513 
L 3425 3897 
Q 3066 4069 2747 4153 
Q 2428 4238 2131 4238 
Q 1616 4238 1336 4038 
Q 1056 3838 1056 3469 
Q 1056 3159 1242 3001 
Q 1428 2844 1947 2747 
L 2328 2669 
Q 3034 2534 3370 2195 
Q 3706 1856 3706 1288 
Q 3706 609 3251 259 
Q 2797 -91 1919 -91 
Q 1588 -91 1214 -16 
Q 841 59 441 206 
L 441 856 
Q 825 641 1194 531 
Q 1563 422 1919 422 
Q 2459 422 2753 634 
Q 3047 847 3047 1241 
Q 3047 1584 2836 1778 
Q 2625 1972 2144 2069 
L 1759 2144 
Q 1053 2284 737 2584 
Q 422 2884 422 3419 
Q 422 4038 858 4394 
Q 1294 4750 2059 4750 
Q 2388 4750 2728 4690 
Q 3069 4631 3425 4513 
z
" transform="scale(0.015625)"/>
     <path id="DejaVuSans-49" d="M 628 4666 
L 1259 4666 
L 1259 0 
L 628 0 
L 628 4666 
z
" transform="scale(0.015625)"/>
     <path id="DejaVuSans-4d" d="M 628 4666 
L 1569 4666 
L 2759 1491 
L 3956 4666 
L 4897 4666 
L 4897 0 
L 4281 0 
L 4281 4097 
L 3078 897 
L 2444 897 
L 1241 4097 
L 1241 0 
L 628 0 
L 628 4666 
z
" transform="scale(0.015625)"/>
     <path id="DejaVuSans-44" d="M 1259 4147 
L 1259 519 
L 2022 519 
Q 2988 519 3436 956 
Q 3884 1394 3884 2338 
Q 3884 3275 3436 3711 
Q 2988 4147 2022 4147 
L 1259 4147 
z
M 628 4666 
L 1925 4666 
Q 3281 4666 3915 4102 
Q 4550 3538 4550 2338 
Q 4550 1131 3912 565 
Q 3275 0 1925 0 
L 628 0 
L 628 4666 
z
" transform="scale(0.015625)"/>
     <path id="DejaVuSans-4c" d="M 628 4666 
L 1259 4666 
L 1259 531 
L 3531 531 
L 3531 0 
L 628 0 
L 628 4666 
z
" transform="scale(0.015625)"/>
     <path id="DejaVuSans-2d" d="M 313 2009 
L 1997 2009 
L 1997 1497 
L 313 1497 
L 313 2009 
z
" transform="scale(0.015625)"/>
     <path id="DejaVuSans-55" d="M 556 4666 
L 1191 4666 
L 1191 1831 
Q 1191 1081 1462 751 
Q 1734 422 2344 422 
Q 2950 422 3222 751 
Q 3494 1081 3494 1831 
L 3494 4666 
L 4128 4666 
L 4128 1753 
Q 4128 841 3676 375 
Q 3225 -91 2344 -91 
Q 1459 -91 1007 375 
Q 556 841 556 1753 
L 556 4666 
z
" transform="scale(0.015625)"/>
     <path id="DejaVuSans-54" d="M -19 4666 
L 3928 4666 
L 3928 4134 
L 2272 4134 
L 2272 0 
L 1638 0 
L 1638 4134 
L -19 4134 
L -19 4666 
z
" transform="scale(0.015625)"/>
    </defs>
    <use xlink:href="#DejaVuSans-43"/>
    <use xlink:href="#DejaVuSans-4f" x="69.824219"/>
    <use xlink:href="#DejaVuSans-53" x="148.535156"/>
    <use xlink:href="#DejaVuSans-49" x="212.011719"/>
    <use xlink:href="#DejaVuSans-4e" x="241.503906"/>
    <use xlink:href="#DejaVuSans-4f" x="316.308594"/>
    <use xlink:href="#DejaVuSans-52" x="395.019531"/>
    <use xlink:href="#DejaVuSans-20" x="464.501953"/>
    <use xlink:href="#DejaVuSans-4d" x="496.289062"/>
    <use xlink:href="#DejaVuSans-4f" x="582.568359"/>
    <use xlink:href="#DejaVuSans-44" x="661.279297"/>
    <use xlink:href="#DejaVuSans-45" x="738.28125"/>
    <use xlink:href="#DejaVuSans-4c" x="801.464844"/>
    <use xlink:href="#DejaVuSans-20" x="857.177734"/>
    <use xlink:href="#DejaVuSans-2d" x="888.964844"/>
    <use xlink:href="#DejaVuSans-20" x="925.048828"/>
    <use xlink:href="#DejaVuSans-53" x="956.835938"/>
    <use xlink:href="#DejaVuSans-49" x="1020.3125"/>
    <use xlink:href="#DejaVuSans-4d" x="1049.804688"/>
    <use xlink:href="#DejaVuSans-55" x="1136.083984"/>
    <use xlink:href="#DejaVuSans-4c" x="1209.277344"/>
    <use xlink:href="#DejaVuSans-41" x="1267.240234"/>
    <use xlink:href="#DejaVuSans-54" x="1327.898438"/>
    <use xlink:href="#DejaVuSans-49" x="1388.982422"/>
    <use xlink:href="#DejaVuSans-4f" x="1418.474609"/>
    <use xlink:href="#DejaVuSans-4e" x="1497.185547"/>
    <use xlink:href="#DejaVuSans-20" x="1571.990234"/>
    <use xlink:href="#DejaVuSans-37" x="1603.777344"/>
    <use xlink:href="#DejaVuSans-34" x="1667.400391"/>
   </g>
  </g>
  <g id="text_11">
   <!-- TIME (HOURS FROM START OF PROTOCOL) -->
   <g transform="translate(84.816563 137.213175) scale(0.12 -0.12)">
    <defs>
     <path id="DejaVuSans-48" d="M 628 4666 
L 1259 4666 
L 1259 2753 
L 3553 2753 
L 3553 4666 
L 4184 4666 
L 4184 0 
L 3553 0 
L 3553 2222 
L 1259 2222 
L 1259 0 
L 628 0 
L 628 4666 
z
" transform="scale(0.015625)"/>
     <path id="DejaVuSans-46" d="M 628 4666 
L 3309 4666 
L 3309 4134 
L 1259 4134 
L 1259 2759 
L 3109 2759 
L 3109 2228 
L 1259 2228 
L 1259 0 
L 628 0 
L 628 4666 
z
" transform="scale(0.015625)"/>
    </defs>
    <use xlink:href="#DejaVuSans-54"/>
    <use xlink:href="#DejaVuSans-49" x="61.083984"/>
    <use xlink:href="#DejaVuSans-4d" x="90.576172"/>
    <use xlink:href="#DejaVuSans-45" x="176.855469"/>
    <use xlink:href="#DejaVuSans-20" x="240.039062"/>
    <use xlink:href="#DejaVuSans-28" x="271.826172"/>
    <use xlink:href="#DejaVuSans-48" x="310.839844"/>
    <use xlink:href="#DejaVuSans-4f" x="386.035156"/>
    <use xlink:href="#DejaVuSans-55" x="464.746094"/>
    <use xlink:href="#DejaVuSans-52" x="537.939453"/>
    <use xlink:href="#DejaVuSans-53" x="607.421875"/>
    <use xlink:href="#DejaVuSans-20" x="670.898438"/>
    <use xlink:href="#DejaVuSans-46" x="702.685547"/>
    <use xlink:href="#DejaVuSans-52" x="760.205078"/>
    <use xlink:href="#DejaVuSans-4f" x="829.6875"/>
    <use xlink:href="#DejaVuSans-4d" x="908.398438"/>
    <use xlink:href="#DejaVuSans-20" x="994.677734"/>
    <use xlink:href="#DejaVuSans-53" x="1026.464844"/>
    <use xlink:href="#DejaVuSans-54" x="1089.941406"/>
    <use xlink:href="#DejaVuSans-41" x="1143.275391"/>
    <use xlink:href="#DejaVuSans-52" x="1211.683594"/>
    <use xlink:href="#DejaVuSans-54" x="1273.916016"/>
    <use xlink:href="#DejaVuSans-20" x="1335"/>
    <use xlink:href="#DejaVuSans-4f" x="1366.787109"/>
    <use xlink:href="#DejaVuSans-46" x="1445.498047"/>
    <use xlink:href="#DejaVuSans-20" x="1503.017578"/>
    <use xlink:href="#DejaVuSans-50" x="1534.804688"/>
    <use xlink:href="#DejaVuSans-52" x="1595.107422"/>
    <use xlink:href="#DejaVuSans-4f" x="1664.589844"/>
    <use xlink:href="#DejaVuSans-54" x="1743.300781"/>
    <use xlink:href="#DejaVuSans-4f" x="1804.384766"/>
    <use xlink:href="#DejaVuSans-43" x="1883.095703"/>
    <use xlink:href="#DejaVuSans-4f" x="1952.919922"/>
    <use xlink:href="#DejaVuSans-4c" x="2031.630859"/>
    <use xlink:href="#DejaVuSans-29" x="2087.34375"/>
   </g>
  </g>
  <g id="text_12">
   <!-- AMPLITUDE -->
   <g transform="translate(17.614125 105.039375) rotate(-90) scale(0.12 -0.12)">
    <use xlink:href="#DejaVuSans-41"/>
    <use xlink:href="#DejaVuSans-4d" x="68.408203"/>
    <use xlink:href="#DejaVuSans-50" x="154.6875"/>
    <use xlink:href="#DejaVuSans-4c" x="214.990234"/>
    <use xlink:href="#DejaVuSans-49" x="270.703125"/>
    <use xlink:href="#DejaVuSans-54" x="300.195312"/>
    <use xlink:href="#DejaVuSans-55" x="361.279297"/>
    <use xlink:href="#DejaVuSans-44" x="434.472656"/>
    <use xlink:href="#DejaVuSans-45" x="511.474609"/>
   </g>
  </g>
 </g>
 <defs>
  <clipPath id="p21112b774a">
   <rect x="65.68" y="54.672" width="348.32" height="34.808"/>
  </clipPath>
 </defs>
</svg>
