<?xml version="1.0" encoding="utf-8" standalone="no"?>
<!DOCTYPE svg PUBLIC "-//W3C//DTD SVG 1.1//EN"
  "http://www.w3.org/Graphics/SVG/1.1/DTD/svg11.dtd">
<svg xmlns:xlink="http://www.w3.org/1999/xlink" width="864pt" height="360pt" viewBox="0 0 864 360" xmlns="http://www.w3.org/2000/svg" version="1.1">
 <metadata>
  <rdf:RDF xmlns:dc="http://purl.org/dc/elements/1.1/" xmlns:cc="http://creativecommons.org/ns#" xmlns:rdf="http://www.w3.org/1999/02/22-rdf-syntax-ns#">
   <cc:Work>
    <dc:type rdf:resource="http://purl.org/dc/dcmitype/StillImage"/>
    <dc:date>2023-08-03T16:34:30.977767</dc:date>
    <dc:format>image/svg+xml</dc:format>
    <dc:creator>
     <cc:Agent>
      <dc:title>Matplotlib v3.7.1, https://matplotlib.org/</dc:title>
     </cc:Agent>
    </dc:creator>
   </cc:Work>
  </rdf:RDF>
 </metadata>
 <defs>
  <style type="text/css">*{stroke-linejoin: round; stroke-linecap: butt}</style>
 </defs>
 <g id="figure_1">
  <g id="patch_1">
   <path d="M 0 360 
L 864 360 
L 864 0 
L 0 0 
z
" style="fill: #ffffff"/>
  </g>
  <g id="axes_1">
   <g id="patch_2">
    <path d="M 108 320.4 
L 777.6 320.4 
L 777.6 43.2 
L 108 43.2 
z
" style="fill: #ffffff"/>
   </g>
   <g id="matplotlib.axis_1">
    <g id="xtick_1">
     <g id="line2d_1">
      <defs>
       <path id="m140848c2bf" d="M 0 0 
L 0 3.5 
" style="stroke: #000000; stroke-width: 0.8"/>
      </defs>
      <g>
       <use xlink:href="#m140848c2bf" x="138.436364" y="320.4" style="stroke: #000000; stroke-width: 0.8"/>
      </g>
     </g>
     <g id="text_1">
      <!-- 2022-01-01 -->
      <g transform="translate(109.378551 334.998438) scale(0.1 -0.1)">
       <defs>
        <path id="DejaVuSans-32" d="M 1228 531 
L 3431 531 
L 3431 0 
L 469 0 
L 469 531 
Q 828 903 1448 1529 
Q 2069 2156 2228 2338 
Q 2531 2678 2651 2914 
Q 2772 3150 2772 3378 
Q 2772 3750 2511 3984 
Q 2250 4219 1831 4219 
Q 1534 4219 1204 4116 
Q 875 4013 500 3803 
L 500 4441 
Q 881 4594 1212 4672 
Q 1544 4750 1819 4750 
Q 2544 4750 2975 4387 
Q 3406 4025 3406 3419 
Q 3406 3131 3298 2873 
Q 3191 2616 2906 2266 
Q 2828 2175 2409 1742 
Q 1991 1309 1228 531 
z
" transform="scale(0.015625)"/>
        <path id="DejaVuSans-30" d="M 2034 4250 
Q 1547 4250 1301 3770 
Q 1056 3291 1056 2328 
Q 1056 1369 1301 889 
Q 1547 409 2034 409 
Q 2525 409 2770 889 
Q 3016 1369 3016 2328 
Q 3016 3291 2770 3770 
Q 2525 4250 2034 4250 
z
M 2034 4750 
Q 2819 4750 3233 4129 
Q 3647 3509 3647 2328 
Q 3647 1150 3233 529 
Q 2819 -91 2034 -91 
Q 1250 -91 836 529 
Q 422 1150 422 2328 
Q 422 3509 836 4129 
Q 1250 4750 2034 4750 
z
" transform="scale(0.015625)"/>
        <path id="DejaVuSans-2d" d="M 313 2009 
L 1997 2009 
L 1997 1497 
L 313 1497 
L 313 2009 
z
" transform="scale(0.015625)"/>
        <path id="DejaVuSans-31" d="M 794 531 
L 1825 531 
L 1825 4091 
L 703 3866 
L 703 4441 
L 1819 4666 
L 2450 4666 
L 2450 531 
L 3481 531 
L 3481 0 
L 794 0 
L 794 531 
z
" transform="scale(0.015625)"/>
       </defs>
       <use xlink:href="#DejaVuSans-32"/>
       <use xlink:href="#DejaVuSans-30" x="63.623047"/>
       <use xlink:href="#DejaVuSans-32" x="127.246094"/>
       <use xlink:href="#DejaVuSans-32" x="190.869141"/>
       <use xlink:href="#DejaVuSans-2d" x="254.492188"/>
       <use xlink:href="#DejaVuSans-30" x="290.576172"/>
       <use xlink:href="#DejaVuSans-31" x="354.199219"/>
       <use xlink:href="#DejaVuSans-2d" x="417.822266"/>
       <use xlink:href="#DejaVuSans-30" x="453.90625"/>
       <use xlink:href="#DejaVuSans-31" x="517.529297"/>
      </g>
     </g>
    </g>
    <g id="xtick_2">
     <g id="line2d_2">
      <g>
       <use xlink:href="#m140848c2bf" x="225.527002" y="320.4" style="stroke: #000000; stroke-width: 0.8"/>
      </g>
     </g>
     <g id="text_2">
      <!-- 2022-01-03 -->
      <g transform="translate(196.469189 334.998438) scale(0.1 -0.1)">
       <defs>
        <path id="DejaVuSans-33" d="M 2597 2516 
Q 3050 2419 3304 2112 
Q 3559 1806 3559 1356 
Q 3559 666 3084 287 
Q 2609 -91 1734 -91 
Q 1441 -91 1130 -33 
Q 819 25 488 141 
L 488 750 
Q 750 597 1062 519 
Q 1375 441 1716 441 
Q 2309 441 2620 675 
Q 2931 909 2931 1356 
Q 2931 1769 2642 2001 
Q 2353 2234 1838 2234 
L 1294 2234 
L 1294 2753 
L 1863 2753 
Q 2328 2753 2575 2939 
Q 2822 3125 2822 3475 
Q 2822 3834 2567 4026 
Q 2313 4219 1838 4219 
Q 1578 4219 1281 4162 
Q 984 4106 628 3988 
L 628 4550 
Q 988 4650 1302 4700 
Q 1616 4750 1894 4750 
Q 2613 4750 3031 4423 
Q 3450 4097 3450 3541 
Q 3450 3153 3228 2886 
Q 3006 2619 2597 2516 
z
" transform="scale(0.015625)"/>
       </defs>
       <use xlink:href="#DejaVuSans-32"/>
       <use xlink:href="#DejaVuSans-30" x="63.623047"/>
       <use xlink:href="#DejaVuSans-32" x="127.246094"/>
       <use xlink:href="#DejaVuSans-32" x="190.869141"/>
       <use xlink:href="#DejaVuSans-2d" x="254.492188"/>
       <use xlink:href="#DejaVuSans-30" x="290.576172"/>
       <use xlink:href="#DejaVuSans-31" x="354.199219"/>
       <use xlink:href="#DejaVuSans-2d" x="417.822266"/>
       <use xlink:href="#DejaVuSans-30" x="453.90625"/>
       <use xlink:href="#DejaVuSans-33" x="517.529297"/>
      </g>
     </g>
    </g>
    <g id="xtick_3">
     <g id="line2d_3">
      <g>
       <use xlink:href="#m140848c2bf" x="312.61764" y="320.4" style="stroke: #000000; stroke-width: 0.8"/>
      </g>
     </g>
     <g id="text_3">
      <!-- 2022-01-05 -->
      <g transform="translate(283.559827 334.998438) scale(0.1 -0.1)">
       <defs>
        <path id="DejaVuSans-35" d="M 691 4666 
L 3169 4666 
L 3169 4134 
L 1269 4134 
L 1269 2991 
Q 1406 3038 1543 3061 
Q 1681 3084 1819 3084 
Q 2600 3084 3056 2656 
Q 3513 2228 3513 1497 
Q 3513 744 3044 326 
Q 2575 -91 1722 -91 
Q 1428 -91 1123 -41 
Q 819 9 494 109 
L 494 744 
Q 775 591 1075 516 
Q 1375 441 1709 441 
Q 2250 441 2565 725 
Q 2881 1009 2881 1497 
Q 2881 1984 2565 2268 
Q 2250 2553 1709 2553 
Q 1456 2553 1204 2497 
Q 953 2441 691 2322 
L 691 4666 
z
" transform="scale(0.015625)"/>
       </defs>
       <use xlink:href="#DejaVuSans-32"/>
       <use xlink:href="#DejaVuSans-30" x="63.623047"/>
       <use xlink:href="#DejaVuSans-32" x="127.246094"/>
       <use xlink:href="#DejaVuSans-32" x="190.869141"/>
       <use xlink:href="#DejaVuSans-2d" x="254.492188"/>
       <use xlink:href="#DejaVuSans-30" x="290.576172"/>
       <use xlink:href="#DejaVuSans-31" x="354.199219"/>
       <use xlink:href="#DejaVuSans-2d" x="417.822266"/>
       <use xlink:href="#DejaVuSans-30" x="453.90625"/>
       <use xlink:href="#DejaVuSans-35" x="517.529297"/>
      </g>
     </g>
    </g>
    <g id="xtick_4">
     <g id="line2d_4">
      <g>
       <use xlink:href="#m140848c2bf" x="399.708278" y="320.4" style="stroke: #000000; stroke-width: 0.8"/>
      </g>
     </g>
     <g id="text_4">
      <!-- 2022-01-07 -->
      <g transform="translate(370.650466 334.998438) scale(0.1 -0.1)">
       <defs>
        <path id="DejaVuSans-37" d="M 525 4666 
L 3525 4666 
L 3525 4397 
L 1831 0 
L 1172 0 
L 2766 4134 
L 525 4134 
L 525 4666 
z
" transform="scale(0.015625)"/>
       </defs>
       <use xlink:href="#DejaVuSans-32"/>
       <use xlink:href="#DejaVuSans-30" x="63.623047"/>
       <use xlink:href="#DejaVuSans-32" x="127.246094"/>
       <use xlink:href="#DejaVuSans-32" x="190.869141"/>
       <use xlink:href="#DejaVuSans-2d" x="254.492188"/>
       <use xlink:href="#DejaVuSans-30" x="290.576172"/>
       <use xlink:href="#DejaVuSans-31" x="354.199219"/>
       <use xlink:href="#DejaVuSans-2d" x="417.822266"/>
       <use xlink:href="#DejaVuSans-30" x="453.90625"/>
       <use xlink:href="#DejaVuSans-37" x="517.529297"/>
      </g>
     </g>
    </g>
    <g id="xtick_5">
     <g id="line2d_5">
      <g>
       <use xlink:href="#m140848c2bf" x="486.798916" y="320.4" style="stroke: #000000; stroke-width: 0.8"/>
      </g>
     </g>
     <g id="text_5">
      <!-- 2022-01-09 -->
      <g transform="translate(457.741104 334.998438) scale(0.1 -0.1)">
       <defs>
        <path id="DejaVuSans-39" d="M 703 97 
L 703 672 
Q 941 559 1184 500 
Q 1428 441 1663 441 
Q 2288 441 2617 861 
Q 2947 1281 2994 2138 
Q 2813 1869 2534 1725 
Q 2256 1581 1919 1581 
Q 1219 1581 811 2004 
Q 403 2428 403 3163 
Q 403 3881 828 4315 
Q 1253 4750 1959 4750 
Q 2769 4750 3195 4129 
Q 3622 3509 3622 2328 
Q 3622 1225 3098 567 
Q 2575 -91 1691 -91 
Q 1453 -91 1209 -44 
Q 966 3 703 97 
z
M 1959 2075 
Q 2384 2075 2632 2365 
Q 2881 2656 2881 3163 
Q 2881 3666 2632 3958 
Q 2384 4250 1959 4250 
Q 1534 4250 1286 3958 
Q 1038 3666 1038 3163 
Q 1038 2656 1286 2365 
Q 1534 2075 1959 2075 
z
" transform="scale(0.015625)"/>
       </defs>
       <use xlink:href="#DejaVuSans-32"/>
       <use xlink:href="#DejaVuSans-30" x="63.623047"/>
       <use xlink:href="#DejaVuSans-32" x="127.246094"/>
       <use xlink:href="#DejaVuSans-32" x="190.869141"/>
       <use xlink:href="#DejaVuSans-2d" x="254.492188"/>
       <use xlink:href="#DejaVuSans-30" x="290.576172"/>
       <use xlink:href="#DejaVuSans-31" x="354.199219"/>
       <use xlink:href="#DejaVuSans-2d" x="417.822266"/>
       <use xlink:href="#DejaVuSans-30" x="453.90625"/>
       <use xlink:href="#DejaVuSans-39" x="517.529297"/>
      </g>
     </g>
    </g>
    <g id="xtick_6">
     <g id="line2d_6">
      <g>
       <use xlink:href="#m140848c2bf" x="573.889554" y="320.4" style="stroke: #000000; stroke-width: 0.8"/>
      </g>
     </g>
     <g id="text_6">
      <!-- 2022-01-11 -->
      <g transform="translate(544.831742 334.998438) scale(0.1 -0.1)">
       <use xlink:href="#DejaVuSans-32"/>
       <use xlink:href="#DejaVuSans-30" x="63.623047"/>
       <use xlink:href="#DejaVuSans-32" x="127.246094"/>
       <use xlink:href="#DejaVuSans-32" x="190.869141"/>
       <use xlink:href="#DejaVuSans-2d" x="254.492188"/>
       <use xlink:href="#DejaVuSans-30" x="290.576172"/>
       <use xlink:href="#DejaVuSans-31" x="354.199219"/>
       <use xlink:href="#DejaVuSans-2d" x="417.822266"/>
       <use xlink:href="#DejaVuSans-31" x="453.90625"/>
       <use xlink:href="#DejaVuSans-31" x="517.529297"/>
      </g>
     </g>
    </g>
    <g id="xtick_7">
     <g id="line2d_7">
      <g>
       <use xlink:href="#m140848c2bf" x="660.980192" y="320.4" style="stroke: #000000; stroke-width: 0.8"/>
      </g>
     </g>
     <g id="text_7">
      <!-- 2022-01-13 -->
      <g transform="translate(631.92238 334.998438) scale(0.1 -0.1)">
       <use xlink:href="#DejaVuSans-32"/>
       <use xlink:href="#DejaVuSans-30" x="63.623047"/>
       <use xlink:href="#DejaVuSans-32" x="127.246094"/>
       <use xlink:href="#DejaVuSans-32" x="190.869141"/>
       <use xlink:href="#DejaVuSans-2d" x="254.492188"/>
       <use xlink:href="#DejaVuSans-30" x="290.576172"/>
       <use xlink:href="#DejaVuSans-31" x="354.199219"/>
       <use xlink:href="#DejaVuSans-2d" x="417.822266"/>
       <use xlink:href="#DejaVuSans-31" x="453.90625"/>
       <use xlink:href="#DejaVuSans-33" x="517.529297"/>
      </g>
     </g>
    </g>
    <g id="xtick_8">
     <g id="line2d_8">
      <g>
       <use xlink:href="#m140848c2bf" x="748.070831" y="320.4" style="stroke: #000000; stroke-width: 0.8"/>
      </g>
     </g>
     <g id="text_8">
      <!-- 2022-01-15 -->
      <g transform="translate(719.013018 334.998438) scale(0.1 -0.1)">
       <use xlink:href="#DejaVuSans-32"/>
       <use xlink:href="#DejaVuSans-30" x="63.623047"/>
       <use xlink:href="#DejaVuSans-32" x="127.246094"/>
       <use xlink:href="#DejaVuSans-32" x="190.869141"/>
       <use xlink:href="#DejaVuSans-2d" x="254.492188"/>
       <use xlink:href="#DejaVuSans-30" x="290.576172"/>
       <use xlink:href="#DejaVuSans-31" x="354.199219"/>
       <use xlink:href="#DejaVuSans-2d" x="417.822266"/>
       <use xlink:href="#DejaVuSans-31" x="453.90625"/>
       <use xlink:href="#DejaVuSans-35" x="517.529297"/>
      </g>
     </g>
    </g>
    <g id="text_9">
     <!-- TIME (DAYS) -->
     <g transform="translate(412.283594 348.676562) scale(0.1 -0.1)">
      <defs>
       <path id="DejaVuSans-54" d="M -19 4666 
L 3928 4666 
L 3928 4134 
L 2272 4134 
L 2272 0 
L 1638 0 
L 1638 4134 
L -19 4134 
L -19 4666 
z
" transform="scale(0.015625)"/>
       <path id="DejaVuSans-49" d="M 628 4666 
L 1259 4666 
L 1259 0 
L 628 0 
L 628 4666 
z
" transform="scale(0.015625)"/>
       <path id="DejaVuSans-4d" d="M 628 4666 
L 1569 4666 
L 2759 1491 
L 3956 4666 
L 4897 4666 
L 4897 0 
L 4281 0 
L 4281 4097 
L 3078 897 
L 2444 897 
L 1241 4097 
L 1241 0 
L 628 0 
L 628 4666 
z
" transform="scale(0.015625)"/>
       <path id="DejaVuSans-45" d="M 628 4666 
L 3578 4666 
L 3578 4134 
L 1259 4134 
L 1259 2753 
L 3481 2753 
L 3481 2222 
L 1259 2222 
L 1259 531 
L 3634 531 
L 3634 0 
L 628 0 
L 628 4666 
z
" transform="scale(0.015625)"/>
       <path id="DejaVuSans-20" transform="scale(0.015625)"/>
       <path id="DejaVuSans-28" d="M 1984 4856 
Q 1566 4138 1362 3434 
Q 1159 2731 1159 2009 
Q 1159 1288 1364 580 
Q 1569 -128 1984 -844 
L 1484 -844 
Q 1016 -109 783 600 
Q 550 1309 550 2009 
Q 550 2706 781 3412 
Q 1013 4119 1484 4856 
L 1984 4856 
z
" transform="scale(0.015625)"/>
       <path id="DejaVuSans-44" d="M 1259 4147 
L 1259 519 
L 2022 519 
Q 2988 519 3436 956 
Q 3884 1394 3884 2338 
Q 3884 3275 3436 3711 
Q 2988 4147 2022 4147 
L 1259 4147 
z
M 628 4666 
L 1925 4666 
Q 3281 4666 3915 4102 
Q 4550 3538 4550 2338 
Q 4550 1131 3912 565 
Q 3275 0 1925 0 
L 628 0 
L 628 4666 
z
" transform="scale(0.015625)"/>
       <path id="DejaVuSans-41" d="M 2188 4044 
L 1331 1722 
L 3047 1722 
L 2188 4044 
z
M 1831 4666 
L 2547 4666 
L 4325 0 
L 3669 0 
L 3244 1197 
L 1141 1197 
L 716 0 
L 50 0 
L 1831 4666 
z
" transform="scale(0.015625)"/>
       <path id="DejaVuSans-59" d="M -13 4666 
L 666 4666 
L 1959 2747 
L 3244 4666 
L 3922 4666 
L 2272 2222 
L 2272 0 
L 1638 0 
L 1638 2222 
L -13 4666 
z
" transform="scale(0.015625)"/>
       <path id="DejaVuSans-53" d="M 3425 4513 
L 3425 3897 
Q 3066 4069 2747 4153 
Q 2428 4238 2131 4238 
Q 1616 4238 1336 4038 
Q 1056 3838 1056 3469 
Q 1056 3159 1242 3001 
Q 1428 2844 1947 2747 
L 2328 2669 
Q 3034 2534 3370 2195 
Q 3706 1856 3706 1288 
Q 3706 609 3251 259 
Q 2797 -91 1919 -91 
Q 1588 -91 1214 -16 
Q 841 59 441 206 
L 441 856 
Q 825 641 1194 531 
Q 1563 422 1919 422 
Q 2459 422 2753 634 
Q 3047 847 3047 1241 
Q 3047 1584 2836 1778 
Q 2625 1972 2144 2069 
L 1759 2144 
Q 1053 2284 737 2584 
Q 422 2884 422 3419 
Q 422 4038 858 4394 
Q 1294 4750 2059 4750 
Q 2388 4750 2728 4690 
Q 3069 4631 3425 4513 
z
" transform="scale(0.015625)"/>
       <path id="DejaVuSans-29" d="M 513 4856 
L 1013 4856 
Q 1481 4119 1714 3412 
Q 1947 2706 1947 2009 
Q 1947 1309 1714 600 
Q 1481 -109 1013 -844 
L 513 -844 
Q 928 -128 1133 580 
Q 1338 1288 1338 2009 
Q 1338 2731 1133 3434 
Q 928 4138 513 4856 
z
" transform="scale(0.015625)"/>
      </defs>
      <use xlink:href="#DejaVuSans-54"/>
      <use xlink:href="#DejaVuSans-49" x="61.083984"/>
      <use xlink:href="#DejaVuSans-4d" x="90.576172"/>
      <use xlink:href="#DejaVuSans-45" x="176.855469"/>
      <use xlink:href="#DejaVuSans-20" x="240.039062"/>
      <use xlink:href="#DejaVuSans-28" x="271.826172"/>
      <use xlink:href="#DejaVuSans-44" x="310.839844"/>
      <use xlink:href="#DejaVuSans-41" x="386.091797"/>
      <use xlink:href="#DejaVuSans-59" x="446.75"/>
      <use xlink:href="#DejaVuSans-53" x="507.833984"/>
      <use xlink:href="#DejaVuSans-29" x="571.310547"/>
     </g>
    </g>
   </g>
   <g id="matplotlib.axis_2">
    <g id="ytick_1">
     <g id="line2d_9">
      <defs>
       <path id="m54ce15149e" d="M 0 0 
L -3.5 0 
" style="stroke: #000000; stroke-width: 0.8"/>
      </defs>
      <g>
       <use xlink:href="#m54ce15149e" x="108" y="307.8" style="stroke: #000000; stroke-width: 0.8"/>
      </g>
     </g>
     <g id="text_10">
      <!-- 0 -->
      <g transform="translate(94.6375 311.599219) scale(0.1 -0.1)">
       <use xlink:href="#DejaVuSans-30"/>
      </g>
     </g>
    </g>
    <g id="ytick_2">
     <g id="line2d_10">
      <g>
       <use xlink:href="#m54ce15149e" x="108" y="256.993548" style="stroke: #000000; stroke-width: 0.8"/>
      </g>
     </g>
     <g id="text_11">
      <!-- 50 -->
      <g transform="translate(88.275 260.792767) scale(0.1 -0.1)">
       <use xlink:href="#DejaVuSans-35"/>
       <use xlink:href="#DejaVuSans-30" x="63.623047"/>
      </g>
     </g>
    </g>
    <g id="ytick_3">
     <g id="line2d_11">
      <g>
       <use xlink:href="#m54ce15149e" x="108" y="206.187097" style="stroke: #000000; stroke-width: 0.8"/>
      </g>
     </g>
     <g id="text_12">
      <!-- 100 -->
      <g transform="translate(81.9125 209.986316) scale(0.1 -0.1)">
       <use xlink:href="#DejaVuSans-31"/>
       <use xlink:href="#DejaVuSans-30" x="63.623047"/>
       <use xlink:href="#DejaVuSans-30" x="127.246094"/>
      </g>
     </g>
    </g>
    <g id="ytick_4">
     <g id="line2d_12">
      <g>
       <use xlink:href="#m54ce15149e" x="108" y="155.380645" style="stroke: #000000; stroke-width: 0.8"/>
      </g>
     </g>
     <g id="text_13">
      <!-- 150 -->
      <g transform="translate(81.9125 159.179864) scale(0.1 -0.1)">
       <use xlink:href="#DejaVuSans-31"/>
       <use xlink:href="#DejaVuSans-35" x="63.623047"/>
       <use xlink:href="#DejaVuSans-30" x="127.246094"/>
      </g>
     </g>
    </g>
    <g id="ytick_5">
     <g id="line2d_13">
      <g>
       <use xlink:href="#m54ce15149e" x="108" y="104.574194" style="stroke: #000000; stroke-width: 0.8"/>
      </g>
     </g>
     <g id="text_14">
      <!-- 200 -->
      <g transform="translate(81.9125 108.373412) scale(0.1 -0.1)">
       <use xlink:href="#DejaVuSans-32"/>
       <use xlink:href="#DejaVuSans-30" x="63.623047"/>
       <use xlink:href="#DejaVuSans-30" x="127.246094"/>
      </g>
     </g>
    </g>
    <g id="ytick_6">
     <g id="line2d_14">
      <g>
       <use xlink:href="#m54ce15149e" x="108" y="53.767742" style="stroke: #000000; stroke-width: 0.8"/>
      </g>
     </g>
     <g id="text_15">
      <!-- 250 -->
      <g transform="translate(81.9125 57.566961) scale(0.1 -0.1)">
       <use xlink:href="#DejaVuSans-32"/>
       <use xlink:href="#DejaVuSans-35" x="63.623047"/>
       <use xlink:href="#DejaVuSans-30" x="127.246094"/>
      </g>
     </g>
    </g>
    <g id="text_16">
     <!-- AMPLITUDE -->
     <g transform="translate(75.832812 210.532812) rotate(-90) scale(0.1 -0.1)">
      <defs>
       <path id="DejaVuSans-50" d="M 1259 4147 
L 1259 2394 
L 2053 2394 
Q 2494 2394 2734 2622 
Q 2975 2850 2975 3272 
Q 2975 3691 2734 3919 
Q 2494 4147 2053 4147 
L 1259 4147 
z
M 628 4666 
L 2053 4666 
Q 2838 4666 3239 4311 
Q 3641 3956 3641 3272 
Q 3641 2581 3239 2228 
Q 2838 1875 2053 1875 
L 1259 1875 
L 1259 0 
L 628 0 
L 628 4666 
z
" transform="scale(0.015625)"/>
       <path id="DejaVuSans-4c" d="M 628 4666 
L 1259 4666 
L 1259 531 
L 3531 531 
L 3531 0 
L 628 0 
L 628 4666 
z
" transform="scale(0.015625)"/>
       <path id="DejaVuSans-55" d="M 556 4666 
L 1191 4666 
L 1191 1831 
Q 1191 1081 1462 751 
Q 1734 422 2344 422 
Q 2950 422 3222 751 
Q 3494 1081 3494 1831 
L 3494 4666 
L 4128 4666 
L 4128 1753 
Q 4128 841 3676 375 
Q 3225 -91 2344 -91 
Q 1459 -91 1007 375 
Q 556 841 556 1753 
L 556 4666 
z
" transform="scale(0.015625)"/>
      </defs>
      <use xlink:href="#DejaVuSans-41"/>
      <use xlink:href="#DejaVuSans-4d" x="68.408203"/>
      <use xlink:href="#DejaVuSans-50" x="154.6875"/>
      <use xlink:href="#DejaVuSans-4c" x="214.990234"/>
      <use xlink:href="#DejaVuSans-49" x="270.703125"/>
      <use xlink:href="#DejaVuSans-54" x="300.195312"/>
      <use xlink:href="#DejaVuSans-55" x="361.279297"/>
      <use xlink:href="#DejaVuSans-44" x="434.472656"/>
      <use xlink:href="#DejaVuSans-45" x="511.474609"/>
     </g>
    </g>
   </g>
   <g id="line2d_15">
    <path d="M 138.436364 284.429032 
L 139.343558 204.154839 
L 140.250752 285.445161 
L 141.157946 307.8 
L 142.06514 307.8 
L 142.972334 228.541935 
L 143.879529 307.8 
L 144.786723 271.219355 
L 145.693917 307.8 
L 146.601111 307.8 
L 147.508305 246.832258 
L 148.415499 212.283871 
L 149.322693 278.332258 
L 150.229888 307.8 
L 152.044276 307.8 
L 152.95147 249.880645 
L 153.858664 307.8 
L 154.765858 263.090323 
L 155.673052 276.3 
L 156.580247 292.558065 
L 157.487441 275.283871 
L 158.394635 113.719355 
L 159.301829 125.912903 
L 160.209023 307.8 
L 161.116217 226.509677 
L 162.023411 187.896774 
L 162.930606 273.251613 
L 163.8378 251.912903 
L 164.744994 220.412903 
L 165.652188 139.122581 
L 166.559382 197.041935 
L 167.466576 244.8 
L 168.37377 301.703226 
L 169.280965 272.235484 
L 170.188159 206.187097 
L 171.095353 161.477419 
L 172.002547 167.574194 
L 172.909741 274.267742 
L 173.816935 243.783871 
L 174.72413 188.912903 
L 175.631324 199.074194 
L 176.538518 186.880645 
L 177.445712 235.654839 
L 178.352906 249.880645 
L 179.2601 197.041935 
L 180.167294 286.46129 
L 181.074489 307.8 
L 181.981683 271.219355 
L 182.888877 307.8 
L 183.796071 307.8 
L 184.703265 289.509677 
L 185.610459 242.767742 
L 186.517653 293.574194 
L 187.424848 307.8 
L 188.332042 307.8 
L 189.239236 215.332258 
L 190.14643 259.025806 
L 191.053624 242.767742 
L 192.868012 307.8 
L 193.775207 307.8 
L 194.682401 284.429032 
L 195.589595 307.8 
L 196.496789 277.316129 
L 197.403983 304.751613 
L 198.311177 201.106452 
L 199.218371 307.8 
L 200.125566 295.606452 
L 201.03276 266.13871 
L 201.939954 244.8 
L 202.847148 300.687097 
L 203.754342 276.3 
L 204.661536 285.445161 
L 205.568731 200.090323 
L 206.475925 202.122581 
L 207.383119 229.558065 
L 208.290313 225.493548 
L 209.197507 245.816129 
L 210.104701 236.670968 
L 211.011895 93.396774 
L 211.91909 221.429032 
L 212.826284 260.041935 
L 213.733478 245.816129 
L 214.640672 271.219355 
L 215.547866 181.8 
L 216.45506 142.170968 
L 217.362254 195.009677 
L 218.269449 268.170968 
L 219.176643 203.13871 
L 220.083837 273.251613 
L 220.991031 303.735484 
L 221.898225 234.63871 
L 222.805419 307.8 
L 223.712613 293.574194 
L 224.619808 307.8 
L 225.527002 230.574194 
L 226.434196 307.8 
L 227.34139 235.654839 
L 228.248584 242.767742 
L 229.155778 307.8 
L 230.062972 206.187097 
L 230.970167 307.8 
L 231.877361 307.8 
L 232.784555 272.235484 
L 233.691749 307.8 
L 234.598943 292.558065 
L 235.506137 307.8 
L 236.413332 307.8 
L 237.320526 209.235484 
L 238.22772 274.267742 
L 239.134914 204.154839 
L 240.042108 307.8 
L 240.949302 307.8 
L 241.856496 229.558065 
L 242.763691 245.816129 
L 243.670885 209.235484 
L 244.578079 189.929032 
L 245.485273 179.767742 
L 246.392467 227.525806 
L 247.299661 251.912903 
L 248.206855 230.574194 
L 249.11405 218.380645 
L 250.021244 285.445161 
L 250.928438 128.96129 
L 251.835632 207.203226 
L 252.742826 192.977419 
L 253.65002 162.493548 
L 254.557214 179.767742 
L 255.464409 190.945161 
L 256.371603 244.8 
L 257.278797 222.445161 
L 258.185991 232.606452 
L 259.093185 307.8 
L 260.000379 172.654839 
L 260.907573 197.041935 
L 261.814768 226.509677 
L 262.721962 186.880645 
L 263.629156 269.187097 
L 264.53635 276.3 
L 265.443544 244.8 
L 266.350738 286.46129 
L 267.257933 298.654839 
L 268.165127 303.735484 
L 269.072321 307.8 
L 269.979515 307.8 
L 270.886709 302.719355 
L 271.793903 279.348387 
L 272.701097 307.8 
L 273.608292 307.8 
L 274.515486 227.525806 
L 275.42268 307.8 
L 276.329874 230.574194 
L 277.237068 307.8 
L 278.144262 307.8 
L 279.051456 293.574194 
L 279.958651 256.993548 
L 280.865845 226.509677 
L 281.773039 250.896774 
L 282.680233 307.8 
L 283.587427 307.8 
L 284.494621 280.364516 
L 285.401815 291.541935 
L 286.30901 251.912903 
L 287.216204 223.46129 
L 288.123398 247.848387 
L 289.030592 231.590323 
L 290.84498 229.558065 
L 291.752175 196.025806 
L 292.659369 307.8 
L 293.566563 188.912903 
L 294.473757 187.896774 
L 295.380951 307.8 
L 296.288145 228.541935 
L 297.195339 238.703226 
L 298.102534 161.477419 
L 299.009728 242.767742 
L 299.916922 307.8 
L 300.824116 307.8 
L 301.73131 271.219355 
L 302.638504 197.041935 
L 303.545698 270.203226 
L 304.452893 277.316129 
L 305.360087 265.122581 
L 306.267281 307.8 
L 307.174475 210.251613 
L 308.081669 307.8 
L 308.988863 249.880645 
L 309.896057 307.8 
L 310.803252 212.283871 
L 311.710446 278.332258 
L 312.61764 179.767742 
L 313.524834 307.8 
L 315.339222 307.8 
L 316.246416 262.074194 
L 317.153611 236.670968 
L 318.060805 255.977419 
L 318.967999 155.380645 
L 319.875193 272.235484 
L 320.782387 306.783871 
L 321.689581 227.525806 
L 322.596776 307.8 
L 323.50397 173.670968 
L 324.411164 268.170968 
L 325.318358 272.235484 
L 326.225552 235.654839 
L 327.132746 185.864516 
L 328.03994 227.525806 
L 328.947135 177.735484 
L 329.854329 262.074194 
L 330.761523 138.106452 
L 331.668717 247.848387 
L 332.575911 281.380645 
L 334.390299 139.122581 
L 335.297494 185.864516 
L 336.204688 246.832258 
L 337.111882 266.13871 
L 338.019076 210.251613 
L 338.92627 247.848387 
L 339.833464 242.767742 
L 340.740658 307.8 
L 341.647853 281.380645 
L 342.555047 192.977419 
L 343.462241 284.429032 
L 344.369435 307.8 
L 345.276629 291.541935 
L 346.183823 200.090323 
L 347.091017 281.380645 
L 347.998212 250.896774 
L 348.905406 305.767742 
L 349.8126 266.13871 
L 350.719794 307.8 
L 356.162959 307.8 
L 357.070153 270.203226 
L 357.977347 307.8 
L 359.791736 307.8 
L 360.69893 235.654839 
L 361.606124 107.622581 
L 362.513318 163.509677 
L 363.420512 197.041935 
L 364.327706 280.364516 
L 365.2349 220.412903 
L 366.142095 301.703226 
L 367.049289 158.429032 
L 367.956483 235.654839 
L 368.863677 218.380645 
L 369.770871 208.219355 
L 370.678065 245.816129 
L 371.585259 307.8 
L 372.492454 193.993548 
L 373.399648 224.477419 
L 374.306842 129.977419 
L 375.214036 55.8 
L 376.12123 224.477419 
L 377.028424 130.993548 
L 377.935618 273.251613 
L 378.842813 222.445161 
L 379.750007 230.574194 
L 380.657201 246.832258 
L 381.564395 116.767742 
L 382.471589 271.219355 
L 383.378783 266.13871 
L 384.285978 255.977419 
L 385.193172 307.8 
L 387.00756 307.8 
L 387.914754 288.493548 
L 388.821948 307.8 
L 389.729142 271.219355 
L 390.636337 307.8 
L 391.543531 249.880645 
L 392.450725 281.380645 
L 393.357919 264.106452 
L 394.265113 307.8 
L 395.172307 264.106452 
L 396.079501 276.3 
L 396.986696 226.509677 
L 397.89389 282.396774 
L 398.801084 307.8 
L 399.708278 179.767742 
L 400.615472 307.8 
L 401.522666 179.767742 
L 402.42986 254.96129 
L 403.337055 233.622581 
L 404.244249 264.106452 
L 405.151443 251.912903 
L 406.058637 307.8 
L 406.965831 187.896774 
L 407.873025 261.058065 
L 408.780219 307.8 
L 409.687414 204.154839 
L 410.594608 201.106452 
L 411.501802 249.880645 
L 412.408996 200.090323 
L 413.31619 225.493548 
L 414.223384 153.348387 
L 415.130579 181.8 
L 416.037773 307.8 
L 416.944967 165.541935 
L 417.852161 195.009677 
L 418.759355 232.606452 
L 419.666549 79.170968 
L 420.573743 290.525806 
L 421.480938 223.46129 
L 422.388132 294.590323 
L 423.295326 248.864516 
L 424.20252 164.525806 
L 425.109714 137.090323 
L 426.016908 239.719355 
L 426.924102 307.8 
L 427.831297 295.606452 
L 428.738491 235.654839 
L 429.645685 303.735484 
L 430.552879 259.025806 
L 431.460073 307.8 
L 433.274461 307.8 
L 434.181656 303.735484 
L 435.08885 307.8 
L 435.996044 307.8 
L 436.903238 242.767742 
L 437.810432 307.8 
L 438.717626 298.654839 
L 439.62482 307.8 
L 440.532015 282.396774 
L 441.439209 303.735484 
L 442.346403 183.832258 
L 443.253597 273.251613 
L 444.160791 232.606452 
L 445.067985 307.8 
L 445.97518 201.106452 
L 446.882374 279.348387 
L 447.789568 267.154839 
L 448.696762 127.945161 
L 449.603956 221.429032 
L 450.51115 200.090323 
L 451.418344 282.396774 
L 452.325539 277.316129 
L 453.232733 141.154839 
L 454.139927 180.783871 
L 455.047121 307.8 
L 455.954315 150.3 
L 456.861509 216.348387 
L 457.768703 174.687097 
L 458.675898 247.848387 
L 459.583092 184.848387 
L 460.490286 111.687097 
L 461.39748 227.525806 
L 462.304674 213.3 
L 463.211868 192.977419 
L 464.119062 258.009677 
L 465.026257 283.412903 
L 465.933451 208.219355 
L 466.840645 307.8 
L 467.747839 225.493548 
L 468.655033 186.880645 
L 469.562227 264.106452 
L 470.469421 227.525806 
L 471.376616 307.8 
L 472.28381 268.170968 
L 473.191004 282.396774 
L 474.098198 201.106452 
L 475.005392 264.106452 
L 475.912586 307.8 
L 476.819781 290.525806 
L 477.726975 307.8 
L 480.448557 307.8 
L 481.355751 268.170968 
L 482.262945 284.429032 
L 483.17014 307.8 
L 484.077334 307.8 
L 484.984528 236.670968 
L 485.891722 207.203226 
L 486.798916 171.63871 
L 487.70611 307.8 
L 488.613304 206.187097 
L 489.520499 297.63871 
L 490.427693 207.203226 
L 491.334887 247.848387 
L 492.242081 256.993548 
L 493.149275 260.041935 
L 494.056469 254.96129 
L 494.963663 198.058065 
L 495.870858 233.622581 
L 496.778052 173.670968 
L 497.685246 156.396774 
L 498.59244 236.670968 
L 499.499634 149.283871 
L 500.406828 139.122581 
L 501.314022 224.477419 
L 502.221217 276.3 
L 503.128411 307.8 
L 504.035605 265.122581 
L 504.942799 230.574194 
L 505.849993 120.832258 
L 506.757187 210.251613 
L 507.664382 235.654839 
L 508.571576 199.074194 
L 509.47877 288.493548 
L 510.385964 197.041935 
L 511.293158 272.235484 
L 512.200352 208.219355 
L 513.107546 307.8 
L 514.014741 307.8 
L 514.921935 289.509677 
L 515.829129 278.332258 
L 516.736323 296.622581 
L 517.643517 295.606452 
L 518.550711 273.251613 
L 519.457905 307.8 
L 521.272294 307.8 
L 522.179488 261.058065 
L 523.086682 236.670968 
L 523.993876 126.929032 
L 524.90107 211.267742 
L 525.808264 259.025806 
L 526.715459 226.509677 
L 527.622653 205.170968 
L 528.529847 212.283871 
L 529.437041 285.445161 
L 530.344235 190.945161 
L 531.251429 227.525806 
L 532.158623 250.896774 
L 533.065818 197.041935 
L 533.973012 205.170968 
L 534.880206 232.606452 
L 535.7874 307.8 
L 536.694594 164.525806 
L 537.601788 172.654839 
L 538.508983 216.348387 
L 539.416177 167.574194 
L 540.323371 224.477419 
L 541.230565 249.880645 
L 542.137759 249.880645 
L 543.044953 226.509677 
L 543.952147 297.63871 
L 544.859342 274.267742 
L 545.766536 188.912903 
L 546.67373 165.541935 
L 547.580924 191.96129 
L 548.488118 197.041935 
L 549.395312 200.090323 
L 550.302506 202.122581 
L 551.209701 249.880645 
L 552.116895 307.8 
L 553.024089 307.8 
L 553.931283 220.412903 
L 554.838477 248.864516 
L 555.745671 307.8 
L 556.652865 307.8 
L 557.56006 230.574194 
L 558.467254 209.235484 
L 559.374448 307.8 
L 563.910419 307.8 
L 564.817613 282.396774 
L 565.724807 267.154839 
L 566.632001 286.46129 
L 567.539195 282.396774 
L 568.446389 218.380645 
L 569.353584 307.8 
L 570.260778 192.977419 
L 571.167972 265.122581 
L 572.075166 236.670968 
L 572.98236 228.541935 
L 573.889554 207.203226 
L 574.796748 307.8 
L 575.703943 165.541935 
L 577.518331 208.219355 
L 578.425525 273.251613 
L 579.332719 197.041935 
L 580.239913 200.090323 
L 581.147107 169.606452 
L 582.054302 284.429032 
L 582.961496 223.46129 
L 583.86869 191.96129 
L 584.775884 181.8 
L 585.683078 299.670968 
L 586.590272 192.977419 
L 587.497466 203.13871 
L 588.404661 235.654839 
L 589.311855 175.703226 
L 590.219049 254.96129 
L 591.126243 243.783871 
L 592.940631 307.8 
L 595.662214 307.8 
L 596.569408 235.654839 
L 597.476602 254.96129 
L 598.383796 259.025806 
L 599.29099 307.8 
L 603.826961 307.8 
L 604.734155 289.509677 
L 605.641349 296.622581 
L 606.548544 307.8 
L 607.455738 307.8 
L 608.362932 279.348387 
L 609.270126 307.8 
L 610.17732 261.058065 
L 611.084514 119.816129 
L 611.991708 176.719355 
L 612.898903 247.848387 
L 613.806097 306.783871 
L 614.713291 266.13871 
L 615.620485 249.880645 
L 617.434873 116.767742 
L 618.342067 214.316129 
L 619.249262 238.703226 
L 620.156456 145.219355 
L 621.06365 251.912903 
L 621.970844 307.8 
L 622.878038 227.525806 
L 623.785232 263.090323 
L 624.692427 268.170968 
L 625.599621 293.574194 
L 627.414009 109.654839 
L 628.321203 190.945161 
L 629.228397 260.041935 
L 630.135591 307.8 
L 631.94998 307.8 
L 632.857174 261.058065 
L 633.764368 301.703226 
L 634.671562 288.493548 
L 635.578756 293.574194 
L 636.48595 307.8 
L 637.393145 304.751613 
L 638.300339 253.945161 
L 639.207533 290.525806 
L 640.114727 284.429032 
L 641.021921 267.154839 
L 641.929115 246.832258 
L 642.836309 278.332258 
L 643.743504 269.187097 
L 644.650698 263.090323 
L 645.557892 307.8 
L 646.465086 300.687097 
L 647.37228 242.767742 
L 648.279474 226.509677 
L 649.186668 299.670968 
L 650.093863 227.525806 
L 651.001057 119.816129 
L 651.908251 239.719355 
L 652.815445 128.96129 
L 653.722639 184.848387 
L 654.629833 201.106452 
L 655.537028 307.8 
L 656.444222 255.977419 
L 657.351416 230.574194 
L 658.25861 231.590323 
L 659.165804 307.8 
L 660.072998 230.574194 
L 660.980192 182.816129 
L 661.887387 154.364516 
L 662.794581 243.783871 
L 663.701775 250.896774 
L 664.608969 70.025806 
L 665.516163 302.719355 
L 666.423357 307.8 
L 667.330551 196.025806 
L 668.237746 307.8 
L 669.14494 276.3 
L 670.052134 307.8 
L 670.959328 210.251613 
L 671.866522 298.654839 
L 672.773716 288.493548 
L 673.68091 284.429032 
L 674.588105 294.590323 
L 675.495299 307.8 
L 676.402493 264.106452 
L 677.309687 307.8 
L 679.124075 307.8 
L 680.031269 285.445161 
L 680.938464 290.525806 
L 681.845658 210.251613 
L 682.752852 254.96129 
L 683.660046 307.8 
L 684.56724 235.654839 
L 685.474434 307.8 
L 686.381629 281.380645 
L 687.288823 272.235484 
L 688.196017 211.267742 
L 689.103211 269.187097 
L 690.010405 266.13871 
L 690.917599 233.622581 
L 691.824793 278.332258 
L 692.731988 205.170968 
L 693.639182 179.767742 
L 694.546376 201.106452 
L 695.45357 213.3 
L 696.360764 181.8 
L 697.267958 273.251613 
L 698.175152 307.8 
L 699.082347 209.235484 
L 699.989541 243.783871 
L 700.896735 155.380645 
L 701.803929 307.8 
L 702.711123 137.090323 
L 703.618317 163.509677 
L 704.525511 133.025806 
L 705.432706 168.590323 
L 706.3399 252.929032 
L 707.247094 244.8 
L 708.154288 210.251613 
L 709.061482 205.170968 
L 709.968676 247.848387 
L 710.87587 261.058065 
L 711.783065 159.445161 
L 712.690259 307.8 
L 713.597453 245.816129 
L 714.504647 294.590323 
L 715.411841 277.316129 
L 716.319035 307.8 
L 717.22623 237.687097 
L 719.040618 307.8 
L 719.947812 307.8 
L 720.855006 267.154839 
L 721.7622 307.8 
L 722.669394 304.751613 
L 723.576589 307.8 
L 724.483783 307.8 
L 725.390977 268.170968 
L 726.298171 202.122581 
L 727.205365 307.8 
L 728.112559 307.8 
L 729.019753 288.493548 
L 729.926948 199.074194 
L 730.834142 307.8 
L 731.741336 214.316129 
L 732.64853 307.8 
L 733.555724 261.058065 
L 734.462918 236.670968 
L 735.370112 147.251613 
L 736.277307 165.541935 
L 737.184501 201.106452 
L 738.091695 226.509677 
L 738.998889 209.235484 
L 739.906083 301.703226 
L 740.813277 200.090323 
L 742.627666 172.654839 
L 743.53486 246.832258 
L 744.442054 250.896774 
L 745.349248 158.429032 
L 746.256442 269.187097 
L 747.163636 178.751613 
L 747.163636 178.751613 
" clip-path="url(#p5aeb9050eb)" style="fill: none; stroke: #191970; stroke-width: 2; stroke-linecap: square"/>
   </g>
   <g id="patch_3">
    <path d="M 108 320.4 
L 108 43.2 
" style="fill: none; stroke: #000000; stroke-width: 0.8; stroke-linejoin: miter; stroke-linecap: square"/>
   </g>
   <g id="patch_4">
    <path d="M 777.6 320.4 
L 777.6 43.2 
" style="fill: none; stroke: #000000; stroke-width: 0.8; stroke-linejoin: miter; stroke-linecap: square"/>
   </g>
   <g id="patch_5">
    <path d="M 108 320.4 
L 777.6 320.4 
" style="fill: none; stroke: #000000; stroke-width: 0.8; stroke-linejoin: miter; stroke-linecap: square"/>
   </g>
   <g id="patch_6">
    <path d="M 108 43.2 
L 777.6 43.2 
" style="fill: none; stroke: #000000; stroke-width: 0.8; stroke-linejoin: miter; stroke-linecap: square"/>
   </g>
   <g id="text_17">
    <!-- TIME SERIES -->
    <g transform="translate(405.350625 37.2) scale(0.12 -0.12)">
     <defs>
      <path id="DejaVuSans-52" d="M 2841 2188 
Q 3044 2119 3236 1894 
Q 3428 1669 3622 1275 
L 4263 0 
L 3584 0 
L 2988 1197 
Q 2756 1666 2539 1819 
Q 2322 1972 1947 1972 
L 1259 1972 
L 1259 0 
L 628 0 
L 628 4666 
L 2053 4666 
Q 2853 4666 3247 4331 
Q 3641 3997 3641 3322 
Q 3641 2881 3436 2590 
Q 3231 2300 2841 2188 
z
M 1259 4147 
L 1259 2491 
L 2053 2491 
Q 2509 2491 2742 2702 
Q 2975 2913 2975 3322 
Q 2975 3731 2742 3939 
Q 2509 4147 2053 4147 
L 1259 4147 
z
" transform="scale(0.015625)"/>
     </defs>
     <use xlink:href="#DejaVuSans-54"/>
     <use xlink:href="#DejaVuSans-49" x="61.083984"/>
     <use xlink:href="#DejaVuSans-4d" x="90.576172"/>
     <use xlink:href="#DejaVuSans-45" x="176.855469"/>
     <use xlink:href="#DejaVuSans-20" x="240.039062"/>
     <use xlink:href="#DejaVuSans-53" x="271.826172"/>
     <use xlink:href="#DejaVuSans-45" x="335.302734"/>
     <use xlink:href="#DejaVuSans-52" x="398.486328"/>
     <use xlink:href="#DejaVuSans-49" x="467.96875"/>
     <use xlink:href="#DejaVuSans-45" x="497.460938"/>
     <use xlink:href="#DejaVuSans-53" x="560.644531"/>
    </g>
   </g>
  </g>
 </g>
 <defs>
  <clipPath id="p5aeb9050eb">
   <rect x="108" y="43.2" width="669.6" height="277.2"/>
  </clipPath>
 </defs>
</svg>
