<?xml version="1.0" encoding="utf-8" standalone="no"?>
<!DOCTYPE svg PUBLIC "-//W3C//DTD SVG 1.1//EN"
  "http://www.w3.org/Graphics/SVG/1.1/DTD/svg11.dtd">
<svg xmlns:xlink="http://www.w3.org/1999/xlink" width="850.32pt" height="141.12pt" viewBox="0 0 850.32 141.12" xmlns="http://www.w3.org/2000/svg" version="1.1">
 <metadata>
  <rdf:RDF xmlns:dc="http://purl.org/dc/elements/1.1/" xmlns:cc="http://creativecommons.org/ns#" xmlns:rdf="http://www.w3.org/1999/02/22-rdf-syntax-ns#">
   <cc:Work>
    <dc:type rdf:resource="http://purl.org/dc/dcmitype/StillImage"/>
    <dc:date>2023-08-03T16:34:51.024284</dc:date>
    <dc:format>image/svg+xml</dc:format>
    <dc:creator>
     <cc:Agent>
      <dc:title>Matplotlib v3.7.1, https://matplotlib.org/</dc:title>
     </cc:Agent>
    </dc:creator>
   </cc:Work>
  </rdf:RDF>
 </metadata>
 <defs>
  <style type="text/css">*{stroke-linejoin: round; stroke-linecap: butt}</style>
 </defs>
 <g id="figure_1">
  <g id="patch_1">
   <path d="M 0 141.12 
L 850.32 141.12 
L 850.32 0 
L 0 0 
z
" style="fill: #ffffff"/>
  </g>
  <g id="axes_1">
   <g id="patch_2">
    <path d="M 57.4 89.48 
L 441.31 89.48 
L 441.31 54.672 
L 57.4 54.672 
z
" style="fill: #ffffff"/>
   </g>
   <g id="patch_3">
    <path d="M 55.792 86.579333 
L 59.008 86.579333 
L 59.008 74.73154 
L 55.792 74.73154 
z
" clip-path="url(#pe43b972584)" style="fill: #696969"/>
   </g>
   <g id="patch_4">
    <path d="M 57.802 86.579333 
L 61.018 86.579333 
L 61.018 81.676798 
L 57.802 81.676798 
z
" clip-path="url(#pe43b972584)" style="fill: #696969"/>
   </g>
   <g id="patch_5">
    <path d="M 59.812 86.579333 
L 63.028 86.579333 
L 63.028 80.859709 
L 59.812 80.859709 
z
" clip-path="url(#pe43b972584)" style="fill: #696969"/>
   </g>
   <g id="patch_6">
    <path d="M 61.822 86.579333 
L 65.038 86.579333 
L 65.038 84.53661 
L 61.822 84.53661 
z
" clip-path="url(#pe43b972584)" style="fill: #696969"/>
   </g>
   <g id="patch_7">
    <path d="M 63.832 86.579333 
L 67.048 86.579333 
L 67.048 81.676798 
L 63.832 81.676798 
z
" clip-path="url(#pe43b972584)" style="fill: #696969"/>
   </g>
   <g id="patch_8">
    <path d="M 65.842 86.579333 
L 69.058 86.579333 
L 69.058 86.170789 
L 65.842 86.170789 
z
" clip-path="url(#pe43b972584)" style="fill: #696969"/>
   </g>
   <g id="patch_9">
    <path d="M 67.852 86.579333 
L 71.068 86.579333 
L 71.068 83.106704 
L 67.852 83.106704 
z
" clip-path="url(#pe43b972584)" style="fill: #696969"/>
   </g>
   <g id="patch_10">
    <path d="M 69.862 86.579333 
L 73.078 86.579333 
L 73.078 86.579333 
L 69.862 86.579333 
z
" clip-path="url(#pe43b972584)" style="fill: #696969"/>
   </g>
   <g id="patch_11">
    <path d="M 71.872 86.579333 
L 75.088 86.579333 
L 75.088 81.676798 
L 71.872 81.676798 
z
" clip-path="url(#pe43b972584)" style="fill: #696969"/>
   </g>
   <g id="patch_12">
    <path d="M 73.882 86.579333 
L 77.098 86.579333 
L 77.098 86.579333 
L 73.882 86.579333 
z
" clip-path="url(#pe43b972584)" style="fill: #696969"/>
   </g>
   <g id="patch_13">
    <path d="M 75.892 86.579333 
L 79.108 86.579333 
L 79.108 86.579333 
L 75.892 86.579333 
z
" clip-path="url(#pe43b972584)" style="fill: #696969"/>
   </g>
   <g id="patch_14">
    <path d="M 77.902 86.579333 
L 81.118 86.579333 
L 81.118 83.515249 
L 77.902 83.515249 
z
" clip-path="url(#pe43b972584)" style="fill: #696969"/>
   </g>
   <g id="patch_15">
    <path d="M 79.912 86.579333 
L 83.128 86.579333 
L 83.128 85.557972 
L 79.912 85.557972 
z
" clip-path="url(#pe43b972584)" style="fill: #696969"/>
   </g>
   <g id="patch_16">
    <path d="M 81.922 86.579333 
L 85.138 86.579333 
L 85.138 86.579333 
L 81.922 86.579333 
z
" clip-path="url(#pe43b972584)" style="fill: #696969"/>
   </g>
   <g id="patch_17">
    <path d="M 83.932 86.579333 
L 87.148 86.579333 
L 87.148 86.579333 
L 83.932 86.579333 
z
" clip-path="url(#pe43b972584)" style="fill: #696969"/>
   </g>
   <g id="patch_18">
    <path d="M 85.942 86.579333 
L 89.158 86.579333 
L 89.158 80.451164 
L 85.942 80.451164 
z
" clip-path="url(#pe43b972584)" style="fill: #696969"/>
   </g>
   <g id="patch_19">
    <path d="M 87.952 86.579333 
L 91.168 86.579333 
L 91.168 85.557972 
L 87.952 85.557972 
z
" clip-path="url(#pe43b972584)" style="fill: #696969"/>
   </g>
   <g id="patch_20">
    <path d="M 89.962 86.579333 
L 93.178 86.579333 
L 93.178 82.289615 
L 89.962 82.289615 
z
" clip-path="url(#pe43b972584)" style="fill: #696969"/>
   </g>
   <g id="patch_21">
    <path d="M 91.972 86.579333 
L 95.188 86.579333 
L 95.188 82.902432 
L 91.972 82.902432 
z
" clip-path="url(#pe43b972584)" style="fill: #696969"/>
   </g>
   <g id="patch_22">
    <path d="M 93.982 86.579333 
L 97.198 86.579333 
L 97.198 86.579333 
L 93.982 86.579333 
z
" clip-path="url(#pe43b972584)" style="fill: #696969"/>
   </g>
   <g id="patch_23">
    <path d="M 95.992 86.579333 
L 99.208 86.579333 
L 99.208 83.106704 
L 95.992 83.106704 
z
" clip-path="url(#pe43b972584)" style="fill: #696969"/>
   </g>
   <g id="patch_24">
    <path d="M 98.002 86.579333 
L 101.218 86.579333 
L 101.218 81.676798 
L 98.002 81.676798 
z
" clip-path="url(#pe43b972584)" style="fill: #696969"/>
   </g>
   <g id="patch_25">
    <path d="M 100.012 86.579333 
L 103.228 86.579333 
L 103.228 80.04262 
L 100.012 80.04262 
z
" clip-path="url(#pe43b972584)" style="fill: #696969"/>
   </g>
   <g id="patch_26">
    <path d="M 102.022 86.579333 
L 105.238 86.579333 
L 105.238 70.441822 
L 102.022 70.441822 
z
" clip-path="url(#pe43b972584)" style="fill: #696969"/>
   </g>
   <g id="patch_27">
    <path d="M 104.032 86.579333 
L 107.248 86.579333 
L 107.248 82.69816 
L 104.032 82.69816 
z
" clip-path="url(#pe43b972584)" style="fill: #696969"/>
   </g>
   <g id="patch_28">
    <path d="M 106.042 86.579333 
L 109.258 86.579333 
L 109.258 83.106704 
L 106.042 83.106704 
z
" clip-path="url(#pe43b972584)" style="fill: #696969"/>
   </g>
   <g id="patch_29">
    <path d="M 108.052 86.579333 
L 111.268 86.579333 
L 111.268 74.527268 
L 108.052 74.527268 
z
" clip-path="url(#pe43b972584)" style="fill: #696969"/>
   </g>
   <g id="patch_30">
    <path d="M 110.062 86.579333 
L 113.278 86.579333 
L 113.278 66.560648 
L 110.062 66.560648 
z
" clip-path="url(#pe43b972584)" style="fill: #696969"/>
   </g>
   <g id="patch_31">
    <path d="M 112.072 86.579333 
L 115.288 86.579333 
L 115.288 71.054638 
L 112.072 71.054638 
z
" clip-path="url(#pe43b972584)" style="fill: #696969"/>
   </g>
   <g id="patch_32">
    <path d="M 114.082 86.579333 
L 117.298 86.579333 
L 117.298 70.441822 
L 114.082 70.441822 
z
" clip-path="url(#pe43b972584)" style="fill: #696969"/>
   </g>
   <g id="patch_33">
    <path d="M 116.092 86.579333 
L 119.308 86.579333 
L 119.308 67.173465 
L 116.092 67.173465 
z
" clip-path="url(#pe43b972584)" style="fill: #696969"/>
   </g>
   <g id="patch_34">
    <path d="M 118.102 86.579333 
L 121.318 86.579333 
L 121.318 69.216188 
L 118.102 69.216188 
z
" clip-path="url(#pe43b972584)" style="fill: #696969"/>
   </g>
   <g id="patch_35">
    <path d="M 120.112 86.579333 
L 123.328 86.579333 
L 123.328 67.990554 
L 120.112 67.990554 
z
" clip-path="url(#pe43b972584)" style="fill: #696969"/>
   </g>
   <g id="patch_36">
    <path d="M 122.122 86.579333 
L 125.338 86.579333 
L 125.338 73.301634 
L 122.122 73.301634 
z
" clip-path="url(#pe43b972584)" style="fill: #696969"/>
   </g>
   <g id="patch_37">
    <path d="M 124.132 86.579333 
L 127.348 86.579333 
L 127.348 65.947831 
L 124.132 65.947831 
z
" clip-path="url(#pe43b972584)" style="fill: #696969"/>
   </g>
   <g id="patch_38">
    <path d="M 126.142 86.579333 
L 129.358 86.579333 
L 129.358 68.194826 
L 126.142 68.194826 
z
" clip-path="url(#pe43b972584)" style="fill: #696969"/>
   </g>
   <g id="patch_39">
    <path d="M 128.152 86.579333 
L 131.368 86.579333 
L 131.368 62.883746 
L 128.152 62.883746 
z
" clip-path="url(#pe43b972584)" style="fill: #696969"/>
   </g>
   <g id="patch_40">
    <path d="M 130.162 86.579333 
L 133.378 86.579333 
L 133.378 74.73154 
L 130.162 74.73154 
z
" clip-path="url(#pe43b972584)" style="fill: #696969"/>
   </g>
   <g id="patch_41">
    <path d="M 132.172 86.579333 
L 135.388 86.579333 
L 135.388 67.990554 
L 132.172 67.990554 
z
" clip-path="url(#pe43b972584)" style="fill: #696969"/>
   </g>
   <g id="patch_42">
    <path d="M 134.182 86.579333 
L 137.398 86.579333 
L 137.398 66.152103 
L 134.182 66.152103 
z
" clip-path="url(#pe43b972584)" style="fill: #696969"/>
   </g>
   <g id="patch_43">
    <path d="M 136.192 86.579333 
L 139.408 86.579333 
L 139.408 66.76492 
L 136.192 66.76492 
z
" clip-path="url(#pe43b972584)" style="fill: #696969"/>
   </g>
   <g id="patch_44">
    <path d="M 138.202 86.579333 
L 141.418 86.579333 
L 141.418 69.011915 
L 138.202 69.011915 
z
" clip-path="url(#pe43b972584)" style="fill: #696969"/>
   </g>
   <g id="patch_45">
    <path d="M 140.212 86.579333 
L 143.428 86.579333 
L 143.428 69.42046 
L 140.212 69.42046 
z
" clip-path="url(#pe43b972584)" style="fill: #696969"/>
   </g>
   <g id="patch_46">
    <path d="M 142.222 86.579333 
L 145.438 86.579333 
L 145.438 68.194826 
L 142.222 68.194826 
z
" clip-path="url(#pe43b972584)" style="fill: #696969"/>
   </g>
   <g id="patch_47">
    <path d="M 144.232 86.579333 
L 147.448 86.579333 
L 147.448 67.582009 
L 144.232 67.582009 
z
" clip-path="url(#pe43b972584)" style="fill: #696969"/>
   </g>
   <g id="patch_48">
    <path d="M 146.242 86.579333 
L 149.458 86.579333 
L 149.458 69.624732 
L 146.242 69.624732 
z
" clip-path="url(#pe43b972584)" style="fill: #696969"/>
   </g>
   <g id="patch_49">
    <path d="M 148.252 86.579333 
L 151.468 86.579333 
L 151.468 73.505906 
L 148.252 73.505906 
z
" clip-path="url(#pe43b972584)" style="fill: #696969"/>
   </g>
   <g id="patch_50">
    <path d="M 150.262 86.579333 
L 153.478 86.579333 
L 153.478 73.505906 
L 150.262 73.505906 
z
" clip-path="url(#pe43b972584)" style="fill: #696969"/>
   </g>
   <g id="patch_51">
    <path d="M 152.272 86.579333 
L 155.488 86.579333 
L 155.488 71.054638 
L 152.272 71.054638 
z
" clip-path="url(#pe43b972584)" style="fill: #696969"/>
   </g>
   <g id="patch_52">
    <path d="M 154.282 86.579333 
L 157.498 86.579333 
L 157.498 62.066657 
L 154.282 62.066657 
z
" clip-path="url(#pe43b972584)" style="fill: #696969"/>
   </g>
   <g id="patch_53">
    <path d="M 156.292 86.579333 
L 159.508 86.579333 
L 159.508 75.344357 
L 156.292 75.344357 
z
" clip-path="url(#pe43b972584)" style="fill: #696969"/>
   </g>
   <g id="patch_54">
    <path d="M 158.302 86.579333 
L 161.518 86.579333 
L 161.518 76.161446 
L 158.302 76.161446 
z
" clip-path="url(#pe43b972584)" style="fill: #696969"/>
   </g>
   <g id="patch_55">
    <path d="M 160.312 86.579333 
L 163.528 86.579333 
L 163.528 84.740883 
L 160.312 84.740883 
z
" clip-path="url(#pe43b972584)" style="fill: #696969"/>
   </g>
   <g id="patch_56">
    <path d="M 162.322 86.579333 
L 165.538 86.579333 
L 165.538 74.322995 
L 162.322 74.322995 
z
" clip-path="url(#pe43b972584)" style="fill: #696969"/>
   </g>
   <g id="patch_57">
    <path d="M 164.332 86.579333 
L 167.548 86.579333 
L 167.548 82.289615 
L 164.332 82.289615 
z
" clip-path="url(#pe43b972584)" style="fill: #696969"/>
   </g>
   <g id="patch_58">
    <path d="M 166.342 86.579333 
L 169.558 86.579333 
L 169.558 86.579333 
L 166.342 86.579333 
z
" clip-path="url(#pe43b972584)" style="fill: #696969"/>
   </g>
   <g id="patch_59">
    <path d="M 168.352 86.579333 
L 171.568 86.579333 
L 171.568 81.676798 
L 168.352 81.676798 
z
" clip-path="url(#pe43b972584)" style="fill: #696969"/>
   </g>
   <g id="patch_60">
    <path d="M 170.362 86.579333 
L 173.578 86.579333 
L 173.578 78.816986 
L 170.362 78.816986 
z
" clip-path="url(#pe43b972584)" style="fill: #696969"/>
   </g>
   <g id="patch_61">
    <path d="M 172.372 86.579333 
L 175.588 86.579333 
L 175.588 81.268254 
L 172.372 81.268254 
z
" clip-path="url(#pe43b972584)" style="fill: #696969"/>
   </g>
   <g id="patch_62">
    <path d="M 174.382 86.579333 
L 177.598 86.579333 
L 177.598 82.085343 
L 174.382 82.085343 
z
" clip-path="url(#pe43b972584)" style="fill: #696969"/>
   </g>
   <g id="patch_63">
    <path d="M 176.392 86.579333 
L 179.608 86.579333 
L 179.608 83.310977 
L 176.392 83.310977 
z
" clip-path="url(#pe43b972584)" style="fill: #696969"/>
   </g>
   <g id="patch_64">
    <path d="M 178.402 86.579333 
L 181.618 86.579333 
L 181.618 86.579333 
L 178.402 86.579333 
z
" clip-path="url(#pe43b972584)" style="fill: #696969"/>
   </g>
   <g id="patch_65">
    <path d="M 180.412 86.579333 
L 183.628 86.579333 
L 183.628 76.161446 
L 180.412 76.161446 
z
" clip-path="url(#pe43b972584)" style="fill: #696969"/>
   </g>
   <g id="patch_66">
    <path d="M 182.422 86.579333 
L 185.638 86.579333 
L 185.638 85.3537 
L 182.422 85.3537 
z
" clip-path="url(#pe43b972584)" style="fill: #696969"/>
   </g>
   <g id="patch_67">
    <path d="M 184.432 86.579333 
L 187.648 86.579333 
L 187.648 86.579333 
L 184.432 86.579333 
z
" clip-path="url(#pe43b972584)" style="fill: #696969"/>
   </g>
   <g id="patch_68">
    <path d="M 186.442 86.579333 
L 189.658 86.579333 
L 189.658 86.579333 
L 186.442 86.579333 
z
" clip-path="url(#pe43b972584)" style="fill: #696969"/>
   </g>
   <g id="patch_69">
    <path d="M 188.452 86.579333 
L 191.668 86.579333 
L 191.668 85.966516 
L 188.452 85.966516 
z
" clip-path="url(#pe43b972584)" style="fill: #696969"/>
   </g>
   <g id="patch_70">
    <path d="M 190.462 86.579333 
L 193.678 86.579333 
L 193.678 83.106704 
L 190.462 83.106704 
z
" clip-path="url(#pe43b972584)" style="fill: #696969"/>
   </g>
   <g id="patch_71">
    <path d="M 192.472 86.579333 
L 195.688 86.579333 
L 195.688 86.579333 
L 192.472 86.579333 
z
" clip-path="url(#pe43b972584)" style="fill: #696969"/>
   </g>
   <g id="patch_72">
    <path d="M 194.482 86.579333 
L 197.698 86.579333 
L 197.698 84.53661 
L 194.482 84.53661 
z
" clip-path="url(#pe43b972584)" style="fill: #696969"/>
   </g>
   <g id="patch_73">
    <path d="M 196.492 86.579333 
L 199.708 86.579333 
L 199.708 80.246892 
L 196.492 80.246892 
z
" clip-path="url(#pe43b972584)" style="fill: #696969"/>
   </g>
   <g id="patch_74">
    <path d="M 198.502 86.579333 
L 201.718 86.579333 
L 201.718 86.579333 
L 198.502 86.579333 
z
" clip-path="url(#pe43b972584)" style="fill: #696969"/>
   </g>
   <g id="patch_75">
    <path d="M 200.512 86.579333 
L 203.728 86.579333 
L 203.728 86.579333 
L 200.512 86.579333 
z
" clip-path="url(#pe43b972584)" style="fill: #696969"/>
   </g>
   <g id="patch_76">
    <path d="M 202.522 86.579333 
L 205.738 86.579333 
L 205.738 79.021258 
L 202.522 79.021258 
z
" clip-path="url(#pe43b972584)" style="fill: #696969"/>
   </g>
   <g id="patch_77">
    <path d="M 204.532 86.579333 
L 207.748 86.579333 
L 207.748 82.902432 
L 204.532 82.902432 
z
" clip-path="url(#pe43b972584)" style="fill: #696969"/>
   </g>
   <g id="patch_78">
    <path d="M 206.542 86.579333 
L 209.758 86.579333 
L 209.758 71.667455 
L 206.542 71.667455 
z
" clip-path="url(#pe43b972584)" style="fill: #696969"/>
   </g>
   <g id="patch_79">
    <path d="M 208.552 86.579333 
L 211.768 86.579333 
L 211.768 76.365718 
L 208.552 76.365718 
z
" clip-path="url(#pe43b972584)" style="fill: #696969"/>
   </g>
   <g id="patch_80">
    <path d="M 210.562 86.579333 
L 213.778 86.579333 
L 213.778 73.097362 
L 210.562 73.097362 
z
" clip-path="url(#pe43b972584)" style="fill: #696969"/>
   </g>
   <g id="patch_81">
    <path d="M 212.572 86.579333 
L 215.788 86.579333 
L 215.788 78.408441 
L 212.572 78.408441 
z
" clip-path="url(#pe43b972584)" style="fill: #696969"/>
   </g>
   <g id="patch_82">
    <path d="M 214.582 86.579333 
L 217.798 86.579333 
L 217.798 74.527268 
L 214.582 74.527268 
z
" clip-path="url(#pe43b972584)" style="fill: #696969"/>
   </g>
   <g id="patch_83">
    <path d="M 216.592 86.579333 
L 219.808 86.579333 
L 219.808 75.752901 
L 216.592 75.752901 
z
" clip-path="url(#pe43b972584)" style="fill: #696969"/>
   </g>
   <g id="patch_84">
    <path d="M 218.602 86.579333 
L 221.818 86.579333 
L 221.818 69.42046 
L 218.602 69.42046 
z
" clip-path="url(#pe43b972584)" style="fill: #696969"/>
   </g>
   <g id="patch_85">
    <path d="M 220.612 86.579333 
L 223.828 86.579333 
L 223.828 75.140085 
L 220.612 75.140085 
z
" clip-path="url(#pe43b972584)" style="fill: #696969"/>
   </g>
   <g id="patch_86">
    <path d="M 222.622 86.579333 
L 225.838 86.579333 
L 225.838 68.807643 
L 222.622 68.807643 
z
" clip-path="url(#pe43b972584)" style="fill: #696969"/>
   </g>
   <g id="patch_87">
    <path d="M 224.632 86.579333 
L 227.848 86.579333 
L 227.848 70.441822 
L 224.632 70.441822 
z
" clip-path="url(#pe43b972584)" style="fill: #696969"/>
   </g>
   <g id="patch_88">
    <path d="M 226.642 86.579333 
L 229.858 86.579333 
L 229.858 67.786282 
L 226.642 67.786282 
z
" clip-path="url(#pe43b972584)" style="fill: #696969"/>
   </g>
   <g id="patch_89">
    <path d="M 228.652 86.579333 
L 231.868 86.579333 
L 231.868 66.76492 
L 228.652 66.76492 
z
" clip-path="url(#pe43b972584)" style="fill: #696969"/>
   </g>
   <g id="patch_90">
    <path d="M 230.662 86.579333 
L 233.878 86.579333 
L 233.878 67.377737 
L 230.662 67.377737 
z
" clip-path="url(#pe43b972584)" style="fill: #696969"/>
   </g>
   <g id="patch_91">
    <path d="M 232.672 86.579333 
L 235.888 86.579333 
L 235.888 64.926469 
L 232.672 64.926469 
z
" clip-path="url(#pe43b972584)" style="fill: #696969"/>
   </g>
   <g id="patch_92">
    <path d="M 234.682 86.579333 
L 237.898 86.579333 
L 237.898 73.505906 
L 234.682 73.505906 
z
" clip-path="url(#pe43b972584)" style="fill: #696969"/>
   </g>
   <g id="patch_93">
    <path d="M 236.692 86.579333 
L 239.908 86.579333 
L 239.908 67.582009 
L 236.692 67.582009 
z
" clip-path="url(#pe43b972584)" style="fill: #696969"/>
   </g>
   <g id="patch_94">
    <path d="M 238.702 86.579333 
L 241.918 86.579333 
L 241.918 66.76492 
L 238.702 66.76492 
z
" clip-path="url(#pe43b972584)" style="fill: #696969"/>
   </g>
   <g id="patch_95">
    <path d="M 240.712 86.579333 
L 243.928 86.579333 
L 243.928 66.969192 
L 240.712 66.969192 
z
" clip-path="url(#pe43b972584)" style="fill: #696969"/>
   </g>
   <g id="patch_96">
    <path d="M 242.722 86.579333 
L 245.938 86.579333 
L 245.938 65.743559 
L 242.722 65.743559 
z
" clip-path="url(#pe43b972584)" style="fill: #696969"/>
   </g>
   <g id="patch_97">
    <path d="M 244.732 86.579333 
L 247.948 86.579333 
L 247.948 73.505906 
L 244.732 73.505906 
z
" clip-path="url(#pe43b972584)" style="fill: #696969"/>
   </g>
   <g id="patch_98">
    <path d="M 246.742 86.579333 
L 249.958 86.579333 
L 249.958 69.42046 
L 246.742 69.42046 
z
" clip-path="url(#pe43b972584)" style="fill: #696969"/>
   </g>
   <g id="patch_99">
    <path d="M 248.752 86.579333 
L 251.968 86.579333 
L 251.968 71.463183 
L 248.752 71.463183 
z
" clip-path="url(#pe43b972584)" style="fill: #696969"/>
   </g>
   <g id="patch_100">
    <path d="M 250.762 86.579333 
L 253.978 86.579333 
L 253.978 68.399099 
L 250.762 68.399099 
z
" clip-path="url(#pe43b972584)" style="fill: #696969"/>
   </g>
   <g id="patch_101">
    <path d="M 252.772 86.579333 
L 255.988 86.579333 
L 255.988 78.408441 
L 252.772 78.408441 
z
" clip-path="url(#pe43b972584)" style="fill: #696969"/>
   </g>
   <g id="patch_102">
    <path d="M 254.782 86.579333 
L 257.998 86.579333 
L 257.998 73.301634 
L 254.782 73.301634 
z
" clip-path="url(#pe43b972584)" style="fill: #696969"/>
   </g>
   <g id="patch_103">
    <path d="M 256.792 86.579333 
L 260.008 86.579333 
L 260.008 75.752901 
L 256.792 75.752901 
z
" clip-path="url(#pe43b972584)" style="fill: #696969"/>
   </g>
   <g id="patch_104">
    <path d="M 258.802 86.579333 
L 262.018 86.579333 
L 262.018 72.484545 
L 258.802 72.484545 
z
" clip-path="url(#pe43b972584)" style="fill: #696969"/>
   </g>
   <g id="patch_105">
    <path d="M 260.812 86.579333 
L 264.028 86.579333 
L 264.028 72.688817 
L 260.812 72.688817 
z
" clip-path="url(#pe43b972584)" style="fill: #696969"/>
   </g>
   <g id="patch_106">
    <path d="M 262.822 86.579333 
L 266.038 86.579333 
L 266.038 71.667455 
L 262.822 71.667455 
z
" clip-path="url(#pe43b972584)" style="fill: #696969"/>
   </g>
   <g id="patch_107">
    <path d="M 264.832 86.579333 
L 268.048 86.579333 
L 268.048 75.752901 
L 264.832 75.752901 
z
" clip-path="url(#pe43b972584)" style="fill: #696969"/>
   </g>
   <g id="patch_108">
    <path d="M 266.842 86.579333 
L 270.058 86.579333 
L 270.058 79.634075 
L 266.842 79.634075 
z
" clip-path="url(#pe43b972584)" style="fill: #696969"/>
   </g>
   <g id="patch_109">
    <path d="M 268.852 86.579333 
L 272.068 86.579333 
L 272.068 81.676798 
L 268.852 81.676798 
z
" clip-path="url(#pe43b972584)" style="fill: #696969"/>
   </g>
   <g id="patch_110">
    <path d="M 270.862 86.579333 
L 274.078 86.579333 
L 274.078 82.69816 
L 270.862 82.69816 
z
" clip-path="url(#pe43b972584)" style="fill: #696969"/>
   </g>
   <g id="patch_111">
    <path d="M 272.872 86.579333 
L 276.088 86.579333 
L 276.088 86.579333 
L 272.872 86.579333 
z
" clip-path="url(#pe43b972584)" style="fill: #696969"/>
   </g>
   <g id="patch_112">
    <path d="M 274.882 86.579333 
L 278.098 86.579333 
L 278.098 80.451164 
L 274.882 80.451164 
z
" clip-path="url(#pe43b972584)" style="fill: #696969"/>
   </g>
   <g id="patch_113">
    <path d="M 276.892 86.579333 
L 280.108 86.579333 
L 280.108 78.408441 
L 276.892 78.408441 
z
" clip-path="url(#pe43b972584)" style="fill: #696969"/>
   </g>
   <g id="patch_114">
    <path d="M 278.902 86.579333 
L 282.118 86.579333 
L 282.118 84.128066 
L 278.902 84.128066 
z
" clip-path="url(#pe43b972584)" style="fill: #696969"/>
   </g>
   <g id="patch_115">
    <path d="M 280.912 86.579333 
L 284.128 86.579333 
L 284.128 86.579333 
L 280.912 86.579333 
z
" clip-path="url(#pe43b972584)" style="fill: #696969"/>
   </g>
   <g id="patch_116">
    <path d="M 282.922 86.579333 
L 286.138 86.579333 
L 286.138 82.902432 
L 282.922 82.902432 
z
" clip-path="url(#pe43b972584)" style="fill: #696969"/>
   </g>
   <g id="patch_117">
    <path d="M 284.932 86.579333 
L 288.148 86.579333 
L 288.148 85.966516 
L 284.932 85.966516 
z
" clip-path="url(#pe43b972584)" style="fill: #696969"/>
   </g>
   <g id="patch_118">
    <path d="M 286.942 86.579333 
L 290.158 86.579333 
L 290.158 78.204169 
L 286.942 78.204169 
z
" clip-path="url(#pe43b972584)" style="fill: #696969"/>
   </g>
   <g id="patch_119">
    <path d="M 288.952 86.579333 
L 292.168 86.579333 
L 292.168 84.740883 
L 288.952 84.740883 
z
" clip-path="url(#pe43b972584)" style="fill: #696969"/>
   </g>
   <g id="patch_120">
    <path d="M 290.962 86.579333 
L 294.178 86.579333 
L 294.178 86.375061 
L 290.962 86.375061 
z
" clip-path="url(#pe43b972584)" style="fill: #696969"/>
   </g>
   <g id="patch_121">
    <path d="M 292.972 86.579333 
L 296.188 86.579333 
L 296.188 81.88107 
L 292.972 81.88107 
z
" clip-path="url(#pe43b972584)" style="fill: #696969"/>
   </g>
   <g id="patch_122">
    <path d="M 294.982 86.579333 
L 298.198 86.579333 
L 298.198 81.472526 
L 294.982 81.472526 
z
" clip-path="url(#pe43b972584)" style="fill: #696969"/>
   </g>
   <g id="patch_123">
    <path d="M 296.992 86.579333 
L 300.208 86.579333 
L 300.208 86.579333 
L 296.992 86.579333 
z
" clip-path="url(#pe43b972584)" style="fill: #696969"/>
   </g>
   <g id="patch_124">
    <path d="M 299.002 86.579333 
L 302.218 86.579333 
L 302.218 84.53661 
L 299.002 84.53661 
z
" clip-path="url(#pe43b972584)" style="fill: #696969"/>
   </g>
   <g id="patch_125">
    <path d="M 301.012 86.579333 
L 304.228 86.579333 
L 304.228 79.021258 
L 301.012 79.021258 
z
" clip-path="url(#pe43b972584)" style="fill: #696969"/>
   </g>
   <g id="patch_126">
    <path d="M 303.022 86.579333 
L 306.238 86.579333 
L 306.238 81.268254 
L 303.022 81.268254 
z
" clip-path="url(#pe43b972584)" style="fill: #696969"/>
   </g>
   <g id="patch_127">
    <path d="M 305.032 86.579333 
L 308.248 86.579333 
L 308.248 81.063981 
L 305.032 81.063981 
z
" clip-path="url(#pe43b972584)" style="fill: #696969"/>
   </g>
   <g id="patch_128">
    <path d="M 307.042 86.579333 
L 310.258 86.579333 
L 310.258 84.740883 
L 307.042 84.740883 
z
" clip-path="url(#pe43b972584)" style="fill: #696969"/>
   </g>
   <g id="patch_129">
    <path d="M 309.052 86.579333 
L 312.268 86.579333 
L 312.268 78.612714 
L 309.052 78.612714 
z
" clip-path="url(#pe43b972584)" style="fill: #696969"/>
   </g>
   <g id="patch_130">
    <path d="M 311.062 86.579333 
L 314.278 86.579333 
L 314.278 76.978535 
L 311.062 76.978535 
z
" clip-path="url(#pe43b972584)" style="fill: #696969"/>
   </g>
   <g id="patch_131">
    <path d="M 313.072 86.579333 
L 316.288 86.579333 
L 316.288 74.935812 
L 313.072 74.935812 
z
" clip-path="url(#pe43b972584)" style="fill: #696969"/>
   </g>
   <g id="patch_132">
    <path d="M 315.082 86.579333 
L 318.298 86.579333 
L 318.298 77.999897 
L 315.082 77.999897 
z
" clip-path="url(#pe43b972584)" style="fill: #696969"/>
   </g>
   <g id="patch_133">
    <path d="M 317.092 86.579333 
L 320.308 86.579333 
L 320.308 64.517925 
L 317.092 64.517925 
z
" clip-path="url(#pe43b972584)" style="fill: #696969"/>
   </g>
   <g id="patch_134">
    <path d="M 319.102 86.579333 
L 322.318 86.579333 
L 322.318 70.441822 
L 319.102 70.441822 
z
" clip-path="url(#pe43b972584)" style="fill: #696969"/>
   </g>
   <g id="patch_135">
    <path d="M 321.112 86.579333 
L 324.328 86.579333 
L 324.328 74.935812 
L 321.112 74.935812 
z
" clip-path="url(#pe43b972584)" style="fill: #696969"/>
   </g>
   <g id="patch_136">
    <path d="M 323.122 86.579333 
L 326.338 86.579333 
L 326.338 69.216188 
L 323.122 69.216188 
z
" clip-path="url(#pe43b972584)" style="fill: #696969"/>
   </g>
   <g id="patch_137">
    <path d="M 325.132 86.579333 
L 328.348 86.579333 
L 328.348 68.603371 
L 325.132 68.603371 
z
" clip-path="url(#pe43b972584)" style="fill: #696969"/>
   </g>
   <g id="patch_138">
    <path d="M 327.142 86.579333 
L 330.358 86.579333 
L 330.358 71.463183 
L 327.142 71.463183 
z
" clip-path="url(#pe43b972584)" style="fill: #696969"/>
   </g>
   <g id="patch_139">
    <path d="M 329.152 86.579333 
L 332.368 86.579333 
L 332.368 62.27093 
L 329.152 62.27093 
z
" clip-path="url(#pe43b972584)" style="fill: #696969"/>
   </g>
   <g id="patch_140">
    <path d="M 331.162 86.579333 
L 334.378 86.579333 
L 334.378 64.517925 
L 331.162 64.517925 
z
" clip-path="url(#pe43b972584)" style="fill: #696969"/>
   </g>
   <g id="patch_141">
    <path d="M 333.172 86.579333 
L 336.388 86.579333 
L 336.388 68.194826 
L 333.172 68.194826 
z
" clip-path="url(#pe43b972584)" style="fill: #696969"/>
   </g>
   <g id="patch_142">
    <path d="M 335.182 86.579333 
L 338.398 86.579333 
L 338.398 67.377737 
L 335.182 67.377737 
z
" clip-path="url(#pe43b972584)" style="fill: #696969"/>
   </g>
   <g id="patch_143">
    <path d="M 337.192 86.579333 
L 340.408 86.579333 
L 340.408 61.658113 
L 337.192 61.658113 
z
" clip-path="url(#pe43b972584)" style="fill: #696969"/>
   </g>
   <g id="patch_144">
    <path d="M 339.202 86.579333 
L 342.418 86.579333 
L 342.418 65.947831 
L 339.202 65.947831 
z
" clip-path="url(#pe43b972584)" style="fill: #696969"/>
   </g>
   <g id="patch_145">
    <path d="M 341.212 86.579333 
L 344.428 86.579333 
L 344.428 62.883746 
L 341.212 62.883746 
z
" clip-path="url(#pe43b972584)" style="fill: #696969"/>
   </g>
   <g id="patch_146">
    <path d="M 343.222 86.579333 
L 346.438 86.579333 
L 346.438 61.45384 
L 343.222 61.45384 
z
" clip-path="url(#pe43b972584)" style="fill: #696969"/>
   </g>
   <g id="patch_147">
    <path d="M 345.232 86.579333 
L 348.448 86.579333 
L 348.448 73.097362 
L 345.232 73.097362 
z
" clip-path="url(#pe43b972584)" style="fill: #696969"/>
   </g>
   <g id="patch_148">
    <path d="M 347.242 86.579333 
L 350.458 86.579333 
L 350.458 70.033277 
L 347.242 70.033277 
z
" clip-path="url(#pe43b972584)" style="fill: #696969"/>
   </g>
   <g id="patch_149">
    <path d="M 349.252 86.579333 
L 352.468 86.579333 
L 352.468 69.011915 
L 349.252 69.011915 
z
" clip-path="url(#pe43b972584)" style="fill: #696969"/>
   </g>
   <g id="patch_150">
    <path d="M 351.262 86.579333 
L 354.478 86.579333 
L 354.478 62.475202 
L 351.262 62.475202 
z
" clip-path="url(#pe43b972584)" style="fill: #696969"/>
   </g>
   <g id="patch_151">
    <path d="M 353.272 86.579333 
L 356.488 86.579333 
L 356.488 66.152103 
L 353.272 66.152103 
z
" clip-path="url(#pe43b972584)" style="fill: #696969"/>
   </g>
   <g id="patch_152">
    <path d="M 355.282 86.579333 
L 358.498 86.579333 
L 358.498 65.335014 
L 355.282 65.335014 
z
" clip-path="url(#pe43b972584)" style="fill: #696969"/>
   </g>
   <g id="patch_153">
    <path d="M 357.292 86.579333 
L 360.508 86.579333 
L 360.508 76.365718 
L 357.292 76.365718 
z
" clip-path="url(#pe43b972584)" style="fill: #696969"/>
   </g>
   <g id="patch_154">
    <path d="M 359.302 86.579333 
L 362.518 86.579333 
L 362.518 73.914451 
L 359.302 73.914451 
z
" clip-path="url(#pe43b972584)" style="fill: #696969"/>
   </g>
   <g id="patch_155">
    <path d="M 361.312 86.579333 
L 364.528 86.579333 
L 364.528 72.688817 
L 361.312 72.688817 
z
" clip-path="url(#pe43b972584)" style="fill: #696969"/>
   </g>
   <g id="patch_156">
    <path d="M 363.322 86.579333 
L 366.538 86.579333 
L 366.538 76.978535 
L 363.322 76.978535 
z
" clip-path="url(#pe43b972584)" style="fill: #696969"/>
   </g>
   <g id="patch_157">
    <path d="M 365.332 86.579333 
L 368.548 86.579333 
L 368.548 70.646094 
L 365.332 70.646094 
z
" clip-path="url(#pe43b972584)" style="fill: #696969"/>
   </g>
   <g id="patch_158">
    <path d="M 367.342 86.579333 
L 370.558 86.579333 
L 370.558 71.667455 
L 367.342 71.667455 
z
" clip-path="url(#pe43b972584)" style="fill: #696969"/>
   </g>
   <g id="patch_159">
    <path d="M 369.352 86.579333 
L 372.568 86.579333 
L 372.568 72.484545 
L 369.352 72.484545 
z
" clip-path="url(#pe43b972584)" style="fill: #696969"/>
   </g>
   <g id="patch_160">
    <path d="M 371.362 86.579333 
L 374.578 86.579333 
L 374.578 75.548629 
L 371.362 75.548629 
z
" clip-path="url(#pe43b972584)" style="fill: #696969"/>
   </g>
   <g id="patch_161">
    <path d="M 373.372 86.579333 
L 376.588 86.579333 
L 376.588 84.332338 
L 373.372 84.332338 
z
" clip-path="url(#pe43b972584)" style="fill: #696969"/>
   </g>
   <g id="patch_162">
    <path d="M 375.382 86.579333 
L 378.598 86.579333 
L 378.598 81.063981 
L 375.382 81.063981 
z
" clip-path="url(#pe43b972584)" style="fill: #696969"/>
   </g>
   <g id="patch_163">
    <path d="M 377.392 86.579333 
L 380.608 86.579333 
L 380.608 83.106704 
L 377.392 83.106704 
z
" clip-path="url(#pe43b972584)" style="fill: #696969"/>
   </g>
   <g id="patch_164">
    <path d="M 379.402 86.579333 
L 382.618 86.579333 
L 382.618 86.170789 
L 379.402 86.170789 
z
" clip-path="url(#pe43b972584)" style="fill: #696969"/>
   </g>
   <g id="patch_165">
    <path d="M 381.412 86.579333 
L 384.628 86.579333 
L 384.628 82.493887 
L 381.412 82.493887 
z
" clip-path="url(#pe43b972584)" style="fill: #696969"/>
   </g>
   <g id="patch_166">
    <path d="M 383.422 86.579333 
L 386.638 86.579333 
L 386.638 85.762244 
L 383.422 85.762244 
z
" clip-path="url(#pe43b972584)" style="fill: #696969"/>
   </g>
   <g id="patch_167">
    <path d="M 385.432 86.579333 
L 388.648 86.579333 
L 388.648 86.579333 
L 385.432 86.579333 
z
" clip-path="url(#pe43b972584)" style="fill: #696969"/>
   </g>
   <g id="patch_168">
    <path d="M 387.442 86.579333 
L 390.658 86.579333 
L 390.658 86.579333 
L 387.442 86.579333 
z
" clip-path="url(#pe43b972584)" style="fill: #696969"/>
   </g>
   <g id="patch_169">
    <path d="M 389.452 86.579333 
L 392.668 86.579333 
L 392.668 86.375061 
L 389.452 86.375061 
z
" clip-path="url(#pe43b972584)" style="fill: #696969"/>
   </g>
   <g id="patch_170">
    <path d="M 391.462 86.579333 
L 394.678 86.579333 
L 394.678 86.579333 
L 391.462 86.579333 
z
" clip-path="url(#pe43b972584)" style="fill: #696969"/>
   </g>
   <g id="patch_171">
    <path d="M 393.472 86.579333 
L 396.688 86.579333 
L 396.688 84.945155 
L 393.472 84.945155 
z
" clip-path="url(#pe43b972584)" style="fill: #696969"/>
   </g>
   <g id="patch_172">
    <path d="M 395.482 86.579333 
L 398.698 86.579333 
L 398.698 85.149427 
L 395.482 85.149427 
z
" clip-path="url(#pe43b972584)" style="fill: #696969"/>
   </g>
   <g id="patch_173">
    <path d="M 397.492 86.579333 
L 400.708 86.579333 
L 400.708 85.762244 
L 397.492 85.762244 
z
" clip-path="url(#pe43b972584)" style="fill: #696969"/>
   </g>
   <g id="patch_174">
    <path d="M 399.502 86.579333 
L 402.718 86.579333 
L 402.718 86.579333 
L 399.502 86.579333 
z
" clip-path="url(#pe43b972584)" style="fill: #696969"/>
   </g>
   <g id="patch_175">
    <path d="M 401.512 86.579333 
L 404.728 86.579333 
L 404.728 84.945155 
L 401.512 84.945155 
z
" clip-path="url(#pe43b972584)" style="fill: #696969"/>
   </g>
   <g id="patch_176">
    <path d="M 403.522 86.579333 
L 406.738 86.579333 
L 406.738 85.762244 
L 403.522 85.762244 
z
" clip-path="url(#pe43b972584)" style="fill: #696969"/>
   </g>
   <g id="patch_177">
    <path d="M 405.532 86.579333 
L 408.748 86.579333 
L 408.748 86.579333 
L 405.532 86.579333 
z
" clip-path="url(#pe43b972584)" style="fill: #696969"/>
   </g>
   <g id="patch_178">
    <path d="M 407.542 86.579333 
L 410.758 86.579333 
L 410.758 83.310977 
L 407.542 83.310977 
z
" clip-path="url(#pe43b972584)" style="fill: #696969"/>
   </g>
   <g id="patch_179">
    <path d="M 409.552 86.579333 
L 412.768 86.579333 
L 412.768 74.527268 
L 409.552 74.527268 
z
" clip-path="url(#pe43b972584)" style="fill: #696969"/>
   </g>
   <g id="patch_180">
    <path d="M 411.562 86.579333 
L 414.778 86.579333 
L 414.778 84.740883 
L 411.562 84.740883 
z
" clip-path="url(#pe43b972584)" style="fill: #696969"/>
   </g>
   <g id="patch_181">
    <path d="M 413.572 86.579333 
L 416.788 86.579333 
L 416.788 77.591352 
L 413.572 77.591352 
z
" clip-path="url(#pe43b972584)" style="fill: #696969"/>
   </g>
   <g id="patch_182">
    <path d="M 415.582 86.579333 
L 418.798 86.579333 
L 418.798 71.667455 
L 415.582 71.667455 
z
" clip-path="url(#pe43b972584)" style="fill: #696969"/>
   </g>
   <g id="patch_183">
    <path d="M 417.592 86.579333 
L 420.808 86.579333 
L 420.808 81.063981 
L 417.592 81.063981 
z
" clip-path="url(#pe43b972584)" style="fill: #696969"/>
   </g>
   <g id="patch_184">
    <path d="M 419.602 86.579333 
L 422.818 86.579333 
L 422.818 68.807643 
L 419.602 68.807643 
z
" clip-path="url(#pe43b972584)" style="fill: #696969"/>
   </g>
   <g id="patch_185">
    <path d="M 421.612 86.579333 
L 424.828 86.579333 
L 424.828 72.484545 
L 421.612 72.484545 
z
" clip-path="url(#pe43b972584)" style="fill: #696969"/>
   </g>
   <g id="patch_186">
    <path d="M 423.622 86.579333 
L 426.838 86.579333 
L 426.838 80.04262 
L 423.622 80.04262 
z
" clip-path="url(#pe43b972584)" style="fill: #696969"/>
   </g>
   <g id="patch_187">
    <path d="M 425.632 86.579333 
L 428.848 86.579333 
L 428.848 69.42046 
L 425.632 69.42046 
z
" clip-path="url(#pe43b972584)" style="fill: #696969"/>
   </g>
   <g id="patch_188">
    <path d="M 427.642 86.579333 
L 430.858 86.579333 
L 430.858 67.582009 
L 427.642 67.582009 
z
" clip-path="url(#pe43b972584)" style="fill: #696969"/>
   </g>
   <g id="patch_189">
    <path d="M 429.652 86.579333 
L 432.868 86.579333 
L 432.868 73.301634 
L 429.652 73.301634 
z
" clip-path="url(#pe43b972584)" style="fill: #696969"/>
   </g>
   <g id="patch_190">
    <path d="M 431.662 86.579333 
L 434.878 86.579333 
L 434.878 69.829005 
L 431.662 69.829005 
z
" clip-path="url(#pe43b972584)" style="fill: #696969"/>
   </g>
   <g id="patch_191">
    <path d="M 433.672 86.579333 
L 436.888 86.579333 
L 436.888 65.335014 
L 433.672 65.335014 
z
" clip-path="url(#pe43b972584)" style="fill: #696969"/>
   </g>
   <g id="patch_192">
    <path d="M 435.682 86.579333 
L 438.898 86.579333 
L 438.898 68.399099 
L 435.682 68.399099 
z
" clip-path="url(#pe43b972584)" style="fill: #696969"/>
   </g>
   <g id="patch_193">
    <path d="M 437.692 86.579333 
L 440.908 86.579333 
L 440.908 60.228207 
L 437.692 60.228207 
z
" clip-path="url(#pe43b972584)" style="fill: #696969"/>
   </g>
   <g id="patch_194">
    <path d="M 439.702 86.579333 
L 442.918 86.579333 
L 442.918 66.76492 
L 439.702 66.76492 
z
" clip-path="url(#pe43b972584)" style="fill: #696969"/>
   </g>
   <g id="matplotlib.axis_1">
    <g id="xtick_1">
     <g id="line2d_1">
      <defs>
       <path id="mb138fba858" d="M 0 0 
L 0 3.5 
" style="stroke: #000000; stroke-width: 0.8"/>
      </defs>
      <g>
       <use xlink:href="#mb138fba858" x="57.4" y="89.48" style="stroke: #000000; stroke-width: 0.8"/>
      </g>
     </g>
     <g id="text_1">
      <!-- 0 -->
      <g transform="translate(54.21875 104.078438) scale(0.1 -0.1)">
       <defs>
        <path id="DejaVuSans-30" d="M 2034 4250 
Q 1547 4250 1301 3770 
Q 1056 3291 1056 2328 
Q 1056 1369 1301 889 
Q 1547 409 2034 409 
Q 2525 409 2770 889 
Q 3016 1369 3016 2328 
Q 3016 3291 2770 3770 
Q 2525 4250 2034 4250 
z
M 2034 4750 
Q 2819 4750 3233 4129 
Q 3647 3509 3647 2328 
Q 3647 1150 3233 529 
Q 2819 -91 2034 -91 
Q 1250 -91 836 529 
Q 422 1150 422 2328 
Q 422 3509 836 4129 
Q 1250 4750 2034 4750 
z
" transform="scale(0.015625)"/>
       </defs>
       <use xlink:href="#DejaVuSans-30"/>
      </g>
     </g>
    </g>
    <g id="xtick_2">
     <g id="line2d_2">
      <g>
       <use xlink:href="#mb138fba858" x="137.8" y="89.48" style="stroke: #000000; stroke-width: 0.8"/>
      </g>
     </g>
     <g id="text_2">
      <!-- 20 -->
      <g transform="translate(131.4375 104.078438) scale(0.1 -0.1)">
       <defs>
        <path id="DejaVuSans-32" d="M 1228 531 
L 3431 531 
L 3431 0 
L 469 0 
L 469 531 
Q 828 903 1448 1529 
Q 2069 2156 2228 2338 
Q 2531 2678 2651 2914 
Q 2772 3150 2772 3378 
Q 2772 3750 2511 3984 
Q 2250 4219 1831 4219 
Q 1534 4219 1204 4116 
Q 875 4013 500 3803 
L 500 4441 
Q 881 4594 1212 4672 
Q 1544 4750 1819 4750 
Q 2544 4750 2975 4387 
Q 3406 4025 3406 3419 
Q 3406 3131 3298 2873 
Q 3191 2616 2906 2266 
Q 2828 2175 2409 1742 
Q 1991 1309 1228 531 
z
" transform="scale(0.015625)"/>
       </defs>
       <use xlink:href="#DejaVuSans-32"/>
       <use xlink:href="#DejaVuSans-30" x="63.623047"/>
      </g>
     </g>
    </g>
    <g id="xtick_3">
     <g id="line2d_3">
      <g>
       <use xlink:href="#mb138fba858" x="218.2" y="89.48" style="stroke: #000000; stroke-width: 0.8"/>
      </g>
     </g>
     <g id="text_3">
      <!-- 40 -->
      <g transform="translate(211.8375 104.078438) scale(0.1 -0.1)">
       <defs>
        <path id="DejaVuSans-34" d="M 2419 4116 
L 825 1625 
L 2419 1625 
L 2419 4116 
z
M 2253 4666 
L 3047 4666 
L 3047 1625 
L 3713 1625 
L 3713 1100 
L 3047 1100 
L 3047 0 
L 2419 0 
L 2419 1100 
L 313 1100 
L 313 1709 
L 2253 4666 
z
" transform="scale(0.015625)"/>
       </defs>
       <use xlink:href="#DejaVuSans-34"/>
       <use xlink:href="#DejaVuSans-30" x="63.623047"/>
      </g>
     </g>
    </g>
    <g id="xtick_4">
     <g id="line2d_4">
      <g>
       <use xlink:href="#mb138fba858" x="298.6" y="89.48" style="stroke: #000000; stroke-width: 0.8"/>
      </g>
     </g>
     <g id="text_4">
      <!-- 60 -->
      <g transform="translate(292.2375 104.078438) scale(0.1 -0.1)">
       <defs>
        <path id="DejaVuSans-36" d="M 2113 2584 
Q 1688 2584 1439 2293 
Q 1191 2003 1191 1497 
Q 1191 994 1439 701 
Q 1688 409 2113 409 
Q 2538 409 2786 701 
Q 3034 994 3034 1497 
Q 3034 2003 2786 2293 
Q 2538 2584 2113 2584 
z
M 3366 4563 
L 3366 3988 
Q 3128 4100 2886 4159 
Q 2644 4219 2406 4219 
Q 1781 4219 1451 3797 
Q 1122 3375 1075 2522 
Q 1259 2794 1537 2939 
Q 1816 3084 2150 3084 
Q 2853 3084 3261 2657 
Q 3669 2231 3669 1497 
Q 3669 778 3244 343 
Q 2819 -91 2113 -91 
Q 1303 -91 875 529 
Q 447 1150 447 2328 
Q 447 3434 972 4092 
Q 1497 4750 2381 4750 
Q 2619 4750 2861 4703 
Q 3103 4656 3366 4563 
z
" transform="scale(0.015625)"/>
       </defs>
       <use xlink:href="#DejaVuSans-36"/>
       <use xlink:href="#DejaVuSans-30" x="63.623047"/>
      </g>
     </g>
    </g>
    <g id="xtick_5">
     <g id="line2d_5">
      <g>
       <use xlink:href="#mb138fba858" x="379" y="89.48" style="stroke: #000000; stroke-width: 0.8"/>
      </g>
     </g>
     <g id="text_5">
      <!-- 80 -->
      <g transform="translate(372.6375 104.078438) scale(0.1 -0.1)">
       <defs>
        <path id="DejaVuSans-38" d="M 2034 2216 
Q 1584 2216 1326 1975 
Q 1069 1734 1069 1313 
Q 1069 891 1326 650 
Q 1584 409 2034 409 
Q 2484 409 2743 651 
Q 3003 894 3003 1313 
Q 3003 1734 2745 1975 
Q 2488 2216 2034 2216 
z
M 1403 2484 
Q 997 2584 770 2862 
Q 544 3141 544 3541 
Q 544 4100 942 4425 
Q 1341 4750 2034 4750 
Q 2731 4750 3128 4425 
Q 3525 4100 3525 3541 
Q 3525 3141 3298 2862 
Q 3072 2584 2669 2484 
Q 3125 2378 3379 2068 
Q 3634 1759 3634 1313 
Q 3634 634 3220 271 
Q 2806 -91 2034 -91 
Q 1263 -91 848 271 
Q 434 634 434 1313 
Q 434 1759 690 2068 
Q 947 2378 1403 2484 
z
M 1172 3481 
Q 1172 3119 1398 2916 
Q 1625 2713 2034 2713 
Q 2441 2713 2670 2916 
Q 2900 3119 2900 3481 
Q 2900 3844 2670 4047 
Q 2441 4250 2034 4250 
Q 1625 4250 1398 4047 
Q 1172 3844 1172 3481 
z
" transform="scale(0.015625)"/>
       </defs>
       <use xlink:href="#DejaVuSans-38"/>
       <use xlink:href="#DejaVuSans-30" x="63.623047"/>
      </g>
     </g>
    </g>
   </g>
   <g id="matplotlib.axis_2">
    <g id="ytick_1">
     <g id="line2d_6">
      <defs>
       <path id="m1f220d6e2a" d="M 0 0 
L -3.5 0 
" style="stroke: #000000; stroke-width: 0.8"/>
      </defs>
      <g>
       <use xlink:href="#m1f220d6e2a" x="57.4" y="86.579333" style="stroke: #000000; stroke-width: 0.8"/>
      </g>
     </g>
     <g id="text_6">
      <!-- 0 -->
      <g transform="translate(44.0375 90.378552) scale(0.1 -0.1)">
       <use xlink:href="#DejaVuSans-30"/>
      </g>
     </g>
    </g>
    <g id="ytick_2">
     <g id="line2d_7">
      <g>
       <use xlink:href="#m1f220d6e2a" x="57.4" y="66.152103" style="stroke: #000000; stroke-width: 0.8"/>
      </g>
     </g>
     <g id="text_7">
      <!-- 1 -->
      <g transform="translate(44.0375 69.951322) scale(0.1 -0.1)">
       <defs>
        <path id="DejaVuSans-31" d="M 794 531 
L 1825 531 
L 1825 4091 
L 703 3866 
L 703 4441 
L 1819 4666 
L 2450 4666 
L 2450 531 
L 3481 531 
L 3481 0 
L 794 0 
L 794 531 
z
" transform="scale(0.015625)"/>
       </defs>
       <use xlink:href="#DejaVuSans-31"/>
      </g>
     </g>
    </g>
    <g id="text_8">
     <!-- 1e2 -->
     <g transform="translate(57.4 51.672) scale(0.1 -0.1)">
      <defs>
       <path id="DejaVuSans-65" d="M 3597 1894 
L 3597 1613 
L 953 1613 
Q 991 1019 1311 708 
Q 1631 397 2203 397 
Q 2534 397 2845 478 
Q 3156 559 3463 722 
L 3463 178 
Q 3153 47 2828 -22 
Q 2503 -91 2169 -91 
Q 1331 -91 842 396 
Q 353 884 353 1716 
Q 353 2575 817 3079 
Q 1281 3584 2069 3584 
Q 2775 3584 3186 3129 
Q 3597 2675 3597 1894 
z
M 3022 2063 
Q 3016 2534 2758 2815 
Q 2500 3097 2075 3097 
Q 1594 3097 1305 2825 
Q 1016 2553 972 2059 
L 3022 2063 
z
" transform="scale(0.015625)"/>
      </defs>
      <use xlink:href="#DejaVuSans-31"/>
      <use xlink:href="#DejaVuSans-65" x="63.623047"/>
      <use xlink:href="#DejaVuSans-32" x="125.146484"/>
     </g>
    </g>
   </g>
   <g id="line2d_8">
    <path d="M 57.4 77.242538 
L 63.43 80.5407 
L 67.45 82.430766 
L 71.47 83.942435 
L 73.48 84.527711 
L 75.49 84.987248 
L 77.5 85.314299 
L 79.51 85.504061 
L 81.52 85.553749 
L 83.53 85.462633 
L 85.54 85.232051 
L 87.55 84.865388 
L 89.56 84.368028 
L 93.58 83.012242 
L 97.6 81.244033 
L 101.62 79.166875 
L 109.66 74.582884 
L 115.69 71.296667 
L 119.71 69.421396 
L 123.73 67.929022 
L 125.74 67.354738 
L 127.75 66.906877 
L 129.76 66.592015 
L 131.77 66.414775 
L 133.78 66.37776 
L 135.79 66.481514 
L 137.8 66.724513 
L 139.81 67.103188 
L 141.82 67.61198 
L 145.84 68.988229 
L 149.86 70.772724 
L 153.88 72.861037 
L 167.95 80.72355 
L 171.97 82.583802 
L 175.99 84.056703 
L 178 84.619928 
L 180.01 85.05606 
L 182.02 85.358696 
L 184.03 85.523391 
L 186.04 85.547728 
L 188.05 85.431349 
L 190.06 85.175964 
L 192.07 84.785321 
L 194.08 84.265157 
L 198.1 82.868608 
L 202.12 81.068041 
L 206.14 78.968822 
L 220.21 71.11494 
L 224.23 69.269927 
L 228.25 67.816675 
L 230.26 67.264577 
L 232.27 66.840226 
L 234.28 66.549853 
L 236.29 66.397721 
L 238.3 66.386064 
L 240.31 66.515054 
L 242.32 66.782797 
L 244.33 67.18536 
L 246.34 67.716834 
L 250.36 69.133517 
L 254.38 70.949942 
L 258.4 73.059816 
L 272.47 80.904133 
L 276.49 82.733686 
L 280.51 84.167116 
L 282.52 84.708022 
L 284.53 85.120542 
L 286.54 85.398618 
L 288.55 85.538168 
L 290.56 85.537143 
L 292.57 85.395557 
L 294.58 85.115489 
L 296.59 84.701053 
L 298.6 84.158333 
L 302.62 82.721685 
L 306.64 80.889617 
L 310.66 78.769339 
L 324.73 70.935523 
L 328.75 69.121647 
L 332.77 67.708209 
L 334.78 67.17856 
L 336.79 66.777921 
L 338.8 66.512175 
L 340.81 66.385223 
L 342.82 66.398931 
L 344.83 66.553095 
L 346.84 66.845454 
L 348.85 67.271714 
L 350.86 67.825616 
L 354.88 69.282057 
L 358.9 71.12955 
L 362.92 73.25998 
L 376.99 81.082363 
L 381.01 82.880345 
L 385.03 84.273623 
L 387.04 84.791952 
L 389.05 85.180662 
L 391.06 85.434047 
L 393.07 85.548385 
L 395.08 85.521997 
L 397.09 85.355272 
L 399.1 85.050656 
L 401.11 84.612624 
L 403.12 84.047606 
L 407.14 82.571544 
L 411.16 80.708848 
L 415.18 78.56852 
L 427.24 71.770976 
L 431.26 69.82247 
L 435.28 68.23339 
L 437.29 67.603675 
L 439.3 67.096728 
L 441.31 66.719992 
L 441.31 66.719992 
" clip-path="url(#pe43b972584)" style="fill: none; stroke: #191970; stroke-width: 3; stroke-linecap: square"/>
   </g>
   <g id="line2d_9">
    <path d="M 133.303073 89.48 
L 133.303073 54.672 
" clip-path="url(#pe43b972584)" style="fill: none; stroke-dasharray: 7.4,3.2; stroke-dashoffset: 0; stroke: #000000; stroke-opacity: 0.8; stroke-width: 2"/>
   </g>
   <g id="patch_195">
    <path d="M 57.4 89.48 
L 57.4 54.672 
" style="fill: none; stroke: #000000; stroke-width: 0.8; stroke-linejoin: miter; stroke-linecap: square"/>
   </g>
   <g id="patch_196">
    <path d="M 57.4 89.48 
L 441.31 89.48 
" style="fill: none; stroke: #000000; stroke-width: 0.8; stroke-linejoin: miter; stroke-linecap: square"/>
   </g>
   <g id="text_9">
    <!-- 1 -->
    <g transform="translate(246.81 39.71375) scale(0.08 -0.08)">
     <use xlink:href="#DejaVuSans-31"/>
    </g>
    <!-- (AC: 18.88, PR: 25.91) -->
    <g transform="translate(205.025625 48.672) scale(0.08 -0.08)">
     <defs>
      <path id="DejaVuSans-28" d="M 1984 4856 
Q 1566 4138 1362 3434 
Q 1159 2731 1159 2009 
Q 1159 1288 1364 580 
Q 1569 -128 1984 -844 
L 1484 -844 
Q 1016 -109 783 600 
Q 550 1309 550 2009 
Q 550 2706 781 3412 
Q 1013 4119 1484 4856 
L 1984 4856 
z
" transform="scale(0.015625)"/>
      <path id="DejaVuSans-41" d="M 2188 4044 
L 1331 1722 
L 3047 1722 
L 2188 4044 
z
M 1831 4666 
L 2547 4666 
L 4325 0 
L 3669 0 
L 3244 1197 
L 1141 1197 
L 716 0 
L 50 0 
L 1831 4666 
z
" transform="scale(0.015625)"/>
      <path id="DejaVuSans-43" d="M 4122 4306 
L 4122 3641 
Q 3803 3938 3442 4084 
Q 3081 4231 2675 4231 
Q 1875 4231 1450 3742 
Q 1025 3253 1025 2328 
Q 1025 1406 1450 917 
Q 1875 428 2675 428 
Q 3081 428 3442 575 
Q 3803 722 4122 1019 
L 4122 359 
Q 3791 134 3420 21 
Q 3050 -91 2638 -91 
Q 1578 -91 968 557 
Q 359 1206 359 2328 
Q 359 3453 968 4101 
Q 1578 4750 2638 4750 
Q 3056 4750 3426 4639 
Q 3797 4528 4122 4306 
z
" transform="scale(0.015625)"/>
      <path id="DejaVuSans-3a" d="M 750 794 
L 1409 794 
L 1409 0 
L 750 0 
L 750 794 
z
M 750 3309 
L 1409 3309 
L 1409 2516 
L 750 2516 
L 750 3309 
z
" transform="scale(0.015625)"/>
      <path id="DejaVuSans-20" transform="scale(0.015625)"/>
      <path id="DejaVuSans-2e" d="M 684 794 
L 1344 794 
L 1344 0 
L 684 0 
L 684 794 
z
" transform="scale(0.015625)"/>
      <path id="DejaVuSans-2c" d="M 750 794 
L 1409 794 
L 1409 256 
L 897 -744 
L 494 -744 
L 750 256 
L 750 794 
z
" transform="scale(0.015625)"/>
      <path id="DejaVuSans-50" d="M 1259 4147 
L 1259 2394 
L 2053 2394 
Q 2494 2394 2734 2622 
Q 2975 2850 2975 3272 
Q 2975 3691 2734 3919 
Q 2494 4147 2053 4147 
L 1259 4147 
z
M 628 4666 
L 2053 4666 
Q 2838 4666 3239 4311 
Q 3641 3956 3641 3272 
Q 3641 2581 3239 2228 
Q 2838 1875 2053 1875 
L 1259 1875 
L 1259 0 
L 628 0 
L 628 4666 
z
" transform="scale(0.015625)"/>
      <path id="DejaVuSans-52" d="M 2841 2188 
Q 3044 2119 3236 1894 
Q 3428 1669 3622 1275 
L 4263 0 
L 3584 0 
L 2988 1197 
Q 2756 1666 2539 1819 
Q 2322 1972 1947 1972 
L 1259 1972 
L 1259 0 
L 628 0 
L 628 4666 
L 2053 4666 
Q 2853 4666 3247 4331 
Q 3641 3997 3641 3322 
Q 3641 2881 3436 2590 
Q 3231 2300 2841 2188 
z
M 1259 4147 
L 1259 2491 
L 2053 2491 
Q 2509 2491 2742 2702 
Q 2975 2913 2975 3322 
Q 2975 3731 2742 3939 
Q 2509 4147 2053 4147 
L 1259 4147 
z
" transform="scale(0.015625)"/>
      <path id="DejaVuSans-35" d="M 691 4666 
L 3169 4666 
L 3169 4134 
L 1269 4134 
L 1269 2991 
Q 1406 3038 1543 3061 
Q 1681 3084 1819 3084 
Q 2600 3084 3056 2656 
Q 3513 2228 3513 1497 
Q 3513 744 3044 326 
Q 2575 -91 1722 -91 
Q 1428 -91 1123 -41 
Q 819 9 494 109 
L 494 744 
Q 775 591 1075 516 
Q 1375 441 1709 441 
Q 2250 441 2565 725 
Q 2881 1009 2881 1497 
Q 2881 1984 2565 2268 
Q 2250 2553 1709 2553 
Q 1456 2553 1204 2497 
Q 953 2441 691 2322 
L 691 4666 
z
" transform="scale(0.015625)"/>
      <path id="DejaVuSans-39" d="M 703 97 
L 703 672 
Q 941 559 1184 500 
Q 1428 441 1663 441 
Q 2288 441 2617 861 
Q 2947 1281 2994 2138 
Q 2813 1869 2534 1725 
Q 2256 1581 1919 1581 
Q 1219 1581 811 2004 
Q 403 2428 403 3163 
Q 403 3881 828 4315 
Q 1253 4750 1959 4750 
Q 2769 4750 3195 4129 
Q 3622 3509 3622 2328 
Q 3622 1225 3098 567 
Q 2575 -91 1691 -91 
Q 1453 -91 1209 -44 
Q 966 3 703 97 
z
M 1959 2075 
Q 2384 2075 2632 2365 
Q 2881 2656 2881 3163 
Q 2881 3666 2632 3958 
Q 2384 4250 1959 4250 
Q 1534 4250 1286 3958 
Q 1038 3666 1038 3163 
Q 1038 2656 1286 2365 
Q 1534 2075 1959 2075 
z
" transform="scale(0.015625)"/>
      <path id="DejaVuSans-29" d="M 513 4856 
L 1013 4856 
Q 1481 4119 1714 3412 
Q 1947 2706 1947 2009 
Q 1947 1309 1714 600 
Q 1481 -109 1013 -844 
L 513 -844 
Q 928 -128 1133 580 
Q 1338 1288 1338 2009 
Q 1338 2731 1133 3434 
Q 928 4138 513 4856 
z
" transform="scale(0.015625)"/>
     </defs>
     <use xlink:href="#DejaVuSans-28"/>
     <use xlink:href="#DejaVuSans-41" x="39.013672"/>
     <use xlink:href="#DejaVuSans-43" x="105.671875"/>
     <use xlink:href="#DejaVuSans-3a" x="175.496094"/>
     <use xlink:href="#DejaVuSans-20" x="209.1875"/>
     <use xlink:href="#DejaVuSans-31" x="240.974609"/>
     <use xlink:href="#DejaVuSans-38" x="304.597656"/>
     <use xlink:href="#DejaVuSans-2e" x="368.220703"/>
     <use xlink:href="#DejaVuSans-38" x="400.007812"/>
     <use xlink:href="#DejaVuSans-38" x="463.630859"/>
     <use xlink:href="#DejaVuSans-2c" x="527.253906"/>
     <use xlink:href="#DejaVuSans-20" x="559.041016"/>
     <use xlink:href="#DejaVuSans-50" x="590.828125"/>
     <use xlink:href="#DejaVuSans-52" x="651.130859"/>
     <use xlink:href="#DejaVuSans-3a" x="717.488281"/>
     <use xlink:href="#DejaVuSans-20" x="751.179688"/>
     <use xlink:href="#DejaVuSans-32" x="782.966797"/>
     <use xlink:href="#DejaVuSans-35" x="846.589844"/>
     <use xlink:href="#DejaVuSans-2e" x="910.212891"/>
     <use xlink:href="#DejaVuSans-39" x="942"/>
     <use xlink:href="#DejaVuSans-31" x="1005.623047"/>
     <use xlink:href="#DejaVuSans-29" x="1069.246094"/>
    </g>
   </g>
  </g>
  <g id="axes_2">
   <g id="patch_197">
    <path d="M 455.61 89.48 
L 839.52 89.48 
L 839.52 54.672 
L 455.61 54.672 
z
" style="fill: #ffffff"/>
   </g>
   <g id="patch_198">
    <path d="M 453.462252 86.579333 
L 457.757748 86.579333 
L 457.757748 65.130742 
L 453.462252 65.130742 
z
" clip-path="url(#p24b53e74c9)" style="fill: #696969"/>
   </g>
   <g id="patch_199">
    <path d="M 456.146937 86.579333 
L 460.442434 86.579333 
L 460.442434 66.969192 
L 456.146937 66.969192 
z
" clip-path="url(#p24b53e74c9)" style="fill: #696969"/>
   </g>
   <g id="patch_200">
    <path d="M 458.831622 86.579333 
L 463.127119 86.579333 
L 463.127119 64.722197 
L 458.831622 64.722197 
z
" clip-path="url(#p24b53e74c9)" style="fill: #696969"/>
   </g>
   <g id="patch_201">
    <path d="M 461.516308 86.579333 
L 465.811804 86.579333 
L 465.811804 71.871728 
L 461.516308 71.871728 
z
" clip-path="url(#p24b53e74c9)" style="fill: #696969"/>
   </g>
   <g id="patch_202">
    <path d="M 464.200993 86.579333 
L 468.49649 86.579333 
L 468.49649 61.249568 
L 464.200993 61.249568 
z
" clip-path="url(#p24b53e74c9)" style="fill: #696969"/>
   </g>
   <g id="patch_203">
    <path d="M 466.885678 86.579333 
L 471.181175 86.579333 
L 471.181175 64.926469 
L 466.885678 64.926469 
z
" clip-path="url(#p24b53e74c9)" style="fill: #696969"/>
   </g>
   <g id="patch_204">
    <path d="M 469.570364 86.579333 
L 473.86586 86.579333 
L 473.86586 77.591352 
L 469.570364 77.591352 
z
" clip-path="url(#p24b53e74c9)" style="fill: #696969"/>
   </g>
   <g id="patch_205">
    <path d="M 472.255049 86.579333 
L 476.550545 86.579333 
L 476.550545 70.850366 
L 472.255049 70.850366 
z
" clip-path="url(#p24b53e74c9)" style="fill: #696969"/>
   </g>
   <g id="patch_206">
    <path d="M 474.939734 86.579333 
L 479.235231 86.579333 
L 479.235231 76.978535 
L 474.939734 76.978535 
z
" clip-path="url(#p24b53e74c9)" style="fill: #696969"/>
   </g>
   <g id="patch_207">
    <path d="M 477.62442 86.579333 
L 481.919916 86.579333 
L 481.919916 67.582009 
L 477.62442 67.582009 
z
" clip-path="url(#p24b53e74c9)" style="fill: #696969"/>
   </g>
   <g id="patch_208">
    <path d="M 480.309105 86.579333 
L 484.604601 86.579333 
L 484.604601 72.893089 
L 480.309105 72.893089 
z
" clip-path="url(#p24b53e74c9)" style="fill: #696969"/>
   </g>
   <g id="patch_209">
    <path d="M 482.99379 86.579333 
L 487.289287 86.579333 
L 487.289287 70.441822 
L 482.99379 70.441822 
z
" clip-path="url(#p24b53e74c9)" style="fill: #696969"/>
   </g>
   <g id="patch_210">
    <path d="M 485.678476 86.579333 
L 489.973972 86.579333 
L 489.973972 72.076 
L 485.678476 72.076 
z
" clip-path="url(#p24b53e74c9)" style="fill: #696969"/>
   </g>
   <g id="patch_211">
    <path d="M 488.363161 86.579333 
L 492.658657 86.579333 
L 492.658657 75.140085 
L 488.363161 75.140085 
z
" clip-path="url(#p24b53e74c9)" style="fill: #696969"/>
   </g>
   <g id="patch_212">
    <path d="M 491.047846 86.579333 
L 495.343343 86.579333 
L 495.343343 77.182808 
L 491.047846 77.182808 
z
" clip-path="url(#p24b53e74c9)" style="fill: #696969"/>
   </g>
   <g id="patch_213">
    <path d="M 493.732531 86.579333 
L 498.028028 86.579333 
L 498.028028 80.04262 
L 493.732531 80.04262 
z
" clip-path="url(#p24b53e74c9)" style="fill: #696969"/>
   </g>
   <g id="patch_214">
    <path d="M 496.417217 86.579333 
L 500.712713 86.579333 
L 500.712713 85.557972 
L 496.417217 85.557972 
z
" clip-path="url(#p24b53e74c9)" style="fill: #696969"/>
   </g>
   <g id="patch_215">
    <path d="M 499.101902 86.579333 
L 503.397399 86.579333 
L 503.397399 80.451164 
L 499.101902 80.451164 
z
" clip-path="url(#p24b53e74c9)" style="fill: #696969"/>
   </g>
   <g id="patch_216">
    <path d="M 501.786587 86.579333 
L 506.082084 86.579333 
L 506.082084 82.289615 
L 501.786587 82.289615 
z
" clip-path="url(#p24b53e74c9)" style="fill: #696969"/>
   </g>
   <g id="patch_217">
    <path d="M 504.471273 86.579333 
L 508.766769 86.579333 
L 508.766769 74.935812 
L 504.471273 74.935812 
z
" clip-path="url(#p24b53e74c9)" style="fill: #696969"/>
   </g>
   <g id="patch_218">
    <path d="M 507.155958 86.579333 
L 511.451455 86.579333 
L 511.451455 82.493887 
L 507.155958 82.493887 
z
" clip-path="url(#p24b53e74c9)" style="fill: #696969"/>
   </g>
   <g id="patch_219">
    <path d="M 509.840643 86.579333 
L 514.13614 86.579333 
L 514.13614 82.289615 
L 509.840643 82.289615 
z
" clip-path="url(#p24b53e74c9)" style="fill: #696969"/>
   </g>
   <g id="patch_220">
    <path d="M 512.525329 86.579333 
L 516.820825 86.579333 
L 516.820825 86.579333 
L 512.525329 86.579333 
z
" clip-path="url(#p24b53e74c9)" style="fill: #696969"/>
   </g>
   <g id="patch_221">
    <path d="M 515.210014 86.579333 
L 519.50551 86.579333 
L 519.50551 83.719521 
L 515.210014 83.719521 
z
" clip-path="url(#p24b53e74c9)" style="fill: #696969"/>
   </g>
   <g id="patch_222">
    <path d="M 517.894699 86.579333 
L 522.190196 86.579333 
L 522.190196 83.923793 
L 517.894699 83.923793 
z
" clip-path="url(#p24b53e74c9)" style="fill: #696969"/>
   </g>
   <g id="patch_223">
    <path d="M 520.579385 86.579333 
L 524.874881 86.579333 
L 524.874881 80.655437 
L 520.579385 80.655437 
z
" clip-path="url(#p24b53e74c9)" style="fill: #696969"/>
   </g>
   <g id="patch_224">
    <path d="M 523.26407 86.579333 
L 527.559566 86.579333 
L 527.559566 86.579333 
L 523.26407 86.579333 
z
" clip-path="url(#p24b53e74c9)" style="fill: #696969"/>
   </g>
   <g id="patch_225">
    <path d="M 525.948755 86.579333 
L 530.244252 86.579333 
L 530.244252 82.493887 
L 525.948755 82.493887 
z
" clip-path="url(#p24b53e74c9)" style="fill: #696969"/>
   </g>
   <g id="patch_226">
    <path d="M 528.633441 86.579333 
L 532.928937 86.579333 
L 532.928937 86.579333 
L 528.633441 86.579333 
z
" clip-path="url(#p24b53e74c9)" style="fill: #696969"/>
   </g>
   <g id="patch_227">
    <path d="M 531.318126 86.579333 
L 535.613622 86.579333 
L 535.613622 83.719521 
L 531.318126 83.719521 
z
" clip-path="url(#p24b53e74c9)" style="fill: #696969"/>
   </g>
   <g id="patch_228">
    <path d="M 534.002811 86.579333 
L 538.298308 86.579333 
L 538.298308 80.04262 
L 534.002811 80.04262 
z
" clip-path="url(#p24b53e74c9)" style="fill: #696969"/>
   </g>
   <g id="patch_229">
    <path d="M 536.687497 86.579333 
L 540.982993 86.579333 
L 540.982993 82.69816 
L 536.687497 82.69816 
z
" clip-path="url(#p24b53e74c9)" style="fill: #696969"/>
   </g>
   <g id="patch_230">
    <path d="M 539.372182 86.579333 
L 543.667678 86.579333 
L 543.667678 77.182808 
L 539.372182 77.182808 
z
" clip-path="url(#p24b53e74c9)" style="fill: #696969"/>
   </g>
   <g id="patch_231">
    <path d="M 542.056867 86.579333 
L 546.352364 86.579333 
L 546.352364 82.902432 
L 542.056867 82.902432 
z
" clip-path="url(#p24b53e74c9)" style="fill: #696969"/>
   </g>
   <g id="patch_232">
    <path d="M 544.741552 86.579333 
L 549.037049 86.579333 
L 549.037049 84.53661 
L 544.741552 84.53661 
z
" clip-path="url(#p24b53e74c9)" style="fill: #696969"/>
   </g>
   <g id="patch_233">
    <path d="M 547.426238 86.579333 
L 551.721734 86.579333 
L 551.721734 75.140085 
L 547.426238 75.140085 
z
" clip-path="url(#p24b53e74c9)" style="fill: #696969"/>
   </g>
   <g id="patch_234">
    <path d="M 550.110923 86.579333 
L 554.40642 86.579333 
L 554.40642 79.021258 
L 550.110923 79.021258 
z
" clip-path="url(#p24b53e74c9)" style="fill: #696969"/>
   </g>
   <g id="patch_235">
    <path d="M 552.795608 86.579333 
L 557.091105 86.579333 
L 557.091105 76.569991 
L 552.795608 76.569991 
z
" clip-path="url(#p24b53e74c9)" style="fill: #696969"/>
   </g>
   <g id="patch_236">
    <path d="M 555.480294 86.579333 
L 559.77579 86.579333 
L 559.77579 75.548629 
L 555.480294 75.548629 
z
" clip-path="url(#p24b53e74c9)" style="fill: #696969"/>
   </g>
   <g id="patch_237">
    <path d="M 558.164979 86.579333 
L 562.460476 86.579333 
L 562.460476 68.399099 
L 558.164979 68.399099 
z
" clip-path="url(#p24b53e74c9)" style="fill: #696969"/>
   </g>
   <g id="patch_238">
    <path d="M 560.849664 86.579333 
L 565.145161 86.579333 
L 565.145161 72.893089 
L 560.849664 72.893089 
z
" clip-path="url(#p24b53e74c9)" style="fill: #696969"/>
   </g>
   <g id="patch_239">
    <path d="M 563.53435 86.579333 
L 567.829846 86.579333 
L 567.829846 73.097362 
L 563.53435 73.097362 
z
" clip-path="url(#p24b53e74c9)" style="fill: #696969"/>
   </g>
   <g id="patch_240">
    <path d="M 566.219035 86.579333 
L 570.514531 86.579333 
L 570.514531 69.624732 
L 566.219035 69.624732 
z
" clip-path="url(#p24b53e74c9)" style="fill: #696969"/>
   </g>
   <g id="patch_241">
    <path d="M 568.90372 86.579333 
L 573.199217 86.579333 
L 573.199217 65.743559 
L 568.90372 65.743559 
z
" clip-path="url(#p24b53e74c9)" style="fill: #696969"/>
   </g>
   <g id="patch_242">
    <path d="M 571.588406 86.579333 
L 575.883902 86.579333 
L 575.883902 66.560648 
L 571.588406 66.560648 
z
" clip-path="url(#p24b53e74c9)" style="fill: #696969"/>
   </g>
   <g id="patch_243">
    <path d="M 574.273091 86.579333 
L 578.568587 86.579333 
L 578.568587 67.786282 
L 574.273091 67.786282 
z
" clip-path="url(#p24b53e74c9)" style="fill: #696969"/>
   </g>
   <g id="patch_244">
    <path d="M 576.957776 86.579333 
L 581.253273 86.579333 
L 581.253273 66.152103 
L 576.957776 66.152103 
z
" clip-path="url(#p24b53e74c9)" style="fill: #696969"/>
   </g>
   <g id="patch_245">
    <path d="M 579.642462 86.579333 
L 583.937958 86.579333 
L 583.937958 66.560648 
L 579.642462 66.560648 
z
" clip-path="url(#p24b53e74c9)" style="fill: #696969"/>
   </g>
   <g id="patch_246">
    <path d="M 582.327147 86.579333 
L 586.622643 86.579333 
L 586.622643 64.313653 
L 582.327147 64.313653 
z
" clip-path="url(#p24b53e74c9)" style="fill: #696969"/>
   </g>
   <g id="patch_247">
    <path d="M 585.011832 86.579333 
L 589.307329 86.579333 
L 589.307329 64.10938 
L 585.011832 64.10938 
z
" clip-path="url(#p24b53e74c9)" style="fill: #696969"/>
   </g>
   <g id="patch_248">
    <path d="M 587.696517 86.579333 
L 591.992014 86.579333 
L 591.992014 65.947831 
L 587.696517 65.947831 
z
" clip-path="url(#p24b53e74c9)" style="fill: #696969"/>
   </g>
   <g id="patch_249">
    <path d="M 590.381203 86.579333 
L 594.676699 86.579333 
L 594.676699 66.76492 
L 590.381203 66.76492 
z
" clip-path="url(#p24b53e74c9)" style="fill: #696969"/>
   </g>
   <g id="patch_250">
    <path d="M 593.065888 86.579333 
L 597.361385 86.579333 
L 597.361385 68.807643 
L 593.065888 68.807643 
z
" clip-path="url(#p24b53e74c9)" style="fill: #696969"/>
   </g>
   <g id="patch_251">
    <path d="M 595.750573 86.579333 
L 600.04607 86.579333 
L 600.04607 69.011915 
L 595.750573 69.011915 
z
" clip-path="url(#p24b53e74c9)" style="fill: #696969"/>
   </g>
   <g id="patch_252">
    <path d="M 598.435259 86.579333 
L 602.730755 86.579333 
L 602.730755 69.42046 
L 598.435259 69.42046 
z
" clip-path="url(#p24b53e74c9)" style="fill: #696969"/>
   </g>
   <g id="patch_253">
    <path d="M 601.119944 86.579333 
L 605.415441 86.579333 
L 605.415441 72.893089 
L 601.119944 72.893089 
z
" clip-path="url(#p24b53e74c9)" style="fill: #696969"/>
   </g>
   <g id="patch_254">
    <path d="M 603.804629 86.579333 
L 608.100126 86.579333 
L 608.100126 66.152103 
L 603.804629 66.152103 
z
" clip-path="url(#p24b53e74c9)" style="fill: #696969"/>
   </g>
   <g id="patch_255">
    <path d="M 606.489315 86.579333 
L 610.784811 86.579333 
L 610.784811 75.752901 
L 606.489315 75.752901 
z
" clip-path="url(#p24b53e74c9)" style="fill: #696969"/>
   </g>
   <g id="patch_256">
    <path d="M 609.174 86.579333 
L 613.469497 86.579333 
L 613.469497 68.194826 
L 609.174 68.194826 
z
" clip-path="url(#p24b53e74c9)" style="fill: #696969"/>
   </g>
   <g id="patch_257">
    <path d="M 611.858685 86.579333 
L 616.154182 86.579333 
L 616.154182 72.688817 
L 611.858685 72.688817 
z
" clip-path="url(#p24b53e74c9)" style="fill: #696969"/>
   </g>
   <g id="patch_258">
    <path d="M 614.543371 86.579333 
L 618.838867 86.579333 
L 618.838867 64.517925 
L 614.543371 64.517925 
z
" clip-path="url(#p24b53e74c9)" style="fill: #696969"/>
   </g>
   <g id="patch_259">
    <path d="M 617.228056 86.579333 
L 621.523552 86.579333 
L 621.523552 74.527268 
L 617.228056 74.527268 
z
" clip-path="url(#p24b53e74c9)" style="fill: #696969"/>
   </g>
   <g id="patch_260">
    <path d="M 619.912741 86.579333 
L 624.208238 86.579333 
L 624.208238 85.3537 
L 619.912741 85.3537 
z
" clip-path="url(#p24b53e74c9)" style="fill: #696969"/>
   </g>
   <g id="patch_261">
    <path d="M 622.597427 86.579333 
L 626.892923 86.579333 
L 626.892923 79.225531 
L 622.597427 79.225531 
z
" clip-path="url(#p24b53e74c9)" style="fill: #696969"/>
   </g>
   <g id="patch_262">
    <path d="M 625.282112 86.579333 
L 629.577608 86.579333 
L 629.577608 80.655437 
L 625.282112 80.655437 
z
" clip-path="url(#p24b53e74c9)" style="fill: #696969"/>
   </g>
   <g id="patch_263">
    <path d="M 627.966797 86.579333 
L 632.262294 86.579333 
L 632.262294 84.740883 
L 627.966797 84.740883 
z
" clip-path="url(#p24b53e74c9)" style="fill: #696969"/>
   </g>
   <g id="patch_264">
    <path d="M 630.651483 86.579333 
L 634.946979 86.579333 
L 634.946979 86.579333 
L 630.651483 86.579333 
z
" clip-path="url(#p24b53e74c9)" style="fill: #696969"/>
   </g>
   <g id="patch_265">
    <path d="M 633.336168 86.579333 
L 637.631664 86.579333 
L 637.631664 86.579333 
L 633.336168 86.579333 
z
" clip-path="url(#p24b53e74c9)" style="fill: #696969"/>
   </g>
   <g id="patch_266">
    <path d="M 636.020853 86.579333 
L 640.31635 86.579333 
L 640.31635 81.472526 
L 636.020853 81.472526 
z
" clip-path="url(#p24b53e74c9)" style="fill: #696969"/>
   </g>
   <g id="patch_267">
    <path d="M 638.705538 86.579333 
L 643.001035 86.579333 
L 643.001035 86.579333 
L 638.705538 86.579333 
z
" clip-path="url(#p24b53e74c9)" style="fill: #696969"/>
   </g>
   <g id="patch_268">
    <path d="M 641.390224 86.579333 
L 645.68572 86.579333 
L 645.68572 86.579333 
L 641.390224 86.579333 
z
" clip-path="url(#p24b53e74c9)" style="fill: #696969"/>
   </g>
   <g id="patch_269">
    <path d="M 644.074909 86.579333 
L 648.370406 86.579333 
L 648.370406 77.38708 
L 644.074909 77.38708 
z
" clip-path="url(#p24b53e74c9)" style="fill: #696969"/>
   </g>
   <g id="patch_270">
    <path d="M 646.759594 86.579333 
L 651.055091 86.579333 
L 651.055091 86.579333 
L 646.759594 86.579333 
z
" clip-path="url(#p24b53e74c9)" style="fill: #696969"/>
   </g>
   <g id="patch_271">
    <path d="M 649.44428 86.579333 
L 653.739776 86.579333 
L 653.739776 83.719521 
L 649.44428 83.719521 
z
" clip-path="url(#p24b53e74c9)" style="fill: #696969"/>
   </g>
   <g id="patch_272">
    <path d="M 652.128965 86.579333 
L 656.424462 86.579333 
L 656.424462 86.579333 
L 652.128965 86.579333 
z
" clip-path="url(#p24b53e74c9)" style="fill: #696969"/>
   </g>
   <g id="patch_273">
    <path d="M 654.81365 86.579333 
L 659.109147 86.579333 
L 659.109147 86.579333 
L 654.81365 86.579333 
z
" clip-path="url(#p24b53e74c9)" style="fill: #696969"/>
   </g>
   <g id="patch_274">
    <path d="M 657.498336 86.579333 
L 661.793832 86.579333 
L 661.793832 86.579333 
L 657.498336 86.579333 
z
" clip-path="url(#p24b53e74c9)" style="fill: #696969"/>
   </g>
   <g id="patch_275">
    <path d="M 660.183021 86.579333 
L 664.478517 86.579333 
L 664.478517 86.579333 
L 660.183021 86.579333 
z
" clip-path="url(#p24b53e74c9)" style="fill: #696969"/>
   </g>
   <g id="patch_276">
    <path d="M 662.867706 86.579333 
L 667.163203 86.579333 
L 667.163203 81.676798 
L 662.867706 81.676798 
z
" clip-path="url(#p24b53e74c9)" style="fill: #696969"/>
   </g>
   <g id="patch_277">
    <path d="M 665.552392 86.579333 
L 669.847888 86.579333 
L 669.847888 82.493887 
L 665.552392 82.493887 
z
" clip-path="url(#p24b53e74c9)" style="fill: #696969"/>
   </g>
   <g id="patch_278">
    <path d="M 668.237077 86.579333 
L 672.532573 86.579333 
L 672.532573 79.838347 
L 668.237077 79.838347 
z
" clip-path="url(#p24b53e74c9)" style="fill: #696969"/>
   </g>
   <g id="patch_279">
    <path d="M 670.921762 86.579333 
L 675.217259 86.579333 
L 675.217259 75.752901 
L 670.921762 75.752901 
z
" clip-path="url(#p24b53e74c9)" style="fill: #696969"/>
   </g>
   <g id="patch_280">
    <path d="M 673.606448 86.579333 
L 677.901944 86.579333 
L 677.901944 82.085343 
L 673.606448 82.085343 
z
" clip-path="url(#p24b53e74c9)" style="fill: #696969"/>
   </g>
   <g id="patch_281">
    <path d="M 676.291133 86.579333 
L 680.586629 86.579333 
L 680.586629 85.149427 
L 676.291133 85.149427 
z
" clip-path="url(#p24b53e74c9)" style="fill: #696969"/>
   </g>
   <g id="patch_282">
    <path d="M 678.975818 86.579333 
L 683.271315 86.579333 
L 683.271315 75.957174 
L 678.975818 75.957174 
z
" clip-path="url(#p24b53e74c9)" style="fill: #696969"/>
   </g>
   <g id="patch_283">
    <path d="M 681.660503 86.579333 
L 685.956 86.579333 
L 685.956 75.957174 
L 681.660503 75.957174 
z
" clip-path="url(#p24b53e74c9)" style="fill: #696969"/>
   </g>
   <g id="patch_284">
    <path d="M 684.345189 86.579333 
L 688.640685 86.579333 
L 688.640685 74.118723 
L 684.345189 74.118723 
z
" clip-path="url(#p24b53e74c9)" style="fill: #696969"/>
   </g>
   <g id="patch_285">
    <path d="M 687.029874 86.579333 
L 691.325371 86.579333 
L 691.325371 70.850366 
L 687.029874 70.850366 
z
" clip-path="url(#p24b53e74c9)" style="fill: #696969"/>
   </g>
   <g id="patch_286">
    <path d="M 689.714559 86.579333 
L 694.010056 86.579333 
L 694.010056 73.710178 
L 689.714559 73.710178 
z
" clip-path="url(#p24b53e74c9)" style="fill: #696969"/>
   </g>
   <g id="patch_287">
    <path d="M 692.399245 86.579333 
L 696.694741 86.579333 
L 696.694741 73.097362 
L 692.399245 73.097362 
z
" clip-path="url(#p24b53e74c9)" style="fill: #696969"/>
   </g>
   <g id="patch_288">
    <path d="M 695.08393 86.579333 
L 699.379427 86.579333 
L 699.379427 69.42046 
L 695.08393 69.42046 
z
" clip-path="url(#p24b53e74c9)" style="fill: #696969"/>
   </g>
   <g id="patch_289">
    <path d="M 697.768615 86.579333 
L 702.064112 86.579333 
L 702.064112 64.926469 
L 697.768615 64.926469 
z
" clip-path="url(#p24b53e74c9)" style="fill: #696969"/>
   </g>
   <g id="patch_290">
    <path d="M 700.453301 86.579333 
L 704.748797 86.579333 
L 704.748797 59.411117 
L 700.453301 59.411117 
z
" clip-path="url(#p24b53e74c9)" style="fill: #696969"/>
   </g>
   <g id="patch_291">
    <path d="M 703.137986 86.579333 
L 707.433483 86.579333 
L 707.433483 61.658113 
L 703.137986 61.658113 
z
" clip-path="url(#p24b53e74c9)" style="fill: #696969"/>
   </g>
   <g id="patch_292">
    <path d="M 705.822671 86.579333 
L 710.118168 86.579333 
L 710.118168 69.829005 
L 705.822671 69.829005 
z
" clip-path="url(#p24b53e74c9)" style="fill: #696969"/>
   </g>
   <g id="patch_293">
    <path d="M 708.507357 86.579333 
L 712.802853 86.579333 
L 712.802853 71.463183 
L 708.507357 71.463183 
z
" clip-path="url(#p24b53e74c9)" style="fill: #696969"/>
   </g>
   <g id="patch_294">
    <path d="M 711.192042 86.579333 
L 715.487538 86.579333 
L 715.487538 73.505906 
L 711.192042 73.505906 
z
" clip-path="url(#p24b53e74c9)" style="fill: #696969"/>
   </g>
   <g id="patch_295">
    <path d="M 713.876727 86.579333 
L 718.172224 86.579333 
L 718.172224 64.722197 
L 713.876727 64.722197 
z
" clip-path="url(#p24b53e74c9)" style="fill: #696969"/>
   </g>
   <g id="patch_296">
    <path d="M 716.561413 86.579333 
L 720.856909 86.579333 
L 720.856909 58.185484 
L 716.561413 58.185484 
z
" clip-path="url(#p24b53e74c9)" style="fill: #696969"/>
   </g>
   <g id="patch_297">
    <path d="M 719.246098 86.579333 
L 723.541594 86.579333 
L 723.541594 63.700836 
L 719.246098 63.700836 
z
" clip-path="url(#p24b53e74c9)" style="fill: #696969"/>
   </g>
   <g id="patch_298">
    <path d="M 721.930783 86.579333 
L 726.22628 86.579333 
L 726.22628 66.356376 
L 721.930783 66.356376 
z
" clip-path="url(#p24b53e74c9)" style="fill: #696969"/>
   </g>
   <g id="patch_299">
    <path d="M 724.615469 86.579333 
L 728.910965 86.579333 
L 728.910965 70.850366 
L 724.615469 70.850366 
z
" clip-path="url(#p24b53e74c9)" style="fill: #696969"/>
   </g>
   <g id="patch_300">
    <path d="M 727.300154 86.579333 
L 731.59565 86.579333 
L 731.59565 68.399099 
L 727.300154 68.399099 
z
" clip-path="url(#p24b53e74c9)" style="fill: #696969"/>
   </g>
   <g id="patch_301">
    <path d="M 729.984839 86.579333 
L 734.280336 86.579333 
L 734.280336 69.011915 
L 729.984839 69.011915 
z
" clip-path="url(#p24b53e74c9)" style="fill: #696969"/>
   </g>
   <g id="patch_302">
    <path d="M 732.669524 86.579333 
L 736.965021 86.579333 
L 736.965021 74.322995 
L 732.669524 74.322995 
z
" clip-path="url(#p24b53e74c9)" style="fill: #696969"/>
   </g>
   <g id="patch_303">
    <path d="M 735.35421 86.579333 
L 739.649706 86.579333 
L 739.649706 70.441822 
L 735.35421 70.441822 
z
" clip-path="url(#p24b53e74c9)" style="fill: #696969"/>
   </g>
   <g id="patch_304">
    <path d="M 738.038895 86.579333 
L 742.334392 86.579333 
L 742.334392 70.646094 
L 738.038895 70.646094 
z
" clip-path="url(#p24b53e74c9)" style="fill: #696969"/>
   </g>
   <g id="patch_305">
    <path d="M 740.72358 86.579333 
L 745.019077 86.579333 
L 745.019077 77.999897 
L 740.72358 77.999897 
z
" clip-path="url(#p24b53e74c9)" style="fill: #696969"/>
   </g>
   <g id="patch_306">
    <path d="M 743.408266 86.579333 
L 747.703762 86.579333 
L 747.703762 79.838347 
L 743.408266 79.838347 
z
" clip-path="url(#p24b53e74c9)" style="fill: #696969"/>
   </g>
   <g id="patch_307">
    <path d="M 746.092951 86.579333 
L 750.388448 86.579333 
L 750.388448 70.850366 
L 746.092951 70.850366 
z
" clip-path="url(#p24b53e74c9)" style="fill: #696969"/>
   </g>
   <g id="patch_308">
    <path d="M 748.777636 86.579333 
L 753.073133 86.579333 
L 753.073133 77.591352 
L 748.777636 77.591352 
z
" clip-path="url(#p24b53e74c9)" style="fill: #696969"/>
   </g>
   <g id="patch_309">
    <path d="M 751.462322 86.579333 
L 755.757818 86.579333 
L 755.757818 86.579333 
L 751.462322 86.579333 
z
" clip-path="url(#p24b53e74c9)" style="fill: #696969"/>
   </g>
   <g id="patch_310">
    <path d="M 754.147007 86.579333 
L 758.442503 86.579333 
L 758.442503 86.170789 
L 754.147007 86.170789 
z
" clip-path="url(#p24b53e74c9)" style="fill: #696969"/>
   </g>
   <g id="patch_311">
    <path d="M 756.831692 86.579333 
L 761.127189 86.579333 
L 761.127189 86.579333 
L 756.831692 86.579333 
z
" clip-path="url(#p24b53e74c9)" style="fill: #696969"/>
   </g>
   <g id="patch_312">
    <path d="M 759.516378 86.579333 
L 763.811874 86.579333 
L 763.811874 86.579333 
L 759.516378 86.579333 
z
" clip-path="url(#p24b53e74c9)" style="fill: #696969"/>
   </g>
   <g id="patch_313">
    <path d="M 762.201063 86.579333 
L 766.496559 86.579333 
L 766.496559 81.063981 
L 762.201063 81.063981 
z
" clip-path="url(#p24b53e74c9)" style="fill: #696969"/>
   </g>
   <g id="patch_314">
    <path d="M 764.885748 86.579333 
L 769.181245 86.579333 
L 769.181245 86.579333 
L 764.885748 86.579333 
z
" clip-path="url(#p24b53e74c9)" style="fill: #696969"/>
   </g>
   <g id="patch_315">
    <path d="M 767.570434 86.579333 
L 771.86593 86.579333 
L 771.86593 86.375061 
L 767.570434 86.375061 
z
" clip-path="url(#p24b53e74c9)" style="fill: #696969"/>
   </g>
   <g id="patch_316">
    <path d="M 770.255119 86.579333 
L 774.550615 86.579333 
L 774.550615 86.579333 
L 770.255119 86.579333 
z
" clip-path="url(#p24b53e74c9)" style="fill: #696969"/>
   </g>
   <g id="patch_317">
    <path d="M 772.939804 86.579333 
L 777.235301 86.579333 
L 777.235301 86.579333 
L 772.939804 86.579333 
z
" clip-path="url(#p24b53e74c9)" style="fill: #696969"/>
   </g>
   <g id="patch_318">
    <path d="M 775.62449 86.579333 
L 779.919986 86.579333 
L 779.919986 86.579333 
L 775.62449 86.579333 
z
" clip-path="url(#p24b53e74c9)" style="fill: #696969"/>
   </g>
   <g id="patch_319">
    <path d="M 778.309175 86.579333 
L 782.604671 86.579333 
L 782.604671 86.579333 
L 778.309175 86.579333 
z
" clip-path="url(#p24b53e74c9)" style="fill: #696969"/>
   </g>
   <g id="patch_320">
    <path d="M 780.99386 86.579333 
L 785.289357 86.579333 
L 785.289357 86.579333 
L 780.99386 86.579333 
z
" clip-path="url(#p24b53e74c9)" style="fill: #696969"/>
   </g>
   <g id="patch_321">
    <path d="M 783.678545 86.579333 
L 787.974042 86.579333 
L 787.974042 84.53661 
L 783.678545 84.53661 
z
" clip-path="url(#p24b53e74c9)" style="fill: #696969"/>
   </g>
   <g id="patch_322">
    <path d="M 786.363231 86.579333 
L 790.658727 86.579333 
L 790.658727 86.375061 
L 786.363231 86.375061 
z
" clip-path="url(#p24b53e74c9)" style="fill: #696969"/>
   </g>
   <g id="patch_323">
    <path d="M 789.047916 86.579333 
L 793.343413 86.579333 
L 793.343413 83.515249 
L 789.047916 83.515249 
z
" clip-path="url(#p24b53e74c9)" style="fill: #696969"/>
   </g>
   <g id="patch_324">
    <path d="M 791.732601 86.579333 
L 796.028098 86.579333 
L 796.028098 80.246892 
L 791.732601 80.246892 
z
" clip-path="url(#p24b53e74c9)" style="fill: #696969"/>
   </g>
   <g id="patch_325">
    <path d="M 794.417287 86.579333 
L 798.712783 86.579333 
L 798.712783 81.88107 
L 794.417287 81.88107 
z
" clip-path="url(#p24b53e74c9)" style="fill: #696969"/>
   </g>
   <g id="patch_326">
    <path d="M 797.101972 86.579333 
L 801.397469 86.579333 
L 801.397469 79.225531 
L 797.101972 79.225531 
z
" clip-path="url(#p24b53e74c9)" style="fill: #696969"/>
   </g>
   <g id="patch_327">
    <path d="M 799.786657 86.579333 
L 804.082154 86.579333 
L 804.082154 79.225531 
L 799.786657 79.225531 
z
" clip-path="url(#p24b53e74c9)" style="fill: #696969"/>
   </g>
   <g id="patch_328">
    <path d="M 802.471343 86.579333 
L 806.766839 86.579333 
L 806.766839 83.106704 
L 802.471343 83.106704 
z
" clip-path="url(#p24b53e74c9)" style="fill: #696969"/>
   </g>
   <g id="patch_329">
    <path d="M 805.156028 86.579333 
L 809.451524 86.579333 
L 809.451524 77.795624 
L 805.156028 77.795624 
z
" clip-path="url(#p24b53e74c9)" style="fill: #696969"/>
   </g>
   <g id="patch_330">
    <path d="M 807.840713 86.579333 
L 812.13621 86.579333 
L 812.13621 75.957174 
L 807.840713 75.957174 
z
" clip-path="url(#p24b53e74c9)" style="fill: #696969"/>
   </g>
   <g id="patch_331">
    <path d="M 810.525399 86.579333 
L 814.820895 86.579333 
L 814.820895 71.667455 
L 810.525399 71.667455 
z
" clip-path="url(#p24b53e74c9)" style="fill: #696969"/>
   </g>
   <g id="patch_332">
    <path d="M 813.210084 86.579333 
L 817.50558 86.579333 
L 817.50558 69.011915 
L 813.210084 69.011915 
z
" clip-path="url(#p24b53e74c9)" style="fill: #696969"/>
   </g>
   <g id="patch_333">
    <path d="M 815.894769 86.579333 
L 820.190266 86.579333 
L 820.190266 74.73154 
L 815.894769 74.73154 
z
" clip-path="url(#p24b53e74c9)" style="fill: #696969"/>
   </g>
   <g id="patch_334">
    <path d="M 818.579455 86.579333 
L 822.874951 86.579333 
L 822.874951 72.280272 
L 818.579455 72.280272 
z
" clip-path="url(#p24b53e74c9)" style="fill: #696969"/>
   </g>
   <g id="patch_335">
    <path d="M 821.26414 86.579333 
L 825.559636 86.579333 
L 825.559636 84.332338 
L 821.26414 84.332338 
z
" clip-path="url(#p24b53e74c9)" style="fill: #696969"/>
   </g>
   <g id="patch_336">
    <path d="M 823.948825 86.579333 
L 828.244322 86.579333 
L 828.244322 64.10938 
L 823.948825 64.10938 
z
" clip-path="url(#p24b53e74c9)" style="fill: #696969"/>
   </g>
   <g id="patch_337">
    <path d="M 826.63351 86.579333 
L 830.929007 86.579333 
L 830.929007 65.130742 
L 826.63351 65.130742 
z
" clip-path="url(#p24b53e74c9)" style="fill: #696969"/>
   </g>
   <g id="patch_338">
    <path d="M 829.318196 86.579333 
L 833.613692 86.579333 
L 833.613692 63.905108 
L 829.318196 63.905108 
z
" clip-path="url(#p24b53e74c9)" style="fill: #696969"/>
   </g>
   <g id="patch_339">
    <path d="M 832.002881 86.579333 
L 836.298378 86.579333 
L 836.298378 63.088019 
L 832.002881 63.088019 
z
" clip-path="url(#p24b53e74c9)" style="fill: #696969"/>
   </g>
   <g id="patch_340">
    <path d="M 834.687566 86.579333 
L 838.983063 86.579333 
L 838.983063 57.572667 
L 834.687566 57.572667 
z
" clip-path="url(#p24b53e74c9)" style="fill: #696969"/>
   </g>
   <g id="patch_341">
    <path d="M 837.372252 86.579333 
L 841.667748 86.579333 
L 841.667748 60.841023 
L 837.372252 60.841023 
z
" clip-path="url(#p24b53e74c9)" style="fill: #696969"/>
   </g>
   <g id="matplotlib.axis_3">
    <g id="xtick_6">
     <g id="line2d_10">
      <g>
       <use xlink:href="#mb138fba858" x="477.087483" y="89.48" style="stroke: #000000; stroke-width: 0.8"/>
      </g>
     </g>
     <g id="text_10">
      <!-- 100 -->
      <g transform="translate(467.543733 104.078438) scale(0.1 -0.1)">
       <use xlink:href="#DejaVuSans-31"/>
       <use xlink:href="#DejaVuSans-30" x="63.623047"/>
       <use xlink:href="#DejaVuSans-30" x="127.246094"/>
      </g>
     </g>
    </g>
    <g id="xtick_7">
     <g id="line2d_11">
      <g>
       <use xlink:href="#mb138fba858" x="530.781189" y="89.48" style="stroke: #000000; stroke-width: 0.8"/>
      </g>
     </g>
     <g id="text_11">
      <!-- 110 -->
      <g transform="translate(521.237439 104.078438) scale(0.1 -0.1)">
       <use xlink:href="#DejaVuSans-31"/>
       <use xlink:href="#DejaVuSans-31" x="63.623047"/>
       <use xlink:href="#DejaVuSans-30" x="127.246094"/>
      </g>
     </g>
    </g>
    <g id="xtick_8">
     <g id="line2d_12">
      <g>
       <use xlink:href="#mb138fba858" x="584.474895" y="89.48" style="stroke: #000000; stroke-width: 0.8"/>
      </g>
     </g>
     <g id="text_12">
      <!-- 120 -->
      <g transform="translate(574.931145 104.078438) scale(0.1 -0.1)">
       <use xlink:href="#DejaVuSans-31"/>
       <use xlink:href="#DejaVuSans-32" x="63.623047"/>
       <use xlink:href="#DejaVuSans-30" x="127.246094"/>
      </g>
     </g>
    </g>
    <g id="xtick_9">
     <g id="line2d_13">
      <g>
       <use xlink:href="#mb138fba858" x="638.168601" y="89.48" style="stroke: #000000; stroke-width: 0.8"/>
      </g>
     </g>
     <g id="text_13">
      <!-- 130 -->
      <g transform="translate(628.624851 104.078438) scale(0.1 -0.1)">
       <defs>
        <path id="DejaVuSans-33" d="M 2597 2516 
Q 3050 2419 3304 2112 
Q 3559 1806 3559 1356 
Q 3559 666 3084 287 
Q 2609 -91 1734 -91 
Q 1441 -91 1130 -33 
Q 819 25 488 141 
L 488 750 
Q 750 597 1062 519 
Q 1375 441 1716 441 
Q 2309 441 2620 675 
Q 2931 909 2931 1356 
Q 2931 1769 2642 2001 
Q 2353 2234 1838 2234 
L 1294 2234 
L 1294 2753 
L 1863 2753 
Q 2328 2753 2575 2939 
Q 2822 3125 2822 3475 
Q 2822 3834 2567 4026 
Q 2313 4219 1838 4219 
Q 1578 4219 1281 4162 
Q 984 4106 628 3988 
L 628 4550 
Q 988 4650 1302 4700 
Q 1616 4750 1894 4750 
Q 2613 4750 3031 4423 
Q 3450 4097 3450 3541 
Q 3450 3153 3228 2886 
Q 3006 2619 2597 2516 
z
" transform="scale(0.015625)"/>
       </defs>
       <use xlink:href="#DejaVuSans-31"/>
       <use xlink:href="#DejaVuSans-33" x="63.623047"/>
       <use xlink:href="#DejaVuSans-30" x="127.246094"/>
      </g>
     </g>
    </g>
    <g id="xtick_10">
     <g id="line2d_14">
      <g>
       <use xlink:href="#mb138fba858" x="691.862308" y="89.48" style="stroke: #000000; stroke-width: 0.8"/>
      </g>
     </g>
     <g id="text_14">
      <!-- 140 -->
      <g transform="translate(682.318558 104.078438) scale(0.1 -0.1)">
       <use xlink:href="#DejaVuSans-31"/>
       <use xlink:href="#DejaVuSans-34" x="63.623047"/>
       <use xlink:href="#DejaVuSans-30" x="127.246094"/>
      </g>
     </g>
    </g>
    <g id="xtick_11">
     <g id="line2d_15">
      <g>
       <use xlink:href="#mb138fba858" x="745.556014" y="89.48" style="stroke: #000000; stroke-width: 0.8"/>
      </g>
     </g>
     <g id="text_15">
      <!-- 150 -->
      <g transform="translate(736.012264 104.078438) scale(0.1 -0.1)">
       <use xlink:href="#DejaVuSans-31"/>
       <use xlink:href="#DejaVuSans-35" x="63.623047"/>
       <use xlink:href="#DejaVuSans-30" x="127.246094"/>
      </g>
     </g>
    </g>
    <g id="xtick_12">
     <g id="line2d_16">
      <g>
       <use xlink:href="#mb138fba858" x="799.24972" y="89.48" style="stroke: #000000; stroke-width: 0.8"/>
      </g>
     </g>
     <g id="text_16">
      <!-- 160 -->
      <g transform="translate(789.70597 104.078438) scale(0.1 -0.1)">
       <use xlink:href="#DejaVuSans-31"/>
       <use xlink:href="#DejaVuSans-36" x="63.623047"/>
       <use xlink:href="#DejaVuSans-30" x="127.246094"/>
      </g>
     </g>
    </g>
   </g>
   <g id="matplotlib.axis_4">
    <g id="ytick_3">
     <g id="line2d_17">
      <g>
       <use xlink:href="#m1f220d6e2a" x="455.61" y="86.579333" style="stroke: #000000; stroke-width: 0.8"/>
      </g>
     </g>
    </g>
    <g id="ytick_4">
     <g id="line2d_18">
      <g>
       <use xlink:href="#m1f220d6e2a" x="455.61" y="66.152103" style="stroke: #000000; stroke-width: 0.8"/>
      </g>
     </g>
    </g>
   </g>
   <g id="line2d_19">
    <path d="M 455.61 65.881764 
L 458.294685 65.78555 
L 460.979371 65.866532 
L 463.664056 66.123296 
L 466.348741 66.551355 
L 469.033427 67.14323 
L 471.718112 67.888581 
L 474.402797 68.774384 
L 479.772168 70.903259 
L 485.141538 73.381721 
L 498.564965 79.948409 
L 503.934336 82.243101 
L 506.619021 83.23455 
L 509.303706 84.09833 
L 511.988392 84.819348 
L 514.673077 85.385006 
L 517.357762 85.785422 
L 520.042448 86.013599 
L 522.727133 86.065551 
L 525.411818 85.940369 
L 528.096503 85.640243 
L 530.781189 85.170414 
L 533.465874 84.539092 
L 536.150559 83.757307 
L 538.835245 82.838719 
L 544.204615 80.657438 
L 549.573986 78.14703 
L 562.997413 71.600679 
L 568.366783 69.352715 
L 571.051469 68.391642 
L 573.736154 67.562231 
L 576.420839 66.878975 
L 579.105524 66.353811 
L 581.79021 65.995915 
L 584.474895 65.81154 
L 587.15958 65.803907 
L 589.844266 65.97315 
L 592.528951 66.316312 
L 595.213636 66.827396 
L 597.898322 67.497475 
L 600.583007 68.314839 
L 605.952378 70.331977 
L 611.321748 72.738456 
L 630.114545 81.704834 
L 635.483916 83.683398 
L 638.168601 84.477533 
L 640.853287 85.12228 
L 643.537972 85.606376 
L 646.222657 85.921361 
L 648.907343 86.061732 
L 651.592028 86.025037 
L 654.276713 85.811917 
L 656.961399 85.426096 
L 659.646084 84.874314 
L 662.330769 84.166213 
L 665.015455 83.314163 
L 670.384825 81.240023 
L 675.754196 78.796216 
L 691.862308 71.003905 
L 697.231678 68.856719 
L 699.916364 67.959516 
L 702.601049 67.201525 
L 705.285734 66.595991 
L 707.97042 66.153494 
L 710.655105 65.881764 
L 713.33979 65.78555 
L 716.024476 65.866532 
L 718.709161 66.123296 
L 721.393846 66.551355 
L 724.078531 67.14323 
L 726.763217 67.888581 
L 729.447902 68.774384 
L 734.817273 70.903259 
L 740.186643 73.381721 
L 753.61007 79.948409 
L 758.979441 82.243101 
L 761.664126 83.23455 
L 764.348811 84.09833 
L 767.033497 84.819348 
L 769.718182 85.385006 
L 772.402867 85.785422 
L 775.087552 86.013599 
L 777.772238 86.065551 
L 780.456923 85.940369 
L 783.141608 85.640243 
L 785.826294 85.170414 
L 788.510979 84.539092 
L 791.195664 83.757307 
L 793.88035 82.838719 
L 799.24972 80.657438 
L 804.619091 78.14703 
L 818.042517 71.600679 
L 823.411888 69.352715 
L 826.096573 68.391642 
L 828.781259 67.562231 
L 831.465944 66.878975 
L 834.150629 66.353811 
L 836.835315 65.995915 
L 839.52 65.81154 
L 839.52 65.81154 
" clip-path="url(#p24b53e74c9)" style="fill: none; stroke: #191970; stroke-width: 3; stroke-linecap: square"/>
   </g>
   <g id="line2d_20">
    <path clip-path="url(#p24b53e74c9)" style="fill: none; stroke-dasharray: 7.4,3.2; stroke-dashoffset: 0; stroke: #000000; stroke-opacity: 0.8; stroke-width: 2"/>
   </g>
   <g id="patch_342">
    <path d="M 455.61 89.48 
L 455.61 54.672 
" style="fill: none; stroke: #000000; stroke-width: 0.8; stroke-linejoin: miter; stroke-linecap: square"/>
   </g>
   <g id="patch_343">
    <path d="M 455.61 89.48 
L 839.52 89.48 
" style="fill: none; stroke: #000000; stroke-width: 0.8; stroke-linejoin: miter; stroke-linecap: square"/>
   </g>
   <g id="text_17">
    <!-- 2 -->
    <g transform="translate(645.02 39.71375) scale(0.08 -0.08)">
     <use xlink:href="#DejaVuSans-32"/>
    </g>
    <!-- (AC: 1.52, PR: 23.75) -->
    <g transform="translate(605.780625 48.672) scale(0.08 -0.08)">
     <defs>
      <path id="DejaVuSans-37" d="M 525 4666 
L 3525 4666 
L 3525 4397 
L 1831 0 
L 1172 0 
L 2766 4134 
L 525 4134 
L 525 4666 
z
" transform="scale(0.015625)"/>
     </defs>
     <use xlink:href="#DejaVuSans-28"/>
     <use xlink:href="#DejaVuSans-41" x="39.013672"/>
     <use xlink:href="#DejaVuSans-43" x="105.671875"/>
     <use xlink:href="#DejaVuSans-3a" x="175.496094"/>
     <use xlink:href="#DejaVuSans-20" x="209.1875"/>
     <use xlink:href="#DejaVuSans-31" x="240.974609"/>
     <use xlink:href="#DejaVuSans-2e" x="304.597656"/>
     <use xlink:href="#DejaVuSans-35" x="336.384766"/>
     <use xlink:href="#DejaVuSans-32" x="400.007812"/>
     <use xlink:href="#DejaVuSans-2c" x="463.630859"/>
     <use xlink:href="#DejaVuSans-20" x="495.417969"/>
     <use xlink:href="#DejaVuSans-50" x="527.205078"/>
     <use xlink:href="#DejaVuSans-52" x="587.507812"/>
     <use xlink:href="#DejaVuSans-3a" x="653.865234"/>
     <use xlink:href="#DejaVuSans-20" x="687.556641"/>
     <use xlink:href="#DejaVuSans-32" x="719.34375"/>
     <use xlink:href="#DejaVuSans-33" x="782.966797"/>
     <use xlink:href="#DejaVuSans-2e" x="846.589844"/>
     <use xlink:href="#DejaVuSans-37" x="878.376953"/>
     <use xlink:href="#DejaVuSans-35" x="942"/>
     <use xlink:href="#DejaVuSans-29" x="1005.623047"/>
    </g>
   </g>
  </g>
  <g id="text_18">
   <!-- COSINOR MODEL - 0 SINE 10 -->
   <g transform="translate(338.622187 11.940525) scale(0.12 -0.12)">
    <defs>
     <path id="DejaVuSans-4f" d="M 2522 4238 
Q 1834 4238 1429 3725 
Q 1025 3213 1025 2328 
Q 1025 1447 1429 934 
Q 1834 422 2522 422 
Q 3209 422 3611 934 
Q 4013 1447 4013 2328 
Q 4013 3213 3611 3725 
Q 3209 4238 2522 4238 
z
M 2522 4750 
Q 3503 4750 4090 4092 
Q 4678 3434 4678 2328 
Q 4678 1225 4090 567 
Q 3503 -91 2522 -91 
Q 1538 -91 948 565 
Q 359 1222 359 2328 
Q 359 3434 948 4092 
Q 1538 4750 2522 4750 
z
" transform="scale(0.015625)"/>
     <path id="DejaVuSans-53" d="M 3425 4513 
L 3425 3897 
Q 3066 4069 2747 4153 
Q 2428 4238 2131 4238 
Q 1616 4238 1336 4038 
Q 1056 3838 1056 3469 
Q 1056 3159 1242 3001 
Q 1428 2844 1947 2747 
L 2328 2669 
Q 3034 2534 3370 2195 
Q 3706 1856 3706 1288 
Q 3706 609 3251 259 
Q 2797 -91 1919 -91 
Q 1588 -91 1214 -16 
Q 841 59 441 206 
L 441 856 
Q 825 641 1194 531 
Q 1563 422 1919 422 
Q 2459 422 2753 634 
Q 3047 847 3047 1241 
Q 3047 1584 2836 1778 
Q 2625 1972 2144 2069 
L 1759 2144 
Q 1053 2284 737 2584 
Q 422 2884 422 3419 
Q 422 4038 858 4394 
Q 1294 4750 2059 4750 
Q 2388 4750 2728 4690 
Q 3069 4631 3425 4513 
z
" transform="scale(0.015625)"/>
     <path id="DejaVuSans-49" d="M 628 4666 
L 1259 4666 
L 1259 0 
L 628 0 
L 628 4666 
z
" transform="scale(0.015625)"/>
     <path id="DejaVuSans-4e" d="M 628 4666 
L 1478 4666 
L 3547 763 
L 3547 4666 
L 4159 4666 
L 4159 0 
L 3309 0 
L 1241 3903 
L 1241 0 
L 628 0 
L 628 4666 
z
" transform="scale(0.015625)"/>
     <path id="DejaVuSans-4d" d="M 628 4666 
L 1569 4666 
L 2759 1491 
L 3956 4666 
L 4897 4666 
L 4897 0 
L 4281 0 
L 4281 4097 
L 3078 897 
L 2444 897 
L 1241 4097 
L 1241 0 
L 628 0 
L 628 4666 
z
" transform="scale(0.015625)"/>
     <path id="DejaVuSans-44" d="M 1259 4147 
L 1259 519 
L 2022 519 
Q 2988 519 3436 956 
Q 3884 1394 3884 2338 
Q 3884 3275 3436 3711 
Q 2988 4147 2022 4147 
L 1259 4147 
z
M 628 4666 
L 1925 4666 
Q 3281 4666 3915 4102 
Q 4550 3538 4550 2338 
Q 4550 1131 3912 565 
Q 3275 0 1925 0 
L 628 0 
L 628 4666 
z
" transform="scale(0.015625)"/>
     <path id="DejaVuSans-45" d="M 628 4666 
L 3578 4666 
L 3578 4134 
L 1259 4134 
L 1259 2753 
L 3481 2753 
L 3481 2222 
L 1259 2222 
L 1259 531 
L 3634 531 
L 3634 0 
L 628 0 
L 628 4666 
z
" transform="scale(0.015625)"/>
     <path id="DejaVuSans-4c" d="M 628 4666 
L 1259 4666 
L 1259 531 
L 3531 531 
L 3531 0 
L 628 0 
L 628 4666 
z
" transform="scale(0.015625)"/>
     <path id="DejaVuSans-2d" d="M 313 2009 
L 1997 2009 
L 1997 1497 
L 313 1497 
L 313 2009 
z
" transform="scale(0.015625)"/>
    </defs>
    <use xlink:href="#DejaVuSans-43"/>
    <use xlink:href="#DejaVuSans-4f" x="69.824219"/>
    <use xlink:href="#DejaVuSans-53" x="148.535156"/>
    <use xlink:href="#DejaVuSans-49" x="212.011719"/>
    <use xlink:href="#DejaVuSans-4e" x="241.503906"/>
    <use xlink:href="#DejaVuSans-4f" x="316.308594"/>
    <use xlink:href="#DejaVuSans-52" x="395.019531"/>
    <use xlink:href="#DejaVuSans-20" x="464.501953"/>
    <use xlink:href="#DejaVuSans-4d" x="496.289062"/>
    <use xlink:href="#DejaVuSans-4f" x="582.568359"/>
    <use xlink:href="#DejaVuSans-44" x="661.279297"/>
    <use xlink:href="#DejaVuSans-45" x="738.28125"/>
    <use xlink:href="#DejaVuSans-4c" x="801.464844"/>
    <use xlink:href="#DejaVuSans-20" x="857.177734"/>
    <use xlink:href="#DejaVuSans-2d" x="888.964844"/>
    <use xlink:href="#DejaVuSans-20" x="925.048828"/>
    <use xlink:href="#DejaVuSans-30" x="956.835938"/>
    <use xlink:href="#DejaVuSans-20" x="1020.458984"/>
    <use xlink:href="#DejaVuSans-53" x="1052.246094"/>
    <use xlink:href="#DejaVuSans-49" x="1115.722656"/>
    <use xlink:href="#DejaVuSans-4e" x="1145.214844"/>
    <use xlink:href="#DejaVuSans-45" x="1220.019531"/>
    <use xlink:href="#DejaVuSans-20" x="1283.203125"/>
    <use xlink:href="#DejaVuSans-31" x="1314.990234"/>
    <use xlink:href="#DejaVuSans-30" x="1378.613281"/>
   </g>
  </g>
  <g id="text_19">
   <!-- TIME (HOURS FROM START OF PROTOCOL) -->
   <g transform="translate(297.576563 137.213175) scale(0.12 -0.12)">
    <defs>
     <path id="DejaVuSans-54" d="M -19 4666 
L 3928 4666 
L 3928 4134 
L 2272 4134 
L 2272 0 
L 1638 0 
L 1638 4134 
L -19 4134 
L -19 4666 
z
" transform="scale(0.015625)"/>
     <path id="DejaVuSans-48" d="M 628 4666 
L 1259 4666 
L 1259 2753 
L 3553 2753 
L 3553 4666 
L 4184 4666 
L 4184 0 
L 3553 0 
L 3553 2222 
L 1259 2222 
L 1259 0 
L 628 0 
L 628 4666 
z
" transform="scale(0.015625)"/>
     <path id="DejaVuSans-55" d="M 556 4666 
L 1191 4666 
L 1191 1831 
Q 1191 1081 1462 751 
Q 1734 422 2344 422 
Q 2950 422 3222 751 
Q 3494 1081 3494 1831 
L 3494 4666 
L 4128 4666 
L 4128 1753 
Q 4128 841 3676 375 
Q 3225 -91 2344 -91 
Q 1459 -91 1007 375 
Q 556 841 556 1753 
L 556 4666 
z
" transform="scale(0.015625)"/>
     <path id="DejaVuSans-46" d="M 628 4666 
L 3309 4666 
L 3309 4134 
L 1259 4134 
L 1259 2759 
L 3109 2759 
L 3109 2228 
L 1259 2228 
L 1259 0 
L 628 0 
L 628 4666 
z
" transform="scale(0.015625)"/>
    </defs>
    <use xlink:href="#DejaVuSans-54"/>
    <use xlink:href="#DejaVuSans-49" x="61.083984"/>
    <use xlink:href="#DejaVuSans-4d" x="90.576172"/>
    <use xlink:href="#DejaVuSans-45" x="176.855469"/>
    <use xlink:href="#DejaVuSans-20" x="240.039062"/>
    <use xlink:href="#DejaVuSans-28" x="271.826172"/>
    <use xlink:href="#DejaVuSans-48" x="310.839844"/>
    <use xlink:href="#DejaVuSans-4f" x="386.035156"/>
    <use xlink:href="#DejaVuSans-55" x="464.746094"/>
    <use xlink:href="#DejaVuSans-52" x="537.939453"/>
    <use xlink:href="#DejaVuSans-53" x="607.421875"/>
    <use xlink:href="#DejaVuSans-20" x="670.898438"/>
    <use xlink:href="#DejaVuSans-46" x="702.685547"/>
    <use xlink:href="#DejaVuSans-52" x="760.205078"/>
    <use xlink:href="#DejaVuSans-4f" x="829.6875"/>
    <use xlink:href="#DejaVuSans-4d" x="908.398438"/>
    <use xlink:href="#DejaVuSans-20" x="994.677734"/>
    <use xlink:href="#DejaVuSans-53" x="1026.464844"/>
    <use xlink:href="#DejaVuSans-54" x="1089.941406"/>
    <use xlink:href="#DejaVuSans-41" x="1143.275391"/>
    <use xlink:href="#DejaVuSans-52" x="1211.683594"/>
    <use xlink:href="#DejaVuSans-54" x="1273.916016"/>
    <use xlink:href="#DejaVuSans-20" x="1335"/>
    <use xlink:href="#DejaVuSans-4f" x="1366.787109"/>
    <use xlink:href="#DejaVuSans-46" x="1445.498047"/>
    <use xlink:href="#DejaVuSans-20" x="1503.017578"/>
    <use xlink:href="#DejaVuSans-50" x="1534.804688"/>
    <use xlink:href="#DejaVuSans-52" x="1595.107422"/>
    <use xlink:href="#DejaVuSans-4f" x="1664.589844"/>
    <use xlink:href="#DejaVuSans-54" x="1743.300781"/>
    <use xlink:href="#DejaVuSans-4f" x="1804.384766"/>
    <use xlink:href="#DejaVuSans-43" x="1883.095703"/>
    <use xlink:href="#DejaVuSans-4f" x="1952.919922"/>
    <use xlink:href="#DejaVuSans-4c" x="2031.630859"/>
    <use xlink:href="#DejaVuSans-29" x="2087.34375"/>
   </g>
  </g>
  <g id="text_20">
   <!-- AMPLITUDE -->
   <g transform="translate(26.124525 105.039375) rotate(-90) scale(0.12 -0.12)">
    <use xlink:href="#DejaVuSans-41"/>
    <use xlink:href="#DejaVuSans-4d" x="68.408203"/>
    <use xlink:href="#DejaVuSans-50" x="154.6875"/>
    <use xlink:href="#DejaVuSans-4c" x="214.990234"/>
    <use xlink:href="#DejaVuSans-49" x="270.703125"/>
    <use xlink:href="#DejaVuSans-54" x="300.195312"/>
    <use xlink:href="#DejaVuSans-55" x="361.279297"/>
    <use xlink:href="#DejaVuSans-44" x="434.472656"/>
    <use xlink:href="#DejaVuSans-45" x="511.474609"/>
   </g>
  </g>
 </g>
 <defs>
  <clipPath id="pe43b972584">
   <rect x="57.4" y="54.672" width="383.91" height="34.808"/>
  </clipPath>
  <clipPath id="p24b53e74c9">
   <rect x="455.61" y="54.672" width="383.91" height="34.808"/>
  </clipPath>
 </defs>
</svg>
