<?xml version="1.0" encoding="utf-8" standalone="no"?>
<!DOCTYPE svg PUBLIC "-//W3C//DTD SVG 1.1//EN"
  "http://www.w3.org/Graphics/SVG/1.1/DTD/svg11.dtd">
<svg xmlns:xlink="http://www.w3.org/1999/xlink" width="504pt" height="504pt" viewBox="0 0 504 504" xmlns="http://www.w3.org/2000/svg" version="1.1">
 <metadata>
  <rdf:RDF xmlns:dc="http://purl.org/dc/elements/1.1/" xmlns:cc="http://creativecommons.org/ns#" xmlns:rdf="http://www.w3.org/1999/02/22-rdf-syntax-ns#">
   <cc:Work>
    <dc:type rdf:resource="http://purl.org/dc/dcmitype/StillImage"/>
    <dc:date>2023-08-03T16:32:40.167870</dc:date>
    <dc:format>image/svg+xml</dc:format>
    <dc:creator>
     <cc:Agent>
      <dc:title>Matplotlib v3.7.1, https://matplotlib.org/</dc:title>
     </cc:Agent>
    </dc:creator>
   </cc:Work>
  </rdf:RDF>
 </metadata>
 <defs>
  <style type="text/css">*{stroke-linejoin: round; stroke-linecap: butt}</style>
 </defs>
 <g id="figure_1">
  <g id="patch_1">
   <path d="M 0 504 
L 504 504 
L 504 0 
L 0 0 
z
" style="fill: #ffffff"/>
  </g>
  <g id="axes_1">
   <g id="patch_2">
    <path d="M 60.352 452.36 
L 269.626 452.36 
L 269.626 54.672 
L 60.352 54.672 
z
" style="fill: #ffffff"/>
   </g>
   <g id="matplotlib.axis_1">
    <g id="xtick_1">
     <g id="line2d_1">
      <defs>
       <path id="me186495901" d="M 0 0 
L 0 3.5 
" style="stroke: #000000; stroke-width: 0.8"/>
      </defs>
      <g>
       <use xlink:href="#me186495901" x="65.816602" y="452.36" style="stroke: #000000; stroke-width: 0.8"/>
      </g>
     </g>
     <g id="text_1">
      <!-- 0 -->
      <g transform="translate(62.635352 466.958438) scale(0.1 -0.1)">
       <defs>
        <path id="DejaVuSans-30" d="M 2034 4250 
Q 1547 4250 1301 3770 
Q 1056 3291 1056 2328 
Q 1056 1369 1301 889 
Q 1547 409 2034 409 
Q 2525 409 2770 889 
Q 3016 1369 3016 2328 
Q 3016 3291 2770 3770 
Q 2525 4250 2034 4250 
z
M 2034 4750 
Q 2819 4750 3233 4129 
Q 3647 3509 3647 2328 
Q 3647 1150 3233 529 
Q 2819 -91 2034 -91 
Q 1250 -91 836 529 
Q 422 1150 422 2328 
Q 422 3509 836 4129 
Q 1250 4750 2034 4750 
z
" transform="scale(0.015625)"/>
       </defs>
       <use xlink:href="#DejaVuSans-30"/>
      </g>
     </g>
    </g>
    <g id="xtick_2">
     <g id="line2d_2">
      <g>
       <use xlink:href="#me186495901" x="106.295132" y="452.36" style="stroke: #000000; stroke-width: 0.8"/>
      </g>
     </g>
     <g id="text_2">
      <!-- 10 -->
      <g transform="translate(99.932632 466.958438) scale(0.1 -0.1)">
       <defs>
        <path id="DejaVuSans-31" d="M 794 531 
L 1825 531 
L 1825 4091 
L 703 3866 
L 703 4441 
L 1819 4666 
L 2450 4666 
L 2450 531 
L 3481 531 
L 3481 0 
L 794 0 
L 794 531 
z
" transform="scale(0.015625)"/>
       </defs>
       <use xlink:href="#DejaVuSans-31"/>
       <use xlink:href="#DejaVuSans-30" x="63.623047"/>
      </g>
     </g>
    </g>
    <g id="xtick_3">
     <g id="line2d_3">
      <g>
       <use xlink:href="#me186495901" x="146.773662" y="452.36" style="stroke: #000000; stroke-width: 0.8"/>
      </g>
     </g>
     <g id="text_3">
      <!-- 20 -->
      <g transform="translate(140.411162 466.958438) scale(0.1 -0.1)">
       <defs>
        <path id="DejaVuSans-32" d="M 1228 531 
L 3431 531 
L 3431 0 
L 469 0 
L 469 531 
Q 828 903 1448 1529 
Q 2069 2156 2228 2338 
Q 2531 2678 2651 2914 
Q 2772 3150 2772 3378 
Q 2772 3750 2511 3984 
Q 2250 4219 1831 4219 
Q 1534 4219 1204 4116 
Q 875 4013 500 3803 
L 500 4441 
Q 881 4594 1212 4672 
Q 1544 4750 1819 4750 
Q 2544 4750 2975 4387 
Q 3406 4025 3406 3419 
Q 3406 3131 3298 2873 
Q 3191 2616 2906 2266 
Q 2828 2175 2409 1742 
Q 1991 1309 1228 531 
z
" transform="scale(0.015625)"/>
       </defs>
       <use xlink:href="#DejaVuSans-32"/>
       <use xlink:href="#DejaVuSans-30" x="63.623047"/>
      </g>
     </g>
    </g>
    <g id="xtick_4">
     <g id="line2d_4">
      <g>
       <use xlink:href="#me186495901" x="187.252191" y="452.36" style="stroke: #000000; stroke-width: 0.8"/>
      </g>
     </g>
     <g id="text_4">
      <!-- 30 -->
      <g transform="translate(180.889691 466.958438) scale(0.1 -0.1)">
       <defs>
        <path id="DejaVuSans-33" d="M 2597 2516 
Q 3050 2419 3304 2112 
Q 3559 1806 3559 1356 
Q 3559 666 3084 287 
Q 2609 -91 1734 -91 
Q 1441 -91 1130 -33 
Q 819 25 488 141 
L 488 750 
Q 750 597 1062 519 
Q 1375 441 1716 441 
Q 2309 441 2620 675 
Q 2931 909 2931 1356 
Q 2931 1769 2642 2001 
Q 2353 2234 1838 2234 
L 1294 2234 
L 1294 2753 
L 1863 2753 
Q 2328 2753 2575 2939 
Q 2822 3125 2822 3475 
Q 2822 3834 2567 4026 
Q 2313 4219 1838 4219 
Q 1578 4219 1281 4162 
Q 984 4106 628 3988 
L 628 4550 
Q 988 4650 1302 4700 
Q 1616 4750 1894 4750 
Q 2613 4750 3031 4423 
Q 3450 4097 3450 3541 
Q 3450 3153 3228 2886 
Q 3006 2619 2597 2516 
z
" transform="scale(0.015625)"/>
       </defs>
       <use xlink:href="#DejaVuSans-33"/>
       <use xlink:href="#DejaVuSans-30" x="63.623047"/>
      </g>
     </g>
    </g>
    <g id="xtick_5">
     <g id="line2d_5">
      <g>
       <use xlink:href="#me186495901" x="227.730721" y="452.36" style="stroke: #000000; stroke-width: 0.8"/>
      </g>
     </g>
     <g id="text_5">
      <!-- 40 -->
      <g transform="translate(221.368221 466.958438) scale(0.1 -0.1)">
       <defs>
        <path id="DejaVuSans-34" d="M 2419 4116 
L 825 1625 
L 2419 1625 
L 2419 4116 
z
M 2253 4666 
L 3047 4666 
L 3047 1625 
L 3713 1625 
L 3713 1100 
L 3047 1100 
L 3047 0 
L 2419 0 
L 2419 1100 
L 313 1100 
L 313 1709 
L 2253 4666 
z
" transform="scale(0.015625)"/>
       </defs>
       <use xlink:href="#DejaVuSans-34"/>
       <use xlink:href="#DejaVuSans-30" x="63.623047"/>
      </g>
     </g>
    </g>
    <g id="xtick_6">
     <g id="line2d_6">
      <g>
       <use xlink:href="#me186495901" x="268.209251" y="452.36" style="stroke: #000000; stroke-width: 0.8"/>
      </g>
     </g>
     <g id="text_6">
      <!-- 50 -->
      <g transform="translate(261.846751 466.958438) scale(0.1 -0.1)">
       <defs>
        <path id="DejaVuSans-35" d="M 691 4666 
L 3169 4666 
L 3169 4134 
L 1269 4134 
L 1269 2991 
Q 1406 3038 1543 3061 
Q 1681 3084 1819 3084 
Q 2600 3084 3056 2656 
Q 3513 2228 3513 1497 
Q 3513 744 3044 326 
Q 2575 -91 1722 -91 
Q 1428 -91 1123 -41 
Q 819 9 494 109 
L 494 744 
Q 775 591 1075 516 
Q 1375 441 1709 441 
Q 2250 441 2565 725 
Q 2881 1009 2881 1497 
Q 2881 1984 2565 2268 
Q 2250 2553 1709 2553 
Q 1456 2553 1204 2497 
Q 953 2441 691 2322 
L 691 4666 
z
" transform="scale(0.015625)"/>
       </defs>
       <use xlink:href="#DejaVuSans-35"/>
       <use xlink:href="#DejaVuSans-30" x="63.623047"/>
      </g>
     </g>
    </g>
   </g>
   <g id="matplotlib.axis_2">
    <g id="ytick_1">
     <g id="line2d_7">
      <defs>
       <path id="mb99c176dac" d="M 0 0 
L -3.5 0 
" style="stroke: #000000; stroke-width: 0.8"/>
      </defs>
      <g>
       <use xlink:href="#mb99c176dac" x="60.352" y="434.324467" style="stroke: #000000; stroke-width: 0.8"/>
      </g>
     </g>
     <g id="text_7">
      <!-- 0.0 -->
      <g transform="translate(37.448875 438.123686) scale(0.1 -0.1)">
       <defs>
        <path id="DejaVuSans-2e" d="M 684 794 
L 1344 794 
L 1344 0 
L 684 0 
L 684 794 
z
" transform="scale(0.015625)"/>
       </defs>
       <use xlink:href="#DejaVuSans-30"/>
       <use xlink:href="#DejaVuSans-2e" x="63.623047"/>
       <use xlink:href="#DejaVuSans-30" x="95.410156"/>
      </g>
     </g>
    </g>
    <g id="ytick_2">
     <g id="line2d_8">
      <g>
       <use xlink:href="#mb99c176dac" x="60.352" y="370.274469" style="stroke: #000000; stroke-width: 0.8"/>
      </g>
     </g>
     <g id="text_8">
      <!-- 0.2 -->
      <g transform="translate(37.448875 374.073688) scale(0.1 -0.1)">
       <use xlink:href="#DejaVuSans-30"/>
       <use xlink:href="#DejaVuSans-2e" x="63.623047"/>
       <use xlink:href="#DejaVuSans-32" x="95.410156"/>
      </g>
     </g>
    </g>
    <g id="ytick_3">
     <g id="line2d_9">
      <g>
       <use xlink:href="#mb99c176dac" x="60.352" y="306.224471" style="stroke: #000000; stroke-width: 0.8"/>
      </g>
     </g>
     <g id="text_9">
      <!-- 0.4 -->
      <g transform="translate(37.448875 310.02369) scale(0.1 -0.1)">
       <use xlink:href="#DejaVuSans-30"/>
       <use xlink:href="#DejaVuSans-2e" x="63.623047"/>
       <use xlink:href="#DejaVuSans-34" x="95.410156"/>
      </g>
     </g>
    </g>
    <g id="ytick_4">
     <g id="line2d_10">
      <g>
       <use xlink:href="#mb99c176dac" x="60.352" y="242.174473" style="stroke: #000000; stroke-width: 0.8"/>
      </g>
     </g>
     <g id="text_10">
      <!-- 0.6 -->
      <g transform="translate(37.448875 245.973692) scale(0.1 -0.1)">
       <defs>
        <path id="DejaVuSans-36" d="M 2113 2584 
Q 1688 2584 1439 2293 
Q 1191 2003 1191 1497 
Q 1191 994 1439 701 
Q 1688 409 2113 409 
Q 2538 409 2786 701 
Q 3034 994 3034 1497 
Q 3034 2003 2786 2293 
Q 2538 2584 2113 2584 
z
M 3366 4563 
L 3366 3988 
Q 3128 4100 2886 4159 
Q 2644 4219 2406 4219 
Q 1781 4219 1451 3797 
Q 1122 3375 1075 2522 
Q 1259 2794 1537 2939 
Q 1816 3084 2150 3084 
Q 2853 3084 3261 2657 
Q 3669 2231 3669 1497 
Q 3669 778 3244 343 
Q 2819 -91 2113 -91 
Q 1303 -91 875 529 
Q 447 1150 447 2328 
Q 447 3434 972 4092 
Q 1497 4750 2381 4750 
Q 2619 4750 2861 4703 
Q 3103 4656 3366 4563 
z
" transform="scale(0.015625)"/>
       </defs>
       <use xlink:href="#DejaVuSans-30"/>
       <use xlink:href="#DejaVuSans-2e" x="63.623047"/>
       <use xlink:href="#DejaVuSans-36" x="95.410156"/>
      </g>
     </g>
    </g>
    <g id="ytick_5">
     <g id="line2d_11">
      <g>
       <use xlink:href="#mb99c176dac" x="60.352" y="178.124475" style="stroke: #000000; stroke-width: 0.8"/>
      </g>
     </g>
     <g id="text_11">
      <!-- 0.8 -->
      <g transform="translate(37.448875 181.923694) scale(0.1 -0.1)">
       <defs>
        <path id="DejaVuSans-38" d="M 2034 2216 
Q 1584 2216 1326 1975 
Q 1069 1734 1069 1313 
Q 1069 891 1326 650 
Q 1584 409 2034 409 
Q 2484 409 2743 651 
Q 3003 894 3003 1313 
Q 3003 1734 2745 1975 
Q 2488 2216 2034 2216 
z
M 1403 2484 
Q 997 2584 770 2862 
Q 544 3141 544 3541 
Q 544 4100 942 4425 
Q 1341 4750 2034 4750 
Q 2731 4750 3128 4425 
Q 3525 4100 3525 3541 
Q 3525 3141 3298 2862 
Q 3072 2584 2669 2484 
Q 3125 2378 3379 2068 
Q 3634 1759 3634 1313 
Q 3634 634 3220 271 
Q 2806 -91 2034 -91 
Q 1263 -91 848 271 
Q 434 634 434 1313 
Q 434 1759 690 2068 
Q 947 2378 1403 2484 
z
M 1172 3481 
Q 1172 3119 1398 2916 
Q 1625 2713 2034 2713 
Q 2441 2713 2670 2916 
Q 2900 3119 2900 3481 
Q 2900 3844 2670 4047 
Q 2441 4250 2034 4250 
Q 1625 4250 1398 4047 
Q 1172 3844 1172 3481 
z
" transform="scale(0.015625)"/>
       </defs>
       <use xlink:href="#DejaVuSans-30"/>
       <use xlink:href="#DejaVuSans-2e" x="63.623047"/>
       <use xlink:href="#DejaVuSans-38" x="95.410156"/>
      </g>
     </g>
    </g>
    <g id="ytick_6">
     <g id="line2d_12">
      <g>
       <use xlink:href="#mb99c176dac" x="60.352" y="114.074477" style="stroke: #000000; stroke-width: 0.8"/>
      </g>
     </g>
     <g id="text_12">
      <!-- 1.0 -->
      <g transform="translate(37.448875 117.873696) scale(0.1 -0.1)">
       <use xlink:href="#DejaVuSans-31"/>
       <use xlink:href="#DejaVuSans-2e" x="63.623047"/>
       <use xlink:href="#DejaVuSans-30" x="95.410156"/>
      </g>
     </g>
    </g>
    <g id="text_13">
     <!-- 1e5 -->
     <g transform="translate(60.352 51.672) scale(0.1 -0.1)">
      <defs>
       <path id="DejaVuSans-65" d="M 3597 1894 
L 3597 1613 
L 953 1613 
Q 991 1019 1311 708 
Q 1631 397 2203 397 
Q 2534 397 2845 478 
Q 3156 559 3463 722 
L 3463 178 
Q 3153 47 2828 -22 
Q 2503 -91 2169 -91 
Q 1331 -91 842 396 
Q 353 884 353 1716 
Q 353 2575 817 3079 
Q 1281 3584 2069 3584 
Q 2775 3584 3186 3129 
Q 3597 2675 3597 1894 
z
M 3022 2063 
Q 3016 2534 2758 2815 
Q 2500 3097 2075 3097 
Q 1594 3097 1305 2825 
Q 1016 2553 972 2059 
L 3022 2063 
z
" transform="scale(0.015625)"/>
      </defs>
      <use xlink:href="#DejaVuSans-31"/>
      <use xlink:href="#DejaVuSans-65" x="63.623047"/>
      <use xlink:href="#DejaVuSans-35" x="125.146484"/>
     </g>
    </g>
   </g>
   <g id="line2d_13">
    <path d="M 69.864455 392.725958 
L 240.683851 392.725958 
" clip-path="url(#pf2c56dc82e)" style="fill: none; stroke-dasharray: 7.4,3.2; stroke-dashoffset: 0; stroke: #696969; stroke-width: 2"/>
   </g>
   <g id="line2d_14">
    <path d="M 240.683851 427.932547 
L 211.539309 429.516932 
L 190.72178 431.866515 
L 175.108632 382.751337 
L 162.965074 72.748727 
L 153.250226 223.359033 
L 145.301715 426.052769 
L 138.677956 431.982379 
L 133.073236 430.952365 
L 128.269191 432.908398 
L 124.105685 434.025728 
L 120.462617 432.655104 
L 117.248146 426.425405 
L 114.390838 428.881826 
L 111.834299 426.449378 
L 109.533414 428.831942 
L 107.451661 434.260582 
L 105.559158 431.059552 
L 103.831221 429.45927 
L 102.247279 425.785184 
L 100.790051 428.272727 
L 99.444919 425.61639 
L 98.199426 420.941905 
L 97.042896 432.584361 
L 95.966127 432.541888 
L 94.961143 421.231999 
L 94.020997 432.078178 
L 92.311639 417.914117 
L 91.532374 406.189852 
L 90.797637 415.296564 
L 90.10372 426.504259 
L 89.447311 427.099618 
L 88.82545 434.283273 
L 88.23548 433.339067 
L 87.675008 420.096173 
L 87.141876 416.171598 
L 86.634131 432.08661 
L 86.150003 425.167252 
L 85.68788 416.961077 
L 85.246296 431.368469 
L 84.823911 426.745475 
L 84.4195 418.577587 
L 84.03194 423.506608 
L 83.660198 432.324715 
L 83.303326 431.376209 
L 82.96045 433.711242 
L 82.63076 434.176981 
L 82.008014 433.654698 
L 81.713624 432.451603 
L 81.429749 429.375218 
L 80.891364 405.039771 
L 80.63586 425.396587 
L 80.388872 427.219242 
L 80.149983 419.369868 
L 79.918799 417.746718 
L 79.267928 432.843902 
L 79.06412 424.507812 
L 78.866396 405.615429 
L 78.488141 433.83302 
L 78.307119 433.103057 
L 78.131197 425.751377 
L 77.960161 428.38628 
L 77.79381 424.24984 
L 77.631956 425.956407 
L 77.474418 423.407046 
L 77.321026 407.80237 
L 77.026041 434.159712 
L 76.610876 425.209098 
L 76.479239 428.054539 
L 76.350773 426.096536 
L 76.225366 433.666524 
L 76.10291 429.180495 
L 75.983302 433.365849 
L 75.752241 422.864435 
L 75.640604 433.781651 
L 75.531449 433.54139 
L 75.424692 432.974967 
L 75.320256 434.163697 
L 75.218067 434.124541 
L 75.020141 434.117122 
L 74.830377 431.614057 
L 74.7384 433.477918 
L 74.559964 432.037714 
L 74.388526 423.137239 
L 74.143613 434.178716 
L 73.987968 427.449839 
L 73.912308 431.381157 
L 73.838035 431.041029 
L 73.765113 423.440715 
L 73.623175 432.800051 
L 73.55409 430.199338 
L 73.486218 431.38418 
L 73.419525 412.753534 
L 73.353983 415.671072 
L 73.226231 432.809735 
L 73.163965 430.286391 
L 73.102737 428.960734 
L 72.983292 433.282037 
L 72.925026 432.918642 
L 72.8677 430.770646 
L 72.811292 433.826934 
L 72.755778 433.553415 
L 72.647353 417.617919 
L 72.490924 433.534737 
L 72.440361 430.448721 
L 72.390558 419.938175 
L 72.341499 428.174429 
L 72.293166 432.271684 
L 72.245545 430.204777 
L 72.198618 426.464815 
L 72.152371 434.168949 
L 72.06186 432.223973 
L 71.973899 434.046927 
L 71.888381 425.905114 
L 71.846507 429.93316 
L 71.764467 428.578863 
L 71.724279 434.051109 
L 71.68463 428.699954 
L 71.64551 432.340119 
L 71.606908 433.79659 
L 71.568814 431.285434 
L 71.531218 430.347372 
L 71.385622 434.026257 
L 71.350375 433.524824 
L 71.14792 398.906374 
L 71.052148 429.0999 
L 71.020984 422.826258 
L 70.959756 430.724126 
L 70.899952 426.547693 
L 70.870568 419.089825 
L 70.841523 430.189303 
L 70.812809 433.912164 
L 70.674025 409.320888 
L 70.594395 433.973162 
L 70.542743 424.078047 
L 70.394278 434.07663 
L 70.232441 413.740861 
L 70.210251 415.068369 
L 70.166533 434.109156 
L 70.081656 432.503138 
L 70.020141 427.489206 
L 70.000029 432.743076 
L 69.960375 429.035131 
L 69.864455 433.746966 
L 69.864455 433.746966 
" clip-path="url(#pf2c56dc82e)" style="fill: none; stroke: #191970; stroke-width: 2; stroke-linecap: square"/>
   </g>
   <g id="patch_3">
    <path d="M 60.352 452.36 
L 60.352 54.672 
" style="fill: none; stroke: #000000; stroke-width: 0.8; stroke-linejoin: miter; stroke-linecap: square"/>
   </g>
   <g id="patch_4">
    <path d="M 60.352 452.36 
L 269.626 452.36 
" style="fill: none; stroke: #000000; stroke-width: 0.8; stroke-linejoin: miter; stroke-linecap: square"/>
   </g>
   <g id="text_14">
    <!-- 1 -->
    <g transform="translate(162.444 39.71375) scale(0.08 -0.08)">
     <use xlink:href="#DejaVuSans-31"/>
    </g>
    <!-- (PEAK ON 24.00 HOURS) -->
    <g transform="translate(115.759625 48.672) scale(0.08 -0.08)">
     <defs>
      <path id="DejaVuSans-28" d="M 1984 4856 
Q 1566 4138 1362 3434 
Q 1159 2731 1159 2009 
Q 1159 1288 1364 580 
Q 1569 -128 1984 -844 
L 1484 -844 
Q 1016 -109 783 600 
Q 550 1309 550 2009 
Q 550 2706 781 3412 
Q 1013 4119 1484 4856 
L 1984 4856 
z
" transform="scale(0.015625)"/>
      <path id="DejaVuSans-50" d="M 1259 4147 
L 1259 2394 
L 2053 2394 
Q 2494 2394 2734 2622 
Q 2975 2850 2975 3272 
Q 2975 3691 2734 3919 
Q 2494 4147 2053 4147 
L 1259 4147 
z
M 628 4666 
L 2053 4666 
Q 2838 4666 3239 4311 
Q 3641 3956 3641 3272 
Q 3641 2581 3239 2228 
Q 2838 1875 2053 1875 
L 1259 1875 
L 1259 0 
L 628 0 
L 628 4666 
z
" transform="scale(0.015625)"/>
      <path id="DejaVuSans-45" d="M 628 4666 
L 3578 4666 
L 3578 4134 
L 1259 4134 
L 1259 2753 
L 3481 2753 
L 3481 2222 
L 1259 2222 
L 1259 531 
L 3634 531 
L 3634 0 
L 628 0 
L 628 4666 
z
" transform="scale(0.015625)"/>
      <path id="DejaVuSans-41" d="M 2188 4044 
L 1331 1722 
L 3047 1722 
L 2188 4044 
z
M 1831 4666 
L 2547 4666 
L 4325 0 
L 3669 0 
L 3244 1197 
L 1141 1197 
L 716 0 
L 50 0 
L 1831 4666 
z
" transform="scale(0.015625)"/>
      <path id="DejaVuSans-4b" d="M 628 4666 
L 1259 4666 
L 1259 2694 
L 3353 4666 
L 4166 4666 
L 1850 2491 
L 4331 0 
L 3500 0 
L 1259 2247 
L 1259 0 
L 628 0 
L 628 4666 
z
" transform="scale(0.015625)"/>
      <path id="DejaVuSans-20" transform="scale(0.015625)"/>
      <path id="DejaVuSans-4f" d="M 2522 4238 
Q 1834 4238 1429 3725 
Q 1025 3213 1025 2328 
Q 1025 1447 1429 934 
Q 1834 422 2522 422 
Q 3209 422 3611 934 
Q 4013 1447 4013 2328 
Q 4013 3213 3611 3725 
Q 3209 4238 2522 4238 
z
M 2522 4750 
Q 3503 4750 4090 4092 
Q 4678 3434 4678 2328 
Q 4678 1225 4090 567 
Q 3503 -91 2522 -91 
Q 1538 -91 948 565 
Q 359 1222 359 2328 
Q 359 3434 948 4092 
Q 1538 4750 2522 4750 
z
" transform="scale(0.015625)"/>
      <path id="DejaVuSans-4e" d="M 628 4666 
L 1478 4666 
L 3547 763 
L 3547 4666 
L 4159 4666 
L 4159 0 
L 3309 0 
L 1241 3903 
L 1241 0 
L 628 0 
L 628 4666 
z
" transform="scale(0.015625)"/>
      <path id="DejaVuSans-48" d="M 628 4666 
L 1259 4666 
L 1259 2753 
L 3553 2753 
L 3553 4666 
L 4184 4666 
L 4184 0 
L 3553 0 
L 3553 2222 
L 1259 2222 
L 1259 0 
L 628 0 
L 628 4666 
z
" transform="scale(0.015625)"/>
      <path id="DejaVuSans-55" d="M 556 4666 
L 1191 4666 
L 1191 1831 
Q 1191 1081 1462 751 
Q 1734 422 2344 422 
Q 2950 422 3222 751 
Q 3494 1081 3494 1831 
L 3494 4666 
L 4128 4666 
L 4128 1753 
Q 4128 841 3676 375 
Q 3225 -91 2344 -91 
Q 1459 -91 1007 375 
Q 556 841 556 1753 
L 556 4666 
z
" transform="scale(0.015625)"/>
      <path id="DejaVuSans-52" d="M 2841 2188 
Q 3044 2119 3236 1894 
Q 3428 1669 3622 1275 
L 4263 0 
L 3584 0 
L 2988 1197 
Q 2756 1666 2539 1819 
Q 2322 1972 1947 1972 
L 1259 1972 
L 1259 0 
L 628 0 
L 628 4666 
L 2053 4666 
Q 2853 4666 3247 4331 
Q 3641 3997 3641 3322 
Q 3641 2881 3436 2590 
Q 3231 2300 2841 2188 
z
M 1259 4147 
L 1259 2491 
L 2053 2491 
Q 2509 2491 2742 2702 
Q 2975 2913 2975 3322 
Q 2975 3731 2742 3939 
Q 2509 4147 2053 4147 
L 1259 4147 
z
" transform="scale(0.015625)"/>
      <path id="DejaVuSans-53" d="M 3425 4513 
L 3425 3897 
Q 3066 4069 2747 4153 
Q 2428 4238 2131 4238 
Q 1616 4238 1336 4038 
Q 1056 3838 1056 3469 
Q 1056 3159 1242 3001 
Q 1428 2844 1947 2747 
L 2328 2669 
Q 3034 2534 3370 2195 
Q 3706 1856 3706 1288 
Q 3706 609 3251 259 
Q 2797 -91 1919 -91 
Q 1588 -91 1214 -16 
Q 841 59 441 206 
L 441 856 
Q 825 641 1194 531 
Q 1563 422 1919 422 
Q 2459 422 2753 634 
Q 3047 847 3047 1241 
Q 3047 1584 2836 1778 
Q 2625 1972 2144 2069 
L 1759 2144 
Q 1053 2284 737 2584 
Q 422 2884 422 3419 
Q 422 4038 858 4394 
Q 1294 4750 2059 4750 
Q 2388 4750 2728 4690 
Q 3069 4631 3425 4513 
z
" transform="scale(0.015625)"/>
      <path id="DejaVuSans-29" d="M 513 4856 
L 1013 4856 
Q 1481 4119 1714 3412 
Q 1947 2706 1947 2009 
Q 1947 1309 1714 600 
Q 1481 -109 1013 -844 
L 513 -844 
Q 928 -128 1133 580 
Q 1338 1288 1338 2009 
Q 1338 2731 1133 3434 
Q 928 4138 513 4856 
z
" transform="scale(0.015625)"/>
     </defs>
     <use xlink:href="#DejaVuSans-28"/>
     <use xlink:href="#DejaVuSans-50" x="39.013672"/>
     <use xlink:href="#DejaVuSans-45" x="99.316406"/>
     <use xlink:href="#DejaVuSans-41" x="162.5"/>
     <use xlink:href="#DejaVuSans-4b" x="230.908203"/>
     <use xlink:href="#DejaVuSans-20" x="296.484375"/>
     <use xlink:href="#DejaVuSans-4f" x="328.271484"/>
     <use xlink:href="#DejaVuSans-4e" x="406.982422"/>
     <use xlink:href="#DejaVuSans-20" x="481.787109"/>
     <use xlink:href="#DejaVuSans-32" x="513.574219"/>
     <use xlink:href="#DejaVuSans-34" x="577.197266"/>
     <use xlink:href="#DejaVuSans-2e" x="640.820312"/>
     <use xlink:href="#DejaVuSans-30" x="672.607422"/>
     <use xlink:href="#DejaVuSans-30" x="736.230469"/>
     <use xlink:href="#DejaVuSans-20" x="799.853516"/>
     <use xlink:href="#DejaVuSans-48" x="831.640625"/>
     <use xlink:href="#DejaVuSans-4f" x="906.835938"/>
     <use xlink:href="#DejaVuSans-55" x="985.546875"/>
     <use xlink:href="#DejaVuSans-52" x="1058.740234"/>
     <use xlink:href="#DejaVuSans-53" x="1128.222656"/>
     <use xlink:href="#DejaVuSans-29" x="1191.699219"/>
    </g>
   </g>
  </g>
  <g id="axes_2">
   <g id="patch_5">
    <path d="M 283.926 452.36 
L 493.2 452.36 
L 493.2 54.672 
L 283.926 54.672 
z
" style="fill: #ffffff"/>
   </g>
   <g id="matplotlib.axis_3">
    <g id="xtick_7">
     <g id="line2d_15">
      <g>
       <use xlink:href="#me186495901" x="289.390602" y="452.36" style="stroke: #000000; stroke-width: 0.8"/>
      </g>
     </g>
     <g id="text_15">
      <!-- 0 -->
      <g transform="translate(286.209352 466.958438) scale(0.1 -0.1)">
       <use xlink:href="#DejaVuSans-30"/>
      </g>
     </g>
    </g>
    <g id="xtick_8">
     <g id="line2d_16">
      <g>
       <use xlink:href="#me186495901" x="329.869132" y="452.36" style="stroke: #000000; stroke-width: 0.8"/>
      </g>
     </g>
     <g id="text_16">
      <!-- 10 -->
      <g transform="translate(323.506632 466.958438) scale(0.1 -0.1)">
       <use xlink:href="#DejaVuSans-31"/>
       <use xlink:href="#DejaVuSans-30" x="63.623047"/>
      </g>
     </g>
    </g>
    <g id="xtick_9">
     <g id="line2d_17">
      <g>
       <use xlink:href="#me186495901" x="370.347662" y="452.36" style="stroke: #000000; stroke-width: 0.8"/>
      </g>
     </g>
     <g id="text_17">
      <!-- 20 -->
      <g transform="translate(363.985162 466.958438) scale(0.1 -0.1)">
       <use xlink:href="#DejaVuSans-32"/>
       <use xlink:href="#DejaVuSans-30" x="63.623047"/>
      </g>
     </g>
    </g>
    <g id="xtick_10">
     <g id="line2d_18">
      <g>
       <use xlink:href="#me186495901" x="410.826191" y="452.36" style="stroke: #000000; stroke-width: 0.8"/>
      </g>
     </g>
     <g id="text_18">
      <!-- 30 -->
      <g transform="translate(404.463691 466.958438) scale(0.1 -0.1)">
       <use xlink:href="#DejaVuSans-33"/>
       <use xlink:href="#DejaVuSans-30" x="63.623047"/>
      </g>
     </g>
    </g>
    <g id="xtick_11">
     <g id="line2d_19">
      <g>
       <use xlink:href="#me186495901" x="451.304721" y="452.36" style="stroke: #000000; stroke-width: 0.8"/>
      </g>
     </g>
     <g id="text_19">
      <!-- 40 -->
      <g transform="translate(444.942221 466.958438) scale(0.1 -0.1)">
       <use xlink:href="#DejaVuSans-34"/>
       <use xlink:href="#DejaVuSans-30" x="63.623047"/>
      </g>
     </g>
    </g>
    <g id="xtick_12">
     <g id="line2d_20">
      <g>
       <use xlink:href="#me186495901" x="491.783251" y="452.36" style="stroke: #000000; stroke-width: 0.8"/>
      </g>
     </g>
     <g id="text_20">
      <!-- 50 -->
      <g transform="translate(485.420751 466.958438) scale(0.1 -0.1)">
       <use xlink:href="#DejaVuSans-35"/>
       <use xlink:href="#DejaVuSans-30" x="63.623047"/>
      </g>
     </g>
    </g>
   </g>
   <g id="matplotlib.axis_4">
    <g id="ytick_7">
     <g id="line2d_21">
      <g>
       <use xlink:href="#mb99c176dac" x="283.926" y="434.324467" style="stroke: #000000; stroke-width: 0.8"/>
      </g>
     </g>
    </g>
    <g id="ytick_8">
     <g id="line2d_22">
      <g>
       <use xlink:href="#mb99c176dac" x="283.926" y="370.274469" style="stroke: #000000; stroke-width: 0.8"/>
      </g>
     </g>
    </g>
    <g id="ytick_9">
     <g id="line2d_23">
      <g>
       <use xlink:href="#mb99c176dac" x="283.926" y="306.224471" style="stroke: #000000; stroke-width: 0.8"/>
      </g>
     </g>
    </g>
    <g id="ytick_10">
     <g id="line2d_24">
      <g>
       <use xlink:href="#mb99c176dac" x="283.926" y="242.174473" style="stroke: #000000; stroke-width: 0.8"/>
      </g>
     </g>
    </g>
    <g id="ytick_11">
     <g id="line2d_25">
      <g>
       <use xlink:href="#mb99c176dac" x="283.926" y="178.124475" style="stroke: #000000; stroke-width: 0.8"/>
      </g>
     </g>
    </g>
    <g id="ytick_12">
     <g id="line2d_26">
      <g>
       <use xlink:href="#mb99c176dac" x="283.926" y="114.074477" style="stroke: #000000; stroke-width: 0.8"/>
      </g>
     </g>
    </g>
   </g>
   <g id="line2d_27">
    <path d="M 293.438455 391.32354 
L 483.687545 391.32354 
" clip-path="url(#pbedb965483)" style="fill: none; stroke-dasharray: 7.4,3.2; stroke-dashoffset: 0; stroke: #696969; stroke-width: 2"/>
   </g>
   <g id="line2d_28">
    <path d="M 483.687545 427.127483 
L 444.828157 432.363359 
L 418.921897 431.294449 
L 400.417427 424.17446 
L 386.539074 155.738148 
L 375.744799 131.728853 
L 367.109379 407.434713 
L 360.044036 427.103158 
L 354.15625 430.269381 
L 349.174277 432.601253 
L 344.904014 430.246431 
L 341.20312 429.710696 
L 337.964838 433.643092 
L 335.10753 421.13795 
L 332.5677 423.030785 
L 330.295221 433.788554 
L 328.24999 432.968921 
L 326.399543 432.884694 
L 324.717319 433.877361 
L 323.181374 431.677381 
L 321.773426 420.354891 
L 320.478113 422.643919 
L 319.282439 430.616733 
L 317.147308 423.629948 
L 316.19018 433.105098 
L 315.296861 433.898381 
L 314.461175 433.51396 
L 313.67772 432.806289 
L 312.941746 433.029747 
L 312.249066 433.926401 
L 310.979151 426.972387 
L 310.395677 419.490666 
L 309.842911 428.201502 
L 309.318493 430.264856 
L 308.820296 422.623457 
L 308.346401 421.974387 
L 307.895072 432.935861 
L 307.464736 432.452403 
L 307.05396 432.527996 
L 306.661441 425.12989 
L 306.285988 429.291985 
L 305.926512 430.485116 
L 305.582014 423.96315 
L 305.251577 413.62916 
L 304.934357 407.856748 
L 304.629578 421.784769 
L 304.33652 426.716245 
L 304.054522 428.902834 
L 303.782968 428.941161 
L 303.521288 431.666852 
L 303.268955 432.99766 
L 303.025475 429.068483 
L 302.790391 414.320553 
L 302.563276 427.208659 
L 302.343731 431.08031 
L 302.131385 417.241283 
L 301.726915 433.794546 
L 301.534161 431.443072 
L 301.347337 425.593624 
L 301.166174 432.521255 
L 300.990419 428.576368 
L 300.819834 427.672697 
L 300.654192 430.981668 
L 300.493284 426.472158 
L 300.336908 433.695079 
L 300.037009 431.588553 
L 299.753105 423.4512 
L 299.616756 414.2906 
L 299.354547 426.78084 
L 299.228421 419.063234 
L 299.105449 432.309271 
L 298.868501 424.032969 
L 298.642837 433.464165 
L 298.533987 430.88532 
L 298.427669 432.586084 
L 298.323794 420.438504 
L 298.222281 431.853396 
L 298.123048 422.166618 
L 298.026021 425.097313 
L 297.931127 417.979557 
L 297.747459 426.657894 
L 297.658557 423.685391 
L 297.402847 428.025927 
L 297.321089 433.456733 
L 297.162479 424.788077 
L 297.08553 427.700691 
L 297.01009 424.622292 
L 296.936114 428.775908 
L 296.863561 426.246247 
L 296.654039 433.870267 
L 296.586785 433.305356 
L 296.520765 433.829492 
L 296.329778 426.99142 
L 296.268369 423.285373 
L 296.090496 433.565712 
L 295.813641 421.595471 
L 295.709201 434.060953 
L 295.51019 399.888483 
L 295.462381 431.514581 
L 295.368969 429.983072 
L 295.323333 428.174868 
L 295.278388 434.197831 
L 295.234119 418.219317 
L 295.19051 425.931776 
L 295.063505 433.89218 
L 295.022397 432.740631 
L 294.981881 433.824137 
L 294.941943 433.405837 
L 294.863755 428.007742 
L 294.825481 430.181815 
L 294.750517 433.650224 
L 294.677593 433.547696 
L 294.606627 430.924567 
L 294.571853 433.906893 
L 294.53754 429.745098 
L 294.503679 419.981909 
L 294.47026 432.196716 
L 294.404716 422.026566 
L 294.278575 432.496985 
L 294.217855 433.833894 
L 294.10083 420.600635 
L 293.989346 431.15862 
L 293.935559 411.348962 
L 293.883016 421.352216 
L 293.831675 432.939537 
L 293.781493 425.371702 
L 293.756825 411.301523 
L 293.708311 426.166239 
L 293.684457 434.182411 
L 293.591617 432.220993 
L 293.546686 415.085996 
L 293.502706 433.256783 
L 293.459647 419.06019 
L 293.438455 433.972254 
L 293.438455 433.972254 
" clip-path="url(#pbedb965483)" style="fill: none; stroke: #191970; stroke-width: 2; stroke-linecap: square"/>
   </g>
   <g id="patch_6">
    <path d="M 283.926 452.36 
L 283.926 54.672 
" style="fill: none; stroke: #000000; stroke-width: 0.8; stroke-linejoin: miter; stroke-linecap: square"/>
   </g>
   <g id="patch_7">
    <path d="M 283.926 452.36 
L 493.2 452.36 
" style="fill: none; stroke: #000000; stroke-width: 0.8; stroke-linejoin: miter; stroke-linecap: square"/>
   </g>
   <g id="text_21">
    <!-- 2 -->
    <g transform="translate(386.018 39.71375) scale(0.08 -0.08)">
     <use xlink:href="#DejaVuSans-32"/>
    </g>
    <!-- (PEAK ON 21.33 HOURS) -->
    <g transform="translate(339.333625 48.672) scale(0.08 -0.08)">
     <use xlink:href="#DejaVuSans-28"/>
     <use xlink:href="#DejaVuSans-50" x="39.013672"/>
     <use xlink:href="#DejaVuSans-45" x="99.316406"/>
     <use xlink:href="#DejaVuSans-41" x="162.5"/>
     <use xlink:href="#DejaVuSans-4b" x="230.908203"/>
     <use xlink:href="#DejaVuSans-20" x="296.484375"/>
     <use xlink:href="#DejaVuSans-4f" x="328.271484"/>
     <use xlink:href="#DejaVuSans-4e" x="406.982422"/>
     <use xlink:href="#DejaVuSans-20" x="481.787109"/>
     <use xlink:href="#DejaVuSans-32" x="513.574219"/>
     <use xlink:href="#DejaVuSans-31" x="577.197266"/>
     <use xlink:href="#DejaVuSans-2e" x="640.820312"/>
     <use xlink:href="#DejaVuSans-33" x="672.607422"/>
     <use xlink:href="#DejaVuSans-33" x="736.230469"/>
     <use xlink:href="#DejaVuSans-20" x="799.853516"/>
     <use xlink:href="#DejaVuSans-48" x="831.640625"/>
     <use xlink:href="#DejaVuSans-4f" x="906.835938"/>
     <use xlink:href="#DejaVuSans-55" x="985.546875"/>
     <use xlink:href="#DejaVuSans-52" x="1058.740234"/>
     <use xlink:href="#DejaVuSans-53" x="1128.222656"/>
     <use xlink:href="#DejaVuSans-29" x="1191.699219"/>
    </g>
   </g>
  </g>
  <g id="text_22">
   <!-- PSD $(AMPLITUDE^{2}/HZ)$ -->
   <g transform="translate(20.184375 318.96) rotate(-90) scale(0.12 -0.12)">
    <defs>
     <path id="DejaVuSans-44" d="M 1259 4147 
L 1259 519 
L 2022 519 
Q 2988 519 3436 956 
Q 3884 1394 3884 2338 
Q 3884 3275 3436 3711 
Q 2988 4147 2022 4147 
L 1259 4147 
z
M 628 4666 
L 1925 4666 
Q 3281 4666 3915 4102 
Q 4550 3538 4550 2338 
Q 4550 1131 3912 565 
Q 3275 0 1925 0 
L 628 0 
L 628 4666 
z
" transform="scale(0.015625)"/>
     <path id="DejaVuSans-Oblique-41" d="M 2356 4666 
L 3072 4666 
L 3938 0 
L 3278 0 
L 3084 1197 
L 984 1197 
L 325 0 
L -341 0 
L 2356 4666 
z
M 2584 4044 
L 1275 1722 
L 2988 1722 
L 2584 4044 
z
" transform="scale(0.015625)"/>
     <path id="DejaVuSans-Oblique-4d" d="M 1081 4666 
L 2028 4666 
L 2572 1522 
L 4378 4666 
L 5350 4666 
L 4441 0 
L 3828 0 
L 4622 4091 
L 2791 897 
L 2175 897 
L 1581 4103 
L 788 0 
L 172 0 
L 1081 4666 
z
" transform="scale(0.015625)"/>
     <path id="DejaVuSans-Oblique-50" d="M 1081 4666 
L 2541 4666 
Q 3178 4666 3512 4369 
Q 3847 4072 3847 3500 
Q 3847 2731 3353 2303 
Q 2859 1875 1966 1875 
L 1172 1875 
L 806 0 
L 172 0 
L 1081 4666 
z
M 1613 4147 
L 1275 2394 
L 2069 2394 
Q 2606 2394 2893 2669 
Q 3181 2944 3181 3456 
Q 3181 3784 2986 3965 
Q 2791 4147 2438 4147 
L 1613 4147 
z
" transform="scale(0.015625)"/>
     <path id="DejaVuSans-Oblique-4c" d="M 1075 4666 
L 1709 4666 
L 909 525 
L 3181 525 
L 3078 0 
L 172 0 
L 1075 4666 
z
" transform="scale(0.015625)"/>
     <path id="DejaVuSans-Oblique-49" d="M 1081 4666 
L 1716 4666 
L 806 0 
L 172 0 
L 1081 4666 
z
" transform="scale(0.015625)"/>
     <path id="DejaVuSans-Oblique-54" d="M 378 4666 
L 4325 4666 
L 4225 4134 
L 2559 4134 
L 1759 0 
L 1125 0 
L 1925 4134 
L 275 4134 
L 378 4666 
z
" transform="scale(0.015625)"/>
     <path id="DejaVuSans-Oblique-55" d="M 991 4666 
L 1625 4666 
L 1075 1831 
Q 1041 1641 1027 1517 
Q 1013 1394 1013 1300 
Q 1013 869 1253 645 
Q 1494 422 1959 422 
Q 2563 422 2898 753 
Q 3234 1084 3378 1831 
L 3928 4666 
L 4563 4666 
L 4000 1753 
Q 3816 809 3300 359 
Q 2784 -91 1888 -91 
Q 1188 -91 780 261 
Q 372 613 372 1216 
Q 372 1325 387 1461 
Q 403 1597 434 1753 
L 991 4666 
z
" transform="scale(0.015625)"/>
     <path id="DejaVuSans-Oblique-44" d="M 1081 4666 
L 2438 4666 
Q 3519 4666 4070 4208 
Q 4622 3750 4622 2847 
Q 4622 2250 4412 1698 
Q 4203 1147 3834 769 
Q 3463 381 2891 190 
Q 2319 0 1538 0 
L 172 0 
L 1081 4666 
z
M 1613 4147 
L 909 519 
L 1734 519 
Q 2794 519 3375 1128 
Q 3956 1738 3956 2847 
Q 3956 3519 3581 3833 
Q 3206 4147 2406 4147 
L 1613 4147 
z
" transform="scale(0.015625)"/>
     <path id="DejaVuSans-Oblique-45" d="M 1081 4666 
L 4031 4666 
L 3928 4134 
L 1606 4134 
L 1338 2753 
L 3566 2753 
L 3463 2222 
L 1234 2222 
L 909 531 
L 3284 531 
L 3181 0 
L 172 0 
L 1081 4666 
z
" transform="scale(0.015625)"/>
     <path id="DejaVuSans-2f" d="M 1625 4666 
L 2156 4666 
L 531 -594 
L 0 -594 
L 1625 4666 
z
" transform="scale(0.015625)"/>
     <path id="DejaVuSans-Oblique-48" d="M 1081 4666 
L 1716 4666 
L 1344 2753 
L 3634 2753 
L 4006 4666 
L 4641 4666 
L 3731 0 
L 3097 0 
L 3531 2222 
L 1241 2222 
L 806 0 
L 172 0 
L 1081 4666 
z
" transform="scale(0.015625)"/>
     <path id="DejaVuSans-Oblique-5a" d="M 838 4666 
L 4500 4666 
L 4409 4184 
L 794 531 
L 3769 531 
L 3669 0 
L -141 0 
L -50 481 
L 3566 4134 
L 738 4134 
L 838 4666 
z
" transform="scale(0.015625)"/>
    </defs>
    <use xlink:href="#DejaVuSans-50" transform="translate(0 0.765625)"/>
    <use xlink:href="#DejaVuSans-53" transform="translate(60.302734 0.765625)"/>
    <use xlink:href="#DejaVuSans-44" transform="translate(123.779297 0.765625)"/>
    <use xlink:href="#DejaVuSans-20" transform="translate(200.78125 0.765625)"/>
    <use xlink:href="#DejaVuSans-28" transform="translate(232.568359 0.765625)"/>
    <use xlink:href="#DejaVuSans-Oblique-41" transform="translate(271.582031 0.765625)"/>
    <use xlink:href="#DejaVuSans-Oblique-4d" transform="translate(339.990234 0.765625)"/>
    <use xlink:href="#DejaVuSans-Oblique-50" transform="translate(426.269531 0.765625)"/>
    <use xlink:href="#DejaVuSans-Oblique-4c" transform="translate(486.572266 0.765625)"/>
    <use xlink:href="#DejaVuSans-Oblique-49" transform="translate(542.285156 0.765625)"/>
    <use xlink:href="#DejaVuSans-Oblique-54" transform="translate(571.777344 0.765625)"/>
    <use xlink:href="#DejaVuSans-Oblique-55" transform="translate(632.861328 0.765625)"/>
    <use xlink:href="#DejaVuSans-Oblique-44" transform="translate(706.054688 0.765625)"/>
    <use xlink:href="#DejaVuSans-Oblique-45" transform="translate(783.056641 0.765625)"/>
    <use xlink:href="#DejaVuSans-32" transform="translate(853.257005 39.046875) scale(0.7)"/>
    <use xlink:href="#DejaVuSans-2f" transform="translate(900.527513 0.765625)"/>
    <use xlink:href="#DejaVuSans-Oblique-48" transform="translate(932.468919 0.765625)"/>
    <use xlink:href="#DejaVuSans-Oblique-5a" transform="translate(1007.664232 0.765625)"/>
    <use xlink:href="#DejaVuSans-29" transform="translate(1076.170091 0.765625)"/>
   </g>
  </g>
  <g id="text_23">
   <!-- PERIOD (HOUR) -->
   <g transform="translate(204.924375 496.464375) scale(0.12 -0.12)">
    <defs>
     <path id="DejaVuSans-49" d="M 628 4666 
L 1259 4666 
L 1259 0 
L 628 0 
L 628 4666 
z
" transform="scale(0.015625)"/>
    </defs>
    <use xlink:href="#DejaVuSans-50"/>
    <use xlink:href="#DejaVuSans-45" x="60.302734"/>
    <use xlink:href="#DejaVuSans-52" x="123.486328"/>
    <use xlink:href="#DejaVuSans-49" x="192.96875"/>
    <use xlink:href="#DejaVuSans-4f" x="222.460938"/>
    <use xlink:href="#DejaVuSans-44" x="301.171875"/>
    <use xlink:href="#DejaVuSans-20" x="378.173828"/>
    <use xlink:href="#DejaVuSans-28" x="409.960938"/>
    <use xlink:href="#DejaVuSans-48" x="448.974609"/>
    <use xlink:href="#DejaVuSans-4f" x="524.169922"/>
    <use xlink:href="#DejaVuSans-55" x="602.880859"/>
    <use xlink:href="#DejaVuSans-52" x="676.074219"/>
    <use xlink:href="#DejaVuSans-29" x="745.556641"/>
   </g>
  </g>
  <g id="text_24">
   <!-- PERIODOGRAM OF CONTINUOUS - 7 SINE 0.5 -->
   <g transform="translate(117.088125 19.198125) scale(0.12 -0.12)">
    <defs>
     <path id="DejaVuSans-47" d="M 3809 666 
L 3809 1919 
L 2778 1919 
L 2778 2438 
L 4434 2438 
L 4434 434 
Q 4069 175 3628 42 
Q 3188 -91 2688 -91 
Q 1594 -91 976 548 
Q 359 1188 359 2328 
Q 359 3472 976 4111 
Q 1594 4750 2688 4750 
Q 3144 4750 3555 4637 
Q 3966 4525 4313 4306 
L 4313 3634 
Q 3963 3931 3569 4081 
Q 3175 4231 2741 4231 
Q 1884 4231 1454 3753 
Q 1025 3275 1025 2328 
Q 1025 1384 1454 906 
Q 1884 428 2741 428 
Q 3075 428 3337 486 
Q 3600 544 3809 666 
z
" transform="scale(0.015625)"/>
     <path id="DejaVuSans-4d" d="M 628 4666 
L 1569 4666 
L 2759 1491 
L 3956 4666 
L 4897 4666 
L 4897 0 
L 4281 0 
L 4281 4097 
L 3078 897 
L 2444 897 
L 1241 4097 
L 1241 0 
L 628 0 
L 628 4666 
z
" transform="scale(0.015625)"/>
     <path id="DejaVuSans-46" d="M 628 4666 
L 3309 4666 
L 3309 4134 
L 1259 4134 
L 1259 2759 
L 3109 2759 
L 3109 2228 
L 1259 2228 
L 1259 0 
L 628 0 
L 628 4666 
z
" transform="scale(0.015625)"/>
     <path id="DejaVuSans-43" d="M 4122 4306 
L 4122 3641 
Q 3803 3938 3442 4084 
Q 3081 4231 2675 4231 
Q 1875 4231 1450 3742 
Q 1025 3253 1025 2328 
Q 1025 1406 1450 917 
Q 1875 428 2675 428 
Q 3081 428 3442 575 
Q 3803 722 4122 1019 
L 4122 359 
Q 3791 134 3420 21 
Q 3050 -91 2638 -91 
Q 1578 -91 968 557 
Q 359 1206 359 2328 
Q 359 3453 968 4101 
Q 1578 4750 2638 4750 
Q 3056 4750 3426 4639 
Q 3797 4528 4122 4306 
z
" transform="scale(0.015625)"/>
     <path id="DejaVuSans-54" d="M -19 4666 
L 3928 4666 
L 3928 4134 
L 2272 4134 
L 2272 0 
L 1638 0 
L 1638 4134 
L -19 4134 
L -19 4666 
z
" transform="scale(0.015625)"/>
     <path id="DejaVuSans-2d" d="M 313 2009 
L 1997 2009 
L 1997 1497 
L 313 1497 
L 313 2009 
z
" transform="scale(0.015625)"/>
     <path id="DejaVuSans-37" d="M 525 4666 
L 3525 4666 
L 3525 4397 
L 1831 0 
L 1172 0 
L 2766 4134 
L 525 4134 
L 525 4666 
z
" transform="scale(0.015625)"/>
    </defs>
    <use xlink:href="#DejaVuSans-50"/>
    <use xlink:href="#DejaVuSans-45" x="60.302734"/>
    <use xlink:href="#DejaVuSans-52" x="123.486328"/>
    <use xlink:href="#DejaVuSans-49" x="192.96875"/>
    <use xlink:href="#DejaVuSans-4f" x="222.460938"/>
    <use xlink:href="#DejaVuSans-44" x="301.171875"/>
    <use xlink:href="#DejaVuSans-4f" x="378.173828"/>
    <use xlink:href="#DejaVuSans-47" x="456.884766"/>
    <use xlink:href="#DejaVuSans-52" x="534.375"/>
    <use xlink:href="#DejaVuSans-41" x="599.857422"/>
    <use xlink:href="#DejaVuSans-4d" x="668.265625"/>
    <use xlink:href="#DejaVuSans-20" x="754.544922"/>
    <use xlink:href="#DejaVuSans-4f" x="786.332031"/>
    <use xlink:href="#DejaVuSans-46" x="865.042969"/>
    <use xlink:href="#DejaVuSans-20" x="922.5625"/>
    <use xlink:href="#DejaVuSans-43" x="954.349609"/>
    <use xlink:href="#DejaVuSans-4f" x="1024.173828"/>
    <use xlink:href="#DejaVuSans-4e" x="1102.884766"/>
    <use xlink:href="#DejaVuSans-54" x="1177.689453"/>
    <use xlink:href="#DejaVuSans-49" x="1238.773438"/>
    <use xlink:href="#DejaVuSans-4e" x="1268.265625"/>
    <use xlink:href="#DejaVuSans-55" x="1343.070312"/>
    <use xlink:href="#DejaVuSans-4f" x="1416.263672"/>
    <use xlink:href="#DejaVuSans-55" x="1494.974609"/>
    <use xlink:href="#DejaVuSans-53" x="1568.167969"/>
    <use xlink:href="#DejaVuSans-20" x="1631.644531"/>
    <use xlink:href="#DejaVuSans-2d" x="1663.431641"/>
    <use xlink:href="#DejaVuSans-20" x="1699.515625"/>
    <use xlink:href="#DejaVuSans-37" x="1731.302734"/>
    <use xlink:href="#DejaVuSans-20" x="1794.925781"/>
    <use xlink:href="#DejaVuSans-53" x="1826.712891"/>
    <use xlink:href="#DejaVuSans-49" x="1890.189453"/>
    <use xlink:href="#DejaVuSans-4e" x="1919.681641"/>
    <use xlink:href="#DejaVuSans-45" x="1994.486328"/>
    <use xlink:href="#DejaVuSans-20" x="2057.669922"/>
    <use xlink:href="#DejaVuSans-30" x="2089.457031"/>
    <use xlink:href="#DejaVuSans-2e" x="2153.080078"/>
    <use xlink:href="#DejaVuSans-35" x="2184.867188"/>
   </g>
  </g>
 </g>
 <defs>
  <clipPath id="pf2c56dc82e">
   <rect x="60.352" y="54.672" width="209.274" height="397.688"/>
  </clipPath>
  <clipPath id="pbedb965483">
   <rect x="283.926" y="54.672" width="209.274" height="397.688"/>
  </clipPath>
 </defs>
</svg>
