<?xml version="1.0" encoding="utf-8" standalone="no"?>
<!DOCTYPE svg PUBLIC "-//W3C//DTD SVG 1.1//EN"
  "http://www.w3.org/Graphics/SVG/1.1/DTD/svg11.dtd">
<svg xmlns:xlink="http://www.w3.org/1999/xlink" width="864pt" height="360pt" viewBox="0 0 864 360" xmlns="http://www.w3.org/2000/svg" version="1.1">
 <metadata>
  <rdf:RDF xmlns:dc="http://purl.org/dc/elements/1.1/" xmlns:cc="http://creativecommons.org/ns#" xmlns:rdf="http://www.w3.org/1999/02/22-rdf-syntax-ns#">
   <cc:Work>
    <dc:type rdf:resource="http://purl.org/dc/dcmitype/StillImage"/>
    <dc:date>2023-08-03T16:36:05.553853</dc:date>
    <dc:format>image/svg+xml</dc:format>
    <dc:creator>
     <cc:Agent>
      <dc:title>Matplotlib v3.7.1, https://matplotlib.org/</dc:title>
     </cc:Agent>
    </dc:creator>
   </cc:Work>
  </rdf:RDF>
 </metadata>
 <defs>
  <style type="text/css">*{stroke-linejoin: round; stroke-linecap: butt}</style>
 </defs>
 <g id="figure_1">
  <g id="patch_1">
   <path d="M 0 360 
L 864 360 
L 864 0 
L 0 0 
z
" style="fill: #ffffff"/>
  </g>
  <g id="axes_1">
   <g id="patch_2">
    <path d="M 108 320.4 
L 777.6 320.4 
L 777.6 43.2 
L 108 43.2 
z
" style="fill: #ffffff"/>
   </g>
   <g id="matplotlib.axis_1">
    <g id="xtick_1">
     <g id="line2d_1">
      <defs>
       <path id="m0a5e95c3ab" d="M 0 0 
L 0 3.5 
" style="stroke: #000000; stroke-width: 0.8"/>
      </defs>
      <g>
       <use xlink:href="#m0a5e95c3ab" x="138.436364" y="320.4" style="stroke: #000000; stroke-width: 0.8"/>
      </g>
     </g>
     <g id="text_1">
      <!-- 2022-01-01 -->
      <g transform="translate(109.378551 334.998438) scale(0.1 -0.1)">
       <defs>
        <path id="DejaVuSans-32" d="M 1228 531 
L 3431 531 
L 3431 0 
L 469 0 
L 469 531 
Q 828 903 1448 1529 
Q 2069 2156 2228 2338 
Q 2531 2678 2651 2914 
Q 2772 3150 2772 3378 
Q 2772 3750 2511 3984 
Q 2250 4219 1831 4219 
Q 1534 4219 1204 4116 
Q 875 4013 500 3803 
L 500 4441 
Q 881 4594 1212 4672 
Q 1544 4750 1819 4750 
Q 2544 4750 2975 4387 
Q 3406 4025 3406 3419 
Q 3406 3131 3298 2873 
Q 3191 2616 2906 2266 
Q 2828 2175 2409 1742 
Q 1991 1309 1228 531 
z
" transform="scale(0.015625)"/>
        <path id="DejaVuSans-30" d="M 2034 4250 
Q 1547 4250 1301 3770 
Q 1056 3291 1056 2328 
Q 1056 1369 1301 889 
Q 1547 409 2034 409 
Q 2525 409 2770 889 
Q 3016 1369 3016 2328 
Q 3016 3291 2770 3770 
Q 2525 4250 2034 4250 
z
M 2034 4750 
Q 2819 4750 3233 4129 
Q 3647 3509 3647 2328 
Q 3647 1150 3233 529 
Q 2819 -91 2034 -91 
Q 1250 -91 836 529 
Q 422 1150 422 2328 
Q 422 3509 836 4129 
Q 1250 4750 2034 4750 
z
" transform="scale(0.015625)"/>
        <path id="DejaVuSans-2d" d="M 313 2009 
L 1997 2009 
L 1997 1497 
L 313 1497 
L 313 2009 
z
" transform="scale(0.015625)"/>
        <path id="DejaVuSans-31" d="M 794 531 
L 1825 531 
L 1825 4091 
L 703 3866 
L 703 4441 
L 1819 4666 
L 2450 4666 
L 2450 531 
L 3481 531 
L 3481 0 
L 794 0 
L 794 531 
z
" transform="scale(0.015625)"/>
       </defs>
       <use xlink:href="#DejaVuSans-32"/>
       <use xlink:href="#DejaVuSans-30" x="63.623047"/>
       <use xlink:href="#DejaVuSans-32" x="127.246094"/>
       <use xlink:href="#DejaVuSans-32" x="190.869141"/>
       <use xlink:href="#DejaVuSans-2d" x="254.492188"/>
       <use xlink:href="#DejaVuSans-30" x="290.576172"/>
       <use xlink:href="#DejaVuSans-31" x="354.199219"/>
       <use xlink:href="#DejaVuSans-2d" x="417.822266"/>
       <use xlink:href="#DejaVuSans-30" x="453.90625"/>
       <use xlink:href="#DejaVuSans-31" x="517.529297"/>
      </g>
     </g>
    </g>
    <g id="xtick_2">
     <g id="line2d_2">
      <g>
       <use xlink:href="#m0a5e95c3ab" x="210.139208" y="320.4" style="stroke: #000000; stroke-width: 0.8"/>
      </g>
     </g>
     <g id="text_2">
      <!-- 2022-01-03 -->
      <g transform="translate(181.081396 334.998438) scale(0.1 -0.1)">
       <defs>
        <path id="DejaVuSans-33" d="M 2597 2516 
Q 3050 2419 3304 2112 
Q 3559 1806 3559 1356 
Q 3559 666 3084 287 
Q 2609 -91 1734 -91 
Q 1441 -91 1130 -33 
Q 819 25 488 141 
L 488 750 
Q 750 597 1062 519 
Q 1375 441 1716 441 
Q 2309 441 2620 675 
Q 2931 909 2931 1356 
Q 2931 1769 2642 2001 
Q 2353 2234 1838 2234 
L 1294 2234 
L 1294 2753 
L 1863 2753 
Q 2328 2753 2575 2939 
Q 2822 3125 2822 3475 
Q 2822 3834 2567 4026 
Q 2313 4219 1838 4219 
Q 1578 4219 1281 4162 
Q 984 4106 628 3988 
L 628 4550 
Q 988 4650 1302 4700 
Q 1616 4750 1894 4750 
Q 2613 4750 3031 4423 
Q 3450 4097 3450 3541 
Q 3450 3153 3228 2886 
Q 3006 2619 2597 2516 
z
" transform="scale(0.015625)"/>
       </defs>
       <use xlink:href="#DejaVuSans-32"/>
       <use xlink:href="#DejaVuSans-30" x="63.623047"/>
       <use xlink:href="#DejaVuSans-32" x="127.246094"/>
       <use xlink:href="#DejaVuSans-32" x="190.869141"/>
       <use xlink:href="#DejaVuSans-2d" x="254.492188"/>
       <use xlink:href="#DejaVuSans-30" x="290.576172"/>
       <use xlink:href="#DejaVuSans-31" x="354.199219"/>
       <use xlink:href="#DejaVuSans-2d" x="417.822266"/>
       <use xlink:href="#DejaVuSans-30" x="453.90625"/>
       <use xlink:href="#DejaVuSans-33" x="517.529297"/>
      </g>
     </g>
    </g>
    <g id="xtick_3">
     <g id="line2d_3">
      <g>
       <use xlink:href="#m0a5e95c3ab" x="281.842052" y="320.4" style="stroke: #000000; stroke-width: 0.8"/>
      </g>
     </g>
     <g id="text_3">
      <!-- 2022-01-05 -->
      <g transform="translate(252.78424 334.998438) scale(0.1 -0.1)">
       <defs>
        <path id="DejaVuSans-35" d="M 691 4666 
L 3169 4666 
L 3169 4134 
L 1269 4134 
L 1269 2991 
Q 1406 3038 1543 3061 
Q 1681 3084 1819 3084 
Q 2600 3084 3056 2656 
Q 3513 2228 3513 1497 
Q 3513 744 3044 326 
Q 2575 -91 1722 -91 
Q 1428 -91 1123 -41 
Q 819 9 494 109 
L 494 744 
Q 775 591 1075 516 
Q 1375 441 1709 441 
Q 2250 441 2565 725 
Q 2881 1009 2881 1497 
Q 2881 1984 2565 2268 
Q 2250 2553 1709 2553 
Q 1456 2553 1204 2497 
Q 953 2441 691 2322 
L 691 4666 
z
" transform="scale(0.015625)"/>
       </defs>
       <use xlink:href="#DejaVuSans-32"/>
       <use xlink:href="#DejaVuSans-30" x="63.623047"/>
       <use xlink:href="#DejaVuSans-32" x="127.246094"/>
       <use xlink:href="#DejaVuSans-32" x="190.869141"/>
       <use xlink:href="#DejaVuSans-2d" x="254.492188"/>
       <use xlink:href="#DejaVuSans-30" x="290.576172"/>
       <use xlink:href="#DejaVuSans-31" x="354.199219"/>
       <use xlink:href="#DejaVuSans-2d" x="417.822266"/>
       <use xlink:href="#DejaVuSans-30" x="453.90625"/>
       <use xlink:href="#DejaVuSans-35" x="517.529297"/>
      </g>
     </g>
    </g>
    <g id="xtick_4">
     <g id="line2d_4">
      <g>
       <use xlink:href="#m0a5e95c3ab" x="353.544897" y="320.4" style="stroke: #000000; stroke-width: 0.8"/>
      </g>
     </g>
     <g id="text_4">
      <!-- 2022-01-07 -->
      <g transform="translate(324.487084 334.998438) scale(0.1 -0.1)">
       <defs>
        <path id="DejaVuSans-37" d="M 525 4666 
L 3525 4666 
L 3525 4397 
L 1831 0 
L 1172 0 
L 2766 4134 
L 525 4134 
L 525 4666 
z
" transform="scale(0.015625)"/>
       </defs>
       <use xlink:href="#DejaVuSans-32"/>
       <use xlink:href="#DejaVuSans-30" x="63.623047"/>
       <use xlink:href="#DejaVuSans-32" x="127.246094"/>
       <use xlink:href="#DejaVuSans-32" x="190.869141"/>
       <use xlink:href="#DejaVuSans-2d" x="254.492188"/>
       <use xlink:href="#DejaVuSans-30" x="290.576172"/>
       <use xlink:href="#DejaVuSans-31" x="354.199219"/>
       <use xlink:href="#DejaVuSans-2d" x="417.822266"/>
       <use xlink:href="#DejaVuSans-30" x="453.90625"/>
       <use xlink:href="#DejaVuSans-37" x="517.529297"/>
      </g>
     </g>
    </g>
    <g id="xtick_5">
     <g id="line2d_5">
      <g>
       <use xlink:href="#m0a5e95c3ab" x="425.247741" y="320.4" style="stroke: #000000; stroke-width: 0.8"/>
      </g>
     </g>
     <g id="text_5">
      <!-- 2022-01-09 -->
      <g transform="translate(396.189929 334.998438) scale(0.1 -0.1)">
       <defs>
        <path id="DejaVuSans-39" d="M 703 97 
L 703 672 
Q 941 559 1184 500 
Q 1428 441 1663 441 
Q 2288 441 2617 861 
Q 2947 1281 2994 2138 
Q 2813 1869 2534 1725 
Q 2256 1581 1919 1581 
Q 1219 1581 811 2004 
Q 403 2428 403 3163 
Q 403 3881 828 4315 
Q 1253 4750 1959 4750 
Q 2769 4750 3195 4129 
Q 3622 3509 3622 2328 
Q 3622 1225 3098 567 
Q 2575 -91 1691 -91 
Q 1453 -91 1209 -44 
Q 966 3 703 97 
z
M 1959 2075 
Q 2384 2075 2632 2365 
Q 2881 2656 2881 3163 
Q 2881 3666 2632 3958 
Q 2384 4250 1959 4250 
Q 1534 4250 1286 3958 
Q 1038 3666 1038 3163 
Q 1038 2656 1286 2365 
Q 1534 2075 1959 2075 
z
" transform="scale(0.015625)"/>
       </defs>
       <use xlink:href="#DejaVuSans-32"/>
       <use xlink:href="#DejaVuSans-30" x="63.623047"/>
       <use xlink:href="#DejaVuSans-32" x="127.246094"/>
       <use xlink:href="#DejaVuSans-32" x="190.869141"/>
       <use xlink:href="#DejaVuSans-2d" x="254.492188"/>
       <use xlink:href="#DejaVuSans-30" x="290.576172"/>
       <use xlink:href="#DejaVuSans-31" x="354.199219"/>
       <use xlink:href="#DejaVuSans-2d" x="417.822266"/>
       <use xlink:href="#DejaVuSans-30" x="453.90625"/>
       <use xlink:href="#DejaVuSans-39" x="517.529297"/>
      </g>
     </g>
    </g>
    <g id="xtick_6">
     <g id="line2d_6">
      <g>
       <use xlink:href="#m0a5e95c3ab" x="496.950586" y="320.4" style="stroke: #000000; stroke-width: 0.8"/>
      </g>
     </g>
     <g id="text_6">
      <!-- 2022-01-11 -->
      <g transform="translate(467.892773 334.998438) scale(0.1 -0.1)">
       <use xlink:href="#DejaVuSans-32"/>
       <use xlink:href="#DejaVuSans-30" x="63.623047"/>
       <use xlink:href="#DejaVuSans-32" x="127.246094"/>
       <use xlink:href="#DejaVuSans-32" x="190.869141"/>
       <use xlink:href="#DejaVuSans-2d" x="254.492188"/>
       <use xlink:href="#DejaVuSans-30" x="290.576172"/>
       <use xlink:href="#DejaVuSans-31" x="354.199219"/>
       <use xlink:href="#DejaVuSans-2d" x="417.822266"/>
       <use xlink:href="#DejaVuSans-31" x="453.90625"/>
       <use xlink:href="#DejaVuSans-31" x="517.529297"/>
      </g>
     </g>
    </g>
    <g id="xtick_7">
     <g id="line2d_7">
      <g>
       <use xlink:href="#m0a5e95c3ab" x="568.65343" y="320.4" style="stroke: #000000; stroke-width: 0.8"/>
      </g>
     </g>
     <g id="text_7">
      <!-- 2022-01-13 -->
      <g transform="translate(539.595618 334.998438) scale(0.1 -0.1)">
       <use xlink:href="#DejaVuSans-32"/>
       <use xlink:href="#DejaVuSans-30" x="63.623047"/>
       <use xlink:href="#DejaVuSans-32" x="127.246094"/>
       <use xlink:href="#DejaVuSans-32" x="190.869141"/>
       <use xlink:href="#DejaVuSans-2d" x="254.492188"/>
       <use xlink:href="#DejaVuSans-30" x="290.576172"/>
       <use xlink:href="#DejaVuSans-31" x="354.199219"/>
       <use xlink:href="#DejaVuSans-2d" x="417.822266"/>
       <use xlink:href="#DejaVuSans-31" x="453.90625"/>
       <use xlink:href="#DejaVuSans-33" x="517.529297"/>
      </g>
     </g>
    </g>
    <g id="xtick_8">
     <g id="line2d_8">
      <g>
       <use xlink:href="#m0a5e95c3ab" x="640.356274" y="320.4" style="stroke: #000000; stroke-width: 0.8"/>
      </g>
     </g>
     <g id="text_8">
      <!-- 2022-01-15 -->
      <g transform="translate(611.298462 334.998438) scale(0.1 -0.1)">
       <use xlink:href="#DejaVuSans-32"/>
       <use xlink:href="#DejaVuSans-30" x="63.623047"/>
       <use xlink:href="#DejaVuSans-32" x="127.246094"/>
       <use xlink:href="#DejaVuSans-32" x="190.869141"/>
       <use xlink:href="#DejaVuSans-2d" x="254.492188"/>
       <use xlink:href="#DejaVuSans-30" x="290.576172"/>
       <use xlink:href="#DejaVuSans-31" x="354.199219"/>
       <use xlink:href="#DejaVuSans-2d" x="417.822266"/>
       <use xlink:href="#DejaVuSans-31" x="453.90625"/>
       <use xlink:href="#DejaVuSans-35" x="517.529297"/>
      </g>
     </g>
    </g>
    <g id="xtick_9">
     <g id="line2d_9">
      <g>
       <use xlink:href="#m0a5e95c3ab" x="712.059119" y="320.4" style="stroke: #000000; stroke-width: 0.8"/>
      </g>
     </g>
     <g id="text_9">
      <!-- 2022-01-17 -->
      <g transform="translate(683.001306 334.998438) scale(0.1 -0.1)">
       <use xlink:href="#DejaVuSans-32"/>
       <use xlink:href="#DejaVuSans-30" x="63.623047"/>
       <use xlink:href="#DejaVuSans-32" x="127.246094"/>
       <use xlink:href="#DejaVuSans-32" x="190.869141"/>
       <use xlink:href="#DejaVuSans-2d" x="254.492188"/>
       <use xlink:href="#DejaVuSans-30" x="290.576172"/>
       <use xlink:href="#DejaVuSans-31" x="354.199219"/>
       <use xlink:href="#DejaVuSans-2d" x="417.822266"/>
       <use xlink:href="#DejaVuSans-31" x="453.90625"/>
       <use xlink:href="#DejaVuSans-37" x="517.529297"/>
      </g>
     </g>
    </g>
    <g id="text_10">
     <!-- TIME (DAYS) -->
     <g transform="translate(412.283594 348.676562) scale(0.1 -0.1)">
      <defs>
       <path id="DejaVuSans-54" d="M -19 4666 
L 3928 4666 
L 3928 4134 
L 2272 4134 
L 2272 0 
L 1638 0 
L 1638 4134 
L -19 4134 
L -19 4666 
z
" transform="scale(0.015625)"/>
       <path id="DejaVuSans-49" d="M 628 4666 
L 1259 4666 
L 1259 0 
L 628 0 
L 628 4666 
z
" transform="scale(0.015625)"/>
       <path id="DejaVuSans-4d" d="M 628 4666 
L 1569 4666 
L 2759 1491 
L 3956 4666 
L 4897 4666 
L 4897 0 
L 4281 0 
L 4281 4097 
L 3078 897 
L 2444 897 
L 1241 4097 
L 1241 0 
L 628 0 
L 628 4666 
z
" transform="scale(0.015625)"/>
       <path id="DejaVuSans-45" d="M 628 4666 
L 3578 4666 
L 3578 4134 
L 1259 4134 
L 1259 2753 
L 3481 2753 
L 3481 2222 
L 1259 2222 
L 1259 531 
L 3634 531 
L 3634 0 
L 628 0 
L 628 4666 
z
" transform="scale(0.015625)"/>
       <path id="DejaVuSans-20" transform="scale(0.015625)"/>
       <path id="DejaVuSans-28" d="M 1984 4856 
Q 1566 4138 1362 3434 
Q 1159 2731 1159 2009 
Q 1159 1288 1364 580 
Q 1569 -128 1984 -844 
L 1484 -844 
Q 1016 -109 783 600 
Q 550 1309 550 2009 
Q 550 2706 781 3412 
Q 1013 4119 1484 4856 
L 1984 4856 
z
" transform="scale(0.015625)"/>
       <path id="DejaVuSans-44" d="M 1259 4147 
L 1259 519 
L 2022 519 
Q 2988 519 3436 956 
Q 3884 1394 3884 2338 
Q 3884 3275 3436 3711 
Q 2988 4147 2022 4147 
L 1259 4147 
z
M 628 4666 
L 1925 4666 
Q 3281 4666 3915 4102 
Q 4550 3538 4550 2338 
Q 4550 1131 3912 565 
Q 3275 0 1925 0 
L 628 0 
L 628 4666 
z
" transform="scale(0.015625)"/>
       <path id="DejaVuSans-41" d="M 2188 4044 
L 1331 1722 
L 3047 1722 
L 2188 4044 
z
M 1831 4666 
L 2547 4666 
L 4325 0 
L 3669 0 
L 3244 1197 
L 1141 1197 
L 716 0 
L 50 0 
L 1831 4666 
z
" transform="scale(0.015625)"/>
       <path id="DejaVuSans-59" d="M -13 4666 
L 666 4666 
L 1959 2747 
L 3244 4666 
L 3922 4666 
L 2272 2222 
L 2272 0 
L 1638 0 
L 1638 2222 
L -13 4666 
z
" transform="scale(0.015625)"/>
       <path id="DejaVuSans-53" d="M 3425 4513 
L 3425 3897 
Q 3066 4069 2747 4153 
Q 2428 4238 2131 4238 
Q 1616 4238 1336 4038 
Q 1056 3838 1056 3469 
Q 1056 3159 1242 3001 
Q 1428 2844 1947 2747 
L 2328 2669 
Q 3034 2534 3370 2195 
Q 3706 1856 3706 1288 
Q 3706 609 3251 259 
Q 2797 -91 1919 -91 
Q 1588 -91 1214 -16 
Q 841 59 441 206 
L 441 856 
Q 825 641 1194 531 
Q 1563 422 1919 422 
Q 2459 422 2753 634 
Q 3047 847 3047 1241 
Q 3047 1584 2836 1778 
Q 2625 1972 2144 2069 
L 1759 2144 
Q 1053 2284 737 2584 
Q 422 2884 422 3419 
Q 422 4038 858 4394 
Q 1294 4750 2059 4750 
Q 2388 4750 2728 4690 
Q 3069 4631 3425 4513 
z
" transform="scale(0.015625)"/>
       <path id="DejaVuSans-29" d="M 513 4856 
L 1013 4856 
Q 1481 4119 1714 3412 
Q 1947 2706 1947 2009 
Q 1947 1309 1714 600 
Q 1481 -109 1013 -844 
L 513 -844 
Q 928 -128 1133 580 
Q 1338 1288 1338 2009 
Q 1338 2731 1133 3434 
Q 928 4138 513 4856 
z
" transform="scale(0.015625)"/>
      </defs>
      <use xlink:href="#DejaVuSans-54"/>
      <use xlink:href="#DejaVuSans-49" x="61.083984"/>
      <use xlink:href="#DejaVuSans-4d" x="90.576172"/>
      <use xlink:href="#DejaVuSans-45" x="176.855469"/>
      <use xlink:href="#DejaVuSans-20" x="240.039062"/>
      <use xlink:href="#DejaVuSans-28" x="271.826172"/>
      <use xlink:href="#DejaVuSans-44" x="310.839844"/>
      <use xlink:href="#DejaVuSans-41" x="386.091797"/>
      <use xlink:href="#DejaVuSans-59" x="446.75"/>
      <use xlink:href="#DejaVuSans-53" x="507.833984"/>
      <use xlink:href="#DejaVuSans-29" x="571.310547"/>
     </g>
    </g>
   </g>
   <g id="matplotlib.axis_2">
    <g id="ytick_1">
     <g id="line2d_10">
      <defs>
       <path id="med45465079" d="M 0 0 
L -3.5 0 
" style="stroke: #000000; stroke-width: 0.8"/>
      </defs>
      <g>
       <use xlink:href="#med45465079" x="108" y="307.8" style="stroke: #000000; stroke-width: 0.8"/>
      </g>
     </g>
     <g id="text_11">
      <!-- 0 -->
      <g transform="translate(94.6375 311.599219) scale(0.1 -0.1)">
       <use xlink:href="#DejaVuSans-30"/>
      </g>
     </g>
    </g>
    <g id="ytick_2">
     <g id="line2d_11">
      <g>
       <use xlink:href="#med45465079" x="108" y="275.072727" style="stroke: #000000; stroke-width: 0.8"/>
      </g>
     </g>
     <g id="text_12">
      <!-- 20 -->
      <g transform="translate(88.275 278.871946) scale(0.1 -0.1)">
       <use xlink:href="#DejaVuSans-32"/>
       <use xlink:href="#DejaVuSans-30" x="63.623047"/>
      </g>
     </g>
    </g>
    <g id="ytick_3">
     <g id="line2d_12">
      <g>
       <use xlink:href="#med45465079" x="108" y="242.345455" style="stroke: #000000; stroke-width: 0.8"/>
      </g>
     </g>
     <g id="text_13">
      <!-- 40 -->
      <g transform="translate(88.275 246.144673) scale(0.1 -0.1)">
       <defs>
        <path id="DejaVuSans-34" d="M 2419 4116 
L 825 1625 
L 2419 1625 
L 2419 4116 
z
M 2253 4666 
L 3047 4666 
L 3047 1625 
L 3713 1625 
L 3713 1100 
L 3047 1100 
L 3047 0 
L 2419 0 
L 2419 1100 
L 313 1100 
L 313 1709 
L 2253 4666 
z
" transform="scale(0.015625)"/>
       </defs>
       <use xlink:href="#DejaVuSans-34"/>
       <use xlink:href="#DejaVuSans-30" x="63.623047"/>
      </g>
     </g>
    </g>
    <g id="ytick_4">
     <g id="line2d_13">
      <g>
       <use xlink:href="#med45465079" x="108" y="209.618182" style="stroke: #000000; stroke-width: 0.8"/>
      </g>
     </g>
     <g id="text_14">
      <!-- 60 -->
      <g transform="translate(88.275 213.417401) scale(0.1 -0.1)">
       <defs>
        <path id="DejaVuSans-36" d="M 2113 2584 
Q 1688 2584 1439 2293 
Q 1191 2003 1191 1497 
Q 1191 994 1439 701 
Q 1688 409 2113 409 
Q 2538 409 2786 701 
Q 3034 994 3034 1497 
Q 3034 2003 2786 2293 
Q 2538 2584 2113 2584 
z
M 3366 4563 
L 3366 3988 
Q 3128 4100 2886 4159 
Q 2644 4219 2406 4219 
Q 1781 4219 1451 3797 
Q 1122 3375 1075 2522 
Q 1259 2794 1537 2939 
Q 1816 3084 2150 3084 
Q 2853 3084 3261 2657 
Q 3669 2231 3669 1497 
Q 3669 778 3244 343 
Q 2819 -91 2113 -91 
Q 1303 -91 875 529 
Q 447 1150 447 2328 
Q 447 3434 972 4092 
Q 1497 4750 2381 4750 
Q 2619 4750 2861 4703 
Q 3103 4656 3366 4563 
z
" transform="scale(0.015625)"/>
       </defs>
       <use xlink:href="#DejaVuSans-36"/>
       <use xlink:href="#DejaVuSans-30" x="63.623047"/>
      </g>
     </g>
    </g>
    <g id="ytick_5">
     <g id="line2d_14">
      <g>
       <use xlink:href="#med45465079" x="108" y="176.890909" style="stroke: #000000; stroke-width: 0.8"/>
      </g>
     </g>
     <g id="text_15">
      <!-- 80 -->
      <g transform="translate(88.275 180.690128) scale(0.1 -0.1)">
       <defs>
        <path id="DejaVuSans-38" d="M 2034 2216 
Q 1584 2216 1326 1975 
Q 1069 1734 1069 1313 
Q 1069 891 1326 650 
Q 1584 409 2034 409 
Q 2484 409 2743 651 
Q 3003 894 3003 1313 
Q 3003 1734 2745 1975 
Q 2488 2216 2034 2216 
z
M 1403 2484 
Q 997 2584 770 2862 
Q 544 3141 544 3541 
Q 544 4100 942 4425 
Q 1341 4750 2034 4750 
Q 2731 4750 3128 4425 
Q 3525 4100 3525 3541 
Q 3525 3141 3298 2862 
Q 3072 2584 2669 2484 
Q 3125 2378 3379 2068 
Q 3634 1759 3634 1313 
Q 3634 634 3220 271 
Q 2806 -91 2034 -91 
Q 1263 -91 848 271 
Q 434 634 434 1313 
Q 434 1759 690 2068 
Q 947 2378 1403 2484 
z
M 1172 3481 
Q 1172 3119 1398 2916 
Q 1625 2713 2034 2713 
Q 2441 2713 2670 2916 
Q 2900 3119 2900 3481 
Q 2900 3844 2670 4047 
Q 2441 4250 2034 4250 
Q 1625 4250 1398 4047 
Q 1172 3844 1172 3481 
z
" transform="scale(0.015625)"/>
       </defs>
       <use xlink:href="#DejaVuSans-38"/>
       <use xlink:href="#DejaVuSans-30" x="63.623047"/>
      </g>
     </g>
    </g>
    <g id="ytick_6">
     <g id="line2d_15">
      <g>
       <use xlink:href="#med45465079" x="108" y="144.163636" style="stroke: #000000; stroke-width: 0.8"/>
      </g>
     </g>
     <g id="text_16">
      <!-- 100 -->
      <g transform="translate(81.9125 147.962855) scale(0.1 -0.1)">
       <use xlink:href="#DejaVuSans-31"/>
       <use xlink:href="#DejaVuSans-30" x="63.623047"/>
       <use xlink:href="#DejaVuSans-30" x="127.246094"/>
      </g>
     </g>
    </g>
    <g id="ytick_7">
     <g id="line2d_16">
      <g>
       <use xlink:href="#med45465079" x="108" y="111.436364" style="stroke: #000000; stroke-width: 0.8"/>
      </g>
     </g>
     <g id="text_17">
      <!-- 120 -->
      <g transform="translate(81.9125 115.235582) scale(0.1 -0.1)">
       <use xlink:href="#DejaVuSans-31"/>
       <use xlink:href="#DejaVuSans-32" x="63.623047"/>
       <use xlink:href="#DejaVuSans-30" x="127.246094"/>
      </g>
     </g>
    </g>
    <g id="ytick_8">
     <g id="line2d_17">
      <g>
       <use xlink:href="#med45465079" x="108" y="78.709091" style="stroke: #000000; stroke-width: 0.8"/>
      </g>
     </g>
     <g id="text_18">
      <!-- 140 -->
      <g transform="translate(81.9125 82.50831) scale(0.1 -0.1)">
       <use xlink:href="#DejaVuSans-31"/>
       <use xlink:href="#DejaVuSans-34" x="63.623047"/>
       <use xlink:href="#DejaVuSans-30" x="127.246094"/>
      </g>
     </g>
    </g>
    <g id="ytick_9">
     <g id="line2d_18">
      <g>
       <use xlink:href="#med45465079" x="108" y="45.981818" style="stroke: #000000; stroke-width: 0.8"/>
      </g>
     </g>
     <g id="text_19">
      <!-- 160 -->
      <g transform="translate(81.9125 49.781037) scale(0.1 -0.1)">
       <use xlink:href="#DejaVuSans-31"/>
       <use xlink:href="#DejaVuSans-36" x="63.623047"/>
       <use xlink:href="#DejaVuSans-30" x="127.246094"/>
      </g>
     </g>
    </g>
    <g id="text_20">
     <!-- AMPLITUDE -->
     <g transform="translate(75.832812 210.532812) rotate(-90) scale(0.1 -0.1)">
      <defs>
       <path id="DejaVuSans-50" d="M 1259 4147 
L 1259 2394 
L 2053 2394 
Q 2494 2394 2734 2622 
Q 2975 2850 2975 3272 
Q 2975 3691 2734 3919 
Q 2494 4147 2053 4147 
L 1259 4147 
z
M 628 4666 
L 2053 4666 
Q 2838 4666 3239 4311 
Q 3641 3956 3641 3272 
Q 3641 2581 3239 2228 
Q 2838 1875 2053 1875 
L 1259 1875 
L 1259 0 
L 628 0 
L 628 4666 
z
" transform="scale(0.015625)"/>
       <path id="DejaVuSans-4c" d="M 628 4666 
L 1259 4666 
L 1259 531 
L 3531 531 
L 3531 0 
L 628 0 
L 628 4666 
z
" transform="scale(0.015625)"/>
       <path id="DejaVuSans-55" d="M 556 4666 
L 1191 4666 
L 1191 1831 
Q 1191 1081 1462 751 
Q 1734 422 2344 422 
Q 2950 422 3222 751 
Q 3494 1081 3494 1831 
L 3494 4666 
L 4128 4666 
L 4128 1753 
Q 4128 841 3676 375 
Q 3225 -91 2344 -91 
Q 1459 -91 1007 375 
Q 556 841 556 1753 
L 556 4666 
z
" transform="scale(0.015625)"/>
      </defs>
      <use xlink:href="#DejaVuSans-41"/>
      <use xlink:href="#DejaVuSans-4d" x="68.408203"/>
      <use xlink:href="#DejaVuSans-50" x="154.6875"/>
      <use xlink:href="#DejaVuSans-4c" x="214.990234"/>
      <use xlink:href="#DejaVuSans-49" x="270.703125"/>
      <use xlink:href="#DejaVuSans-54" x="300.195312"/>
      <use xlink:href="#DejaVuSans-55" x="361.279297"/>
      <use xlink:href="#DejaVuSans-44" x="434.472656"/>
      <use xlink:href="#DejaVuSans-45" x="511.474609"/>
     </g>
    </g>
   </g>
   <g id="line2d_19">
    <path d="M 138.436364 178.527273 
L 139.183268 258.709091 
L 139.930173 193.254545 
L 140.677078 257.072727 
L 141.423982 245.618182 
L 142.170887 247.254545 
L 142.917791 240.709091 
L 144.411601 302.890909 
L 145.158505 307.8 
L 145.90541 248.890909 
L 146.652315 307.8 
L 149.639933 307.8 
L 150.386838 248.890909 
L 151.133742 297.981818 
L 151.880647 307.8 
L 152.627552 302.890909 
L 153.374456 247.254545 
L 154.121361 307.8 
L 154.868265 266.890909 
L 155.61517 288.163636 
L 156.362075 212.890909 
L 157.108979 221.072727 
L 157.855884 212.890909 
L 158.602789 160.527273 
L 159.349693 175.254545 
L 160.096598 168.709091 
L 160.843503 135.981818 
L 161.590407 113.072727 
L 162.337312 155.618182 
L 163.084216 152.345455 
L 163.831121 183.436364 
L 164.578026 83.618182 
L 165.32493 152.345455 
L 166.071835 158.890909 
L 166.81874 170.345455 
L 167.565644 168.709091 
L 168.312549 153.981818 
L 169.059453 111.436364 
L 169.806358 180.163636 
L 170.553263 157.254545 
L 171.300167 178.527273 
L 172.047072 214.527273 
L 172.793977 209.618182 
L 173.540881 237.436364 
L 174.287786 201.436364 
L 175.03469 243.981818 
L 175.781595 229.254545 
L 176.5285 276.709091 
L 177.275404 283.254545 
L 178.022309 307.8 
L 178.769214 304.527273 
L 179.516118 307.8 
L 181.009927 307.8 
L 181.756832 279.981818 
L 182.503737 307.8 
L 183.250641 279.981818 
L 183.997546 307.8 
L 184.744451 293.072727 
L 185.491355 255.436364 
L 186.23826 271.8 
L 186.985165 247.254545 
L 187.732069 293.072727 
L 188.478974 266.890909 
L 189.225878 250.527273 
L 189.972783 279.981818 
L 190.719688 186.709091 
L 191.466592 203.072727 
L 192.213497 153.981818 
L 192.960402 214.527273 
L 193.707306 152.345455 
L 194.454211 180.163636 
L 195.201115 199.8 
L 195.94802 113.072727 
L 196.694925 78.709091 
L 197.441829 165.436364 
L 198.188734 127.8 
L 198.935639 160.527273 
L 199.682543 180.163636 
L 200.429448 163.8 
L 201.176352 99.981818 
L 201.923257 153.981818 
L 202.670162 219.436364 
L 203.417066 253.8 
L 204.163971 149.072727 
L 204.910876 132.709091 
L 205.65778 201.436364 
L 206.404685 216.163636 
L 207.15159 227.618182 
L 207.898494 193.254545 
L 208.645399 224.345455 
L 209.392303 248.890909 
L 210.139208 268.527273 
L 210.886113 258.709091 
L 211.633017 240.709091 
L 212.379922 307.8 
L 213.126827 221.072727 
L 213.873731 306.163636 
L 214.620636 276.709091 
L 215.36754 284.890909 
L 216.114445 296.345455 
L 216.86135 304.527273 
L 217.608254 286.527273 
L 218.355159 307.8 
L 219.102064 307.8 
L 219.848968 304.527273 
L 220.595873 307.8 
L 221.342777 307.8 
L 222.089682 250.527273 
L 222.836587 279.981818 
L 223.583491 237.436364 
L 224.330396 255.436364 
L 225.077301 243.981818 
L 225.824205 167.072727 
L 226.57111 239.072727 
L 227.318015 193.254545 
L 228.064919 191.618182 
L 228.811824 198.163636 
L 229.558728 186.709091 
L 230.305633 155.618182 
L 231.052538 135.981818 
L 231.799442 152.345455 
L 233.293252 114.709091 
L 234.040156 122.890909 
L 234.787061 104.890909 
L 235.533965 199.8 
L 236.28087 73.8 
L 237.027775 140.890909 
L 237.774679 175.254545 
L 238.521584 144.163636 
L 239.268489 147.436364 
L 240.015393 132.709091 
L 240.762298 196.527273 
L 241.509202 158.890909 
L 242.256107 237.436364 
L 243.003012 227.618182 
L 243.749916 201.436364 
L 244.496821 239.072727 
L 245.243726 180.163636 
L 245.99063 270.163636 
L 246.737535 307.8 
L 247.484439 239.072727 
L 248.231344 301.254545 
L 248.978249 307.8 
L 249.725153 291.436364 
L 250.472058 307.8 
L 251.218963 307.8 
L 251.965867 293.072727 
L 252.712772 307.8 
L 253.459677 284.890909 
L 254.206581 275.072727 
L 254.953486 307.8 
L 255.70039 263.618182 
L 256.447295 307.8 
L 257.1942 306.163636 
L 257.941104 276.709091 
L 258.688009 270.163636 
L 259.434914 302.890909 
L 260.181818 286.527273 
L 260.928723 199.8 
L 261.675627 167.072727 
L 262.422532 230.890909 
L 263.169437 176.890909 
L 263.916341 135.981818 
L 264.663246 196.527273 
L 265.410151 165.436364 
L 266.157055 216.163636 
L 266.90396 170.345455 
L 267.650864 114.709091 
L 268.397769 203.072727 
L 269.144674 167.072727 
L 269.891578 158.890909 
L 270.638483 147.436364 
L 271.385388 165.436364 
L 272.132292 145.8 
L 272.879197 142.527273 
L 273.626102 201.436364 
L 274.373006 160.527273 
L 275.119911 147.436364 
L 275.866815 188.345455 
L 276.61372 147.436364 
L 277.360625 181.8 
L 278.107529 283.254545 
L 278.854434 271.8 
L 279.601339 239.072727 
L 280.348243 214.527273 
L 281.095148 243.981818 
L 281.842052 268.527273 
L 282.588957 304.527273 
L 283.335862 307.8 
L 284.082766 293.072727 
L 284.829671 286.527273 
L 286.32348 307.8 
L 287.070385 263.618182 
L 287.817289 307.8 
L 289.311099 307.8 
L 290.058003 271.8 
L 290.804908 291.436364 
L 291.551813 266.890909 
L 292.298717 263.618182 
L 293.045622 276.709091 
L 293.792526 242.345455 
L 294.539431 194.890909 
L 295.286336 222.709091 
L 296.03324 193.254545 
L 296.780145 207.981818 
L 297.52705 198.163636 
L 298.273954 147.436364 
L 299.020859 207.981818 
L 299.767764 175.254545 
L 300.514668 152.345455 
L 301.261573 155.618182 
L 302.008477 122.890909 
L 302.755382 186.709091 
L 303.502287 186.709091 
L 304.249191 122.890909 
L 304.996096 104.890909 
L 305.743001 149.072727 
L 306.489905 117.981818 
L 307.23681 134.345455 
L 307.983714 198.163636 
L 308.730619 188.345455 
L 309.477524 142.527273 
L 310.224428 180.163636 
L 310.971333 199.8 
L 311.718238 189.981818 
L 312.465142 245.618182 
L 313.212047 235.8 
L 313.958951 276.709091 
L 314.705856 160.527273 
L 315.452761 230.890909 
L 316.199665 260.345455 
L 316.94657 299.618182 
L 317.693475 261.981818 
L 318.440379 304.527273 
L 319.187284 283.254545 
L 319.934189 307.8 
L 320.681093 302.890909 
L 321.427998 281.618182 
L 322.174902 291.436364 
L 322.921807 306.163636 
L 323.668712 281.618182 
L 324.415616 307.8 
L 325.162521 278.345455 
L 325.909426 224.345455 
L 326.65633 284.890909 
L 327.403235 257.072727 
L 328.150139 283.254545 
L 328.897044 216.163636 
L 329.643949 278.345455 
L 330.390853 214.527273 
L 331.137758 219.436364 
L 331.884663 230.890909 
L 332.631567 137.618182 
L 333.378472 201.436364 
L 334.125376 216.163636 
L 335.619186 132.709091 
L 336.36609 145.8 
L 337.112995 183.436364 
L 337.8599 230.890909 
L 338.606804 168.709091 
L 339.353709 157.254545 
L 340.100613 117.981818 
L 340.847518 101.618182 
L 342.341327 199.8 
L 343.088232 113.072727 
L 343.835137 111.436364 
L 345.328946 204.709091 
L 346.075851 211.254545 
L 346.822755 216.163636 
L 347.56966 217.8 
L 348.316564 257.072727 
L 349.063469 219.436364 
L 349.810374 260.345455 
L 350.557278 232.527273 
L 351.304183 257.072727 
L 352.051088 271.8 
L 352.797992 296.345455 
L 353.544897 307.8 
L 354.291801 299.618182 
L 355.038706 270.163636 
L 355.785611 271.8 
L 356.532515 245.618182 
L 357.27942 296.345455 
L 358.026325 307.8 
L 358.773229 263.618182 
L 359.520134 307.8 
L 360.267038 296.345455 
L 361.013943 304.527273 
L 361.760848 279.981818 
L 362.507752 243.981818 
L 363.254657 250.527273 
L 364.001562 243.981818 
L 364.748466 271.8 
L 365.495371 145.8 
L 366.242276 242.345455 
L 366.98918 266.890909 
L 367.736085 139.254545 
L 368.482989 240.709091 
L 369.229894 153.981818 
L 369.976799 158.890909 
L 370.723703 189.981818 
L 371.470608 160.527273 
L 372.217513 173.618182 
L 372.964417 152.345455 
L 373.711322 163.8 
L 374.458226 126.163636 
L 375.205131 109.8 
L 375.952036 178.527273 
L 376.69894 127.8 
L 377.445845 199.8 
L 378.19275 193.254545 
L 378.939654 140.890909 
L 379.686559 144.163636 
L 380.433463 198.163636 
L 381.180368 203.072727 
L 381.927273 147.436364 
L 382.674177 234.163636 
L 383.421082 276.709091 
L 384.167987 275.072727 
L 384.914891 250.527273 
L 385.661796 255.436364 
L 386.408701 270.163636 
L 387.155605 307.8 
L 387.90251 279.981818 
L 388.649414 265.254545 
L 389.396319 307.8 
L 390.143224 281.618182 
L 390.890128 307.8 
L 391.637033 278.345455 
L 392.383938 307.8 
L 393.130842 266.890909 
L 393.877747 307.8 
L 394.624651 307.8 
L 395.371556 283.254545 
L 396.118461 307.8 
L 396.865365 270.163636 
L 397.61227 275.072727 
L 398.359175 243.981818 
L 399.106079 265.254545 
L 399.852984 279.981818 
L 400.599888 225.981818 
L 401.346793 222.709091 
L 402.093698 230.890909 
L 402.840602 163.8 
L 403.587507 150.709091 
L 404.334412 91.8 
L 405.081316 134.345455 
L 405.828221 191.618182 
L 406.575125 176.890909 
L 407.32203 124.527273 
L 408.068935 145.8 
L 408.815839 189.981818 
L 409.562744 65.618182 
L 410.309649 98.345455 
L 411.056553 150.709091 
L 411.803458 219.436364 
L 412.550363 142.527273 
L 413.297267 168.709091 
L 414.044172 188.345455 
L 414.791076 132.709091 
L 415.537981 178.527273 
L 416.284886 153.981818 
L 417.03179 219.436364 
L 417.778695 206.345455 
L 418.5256 168.709091 
L 419.272504 266.890909 
L 420.019409 224.345455 
L 420.766313 216.163636 
L 421.513218 227.618182 
L 422.260123 260.345455 
L 423.007027 302.890909 
L 423.753932 307.8 
L 424.500837 281.618182 
L 425.247741 307.8 
L 425.994646 307.8 
L 426.74155 265.254545 
L 427.488455 307.8 
L 431.969883 307.8 
L 432.716788 276.709091 
L 433.463692 261.981818 
L 434.210597 234.163636 
L 434.957501 216.163636 
L 435.704406 207.981818 
L 436.451311 214.527273 
L 437.198215 242.345455 
L 437.94512 239.072727 
L 438.692025 189.981818 
L 439.438929 212.890909 
L 440.185834 209.618182 
L 440.932738 189.981818 
L 441.679643 193.254545 
L 442.426548 147.436364 
L 443.173452 135.981818 
L 443.920357 106.527273 
L 444.667262 191.618182 
L 446.161071 114.709091 
L 446.907975 149.072727 
L 447.65488 227.618182 
L 448.401785 186.709091 
L 449.148689 188.345455 
L 449.895594 114.709091 
L 450.642499 201.436364 
L 451.389403 147.436364 
L 452.136308 203.072727 
L 452.883212 167.072727 
L 453.630117 301.254545 
L 454.377022 211.254545 
L 455.123926 212.890909 
L 455.870831 248.890909 
L 456.617736 278.345455 
L 457.36464 281.618182 
L 458.111545 283.254545 
L 458.85845 304.527273 
L 459.605354 294.709091 
L 460.352259 304.527273 
L 461.099163 307.8 
L 465.580591 307.8 
L 467.0744 221.072727 
L 467.821305 230.890909 
L 468.56821 234.163636 
L 469.315114 214.527273 
L 470.062019 221.072727 
L 470.808924 261.981818 
L 472.302733 198.163636 
L 473.049637 189.981818 
L 473.796542 227.618182 
L 474.543447 188.345455 
L 475.290351 167.072727 
L 476.037256 101.618182 
L 476.784161 129.436364 
L 477.531065 131.072727 
L 478.27797 168.709091 
L 479.024875 193.254545 
L 479.771779 124.527273 
L 480.518684 178.527273 
L 481.265588 181.8 
L 482.012493 132.709091 
L 482.759398 153.981818 
L 483.506302 113.072727 
L 484.253207 147.436364 
L 485.000112 193.254545 
L 485.747016 173.618182 
L 486.493921 229.254545 
L 487.240825 186.709091 
L 487.98773 284.890909 
L 488.734635 265.254545 
L 489.481539 271.8 
L 490.228444 271.8 
L 490.975349 307.8 
L 491.722253 278.345455 
L 492.469158 261.981818 
L 493.216062 307.8 
L 493.962967 235.8 
L 494.709872 307.8 
L 495.456776 243.981818 
L 496.203681 279.981818 
L 496.950586 288.163636 
L 497.69749 291.436364 
L 498.444395 307.8 
L 499.191299 307.8 
L 499.938204 266.890909 
L 500.685109 293.072727 
L 501.432013 263.618182 
L 502.178918 281.618182 
L 502.925823 261.981818 
L 503.672727 306.163636 
L 504.419632 261.981818 
L 505.166537 181.8 
L 505.913441 155.618182 
L 506.660346 234.163636 
L 507.40725 171.981818 
L 508.154155 198.163636 
L 508.90106 171.981818 
L 510.394869 98.345455 
L 511.141774 122.890909 
L 512.635583 129.436364 
L 513.382487 137.618182 
L 514.129392 167.072727 
L 514.876297 106.527273 
L 515.623201 160.527273 
L 516.370106 150.709091 
L 517.117011 173.618182 
L 517.863915 232.527273 
L 518.61082 176.890909 
L 519.357724 194.890909 
L 520.851534 219.436364 
L 521.598438 211.254545 
L 522.345343 206.345455 
L 523.092248 307.8 
L 523.839152 261.981818 
L 524.586057 273.436364 
L 525.332962 257.072727 
L 526.079866 273.436364 
L 526.826771 304.527273 
L 527.573675 225.981818 
L 528.32058 307.8 
L 529.067485 307.8 
L 529.814389 229.254545 
L 530.561294 263.618182 
L 531.308199 307.8 
L 532.055103 293.072727 
L 532.802008 307.8 
L 534.295817 307.8 
L 535.042722 221.072727 
L 535.789626 199.8 
L 536.536531 243.981818 
L 537.283436 227.618182 
L 538.777245 253.8 
L 539.524149 194.890909 
L 540.271054 206.345455 
L 541.017959 203.072727 
L 541.764863 216.163636 
L 542.511768 180.163636 
L 543.258673 116.345455 
L 544.005577 173.618182 
L 544.752482 188.345455 
L 545.499387 243.981818 
L 546.246291 150.709091 
L 546.993196 103.254545 
L 547.7401 153.981818 
L 548.487005 167.072727 
L 549.23391 203.072727 
L 549.980814 109.8 
L 550.727719 109.8 
L 551.474624 160.527273 
L 552.221528 199.8 
L 552.968433 191.618182 
L 553.715337 185.072727 
L 554.462242 160.527273 
L 555.209147 239.072727 
L 555.956051 221.072727 
L 556.702956 199.8 
L 557.449861 240.709091 
L 558.196765 221.072727 
L 558.94367 232.527273 
L 560.437479 293.072727 
L 561.184384 276.709091 
L 561.931288 307.8 
L 562.678193 270.163636 
L 563.425098 307.8 
L 564.172002 294.709091 
L 564.918907 307.8 
L 566.412716 307.8 
L 567.159621 273.436364 
L 567.906525 265.254545 
L 568.65343 294.709091 
L 569.400335 307.8 
L 570.147239 237.436364 
L 570.894144 279.981818 
L 571.641049 232.527273 
L 572.387953 240.709091 
L 573.134858 201.436364 
L 573.881762 271.8 
L 574.628667 206.345455 
L 575.375572 193.254545 
L 576.122476 199.8 
L 576.869381 176.890909 
L 577.616286 147.436364 
L 578.36319 186.709091 
L 579.110095 175.254545 
L 579.856999 167.072727 
L 580.603904 175.254545 
L 581.350809 140.890909 
L 582.097713 153.981818 
L 582.844618 150.709091 
L 583.591523 139.254545 
L 584.338427 150.709091 
L 585.085332 145.8 
L 585.832236 188.345455 
L 586.579141 116.345455 
L 587.326046 183.436364 
L 588.07295 193.254545 
L 589.56676 214.527273 
L 590.313664 235.8 
L 591.060569 242.345455 
L 591.807474 239.072727 
L 592.554378 266.890909 
L 593.301283 239.072727 
L 594.048187 273.436364 
L 594.795092 273.436364 
L 595.541997 288.163636 
L 596.288901 288.163636 
L 597.035806 307.8 
L 597.782711 307.8 
L 598.529615 291.436364 
L 599.27652 291.436364 
L 600.023424 307.8 
L 600.770329 302.890909 
L 602.264138 235.8 
L 603.011043 278.345455 
L 603.757948 260.345455 
L 604.504852 275.072727 
L 605.251757 276.709091 
L 605.998661 307.8 
L 606.745566 214.527273 
L 607.492471 260.345455 
L 608.239375 198.163636 
L 608.98628 198.163636 
L 609.733185 222.709091 
L 610.480089 134.345455 
L 611.226994 173.618182 
L 611.973898 196.527273 
L 612.720803 167.072727 
L 613.467708 178.527273 
L 614.214612 117.981818 
L 614.961517 167.072727 
L 615.708422 55.8 
L 616.455326 158.890909 
L 617.202231 163.8 
L 617.949136 162.163636 
L 618.69604 142.527273 
L 619.442945 150.709091 
L 620.189849 201.436364 
L 620.936754 157.254545 
L 621.683659 185.072727 
L 622.430563 180.163636 
L 623.177468 234.163636 
L 623.924373 191.618182 
L 624.671277 219.436364 
L 625.418182 175.254545 
L 626.165086 225.981818 
L 626.911991 235.8 
L 627.658896 227.618182 
L 628.4058 297.981818 
L 629.152705 307.8 
L 629.89961 297.981818 
L 630.646514 297.981818 
L 631.393419 276.709091 
L 632.140323 302.890909 
L 632.887228 234.163636 
L 633.634133 286.527273 
L 634.381037 289.8 
L 635.127942 286.527273 
L 635.874847 307.8 
L 636.621751 261.981818 
L 637.368656 301.254545 
L 638.115561 268.527273 
L 638.862465 222.709091 
L 639.60937 291.436364 
L 640.356274 248.890909 
L 641.103179 250.527273 
L 641.850084 204.709091 
L 642.596988 191.618182 
L 643.343893 222.709091 
L 644.090798 227.618182 
L 644.837702 214.527273 
L 645.584607 137.618182 
L 646.331511 158.890909 
L 647.078416 132.709091 
L 647.825321 132.709091 
L 648.572225 124.527273 
L 649.31913 155.618182 
L 650.066035 142.527273 
L 650.812939 155.618182 
L 651.559844 155.618182 
L 652.306748 126.163636 
L 653.053653 162.163636 
L 654.547462 211.254545 
L 655.294367 250.527273 
L 656.788176 145.8 
L 657.535081 180.163636 
L 658.281985 258.709091 
L 659.02889 253.8 
L 659.775795 221.072727 
L 660.522699 237.436364 
L 661.269604 222.709091 
L 662.016509 270.163636 
L 662.763413 270.163636 
L 663.510318 307.8 
L 664.257223 278.345455 
L 665.004127 307.8 
L 667.244841 307.8 
L 667.991746 271.8 
L 668.73865 250.527273 
L 669.485555 294.709091 
L 670.23246 307.8 
L 670.979364 307.8 
L 671.726269 227.618182 
L 672.473173 240.709091 
L 673.220078 258.709091 
L 673.966983 240.709091 
L 674.713887 276.709091 
L 675.460792 265.254545 
L 676.207697 250.527273 
L 676.954601 196.527273 
L 677.701506 211.254545 
L 678.44841 163.8 
L 679.195315 221.072727 
L 679.94222 157.254545 
L 680.689124 180.163636 
L 681.436029 181.8 
L 682.929838 134.345455 
L 683.676743 178.527273 
L 684.423648 162.163636 
L 685.170552 167.072727 
L 685.917457 140.890909 
L 686.664361 152.345455 
L 687.411266 170.345455 
L 688.158171 160.527273 
L 688.905075 162.163636 
L 689.65198 129.436364 
L 690.398885 201.436364 
L 691.145789 247.254545 
L 691.892694 211.254545 
L 692.639598 207.981818 
L 693.386503 261.981818 
L 694.133408 225.981818 
L 694.880312 289.8 
L 695.627217 248.890909 
L 696.374122 297.981818 
L 697.121026 307.8 
L 697.867931 306.163636 
L 698.614835 225.981818 
L 699.36174 307.8 
L 700.108645 301.254545 
L 700.855549 307.8 
L 701.602454 307.8 
L 703.096263 253.8 
L 703.843168 250.527273 
L 704.590073 270.163636 
L 705.336977 255.436364 
L 706.083882 288.163636 
L 706.830786 235.8 
L 707.577691 307.8 
L 708.324596 247.254545 
L 709.0715 240.709091 
L 709.818405 152.345455 
L 710.56531 199.8 
L 711.312214 131.072727 
L 712.059119 163.8 
L 712.806023 212.890909 
L 713.552928 113.072727 
L 714.299833 193.254545 
L 715.046737 140.890909 
L 715.793642 96.709091 
L 716.540547 170.345455 
L 718.78126 103.254545 
L 719.528165 117.981818 
L 720.27507 180.163636 
L 721.021974 181.8 
L 721.768879 162.163636 
L 722.515784 206.345455 
L 723.262688 183.436364 
L 724.009593 132.709091 
L 724.756497 227.618182 
L 726.250307 165.436364 
L 726.997211 240.709091 
L 727.744116 217.8 
L 728.491021 288.163636 
L 729.237925 221.072727 
L 729.98483 275.072727 
L 730.731735 258.709091 
L 731.478639 304.527273 
L 732.225544 232.527273 
L 732.972448 297.981818 
L 734.466258 307.8 
L 735.213162 289.8 
L 735.960067 284.890909 
L 736.706972 307.8 
L 738.200781 307.8 
L 738.947685 263.618182 
L 739.69459 307.8 
L 740.441495 275.072727 
L 741.188399 258.709091 
L 741.935304 273.436364 
L 742.682209 193.254545 
L 743.429113 234.163636 
L 744.176018 186.709091 
L 744.922922 232.527273 
L 745.669827 206.345455 
L 746.416732 221.072727 
L 747.163636 175.254545 
L 747.163636 175.254545 
" clip-path="url(#pb48b183a21)" style="fill: none; stroke: #191970; stroke-width: 2; stroke-linecap: square"/>
   </g>
   <g id="patch_3">
    <path d="M 108 320.4 
L 108 43.2 
" style="fill: none; stroke: #000000; stroke-width: 0.8; stroke-linejoin: miter; stroke-linecap: square"/>
   </g>
   <g id="patch_4">
    <path d="M 777.6 320.4 
L 777.6 43.2 
" style="fill: none; stroke: #000000; stroke-width: 0.8; stroke-linejoin: miter; stroke-linecap: square"/>
   </g>
   <g id="patch_5">
    <path d="M 108 320.4 
L 777.6 320.4 
" style="fill: none; stroke: #000000; stroke-width: 0.8; stroke-linejoin: miter; stroke-linecap: square"/>
   </g>
   <g id="patch_6">
    <path d="M 108 43.2 
L 777.6 43.2 
" style="fill: none; stroke: #000000; stroke-width: 0.8; stroke-linejoin: miter; stroke-linecap: square"/>
   </g>
   <g id="text_21">
    <!-- TIME SERIES -->
    <g transform="translate(405.350625 37.2) scale(0.12 -0.12)">
     <defs>
      <path id="DejaVuSans-52" d="M 2841 2188 
Q 3044 2119 3236 1894 
Q 3428 1669 3622 1275 
L 4263 0 
L 3584 0 
L 2988 1197 
Q 2756 1666 2539 1819 
Q 2322 1972 1947 1972 
L 1259 1972 
L 1259 0 
L 628 0 
L 628 4666 
L 2053 4666 
Q 2853 4666 3247 4331 
Q 3641 3997 3641 3322 
Q 3641 2881 3436 2590 
Q 3231 2300 2841 2188 
z
M 1259 4147 
L 1259 2491 
L 2053 2491 
Q 2509 2491 2742 2702 
Q 2975 2913 2975 3322 
Q 2975 3731 2742 3939 
Q 2509 4147 2053 4147 
L 1259 4147 
z
" transform="scale(0.015625)"/>
     </defs>
     <use xlink:href="#DejaVuSans-54"/>
     <use xlink:href="#DejaVuSans-49" x="61.083984"/>
     <use xlink:href="#DejaVuSans-4d" x="90.576172"/>
     <use xlink:href="#DejaVuSans-45" x="176.855469"/>
     <use xlink:href="#DejaVuSans-20" x="240.039062"/>
     <use xlink:href="#DejaVuSans-53" x="271.826172"/>
     <use xlink:href="#DejaVuSans-45" x="335.302734"/>
     <use xlink:href="#DejaVuSans-52" x="398.486328"/>
     <use xlink:href="#DejaVuSans-49" x="467.96875"/>
     <use xlink:href="#DejaVuSans-45" x="497.460938"/>
     <use xlink:href="#DejaVuSans-53" x="560.644531"/>
    </g>
   </g>
  </g>
 </g>
 <defs>
  <clipPath id="pb48b183a21">
   <rect x="108" y="43.2" width="669.6" height="277.2"/>
  </clipPath>
 </defs>
</svg>
