<?xml version="1.0" encoding="utf-8" standalone="no"?>
<!DOCTYPE svg PUBLIC "-//W3C//DTD SVG 1.1//EN"
  "http://www.w3.org/Graphics/SVG/1.1/DTD/svg11.dtd">
<svg xmlns:xlink="http://www.w3.org/1999/xlink" width="864pt" height="360pt" viewBox="0 0 864 360" xmlns="http://www.w3.org/2000/svg" version="1.1">
 <metadata>
  <rdf:RDF xmlns:dc="http://purl.org/dc/elements/1.1/" xmlns:cc="http://creativecommons.org/ns#" xmlns:rdf="http://www.w3.org/1999/02/22-rdf-syntax-ns#">
   <cc:Work>
    <dc:type rdf:resource="http://purl.org/dc/dcmitype/StillImage"/>
    <dc:date>2023-08-03T15:34:22.371194</dc:date>
    <dc:format>image/svg+xml</dc:format>
    <dc:creator>
     <cc:Agent>
      <dc:title>Matplotlib v3.7.1, https://matplotlib.org/</dc:title>
     </cc:Agent>
    </dc:creator>
   </cc:Work>
  </rdf:RDF>
 </metadata>
 <defs>
  <style type="text/css">*{stroke-linejoin: round; stroke-linecap: butt}</style>
 </defs>
 <g id="figure_1">
  <g id="patch_1">
   <path d="M 0 360 
L 864 360 
L 864 0 
L 0 0 
z
" style="fill: #ffffff"/>
  </g>
  <g id="axes_1">
   <g id="patch_2">
    <path d="M 108 320.4 
L 777.6 320.4 
L 777.6 43.2 
L 108 43.2 
z
" style="fill: #ffffff"/>
   </g>
   <g id="matplotlib.axis_1">
    <g id="xtick_1">
     <g id="line2d_1">
      <defs>
       <path id="m2c591c41cd" d="M 0 0 
L 0 3.5 
" style="stroke: #000000; stroke-width: 0.8"/>
      </defs>
      <g>
       <use xlink:href="#m2c591c41cd" x="173.437453" y="320.4" style="stroke: #000000; stroke-width: 0.8"/>
      </g>
     </g>
     <g id="text_1">
      <!-- 2022-06-15 -->
      <g transform="translate(144.37964 334.998438) scale(0.1 -0.1)">
       <defs>
        <path id="DejaVuSans-32" d="M 1228 531 
L 3431 531 
L 3431 0 
L 469 0 
L 469 531 
Q 828 903 1448 1529 
Q 2069 2156 2228 2338 
Q 2531 2678 2651 2914 
Q 2772 3150 2772 3378 
Q 2772 3750 2511 3984 
Q 2250 4219 1831 4219 
Q 1534 4219 1204 4116 
Q 875 4013 500 3803 
L 500 4441 
Q 881 4594 1212 4672 
Q 1544 4750 1819 4750 
Q 2544 4750 2975 4387 
Q 3406 4025 3406 3419 
Q 3406 3131 3298 2873 
Q 3191 2616 2906 2266 
Q 2828 2175 2409 1742 
Q 1991 1309 1228 531 
z
" transform="scale(0.015625)"/>
        <path id="DejaVuSans-30" d="M 2034 4250 
Q 1547 4250 1301 3770 
Q 1056 3291 1056 2328 
Q 1056 1369 1301 889 
Q 1547 409 2034 409 
Q 2525 409 2770 889 
Q 3016 1369 3016 2328 
Q 3016 3291 2770 3770 
Q 2525 4250 2034 4250 
z
M 2034 4750 
Q 2819 4750 3233 4129 
Q 3647 3509 3647 2328 
Q 3647 1150 3233 529 
Q 2819 -91 2034 -91 
Q 1250 -91 836 529 
Q 422 1150 422 2328 
Q 422 3509 836 4129 
Q 1250 4750 2034 4750 
z
" transform="scale(0.015625)"/>
        <path id="DejaVuSans-2d" d="M 313 2009 
L 1997 2009 
L 1997 1497 
L 313 1497 
L 313 2009 
z
" transform="scale(0.015625)"/>
        <path id="DejaVuSans-36" d="M 2113 2584 
Q 1688 2584 1439 2293 
Q 1191 2003 1191 1497 
Q 1191 994 1439 701 
Q 1688 409 2113 409 
Q 2538 409 2786 701 
Q 3034 994 3034 1497 
Q 3034 2003 2786 2293 
Q 2538 2584 2113 2584 
z
M 3366 4563 
L 3366 3988 
Q 3128 4100 2886 4159 
Q 2644 4219 2406 4219 
Q 1781 4219 1451 3797 
Q 1122 3375 1075 2522 
Q 1259 2794 1537 2939 
Q 1816 3084 2150 3084 
Q 2853 3084 3261 2657 
Q 3669 2231 3669 1497 
Q 3669 778 3244 343 
Q 2819 -91 2113 -91 
Q 1303 -91 875 529 
Q 447 1150 447 2328 
Q 447 3434 972 4092 
Q 1497 4750 2381 4750 
Q 2619 4750 2861 4703 
Q 3103 4656 3366 4563 
z
" transform="scale(0.015625)"/>
        <path id="DejaVuSans-31" d="M 794 531 
L 1825 531 
L 1825 4091 
L 703 3866 
L 703 4441 
L 1819 4666 
L 2450 4666 
L 2450 531 
L 3481 531 
L 3481 0 
L 794 0 
L 794 531 
z
" transform="scale(0.015625)"/>
        <path id="DejaVuSans-35" d="M 691 4666 
L 3169 4666 
L 3169 4134 
L 1269 4134 
L 1269 2991 
Q 1406 3038 1543 3061 
Q 1681 3084 1819 3084 
Q 2600 3084 3056 2656 
Q 3513 2228 3513 1497 
Q 3513 744 3044 326 
Q 2575 -91 1722 -91 
Q 1428 -91 1123 -41 
Q 819 9 494 109 
L 494 744 
Q 775 591 1075 516 
Q 1375 441 1709 441 
Q 2250 441 2565 725 
Q 2881 1009 2881 1497 
Q 2881 1984 2565 2268 
Q 2250 2553 1709 2553 
Q 1456 2553 1204 2497 
Q 953 2441 691 2322 
L 691 4666 
z
" transform="scale(0.015625)"/>
       </defs>
       <use xlink:href="#DejaVuSans-32"/>
       <use xlink:href="#DejaVuSans-30" x="63.623047"/>
       <use xlink:href="#DejaVuSans-32" x="127.246094"/>
       <use xlink:href="#DejaVuSans-32" x="190.869141"/>
       <use xlink:href="#DejaVuSans-2d" x="254.492188"/>
       <use xlink:href="#DejaVuSans-30" x="290.576172"/>
       <use xlink:href="#DejaVuSans-36" x="354.199219"/>
       <use xlink:href="#DejaVuSans-2d" x="417.822266"/>
       <use xlink:href="#DejaVuSans-31" x="453.90625"/>
       <use xlink:href="#DejaVuSans-35" x="517.529297"/>
      </g>
     </g>
    </g>
    <g id="xtick_2">
     <g id="line2d_2">
      <g>
       <use xlink:href="#m2c591c41cd" x="285.440937" y="320.4" style="stroke: #000000; stroke-width: 0.8"/>
      </g>
     </g>
     <g id="text_2">
      <!-- 2022-07-01 -->
      <g transform="translate(256.383125 334.998438) scale(0.1 -0.1)">
       <defs>
        <path id="DejaVuSans-37" d="M 525 4666 
L 3525 4666 
L 3525 4397 
L 1831 0 
L 1172 0 
L 2766 4134 
L 525 4134 
L 525 4666 
z
" transform="scale(0.015625)"/>
       </defs>
       <use xlink:href="#DejaVuSans-32"/>
       <use xlink:href="#DejaVuSans-30" x="63.623047"/>
       <use xlink:href="#DejaVuSans-32" x="127.246094"/>
       <use xlink:href="#DejaVuSans-32" x="190.869141"/>
       <use xlink:href="#DejaVuSans-2d" x="254.492188"/>
       <use xlink:href="#DejaVuSans-30" x="290.576172"/>
       <use xlink:href="#DejaVuSans-37" x="354.199219"/>
       <use xlink:href="#DejaVuSans-2d" x="417.822266"/>
       <use xlink:href="#DejaVuSans-30" x="453.90625"/>
       <use xlink:href="#DejaVuSans-31" x="517.529297"/>
      </g>
     </g>
    </g>
    <g id="xtick_3">
     <g id="line2d_3">
      <g>
       <use xlink:href="#m2c591c41cd" x="383.443987" y="320.4" style="stroke: #000000; stroke-width: 0.8"/>
      </g>
     </g>
     <g id="text_3">
      <!-- 2022-07-15 -->
      <g transform="translate(354.386174 334.998438) scale(0.1 -0.1)">
       <use xlink:href="#DejaVuSans-32"/>
       <use xlink:href="#DejaVuSans-30" x="63.623047"/>
       <use xlink:href="#DejaVuSans-32" x="127.246094"/>
       <use xlink:href="#DejaVuSans-32" x="190.869141"/>
       <use xlink:href="#DejaVuSans-2d" x="254.492188"/>
       <use xlink:href="#DejaVuSans-30" x="290.576172"/>
       <use xlink:href="#DejaVuSans-37" x="354.199219"/>
       <use xlink:href="#DejaVuSans-2d" x="417.822266"/>
       <use xlink:href="#DejaVuSans-31" x="453.90625"/>
       <use xlink:href="#DejaVuSans-35" x="517.529297"/>
      </g>
     </g>
    </g>
    <g id="xtick_4">
     <g id="line2d_4">
      <g>
       <use xlink:href="#m2c591c41cd" x="502.447689" y="320.4" style="stroke: #000000; stroke-width: 0.8"/>
      </g>
     </g>
     <g id="text_4">
      <!-- 2022-08-01 -->
      <g transform="translate(473.389877 334.998438) scale(0.1 -0.1)">
       <defs>
        <path id="DejaVuSans-38" d="M 2034 2216 
Q 1584 2216 1326 1975 
Q 1069 1734 1069 1313 
Q 1069 891 1326 650 
Q 1584 409 2034 409 
Q 2484 409 2743 651 
Q 3003 894 3003 1313 
Q 3003 1734 2745 1975 
Q 2488 2216 2034 2216 
z
M 1403 2484 
Q 997 2584 770 2862 
Q 544 3141 544 3541 
Q 544 4100 942 4425 
Q 1341 4750 2034 4750 
Q 2731 4750 3128 4425 
Q 3525 4100 3525 3541 
Q 3525 3141 3298 2862 
Q 3072 2584 2669 2484 
Q 3125 2378 3379 2068 
Q 3634 1759 3634 1313 
Q 3634 634 3220 271 
Q 2806 -91 2034 -91 
Q 1263 -91 848 271 
Q 434 634 434 1313 
Q 434 1759 690 2068 
Q 947 2378 1403 2484 
z
M 1172 3481 
Q 1172 3119 1398 2916 
Q 1625 2713 2034 2713 
Q 2441 2713 2670 2916 
Q 2900 3119 2900 3481 
Q 2900 3844 2670 4047 
Q 2441 4250 2034 4250 
Q 1625 4250 1398 4047 
Q 1172 3844 1172 3481 
z
" transform="scale(0.015625)"/>
       </defs>
       <use xlink:href="#DejaVuSans-32"/>
       <use xlink:href="#DejaVuSans-30" x="63.623047"/>
       <use xlink:href="#DejaVuSans-32" x="127.246094"/>
       <use xlink:href="#DejaVuSans-32" x="190.869141"/>
       <use xlink:href="#DejaVuSans-2d" x="254.492188"/>
       <use xlink:href="#DejaVuSans-30" x="290.576172"/>
       <use xlink:href="#DejaVuSans-38" x="354.199219"/>
       <use xlink:href="#DejaVuSans-2d" x="417.822266"/>
       <use xlink:href="#DejaVuSans-30" x="453.90625"/>
       <use xlink:href="#DejaVuSans-31" x="517.529297"/>
      </g>
     </g>
    </g>
    <g id="xtick_5">
     <g id="line2d_5">
      <g>
       <use xlink:href="#m2c591c41cd" x="600.450738" y="320.4" style="stroke: #000000; stroke-width: 0.8"/>
      </g>
     </g>
     <g id="text_5">
      <!-- 2022-08-15 -->
      <g transform="translate(571.392926 334.998438) scale(0.1 -0.1)">
       <use xlink:href="#DejaVuSans-32"/>
       <use xlink:href="#DejaVuSans-30" x="63.623047"/>
       <use xlink:href="#DejaVuSans-32" x="127.246094"/>
       <use xlink:href="#DejaVuSans-32" x="190.869141"/>
       <use xlink:href="#DejaVuSans-2d" x="254.492188"/>
       <use xlink:href="#DejaVuSans-30" x="290.576172"/>
       <use xlink:href="#DejaVuSans-38" x="354.199219"/>
       <use xlink:href="#DejaVuSans-2d" x="417.822266"/>
       <use xlink:href="#DejaVuSans-31" x="453.90625"/>
       <use xlink:href="#DejaVuSans-35" x="517.529297"/>
      </g>
     </g>
    </g>
    <g id="xtick_6">
     <g id="line2d_6">
      <g>
       <use xlink:href="#m2c591c41cd" x="719.454441" y="320.4" style="stroke: #000000; stroke-width: 0.8"/>
      </g>
     </g>
     <g id="text_6">
      <!-- 2022-09-01 -->
      <g transform="translate(690.396628 334.998438) scale(0.1 -0.1)">
       <defs>
        <path id="DejaVuSans-39" d="M 703 97 
L 703 672 
Q 941 559 1184 500 
Q 1428 441 1663 441 
Q 2288 441 2617 861 
Q 2947 1281 2994 2138 
Q 2813 1869 2534 1725 
Q 2256 1581 1919 1581 
Q 1219 1581 811 2004 
Q 403 2428 403 3163 
Q 403 3881 828 4315 
Q 1253 4750 1959 4750 
Q 2769 4750 3195 4129 
Q 3622 3509 3622 2328 
Q 3622 1225 3098 567 
Q 2575 -91 1691 -91 
Q 1453 -91 1209 -44 
Q 966 3 703 97 
z
M 1959 2075 
Q 2384 2075 2632 2365 
Q 2881 2656 2881 3163 
Q 2881 3666 2632 3958 
Q 2384 4250 1959 4250 
Q 1534 4250 1286 3958 
Q 1038 3666 1038 3163 
Q 1038 2656 1286 2365 
Q 1534 2075 1959 2075 
z
" transform="scale(0.015625)"/>
       </defs>
       <use xlink:href="#DejaVuSans-32"/>
       <use xlink:href="#DejaVuSans-30" x="63.623047"/>
       <use xlink:href="#DejaVuSans-32" x="127.246094"/>
       <use xlink:href="#DejaVuSans-32" x="190.869141"/>
       <use xlink:href="#DejaVuSans-2d" x="254.492188"/>
       <use xlink:href="#DejaVuSans-30" x="290.576172"/>
       <use xlink:href="#DejaVuSans-39" x="354.199219"/>
       <use xlink:href="#DejaVuSans-2d" x="417.822266"/>
       <use xlink:href="#DejaVuSans-30" x="453.90625"/>
       <use xlink:href="#DejaVuSans-31" x="517.529297"/>
      </g>
     </g>
    </g>
    <g id="text_7">
     <!-- TIME (DAYS) -->
     <g transform="translate(412.283594 348.676562) scale(0.1 -0.1)">
      <defs>
       <path id="DejaVuSans-54" d="M -19 4666 
L 3928 4666 
L 3928 4134 
L 2272 4134 
L 2272 0 
L 1638 0 
L 1638 4134 
L -19 4134 
L -19 4666 
z
" transform="scale(0.015625)"/>
       <path id="DejaVuSans-49" d="M 628 4666 
L 1259 4666 
L 1259 0 
L 628 0 
L 628 4666 
z
" transform="scale(0.015625)"/>
       <path id="DejaVuSans-4d" d="M 628 4666 
L 1569 4666 
L 2759 1491 
L 3956 4666 
L 4897 4666 
L 4897 0 
L 4281 0 
L 4281 4097 
L 3078 897 
L 2444 897 
L 1241 4097 
L 1241 0 
L 628 0 
L 628 4666 
z
" transform="scale(0.015625)"/>
       <path id="DejaVuSans-45" d="M 628 4666 
L 3578 4666 
L 3578 4134 
L 1259 4134 
L 1259 2753 
L 3481 2753 
L 3481 2222 
L 1259 2222 
L 1259 531 
L 3634 531 
L 3634 0 
L 628 0 
L 628 4666 
z
" transform="scale(0.015625)"/>
       <path id="DejaVuSans-20" transform="scale(0.015625)"/>
       <path id="DejaVuSans-28" d="M 1984 4856 
Q 1566 4138 1362 3434 
Q 1159 2731 1159 2009 
Q 1159 1288 1364 580 
Q 1569 -128 1984 -844 
L 1484 -844 
Q 1016 -109 783 600 
Q 550 1309 550 2009 
Q 550 2706 781 3412 
Q 1013 4119 1484 4856 
L 1984 4856 
z
" transform="scale(0.015625)"/>
       <path id="DejaVuSans-44" d="M 1259 4147 
L 1259 519 
L 2022 519 
Q 2988 519 3436 956 
Q 3884 1394 3884 2338 
Q 3884 3275 3436 3711 
Q 2988 4147 2022 4147 
L 1259 4147 
z
M 628 4666 
L 1925 4666 
Q 3281 4666 3915 4102 
Q 4550 3538 4550 2338 
Q 4550 1131 3912 565 
Q 3275 0 1925 0 
L 628 0 
L 628 4666 
z
" transform="scale(0.015625)"/>
       <path id="DejaVuSans-41" d="M 2188 4044 
L 1331 1722 
L 3047 1722 
L 2188 4044 
z
M 1831 4666 
L 2547 4666 
L 4325 0 
L 3669 0 
L 3244 1197 
L 1141 1197 
L 716 0 
L 50 0 
L 1831 4666 
z
" transform="scale(0.015625)"/>
       <path id="DejaVuSans-59" d="M -13 4666 
L 666 4666 
L 1959 2747 
L 3244 4666 
L 3922 4666 
L 2272 2222 
L 2272 0 
L 1638 0 
L 1638 2222 
L -13 4666 
z
" transform="scale(0.015625)"/>
       <path id="DejaVuSans-53" d="M 3425 4513 
L 3425 3897 
Q 3066 4069 2747 4153 
Q 2428 4238 2131 4238 
Q 1616 4238 1336 4038 
Q 1056 3838 1056 3469 
Q 1056 3159 1242 3001 
Q 1428 2844 1947 2747 
L 2328 2669 
Q 3034 2534 3370 2195 
Q 3706 1856 3706 1288 
Q 3706 609 3251 259 
Q 2797 -91 1919 -91 
Q 1588 -91 1214 -16 
Q 841 59 441 206 
L 441 856 
Q 825 641 1194 531 
Q 1563 422 1919 422 
Q 2459 422 2753 634 
Q 3047 847 3047 1241 
Q 3047 1584 2836 1778 
Q 2625 1972 2144 2069 
L 1759 2144 
Q 1053 2284 737 2584 
Q 422 2884 422 3419 
Q 422 4038 858 4394 
Q 1294 4750 2059 4750 
Q 2388 4750 2728 4690 
Q 3069 4631 3425 4513 
z
" transform="scale(0.015625)"/>
       <path id="DejaVuSans-29" d="M 513 4856 
L 1013 4856 
Q 1481 4119 1714 3412 
Q 1947 2706 1947 2009 
Q 1947 1309 1714 600 
Q 1481 -109 1013 -844 
L 513 -844 
Q 928 -128 1133 580 
Q 1338 1288 1338 2009 
Q 1338 2731 1133 3434 
Q 928 4138 513 4856 
z
" transform="scale(0.015625)"/>
      </defs>
      <use xlink:href="#DejaVuSans-54"/>
      <use xlink:href="#DejaVuSans-49" x="61.083984"/>
      <use xlink:href="#DejaVuSans-4d" x="90.576172"/>
      <use xlink:href="#DejaVuSans-45" x="176.855469"/>
      <use xlink:href="#DejaVuSans-20" x="240.039062"/>
      <use xlink:href="#DejaVuSans-28" x="271.826172"/>
      <use xlink:href="#DejaVuSans-44" x="310.839844"/>
      <use xlink:href="#DejaVuSans-41" x="386.091797"/>
      <use xlink:href="#DejaVuSans-59" x="446.75"/>
      <use xlink:href="#DejaVuSans-53" x="507.833984"/>
      <use xlink:href="#DejaVuSans-29" x="571.310547"/>
     </g>
    </g>
   </g>
   <g id="matplotlib.axis_2">
    <g id="ytick_1">
     <g id="line2d_7">
      <defs>
       <path id="m69eeb93d1f" d="M 0 0 
L -3.5 0 
" style="stroke: #000000; stroke-width: 0.8"/>
      </defs>
      <g>
       <use xlink:href="#m69eeb93d1f" x="108" y="307.8" style="stroke: #000000; stroke-width: 0.8"/>
      </g>
     </g>
     <g id="text_8">
      <!-- 0.0 -->
      <g transform="translate(85.096875 311.599219) scale(0.1 -0.1)">
       <defs>
        <path id="DejaVuSans-2e" d="M 684 794 
L 1344 794 
L 1344 0 
L 684 0 
L 684 794 
z
" transform="scale(0.015625)"/>
       </defs>
       <use xlink:href="#DejaVuSans-30"/>
       <use xlink:href="#DejaVuSans-2e" x="63.623047"/>
       <use xlink:href="#DejaVuSans-30" x="95.410156"/>
      </g>
     </g>
    </g>
    <g id="ytick_2">
     <g id="line2d_8">
      <g>
       <use xlink:href="#m69eeb93d1f" x="108" y="257.4" style="stroke: #000000; stroke-width: 0.8"/>
      </g>
     </g>
     <g id="text_9">
      <!-- 0.2 -->
      <g transform="translate(85.096875 261.199219) scale(0.1 -0.1)">
       <use xlink:href="#DejaVuSans-30"/>
       <use xlink:href="#DejaVuSans-2e" x="63.623047"/>
       <use xlink:href="#DejaVuSans-32" x="95.410156"/>
      </g>
     </g>
    </g>
    <g id="ytick_3">
     <g id="line2d_9">
      <g>
       <use xlink:href="#m69eeb93d1f" x="108" y="207" style="stroke: #000000; stroke-width: 0.8"/>
      </g>
     </g>
     <g id="text_10">
      <!-- 0.4 -->
      <g transform="translate(85.096875 210.799219) scale(0.1 -0.1)">
       <defs>
        <path id="DejaVuSans-34" d="M 2419 4116 
L 825 1625 
L 2419 1625 
L 2419 4116 
z
M 2253 4666 
L 3047 4666 
L 3047 1625 
L 3713 1625 
L 3713 1100 
L 3047 1100 
L 3047 0 
L 2419 0 
L 2419 1100 
L 313 1100 
L 313 1709 
L 2253 4666 
z
" transform="scale(0.015625)"/>
       </defs>
       <use xlink:href="#DejaVuSans-30"/>
       <use xlink:href="#DejaVuSans-2e" x="63.623047"/>
       <use xlink:href="#DejaVuSans-34" x="95.410156"/>
      </g>
     </g>
    </g>
    <g id="ytick_4">
     <g id="line2d_10">
      <g>
       <use xlink:href="#m69eeb93d1f" x="108" y="156.6" style="stroke: #000000; stroke-width: 0.8"/>
      </g>
     </g>
     <g id="text_11">
      <!-- 0.6 -->
      <g transform="translate(85.096875 160.399219) scale(0.1 -0.1)">
       <use xlink:href="#DejaVuSans-30"/>
       <use xlink:href="#DejaVuSans-2e" x="63.623047"/>
       <use xlink:href="#DejaVuSans-36" x="95.410156"/>
      </g>
     </g>
    </g>
    <g id="ytick_5">
     <g id="line2d_11">
      <g>
       <use xlink:href="#m69eeb93d1f" x="108" y="106.2" style="stroke: #000000; stroke-width: 0.8"/>
      </g>
     </g>
     <g id="text_12">
      <!-- 0.8 -->
      <g transform="translate(85.096875 109.999219) scale(0.1 -0.1)">
       <use xlink:href="#DejaVuSans-30"/>
       <use xlink:href="#DejaVuSans-2e" x="63.623047"/>
       <use xlink:href="#DejaVuSans-38" x="95.410156"/>
      </g>
     </g>
    </g>
    <g id="ytick_6">
     <g id="line2d_12">
      <g>
       <use xlink:href="#m69eeb93d1f" x="108" y="55.8" style="stroke: #000000; stroke-width: 0.8"/>
      </g>
     </g>
     <g id="text_13">
      <!-- 1.0 -->
      <g transform="translate(85.096875 59.599219) scale(0.1 -0.1)">
       <use xlink:href="#DejaVuSans-31"/>
       <use xlink:href="#DejaVuSans-2e" x="63.623047"/>
       <use xlink:href="#DejaVuSans-30" x="95.410156"/>
      </g>
     </g>
    </g>
    <g id="text_14">
     <!-- VISITS -->
     <g transform="translate(79.017187 197.572656) rotate(-90) scale(0.1 -0.1)">
      <defs>
       <path id="DejaVuSans-56" d="M 1831 0 
L 50 4666 
L 709 4666 
L 2188 738 
L 3669 4666 
L 4325 4666 
L 2547 0 
L 1831 0 
z
" transform="scale(0.015625)"/>
      </defs>
      <use xlink:href="#DejaVuSans-56"/>
      <use xlink:href="#DejaVuSans-49" x="68.408203"/>
      <use xlink:href="#DejaVuSans-53" x="97.900391"/>
      <use xlink:href="#DejaVuSans-49" x="161.376953"/>
      <use xlink:href="#DejaVuSans-54" x="190.869141"/>
      <use xlink:href="#DejaVuSans-53" x="251.953125"/>
     </g>
    </g>
   </g>
   <g id="line2d_13">
    <path d="M 138.436364 148.642105 
L 138.728039 241.484211 
L 139.019715 294.536842 
L 139.311391 294.536842 
L 139.603067 307.8 
L 139.894742 307.8 
L 140.186418 281.273684 
L 140.478094 281.273684 
L 140.76977 228.221053 
L 141.061445 268.010526 
L 141.353121 268.010526 
L 141.644797 228.221053 
L 141.936473 135.378947 
L 142.228148 82.326316 
L 142.519824 82.326316 
L 143.394851 254.747368 
L 143.978203 135.378947 
L 144.269878 55.8 
L 144.85323 55.8 
L 145.144906 135.378947 
L 145.436581 181.8 
L 145.728257 265.8 
L 146.019933 279.8 
L 146.311609 307.8 
L 146.603284 237.8 
L 146.89496 237.8 
L 147.186636 195.8 
L 147.478312 265.8 
L 147.769987 251.8 
L 148.061663 293.8 
L 148.353339 293.8 
L 148.93669 153.8 
L 149.228366 97.8 
L 149.520042 153.8 
L 149.811718 181.8 
L 150.103393 195.8 
L 150.395069 181.8 
L 151.270096 181.8 
L 152.145123 55.8 
L 152.436799 160.8 
L 153.020151 276.3 
L 153.311826 265.8 
L 153.603502 286.8 
L 153.895178 286.8 
L 154.186854 307.8 
L 154.478529 244.8 
L 154.770205 244.8 
L 155.061881 223.8 
L 155.353557 234.3 
L 155.645232 160.8 
L 155.936908 55.8 
L 156.228584 55.8 
L 156.52026 76.8 
L 156.811935 87.3 
L 157.395287 192.3 
L 157.686963 213.3 
L 157.978638 192.3 
L 158.270314 150.3 
L 158.56199 171.3 
L 158.853666 87.3 
L 159.145341 108.3 
L 159.437017 159.564706 
L 159.728693 278.152941 
L 160.020369 292.976471 
L 160.312044 204.035294 
L 160.60372 233.682353 
L 160.895396 248.505882 
L 161.187071 307.8 
L 161.478747 307.8 
L 161.770423 292.976471 
L 162.062099 307.8 
L 162.353774 307.8 
L 162.64545 263.329412 
L 162.937126 129.917647 
L 163.228802 115.094118 
L 163.520477 85.447059 
L 163.812153 204.035294 
L 164.103829 174.388235 
L 164.395505 263.329412 
L 164.978856 292.976471 
L 165.562208 115.094118 
L 165.853883 55.8 
L 166.145559 85.447059 
L 166.437235 134.55 
L 167.020586 307.8 
L 167.312262 292.05 
L 167.603938 292.05 
L 167.895614 276.3 
L 168.478965 276.3 
L 169.062317 307.8 
L 169.645668 181.8 
L 169.937344 55.8 
L 170.229019 103.05 
L 170.520695 71.55 
L 170.812371 150.3 
L 171.395722 181.8 
L 171.687398 213.3 
L 171.979074 181.8 
L 172.854101 134.55 
L 173.145777 87.3 
L 173.437453 110.582609 
L 173.729128 55.8 
L 174.020804 77.713043 
L 174.895831 307.8 
L 175.187507 307.8 
L 175.770859 253.017391 
L 176.062534 253.017391 
L 176.35421 274.930435 
L 176.645886 209.191304 
L 176.937562 187.278261 
L 177.229237 88.669565 
L 177.520913 165.365217 
L 177.812589 143.452174 
L 178.104264 209.191304 
L 178.39594 198.234783 
L 178.979292 285.886957 
L 179.270967 296.843478 
L 179.854319 165.365217 
L 180.43767 55.8 
L 180.729346 122.115789 
L 181.312698 307.8 
L 182.771076 307.8 
L 183.062752 254.747368 
L 183.354428 254.747368 
L 183.646104 201.694737 
L 184.229455 175.168421 
L 184.521131 228.221053 
L 184.812807 214.957895 
L 185.104482 161.905263 
L 185.396158 135.378947 
L 185.97951 281.273684 
L 186.271185 294.536842 
L 186.562861 214.957895 
L 186.854537 175.168421 
L 187.146212 108.852632 
L 187.729564 189.211765 
L 188.02124 278.152941 
L 188.312915 307.8 
L 188.896267 307.8 
L 189.187943 263.329412 
L 189.479618 248.505882 
L 189.771294 248.505882 
L 190.06297 278.152941 
L 190.354646 292.976471 
L 190.937997 159.564706 
L 191.229673 159.564706 
L 191.521349 189.211765 
L 191.813024 189.211765 
L 192.1047 115.094118 
L 192.396376 100.270588 
L 192.688052 115.094118 
L 193.271403 248.505882 
L 193.563079 248.505882 
L 194.14643 55.8 
L 194.729782 209.8 
L 195.021458 307.8 
L 196.18816 307.8 
L 196.479836 251.8 
L 196.771512 237.8 
L 197.063188 237.8 
L 197.354863 279.8 
L 197.938215 55.8 
L 198.229891 69.8 
L 198.521566 139.8 
L 198.813242 181.8 
L 199.104918 111.8 
L 199.396594 111.8 
L 199.688269 83.8 
L 199.979945 111.8 
L 200.563297 209.8 
L 200.854972 209.8 
L 201.438324 55.8 
L 201.73 83.8 
L 202.021675 153.8 
L 202.313351 265.8 
L 203.188378 265.8 
L 203.480054 279.8 
L 203.77173 307.8 
L 204.355081 307.8 
L 205.230108 83.8 
L 205.521784 97.8 
L 205.81346 97.8 
L 206.105136 125.8 
L 206.396811 111.8 
L 206.688487 69.8 
L 206.980163 69.8 
L 207.271839 97.8 
L 207.563514 139.8 
L 208.146866 111.8 
L 208.438542 181.8 
L 208.730217 219.6 
L 209.021893 282.6 
L 209.313569 282.6 
L 209.605245 295.2 
L 209.89692 295.2 
L 210.188596 307.8 
L 210.480272 257.4 
L 210.771948 257.4 
L 211.063623 270 
L 211.355299 257.4 
L 211.646975 131.4 
L 211.938651 106.2 
L 212.230326 144 
L 212.522002 270 
L 212.813678 244.8 
L 213.397029 219.6 
L 213.980381 307.8 
L 214.855408 93.6 
L 215.147084 55.8 
L 215.730435 176.321739 
L 216.022111 285.886957 
L 216.313787 307.8 
L 216.605462 285.886957 
L 216.897138 274.930435 
L 217.188814 274.930435 
L 217.772165 296.843478 
L 218.063841 285.886957 
L 218.355517 253.017391 
L 218.647193 176.321739 
L 218.938868 154.408696 
L 219.230544 154.408696 
L 219.52222 176.321739 
L 219.813896 132.495652 
L 220.105571 121.53913 
L 220.397247 55.8 
L 220.980599 187.278261 
L 221.272274 253.017391 
L 221.56395 231.104348 
L 221.855626 154.408696 
L 222.147301 154.408696 
L 222.438977 144 
L 223.022329 295.2 
L 223.314004 282.6 
L 223.60568 257.4 
L 223.897356 257.4 
L 224.480707 307.8 
L 224.772383 295.2 
L 225.064059 295.2 
L 225.64741 169.2 
L 226.230762 144 
L 226.522438 181.8 
L 226.814113 131.4 
L 227.105789 131.4 
L 227.397465 156.6 
L 227.689141 93.6 
L 227.980816 106.2 
L 228.272492 106.2 
L 228.564168 181.8 
L 228.855844 181.8 
L 229.147519 55.8 
L 229.439195 158.466667 
L 229.730871 205.133333 
L 230.022546 307.8 
L 230.314222 307.8 
L 230.605898 279.8 
L 230.897574 270.466667 
L 231.189249 270.466667 
L 231.480925 298.466667 
L 231.772601 289.133333 
L 232.064277 289.133333 
L 232.355952 261.133333 
L 232.647628 205.133333 
L 232.939304 195.8 
L 233.23098 177.133333 
L 233.522655 214.466667 
L 233.814331 177.133333 
L 234.106007 158.466667 
L 234.397683 121.133333 
L 234.689358 55.8 
L 234.981034 74.466667 
L 235.564386 205.133333 
L 235.856061 214.466667 
L 236.147737 205.133333 
L 236.439413 163.8 
L 237.022764 289.8 
L 237.606116 289.8 
L 237.897792 163.8 
L 238.189467 181.8 
L 238.481143 181.8 
L 238.772819 307.8 
L 239.064494 307.8 
L 239.35617 181.8 
L 239.647846 109.8 
L 239.939522 91.8 
L 240.522873 217.8 
L 240.814549 91.8 
L 241.106225 145.8 
L 241.3979 91.8 
L 241.689576 181.8 
L 241.981252 91.8 
L 242.272928 127.8 
L 242.564603 55.8 
L 242.856279 55.8 
L 243.147955 73.8 
L 243.731306 263.329412 
L 244.022982 278.152941 
L 244.314658 307.8 
L 245.189685 307.8 
L 245.481361 218.858824 
L 246.064712 218.858824 
L 246.356388 263.329412 
L 246.648064 233.682353 
L 246.93974 189.211765 
L 247.231415 204.035294 
L 247.523091 115.094118 
L 247.814767 159.564706 
L 248.106442 100.270588 
L 248.398118 159.564706 
L 248.689794 144.741176 
L 248.98147 233.682353 
L 249.273145 218.858824 
L 250.148173 55.8 
L 250.439848 75.184615 
L 250.731524 152.723077 
L 251.0232 307.8 
L 251.314876 307.8 
L 251.606551 191.492308 
L 251.898227 152.723077 
L 252.189903 152.723077 
L 252.481579 269.030769 
L 252.773254 288.415385 
L 253.06493 288.415385 
L 253.356606 191.492308 
L 253.648282 152.723077 
L 253.939957 94.569231 
L 254.231633 113.953846 
L 254.523309 75.184615 
L 254.814985 55.8 
L 255.10666 133.338462 
L 255.398336 172.107692 
L 255.690012 152.723077 
L 255.981688 94.569231 
L 256.273363 113.953846 
L 256.565039 152.723077 
L 256.856715 75.184615 
L 257.14839 113.953846 
L 257.731742 307.8 
L 258.023418 292.976471 
L 258.606769 292.976471 
L 258.898445 204.035294 
L 259.190121 204.035294 
L 259.481796 144.741176 
L 259.773472 248.505882 
L 260.065148 248.505882 
L 260.648499 189.211765 
L 260.940175 144.741176 
L 261.231851 204.035294 
L 261.523527 129.917647 
L 261.815202 129.917647 
L 262.106878 115.094118 
L 262.398554 55.8 
L 262.69023 55.8 
L 262.981905 100.270588 
L 263.273581 248.505882 
L 263.565257 204.035294 
L 263.856933 115.094118 
L 264.148608 100.270588 
L 264.73196 278.152941 
L 265.023635 307.8 
L 265.315311 307.8 
L 265.898663 248.505882 
L 266.190338 248.505882 
L 266.482014 278.152941 
L 266.77369 292.976471 
L 267.065366 292.976471 
L 267.357041 189.211765 
L 267.648717 204.035294 
L 267.940393 144.741176 
L 268.232069 233.682353 
L 268.81542 174.388235 
L 269.690447 55.8 
L 270.273799 174.388235 
L 270.565475 204.035294 
L 270.85715 55.8 
L 271.148826 55.8 
L 271.440502 123 
L 271.732178 291 
L 272.023853 307.8 
L 272.898881 307.8 
L 273.190556 240.6 
L 273.482232 240.6 
L 273.773908 190.2 
L 274.065583 257.4 
L 274.357259 156.6 
L 274.648935 173.4 
L 274.940611 106.2 
L 275.232286 190.2 
L 275.523962 139.8 
L 275.815638 190.2 
L 276.107314 123 
L 276.398989 156.6 
L 276.690665 173.4 
L 276.982341 207 
L 277.274017 173.4 
L 277.565692 72.6 
L 277.857368 55.8 
L 278.149044 106.2 
L 278.44072 213.3 
L 278.732395 276.3 
L 279.024071 307.8 
L 279.607423 307.8 
L 280.190774 276.3 
L 280.48245 276.3 
L 281.065801 307.8 
L 281.357477 229.05 
L 281.649153 213.3 
L 281.940829 134.55 
L 282.232504 197.55 
L 282.52418 150.3 
L 282.815856 213.3 
L 283.107531 181.8 
L 283.399207 213.3 
L 283.690883 229.05 
L 284.274234 166.05 
L 284.56591 118.8 
L 284.857586 118.8 
L 285.149262 55.8 
L 285.440937 55.8 
L 285.732613 122.115789 
L 286.315965 307.8 
L 287.482668 307.8 
L 287.774343 281.273684 
L 288.066019 268.010526 
L 288.357695 201.694737 
L 288.649371 161.905263 
L 288.941046 148.642105 
L 289.232722 148.642105 
L 289.524398 214.957895 
L 289.816074 201.694737 
L 290.107749 228.221053 
L 290.691101 135.378947 
L 290.982776 122.115789 
L 291.274452 161.905263 
L 291.566128 161.905263 
L 291.857804 188.431579 
L 292.149479 188.431579 
L 292.732831 288.415385 
L 293.024507 307.8 
L 293.899534 307.8 
L 294.19121 210.876923 
L 294.774561 210.876923 
L 295.066237 307.8 
L 295.357913 230.261538 
L 295.649588 230.261538 
L 295.941264 191.492308 
L 296.23294 230.261538 
L 296.524616 172.107692 
L 296.816291 191.492308 
L 297.107967 152.723077 
L 297.399643 172.107692 
L 297.691319 55.8 
L 297.982994 133.338462 
L 298.27467 152.723077 
L 298.566346 191.492308 
L 299.149697 55.8 
L 299.441373 216.163636 
L 300.024724 307.8 
L 301.774779 307.8 
L 302.066455 296.345455 
L 302.35813 239.072727 
L 302.649806 216.163636 
L 302.941482 204.709091 
L 303.233158 216.163636 
L 303.524833 170.345455 
L 303.816509 101.618182 
L 304.108185 67.254545 
L 304.399861 55.8 
L 304.691536 78.709091 
L 304.983212 124.527273 
L 305.274888 204.709091 
L 305.566564 239.072727 
L 305.858239 216.163636 
L 306.149915 113.072727 
L 306.441591 71.55 
L 306.733267 150.3 
L 307.024942 276.3 
L 307.316618 292.05 
L 307.608294 292.05 
L 307.89997 307.8 
L 308.191645 292.05 
L 308.774997 292.05 
L 309.066672 307.8 
L 309.358348 292.05 
L 309.9417 118.8 
L 310.233375 134.55 
L 310.525051 166.05 
L 310.816727 166.05 
L 311.400078 71.55 
L 311.691754 134.55 
L 311.98343 134.55 
L 312.275106 181.8 
L 312.566781 103.05 
L 312.858457 55.8 
L 313.150133 55.8 
L 313.441809 204.709091 
L 313.733484 273.436364 
L 314.02516 307.8 
L 314.316836 307.8 
L 314.608512 250.527273 
L 314.900187 239.072727 
L 315.191863 239.072727 
L 315.483539 284.890909 
L 315.775215 296.345455 
L 316.06689 296.345455 
L 316.358566 307.8 
L 316.941917 181.8 
L 317.233593 158.890909 
L 317.525269 216.163636 
L 317.816945 216.163636 
L 318.10862 204.709091 
L 318.400296 158.890909 
L 318.691972 158.890909 
L 318.983648 78.709091 
L 319.275323 78.709091 
L 319.566999 55.8 
L 319.858675 124.527273 
L 320.150351 78.709091 
L 320.442026 55.8 
L 320.733702 115.094118 
L 321.025378 248.505882 
L 321.317054 307.8 
L 321.608729 307.8 
L 321.900405 278.152941 
L 322.483757 278.152941 
L 322.775432 307.8 
L 323.067108 292.976471 
L 323.358784 292.976471 
L 323.942135 144.741176 
L 324.233811 129.917647 
L 324.525487 189.211765 
L 324.817163 204.035294 
L 325.108838 189.211765 
L 325.400514 189.211765 
L 326.275541 100.270588 
L 326.567217 159.564706 
L 326.858893 129.917647 
L 327.150568 159.564706 
L 327.442244 55.8 
L 327.73392 156.6 
L 328.025596 190.2 
L 328.317271 307.8 
L 330.359002 307.8 
L 330.650677 173.4 
L 330.942353 123 
L 331.234029 106.2 
L 331.525705 190.2 
L 331.81738 173.4 
L 332.109056 123 
L 332.400732 123 
L 332.692408 156.6 
L 332.984083 156.6 
L 333.275759 139.8 
L 333.567435 89.4 
L 333.859111 72.6 
L 334.150786 72.6 
L 334.442462 87.3 
L 335.025813 197.55 
L 335.317489 276.3 
L 335.609165 307.8 
L 337.067544 307.8 
L 337.359219 276.3 
L 337.650895 197.55 
L 337.942571 150.3 
L 338.234247 150.3 
L 338.525922 213.3 
L 339.109274 150.3 
L 339.40095 55.8 
L 340.275977 244.8 
L 340.859328 103.05 
L 341.151004 87.3 
L 341.44268 55.8 
L 342.317707 253.8 
L 342.609383 271.8 
L 342.901059 271.8 
L 343.192734 307.8 
L 343.48441 307.8 
L 343.776086 271.8 
L 344.067761 271.8 
L 344.359437 253.8 
L 344.651113 217.8 
L 344.942789 217.8 
L 345.234464 163.8 
L 345.52614 235.8 
L 345.817816 163.8 
L 346.109492 163.8 
L 346.401167 145.8 
L 346.692843 145.8 
L 346.984519 163.8 
L 347.276195 163.8 
L 347.56787 199.8 
L 348.442898 55.8 
L 348.734573 55.8 
L 349.317925 172.107692 
L 349.609601 288.415385 
L 349.901276 288.415385 
L 350.192952 307.8 
L 350.484628 307.8 
L 350.776304 288.415385 
L 351.067979 288.415385 
L 351.651331 210.876923 
L 351.943006 191.492308 
L 352.234682 210.876923 
L 352.526358 269.030769 
L 352.818034 133.338462 
L 353.109709 113.953846 
L 353.401385 55.8 
L 353.693061 172.107692 
L 354.276412 249.646154 
L 355.15144 94.569231 
L 355.443115 139.8 
L 355.734791 156.6 
L 356.026467 190.2 
L 356.318143 257.4 
L 356.609818 291 
L 356.901494 307.8 
L 357.484846 307.8 
L 357.776521 291 
L 358.359873 291 
L 358.943224 207 
L 359.2349 190.2 
L 359.526576 207 
L 359.818252 207 
L 360.109927 156.6 
L 360.693279 190.2 
L 360.984954 257.4 
L 361.27663 223.8 
L 361.568306 173.4 
L 361.859982 55.8 
L 362.443333 55.8 
L 363.026685 207 
L 363.31836 274.2 
L 363.610036 307.8 
L 364.485063 307.8 
L 364.776739 257.4 
L 365.360091 257.4 
L 365.651766 207 
L 365.943442 190.2 
L 366.235118 156.6 
L 366.526794 190.2 
L 366.818469 173.4 
L 367.110145 190.2 
L 367.401821 223.8 
L 367.693497 139.8 
L 367.985172 139.8 
L 368.276848 173.4 
L 368.568524 257.4 
L 368.8602 240.6 
L 369.151875 123 
L 369.443551 111.8 
L 369.735227 139.8 
L 370.318578 307.8 
L 370.90193 307.8 
L 371.193605 293.8 
L 371.776957 293.8 
L 372.068633 307.8 
L 372.360308 279.8 
L 372.651984 223.8 
L 372.94366 223.8 
L 373.235336 167.8 
L 373.527011 181.8 
L 373.818687 125.8 
L 374.110363 153.8 
L 374.402039 55.8 
L 374.693714 55.8 
L 374.98539 83.8 
L 375.277066 223.8 
L 375.568742 279.8 
L 376.152093 223.8 
L 376.443769 214.957895 
L 377.02712 281.273684 
L 377.318796 294.536842 
L 377.610472 281.273684 
L 378.193823 281.273684 
L 378.485499 307.8 
L 379.652202 307.8 
L 380.235553 161.905263 
L 380.527229 122.115789 
L 380.818905 161.905263 
L 381.110581 148.642105 
L 381.402256 148.642105 
L 381.985608 95.589474 
L 382.277284 55.8 
L 382.860635 201.694737 
L 383.152311 214.957895 
L 383.443987 133.338462 
L 384.319014 249.646154 
L 384.61069 249.646154 
L 384.902365 307.8 
L 385.194041 307.8 
L 385.485717 269.030769 
L 386.069068 269.030769 
L 386.360744 307.8 
L 386.65242 288.415385 
L 387.235771 75.184615 
L 387.527447 75.184615 
L 387.819123 94.569231 
L 388.110798 152.723077 
L 388.402474 133.338462 
L 388.985826 172.107692 
L 389.569177 172.107692 
L 389.860853 133.338462 
L 390.152529 55.8 
L 390.444204 85.447059 
L 390.73588 100.270588 
L 391.319232 248.505882 
L 391.610907 292.976471 
L 391.902583 307.8 
L 393.652638 307.8 
L 393.944313 248.505882 
L 394.235989 144.741176 
L 394.527665 129.917647 
L 394.819341 144.741176 
L 395.111016 144.741176 
L 395.402692 115.094118 
L 395.694368 55.8 
L 395.986043 144.741176 
L 396.569395 248.505882 
L 396.861071 248.505882 
L 397.152746 174.388235 
L 397.444422 207 
L 397.736098 190.2 
L 398.027774 207 
L 398.319449 207 
L 398.611125 240.6 
L 398.902801 307.8 
L 399.486152 307.8 
L 399.777828 274.2 
L 400.069504 257.4 
L 400.36118 257.4 
L 400.652855 291 
L 400.944531 274.2 
L 401.236207 173.4 
L 401.527883 156.6 
L 401.819558 123 
L 402.111234 173.4 
L 402.40291 139.8 
L 402.694586 139.8 
L 403.277937 55.8 
L 403.569613 123 
L 403.861288 156.6 
L 404.152964 240.6 
L 404.44464 214.957895 
L 405.027991 214.957895 
L 405.611343 307.8 
L 406.778046 307.8 
L 407.069722 294.536842 
L 407.653073 294.536842 
L 407.944749 268.010526 
L 408.236425 214.957895 
L 409.403128 161.905263 
L 409.986479 188.431579 
L 410.278155 95.589474 
L 410.569831 55.8 
L 410.861506 55.8 
L 411.153182 122.115789 
L 411.444858 97.8 
L 411.736534 55.8 
L 412.028209 83.8 
L 412.611561 279.8 
L 412.903236 307.8 
L 413.194912 307.8 
L 413.486588 265.8 
L 414.069939 265.8 
L 414.361615 307.8 
L 414.653291 307.8 
L 415.236642 167.8 
L 415.528318 139.8 
L 415.819994 167.8 
L 416.11167 167.8 
L 416.403345 97.8 
L 416.695021 55.8 
L 417.278373 181.8 
L 417.570048 237.8 
L 417.861724 223.8 
L 418.1534 223.8 
L 418.445076 233.682353 
L 418.736751 204.035294 
L 419.028427 248.505882 
L 419.320103 263.329412 
L 419.611779 307.8 
L 419.903454 233.682353 
L 420.19513 218.858824 
L 420.486806 218.858824 
L 420.778482 292.976471 
L 421.070157 278.152941 
L 421.361833 278.152941 
L 421.653509 263.329412 
L 422.23686 159.564706 
L 422.528536 115.094118 
L 422.820212 174.388235 
L 423.111887 159.564706 
L 423.403563 189.211765 
L 423.695239 159.564706 
L 423.986915 159.564706 
L 424.27859 55.8 
L 424.861942 174.388235 
L 425.153618 263.329412 
L 425.445293 253.017391 
L 425.736969 220.147826 
L 426.320321 263.973913 
L 426.611996 296.843478 
L 427.487024 296.843478 
L 427.778699 307.8 
L 428.070375 285.886957 
L 428.362051 285.886957 
L 428.653727 274.930435 
L 428.945402 242.06087 
L 429.237078 176.321739 
L 429.528754 143.452174 
L 429.820429 176.321739 
L 430.112105 187.278261 
L 430.403781 132.495652 
L 430.695457 132.495652 
L 431.278808 253.017391 
L 431.570484 198.234783 
L 431.86216 77.713043 
L 432.153835 55.8 
L 432.445511 55.8 
L 432.737187 125.8 
L 433.320538 97.8 
L 433.612214 153.8 
L 433.90389 237.8 
L 434.195566 279.8 
L 434.487241 293.8 
L 434.778917 265.8 
L 435.070593 251.8 
L 435.362269 265.8 
L 435.653944 293.8 
L 435.94562 307.8 
L 436.528972 223.8 
L 436.820647 139.8 
L 437.112323 111.8 
L 437.403999 69.8 
L 437.695675 153.8 
L 437.98735 153.8 
L 438.279026 139.8 
L 438.862377 139.8 
L 439.154053 237.8 
L 439.445729 197.55 
L 439.737405 181.8 
L 440.02908 181.8 
L 440.320756 213.3 
L 440.612432 307.8 
L 440.904108 276.3 
L 441.487459 276.3 
L 441.779135 307.8 
L 442.070811 307.8 
L 442.362486 292.05 
L 442.654162 292.05 
L 442.945838 166.05 
L 443.237514 166.05 
L 443.529189 134.55 
L 443.820865 150.3 
L 444.112541 87.3 
L 444.404217 55.8 
L 444.987568 118.8 
L 445.57092 87.3 
L 445.862595 55.8 
L 446.154271 134.55 
L 446.445947 259.8 
L 446.737623 295.8 
L 447.029298 295.8 
L 447.320974 235.8 
L 447.61265 259.8 
L 447.904325 259.8 
L 448.196001 307.8 
L 448.487677 307.8 
L 448.779353 295.8 
L 449.071028 295.8 
L 449.362704 283.8 
L 449.65438 259.8 
L 449.946056 223.8 
L 450.237731 211.8 
L 450.529407 235.8 
L 450.821083 247.8 
L 451.112759 235.8 
L 451.404434 199.8 
L 451.69611 187.8 
L 451.987786 151.8 
L 452.279462 163.8 
L 452.571137 115.8 
L 452.862813 91.8 
L 453.154489 55.8 
L 453.446165 55.8 
L 454.029516 276.3 
L 454.321192 307.8 
L 454.612868 307.8 
L 454.904543 292.05 
L 455.196219 307.8 
L 455.487895 244.8 
L 455.779571 260.55 
L 456.071246 229.05 
L 456.362922 276.3 
L 456.654598 260.55 
L 457.237949 87.3 
L 457.529625 55.8 
L 457.821301 71.55 
L 458.112976 118.8 
L 458.404652 103.05 
L 458.696328 150.3 
L 459.279679 87.3 
L 459.571355 87.3 
L 459.863031 71.55 
L 460.154707 87.3 
L 460.446382 70.623529 
L 461.32141 307.8 
L 461.613085 292.976471 
L 462.196437 292.976471 
L 462.488113 307.8 
L 463.36314 307.8 
L 463.946491 85.447059 
L 464.238167 55.8 
L 464.821518 159.564706 
L 465.113194 159.564706 
L 465.40487 174.388235 
L 465.696546 159.564706 
L 465.988221 159.564706 
L 466.279897 189.211765 
L 466.863249 159.564706 
L 467.154924 100.270588 
L 467.4466 73.8 
L 467.738276 109.8 
L 468.321627 289.8 
L 468.613303 307.8 
L 469.196655 307.8 
L 469.48833 289.8 
L 469.780006 289.8 
L 470.071682 271.8 
L 470.363358 289.8 
L 470.655033 199.8 
L 470.946709 163.8 
L 471.238385 91.8 
L 471.821736 55.8 
L 472.113412 91.8 
L 472.405088 145.8 
L 472.988439 109.8 
L 473.571791 181.8 
L 473.863466 199.8 
L 474.155142 127.8 
L 474.446818 187.8 
L 474.738494 211.8 
L 475.030169 271.8 
L 475.321845 307.8 
L 475.613521 259.8 
L 476.196872 259.8 
L 476.488548 283.8 
L 477.0719 283.8 
L 477.363575 307.8 
L 477.655251 223.8 
L 477.946927 187.8 
L 478.238603 127.8 
L 478.530278 163.8 
L 478.821954 127.8 
L 479.11363 163.8 
L 479.696981 115.8 
L 479.988657 55.8 
L 480.863684 259.8 
L 481.447036 73.8 
L 481.738712 145.8 
L 482.030387 253.8 
L 482.322063 307.8 
L 482.613739 271.8 
L 482.905414 289.8 
L 483.19709 289.8 
L 483.488766 307.8 
L 483.780442 289.8 
L 484.072117 289.8 
L 484.363793 271.8 
L 484.655469 163.8 
L 485.23882 73.8 
L 485.530496 109.8 
L 485.822172 127.8 
L 486.113848 73.8 
L 486.405523 145.8 
L 486.697199 55.8 
L 486.988875 163.8 
L 487.280551 163.8 
L 487.572226 199.8 
L 487.863902 127.8 
L 488.155578 91.8 
L 488.447254 111.8 
L 488.738929 251.8 
L 489.030605 307.8 
L 489.613957 307.8 
L 489.905632 279.8 
L 490.197308 279.8 
L 490.488984 223.8 
L 490.780659 279.8 
L 491.072335 279.8 
L 491.364011 251.8 
L 491.655687 195.8 
L 491.947362 83.8 
L 492.239038 111.8 
L 492.530714 111.8 
L 492.82239 139.8 
L 493.114065 83.8 
L 493.405741 55.8 
L 493.697417 83.8 
L 493.989093 139.8 
L 494.280768 167.8 
L 494.572444 139.8 
L 494.86412 83.8 
L 495.155796 83.8 
L 495.447471 232.2 
L 495.739147 282.6 
L 496.030823 307.8 
L 496.322499 295.2 
L 496.90585 295.2 
L 497.197526 232.2 
L 497.489202 232.2 
L 497.780877 207 
L 498.072553 282.6 
L 498.364229 232.2 
L 498.655905 232.2 
L 498.94758 207 
L 499.239256 194.4 
L 499.530932 207 
L 499.822607 156.6 
L 500.114283 131.4 
L 500.405959 81 
L 500.697635 55.8 
L 501.280986 207 
L 501.572662 232.2 
L 501.864338 194.4 
L 502.156013 194.4 
L 502.447689 223.8 
L 502.739365 274.2 
L 503.031041 274.2 
L 503.322716 240.6 
L 503.906068 240.6 
L 504.197744 307.8 
L 504.489419 274.2 
L 505.072771 274.2 
L 505.656122 123 
L 505.947798 106.2 
L 506.239474 123 
L 506.53115 106.2 
L 506.822825 106.2 
L 507.114501 139.8 
L 507.406177 106.2 
L 507.697853 55.8 
L 507.989528 72.6 
L 508.281204 156.6 
L 508.57288 207 
L 508.864555 156.6 
L 509.739583 307.8 
L 510.031258 299.4 
L 510.906286 299.4 
L 511.489637 282.6 
L 511.781313 291 
L 512.072989 291 
L 512.364664 223.8 
L 512.65634 207 
L 512.948016 181.8 
L 513.239692 207 
L 513.531367 123 
L 513.823043 81 
L 514.114719 55.8 
L 514.989746 257.4 
L 515.281422 274.2 
L 515.573098 257.4 
L 515.864773 207 
L 516.156449 207 
L 516.448125 220.569231 
L 516.7398 288.415385 
L 517.031476 307.8 
L 517.323152 269.030769 
L 517.614828 259.338462 
L 517.906503 259.338462 
L 518.198179 288.415385 
L 518.489855 298.107692 
L 518.781531 298.107692 
L 519.073206 307.8 
L 519.364882 239.953846 
L 519.948234 191.492308 
L 520.239909 191.492308 
L 520.823261 133.338462 
L 521.114937 143.030769 
L 521.406612 55.8 
L 521.698288 84.876923 
L 521.989964 75.184615 
L 522.28164 210.876923 
L 522.573315 191.492308 
L 522.864991 259.338462 
L 523.156667 249.646154 
L 523.448343 307.8 
L 523.740018 307.8 
L 524.031694 297.3 
L 525.490073 297.3 
L 525.781748 307.8 
L 526.073424 286.8 
L 526.3651 286.8 
L 526.656776 234.3 
L 526.948451 202.8 
L 527.240127 150.3 
L 527.531803 202.8 
L 527.823479 192.3 
L 528.115154 192.3 
L 528.40683 55.8 
L 528.698506 108.3 
L 528.990182 97.8 
L 529.281857 244.8 
L 529.573533 202.8 
L 529.865209 255.3 
L 530.156885 265.8 
L 530.44856 307.8 
L 530.740236 288.415385 
L 531.031912 288.415385 
L 531.323588 269.030769 
L 531.615263 307.8 
L 531.906939 307.8 
L 532.198615 249.646154 
L 532.781966 249.646154 
L 533.073642 269.030769 
L 533.365318 152.723077 
L 533.656994 94.569231 
L 533.948669 133.338462 
L 534.823696 75.184615 
L 535.407048 113.953846 
L 535.698724 55.8 
L 535.990399 113.953846 
L 536.282075 94.569231 
L 536.573751 133.338462 
L 537.157102 230.261538 
L 537.448778 270 
L 537.740454 270 
L 538.03213 282.6 
L 538.323805 307.8 
L 538.615481 257.4 
L 538.907157 270 
L 539.198833 270 
L 539.490508 295.2 
L 539.782184 282.6 
L 540.657211 144 
L 540.948887 118.8 
L 541.240563 156.6 
L 542.11559 55.8 
L 542.407266 93.6 
L 542.698941 194.4 
L 542.990617 219.6 
L 543.282293 207 
L 543.573969 156.6 
L 544.448996 307.8 
L 544.740672 307.8 
L 545.032347 295.8 
L 545.324023 271.8 
L 545.615699 271.8 
L 545.907375 259.8 
L 546.19905 283.8 
L 546.782402 283.8 
L 547.365753 115.8 
L 547.657429 115.8 
L 547.949105 103.8 
L 548.240781 115.8 
L 548.532456 79.8 
L 548.824132 103.8 
L 549.115808 79.8 
L 549.407484 79.8 
L 549.699159 55.8 
L 550.865862 259.8 
L 551.157538 271.8 
L 551.449214 307.8 
L 552.032565 307.8 
L 552.324241 274.930435 
L 553.490944 274.930435 
L 554.074295 253.017391 
L 554.365971 220.147826 
L 554.657647 165.365217 
L 554.949323 154.408696 
L 555.240998 154.408696 
L 555.532674 187.278261 
L 555.82435 165.365217 
L 556.116026 176.321739 
L 556.407701 66.756522 
L 556.699377 110.582609 
L 556.991053 55.8 
L 557.282729 198.234783 
L 557.574404 231.104348 
L 557.86608 307.8 
L 558.157756 307.8 
L 558.449432 276.3 
L 559.032783 276.3 
L 559.324459 292.05 
L 559.616135 276.3 
L 559.90781 244.8 
L 560.199486 292.05 
L 560.491162 307.8 
L 560.782837 276.3 
L 561.074513 166.05 
L 561.366189 134.55 
L 561.657865 166.05 
L 561.94954 229.05 
L 562.241216 166.05 
L 562.532892 150.3 
L 562.824568 55.8 
L 563.116243 134.55 
L 563.407919 166.05 
L 563.699595 244.8 
L 564.282946 55.8 
L 564.574622 103.05 
L 565.157974 307.8 
L 565.449649 307.8 
L 565.741325 248.505882 
L 566.033001 263.329412 
L 566.616352 233.682353 
L 566.908028 233.682353 
L 567.199704 248.505882 
L 567.49138 307.8 
L 567.783055 248.505882 
L 568.074731 129.917647 
L 568.366407 85.447059 
L 568.658083 85.447059 
L 568.949758 174.388235 
L 569.241434 174.388235 
L 569.824785 115.094118 
L 570.116461 174.388235 
L 570.408137 204.035294 
L 570.699813 248.505882 
L 571.283164 85.447059 
L 571.57484 55.8 
L 571.866516 129.917647 
L 572.158191 278.152941 
L 572.449867 307.8 
L 573.033219 263.973913 
L 573.324894 274.930435 
L 573.61657 296.843478 
L 573.908246 307.8 
L 574.491597 307.8 
L 574.783273 263.973913 
L 575.074949 253.017391 
L 575.366625 209.191304 
L 575.6583 220.147826 
L 575.949976 187.278261 
L 576.241652 220.147826 
L 576.533328 198.234783 
L 577.116679 143.452174 
L 577.408355 187.278261 
L 577.70003 253.017391 
L 578.283382 154.408696 
L 578.575058 55.8 
L 579.450085 274.2 
L 580.033436 274.2 
L 580.325112 291 
L 580.616788 240.6 
L 580.908464 240.6 
L 581.200139 257.4 
L 581.491815 307.8 
L 581.783491 190.2 
L 582.075167 139.8 
L 582.366842 55.8 
L 582.950194 156.6 
L 583.24187 156.6 
L 583.533545 139.8 
L 583.825221 72.6 
L 584.408573 240.6 
L 584.700248 274.2 
L 584.991924 223.8 
L 585.2836 123 
L 585.575276 139.8 
L 585.866951 190.2 
L 586.158627 291 
L 586.450303 307.8 
L 586.741978 263.329412 
L 587.033654 263.329412 
L 587.32533 248.505882 
L 587.617006 292.976471 
L 587.908681 292.976471 
L 588.200357 307.8 
L 588.492033 292.976471 
L 588.783709 159.564706 
L 589.075384 85.447059 
L 589.36706 55.8 
L 589.950412 218.858824 
L 590.533763 159.564706 
L 590.825439 70.623529 
L 591.117115 115.094118 
L 591.700466 278.152941 
L 591.992142 292.976471 
L 592.283818 189.211765 
L 592.867169 115.094118 
L 593.450521 292.05 
L 593.742196 307.8 
L 595.200575 307.8 
L 595.492251 276.3 
L 596.367278 150.3 
L 596.658954 118.8 
L 596.950629 103.05 
L 597.242305 197.55 
L 597.533981 244.8 
L 598.117332 55.8 
L 598.409008 71.55 
L 598.700684 229.05 
L 598.99236 307.8 
L 599.284035 244.8 
L 599.575711 150.3 
L 599.867387 166.05 
L 600.450738 307.8 
L 601.03409 307.8 
L 601.325766 263.329412 
L 602.492469 263.329412 
L 602.784144 174.388235 
L 603.367496 144.741176 
L 603.659171 189.211765 
L 603.950847 159.564706 
L 604.242523 159.564706 
L 604.534199 189.211765 
L 604.825874 144.741176 
L 605.11755 55.8 
L 605.409226 70.623529 
L 605.700902 189.211765 
L 605.992577 218.858824 
L 606.284253 100.270588 
L 606.575929 55.8 
L 606.867605 129.917647 
L 607.15928 248.505882 
L 607.450956 295.2 
L 607.742632 295.2 
L 608.034308 270 
L 608.325983 307.8 
L 608.617659 282.6 
L 608.909335 307.8 
L 609.201011 307.8 
L 609.492686 270 
L 609.784362 207 
L 610.076038 194.4 
L 610.367714 194.4 
L 610.659389 181.8 
L 610.951065 55.8 
L 611.826092 244.8 
L 612.117768 144 
L 612.409444 106.2 
L 612.992795 270 
L 613.284471 270 
L 613.576147 244.8 
L 613.867822 270 
L 614.159498 270 
L 614.451174 274.930435 
L 614.74285 263.973913 
L 615.034525 296.843478 
L 615.326201 307.8 
L 615.617877 242.06087 
L 616.201228 242.06087 
L 616.492904 296.843478 
L 616.78458 231.104348 
L 618.242959 66.756522 
L 618.534634 55.8 
L 618.82631 88.669565 
L 619.409662 253.017391 
L 619.701337 242.06087 
L 619.993013 187.278261 
L 620.284689 154.408696 
L 620.576365 176.321739 
L 620.86804 231.104348 
L 621.159716 307.8 
L 621.743067 307.8 
L 622.034743 281.273684 
L 622.326419 294.536842 
L 622.618095 294.536842 
L 622.90977 241.484211 
L 623.201446 241.484211 
L 623.493122 214.957895 
L 623.784798 241.484211 
L 624.076473 241.484211 
L 624.368149 201.694737 
L 624.951501 55.8 
L 625.826528 161.905263 
L 626.118204 188.431579 
L 626.409879 254.747368 
L 626.701555 268.010526 
L 627.284907 175.168421 
L 627.576582 228.221053 
L 627.868258 254.747368 
L 628.159934 214.957895 
L 628.45161 156.6 
L 628.743285 169.2 
L 629.034961 194.4 
L 629.326637 244.8 
L 629.618312 219.6 
L 629.909988 270 
L 630.201664 295.2 
L 630.49334 307.8 
L 630.785015 169.2 
L 631.076691 144 
L 631.368367 106.2 
L 631.951718 169.2 
L 632.243394 131.4 
L 632.53507 55.8 
L 632.826746 55.8 
L 633.118421 144 
L 633.410097 295.2 
L 633.701773 207 
L 633.993449 219.6 
L 634.285124 156.6 
L 634.5768 244.8 
L 634.868476 244.8 
L 635.160152 307.8 
L 635.451827 237.8 
L 635.743503 237.8 
L 636.035179 223.8 
L 636.326855 307.8 
L 636.61853 223.8 
L 636.910206 265.8 
L 637.201882 265.8 
L 637.493558 251.8 
L 637.785233 153.8 
L 638.076909 153.8 
L 638.368585 97.8 
L 638.66026 153.8 
L 638.951936 69.8 
L 639.243612 139.8 
L 639.535288 55.8 
L 639.826963 111.8 
L 640.410315 293.8 
L 640.993666 111.8 
L 641.285342 55.8 
L 641.577018 55.8 
L 641.868694 83.8 
L 642.743721 307.8 
L 643.035397 273.436364 
L 643.327072 273.436364 
L 643.618748 261.981818 
L 643.910424 296.345455 
L 644.2021 296.345455 
L 644.493775 273.436364 
L 644.785451 227.618182 
L 645.077127 216.163636 
L 645.368803 193.254545 
L 645.660478 227.618182 
L 645.952154 170.345455 
L 646.535506 193.254545 
L 646.827181 261.981818 
L 647.118857 193.254545 
L 647.410533 193.254545 
L 647.702208 170.345455 
L 647.993884 273.436364 
L 648.28556 170.345455 
L 648.868911 55.8 
L 649.452263 211.8 
L 649.743939 259.8 
L 650.32729 259.8 
L 650.910642 307.8 
L 651.202317 307.8 
L 651.493993 235.8 
L 651.785669 211.8 
L 652.077345 211.8 
L 652.952372 115.8 
L 653.535723 199.8 
L 653.827399 211.8 
L 654.119075 259.8 
L 654.410751 283.8 
L 654.702426 223.8 
L 654.994102 211.8 
L 655.285778 127.8 
L 655.577454 115.8 
L 655.869129 55.8 
L 656.160805 127.8 
L 656.452481 163.8 
L 656.744156 271.8 
L 657.327508 307.8 
L 657.619184 271.8 
L 658.202535 271.8 
L 658.494211 253.8 
L 659.077562 253.8 
L 659.369238 217.8 
L 659.660914 199.8 
L 659.95259 127.8 
L 660.244265 145.8 
L 660.535941 109.8 
L 661.119293 253.8 
L 661.410968 181.8 
L 661.702644 181.8 
L 661.99432 145.8 
L 662.285996 145.8 
L 662.577671 55.8 
L 662.869347 109.8 
L 663.161023 235.8 
L 663.452699 296.345455 
L 663.744374 296.345455 
L 664.327726 193.254545 
L 664.619401 193.254545 
L 665.202753 296.345455 
L 665.494429 296.345455 
L 665.786104 170.345455 
L 666.07778 158.890909 
L 666.369456 90.163636 
L 666.661132 170.345455 
L 666.952807 147.436364 
L 667.244483 170.345455 
L 667.536159 147.436364 
L 667.827835 55.8 
L 668.11951 90.163636 
L 668.411186 158.890909 
L 668.702862 307.8 
L 668.994538 296.345455 
L 669.286213 216.163636 
L 669.577889 101.618182 
L 669.869565 55.8 
L 670.161241 78.709091 
L 670.452916 175.168421 
L 670.744592 188.431579 
L 671.036268 254.747368 
L 671.327944 214.957895 
L 671.619619 254.747368 
L 671.911295 254.747368 
L 672.202971 294.536842 
L 672.494647 281.273684 
L 672.786322 228.221053 
L 673.077998 135.378947 
L 673.369674 135.378947 
L 673.661349 108.852632 
L 673.953025 122.115789 
L 674.244701 82.326316 
L 674.536377 95.589474 
L 675.411404 294.536842 
L 675.70308 307.8 
L 676.578107 55.8 
L 676.869783 161.905263 
L 677.161458 188.431579 
L 677.453134 193.254545 
L 677.74481 170.345455 
L 678.036486 216.163636 
L 678.328161 307.8 
L 678.911513 284.890909 
L 679.203189 284.890909 
L 680.078216 147.436364 
L 680.369892 135.981818 
L 680.661567 55.8 
L 680.953243 67.254545 
L 681.536595 158.890909 
L 681.82827 170.345455 
L 682.119946 216.163636 
L 682.411622 296.345455 
L 682.703297 284.890909 
L 683.286649 101.618182 
L 683.578325 113.072727 
L 683.87 193.254545 
L 684.161676 216.163636 
L 684.453352 252.675 
L 684.745028 252.675 
L 685.036703 307.8 
L 685.328379 299.925 
L 685.911731 299.925 
L 686.203406 292.05 
L 686.495082 268.425 
L 686.786758 260.55 
L 687.078434 236.925 
L 687.370109 236.925 
L 687.661785 197.55 
L 687.953461 181.8 
L 688.245137 55.8 
L 688.536812 79.425 
L 688.828488 87.3 
L 689.120164 236.925 
L 689.41184 260.55 
L 689.703515 299.925 
L 690.578542 158.175 
L 690.870218 158.175 
L 691.161894 118.8 
L 691.45357 139.8 
L 691.745245 192.3 
L 692.036921 265.8 
L 692.620273 265.8 
L 692.911948 286.8 
L 693.203624 286.8 
L 693.4953 276.3 
L 693.786976 286.8 
L 694.370327 286.8 
L 694.662003 223.8 
L 694.953679 129.3 
L 695.53703 87.3 
L 695.828706 97.8 
L 696.120382 66.3 
L 696.412057 118.8 
L 696.995409 276.3 
L 697.287085 307.8 
L 698.162112 55.8 
L 698.453788 55.8 
L 698.745463 110.582609 
L 699.037139 220.147826 
L 699.328815 263.973913 
L 699.62049 242.06087 
L 699.912166 231.104348 
L 700.495518 274.930435 
L 700.787193 307.8 
L 701.370545 253.017391 
L 702.245572 66.756522 
L 702.537248 66.756522 
L 702.828924 154.408696 
L 703.120599 132.495652 
L 703.412275 132.495652 
L 703.703951 154.408696 
L 703.995627 209.191304 
L 704.287302 220.147826 
L 704.578978 176.321739 
L 705.16233 154.408696 
L 705.454005 181.8 
L 705.745681 232.2 
L 706.037357 307.8 
L 706.329033 257.4 
L 706.912384 257.4 
L 707.20406 282.6 
L 707.495736 257.4 
L 707.787411 257.4 
L 708.079087 282.6 
L 708.370763 257.4 
L 708.662438 219.6 
L 708.954114 106.2 
L 709.24579 156.6 
L 709.537466 156.6 
L 709.829141 131.4 
L 710.120817 118.8 
L 710.412493 55.8 
L 710.704169 194.4 
L 710.995844 207 
L 711.28752 207 
L 711.579196 144 
L 711.870872 144 
L 712.454223 281.273684 
L 712.745899 268.010526 
L 713.037575 294.536842 
L 713.32925 268.010526 
L 713.620926 281.273684 
L 713.912602 281.273684 
L 714.204278 307.8 
L 714.495953 307.8 
L 714.787629 294.536842 
L 715.079305 268.010526 
L 715.370981 268.010526 
L 715.954332 122.115789 
L 716.246008 108.852632 
L 716.537683 122.115789 
L 716.829359 69.063158 
L 717.121035 55.8 
L 717.412711 122.115789 
L 717.704386 214.957895 
L 717.996062 188.431579 
L 718.287738 188.431579 
L 718.579414 254.747368 
L 719.162765 188.431579 
L 719.454441 204.709091 
L 719.746117 284.890909 
L 720.037792 307.8 
L 720.91282 307.8 
L 721.204495 250.527273 
L 721.787847 250.527273 
L 722.079523 307.8 
L 722.371198 250.527273 
L 722.662874 239.072727 
L 722.95455 170.345455 
L 723.246226 181.8 
L 723.537901 113.072727 
L 724.121253 158.890909 
L 724.704604 55.8 
L 724.99628 78.709091 
L 725.287956 124.527273 
L 725.579631 135.981818 
L 725.871307 90.163636 
L 726.746334 307.8 
L 727.03801 286.8 
L 727.621362 286.8 
L 727.913037 300.8 
L 728.204713 300.8 
L 728.496389 293.8 
L 729.07974 293.8 
L 729.371416 300.8 
L 729.954768 230.8 
L 730.538119 202.8 
L 730.829795 195.8 
L 731.121471 181.8 
L 731.413146 237.8 
L 731.704822 265.8 
L 732.288174 146.8 
L 732.579849 83.8 
L 732.871525 55.8 
L 733.163201 90.8 
L 733.454877 145.219355 
L 733.746552 291.541935 
L 734.038228 307.8 
L 734.329904 291.541935 
L 734.621579 291.541935 
L 734.913255 283.412903 
L 735.204931 291.541935 
L 735.496607 283.412903 
L 736.371634 307.8 
L 737.246661 177.735484 
L 737.538337 153.348387 
L 737.830013 145.219355 
L 738.121688 104.574194 
L 738.413364 96.445161 
L 738.996716 202.122581 
L 739.288391 202.122581 
L 739.580067 169.606452 
L 740.163419 55.8 
L 740.455094 55.8 
L 740.74677 143.030769 
L 741.038446 298.107692 
L 741.330122 307.8 
L 741.621797 239.953846 
L 741.913473 249.646154 
L 742.205149 230.261538 
L 742.496824 298.107692 
L 742.7885 269.030769 
L 743.080176 278.723077 
L 743.371852 278.723077 
L 743.663527 239.953846 
L 743.955203 181.8 
L 744.83023 152.723077 
L 745.121906 75.184615 
L 745.413582 55.8 
L 746.288609 278.723077 
L 746.580285 230.261538 
L 746.871961 152.723077 
L 747.163636 143.030769 
L 747.163636 143.030769 
" clip-path="url(#p840f524d84)" style="fill: none; stroke: #191970; stroke-width: 2; stroke-linecap: square"/>
   </g>
   <g id="patch_3">
    <path d="M 108 320.4 
L 108 43.2 
" style="fill: none; stroke: #000000; stroke-width: 0.8; stroke-linejoin: miter; stroke-linecap: square"/>
   </g>
   <g id="patch_4">
    <path d="M 777.6 320.4 
L 777.6 43.2 
" style="fill: none; stroke: #000000; stroke-width: 0.8; stroke-linejoin: miter; stroke-linecap: square"/>
   </g>
   <g id="patch_5">
    <path d="M 108 320.4 
L 777.6 320.4 
" style="fill: none; stroke: #000000; stroke-width: 0.8; stroke-linejoin: miter; stroke-linecap: square"/>
   </g>
   <g id="patch_6">
    <path d="M 108 43.2 
L 777.6 43.2 
" style="fill: none; stroke: #000000; stroke-width: 0.8; stroke-linejoin: miter; stroke-linecap: square"/>
   </g>
   <g id="text_15">
    <!-- Time Series -->
    <g transform="translate(407.760938 37.2) scale(0.12 -0.12)">
     <defs>
      <path id="DejaVuSans-69" d="M 603 3500 
L 1178 3500 
L 1178 0 
L 603 0 
L 603 3500 
z
M 603 4863 
L 1178 4863 
L 1178 4134 
L 603 4134 
L 603 4863 
z
" transform="scale(0.015625)"/>
      <path id="DejaVuSans-6d" d="M 3328 2828 
Q 3544 3216 3844 3400 
Q 4144 3584 4550 3584 
Q 5097 3584 5394 3201 
Q 5691 2819 5691 2113 
L 5691 0 
L 5113 0 
L 5113 2094 
Q 5113 2597 4934 2840 
Q 4756 3084 4391 3084 
Q 3944 3084 3684 2787 
Q 3425 2491 3425 1978 
L 3425 0 
L 2847 0 
L 2847 2094 
Q 2847 2600 2669 2842 
Q 2491 3084 2119 3084 
Q 1678 3084 1418 2786 
Q 1159 2488 1159 1978 
L 1159 0 
L 581 0 
L 581 3500 
L 1159 3500 
L 1159 2956 
Q 1356 3278 1631 3431 
Q 1906 3584 2284 3584 
Q 2666 3584 2933 3390 
Q 3200 3197 3328 2828 
z
" transform="scale(0.015625)"/>
      <path id="DejaVuSans-65" d="M 3597 1894 
L 3597 1613 
L 953 1613 
Q 991 1019 1311 708 
Q 1631 397 2203 397 
Q 2534 397 2845 478 
Q 3156 559 3463 722 
L 3463 178 
Q 3153 47 2828 -22 
Q 2503 -91 2169 -91 
Q 1331 -91 842 396 
Q 353 884 353 1716 
Q 353 2575 817 3079 
Q 1281 3584 2069 3584 
Q 2775 3584 3186 3129 
Q 3597 2675 3597 1894 
z
M 3022 2063 
Q 3016 2534 2758 2815 
Q 2500 3097 2075 3097 
Q 1594 3097 1305 2825 
Q 1016 2553 972 2059 
L 3022 2063 
z
" transform="scale(0.015625)"/>
      <path id="DejaVuSans-72" d="M 2631 2963 
Q 2534 3019 2420 3045 
Q 2306 3072 2169 3072 
Q 1681 3072 1420 2755 
Q 1159 2438 1159 1844 
L 1159 0 
L 581 0 
L 581 3500 
L 1159 3500 
L 1159 2956 
Q 1341 3275 1631 3429 
Q 1922 3584 2338 3584 
Q 2397 3584 2469 3576 
Q 2541 3569 2628 3553 
L 2631 2963 
z
" transform="scale(0.015625)"/>
      <path id="DejaVuSans-73" d="M 2834 3397 
L 2834 2853 
Q 2591 2978 2328 3040 
Q 2066 3103 1784 3103 
Q 1356 3103 1142 2972 
Q 928 2841 928 2578 
Q 928 2378 1081 2264 
Q 1234 2150 1697 2047 
L 1894 2003 
Q 2506 1872 2764 1633 
Q 3022 1394 3022 966 
Q 3022 478 2636 193 
Q 2250 -91 1575 -91 
Q 1294 -91 989 -36 
Q 684 19 347 128 
L 347 722 
Q 666 556 975 473 
Q 1284 391 1588 391 
Q 1994 391 2212 530 
Q 2431 669 2431 922 
Q 2431 1156 2273 1281 
Q 2116 1406 1581 1522 
L 1381 1569 
Q 847 1681 609 1914 
Q 372 2147 372 2553 
Q 372 3047 722 3315 
Q 1072 3584 1716 3584 
Q 2034 3584 2315 3537 
Q 2597 3491 2834 3397 
z
" transform="scale(0.015625)"/>
     </defs>
     <use xlink:href="#DejaVuSans-54"/>
     <use xlink:href="#DejaVuSans-69" x="57.958984"/>
     <use xlink:href="#DejaVuSans-6d" x="85.742188"/>
     <use xlink:href="#DejaVuSans-65" x="183.154297"/>
     <use xlink:href="#DejaVuSans-20" x="244.677734"/>
     <use xlink:href="#DejaVuSans-53" x="276.464844"/>
     <use xlink:href="#DejaVuSans-65" x="339.941406"/>
     <use xlink:href="#DejaVuSans-72" x="401.464844"/>
     <use xlink:href="#DejaVuSans-69" x="442.578125"/>
     <use xlink:href="#DejaVuSans-65" x="470.361328"/>
     <use xlink:href="#DejaVuSans-73" x="531.884766"/>
    </g>
   </g>
  </g>
 </g>
 <defs>
  <clipPath id="p840f524d84">
   <rect x="108" y="43.2" width="669.6" height="277.2"/>
  </clipPath>
 </defs>
</svg>
