<?xml version="1.0" encoding="utf-8" standalone="no"?>
<!DOCTYPE svg PUBLIC "-//W3C//DTD SVG 1.1//EN"
  "http://www.w3.org/Graphics/SVG/1.1/DTD/svg11.dtd">
<svg xmlns:xlink="http://www.w3.org/1999/xlink" width="864pt" height="360pt" viewBox="0 0 864 360" xmlns="http://www.w3.org/2000/svg" version="1.1">
 <metadata>
  <rdf:RDF xmlns:dc="http://purl.org/dc/elements/1.1/" xmlns:cc="http://creativecommons.org/ns#" xmlns:rdf="http://www.w3.org/1999/02/22-rdf-syntax-ns#">
   <cc:Work>
    <dc:type rdf:resource="http://purl.org/dc/dcmitype/StillImage"/>
    <dc:date>2023-08-03T21:30:13.896541</dc:date>
    <dc:format>image/svg+xml</dc:format>
    <dc:creator>
     <cc:Agent>
      <dc:title>Matplotlib v3.7.1, https://matplotlib.org/</dc:title>
     </cc:Agent>
    </dc:creator>
   </cc:Work>
  </rdf:RDF>
 </metadata>
 <defs>
  <style type="text/css">*{stroke-linejoin: round; stroke-linecap: butt}</style>
 </defs>
 <g id="figure_1">
  <g id="patch_1">
   <path d="M 0 360 
L 864 360 
L 864 0 
L 0 0 
z
" style="fill: #ffffff"/>
  </g>
  <g id="axes_1">
   <g id="patch_2">
    <path d="M 108 320.4 
L 777.6 320.4 
L 777.6 43.2 
L 108 43.2 
z
" style="fill: #ffffff"/>
   </g>
   <g id="matplotlib.axis_1">
    <g id="xtick_1">
     <g id="line2d_1">
      <defs>
       <path id="m0fdf557027" d="M 0 0 
L 0 3.5 
" style="stroke: #000000; stroke-width: 0.8"/>
      </defs>
      <g>
       <use xlink:href="#m0fdf557027" x="138.436364" y="320.4" style="stroke: #000000; stroke-width: 0.8"/>
      </g>
     </g>
     <g id="text_1">
      <!-- 2022-01-01 -->
      <g transform="translate(109.378551 334.998438) scale(0.1 -0.1)">
       <defs>
        <path id="DejaVuSans-32" d="M 1228 531 
L 3431 531 
L 3431 0 
L 469 0 
L 469 531 
Q 828 903 1448 1529 
Q 2069 2156 2228 2338 
Q 2531 2678 2651 2914 
Q 2772 3150 2772 3378 
Q 2772 3750 2511 3984 
Q 2250 4219 1831 4219 
Q 1534 4219 1204 4116 
Q 875 4013 500 3803 
L 500 4441 
Q 881 4594 1212 4672 
Q 1544 4750 1819 4750 
Q 2544 4750 2975 4387 
Q 3406 4025 3406 3419 
Q 3406 3131 3298 2873 
Q 3191 2616 2906 2266 
Q 2828 2175 2409 1742 
Q 1991 1309 1228 531 
z
" transform="scale(0.015625)"/>
        <path id="DejaVuSans-30" d="M 2034 4250 
Q 1547 4250 1301 3770 
Q 1056 3291 1056 2328 
Q 1056 1369 1301 889 
Q 1547 409 2034 409 
Q 2525 409 2770 889 
Q 3016 1369 3016 2328 
Q 3016 3291 2770 3770 
Q 2525 4250 2034 4250 
z
M 2034 4750 
Q 2819 4750 3233 4129 
Q 3647 3509 3647 2328 
Q 3647 1150 3233 529 
Q 2819 -91 2034 -91 
Q 1250 -91 836 529 
Q 422 1150 422 2328 
Q 422 3509 836 4129 
Q 1250 4750 2034 4750 
z
" transform="scale(0.015625)"/>
        <path id="DejaVuSans-2d" d="M 313 2009 
L 1997 2009 
L 1997 1497 
L 313 1497 
L 313 2009 
z
" transform="scale(0.015625)"/>
        <path id="DejaVuSans-31" d="M 794 531 
L 1825 531 
L 1825 4091 
L 703 3866 
L 703 4441 
L 1819 4666 
L 2450 4666 
L 2450 531 
L 3481 531 
L 3481 0 
L 794 0 
L 794 531 
z
" transform="scale(0.015625)"/>
       </defs>
       <use xlink:href="#DejaVuSans-32"/>
       <use xlink:href="#DejaVuSans-30" x="63.623047"/>
       <use xlink:href="#DejaVuSans-32" x="127.246094"/>
       <use xlink:href="#DejaVuSans-32" x="190.869141"/>
       <use xlink:href="#DejaVuSans-2d" x="254.492188"/>
       <use xlink:href="#DejaVuSans-30" x="290.576172"/>
       <use xlink:href="#DejaVuSans-31" x="354.199219"/>
       <use xlink:href="#DejaVuSans-2d" x="417.822266"/>
       <use xlink:href="#DejaVuSans-30" x="453.90625"/>
       <use xlink:href="#DejaVuSans-31" x="517.529297"/>
      </g>
     </g>
    </g>
    <g id="xtick_2">
     <g id="line2d_2">
      <g>
       <use xlink:href="#m0fdf557027" x="210.139208" y="320.4" style="stroke: #000000; stroke-width: 0.8"/>
      </g>
     </g>
     <g id="text_2">
      <!-- 2022-01-03 -->
      <g transform="translate(181.081396 334.998438) scale(0.1 -0.1)">
       <defs>
        <path id="DejaVuSans-33" d="M 2597 2516 
Q 3050 2419 3304 2112 
Q 3559 1806 3559 1356 
Q 3559 666 3084 287 
Q 2609 -91 1734 -91 
Q 1441 -91 1130 -33 
Q 819 25 488 141 
L 488 750 
Q 750 597 1062 519 
Q 1375 441 1716 441 
Q 2309 441 2620 675 
Q 2931 909 2931 1356 
Q 2931 1769 2642 2001 
Q 2353 2234 1838 2234 
L 1294 2234 
L 1294 2753 
L 1863 2753 
Q 2328 2753 2575 2939 
Q 2822 3125 2822 3475 
Q 2822 3834 2567 4026 
Q 2313 4219 1838 4219 
Q 1578 4219 1281 4162 
Q 984 4106 628 3988 
L 628 4550 
Q 988 4650 1302 4700 
Q 1616 4750 1894 4750 
Q 2613 4750 3031 4423 
Q 3450 4097 3450 3541 
Q 3450 3153 3228 2886 
Q 3006 2619 2597 2516 
z
" transform="scale(0.015625)"/>
       </defs>
       <use xlink:href="#DejaVuSans-32"/>
       <use xlink:href="#DejaVuSans-30" x="63.623047"/>
       <use xlink:href="#DejaVuSans-32" x="127.246094"/>
       <use xlink:href="#DejaVuSans-32" x="190.869141"/>
       <use xlink:href="#DejaVuSans-2d" x="254.492188"/>
       <use xlink:href="#DejaVuSans-30" x="290.576172"/>
       <use xlink:href="#DejaVuSans-31" x="354.199219"/>
       <use xlink:href="#DejaVuSans-2d" x="417.822266"/>
       <use xlink:href="#DejaVuSans-30" x="453.90625"/>
       <use xlink:href="#DejaVuSans-33" x="517.529297"/>
      </g>
     </g>
    </g>
    <g id="xtick_3">
     <g id="line2d_3">
      <g>
       <use xlink:href="#m0fdf557027" x="281.842052" y="320.4" style="stroke: #000000; stroke-width: 0.8"/>
      </g>
     </g>
     <g id="text_3">
      <!-- 2022-01-05 -->
      <g transform="translate(252.78424 334.998438) scale(0.1 -0.1)">
       <defs>
        <path id="DejaVuSans-35" d="M 691 4666 
L 3169 4666 
L 3169 4134 
L 1269 4134 
L 1269 2991 
Q 1406 3038 1543 3061 
Q 1681 3084 1819 3084 
Q 2600 3084 3056 2656 
Q 3513 2228 3513 1497 
Q 3513 744 3044 326 
Q 2575 -91 1722 -91 
Q 1428 -91 1123 -41 
Q 819 9 494 109 
L 494 744 
Q 775 591 1075 516 
Q 1375 441 1709 441 
Q 2250 441 2565 725 
Q 2881 1009 2881 1497 
Q 2881 1984 2565 2268 
Q 2250 2553 1709 2553 
Q 1456 2553 1204 2497 
Q 953 2441 691 2322 
L 691 4666 
z
" transform="scale(0.015625)"/>
       </defs>
       <use xlink:href="#DejaVuSans-32"/>
       <use xlink:href="#DejaVuSans-30" x="63.623047"/>
       <use xlink:href="#DejaVuSans-32" x="127.246094"/>
       <use xlink:href="#DejaVuSans-32" x="190.869141"/>
       <use xlink:href="#DejaVuSans-2d" x="254.492188"/>
       <use xlink:href="#DejaVuSans-30" x="290.576172"/>
       <use xlink:href="#DejaVuSans-31" x="354.199219"/>
       <use xlink:href="#DejaVuSans-2d" x="417.822266"/>
       <use xlink:href="#DejaVuSans-30" x="453.90625"/>
       <use xlink:href="#DejaVuSans-35" x="517.529297"/>
      </g>
     </g>
    </g>
    <g id="xtick_4">
     <g id="line2d_4">
      <g>
       <use xlink:href="#m0fdf557027" x="353.544897" y="320.4" style="stroke: #000000; stroke-width: 0.8"/>
      </g>
     </g>
     <g id="text_4">
      <!-- 2022-01-07 -->
      <g transform="translate(324.487084 334.998438) scale(0.1 -0.1)">
       <defs>
        <path id="DejaVuSans-37" d="M 525 4666 
L 3525 4666 
L 3525 4397 
L 1831 0 
L 1172 0 
L 2766 4134 
L 525 4134 
L 525 4666 
z
" transform="scale(0.015625)"/>
       </defs>
       <use xlink:href="#DejaVuSans-32"/>
       <use xlink:href="#DejaVuSans-30" x="63.623047"/>
       <use xlink:href="#DejaVuSans-32" x="127.246094"/>
       <use xlink:href="#DejaVuSans-32" x="190.869141"/>
       <use xlink:href="#DejaVuSans-2d" x="254.492188"/>
       <use xlink:href="#DejaVuSans-30" x="290.576172"/>
       <use xlink:href="#DejaVuSans-31" x="354.199219"/>
       <use xlink:href="#DejaVuSans-2d" x="417.822266"/>
       <use xlink:href="#DejaVuSans-30" x="453.90625"/>
       <use xlink:href="#DejaVuSans-37" x="517.529297"/>
      </g>
     </g>
    </g>
    <g id="xtick_5">
     <g id="line2d_5">
      <g>
       <use xlink:href="#m0fdf557027" x="425.247741" y="320.4" style="stroke: #000000; stroke-width: 0.8"/>
      </g>
     </g>
     <g id="text_5">
      <!-- 2022-01-09 -->
      <g transform="translate(396.189929 334.998438) scale(0.1 -0.1)">
       <defs>
        <path id="DejaVuSans-39" d="M 703 97 
L 703 672 
Q 941 559 1184 500 
Q 1428 441 1663 441 
Q 2288 441 2617 861 
Q 2947 1281 2994 2138 
Q 2813 1869 2534 1725 
Q 2256 1581 1919 1581 
Q 1219 1581 811 2004 
Q 403 2428 403 3163 
Q 403 3881 828 4315 
Q 1253 4750 1959 4750 
Q 2769 4750 3195 4129 
Q 3622 3509 3622 2328 
Q 3622 1225 3098 567 
Q 2575 -91 1691 -91 
Q 1453 -91 1209 -44 
Q 966 3 703 97 
z
M 1959 2075 
Q 2384 2075 2632 2365 
Q 2881 2656 2881 3163 
Q 2881 3666 2632 3958 
Q 2384 4250 1959 4250 
Q 1534 4250 1286 3958 
Q 1038 3666 1038 3163 
Q 1038 2656 1286 2365 
Q 1534 2075 1959 2075 
z
" transform="scale(0.015625)"/>
       </defs>
       <use xlink:href="#DejaVuSans-32"/>
       <use xlink:href="#DejaVuSans-30" x="63.623047"/>
       <use xlink:href="#DejaVuSans-32" x="127.246094"/>
       <use xlink:href="#DejaVuSans-32" x="190.869141"/>
       <use xlink:href="#DejaVuSans-2d" x="254.492188"/>
       <use xlink:href="#DejaVuSans-30" x="290.576172"/>
       <use xlink:href="#DejaVuSans-31" x="354.199219"/>
       <use xlink:href="#DejaVuSans-2d" x="417.822266"/>
       <use xlink:href="#DejaVuSans-30" x="453.90625"/>
       <use xlink:href="#DejaVuSans-39" x="517.529297"/>
      </g>
     </g>
    </g>
    <g id="xtick_6">
     <g id="line2d_6">
      <g>
       <use xlink:href="#m0fdf557027" x="496.950586" y="320.4" style="stroke: #000000; stroke-width: 0.8"/>
      </g>
     </g>
     <g id="text_6">
      <!-- 2022-01-11 -->
      <g transform="translate(467.892773 334.998438) scale(0.1 -0.1)">
       <use xlink:href="#DejaVuSans-32"/>
       <use xlink:href="#DejaVuSans-30" x="63.623047"/>
       <use xlink:href="#DejaVuSans-32" x="127.246094"/>
       <use xlink:href="#DejaVuSans-32" x="190.869141"/>
       <use xlink:href="#DejaVuSans-2d" x="254.492188"/>
       <use xlink:href="#DejaVuSans-30" x="290.576172"/>
       <use xlink:href="#DejaVuSans-31" x="354.199219"/>
       <use xlink:href="#DejaVuSans-2d" x="417.822266"/>
       <use xlink:href="#DejaVuSans-31" x="453.90625"/>
       <use xlink:href="#DejaVuSans-31" x="517.529297"/>
      </g>
     </g>
    </g>
    <g id="xtick_7">
     <g id="line2d_7">
      <g>
       <use xlink:href="#m0fdf557027" x="568.65343" y="320.4" style="stroke: #000000; stroke-width: 0.8"/>
      </g>
     </g>
     <g id="text_7">
      <!-- 2022-01-13 -->
      <g transform="translate(539.595618 334.998438) scale(0.1 -0.1)">
       <use xlink:href="#DejaVuSans-32"/>
       <use xlink:href="#DejaVuSans-30" x="63.623047"/>
       <use xlink:href="#DejaVuSans-32" x="127.246094"/>
       <use xlink:href="#DejaVuSans-32" x="190.869141"/>
       <use xlink:href="#DejaVuSans-2d" x="254.492188"/>
       <use xlink:href="#DejaVuSans-30" x="290.576172"/>
       <use xlink:href="#DejaVuSans-31" x="354.199219"/>
       <use xlink:href="#DejaVuSans-2d" x="417.822266"/>
       <use xlink:href="#DejaVuSans-31" x="453.90625"/>
       <use xlink:href="#DejaVuSans-33" x="517.529297"/>
      </g>
     </g>
    </g>
    <g id="xtick_8">
     <g id="line2d_8">
      <g>
       <use xlink:href="#m0fdf557027" x="640.356274" y="320.4" style="stroke: #000000; stroke-width: 0.8"/>
      </g>
     </g>
     <g id="text_8">
      <!-- 2022-01-15 -->
      <g transform="translate(611.298462 334.998438) scale(0.1 -0.1)">
       <use xlink:href="#DejaVuSans-32"/>
       <use xlink:href="#DejaVuSans-30" x="63.623047"/>
       <use xlink:href="#DejaVuSans-32" x="127.246094"/>
       <use xlink:href="#DejaVuSans-32" x="190.869141"/>
       <use xlink:href="#DejaVuSans-2d" x="254.492188"/>
       <use xlink:href="#DejaVuSans-30" x="290.576172"/>
       <use xlink:href="#DejaVuSans-31" x="354.199219"/>
       <use xlink:href="#DejaVuSans-2d" x="417.822266"/>
       <use xlink:href="#DejaVuSans-31" x="453.90625"/>
       <use xlink:href="#DejaVuSans-35" x="517.529297"/>
      </g>
     </g>
    </g>
    <g id="xtick_9">
     <g id="line2d_9">
      <g>
       <use xlink:href="#m0fdf557027" x="712.059119" y="320.4" style="stroke: #000000; stroke-width: 0.8"/>
      </g>
     </g>
     <g id="text_9">
      <!-- 2022-01-17 -->
      <g transform="translate(683.001306 334.998438) scale(0.1 -0.1)">
       <use xlink:href="#DejaVuSans-32"/>
       <use xlink:href="#DejaVuSans-30" x="63.623047"/>
       <use xlink:href="#DejaVuSans-32" x="127.246094"/>
       <use xlink:href="#DejaVuSans-32" x="190.869141"/>
       <use xlink:href="#DejaVuSans-2d" x="254.492188"/>
       <use xlink:href="#DejaVuSans-30" x="290.576172"/>
       <use xlink:href="#DejaVuSans-31" x="354.199219"/>
       <use xlink:href="#DejaVuSans-2d" x="417.822266"/>
       <use xlink:href="#DejaVuSans-31" x="453.90625"/>
       <use xlink:href="#DejaVuSans-37" x="517.529297"/>
      </g>
     </g>
    </g>
    <g id="text_10">
     <!-- TIME (DAYS) -->
     <g transform="translate(412.283594 348.676562) scale(0.1 -0.1)">
      <defs>
       <path id="DejaVuSans-54" d="M -19 4666 
L 3928 4666 
L 3928 4134 
L 2272 4134 
L 2272 0 
L 1638 0 
L 1638 4134 
L -19 4134 
L -19 4666 
z
" transform="scale(0.015625)"/>
       <path id="DejaVuSans-49" d="M 628 4666 
L 1259 4666 
L 1259 0 
L 628 0 
L 628 4666 
z
" transform="scale(0.015625)"/>
       <path id="DejaVuSans-4d" d="M 628 4666 
L 1569 4666 
L 2759 1491 
L 3956 4666 
L 4897 4666 
L 4897 0 
L 4281 0 
L 4281 4097 
L 3078 897 
L 2444 897 
L 1241 4097 
L 1241 0 
L 628 0 
L 628 4666 
z
" transform="scale(0.015625)"/>
       <path id="DejaVuSans-45" d="M 628 4666 
L 3578 4666 
L 3578 4134 
L 1259 4134 
L 1259 2753 
L 3481 2753 
L 3481 2222 
L 1259 2222 
L 1259 531 
L 3634 531 
L 3634 0 
L 628 0 
L 628 4666 
z
" transform="scale(0.015625)"/>
       <path id="DejaVuSans-20" transform="scale(0.015625)"/>
       <path id="DejaVuSans-28" d="M 1984 4856 
Q 1566 4138 1362 3434 
Q 1159 2731 1159 2009 
Q 1159 1288 1364 580 
Q 1569 -128 1984 -844 
L 1484 -844 
Q 1016 -109 783 600 
Q 550 1309 550 2009 
Q 550 2706 781 3412 
Q 1013 4119 1484 4856 
L 1984 4856 
z
" transform="scale(0.015625)"/>
       <path id="DejaVuSans-44" d="M 1259 4147 
L 1259 519 
L 2022 519 
Q 2988 519 3436 956 
Q 3884 1394 3884 2338 
Q 3884 3275 3436 3711 
Q 2988 4147 2022 4147 
L 1259 4147 
z
M 628 4666 
L 1925 4666 
Q 3281 4666 3915 4102 
Q 4550 3538 4550 2338 
Q 4550 1131 3912 565 
Q 3275 0 1925 0 
L 628 0 
L 628 4666 
z
" transform="scale(0.015625)"/>
       <path id="DejaVuSans-41" d="M 2188 4044 
L 1331 1722 
L 3047 1722 
L 2188 4044 
z
M 1831 4666 
L 2547 4666 
L 4325 0 
L 3669 0 
L 3244 1197 
L 1141 1197 
L 716 0 
L 50 0 
L 1831 4666 
z
" transform="scale(0.015625)"/>
       <path id="DejaVuSans-59" d="M -13 4666 
L 666 4666 
L 1959 2747 
L 3244 4666 
L 3922 4666 
L 2272 2222 
L 2272 0 
L 1638 0 
L 1638 2222 
L -13 4666 
z
" transform="scale(0.015625)"/>
       <path id="DejaVuSans-53" d="M 3425 4513 
L 3425 3897 
Q 3066 4069 2747 4153 
Q 2428 4238 2131 4238 
Q 1616 4238 1336 4038 
Q 1056 3838 1056 3469 
Q 1056 3159 1242 3001 
Q 1428 2844 1947 2747 
L 2328 2669 
Q 3034 2534 3370 2195 
Q 3706 1856 3706 1288 
Q 3706 609 3251 259 
Q 2797 -91 1919 -91 
Q 1588 -91 1214 -16 
Q 841 59 441 206 
L 441 856 
Q 825 641 1194 531 
Q 1563 422 1919 422 
Q 2459 422 2753 634 
Q 3047 847 3047 1241 
Q 3047 1584 2836 1778 
Q 2625 1972 2144 2069 
L 1759 2144 
Q 1053 2284 737 2584 
Q 422 2884 422 3419 
Q 422 4038 858 4394 
Q 1294 4750 2059 4750 
Q 2388 4750 2728 4690 
Q 3069 4631 3425 4513 
z
" transform="scale(0.015625)"/>
       <path id="DejaVuSans-29" d="M 513 4856 
L 1013 4856 
Q 1481 4119 1714 3412 
Q 1947 2706 1947 2009 
Q 1947 1309 1714 600 
Q 1481 -109 1013 -844 
L 513 -844 
Q 928 -128 1133 580 
Q 1338 1288 1338 2009 
Q 1338 2731 1133 3434 
Q 928 4138 513 4856 
z
" transform="scale(0.015625)"/>
      </defs>
      <use xlink:href="#DejaVuSans-54"/>
      <use xlink:href="#DejaVuSans-49" x="61.083984"/>
      <use xlink:href="#DejaVuSans-4d" x="90.576172"/>
      <use xlink:href="#DejaVuSans-45" x="176.855469"/>
      <use xlink:href="#DejaVuSans-20" x="240.039062"/>
      <use xlink:href="#DejaVuSans-28" x="271.826172"/>
      <use xlink:href="#DejaVuSans-44" x="310.839844"/>
      <use xlink:href="#DejaVuSans-41" x="386.091797"/>
      <use xlink:href="#DejaVuSans-59" x="446.75"/>
      <use xlink:href="#DejaVuSans-53" x="507.833984"/>
      <use xlink:href="#DejaVuSans-29" x="571.310547"/>
     </g>
    </g>
   </g>
   <g id="matplotlib.axis_2">
    <g id="ytick_1">
     <g id="line2d_10">
      <defs>
       <path id="m625f284197" d="M 0 0 
L -3.5 0 
" style="stroke: #000000; stroke-width: 0.8"/>
      </defs>
      <g>
       <use xlink:href="#m625f284197" x="108" y="307.8" style="stroke: #000000; stroke-width: 0.8"/>
      </g>
     </g>
     <g id="text_11">
      <!-- 0 -->
      <g transform="translate(94.6375 311.599219) scale(0.1 -0.1)">
       <use xlink:href="#DejaVuSans-30"/>
      </g>
     </g>
    </g>
    <g id="ytick_2">
     <g id="line2d_11">
      <g>
       <use xlink:href="#m625f284197" x="108" y="248.505882" style="stroke: #000000; stroke-width: 0.8"/>
      </g>
     </g>
     <g id="text_12">
      <!-- 20 -->
      <g transform="translate(88.275 252.305101) scale(0.1 -0.1)">
       <use xlink:href="#DejaVuSans-32"/>
       <use xlink:href="#DejaVuSans-30" x="63.623047"/>
      </g>
     </g>
    </g>
    <g id="ytick_3">
     <g id="line2d_12">
      <g>
       <use xlink:href="#m625f284197" x="108" y="189.211765" style="stroke: #000000; stroke-width: 0.8"/>
      </g>
     </g>
     <g id="text_13">
      <!-- 40 -->
      <g transform="translate(88.275 193.010983) scale(0.1 -0.1)">
       <defs>
        <path id="DejaVuSans-34" d="M 2419 4116 
L 825 1625 
L 2419 1625 
L 2419 4116 
z
M 2253 4666 
L 3047 4666 
L 3047 1625 
L 3713 1625 
L 3713 1100 
L 3047 1100 
L 3047 0 
L 2419 0 
L 2419 1100 
L 313 1100 
L 313 1709 
L 2253 4666 
z
" transform="scale(0.015625)"/>
       </defs>
       <use xlink:href="#DejaVuSans-34"/>
       <use xlink:href="#DejaVuSans-30" x="63.623047"/>
      </g>
     </g>
    </g>
    <g id="ytick_4">
     <g id="line2d_13">
      <g>
       <use xlink:href="#m625f284197" x="108" y="129.917647" style="stroke: #000000; stroke-width: 0.8"/>
      </g>
     </g>
     <g id="text_14">
      <!-- 60 -->
      <g transform="translate(88.275 133.716866) scale(0.1 -0.1)">
       <defs>
        <path id="DejaVuSans-36" d="M 2113 2584 
Q 1688 2584 1439 2293 
Q 1191 2003 1191 1497 
Q 1191 994 1439 701 
Q 1688 409 2113 409 
Q 2538 409 2786 701 
Q 3034 994 3034 1497 
Q 3034 2003 2786 2293 
Q 2538 2584 2113 2584 
z
M 3366 4563 
L 3366 3988 
Q 3128 4100 2886 4159 
Q 2644 4219 2406 4219 
Q 1781 4219 1451 3797 
Q 1122 3375 1075 2522 
Q 1259 2794 1537 2939 
Q 1816 3084 2150 3084 
Q 2853 3084 3261 2657 
Q 3669 2231 3669 1497 
Q 3669 778 3244 343 
Q 2819 -91 2113 -91 
Q 1303 -91 875 529 
Q 447 1150 447 2328 
Q 447 3434 972 4092 
Q 1497 4750 2381 4750 
Q 2619 4750 2861 4703 
Q 3103 4656 3366 4563 
z
" transform="scale(0.015625)"/>
       </defs>
       <use xlink:href="#DejaVuSans-36"/>
       <use xlink:href="#DejaVuSans-30" x="63.623047"/>
      </g>
     </g>
    </g>
    <g id="ytick_5">
     <g id="line2d_14">
      <g>
       <use xlink:href="#m625f284197" x="108" y="70.623529" style="stroke: #000000; stroke-width: 0.8"/>
      </g>
     </g>
     <g id="text_15">
      <!-- 80 -->
      <g transform="translate(88.275 74.422748) scale(0.1 -0.1)">
       <defs>
        <path id="DejaVuSans-38" d="M 2034 2216 
Q 1584 2216 1326 1975 
Q 1069 1734 1069 1313 
Q 1069 891 1326 650 
Q 1584 409 2034 409 
Q 2484 409 2743 651 
Q 3003 894 3003 1313 
Q 3003 1734 2745 1975 
Q 2488 2216 2034 2216 
z
M 1403 2484 
Q 997 2584 770 2862 
Q 544 3141 544 3541 
Q 544 4100 942 4425 
Q 1341 4750 2034 4750 
Q 2731 4750 3128 4425 
Q 3525 4100 3525 3541 
Q 3525 3141 3298 2862 
Q 3072 2584 2669 2484 
Q 3125 2378 3379 2068 
Q 3634 1759 3634 1313 
Q 3634 634 3220 271 
Q 2806 -91 2034 -91 
Q 1263 -91 848 271 
Q 434 634 434 1313 
Q 434 1759 690 2068 
Q 947 2378 1403 2484 
z
M 1172 3481 
Q 1172 3119 1398 2916 
Q 1625 2713 2034 2713 
Q 2441 2713 2670 2916 
Q 2900 3119 2900 3481 
Q 2900 3844 2670 4047 
Q 2441 4250 2034 4250 
Q 1625 4250 1398 4047 
Q 1172 3844 1172 3481 
z
" transform="scale(0.015625)"/>
       </defs>
       <use xlink:href="#DejaVuSans-38"/>
       <use xlink:href="#DejaVuSans-30" x="63.623047"/>
      </g>
     </g>
    </g>
    <g id="text_16">
     <!-- AMPLITUDE -->
     <g transform="translate(82.195312 210.532812) rotate(-90) scale(0.1 -0.1)">
      <defs>
       <path id="DejaVuSans-50" d="M 1259 4147 
L 1259 2394 
L 2053 2394 
Q 2494 2394 2734 2622 
Q 2975 2850 2975 3272 
Q 2975 3691 2734 3919 
Q 2494 4147 2053 4147 
L 1259 4147 
z
M 628 4666 
L 2053 4666 
Q 2838 4666 3239 4311 
Q 3641 3956 3641 3272 
Q 3641 2581 3239 2228 
Q 2838 1875 2053 1875 
L 1259 1875 
L 1259 0 
L 628 0 
L 628 4666 
z
" transform="scale(0.015625)"/>
       <path id="DejaVuSans-4c" d="M 628 4666 
L 1259 4666 
L 1259 531 
L 3531 531 
L 3531 0 
L 628 0 
L 628 4666 
z
" transform="scale(0.015625)"/>
       <path id="DejaVuSans-55" d="M 556 4666 
L 1191 4666 
L 1191 1831 
Q 1191 1081 1462 751 
Q 1734 422 2344 422 
Q 2950 422 3222 751 
Q 3494 1081 3494 1831 
L 3494 4666 
L 4128 4666 
L 4128 1753 
Q 4128 841 3676 375 
Q 3225 -91 2344 -91 
Q 1459 -91 1007 375 
Q 556 841 556 1753 
L 556 4666 
z
" transform="scale(0.015625)"/>
      </defs>
      <use xlink:href="#DejaVuSans-41"/>
      <use xlink:href="#DejaVuSans-4d" x="68.408203"/>
      <use xlink:href="#DejaVuSans-50" x="154.6875"/>
      <use xlink:href="#DejaVuSans-4c" x="214.990234"/>
      <use xlink:href="#DejaVuSans-49" x="270.703125"/>
      <use xlink:href="#DejaVuSans-54" x="300.195312"/>
      <use xlink:href="#DejaVuSans-55" x="361.279297"/>
      <use xlink:href="#DejaVuSans-44" x="434.472656"/>
      <use xlink:href="#DejaVuSans-45" x="511.474609"/>
     </g>
    </g>
   </g>
   <g id="line2d_15">
    <path d="M 138.436364 159.564706 
L 139.183268 150.670588 
L 139.930173 239.611765 
L 140.677078 278.152941 
L 141.423982 248.505882 
L 142.170887 307.8 
L 142.917791 290.011765 
L 143.664696 292.976471 
L 144.411601 307.8 
L 145.158505 236.647059 
L 145.90541 307.8 
L 146.652315 242.576471 
L 147.399219 272.223529 
L 148.146124 307.8 
L 148.893028 307.8 
L 149.639933 230.717647 
L 150.386838 287.047059 
L 151.880647 221.823529 
L 152.627552 218.858824 
L 153.374456 201.070588 
L 154.121361 207 
L 154.868265 177.352941 
L 155.61517 129.917647 
L 156.362075 195.141176 
L 157.108979 180.317647 
L 157.855884 174.388235 
L 158.602789 207 
L 159.349693 198.105882 
L 160.096598 304.835294 
L 160.843503 224.788235 
L 161.590407 275.188235 
L 162.337312 292.976471 
L 163.084216 298.905882 
L 163.831121 307.8 
L 164.578026 207 
L 165.32493 307.8 
L 166.071835 295.941176 
L 166.81874 307.8 
L 167.565644 307.8 
L 168.312549 251.470588 
L 169.059453 183.282353 
L 169.806358 266.294118 
L 170.553263 239.611765 
L 171.300167 236.647059 
L 172.047072 118.058824 
L 172.793977 156.6 
L 173.540881 162.529412 
L 174.287786 242.576471 
L 175.03469 224.788235 
L 175.781595 236.647059 
L 176.5285 257.4 
L 177.275404 233.682353 
L 178.022309 254.435294 
L 178.769214 260.364706 
L 179.516118 263.329412 
L 180.263023 301.870588 
L 181.009927 307.8 
L 183.250641 307.8 
L 183.997546 290.011765 
L 185.491355 307.8 
L 186.23826 233.682353 
L 186.985165 292.976471 
L 187.732069 171.423529 
L 188.478974 269.258824 
L 189.225878 212.929412 
L 189.972783 168.458824 
L 190.719688 109.164706 
L 191.466592 186.247059 
L 192.213497 165.494118 
L 192.960402 198.105882 
L 193.707306 201.070588 
L 194.454211 284.082353 
L 195.201115 245.541176 
L 195.94802 307.8 
L 196.694925 287.047059 
L 197.441829 254.435294 
L 198.188734 307.8 
L 199.682543 307.8 
L 200.429448 281.117647 
L 201.176352 263.329412 
L 201.923257 295.941176 
L 202.670162 272.223529 
L 203.417066 301.870588 
L 204.163971 307.8 
L 204.910876 278.152941 
L 205.65778 257.4 
L 206.404685 204.035294 
L 207.15159 198.105882 
L 207.898494 189.211765 
L 208.645399 55.8 
L 209.392303 180.317647 
L 210.139208 221.823529 
L 210.886113 245.541176 
L 211.633017 162.529412 
L 212.379922 290.011765 
L 213.126827 307.8 
L 213.873731 266.294118 
L 214.620636 307.8 
L 215.36754 292.976471 
L 216.114445 233.682353 
L 216.86135 260.364706 
L 217.608254 307.8 
L 218.355159 307.8 
L 219.102064 248.505882 
L 220.595873 292.976471 
L 221.342777 263.329412 
L 222.089682 272.223529 
L 222.836587 227.752941 
L 223.583491 224.788235 
L 225.077301 147.705882 
L 225.824205 132.882353 
L 226.57111 207 
L 227.318015 224.788235 
L 228.064919 195.141176 
L 228.811824 239.611765 
L 229.558728 307.8 
L 230.305633 272.223529 
L 231.052538 307.8 
L 231.799442 307.8 
L 232.546347 278.152941 
L 233.293252 278.152941 
L 234.040156 272.223529 
L 234.787061 307.8 
L 236.28087 307.8 
L 237.027775 292.976471 
L 237.774679 307.8 
L 239.268489 307.8 
L 240.015393 281.117647 
L 240.762298 245.541176 
L 241.509202 224.788235 
L 242.256107 192.176471 
L 243.003012 221.823529 
L 243.749916 109.164706 
L 244.496821 239.611765 
L 245.243726 224.788235 
L 245.99063 236.647059 
L 246.737535 269.258824 
L 247.484439 204.035294 
L 248.231344 260.364706 
L 248.978249 307.8 
L 249.725153 287.047059 
L 250.472058 295.941176 
L 251.218963 245.541176 
L 251.965867 307.8 
L 252.712772 298.905882 
L 253.459677 269.258824 
L 254.206581 281.117647 
L 254.953486 284.082353 
L 255.70039 307.8 
L 256.447295 307.8 
L 257.1942 233.682353 
L 257.941104 230.717647 
L 258.688009 147.705882 
L 259.434914 242.576471 
L 260.181818 126.952941 
L 260.928723 150.670588 
L 261.675627 212.929412 
L 262.422532 221.823529 
L 263.169437 156.6 
L 263.916341 204.035294 
L 264.663246 284.082353 
L 265.410151 218.858824 
L 266.157055 295.941176 
L 266.90396 278.152941 
L 267.650864 307.8 
L 268.397769 275.188235 
L 269.144674 307.8 
L 269.891578 248.505882 
L 270.638483 257.4 
L 271.385388 307.8 
L 272.879197 307.8 
L 273.626102 245.541176 
L 274.373006 307.8 
L 275.119911 242.576471 
L 275.866815 248.505882 
L 276.61372 218.858824 
L 277.360625 150.670588 
L 278.107529 165.494118 
L 278.854434 153.635294 
L 279.601339 177.352941 
L 280.348243 248.505882 
L 281.095148 245.541176 
L 281.842052 236.647059 
L 282.588957 307.8 
L 283.335862 287.047059 
L 284.082766 239.611765 
L 284.829671 278.152941 
L 285.576576 263.329412 
L 286.32348 230.717647 
L 287.070385 287.047059 
L 287.817289 307.8 
L 288.564194 307.8 
L 290.058003 272.223529 
L 290.804908 239.611765 
L 291.551813 298.905882 
L 292.298717 275.188235 
L 293.045622 215.894118 
L 293.792526 269.258824 
L 295.286336 106.2 
L 296.03324 58.764706 
L 296.780145 201.070588 
L 297.52705 195.141176 
L 298.273954 236.647059 
L 299.020859 236.647059 
L 299.767764 257.4 
L 300.514668 287.047059 
L 301.261573 307.8 
L 302.008477 281.117647 
L 302.755382 263.329412 
L 303.502287 307.8 
L 304.249191 260.364706 
L 304.996096 307.8 
L 306.489905 257.4 
L 307.23681 307.8 
L 307.983714 278.152941 
L 308.730619 195.141176 
L 309.477524 236.647059 
L 310.224428 230.717647 
L 310.971333 209.964706 
L 311.718238 224.788235 
L 312.465142 218.858824 
L 313.212047 115.094118 
L 313.958951 153.635294 
L 314.705856 307.8 
L 315.452761 159.564706 
L 316.199665 183.282353 
L 316.94657 307.8 
L 317.693475 263.329412 
L 318.440379 275.188235 
L 319.187284 307.8 
L 319.934189 281.117647 
L 320.681093 307.8 
L 321.427998 239.611765 
L 322.174902 307.8 
L 322.921807 287.047059 
L 323.668712 272.223529 
L 324.415616 307.8 
L 325.162521 307.8 
L 325.909426 245.541176 
L 326.65633 242.576471 
L 327.403235 295.941176 
L 328.150139 204.035294 
L 328.897044 236.647059 
L 329.643949 198.105882 
L 330.390853 242.576471 
L 331.137758 153.635294 
L 332.631567 209.964706 
L 333.378472 257.4 
L 334.125376 239.611765 
L 334.872281 307.8 
L 335.619186 192.176471 
L 336.36609 287.047059 
L 337.112995 236.647059 
L 337.8599 307.8 
L 338.606804 307.8 
L 339.353709 263.329412 
L 340.100613 307.8 
L 340.847518 307.8 
L 341.594423 292.976471 
L 342.341327 307.8 
L 343.088232 298.905882 
L 343.835137 278.152941 
L 344.582041 304.835294 
L 345.328946 189.211765 
L 346.075851 227.752941 
L 346.822755 207 
L 347.56966 79.517647 
L 348.316564 109.164706 
L 349.063469 168.458824 
L 349.810374 123.988235 
L 351.304183 239.611765 
L 352.051088 254.435294 
L 352.797992 257.4 
L 353.544897 272.223529 
L 354.291801 307.8 
L 355.038706 215.894118 
L 355.785611 281.117647 
L 356.532515 236.647059 
L 357.27942 298.905882 
L 358.026325 307.8 
L 358.773229 307.8 
L 359.520134 254.435294 
L 361.013943 301.870588 
L 361.760848 162.529412 
L 362.507752 227.752941 
L 363.254657 141.776471 
L 364.001562 227.752941 
L 364.748466 218.858824 
L 365.495371 150.670588 
L 366.242276 201.070588 
L 366.98918 236.647059 
L 367.736085 183.282353 
L 368.482989 272.223529 
L 369.229894 260.364706 
L 369.976799 257.4 
L 370.723703 198.105882 
L 371.470608 292.976471 
L 372.217513 298.905882 
L 372.964417 307.8 
L 373.711322 304.835294 
L 374.458226 307.8 
L 375.952036 307.8 
L 377.445845 257.4 
L 378.19275 301.870588 
L 378.939654 227.752941 
L 379.686559 221.823529 
L 380.433463 218.858824 
L 381.180368 236.647059 
L 381.927273 292.976471 
L 382.674177 212.929412 
L 383.421082 165.494118 
L 384.167987 180.317647 
L 384.914891 103.235294 
L 385.661796 159.564706 
L 386.408701 245.541176 
L 387.155605 201.070588 
L 387.90251 215.894118 
L 388.649414 307.8 
L 389.396319 272.223529 
L 390.143224 295.941176 
L 390.890128 307.8 
L 391.637033 227.752941 
L 392.383938 292.976471 
L 393.130842 307.8 
L 394.624651 242.576471 
L 395.371556 307.8 
L 396.118461 287.047059 
L 396.865365 257.4 
L 397.61227 221.823529 
L 398.359175 215.894118 
L 399.106079 215.894118 
L 400.599888 123.988235 
L 401.346793 221.823529 
L 402.093698 292.976471 
L 402.840602 260.364706 
L 403.587507 215.894118 
L 404.334412 278.152941 
L 405.081316 301.870588 
L 405.828221 254.435294 
L 406.575125 284.082353 
L 407.32203 224.788235 
L 408.068935 295.941176 
L 408.815839 266.294118 
L 409.562744 307.8 
L 410.309649 251.470588 
L 411.056553 307.8 
L 411.803458 174.388235 
L 412.550363 257.4 
L 413.297267 307.8 
L 414.044172 218.858824 
L 414.791076 218.858824 
L 415.537981 233.682353 
L 416.284886 174.388235 
L 417.03179 171.423529 
L 417.778695 195.141176 
L 419.272504 153.635294 
L 420.019409 174.388235 
L 420.766313 245.541176 
L 421.513218 287.047059 
L 422.260123 236.647059 
L 423.007027 245.541176 
L 423.753932 298.905882 
L 424.500837 307.8 
L 425.247741 307.8 
L 425.994646 245.541176 
L 426.74155 275.188235 
L 427.488455 221.823529 
L 428.23536 307.8 
L 428.982264 290.011765 
L 429.729169 307.8 
L 430.476074 245.541176 
L 431.222978 239.611765 
L 431.969883 201.070588 
L 432.716788 215.894118 
L 433.463692 251.470588 
L 434.210597 278.152941 
L 434.957501 159.564706 
L 435.704406 168.458824 
L 436.451311 165.494118 
L 437.198215 198.105882 
L 437.94512 215.894118 
L 438.692025 209.964706 
L 439.438929 278.152941 
L 440.185834 275.188235 
L 440.932738 230.717647 
L 441.679643 307.8 
L 444.667262 307.8 
L 446.161071 230.717647 
L 446.907975 301.870588 
L 447.65488 281.117647 
L 448.401785 266.294118 
L 449.148689 224.788235 
L 449.895594 307.8 
L 450.642499 230.717647 
L 451.389403 201.070588 
L 452.136308 215.894118 
L 452.883212 144.741176 
L 453.630117 168.458824 
L 454.377022 150.670588 
L 455.123926 224.788235 
L 455.870831 251.470588 
L 456.617736 221.823529 
L 457.36464 257.4 
L 458.111545 307.8 
L 460.352259 307.8 
L 461.099163 266.294118 
L 461.846068 242.576471 
L 462.592973 307.8 
L 463.339877 307.8 
L 464.086782 269.258824 
L 464.833687 307.8 
L 465.580591 304.835294 
L 466.327496 292.976471 
L 467.0744 221.823529 
L 467.821305 236.647059 
L 468.56821 192.176471 
L 469.315114 257.4 
L 470.062019 204.035294 
L 470.808924 192.176471 
L 471.555828 162.529412 
L 472.302733 165.494118 
L 473.049637 257.4 
L 473.796542 233.682353 
L 474.543447 301.870588 
L 475.290351 272.223529 
L 476.037256 307.8 
L 476.784161 307.8 
L 477.531065 275.188235 
L 478.27797 266.294118 
L 479.024875 307.8 
L 480.518684 307.8 
L 481.265588 278.152941 
L 482.012493 257.4 
L 482.759398 307.8 
L 483.506302 307.8 
L 484.253207 278.152941 
L 485.747016 239.611765 
L 486.493921 192.176471 
L 487.240825 230.717647 
L 487.98773 171.423529 
L 488.734635 159.564706 
L 489.481539 195.141176 
L 490.228444 209.964706 
L 490.975349 183.282353 
L 491.722253 189.211765 
L 492.469158 260.364706 
L 493.216062 290.011765 
L 493.962967 290.011765 
L 494.709872 307.8 
L 495.456776 278.152941 
L 496.203681 292.976471 
L 496.950586 248.505882 
L 497.69749 269.258824 
L 498.444395 307.8 
L 499.191299 242.576471 
L 499.938204 251.470588 
L 500.685109 307.8 
L 501.432013 251.470588 
L 502.178918 295.941176 
L 502.925823 215.894118 
L 503.672727 186.247059 
L 504.419632 212.929412 
L 505.166537 198.105882 
L 505.913441 198.105882 
L 506.660346 221.823529 
L 507.40725 254.435294 
L 508.154155 242.576471 
L 508.90106 278.152941 
L 509.647964 307.8 
L 510.394869 275.188235 
L 511.141774 287.047059 
L 511.888678 233.682353 
L 512.635583 295.941176 
L 513.382487 307.8 
L 514.129392 227.752941 
L 515.623201 275.188235 
L 516.370106 236.647059 
L 517.117011 192.176471 
L 517.863915 307.8 
L 518.61082 281.117647 
L 519.357724 215.894118 
L 520.104629 260.364706 
L 520.851534 132.882353 
L 521.598438 132.882353 
L 522.345343 230.717647 
L 523.092248 112.129412 
L 523.839152 189.211765 
L 524.586057 192.176471 
L 525.332962 251.470588 
L 526.079866 251.470588 
L 526.826771 254.435294 
L 527.573675 284.082353 
L 528.32058 301.870588 
L 529.814389 307.8 
L 533.548912 307.8 
L 534.295817 248.505882 
L 535.042722 307.8 
L 535.789626 183.282353 
L 536.536531 239.611765 
L 537.283436 198.105882 
L 538.03034 106.2 
L 538.777245 159.564706 
L 539.524149 112.129412 
L 540.271054 207 
L 541.017959 180.317647 
L 541.764863 171.423529 
L 542.511768 307.8 
L 543.258673 281.117647 
L 544.005577 307.8 
L 544.752482 254.435294 
L 545.499387 278.152941 
L 546.246291 307.8 
L 546.993196 204.035294 
L 547.7401 307.8 
L 548.487005 307.8 
L 549.23391 251.470588 
L 549.980814 287.047059 
L 550.727719 301.870588 
L 551.474624 278.152941 
L 552.221528 242.576471 
L 552.968433 281.117647 
L 553.715337 278.152941 
L 554.462242 257.4 
L 555.209147 135.847059 
L 556.702956 198.105882 
L 557.449861 153.635294 
L 558.196765 192.176471 
L 558.94367 212.929412 
L 559.690574 212.929412 
L 560.437479 227.752941 
L 561.184384 254.435294 
L 561.931288 245.541176 
L 563.425098 307.8 
L 564.172002 304.835294 
L 564.918907 257.4 
L 565.665811 307.8 
L 566.412716 295.941176 
L 567.159621 307.8 
L 567.906525 248.505882 
L 568.65343 284.082353 
L 569.400335 307.8 
L 570.147239 304.835294 
L 570.894144 245.541176 
L 571.641049 212.929412 
L 572.387953 266.294118 
L 573.134858 123.988235 
L 573.881762 103.235294 
L 574.628667 126.952941 
L 575.375572 224.788235 
L 576.122476 204.035294 
L 576.869381 215.894118 
L 577.616286 242.576471 
L 578.36319 227.752941 
L 579.110095 275.188235 
L 579.856999 307.8 
L 580.603904 272.223529 
L 581.350809 287.047059 
L 582.097713 254.435294 
L 582.844618 307.8 
L 583.591523 307.8 
L 584.338427 189.211765 
L 585.085332 239.611765 
L 586.579141 284.082353 
L 587.326046 275.188235 
L 588.07295 254.435294 
L 588.819855 195.141176 
L 589.56676 224.788235 
L 590.313664 147.705882 
L 591.060569 186.247059 
L 591.807474 242.576471 
L 592.554378 218.858824 
L 593.301283 215.894118 
L 594.048187 227.752941 
L 594.795092 307.8 
L 595.541997 292.976471 
L 596.288901 307.8 
L 597.035806 266.294118 
L 597.782711 236.647059 
L 598.529615 307.8 
L 599.27652 242.576471 
L 600.023424 233.682353 
L 600.770329 307.8 
L 601.517234 207 
L 602.264138 307.8 
L 603.011043 275.188235 
L 603.757948 263.329412 
L 604.504852 269.258824 
L 605.251757 230.717647 
L 605.998661 180.317647 
L 606.745566 209.964706 
L 607.492471 94.341176 
L 608.239375 221.823529 
L 608.98628 233.682353 
L 609.733185 183.282353 
L 610.480089 275.188235 
L 611.226994 307.8 
L 611.973898 292.976471 
L 612.720803 230.717647 
L 613.467708 301.870588 
L 614.214612 301.870588 
L 614.961517 307.8 
L 617.202231 307.8 
L 617.949136 269.258824 
L 618.69604 307.8 
L 619.442945 192.176471 
L 620.189849 307.8 
L 620.936754 212.929412 
L 621.683659 195.141176 
L 622.430563 260.364706 
L 623.177468 168.458824 
L 623.924373 126.952941 
L 624.671277 212.929412 
L 625.418182 144.741176 
L 626.165086 212.929412 
L 626.911991 218.858824 
L 627.658896 138.811765 
L 628.4058 248.505882 
L 629.152705 307.8 
L 629.89961 236.647059 
L 630.646514 278.152941 
L 631.393419 290.011765 
L 632.140323 307.8 
L 632.887228 295.941176 
L 633.634133 281.117647 
L 634.381037 307.8 
L 635.127942 266.294118 
L 635.874847 278.152941 
L 636.621751 272.223529 
L 637.368656 224.788235 
L 638.115561 207 
L 638.862465 207 
L 639.60937 224.788235 
L 640.356274 245.541176 
L 641.103179 233.682353 
L 641.850084 94.341176 
L 642.596988 207 
L 643.343893 242.576471 
L 644.090798 248.505882 
L 644.837702 263.329412 
L 645.584607 272.223529 
L 646.331511 292.976471 
L 647.078416 230.717647 
L 647.825321 278.152941 
L 648.572225 272.223529 
L 649.31913 307.8 
L 652.306748 307.8 
L 653.053653 292.976471 
L 653.800558 263.329412 
L 654.547462 209.964706 
L 655.294367 239.611765 
L 656.041272 207 
L 656.788176 218.858824 
L 657.535081 180.317647 
L 658.281985 165.494118 
L 659.02889 257.4 
L 659.775795 189.211765 
L 660.522699 254.435294 
L 661.269604 189.211765 
L 662.016509 209.964706 
L 662.763413 242.576471 
L 663.510318 307.8 
L 664.257223 295.941176 
L 665.004127 215.894118 
L 665.751032 307.8 
L 666.497936 307.8 
L 667.244841 292.976471 
L 667.991746 284.082353 
L 668.73865 307.8 
L 669.485555 266.294118 
L 670.23246 245.541176 
L 670.979364 281.117647 
L 671.726269 209.964706 
L 672.473173 198.105882 
L 673.220078 236.647059 
L 673.966983 198.105882 
L 674.713887 177.352941 
L 675.460792 132.882353 
L 676.207697 121.023529 
L 676.954601 224.788235 
L 677.701506 207 
L 678.44841 215.894118 
L 679.195315 180.317647 
L 679.94222 236.647059 
L 680.689124 284.082353 
L 681.436029 307.8 
L 682.182934 272.223529 
L 682.929838 307.8 
L 683.676743 307.8 
L 684.423648 301.870588 
L 685.170552 284.082353 
L 685.917457 307.8 
L 686.664361 284.082353 
L 687.411266 304.835294 
L 688.158171 290.011765 
L 688.905075 242.576471 
L 689.65198 307.8 
L 690.398885 260.364706 
L 691.145789 230.717647 
L 691.892694 144.741176 
L 692.639598 153.635294 
L 693.386503 70.623529 
L 694.133408 224.788235 
L 694.880312 272.223529 
L 695.627217 239.611765 
L 696.374122 198.105882 
L 697.121026 207 
L 697.867931 272.223529 
L 698.614835 307.8 
L 699.36174 263.329412 
L 700.855549 307.8 
L 701.602454 307.8 
L 702.349359 298.905882 
L 703.843168 287.047059 
L 704.590073 269.258824 
L 705.336977 272.223529 
L 706.083882 227.752941 
L 706.830786 204.035294 
L 707.577691 198.105882 
L 708.324596 115.094118 
L 709.0715 144.741176 
L 709.818405 224.788235 
L 710.56531 201.070588 
L 711.312214 201.070588 
L 712.059119 230.717647 
L 712.806023 254.435294 
L 713.552928 295.941176 
L 714.299833 201.070588 
L 715.046737 304.835294 
L 715.793642 301.870588 
L 716.540547 307.8 
L 718.78126 307.8 
L 719.528165 298.905882 
L 720.27507 307.8 
L 721.021974 307.8 
L 721.768879 248.505882 
L 722.515784 254.435294 
L 723.262688 263.329412 
L 724.009593 209.964706 
L 724.756497 227.752941 
L 725.503402 209.964706 
L 726.250307 138.811765 
L 726.997211 204.035294 
L 727.744116 168.458824 
L 728.491021 192.176471 
L 729.237925 183.282353 
L 729.98483 204.035294 
L 730.731735 245.541176 
L 731.478639 192.176471 
L 732.225544 266.294118 
L 732.972448 304.835294 
L 733.719353 245.541176 
L 734.466258 307.8 
L 735.213162 292.976471 
L 735.960067 307.8 
L 736.706972 307.8 
L 737.453876 290.011765 
L 738.200781 221.823529 
L 738.947685 242.576471 
L 739.69459 275.188235 
L 740.441495 239.611765 
L 741.188399 242.576471 
L 741.935304 195.141176 
L 742.682209 186.247059 
L 743.429113 135.847059 
L 744.176018 207 
L 744.922922 207 
L 745.669827 186.247059 
L 747.163636 278.152941 
L 747.163636 278.152941 
" clip-path="url(#pc1f6f742ab)" style="fill: none; stroke: #191970; stroke-width: 2; stroke-linecap: square"/>
   </g>
   <g id="patch_3">
    <path d="M 108 320.4 
L 108 43.2 
" style="fill: none; stroke: #000000; stroke-width: 0.8; stroke-linejoin: miter; stroke-linecap: square"/>
   </g>
   <g id="patch_4">
    <path d="M 777.6 320.4 
L 777.6 43.2 
" style="fill: none; stroke: #000000; stroke-width: 0.8; stroke-linejoin: miter; stroke-linecap: square"/>
   </g>
   <g id="patch_5">
    <path d="M 108 320.4 
L 777.6 320.4 
" style="fill: none; stroke: #000000; stroke-width: 0.8; stroke-linejoin: miter; stroke-linecap: square"/>
   </g>
   <g id="patch_6">
    <path d="M 108 43.2 
L 777.6 43.2 
" style="fill: none; stroke: #000000; stroke-width: 0.8; stroke-linejoin: miter; stroke-linecap: square"/>
   </g>
   <g id="text_17">
    <!-- TIME SERIES -->
    <g transform="translate(405.350625 37.2) scale(0.12 -0.12)">
     <defs>
      <path id="DejaVuSans-52" d="M 2841 2188 
Q 3044 2119 3236 1894 
Q 3428 1669 3622 1275 
L 4263 0 
L 3584 0 
L 2988 1197 
Q 2756 1666 2539 1819 
Q 2322 1972 1947 1972 
L 1259 1972 
L 1259 0 
L 628 0 
L 628 4666 
L 2053 4666 
Q 2853 4666 3247 4331 
Q 3641 3997 3641 3322 
Q 3641 2881 3436 2590 
Q 3231 2300 2841 2188 
z
M 1259 4147 
L 1259 2491 
L 2053 2491 
Q 2509 2491 2742 2702 
Q 2975 2913 2975 3322 
Q 2975 3731 2742 3939 
Q 2509 4147 2053 4147 
L 1259 4147 
z
" transform="scale(0.015625)"/>
     </defs>
     <use xlink:href="#DejaVuSans-54"/>
     <use xlink:href="#DejaVuSans-49" x="61.083984"/>
     <use xlink:href="#DejaVuSans-4d" x="90.576172"/>
     <use xlink:href="#DejaVuSans-45" x="176.855469"/>
     <use xlink:href="#DejaVuSans-20" x="240.039062"/>
     <use xlink:href="#DejaVuSans-53" x="271.826172"/>
     <use xlink:href="#DejaVuSans-45" x="335.302734"/>
     <use xlink:href="#DejaVuSans-52" x="398.486328"/>
     <use xlink:href="#DejaVuSans-49" x="467.96875"/>
     <use xlink:href="#DejaVuSans-45" x="497.460938"/>
     <use xlink:href="#DejaVuSans-53" x="560.644531"/>
    </g>
   </g>
  </g>
 </g>
 <defs>
  <clipPath id="pc1f6f742ab">
   <rect x="108" y="43.2" width="669.6" height="277.2"/>
  </clipPath>
 </defs>
</svg>
