<?xml version="1.0" encoding="utf-8" standalone="no"?>
<!DOCTYPE svg PUBLIC "-//W3C//DTD SVG 1.1//EN"
  "http://www.w3.org/Graphics/SVG/1.1/DTD/svg11.dtd">
<svg xmlns:xlink="http://www.w3.org/1999/xlink" width="864pt" height="360pt" viewBox="0 0 864 360" xmlns="http://www.w3.org/2000/svg" version="1.1">
 <metadata>
  <rdf:RDF xmlns:dc="http://purl.org/dc/elements/1.1/" xmlns:cc="http://creativecommons.org/ns#" xmlns:rdf="http://www.w3.org/1999/02/22-rdf-syntax-ns#">
   <cc:Work>
    <dc:type rdf:resource="http://purl.org/dc/dcmitype/StillImage"/>
    <dc:date>2023-08-03T16:18:48.869704</dc:date>
    <dc:format>image/svg+xml</dc:format>
    <dc:creator>
     <cc:Agent>
      <dc:title>Matplotlib v3.7.1, https://matplotlib.org/</dc:title>
     </cc:Agent>
    </dc:creator>
   </cc:Work>
  </rdf:RDF>
 </metadata>
 <defs>
  <style type="text/css">*{stroke-linejoin: round; stroke-linecap: butt}</style>
 </defs>
 <g id="figure_1">
  <g id="patch_1">
   <path d="M 0 360 
L 864 360 
L 864 0 
L 0 0 
z
" style="fill: #ffffff"/>
  </g>
  <g id="axes_1">
   <g id="patch_2">
    <path d="M 108 320.4 
L 777.6 320.4 
L 777.6 43.2 
L 108 43.2 
z
" style="fill: #ffffff"/>
   </g>
   <g id="matplotlib.axis_1">
    <g id="xtick_1">
     <g id="line2d_1">
      <defs>
       <path id="m5cdb2f5521" d="M 0 0 
L 0 3.5 
" style="stroke: #000000; stroke-width: 0.8"/>
      </defs>
      <g>
       <use xlink:href="#m5cdb2f5521" x="138.436364" y="320.4" style="stroke: #000000; stroke-width: 0.8"/>
      </g>
     </g>
     <g id="text_1">
      <!-- 2022-01-01 -->
      <g transform="translate(109.378551 334.998438) scale(0.1 -0.1)">
       <defs>
        <path id="DejaVuSans-32" d="M 1228 531 
L 3431 531 
L 3431 0 
L 469 0 
L 469 531 
Q 828 903 1448 1529 
Q 2069 2156 2228 2338 
Q 2531 2678 2651 2914 
Q 2772 3150 2772 3378 
Q 2772 3750 2511 3984 
Q 2250 4219 1831 4219 
Q 1534 4219 1204 4116 
Q 875 4013 500 3803 
L 500 4441 
Q 881 4594 1212 4672 
Q 1544 4750 1819 4750 
Q 2544 4750 2975 4387 
Q 3406 4025 3406 3419 
Q 3406 3131 3298 2873 
Q 3191 2616 2906 2266 
Q 2828 2175 2409 1742 
Q 1991 1309 1228 531 
z
" transform="scale(0.015625)"/>
        <path id="DejaVuSans-30" d="M 2034 4250 
Q 1547 4250 1301 3770 
Q 1056 3291 1056 2328 
Q 1056 1369 1301 889 
Q 1547 409 2034 409 
Q 2525 409 2770 889 
Q 3016 1369 3016 2328 
Q 3016 3291 2770 3770 
Q 2525 4250 2034 4250 
z
M 2034 4750 
Q 2819 4750 3233 4129 
Q 3647 3509 3647 2328 
Q 3647 1150 3233 529 
Q 2819 -91 2034 -91 
Q 1250 -91 836 529 
Q 422 1150 422 2328 
Q 422 3509 836 4129 
Q 1250 4750 2034 4750 
z
" transform="scale(0.015625)"/>
        <path id="DejaVuSans-2d" d="M 313 2009 
L 1997 2009 
L 1997 1497 
L 313 1497 
L 313 2009 
z
" transform="scale(0.015625)"/>
        <path id="DejaVuSans-31" d="M 794 531 
L 1825 531 
L 1825 4091 
L 703 3866 
L 703 4441 
L 1819 4666 
L 2450 4666 
L 2450 531 
L 3481 531 
L 3481 0 
L 794 0 
L 794 531 
z
" transform="scale(0.015625)"/>
       </defs>
       <use xlink:href="#DejaVuSans-32"/>
       <use xlink:href="#DejaVuSans-30" x="63.623047"/>
       <use xlink:href="#DejaVuSans-32" x="127.246094"/>
       <use xlink:href="#DejaVuSans-32" x="190.869141"/>
       <use xlink:href="#DejaVuSans-2d" x="254.492188"/>
       <use xlink:href="#DejaVuSans-30" x="290.576172"/>
       <use xlink:href="#DejaVuSans-31" x="354.199219"/>
       <use xlink:href="#DejaVuSans-2d" x="417.822266"/>
       <use xlink:href="#DejaVuSans-30" x="453.90625"/>
       <use xlink:href="#DejaVuSans-31" x="517.529297"/>
      </g>
     </g>
    </g>
    <g id="xtick_2">
     <g id="line2d_2">
      <g>
       <use xlink:href="#m5cdb2f5521" x="232.237035" y="320.4" style="stroke: #000000; stroke-width: 0.8"/>
      </g>
     </g>
     <g id="text_2">
      <!-- 2022-01-03 -->
      <g transform="translate(203.179222 334.998438) scale(0.1 -0.1)">
       <defs>
        <path id="DejaVuSans-33" d="M 2597 2516 
Q 3050 2419 3304 2112 
Q 3559 1806 3559 1356 
Q 3559 666 3084 287 
Q 2609 -91 1734 -91 
Q 1441 -91 1130 -33 
Q 819 25 488 141 
L 488 750 
Q 750 597 1062 519 
Q 1375 441 1716 441 
Q 2309 441 2620 675 
Q 2931 909 2931 1356 
Q 2931 1769 2642 2001 
Q 2353 2234 1838 2234 
L 1294 2234 
L 1294 2753 
L 1863 2753 
Q 2328 2753 2575 2939 
Q 2822 3125 2822 3475 
Q 2822 3834 2567 4026 
Q 2313 4219 1838 4219 
Q 1578 4219 1281 4162 
Q 984 4106 628 3988 
L 628 4550 
Q 988 4650 1302 4700 
Q 1616 4750 1894 4750 
Q 2613 4750 3031 4423 
Q 3450 4097 3450 3541 
Q 3450 3153 3228 2886 
Q 3006 2619 2597 2516 
z
" transform="scale(0.015625)"/>
       </defs>
       <use xlink:href="#DejaVuSans-32"/>
       <use xlink:href="#DejaVuSans-30" x="63.623047"/>
       <use xlink:href="#DejaVuSans-32" x="127.246094"/>
       <use xlink:href="#DejaVuSans-32" x="190.869141"/>
       <use xlink:href="#DejaVuSans-2d" x="254.492188"/>
       <use xlink:href="#DejaVuSans-30" x="290.576172"/>
       <use xlink:href="#DejaVuSans-31" x="354.199219"/>
       <use xlink:href="#DejaVuSans-2d" x="417.822266"/>
       <use xlink:href="#DejaVuSans-30" x="453.90625"/>
       <use xlink:href="#DejaVuSans-33" x="517.529297"/>
      </g>
     </g>
    </g>
    <g id="xtick_3">
     <g id="line2d_3">
      <g>
       <use xlink:href="#m5cdb2f5521" x="326.037706" y="320.4" style="stroke: #000000; stroke-width: 0.8"/>
      </g>
     </g>
     <g id="text_3">
      <!-- 2022-01-05 -->
      <g transform="translate(296.979894 334.998438) scale(0.1 -0.1)">
       <defs>
        <path id="DejaVuSans-35" d="M 691 4666 
L 3169 4666 
L 3169 4134 
L 1269 4134 
L 1269 2991 
Q 1406 3038 1543 3061 
Q 1681 3084 1819 3084 
Q 2600 3084 3056 2656 
Q 3513 2228 3513 1497 
Q 3513 744 3044 326 
Q 2575 -91 1722 -91 
Q 1428 -91 1123 -41 
Q 819 9 494 109 
L 494 744 
Q 775 591 1075 516 
Q 1375 441 1709 441 
Q 2250 441 2565 725 
Q 2881 1009 2881 1497 
Q 2881 1984 2565 2268 
Q 2250 2553 1709 2553 
Q 1456 2553 1204 2497 
Q 953 2441 691 2322 
L 691 4666 
z
" transform="scale(0.015625)"/>
       </defs>
       <use xlink:href="#DejaVuSans-32"/>
       <use xlink:href="#DejaVuSans-30" x="63.623047"/>
       <use xlink:href="#DejaVuSans-32" x="127.246094"/>
       <use xlink:href="#DejaVuSans-32" x="190.869141"/>
       <use xlink:href="#DejaVuSans-2d" x="254.492188"/>
       <use xlink:href="#DejaVuSans-30" x="290.576172"/>
       <use xlink:href="#DejaVuSans-31" x="354.199219"/>
       <use xlink:href="#DejaVuSans-2d" x="417.822266"/>
       <use xlink:href="#DejaVuSans-30" x="453.90625"/>
       <use xlink:href="#DejaVuSans-35" x="517.529297"/>
      </g>
     </g>
    </g>
    <g id="xtick_4">
     <g id="line2d_4">
      <g>
       <use xlink:href="#m5cdb2f5521" x="419.838377" y="320.4" style="stroke: #000000; stroke-width: 0.8"/>
      </g>
     </g>
     <g id="text_4">
      <!-- 2022-01-07 -->
      <g transform="translate(390.780565 334.998438) scale(0.1 -0.1)">
       <defs>
        <path id="DejaVuSans-37" d="M 525 4666 
L 3525 4666 
L 3525 4397 
L 1831 0 
L 1172 0 
L 2766 4134 
L 525 4134 
L 525 4666 
z
" transform="scale(0.015625)"/>
       </defs>
       <use xlink:href="#DejaVuSans-32"/>
       <use xlink:href="#DejaVuSans-30" x="63.623047"/>
       <use xlink:href="#DejaVuSans-32" x="127.246094"/>
       <use xlink:href="#DejaVuSans-32" x="190.869141"/>
       <use xlink:href="#DejaVuSans-2d" x="254.492188"/>
       <use xlink:href="#DejaVuSans-30" x="290.576172"/>
       <use xlink:href="#DejaVuSans-31" x="354.199219"/>
       <use xlink:href="#DejaVuSans-2d" x="417.822266"/>
       <use xlink:href="#DejaVuSans-30" x="453.90625"/>
       <use xlink:href="#DejaVuSans-37" x="517.529297"/>
      </g>
     </g>
    </g>
    <g id="xtick_5">
     <g id="line2d_5">
      <g>
       <use xlink:href="#m5cdb2f5521" x="513.639049" y="320.4" style="stroke: #000000; stroke-width: 0.8"/>
      </g>
     </g>
     <g id="text_5">
      <!-- 2022-01-09 -->
      <g transform="translate(484.581236 334.998438) scale(0.1 -0.1)">
       <defs>
        <path id="DejaVuSans-39" d="M 703 97 
L 703 672 
Q 941 559 1184 500 
Q 1428 441 1663 441 
Q 2288 441 2617 861 
Q 2947 1281 2994 2138 
Q 2813 1869 2534 1725 
Q 2256 1581 1919 1581 
Q 1219 1581 811 2004 
Q 403 2428 403 3163 
Q 403 3881 828 4315 
Q 1253 4750 1959 4750 
Q 2769 4750 3195 4129 
Q 3622 3509 3622 2328 
Q 3622 1225 3098 567 
Q 2575 -91 1691 -91 
Q 1453 -91 1209 -44 
Q 966 3 703 97 
z
M 1959 2075 
Q 2384 2075 2632 2365 
Q 2881 2656 2881 3163 
Q 2881 3666 2632 3958 
Q 2384 4250 1959 4250 
Q 1534 4250 1286 3958 
Q 1038 3666 1038 3163 
Q 1038 2656 1286 2365 
Q 1534 2075 1959 2075 
z
" transform="scale(0.015625)"/>
       </defs>
       <use xlink:href="#DejaVuSans-32"/>
       <use xlink:href="#DejaVuSans-30" x="63.623047"/>
       <use xlink:href="#DejaVuSans-32" x="127.246094"/>
       <use xlink:href="#DejaVuSans-32" x="190.869141"/>
       <use xlink:href="#DejaVuSans-2d" x="254.492188"/>
       <use xlink:href="#DejaVuSans-30" x="290.576172"/>
       <use xlink:href="#DejaVuSans-31" x="354.199219"/>
       <use xlink:href="#DejaVuSans-2d" x="417.822266"/>
       <use xlink:href="#DejaVuSans-30" x="453.90625"/>
       <use xlink:href="#DejaVuSans-39" x="517.529297"/>
      </g>
     </g>
    </g>
    <g id="xtick_6">
     <g id="line2d_6">
      <g>
       <use xlink:href="#m5cdb2f5521" x="607.43972" y="320.4" style="stroke: #000000; stroke-width: 0.8"/>
      </g>
     </g>
     <g id="text_6">
      <!-- 2022-01-11 -->
      <g transform="translate(578.381907 334.998438) scale(0.1 -0.1)">
       <use xlink:href="#DejaVuSans-32"/>
       <use xlink:href="#DejaVuSans-30" x="63.623047"/>
       <use xlink:href="#DejaVuSans-32" x="127.246094"/>
       <use xlink:href="#DejaVuSans-32" x="190.869141"/>
       <use xlink:href="#DejaVuSans-2d" x="254.492188"/>
       <use xlink:href="#DejaVuSans-30" x="290.576172"/>
       <use xlink:href="#DejaVuSans-31" x="354.199219"/>
       <use xlink:href="#DejaVuSans-2d" x="417.822266"/>
       <use xlink:href="#DejaVuSans-31" x="453.90625"/>
       <use xlink:href="#DejaVuSans-31" x="517.529297"/>
      </g>
     </g>
    </g>
    <g id="xtick_7">
     <g id="line2d_7">
      <g>
       <use xlink:href="#m5cdb2f5521" x="701.240391" y="320.4" style="stroke: #000000; stroke-width: 0.8"/>
      </g>
     </g>
     <g id="text_7">
      <!-- 2022-01-13 -->
      <g transform="translate(672.182579 334.998438) scale(0.1 -0.1)">
       <use xlink:href="#DejaVuSans-32"/>
       <use xlink:href="#DejaVuSans-30" x="63.623047"/>
       <use xlink:href="#DejaVuSans-32" x="127.246094"/>
       <use xlink:href="#DejaVuSans-32" x="190.869141"/>
       <use xlink:href="#DejaVuSans-2d" x="254.492188"/>
       <use xlink:href="#DejaVuSans-30" x="290.576172"/>
       <use xlink:href="#DejaVuSans-31" x="354.199219"/>
       <use xlink:href="#DejaVuSans-2d" x="417.822266"/>
       <use xlink:href="#DejaVuSans-31" x="453.90625"/>
       <use xlink:href="#DejaVuSans-33" x="517.529297"/>
      </g>
     </g>
    </g>
    <g id="text_8">
     <!-- TIME (DAYS) -->
     <g transform="translate(412.283594 348.676562) scale(0.1 -0.1)">
      <defs>
       <path id="DejaVuSans-54" d="M -19 4666 
L 3928 4666 
L 3928 4134 
L 2272 4134 
L 2272 0 
L 1638 0 
L 1638 4134 
L -19 4134 
L -19 4666 
z
" transform="scale(0.015625)"/>
       <path id="DejaVuSans-49" d="M 628 4666 
L 1259 4666 
L 1259 0 
L 628 0 
L 628 4666 
z
" transform="scale(0.015625)"/>
       <path id="DejaVuSans-4d" d="M 628 4666 
L 1569 4666 
L 2759 1491 
L 3956 4666 
L 4897 4666 
L 4897 0 
L 4281 0 
L 4281 4097 
L 3078 897 
L 2444 897 
L 1241 4097 
L 1241 0 
L 628 0 
L 628 4666 
z
" transform="scale(0.015625)"/>
       <path id="DejaVuSans-45" d="M 628 4666 
L 3578 4666 
L 3578 4134 
L 1259 4134 
L 1259 2753 
L 3481 2753 
L 3481 2222 
L 1259 2222 
L 1259 531 
L 3634 531 
L 3634 0 
L 628 0 
L 628 4666 
z
" transform="scale(0.015625)"/>
       <path id="DejaVuSans-20" transform="scale(0.015625)"/>
       <path id="DejaVuSans-28" d="M 1984 4856 
Q 1566 4138 1362 3434 
Q 1159 2731 1159 2009 
Q 1159 1288 1364 580 
Q 1569 -128 1984 -844 
L 1484 -844 
Q 1016 -109 783 600 
Q 550 1309 550 2009 
Q 550 2706 781 3412 
Q 1013 4119 1484 4856 
L 1984 4856 
z
" transform="scale(0.015625)"/>
       <path id="DejaVuSans-44" d="M 1259 4147 
L 1259 519 
L 2022 519 
Q 2988 519 3436 956 
Q 3884 1394 3884 2338 
Q 3884 3275 3436 3711 
Q 2988 4147 2022 4147 
L 1259 4147 
z
M 628 4666 
L 1925 4666 
Q 3281 4666 3915 4102 
Q 4550 3538 4550 2338 
Q 4550 1131 3912 565 
Q 3275 0 1925 0 
L 628 0 
L 628 4666 
z
" transform="scale(0.015625)"/>
       <path id="DejaVuSans-41" d="M 2188 4044 
L 1331 1722 
L 3047 1722 
L 2188 4044 
z
M 1831 4666 
L 2547 4666 
L 4325 0 
L 3669 0 
L 3244 1197 
L 1141 1197 
L 716 0 
L 50 0 
L 1831 4666 
z
" transform="scale(0.015625)"/>
       <path id="DejaVuSans-59" d="M -13 4666 
L 666 4666 
L 1959 2747 
L 3244 4666 
L 3922 4666 
L 2272 2222 
L 2272 0 
L 1638 0 
L 1638 2222 
L -13 4666 
z
" transform="scale(0.015625)"/>
       <path id="DejaVuSans-53" d="M 3425 4513 
L 3425 3897 
Q 3066 4069 2747 4153 
Q 2428 4238 2131 4238 
Q 1616 4238 1336 4038 
Q 1056 3838 1056 3469 
Q 1056 3159 1242 3001 
Q 1428 2844 1947 2747 
L 2328 2669 
Q 3034 2534 3370 2195 
Q 3706 1856 3706 1288 
Q 3706 609 3251 259 
Q 2797 -91 1919 -91 
Q 1588 -91 1214 -16 
Q 841 59 441 206 
L 441 856 
Q 825 641 1194 531 
Q 1563 422 1919 422 
Q 2459 422 2753 634 
Q 3047 847 3047 1241 
Q 3047 1584 2836 1778 
Q 2625 1972 2144 2069 
L 1759 2144 
Q 1053 2284 737 2584 
Q 422 2884 422 3419 
Q 422 4038 858 4394 
Q 1294 4750 2059 4750 
Q 2388 4750 2728 4690 
Q 3069 4631 3425 4513 
z
" transform="scale(0.015625)"/>
       <path id="DejaVuSans-29" d="M 513 4856 
L 1013 4856 
Q 1481 4119 1714 3412 
Q 1947 2706 1947 2009 
Q 1947 1309 1714 600 
Q 1481 -109 1013 -844 
L 513 -844 
Q 928 -128 1133 580 
Q 1338 1288 1338 2009 
Q 1338 2731 1133 3434 
Q 928 4138 513 4856 
z
" transform="scale(0.015625)"/>
      </defs>
      <use xlink:href="#DejaVuSans-54"/>
      <use xlink:href="#DejaVuSans-49" x="61.083984"/>
      <use xlink:href="#DejaVuSans-4d" x="90.576172"/>
      <use xlink:href="#DejaVuSans-45" x="176.855469"/>
      <use xlink:href="#DejaVuSans-20" x="240.039062"/>
      <use xlink:href="#DejaVuSans-28" x="271.826172"/>
      <use xlink:href="#DejaVuSans-44" x="310.839844"/>
      <use xlink:href="#DejaVuSans-41" x="386.091797"/>
      <use xlink:href="#DejaVuSans-59" x="446.75"/>
      <use xlink:href="#DejaVuSans-53" x="507.833984"/>
      <use xlink:href="#DejaVuSans-29" x="571.310547"/>
     </g>
    </g>
   </g>
   <g id="matplotlib.axis_2">
    <g id="ytick_1">
     <g id="line2d_8">
      <defs>
       <path id="me058d53117" d="M 0 0 
L -3.5 0 
" style="stroke: #000000; stroke-width: 0.8"/>
      </defs>
      <g>
       <use xlink:href="#me058d53117" x="108" y="307.8" style="stroke: #000000; stroke-width: 0.8"/>
      </g>
     </g>
     <g id="text_9">
      <!-- 0 -->
      <g transform="translate(94.6375 311.599219) scale(0.1 -0.1)">
       <use xlink:href="#DejaVuSans-30"/>
      </g>
     </g>
    </g>
    <g id="ytick_2">
     <g id="line2d_9">
      <g>
       <use xlink:href="#me058d53117" x="108" y="251.170787" style="stroke: #000000; stroke-width: 0.8"/>
      </g>
     </g>
     <g id="text_10">
      <!-- 20 -->
      <g transform="translate(88.275 254.970005) scale(0.1 -0.1)">
       <use xlink:href="#DejaVuSans-32"/>
       <use xlink:href="#DejaVuSans-30" x="63.623047"/>
      </g>
     </g>
    </g>
    <g id="ytick_3">
     <g id="line2d_10">
      <g>
       <use xlink:href="#me058d53117" x="108" y="194.541573" style="stroke: #000000; stroke-width: 0.8"/>
      </g>
     </g>
     <g id="text_11">
      <!-- 40 -->
      <g transform="translate(88.275 198.340792) scale(0.1 -0.1)">
       <defs>
        <path id="DejaVuSans-34" d="M 2419 4116 
L 825 1625 
L 2419 1625 
L 2419 4116 
z
M 2253 4666 
L 3047 4666 
L 3047 1625 
L 3713 1625 
L 3713 1100 
L 3047 1100 
L 3047 0 
L 2419 0 
L 2419 1100 
L 313 1100 
L 313 1709 
L 2253 4666 
z
" transform="scale(0.015625)"/>
       </defs>
       <use xlink:href="#DejaVuSans-34"/>
       <use xlink:href="#DejaVuSans-30" x="63.623047"/>
      </g>
     </g>
    </g>
    <g id="ytick_4">
     <g id="line2d_11">
      <g>
       <use xlink:href="#me058d53117" x="108" y="137.91236" style="stroke: #000000; stroke-width: 0.8"/>
      </g>
     </g>
     <g id="text_12">
      <!-- 60 -->
      <g transform="translate(88.275 141.711578) scale(0.1 -0.1)">
       <defs>
        <path id="DejaVuSans-36" d="M 2113 2584 
Q 1688 2584 1439 2293 
Q 1191 2003 1191 1497 
Q 1191 994 1439 701 
Q 1688 409 2113 409 
Q 2538 409 2786 701 
Q 3034 994 3034 1497 
Q 3034 2003 2786 2293 
Q 2538 2584 2113 2584 
z
M 3366 4563 
L 3366 3988 
Q 3128 4100 2886 4159 
Q 2644 4219 2406 4219 
Q 1781 4219 1451 3797 
Q 1122 3375 1075 2522 
Q 1259 2794 1537 2939 
Q 1816 3084 2150 3084 
Q 2853 3084 3261 2657 
Q 3669 2231 3669 1497 
Q 3669 778 3244 343 
Q 2819 -91 2113 -91 
Q 1303 -91 875 529 
Q 447 1150 447 2328 
Q 447 3434 972 4092 
Q 1497 4750 2381 4750 
Q 2619 4750 2861 4703 
Q 3103 4656 3366 4563 
z
" transform="scale(0.015625)"/>
       </defs>
       <use xlink:href="#DejaVuSans-36"/>
       <use xlink:href="#DejaVuSans-30" x="63.623047"/>
      </g>
     </g>
    </g>
    <g id="ytick_5">
     <g id="line2d_12">
      <g>
       <use xlink:href="#me058d53117" x="108" y="81.283146" style="stroke: #000000; stroke-width: 0.8"/>
      </g>
     </g>
     <g id="text_13">
      <!-- 80 -->
      <g transform="translate(88.275 85.082365) scale(0.1 -0.1)">
       <defs>
        <path id="DejaVuSans-38" d="M 2034 2216 
Q 1584 2216 1326 1975 
Q 1069 1734 1069 1313 
Q 1069 891 1326 650 
Q 1584 409 2034 409 
Q 2484 409 2743 651 
Q 3003 894 3003 1313 
Q 3003 1734 2745 1975 
Q 2488 2216 2034 2216 
z
M 1403 2484 
Q 997 2584 770 2862 
Q 544 3141 544 3541 
Q 544 4100 942 4425 
Q 1341 4750 2034 4750 
Q 2731 4750 3128 4425 
Q 3525 4100 3525 3541 
Q 3525 3141 3298 2862 
Q 3072 2584 2669 2484 
Q 3125 2378 3379 2068 
Q 3634 1759 3634 1313 
Q 3634 634 3220 271 
Q 2806 -91 2034 -91 
Q 1263 -91 848 271 
Q 434 634 434 1313 
Q 434 1759 690 2068 
Q 947 2378 1403 2484 
z
M 1172 3481 
Q 1172 3119 1398 2916 
Q 1625 2713 2034 2713 
Q 2441 2713 2670 2916 
Q 2900 3119 2900 3481 
Q 2900 3844 2670 4047 
Q 2441 4250 2034 4250 
Q 1625 4250 1398 4047 
Q 1172 3844 1172 3481 
z
" transform="scale(0.015625)"/>
       </defs>
       <use xlink:href="#DejaVuSans-38"/>
       <use xlink:href="#DejaVuSans-30" x="63.623047"/>
      </g>
     </g>
    </g>
    <g id="text_14">
     <!-- AMPLITUDE -->
     <g transform="translate(82.195312 210.532812) rotate(-90) scale(0.1 -0.1)">
      <defs>
       <path id="DejaVuSans-50" d="M 1259 4147 
L 1259 2394 
L 2053 2394 
Q 2494 2394 2734 2622 
Q 2975 2850 2975 3272 
Q 2975 3691 2734 3919 
Q 2494 4147 2053 4147 
L 1259 4147 
z
M 628 4666 
L 2053 4666 
Q 2838 4666 3239 4311 
Q 3641 3956 3641 3272 
Q 3641 2581 3239 2228 
Q 2838 1875 2053 1875 
L 1259 1875 
L 1259 0 
L 628 0 
L 628 4666 
z
" transform="scale(0.015625)"/>
       <path id="DejaVuSans-4c" d="M 628 4666 
L 1259 4666 
L 1259 531 
L 3531 531 
L 3531 0 
L 628 0 
L 628 4666 
z
" transform="scale(0.015625)"/>
       <path id="DejaVuSans-55" d="M 556 4666 
L 1191 4666 
L 1191 1831 
Q 1191 1081 1462 751 
Q 1734 422 2344 422 
Q 2950 422 3222 751 
Q 3494 1081 3494 1831 
L 3494 4666 
L 4128 4666 
L 4128 1753 
Q 4128 841 3676 375 
Q 3225 -91 2344 -91 
Q 1459 -91 1007 375 
Q 556 841 556 1753 
L 556 4666 
z
" transform="scale(0.015625)"/>
      </defs>
      <use xlink:href="#DejaVuSans-41"/>
      <use xlink:href="#DejaVuSans-4d" x="68.408203"/>
      <use xlink:href="#DejaVuSans-50" x="154.6875"/>
      <use xlink:href="#DejaVuSans-4c" x="214.990234"/>
      <use xlink:href="#DejaVuSans-49" x="270.703125"/>
      <use xlink:href="#DejaVuSans-54" x="300.195312"/>
      <use xlink:href="#DejaVuSans-55" x="361.279297"/>
      <use xlink:href="#DejaVuSans-44" x="434.472656"/>
      <use xlink:href="#DejaVuSans-45" x="511.474609"/>
     </g>
    </g>
   </g>
   <g id="line2d_13">
    <path d="M 138.436364 259.665169 
L 139.413454 225.68764 
L 140.390544 152.069663 
L 141.367635 169.058427 
L 142.344725 149.238202 
L 143.321815 296.474157 
L 144.298906 245.507865 
L 145.275996 307.8 
L 146.253086 304.968539 
L 147.230177 296.474157 
L 148.207267 307.8 
L 149.184357 307.8 
L 150.161448 254.002247 
L 151.138538 307.8 
L 152.115628 307.8 
L 153.092719 299.305618 
L 154.069809 307.8 
L 155.046899 290.811236 
L 156.023989 217.193258 
L 157.00108 220.024719 
L 157.97817 214.361798 
L 158.95526 191.710112 
L 159.932351 245.507865 
L 160.909441 157.732584 
L 161.886531 307.8 
L 162.863622 268.159551 
L 163.840712 304.968539 
L 164.817802 307.8 
L 165.794893 287.979775 
L 166.771983 307.8 
L 167.749073 307.8 
L 168.726164 282.316854 
L 169.703254 290.811236 
L 170.680344 307.8 
L 171.657435 276.653933 
L 172.634525 276.653933 
L 173.611615 307.8 
L 174.588706 256.833708 
L 175.565796 285.148315 
L 176.542886 307.8 
L 177.519977 307.8 
L 178.497067 256.833708 
L 179.474157 307.8 
L 180.451248 304.968539 
L 181.428338 296.474157 
L 182.405428 237.013483 
L 183.382519 222.85618 
L 184.359609 307.8 
L 185.336699 214.361798 
L 186.31379 163.395506 
L 187.29088 262.496629 
L 188.26797 307.8 
L 189.245061 282.316854 
L 191.199241 282.316854 
L 192.176332 307.8 
L 194.130512 307.8 
L 195.107603 273.822472 
L 196.084693 307.8 
L 198.038873 307.8 
L 199.015964 302.137079 
L 199.993054 254.002247 
L 200.970144 307.8 
L 201.947235 217.193258 
L 202.924325 205.867416 
L 203.901415 307.8 
L 204.878506 248.339326 
L 205.855596 211.530337 
L 206.832686 135.080899 
L 207.809777 239.844944 
L 208.786867 307.8 
L 209.763957 307.8 
L 210.741048 268.159551 
L 211.718138 299.305618 
L 212.695228 279.485393 
L 213.672319 307.8 
L 214.649409 307.8 
L 215.626499 287.979775 
L 216.60359 237.013483 
L 217.58068 225.68764 
L 218.55777 307.8 
L 219.534861 307.8 
L 220.511951 304.968539 
L 221.489041 307.8 
L 222.466132 191.710112 
L 223.443222 307.8 
L 224.420312 307.8 
L 225.397403 231.350562 
L 226.374493 307.8 
L 227.351583 276.653933 
L 228.328674 307.8 
L 229.305764 265.32809 
L 230.282854 307.8 
L 231.259945 307.8 
L 232.237035 171.889888 
L 233.214125 248.339326 
L 234.191216 307.8 
L 235.168306 217.193258 
L 236.145396 239.844944 
L 237.122487 242.676404 
L 238.099577 211.530337 
L 239.076667 237.013483 
L 240.053757 307.8 
L 241.030848 262.496629 
L 242.007938 231.350562 
L 242.985028 270.991011 
L 243.962119 262.496629 
L 244.939209 307.8 
L 245.916299 242.676404 
L 246.89339 222.85618 
L 247.87048 290.811236 
L 248.84757 270.991011 
L 249.824661 228.519101 
L 250.801751 169.058427 
L 251.778841 268.159551 
L 252.755932 307.8 
L 254.710112 171.889888 
L 255.687203 307.8 
L 259.595564 307.8 
L 260.572654 279.485393 
L 261.549745 265.32809 
L 262.526835 307.8 
L 264.481016 307.8 
L 265.458106 276.653933 
L 266.435196 276.653933 
L 267.412287 307.8 
L 268.389377 307.8 
L 269.366467 245.507865 
L 270.343558 268.159551 
L 271.320648 217.193258 
L 272.297738 307.8 
L 274.251919 285.148315 
L 275.229009 268.159551 
L 276.2061 307.8 
L 277.18319 299.305618 
L 278.16028 307.8 
L 279.13737 183.21573 
L 280.114461 265.32809 
L 281.091551 137.91236 
L 282.068641 265.32809 
L 283.045732 197.373034 
L 284.022822 262.496629 
L 284.999912 268.159551 
L 285.977003 302.137079 
L 286.954093 239.844944 
L 287.931183 307.8 
L 288.908274 251.170787 
L 289.885364 307.8 
L 290.862454 220.024719 
L 291.839545 307.8 
L 294.770816 307.8 
L 295.747906 123.755056 
L 296.724996 307.8 
L 297.702087 214.361798 
L 298.679177 276.653933 
L 299.656267 211.530337 
L 300.633358 194.541573 
L 301.610448 259.665169 
L 302.587538 307.8 
L 305.518809 307.8 
L 306.4959 262.496629 
L 307.47299 307.8 
L 308.45008 307.8 
L 309.427171 259.665169 
L 310.404261 265.32809 
L 311.381351 307.8 
L 312.358442 293.642697 
L 313.335532 307.8 
L 319.198074 307.8 
L 320.175164 304.968539 
L 321.152254 307.8 
L 322.129345 307.8 
L 323.106435 290.811236 
L 324.083525 307.8 
L 325.060616 307.8 
L 326.037706 222.85618 
L 327.014796 214.361798 
L 327.991887 214.361798 
L 328.968977 211.530337 
L 329.946067 299.305618 
L 330.923158 239.844944 
L 331.900248 307.8 
L 332.877338 282.316854 
L 333.854429 239.844944 
L 334.831519 268.159551 
L 335.808609 307.8 
L 336.7857 228.519101 
L 337.76279 307.8 
L 338.73988 307.8 
L 339.716971 211.530337 
L 340.694061 307.8 
L 341.671151 299.305618 
L 342.648242 239.844944 
L 343.625332 205.867416 
L 344.602422 273.822472 
L 345.579513 251.170787 
L 346.556603 174.721348 
L 347.533693 174.721348 
L 348.510784 183.21573 
L 349.487874 307.8 
L 350.464964 304.968539 
L 351.442055 259.665169 
L 352.419145 304.968539 
L 353.396235 234.182022 
L 354.373326 307.8 
L 357.304597 307.8 
L 358.281687 239.844944 
L 359.258777 287.979775 
L 360.235868 234.182022 
L 361.212958 307.8 
L 363.167138 307.8 
L 364.144229 276.653933 
L 365.121319 251.170787 
L 366.098409 307.8 
L 367.0755 307.8 
L 368.05259 256.833708 
L 369.02968 307.8 
L 370.006771 307.8 
L 370.983861 290.811236 
L 371.960951 307.8 
L 372.938042 186.047191 
L 373.915132 163.395506 
L 374.892222 234.182022 
L 375.869313 169.058427 
L 376.846403 254.002247 
L 377.823493 307.8 
L 378.800584 270.991011 
L 379.777674 279.485393 
L 380.754764 234.182022 
L 381.731855 307.8 
L 382.708945 307.8 
L 383.686035 265.32809 
L 384.663126 307.8 
L 385.640216 307.8 
L 386.617306 254.002247 
L 387.594397 183.21573 
L 388.571487 293.642697 
L 389.548577 307.8 
L 390.525668 214.361798 
L 391.502758 262.496629 
L 392.479848 245.507865 
L 393.456939 234.182022 
L 394.434029 234.182022 
L 395.411119 200.204494 
L 396.38821 262.496629 
L 397.3653 304.968539 
L 398.34239 194.541573 
L 399.319481 307.8 
L 400.296571 214.361798 
L 401.273661 299.305618 
L 402.250751 307.8 
L 403.227842 290.811236 
L 404.204932 307.8 
L 405.182022 285.148315 
L 406.159113 205.867416 
L 407.136203 307.8 
L 411.044564 307.8 
L 412.021655 208.698876 
L 412.998745 251.170787 
L 413.975835 307.8 
L 414.952926 307.8 
L 415.930016 273.822472 
L 416.907106 254.002247 
L 417.884197 270.991011 
L 418.861287 307.8 
L 419.838377 140.74382 
L 420.815468 152.069663 
L 421.792558 197.373034 
L 422.769648 205.867416 
L 423.746739 259.665169 
L 424.723829 296.474157 
L 425.700919 231.350562 
L 426.67801 307.8 
L 430.586371 307.8 
L 431.563461 302.137079 
L 432.540552 307.8 
L 433.517642 307.8 
L 434.494732 245.507865 
L 436.448913 304.968539 
L 437.426003 245.507865 
L 438.403094 273.822472 
L 439.380184 203.035955 
L 440.357274 211.530337 
L 441.334365 217.193258 
L 442.311455 157.732584 
L 443.288545 279.485393 
L 444.265635 273.822472 
L 445.242726 251.170787 
L 446.219816 307.8 
L 447.196906 307.8 
L 448.173997 285.148315 
L 449.151087 307.8 
L 450.128177 304.968539 
L 451.105268 256.833708 
L 452.082358 254.002247 
L 453.059448 262.496629 
L 454.036539 307.8 
L 458.92199 307.8 
L 459.899081 276.653933 
L 460.876171 262.496629 
L 461.853261 245.507865 
L 462.830352 256.833708 
L 463.807442 296.474157 
L 464.784532 307.8 
L 465.761623 307.8 
L 466.738713 137.91236 
L 467.715803 194.541573 
L 468.692894 183.21573 
L 469.669984 228.519101 
L 470.647074 171.889888 
L 471.624165 290.811236 
L 472.601255 180.38427 
L 473.578345 290.811236 
L 474.555436 211.530337 
L 475.532526 251.170787 
L 476.509616 279.485393 
L 477.486707 302.137079 
L 478.463797 270.991011 
L 480.417978 242.676404 
L 481.395068 307.8 
L 482.372158 282.316854 
L 483.349249 276.653933 
L 484.326339 248.339326 
L 485.303429 273.822472 
L 486.280519 143.575281 
L 487.25761 279.485393 
L 488.2347 214.361798 
L 489.21179 81.283146 
L 490.188881 282.316854 
L 491.165971 307.8 
L 492.143061 276.653933 
L 493.120152 307.8 
L 494.097242 307.8 
L 495.074332 270.991011 
L 496.051423 248.339326 
L 497.028513 307.8 
L 498.005603 307.8 
L 498.982694 293.642697 
L 499.959784 270.991011 
L 500.936874 307.8 
L 502.891055 307.8 
L 503.868145 268.159551 
L 504.845236 307.8 
L 506.799416 307.8 
L 507.776507 285.148315 
L 508.753597 307.8 
L 510.707778 307.8 
L 511.684868 268.159551 
L 512.661958 287.979775 
L 513.639049 239.844944 
L 514.616139 200.204494 
L 515.593229 220.024719 
L 516.57032 154.901124 
L 517.54741 217.193258 
L 518.5245 262.496629 
L 519.501591 225.68764 
L 520.478681 217.193258 
L 521.455771 307.8 
L 522.432862 302.137079 
L 523.409952 285.148315 
L 524.387042 299.305618 
L 525.364132 307.8 
L 527.318313 220.024719 
L 528.295403 304.968539 
L 529.272494 302.137079 
L 530.249584 307.8 
L 531.226674 225.68764 
L 532.203765 307.8 
L 534.157945 123.755056 
L 535.135036 188.878652 
L 536.112126 203.035955 
L 537.089216 307.8 
L 539.043397 307.8 
L 540.020487 265.32809 
L 540.997578 307.8 
L 543.928849 307.8 
L 544.905939 293.642697 
L 545.883029 307.8 
L 546.86012 307.8 
L 547.83721 211.530337 
L 548.8143 273.822472 
L 549.791391 307.8 
L 550.768481 307.8 
L 551.745571 248.339326 
L 552.722662 307.8 
L 553.699752 307.8 
L 554.676842 217.193258 
L 555.653933 307.8 
L 557.608113 307.8 
L 558.585204 299.305618 
L 559.562294 307.8 
L 560.539384 231.350562 
L 561.516475 123.755056 
L 562.493565 169.058427 
L 563.470655 245.507865 
L 564.447746 307.8 
L 565.424836 259.665169 
L 566.401926 307.8 
L 568.356107 307.8 
L 569.333197 302.137079 
L 570.310287 307.8 
L 571.287378 296.474157 
L 572.264468 282.316854 
L 573.241558 299.305618 
L 574.218649 262.496629 
L 575.195739 307.8 
L 576.172829 307.8 
L 577.14992 270.991011 
L 578.12701 307.8 
L 579.1041 279.485393 
L 580.081191 299.305618 
L 581.058281 163.395506 
L 582.035371 242.676404 
L 583.012462 242.676404 
L 583.989552 157.732584 
L 584.966642 307.8 
L 590.829184 307.8 
L 591.806275 251.170787 
L 592.783365 234.182022 
L 593.760455 276.653933 
L 594.737546 307.8 
L 595.714636 265.32809 
L 596.691726 279.485393 
L 597.668817 262.496629 
L 598.645907 256.833708 
L 599.622997 293.642697 
L 600.600088 307.8 
L 607.43972 307.8 
L 608.41681 149.238202 
L 609.3939 180.38427 
L 610.370991 169.058427 
L 611.348081 248.339326 
L 612.325171 188.878652 
L 613.302262 180.38427 
L 614.279352 307.8 
L 616.233533 307.8 
L 617.210623 251.170787 
L 618.187713 307.8 
L 619.164804 287.979775 
L 620.141894 307.8 
L 621.118984 251.170787 
L 623.073165 262.496629 
L 624.050255 273.822472 
L 625.027346 282.316854 
L 626.004436 239.844944 
L 626.981526 279.485393 
L 627.958617 262.496629 
L 628.935707 259.665169 
L 629.912797 171.889888 
L 630.889888 163.395506 
L 631.866978 293.642697 
L 632.844068 307.8 
L 633.821159 307.8 
L 634.798249 234.182022 
L 635.775339 293.642697 
L 636.75243 307.8 
L 637.72952 234.182022 
L 638.70661 234.182022 
L 639.683701 307.8 
L 641.637881 307.8 
L 642.614972 157.732584 
L 643.592062 256.833708 
L 644.569152 307.8 
L 645.546243 307.8 
L 646.523333 287.979775 
L 647.500423 270.991011 
L 648.477513 287.979775 
L 649.454604 268.159551 
L 650.431694 307.8 
L 653.362965 307.8 
L 654.340055 299.305618 
L 655.317146 188.878652 
L 656.294236 194.541573 
L 657.271326 205.867416 
L 658.248417 296.474157 
L 659.225507 285.148315 
L 660.202597 282.316854 
L 661.179688 254.002247 
L 662.156778 276.653933 
L 663.133868 290.811236 
L 664.110959 302.137079 
L 665.088049 307.8 
L 667.04223 307.8 
L 668.01932 287.979775 
L 668.99641 307.8 
L 669.973501 259.665169 
L 670.950591 248.339326 
L 671.927681 307.8 
L 672.904772 282.316854 
L 673.881862 307.8 
L 674.858952 154.901124 
L 675.836043 237.013483 
L 676.813133 222.85618 
L 677.790223 254.002247 
L 678.767314 307.8 
L 679.744404 296.474157 
L 680.721494 262.496629 
L 681.698585 254.002247 
L 682.675675 307.8 
L 683.652765 254.002247 
L 684.629856 307.8 
L 686.584036 307.8 
L 687.561127 231.350562 
L 688.538217 203.035955 
L 689.515307 307.8 
L 693.423668 307.8 
L 694.400759 251.170787 
L 696.354939 307.8 
L 698.30912 307.8 
L 699.28621 259.665169 
L 700.263301 307.8 
L 701.240391 307.8 
L 702.217481 126.586517 
L 703.194572 55.8 
L 704.171662 225.68764 
L 705.148752 225.68764 
L 706.125843 254.002247 
L 707.102933 307.8 
L 708.080023 307.8 
L 709.057114 285.148315 
L 710.034204 307.8 
L 711.011294 307.8 
L 711.988385 282.316854 
L 712.965475 296.474157 
L 713.942565 276.653933 
L 714.919656 307.8 
L 715.896746 299.305618 
L 716.873836 307.8 
L 717.850927 293.642697 
L 718.828017 188.878652 
L 719.805107 304.968539 
L 720.782198 307.8 
L 721.759288 299.305618 
L 722.736378 200.204494 
L 723.713469 157.732584 
L 725.667649 285.148315 
L 726.64474 279.485393 
L 727.62183 180.38427 
L 728.59892 268.159551 
L 730.553101 285.148315 
L 732.507281 307.8 
L 733.484372 276.653933 
L 734.461462 307.8 
L 735.438552 299.305618 
L 736.415643 228.519101 
L 737.392733 307.8 
L 740.324004 307.8 
L 741.301094 242.676404 
L 743.255275 307.8 
L 744.232365 276.653933 
L 745.209456 307.8 
L 746.186546 302.137079 
L 747.163636 307.8 
L 747.163636 307.8 
" clip-path="url(#p33502dca88)" style="fill: none; stroke: #191970; stroke-width: 2; stroke-linecap: square"/>
   </g>
   <g id="patch_3">
    <path d="M 108 320.4 
L 108 43.2 
" style="fill: none; stroke: #000000; stroke-width: 0.8; stroke-linejoin: miter; stroke-linecap: square"/>
   </g>
   <g id="patch_4">
    <path d="M 777.6 320.4 
L 777.6 43.2 
" style="fill: none; stroke: #000000; stroke-width: 0.8; stroke-linejoin: miter; stroke-linecap: square"/>
   </g>
   <g id="patch_5">
    <path d="M 108 320.4 
L 777.6 320.4 
" style="fill: none; stroke: #000000; stroke-width: 0.8; stroke-linejoin: miter; stroke-linecap: square"/>
   </g>
   <g id="patch_6">
    <path d="M 108 43.2 
L 777.6 43.2 
" style="fill: none; stroke: #000000; stroke-width: 0.8; stroke-linejoin: miter; stroke-linecap: square"/>
   </g>
   <g id="text_15">
    <!-- TIME SERIES -->
    <g transform="translate(405.350625 37.2) scale(0.12 -0.12)">
     <defs>
      <path id="DejaVuSans-52" d="M 2841 2188 
Q 3044 2119 3236 1894 
Q 3428 1669 3622 1275 
L 4263 0 
L 3584 0 
L 2988 1197 
Q 2756 1666 2539 1819 
Q 2322 1972 1947 1972 
L 1259 1972 
L 1259 0 
L 628 0 
L 628 4666 
L 2053 4666 
Q 2853 4666 3247 4331 
Q 3641 3997 3641 3322 
Q 3641 2881 3436 2590 
Q 3231 2300 2841 2188 
z
M 1259 4147 
L 1259 2491 
L 2053 2491 
Q 2509 2491 2742 2702 
Q 2975 2913 2975 3322 
Q 2975 3731 2742 3939 
Q 2509 4147 2053 4147 
L 1259 4147 
z
" transform="scale(0.015625)"/>
     </defs>
     <use xlink:href="#DejaVuSans-54"/>
     <use xlink:href="#DejaVuSans-49" x="61.083984"/>
     <use xlink:href="#DejaVuSans-4d" x="90.576172"/>
     <use xlink:href="#DejaVuSans-45" x="176.855469"/>
     <use xlink:href="#DejaVuSans-20" x="240.039062"/>
     <use xlink:href="#DejaVuSans-53" x="271.826172"/>
     <use xlink:href="#DejaVuSans-45" x="335.302734"/>
     <use xlink:href="#DejaVuSans-52" x="398.486328"/>
     <use xlink:href="#DejaVuSans-49" x="467.96875"/>
     <use xlink:href="#DejaVuSans-45" x="497.460938"/>
     <use xlink:href="#DejaVuSans-53" x="560.644531"/>
    </g>
   </g>
  </g>
 </g>
 <defs>
  <clipPath id="p33502dca88">
   <rect x="108" y="43.2" width="669.6" height="277.2"/>
  </clipPath>
 </defs>
</svg>
