<?xml version="1.0" encoding="utf-8" standalone="no"?>
<!DOCTYPE svg PUBLIC "-//W3C//DTD SVG 1.1//EN"
  "http://www.w3.org/Graphics/SVG/1.1/DTD/svg11.dtd">
<svg xmlns:xlink="http://www.w3.org/1999/xlink" width="424.8pt" height="141.12pt" viewBox="0 0 424.8 141.12" xmlns="http://www.w3.org/2000/svg" version="1.1">
 <metadata>
  <rdf:RDF xmlns:dc="http://purl.org/dc/elements/1.1/" xmlns:cc="http://creativecommons.org/ns#" xmlns:rdf="http://www.w3.org/1999/02/22-rdf-syntax-ns#">
   <cc:Work>
    <dc:type rdf:resource="http://purl.org/dc/dcmitype/StillImage"/>
    <dc:date>2023-08-03T14:22:36.904046</dc:date>
    <dc:format>image/svg+xml</dc:format>
    <dc:creator>
     <cc:Agent>
      <dc:title>Matplotlib v3.7.1, https://matplotlib.org/</dc:title>
     </cc:Agent>
    </dc:creator>
   </cc:Work>
  </rdf:RDF>
 </metadata>
 <defs>
  <style type="text/css">*{stroke-linejoin: round; stroke-linecap: butt}</style>
 </defs>
 <g id="figure_1">
  <g id="patch_1">
   <path d="M 0 141.12 
L 424.8 141.12 
L 424.8 0 
L 0 0 
z
" style="fill: #ffffff"/>
  </g>
  <g id="axes_1">
   <g id="patch_2">
    <path d="M 65.68 89.48 
L 414 89.48 
L 414 54.672 
L 65.68 54.672 
z
" style="fill: #ffffff"/>
   </g>
   <g id="patch_3">
    <path d="M 62.715574 73.334445 
L 68.644426 73.334445 
L 68.644426 74.833748 
L 62.715574 74.833748 
z
" clip-path="url(#padcf579f5b)" style="fill: #696969"/>
   </g>
   <g id="patch_4">
    <path d="M 70.126638 73.334445 
L 76.055489 73.334445 
L 76.055489 72.241944 
L 70.126638 72.241944 
z
" clip-path="url(#padcf579f5b)" style="fill: #696969"/>
   </g>
   <g id="patch_5">
    <path d="M 77.537702 73.334445 
L 83.466553 73.334445 
L 83.466553 68.817661 
L 77.537702 68.817661 
z
" clip-path="url(#padcf579f5b)" style="fill: #696969"/>
   </g>
   <g id="patch_6">
    <path d="M 84.948766 73.334445 
L 90.877617 73.334445 
L 90.877617 67.006423 
L 84.948766 67.006423 
z
" clip-path="url(#padcf579f5b)" style="fill: #696969"/>
   </g>
   <g id="patch_7">
    <path d="M 92.35983 73.334445 
L 98.288681 73.334445 
L 98.288681 64.69313 
L 92.35983 64.69313 
z
" clip-path="url(#padcf579f5b)" style="fill: #696969"/>
   </g>
   <g id="patch_8">
    <path d="M 99.770894 73.334445 
L 105.699745 73.334445 
L 105.699745 61.456106 
L 99.770894 61.456106 
z
" clip-path="url(#padcf579f5b)" style="fill: #696969"/>
   </g>
   <g id="patch_9">
    <path d="M 107.181957 73.334445 
L 113.110809 73.334445 
L 113.110809 60.110244 
L 107.181957 60.110244 
z
" clip-path="url(#padcf579f5b)" style="fill: #696969"/>
   </g>
   <g id="patch_10">
    <path d="M 114.593021 73.334445 
L 120.521872 73.334445 
L 120.521872 60.595821 
L 114.593021 60.595821 
z
" clip-path="url(#padcf579f5b)" style="fill: #696969"/>
   </g>
   <g id="patch_11">
    <path d="M 122.004085 73.334445 
L 127.932936 73.334445 
L 127.932936 61.97152 
L 122.004085 61.97152 
z
" clip-path="url(#padcf579f5b)" style="fill: #696969"/>
   </g>
   <g id="patch_12">
    <path d="M 129.415149 73.334445 
L 135.344 73.334445 
L 135.344 60.922139 
L 129.415149 60.922139 
z
" clip-path="url(#padcf579f5b)" style="fill: #696969"/>
   </g>
   <g id="patch_13">
    <path d="M 136.826213 73.334445 
L 142.755064 73.334445 
L 142.755064 61.427699 
L 136.826213 61.427699 
z
" clip-path="url(#padcf579f5b)" style="fill: #696969"/>
   </g>
   <g id="patch_14">
    <path d="M 144.237277 73.334445 
L 150.166128 73.334445 
L 150.166128 62.864574 
L 144.237277 62.864574 
z
" clip-path="url(#padcf579f5b)" style="fill: #696969"/>
   </g>
   <g id="patch_15">
    <path d="M 151.64834 73.334445 
L 157.577191 73.334445 
L 157.577191 68.305415 
L 151.64834 68.305415 
z
" clip-path="url(#padcf579f5b)" style="fill: #696969"/>
   </g>
   <g id="patch_16">
    <path d="M 159.059404 73.334445 
L 164.988255 73.334445 
L 164.988255 70.778682 
L 159.059404 70.778682 
z
" clip-path="url(#padcf579f5b)" style="fill: #696969"/>
   </g>
   <g id="patch_17">
    <path d="M 166.470468 73.334445 
L 172.399319 73.334445 
L 172.399319 73.074388 
L 166.470468 73.074388 
z
" clip-path="url(#padcf579f5b)" style="fill: #696969"/>
   </g>
   <g id="patch_18">
    <path d="M 173.881532 73.334445 
L 179.810383 73.334445 
L 179.810383 74.291882 
L 173.881532 74.291882 
z
" clip-path="url(#padcf579f5b)" style="fill: #696969"/>
   </g>
   <g id="patch_19">
    <path d="M 181.292596 73.334445 
L 187.221447 73.334445 
L 187.221447 77.393983 
L 181.292596 77.393983 
z
" clip-path="url(#padcf579f5b)" style="fill: #696969"/>
   </g>
   <g id="patch_20">
    <path d="M 188.70366 73.334445 
L 194.632511 73.334445 
L 194.632511 80.775754 
L 188.70366 80.775754 
z
" clip-path="url(#padcf579f5b)" style="fill: #696969"/>
   </g>
   <g id="patch_21">
    <path d="M 196.114723 73.334445 
L 202.043574 73.334445 
L 202.043574 84.521978 
L 196.114723 84.521978 
z
" clip-path="url(#padcf579f5b)" style="fill: #696969"/>
   </g>
   <g id="patch_22">
    <path d="M 203.525787 73.334445 
L 209.454638 73.334445 
L 209.454638 86.312871 
L 203.525787 86.312871 
z
" clip-path="url(#padcf579f5b)" style="fill: #696969"/>
   </g>
   <g id="patch_23">
    <path d="M 210.936851 73.334445 
L 216.865702 73.334445 
L 216.865702 85.824624 
L 210.936851 85.824624 
z
" clip-path="url(#padcf579f5b)" style="fill: #696969"/>
   </g>
   <g id="patch_24">
    <path d="M 218.347915 73.334445 
L 224.276766 73.334445 
L 224.276766 84.331808 
L 218.347915 84.331808 
z
" clip-path="url(#padcf579f5b)" style="fill: #696969"/>
   </g>
   <g id="patch_25">
    <path d="M 225.758979 73.334445 
L 231.68783 73.334445 
L 231.68783 83.497258 
L 225.758979 83.497258 
z
" clip-path="url(#padcf579f5b)" style="fill: #696969"/>
   </g>
   <g id="patch_26">
    <path d="M 233.170043 73.334445 
L 239.098894 73.334445 
L 239.098894 83.926362 
L 233.170043 83.926362 
z
" clip-path="url(#padcf579f5b)" style="fill: #696969"/>
   </g>
   <g id="patch_27">
    <path d="M 240.581106 73.334445 
L 246.509957 73.334445 
L 246.509957 81.940352 
L 240.581106 81.940352 
z
" clip-path="url(#padcf579f5b)" style="fill: #696969"/>
   </g>
   <g id="patch_28">
    <path d="M 247.99217 73.334445 
L 253.921021 73.334445 
L 253.921021 80.96807 
L 247.99217 80.96807 
z
" clip-path="url(#padcf579f5b)" style="fill: #696969"/>
   </g>
   <g id="patch_29">
    <path d="M 255.403234 73.334445 
L 261.332085 73.334445 
L 261.332085 79.251244 
L 255.403234 79.251244 
z
" clip-path="url(#padcf579f5b)" style="fill: #696969"/>
   </g>
   <g id="patch_30">
    <path d="M 262.814298 73.334445 
L 268.743149 73.334445 
L 268.743149 77.610349 
L 262.814298 77.610349 
z
" clip-path="url(#padcf579f5b)" style="fill: #696969"/>
   </g>
   <g id="patch_31">
    <path d="M 270.225362 73.334445 
L 276.154213 73.334445 
L 276.154213 71.010976 
L 270.225362 71.010976 
z
" clip-path="url(#padcf579f5b)" style="fill: #696969"/>
   </g>
   <g id="patch_32">
    <path d="M 277.636426 73.334445 
L 283.565277 73.334445 
L 283.565277 67.885553 
L 277.636426 67.885553 
z
" clip-path="url(#padcf579f5b)" style="fill: #696969"/>
   </g>
   <g id="patch_33">
    <path d="M 285.047489 73.334445 
L 290.97634 73.334445 
L 290.97634 63.901944 
L 285.047489 63.901944 
z
" clip-path="url(#padcf579f5b)" style="fill: #696969"/>
   </g>
   <g id="patch_34">
    <path d="M 292.458553 73.334445 
L 298.387404 73.334445 
L 298.387404 62.64889 
L 292.458553 62.64889 
z
" clip-path="url(#padcf579f5b)" style="fill: #696969"/>
   </g>
   <g id="patch_35">
    <path d="M 299.869617 73.334445 
L 305.798468 73.334445 
L 305.798468 59.801706 
L 299.869617 59.801706 
z
" clip-path="url(#padcf579f5b)" style="fill: #696969"/>
   </g>
   <g id="patch_36">
    <path d="M 307.280681 73.334445 
L 313.209532 73.334445 
L 313.209532 58.404187 
L 307.280681 58.404187 
z
" clip-path="url(#padcf579f5b)" style="fill: #696969"/>
   </g>
   <g id="patch_37">
    <path d="M 314.691745 73.334445 
L 320.620596 73.334445 
L 320.620596 57.572667 
L 314.691745 57.572667 
z
" clip-path="url(#padcf579f5b)" style="fill: #696969"/>
   </g>
   <g id="patch_38">
    <path d="M 322.102809 73.334445 
L 328.03166 73.334445 
L 328.03166 57.933633 
L 322.102809 57.933633 
z
" clip-path="url(#padcf579f5b)" style="fill: #696969"/>
   </g>
   <g id="patch_39">
    <path d="M 329.513872 73.334445 
L 335.442723 73.334445 
L 335.442723 60.976405 
L 329.513872 60.976405 
z
" clip-path="url(#padcf579f5b)" style="fill: #696969"/>
   </g>
   <g id="patch_40">
    <path d="M 336.924936 73.334445 
L 342.853787 73.334445 
L 342.853787 65.887128 
L 336.924936 65.887128 
z
" clip-path="url(#padcf579f5b)" style="fill: #696969"/>
   </g>
   <g id="patch_41">
    <path d="M 344.336 73.334445 
L 350.264851 73.334445 
L 350.264851 68.106719 
L 344.336 68.106719 
z
" clip-path="url(#padcf579f5b)" style="fill: #696969"/>
   </g>
   <g id="patch_42">
    <path d="M 351.747064 73.334445 
L 357.675915 73.334445 
L 357.675915 70.80572 
L 351.747064 70.80572 
z
" clip-path="url(#padcf579f5b)" style="fill: #696969"/>
   </g>
   <g id="patch_43">
    <path d="M 359.158128 73.334445 
L 365.086979 73.334445 
L 365.086979 73.66719 
L 359.158128 73.66719 
z
" clip-path="url(#padcf579f5b)" style="fill: #696969"/>
   </g>
   <g id="patch_44">
    <path d="M 366.569191 73.334445 
L 372.498043 73.334445 
L 372.498043 76.129984 
L 366.569191 76.129984 
z
" clip-path="url(#padcf579f5b)" style="fill: #696969"/>
   </g>
   <g id="patch_45">
    <path d="M 373.980255 73.334445 
L 379.909106 73.334445 
L 379.909106 78.745598 
L 373.980255 78.745598 
z
" clip-path="url(#padcf579f5b)" style="fill: #696969"/>
   </g>
   <g id="patch_46">
    <path d="M 381.391319 73.334445 
L 387.32017 73.334445 
L 387.32017 81.540223 
L 381.391319 81.540223 
z
" clip-path="url(#padcf579f5b)" style="fill: #696969"/>
   </g>
   <g id="patch_47">
    <path d="M 388.802383 73.334445 
L 394.731234 73.334445 
L 394.731234 83.806383 
L 388.802383 83.806383 
z
" clip-path="url(#padcf579f5b)" style="fill: #696969"/>
   </g>
   <g id="patch_48">
    <path d="M 396.213447 73.334445 
L 402.142298 73.334445 
L 402.142298 85.817763 
L 396.213447 85.817763 
z
" clip-path="url(#padcf579f5b)" style="fill: #696969"/>
   </g>
   <g id="patch_49">
    <path d="M 403.624511 73.334445 
L 409.553362 73.334445 
L 409.553362 85.129218 
L 403.624511 85.129218 
z
" clip-path="url(#padcf579f5b)" style="fill: #696969"/>
   </g>
   <g id="patch_50">
    <path d="M 411.035574 73.334445 
L 416.964426 73.334445 
L 416.964426 86.579333 
L 411.035574 86.579333 
z
" clip-path="url(#padcf579f5b)" style="fill: #696969"/>
   </g>
   <g id="matplotlib.axis_1">
    <g id="xtick_1">
     <g id="line2d_1">
      <defs>
       <path id="mfd271e4a47" d="M 0 0 
L 0 3.5 
" style="stroke: #000000; stroke-width: 0.8"/>
      </defs>
      <g>
       <use xlink:href="#mfd271e4a47" x="65.68" y="89.48" style="stroke: #000000; stroke-width: 0.8"/>
      </g>
     </g>
     <g id="text_1">
      <!-- 0 -->
      <g transform="translate(62.49875 104.078438) scale(0.1 -0.1)">
       <defs>
        <path id="DejaVuSans-30" d="M 2034 4250 
Q 1547 4250 1301 3770 
Q 1056 3291 1056 2328 
Q 1056 1369 1301 889 
Q 1547 409 2034 409 
Q 2525 409 2770 889 
Q 3016 1369 3016 2328 
Q 3016 3291 2770 3770 
Q 2525 4250 2034 4250 
z
M 2034 4750 
Q 2819 4750 3233 4129 
Q 3647 3509 3647 2328 
Q 3647 1150 3233 529 
Q 2819 -91 2034 -91 
Q 1250 -91 836 529 
Q 422 1150 422 2328 
Q 422 3509 836 4129 
Q 1250 4750 2034 4750 
z
" transform="scale(0.015625)"/>
       </defs>
       <use xlink:href="#DejaVuSans-30"/>
      </g>
     </g>
    </g>
    <g id="xtick_2">
     <g id="line2d_2">
      <g>
       <use xlink:href="#mfd271e4a47" x="139.790638" y="89.48" style="stroke: #000000; stroke-width: 0.8"/>
      </g>
     </g>
     <g id="text_2">
      <!-- 10 -->
      <g transform="translate(133.428138 104.078438) scale(0.1 -0.1)">
       <defs>
        <path id="DejaVuSans-31" d="M 794 531 
L 1825 531 
L 1825 4091 
L 703 3866 
L 703 4441 
L 1819 4666 
L 2450 4666 
L 2450 531 
L 3481 531 
L 3481 0 
L 794 0 
L 794 531 
z
" transform="scale(0.015625)"/>
       </defs>
       <use xlink:href="#DejaVuSans-31"/>
       <use xlink:href="#DejaVuSans-30" x="63.623047"/>
      </g>
     </g>
    </g>
    <g id="xtick_3">
     <g id="line2d_3">
      <g>
       <use xlink:href="#mfd271e4a47" x="213.901277" y="89.48" style="stroke: #000000; stroke-width: 0.8"/>
      </g>
     </g>
     <g id="text_3">
      <!-- 20 -->
      <g transform="translate(207.538777 104.078438) scale(0.1 -0.1)">
       <defs>
        <path id="DejaVuSans-32" d="M 1228 531 
L 3431 531 
L 3431 0 
L 469 0 
L 469 531 
Q 828 903 1448 1529 
Q 2069 2156 2228 2338 
Q 2531 2678 2651 2914 
Q 2772 3150 2772 3378 
Q 2772 3750 2511 3984 
Q 2250 4219 1831 4219 
Q 1534 4219 1204 4116 
Q 875 4013 500 3803 
L 500 4441 
Q 881 4594 1212 4672 
Q 1544 4750 1819 4750 
Q 2544 4750 2975 4387 
Q 3406 4025 3406 3419 
Q 3406 3131 3298 2873 
Q 3191 2616 2906 2266 
Q 2828 2175 2409 1742 
Q 1991 1309 1228 531 
z
" transform="scale(0.015625)"/>
       </defs>
       <use xlink:href="#DejaVuSans-32"/>
       <use xlink:href="#DejaVuSans-30" x="63.623047"/>
      </g>
     </g>
    </g>
    <g id="xtick_4">
     <g id="line2d_4">
      <g>
       <use xlink:href="#mfd271e4a47" x="288.011915" y="89.48" style="stroke: #000000; stroke-width: 0.8"/>
      </g>
     </g>
     <g id="text_4">
      <!-- 30 -->
      <g transform="translate(281.649415 104.078438) scale(0.1 -0.1)">
       <defs>
        <path id="DejaVuSans-33" d="M 2597 2516 
Q 3050 2419 3304 2112 
Q 3559 1806 3559 1356 
Q 3559 666 3084 287 
Q 2609 -91 1734 -91 
Q 1441 -91 1130 -33 
Q 819 25 488 141 
L 488 750 
Q 750 597 1062 519 
Q 1375 441 1716 441 
Q 2309 441 2620 675 
Q 2931 909 2931 1356 
Q 2931 1769 2642 2001 
Q 2353 2234 1838 2234 
L 1294 2234 
L 1294 2753 
L 1863 2753 
Q 2328 2753 2575 2939 
Q 2822 3125 2822 3475 
Q 2822 3834 2567 4026 
Q 2313 4219 1838 4219 
Q 1578 4219 1281 4162 
Q 984 4106 628 3988 
L 628 4550 
Q 988 4650 1302 4700 
Q 1616 4750 1894 4750 
Q 2613 4750 3031 4423 
Q 3450 4097 3450 3541 
Q 3450 3153 3228 2886 
Q 3006 2619 2597 2516 
z
" transform="scale(0.015625)"/>
       </defs>
       <use xlink:href="#DejaVuSans-33"/>
       <use xlink:href="#DejaVuSans-30" x="63.623047"/>
      </g>
     </g>
    </g>
    <g id="xtick_5">
     <g id="line2d_5">
      <g>
       <use xlink:href="#mfd271e4a47" x="362.122553" y="89.48" style="stroke: #000000; stroke-width: 0.8"/>
      </g>
     </g>
     <g id="text_5">
      <!-- 40 -->
      <g transform="translate(355.760053 104.078438) scale(0.1 -0.1)">
       <defs>
        <path id="DejaVuSans-34" d="M 2419 4116 
L 825 1625 
L 2419 1625 
L 2419 4116 
z
M 2253 4666 
L 3047 4666 
L 3047 1625 
L 3713 1625 
L 3713 1100 
L 3047 1100 
L 3047 0 
L 2419 0 
L 2419 1100 
L 313 1100 
L 313 1709 
L 2253 4666 
z
" transform="scale(0.015625)"/>
       </defs>
       <use xlink:href="#DejaVuSans-34"/>
       <use xlink:href="#DejaVuSans-30" x="63.623047"/>
      </g>
     </g>
    </g>
   </g>
   <g id="matplotlib.axis_2">
    <g id="ytick_1">
     <g id="line2d_6">
      <defs>
       <path id="ma8dcbf7422" d="M 0 0 
L -3.5 0 
" style="stroke: #000000; stroke-width: 0.8"/>
      </defs>
      <g>
       <use xlink:href="#ma8dcbf7422" x="65.68" y="87.554927" style="stroke: #000000; stroke-width: 0.8"/>
      </g>
     </g>
     <g id="text_6">
      <!-- −5 -->
      <g transform="translate(43.937813 91.354145) scale(0.1 -0.1)">
       <defs>
        <path id="DejaVuSans-2212" d="M 678 2272 
L 4684 2272 
L 4684 1741 
L 678 1741 
L 678 2272 
z
" transform="scale(0.015625)"/>
        <path id="DejaVuSans-35" d="M 691 4666 
L 3169 4666 
L 3169 4134 
L 1269 4134 
L 1269 2991 
Q 1406 3038 1543 3061 
Q 1681 3084 1819 3084 
Q 2600 3084 3056 2656 
Q 3513 2228 3513 1497 
Q 3513 744 3044 326 
Q 2575 -91 1722 -91 
Q 1428 -91 1123 -41 
Q 819 9 494 109 
L 494 744 
Q 775 591 1075 516 
Q 1375 441 1709 441 
Q 2250 441 2565 725 
Q 2881 1009 2881 1497 
Q 2881 1984 2565 2268 
Q 2250 2553 1709 2553 
Q 1456 2553 1204 2497 
Q 953 2441 691 2322 
L 691 4666 
z
" transform="scale(0.015625)"/>
       </defs>
       <use xlink:href="#DejaVuSans-2212"/>
       <use xlink:href="#DejaVuSans-35" x="83.789062"/>
      </g>
     </g>
    </g>
    <g id="ytick_2">
     <g id="line2d_7">
      <g>
       <use xlink:href="#ma8dcbf7422" x="65.68" y="73.334445" style="stroke: #000000; stroke-width: 0.8"/>
      </g>
     </g>
     <g id="text_7">
      <!-- 0 -->
      <g transform="translate(52.3175 77.133664) scale(0.1 -0.1)">
       <use xlink:href="#DejaVuSans-30"/>
      </g>
     </g>
    </g>
    <g id="ytick_3">
     <g id="line2d_8">
      <g>
       <use xlink:href="#ma8dcbf7422" x="65.68" y="59.113964" style="stroke: #000000; stroke-width: 0.8"/>
      </g>
     </g>
     <g id="text_8">
      <!-- 5 -->
      <g transform="translate(52.3175 62.913183) scale(0.1 -0.1)">
       <use xlink:href="#DejaVuSans-35"/>
      </g>
     </g>
    </g>
   </g>
   <g id="line2d_9">
    <path d="M 65.68 76.241391 
L 73.091064 73.08212 
L 80.502128 69.922692 
L 87.913191 66.944769 
L 95.324255 64.319578 
L 102.735319 62.198063 
L 110.146383 60.702208 
L 117.557447 59.918022 
L 124.968511 59.890596 
L 132.379574 60.621505 
L 139.790638 62.068725 
L 147.201702 64.149041 
L 154.612766 66.742838 
L 162.02383 69.700979 
L 169.434894 72.853372 
L 176.845957 76.018762 
L 184.257021 79.015141 
L 191.668085 81.670224 
L 199.079149 83.831347 
L 206.490213 85.374249 
L 213.901277 86.210214 
L 221.31234 86.291176 
L 228.723404 85.612481 
L 236.134468 84.213151 
L 243.545532 82.173647 
L 250.956596 79.611237 
L 258.36766 76.673255 
L 265.778723 73.528631 
L 273.189787 70.358177 
L 280.600851 67.344188 
L 288.011915 64.659965 
L 295.422979 62.459846 
L 302.834043 60.870335 
L 310.245106 59.982827 
L 317.65617 59.848351 
L 325.067234 60.47464 
L 332.478298 61.825684 
L 339.889362 63.823799 
L 347.300426 66.354097 
L 354.711489 69.271089 
L 362.122553 72.407052 
L 369.533617 75.581674 
L 376.944681 78.612419 
L 384.355745 81.325022 
L 391.766809 83.563514 
L 399.177872 85.199185 
L 406.588936 86.137985 
L 414 86.325936 
" clip-path="url(#padcf579f5b)" style="fill: none; stroke: #191970; stroke-width: 3; stroke-linecap: square"/>
   </g>
   <g id="line2d_10">
    <path d="M 121.528709 89.48 
L 121.528709 54.672 
" clip-path="url(#padcf579f5b)" style="fill: none; stroke-dasharray: 7.4,3.2; stroke-dashoffset: 0; stroke: #000000; stroke-opacity: 0.8; stroke-width: 2"/>
   </g>
   <g id="patch_51">
    <path d="M 65.68 89.48 
L 65.68 54.672 
" style="fill: none; stroke: #000000; stroke-width: 0.8; stroke-linejoin: miter; stroke-linecap: square"/>
   </g>
   <g id="patch_52">
    <path d="M 65.68 89.48 
L 414 89.48 
" style="fill: none; stroke: #000000; stroke-width: 0.8; stroke-linejoin: miter; stroke-linecap: square"/>
   </g>
   <g id="text_9">
    <!-- GENE -->
    <g transform="translate(228.693125 39.71375) scale(0.08 -0.08)">
     <defs>
      <path id="DejaVuSans-47" d="M 3809 666 
L 3809 1919 
L 2778 1919 
L 2778 2438 
L 4434 2438 
L 4434 434 
Q 4069 175 3628 42 
Q 3188 -91 2688 -91 
Q 1594 -91 976 548 
Q 359 1188 359 2328 
Q 359 3472 976 4111 
Q 1594 4750 2688 4750 
Q 3144 4750 3555 4637 
Q 3966 4525 4313 4306 
L 4313 3634 
Q 3963 3931 3569 4081 
Q 3175 4231 2741 4231 
Q 1884 4231 1454 3753 
Q 1025 3275 1025 2328 
Q 1025 1384 1454 906 
Q 1884 428 2741 428 
Q 3075 428 3337 486 
Q 3600 544 3809 666 
z
" transform="scale(0.015625)"/>
      <path id="DejaVuSans-45" d="M 628 4666 
L 3578 4666 
L 3578 4134 
L 1259 4134 
L 1259 2753 
L 3481 2753 
L 3481 2222 
L 1259 2222 
L 1259 531 
L 3634 531 
L 3634 0 
L 628 0 
L 628 4666 
z
" transform="scale(0.015625)"/>
      <path id="DejaVuSans-4e" d="M 628 4666 
L 1478 4666 
L 3547 763 
L 3547 4666 
L 4159 4666 
L 4159 0 
L 3309 0 
L 1241 3903 
L 1241 0 
L 628 0 
L 628 4666 
z
" transform="scale(0.015625)"/>
     </defs>
     <use xlink:href="#DejaVuSans-47"/>
     <use xlink:href="#DejaVuSans-45" x="77.490234"/>
     <use xlink:href="#DejaVuSans-4e" x="140.673828"/>
     <use xlink:href="#DejaVuSans-45" x="215.478516"/>
    </g>
    <!-- (AC: 7.54, PR: 26.14 - NS) -->
    <g transform="translate(188.538125 48.672) scale(0.08 -0.08)">
     <defs>
      <path id="DejaVuSans-28" d="M 1984 4856 
Q 1566 4138 1362 3434 
Q 1159 2731 1159 2009 
Q 1159 1288 1364 580 
Q 1569 -128 1984 -844 
L 1484 -844 
Q 1016 -109 783 600 
Q 550 1309 550 2009 
Q 550 2706 781 3412 
Q 1013 4119 1484 4856 
L 1984 4856 
z
" transform="scale(0.015625)"/>
      <path id="DejaVuSans-41" d="M 2188 4044 
L 1331 1722 
L 3047 1722 
L 2188 4044 
z
M 1831 4666 
L 2547 4666 
L 4325 0 
L 3669 0 
L 3244 1197 
L 1141 1197 
L 716 0 
L 50 0 
L 1831 4666 
z
" transform="scale(0.015625)"/>
      <path id="DejaVuSans-43" d="M 4122 4306 
L 4122 3641 
Q 3803 3938 3442 4084 
Q 3081 4231 2675 4231 
Q 1875 4231 1450 3742 
Q 1025 3253 1025 2328 
Q 1025 1406 1450 917 
Q 1875 428 2675 428 
Q 3081 428 3442 575 
Q 3803 722 4122 1019 
L 4122 359 
Q 3791 134 3420 21 
Q 3050 -91 2638 -91 
Q 1578 -91 968 557 
Q 359 1206 359 2328 
Q 359 3453 968 4101 
Q 1578 4750 2638 4750 
Q 3056 4750 3426 4639 
Q 3797 4528 4122 4306 
z
" transform="scale(0.015625)"/>
      <path id="DejaVuSans-3a" d="M 750 794 
L 1409 794 
L 1409 0 
L 750 0 
L 750 794 
z
M 750 3309 
L 1409 3309 
L 1409 2516 
L 750 2516 
L 750 3309 
z
" transform="scale(0.015625)"/>
      <path id="DejaVuSans-20" transform="scale(0.015625)"/>
      <path id="DejaVuSans-37" d="M 525 4666 
L 3525 4666 
L 3525 4397 
L 1831 0 
L 1172 0 
L 2766 4134 
L 525 4134 
L 525 4666 
z
" transform="scale(0.015625)"/>
      <path id="DejaVuSans-2e" d="M 684 794 
L 1344 794 
L 1344 0 
L 684 0 
L 684 794 
z
" transform="scale(0.015625)"/>
      <path id="DejaVuSans-2c" d="M 750 794 
L 1409 794 
L 1409 256 
L 897 -744 
L 494 -744 
L 750 256 
L 750 794 
z
" transform="scale(0.015625)"/>
      <path id="DejaVuSans-50" d="M 1259 4147 
L 1259 2394 
L 2053 2394 
Q 2494 2394 2734 2622 
Q 2975 2850 2975 3272 
Q 2975 3691 2734 3919 
Q 2494 4147 2053 4147 
L 1259 4147 
z
M 628 4666 
L 2053 4666 
Q 2838 4666 3239 4311 
Q 3641 3956 3641 3272 
Q 3641 2581 3239 2228 
Q 2838 1875 2053 1875 
L 1259 1875 
L 1259 0 
L 628 0 
L 628 4666 
z
" transform="scale(0.015625)"/>
      <path id="DejaVuSans-52" d="M 2841 2188 
Q 3044 2119 3236 1894 
Q 3428 1669 3622 1275 
L 4263 0 
L 3584 0 
L 2988 1197 
Q 2756 1666 2539 1819 
Q 2322 1972 1947 1972 
L 1259 1972 
L 1259 0 
L 628 0 
L 628 4666 
L 2053 4666 
Q 2853 4666 3247 4331 
Q 3641 3997 3641 3322 
Q 3641 2881 3436 2590 
Q 3231 2300 2841 2188 
z
M 1259 4147 
L 1259 2491 
L 2053 2491 
Q 2509 2491 2742 2702 
Q 2975 2913 2975 3322 
Q 2975 3731 2742 3939 
Q 2509 4147 2053 4147 
L 1259 4147 
z
" transform="scale(0.015625)"/>
      <path id="DejaVuSans-36" d="M 2113 2584 
Q 1688 2584 1439 2293 
Q 1191 2003 1191 1497 
Q 1191 994 1439 701 
Q 1688 409 2113 409 
Q 2538 409 2786 701 
Q 3034 994 3034 1497 
Q 3034 2003 2786 2293 
Q 2538 2584 2113 2584 
z
M 3366 4563 
L 3366 3988 
Q 3128 4100 2886 4159 
Q 2644 4219 2406 4219 
Q 1781 4219 1451 3797 
Q 1122 3375 1075 2522 
Q 1259 2794 1537 2939 
Q 1816 3084 2150 3084 
Q 2853 3084 3261 2657 
Q 3669 2231 3669 1497 
Q 3669 778 3244 343 
Q 2819 -91 2113 -91 
Q 1303 -91 875 529 
Q 447 1150 447 2328 
Q 447 3434 972 4092 
Q 1497 4750 2381 4750 
Q 2619 4750 2861 4703 
Q 3103 4656 3366 4563 
z
" transform="scale(0.015625)"/>
      <path id="DejaVuSans-2d" d="M 313 2009 
L 1997 2009 
L 1997 1497 
L 313 1497 
L 313 2009 
z
" transform="scale(0.015625)"/>
      <path id="DejaVuSans-53" d="M 3425 4513 
L 3425 3897 
Q 3066 4069 2747 4153 
Q 2428 4238 2131 4238 
Q 1616 4238 1336 4038 
Q 1056 3838 1056 3469 
Q 1056 3159 1242 3001 
Q 1428 2844 1947 2747 
L 2328 2669 
Q 3034 2534 3370 2195 
Q 3706 1856 3706 1288 
Q 3706 609 3251 259 
Q 2797 -91 1919 -91 
Q 1588 -91 1214 -16 
Q 841 59 441 206 
L 441 856 
Q 825 641 1194 531 
Q 1563 422 1919 422 
Q 2459 422 2753 634 
Q 3047 847 3047 1241 
Q 3047 1584 2836 1778 
Q 2625 1972 2144 2069 
L 1759 2144 
Q 1053 2284 737 2584 
Q 422 2884 422 3419 
Q 422 4038 858 4394 
Q 1294 4750 2059 4750 
Q 2388 4750 2728 4690 
Q 3069 4631 3425 4513 
z
" transform="scale(0.015625)"/>
      <path id="DejaVuSans-29" d="M 513 4856 
L 1013 4856 
Q 1481 4119 1714 3412 
Q 1947 2706 1947 2009 
Q 1947 1309 1714 600 
Q 1481 -109 1013 -844 
L 513 -844 
Q 928 -128 1133 580 
Q 1338 1288 1338 2009 
Q 1338 2731 1133 3434 
Q 928 4138 513 4856 
z
" transform="scale(0.015625)"/>
     </defs>
     <use xlink:href="#DejaVuSans-28"/>
     <use xlink:href="#DejaVuSans-41" x="39.013672"/>
     <use xlink:href="#DejaVuSans-43" x="105.671875"/>
     <use xlink:href="#DejaVuSans-3a" x="175.496094"/>
     <use xlink:href="#DejaVuSans-20" x="209.1875"/>
     <use xlink:href="#DejaVuSans-37" x="240.974609"/>
     <use xlink:href="#DejaVuSans-2e" x="304.597656"/>
     <use xlink:href="#DejaVuSans-35" x="336.384766"/>
     <use xlink:href="#DejaVuSans-34" x="400.007812"/>
     <use xlink:href="#DejaVuSans-2c" x="463.630859"/>
     <use xlink:href="#DejaVuSans-20" x="495.417969"/>
     <use xlink:href="#DejaVuSans-50" x="527.205078"/>
     <use xlink:href="#DejaVuSans-52" x="587.507812"/>
     <use xlink:href="#DejaVuSans-3a" x="653.865234"/>
     <use xlink:href="#DejaVuSans-20" x="687.556641"/>
     <use xlink:href="#DejaVuSans-32" x="719.34375"/>
     <use xlink:href="#DejaVuSans-36" x="782.966797"/>
     <use xlink:href="#DejaVuSans-2e" x="846.589844"/>
     <use xlink:href="#DejaVuSans-31" x="878.376953"/>
     <use xlink:href="#DejaVuSans-34" x="942"/>
     <use xlink:href="#DejaVuSans-20" x="1005.623047"/>
     <use xlink:href="#DejaVuSans-2d" x="1037.410156"/>
     <use xlink:href="#DejaVuSans-20" x="1073.494141"/>
     <use xlink:href="#DejaVuSans-4e" x="1105.28125"/>
     <use xlink:href="#DejaVuSans-53" x="1180.085938"/>
     <use xlink:href="#DejaVuSans-29" x="1243.5625"/>
    </g>
   </g>
  </g>
  <g id="text_10">
   <!-- COSINOR MODEL - SIMULATION 103 -->
   <g transform="translate(104.716875 11.940525) scale(0.12 -0.12)">
    <defs>
     <path id="DejaVuSans-4f" d="M 2522 4238 
Q 1834 4238 1429 3725 
Q 1025 3213 1025 2328 
Q 1025 1447 1429 934 
Q 1834 422 2522 422 
Q 3209 422 3611 934 
Q 4013 1447 4013 2328 
Q 4013 3213 3611 3725 
Q 3209 4238 2522 4238 
z
M 2522 4750 
Q 3503 4750 4090 4092 
Q 4678 3434 4678 2328 
Q 4678 1225 4090 567 
Q 3503 -91 2522 -91 
Q 1538 -91 948 565 
Q 359 1222 359 2328 
Q 359 3434 948 4092 
Q 1538 4750 2522 4750 
z
" transform="scale(0.015625)"/>
     <path id="DejaVuSans-49" d="M 628 4666 
L 1259 4666 
L 1259 0 
L 628 0 
L 628 4666 
z
" transform="scale(0.015625)"/>
     <path id="DejaVuSans-4d" d="M 628 4666 
L 1569 4666 
L 2759 1491 
L 3956 4666 
L 4897 4666 
L 4897 0 
L 4281 0 
L 4281 4097 
L 3078 897 
L 2444 897 
L 1241 4097 
L 1241 0 
L 628 0 
L 628 4666 
z
" transform="scale(0.015625)"/>
     <path id="DejaVuSans-44" d="M 1259 4147 
L 1259 519 
L 2022 519 
Q 2988 519 3436 956 
Q 3884 1394 3884 2338 
Q 3884 3275 3436 3711 
Q 2988 4147 2022 4147 
L 1259 4147 
z
M 628 4666 
L 1925 4666 
Q 3281 4666 3915 4102 
Q 4550 3538 4550 2338 
Q 4550 1131 3912 565 
Q 3275 0 1925 0 
L 628 0 
L 628 4666 
z
" transform="scale(0.015625)"/>
     <path id="DejaVuSans-4c" d="M 628 4666 
L 1259 4666 
L 1259 531 
L 3531 531 
L 3531 0 
L 628 0 
L 628 4666 
z
" transform="scale(0.015625)"/>
     <path id="DejaVuSans-55" d="M 556 4666 
L 1191 4666 
L 1191 1831 
Q 1191 1081 1462 751 
Q 1734 422 2344 422 
Q 2950 422 3222 751 
Q 3494 1081 3494 1831 
L 3494 4666 
L 4128 4666 
L 4128 1753 
Q 4128 841 3676 375 
Q 3225 -91 2344 -91 
Q 1459 -91 1007 375 
Q 556 841 556 1753 
L 556 4666 
z
" transform="scale(0.015625)"/>
     <path id="DejaVuSans-54" d="M -19 4666 
L 3928 4666 
L 3928 4134 
L 2272 4134 
L 2272 0 
L 1638 0 
L 1638 4134 
L -19 4134 
L -19 4666 
z
" transform="scale(0.015625)"/>
    </defs>
    <use xlink:href="#DejaVuSans-43"/>
    <use xlink:href="#DejaVuSans-4f" x="69.824219"/>
    <use xlink:href="#DejaVuSans-53" x="148.535156"/>
    <use xlink:href="#DejaVuSans-49" x="212.011719"/>
    <use xlink:href="#DejaVuSans-4e" x="241.503906"/>
    <use xlink:href="#DejaVuSans-4f" x="316.308594"/>
    <use xlink:href="#DejaVuSans-52" x="395.019531"/>
    <use xlink:href="#DejaVuSans-20" x="464.501953"/>
    <use xlink:href="#DejaVuSans-4d" x="496.289062"/>
    <use xlink:href="#DejaVuSans-4f" x="582.568359"/>
    <use xlink:href="#DejaVuSans-44" x="661.279297"/>
    <use xlink:href="#DejaVuSans-45" x="738.28125"/>
    <use xlink:href="#DejaVuSans-4c" x="801.464844"/>
    <use xlink:href="#DejaVuSans-20" x="857.177734"/>
    <use xlink:href="#DejaVuSans-2d" x="888.964844"/>
    <use xlink:href="#DejaVuSans-20" x="925.048828"/>
    <use xlink:href="#DejaVuSans-53" x="956.835938"/>
    <use xlink:href="#DejaVuSans-49" x="1020.3125"/>
    <use xlink:href="#DejaVuSans-4d" x="1049.804688"/>
    <use xlink:href="#DejaVuSans-55" x="1136.083984"/>
    <use xlink:href="#DejaVuSans-4c" x="1209.277344"/>
    <use xlink:href="#DejaVuSans-41" x="1267.240234"/>
    <use xlink:href="#DejaVuSans-54" x="1327.898438"/>
    <use xlink:href="#DejaVuSans-49" x="1388.982422"/>
    <use xlink:href="#DejaVuSans-4f" x="1418.474609"/>
    <use xlink:href="#DejaVuSans-4e" x="1497.185547"/>
    <use xlink:href="#DejaVuSans-20" x="1571.990234"/>
    <use xlink:href="#DejaVuSans-31" x="1603.777344"/>
    <use xlink:href="#DejaVuSans-30" x="1667.400391"/>
    <use xlink:href="#DejaVuSans-33" x="1731.023438"/>
   </g>
  </g>
  <g id="text_11">
   <!-- TIME (HOURS FROM START OF PROTOCOL) -->
   <g transform="translate(84.816563 137.213175) scale(0.12 -0.12)">
    <defs>
     <path id="DejaVuSans-48" d="M 628 4666 
L 1259 4666 
L 1259 2753 
L 3553 2753 
L 3553 4666 
L 4184 4666 
L 4184 0 
L 3553 0 
L 3553 2222 
L 1259 2222 
L 1259 0 
L 628 0 
L 628 4666 
z
" transform="scale(0.015625)"/>
     <path id="DejaVuSans-46" d="M 628 4666 
L 3309 4666 
L 3309 4134 
L 1259 4134 
L 1259 2759 
L 3109 2759 
L 3109 2228 
L 1259 2228 
L 1259 0 
L 628 0 
L 628 4666 
z
" transform="scale(0.015625)"/>
    </defs>
    <use xlink:href="#DejaVuSans-54"/>
    <use xlink:href="#DejaVuSans-49" x="61.083984"/>
    <use xlink:href="#DejaVuSans-4d" x="90.576172"/>
    <use xlink:href="#DejaVuSans-45" x="176.855469"/>
    <use xlink:href="#DejaVuSans-20" x="240.039062"/>
    <use xlink:href="#DejaVuSans-28" x="271.826172"/>
    <use xlink:href="#DejaVuSans-48" x="310.839844"/>
    <use xlink:href="#DejaVuSans-4f" x="386.035156"/>
    <use xlink:href="#DejaVuSans-55" x="464.746094"/>
    <use xlink:href="#DejaVuSans-52" x="537.939453"/>
    <use xlink:href="#DejaVuSans-53" x="607.421875"/>
    <use xlink:href="#DejaVuSans-20" x="670.898438"/>
    <use xlink:href="#DejaVuSans-46" x="702.685547"/>
    <use xlink:href="#DejaVuSans-52" x="760.205078"/>
    <use xlink:href="#DejaVuSans-4f" x="829.6875"/>
    <use xlink:href="#DejaVuSans-4d" x="908.398438"/>
    <use xlink:href="#DejaVuSans-20" x="994.677734"/>
    <use xlink:href="#DejaVuSans-53" x="1026.464844"/>
    <use xlink:href="#DejaVuSans-54" x="1089.941406"/>
    <use xlink:href="#DejaVuSans-41" x="1143.275391"/>
    <use xlink:href="#DejaVuSans-52" x="1211.683594"/>
    <use xlink:href="#DejaVuSans-54" x="1273.916016"/>
    <use xlink:href="#DejaVuSans-20" x="1335"/>
    <use xlink:href="#DejaVuSans-4f" x="1366.787109"/>
    <use xlink:href="#DejaVuSans-46" x="1445.498047"/>
    <use xlink:href="#DejaVuSans-20" x="1503.017578"/>
    <use xlink:href="#DejaVuSans-50" x="1534.804688"/>
    <use xlink:href="#DejaVuSans-52" x="1595.107422"/>
    <use xlink:href="#DejaVuSans-4f" x="1664.589844"/>
    <use xlink:href="#DejaVuSans-54" x="1743.300781"/>
    <use xlink:href="#DejaVuSans-4f" x="1804.384766"/>
    <use xlink:href="#DejaVuSans-43" x="1883.095703"/>
    <use xlink:href="#DejaVuSans-4f" x="1952.919922"/>
    <use xlink:href="#DejaVuSans-4c" x="2031.630859"/>
    <use xlink:href="#DejaVuSans-29" x="2087.34375"/>
   </g>
  </g>
  <g id="text_12">
   <!-- AMPLITUDE -->
   <g transform="translate(17.614125 105.039375) rotate(-90) scale(0.12 -0.12)">
    <use xlink:href="#DejaVuSans-41"/>
    <use xlink:href="#DejaVuSans-4d" x="68.408203"/>
    <use xlink:href="#DejaVuSans-50" x="154.6875"/>
    <use xlink:href="#DejaVuSans-4c" x="214.990234"/>
    <use xlink:href="#DejaVuSans-49" x="270.703125"/>
    <use xlink:href="#DejaVuSans-54" x="300.195312"/>
    <use xlink:href="#DejaVuSans-55" x="361.279297"/>
    <use xlink:href="#DejaVuSans-44" x="434.472656"/>
    <use xlink:href="#DejaVuSans-45" x="511.474609"/>
   </g>
  </g>
 </g>
 <defs>
  <clipPath id="padcf579f5b">
   <rect x="65.68" y="54.672" width="348.32" height="34.808"/>
  </clipPath>
 </defs>
</svg>
