<?xml version="1.0" encoding="utf-8" standalone="no"?>
<!DOCTYPE svg PUBLIC "-//W3C//DTD SVG 1.1//EN"
  "http://www.w3.org/Graphics/SVG/1.1/DTD/svg11.dtd">
<svg xmlns:xlink="http://www.w3.org/1999/xlink" width="864pt" height="360pt" viewBox="0 0 864 360" xmlns="http://www.w3.org/2000/svg" version="1.1">
 <metadata>
  <rdf:RDF xmlns:dc="http://purl.org/dc/elements/1.1/" xmlns:cc="http://creativecommons.org/ns#" xmlns:rdf="http://www.w3.org/1999/02/22-rdf-syntax-ns#">
   <cc:Work>
    <dc:type rdf:resource="http://purl.org/dc/dcmitype/StillImage"/>
    <dc:date>2023-08-03T16:24:48.828459</dc:date>
    <dc:format>image/svg+xml</dc:format>
    <dc:creator>
     <cc:Agent>
      <dc:title>Matplotlib v3.7.1, https://matplotlib.org/</dc:title>
     </cc:Agent>
    </dc:creator>
   </cc:Work>
  </rdf:RDF>
 </metadata>
 <defs>
  <style type="text/css">*{stroke-linejoin: round; stroke-linecap: butt}</style>
 </defs>
 <g id="figure_1">
  <g id="patch_1">
   <path d="M 0 360 
L 864 360 
L 864 0 
L 0 0 
z
" style="fill: #ffffff"/>
  </g>
  <g id="axes_1">
   <g id="patch_2">
    <path d="M 108 320.4 
L 777.6 320.4 
L 777.6 43.2 
L 108 43.2 
z
" style="fill: #ffffff"/>
   </g>
   <g id="matplotlib.axis_1">
    <g id="xtick_1">
     <g id="line2d_1">
      <defs>
       <path id="m49b7d22930" d="M 0 0 
L 0 3.5 
" style="stroke: #000000; stroke-width: 0.8"/>
      </defs>
      <g>
       <use xlink:href="#m49b7d22930" x="138.436364" y="320.4" style="stroke: #000000; stroke-width: 0.8"/>
      </g>
     </g>
     <g id="text_1">
      <!-- 2022-01-01 -->
      <g transform="translate(109.378551 334.998438) scale(0.1 -0.1)">
       <defs>
        <path id="DejaVuSans-32" d="M 1228 531 
L 3431 531 
L 3431 0 
L 469 0 
L 469 531 
Q 828 903 1448 1529 
Q 2069 2156 2228 2338 
Q 2531 2678 2651 2914 
Q 2772 3150 2772 3378 
Q 2772 3750 2511 3984 
Q 2250 4219 1831 4219 
Q 1534 4219 1204 4116 
Q 875 4013 500 3803 
L 500 4441 
Q 881 4594 1212 4672 
Q 1544 4750 1819 4750 
Q 2544 4750 2975 4387 
Q 3406 4025 3406 3419 
Q 3406 3131 3298 2873 
Q 3191 2616 2906 2266 
Q 2828 2175 2409 1742 
Q 1991 1309 1228 531 
z
" transform="scale(0.015625)"/>
        <path id="DejaVuSans-30" d="M 2034 4250 
Q 1547 4250 1301 3770 
Q 1056 3291 1056 2328 
Q 1056 1369 1301 889 
Q 1547 409 2034 409 
Q 2525 409 2770 889 
Q 3016 1369 3016 2328 
Q 3016 3291 2770 3770 
Q 2525 4250 2034 4250 
z
M 2034 4750 
Q 2819 4750 3233 4129 
Q 3647 3509 3647 2328 
Q 3647 1150 3233 529 
Q 2819 -91 2034 -91 
Q 1250 -91 836 529 
Q 422 1150 422 2328 
Q 422 3509 836 4129 
Q 1250 4750 2034 4750 
z
" transform="scale(0.015625)"/>
        <path id="DejaVuSans-2d" d="M 313 2009 
L 1997 2009 
L 1997 1497 
L 313 1497 
L 313 2009 
z
" transform="scale(0.015625)"/>
        <path id="DejaVuSans-31" d="M 794 531 
L 1825 531 
L 1825 4091 
L 703 3866 
L 703 4441 
L 1819 4666 
L 2450 4666 
L 2450 531 
L 3481 531 
L 3481 0 
L 794 0 
L 794 531 
z
" transform="scale(0.015625)"/>
       </defs>
       <use xlink:href="#DejaVuSans-32"/>
       <use xlink:href="#DejaVuSans-30" x="63.623047"/>
       <use xlink:href="#DejaVuSans-32" x="127.246094"/>
       <use xlink:href="#DejaVuSans-32" x="190.869141"/>
       <use xlink:href="#DejaVuSans-2d" x="254.492188"/>
       <use xlink:href="#DejaVuSans-30" x="290.576172"/>
       <use xlink:href="#DejaVuSans-31" x="354.199219"/>
       <use xlink:href="#DejaVuSans-2d" x="417.822266"/>
       <use xlink:href="#DejaVuSans-30" x="453.90625"/>
       <use xlink:href="#DejaVuSans-31" x="517.529297"/>
      </g>
     </g>
    </g>
    <g id="xtick_2">
     <g id="line2d_2">
      <g>
       <use xlink:href="#m49b7d22930" x="240.067352" y="320.4" style="stroke: #000000; stroke-width: 0.8"/>
      </g>
     </g>
     <g id="text_2">
      <!-- 2022-01-03 -->
      <g transform="translate(211.009539 334.998438) scale(0.1 -0.1)">
       <defs>
        <path id="DejaVuSans-33" d="M 2597 2516 
Q 3050 2419 3304 2112 
Q 3559 1806 3559 1356 
Q 3559 666 3084 287 
Q 2609 -91 1734 -91 
Q 1441 -91 1130 -33 
Q 819 25 488 141 
L 488 750 
Q 750 597 1062 519 
Q 1375 441 1716 441 
Q 2309 441 2620 675 
Q 2931 909 2931 1356 
Q 2931 1769 2642 2001 
Q 2353 2234 1838 2234 
L 1294 2234 
L 1294 2753 
L 1863 2753 
Q 2328 2753 2575 2939 
Q 2822 3125 2822 3475 
Q 2822 3834 2567 4026 
Q 2313 4219 1838 4219 
Q 1578 4219 1281 4162 
Q 984 4106 628 3988 
L 628 4550 
Q 988 4650 1302 4700 
Q 1616 4750 1894 4750 
Q 2613 4750 3031 4423 
Q 3450 4097 3450 3541 
Q 3450 3153 3228 2886 
Q 3006 2619 2597 2516 
z
" transform="scale(0.015625)"/>
       </defs>
       <use xlink:href="#DejaVuSans-32"/>
       <use xlink:href="#DejaVuSans-30" x="63.623047"/>
       <use xlink:href="#DejaVuSans-32" x="127.246094"/>
       <use xlink:href="#DejaVuSans-32" x="190.869141"/>
       <use xlink:href="#DejaVuSans-2d" x="254.492188"/>
       <use xlink:href="#DejaVuSans-30" x="290.576172"/>
       <use xlink:href="#DejaVuSans-31" x="354.199219"/>
       <use xlink:href="#DejaVuSans-2d" x="417.822266"/>
       <use xlink:href="#DejaVuSans-30" x="453.90625"/>
       <use xlink:href="#DejaVuSans-33" x="517.529297"/>
      </g>
     </g>
    </g>
    <g id="xtick_3">
     <g id="line2d_3">
      <g>
       <use xlink:href="#m49b7d22930" x="341.69834" y="320.4" style="stroke: #000000; stroke-width: 0.8"/>
      </g>
     </g>
     <g id="text_3">
      <!-- 2022-01-05 -->
      <g transform="translate(312.640527 334.998438) scale(0.1 -0.1)">
       <defs>
        <path id="DejaVuSans-35" d="M 691 4666 
L 3169 4666 
L 3169 4134 
L 1269 4134 
L 1269 2991 
Q 1406 3038 1543 3061 
Q 1681 3084 1819 3084 
Q 2600 3084 3056 2656 
Q 3513 2228 3513 1497 
Q 3513 744 3044 326 
Q 2575 -91 1722 -91 
Q 1428 -91 1123 -41 
Q 819 9 494 109 
L 494 744 
Q 775 591 1075 516 
Q 1375 441 1709 441 
Q 2250 441 2565 725 
Q 2881 1009 2881 1497 
Q 2881 1984 2565 2268 
Q 2250 2553 1709 2553 
Q 1456 2553 1204 2497 
Q 953 2441 691 2322 
L 691 4666 
z
" transform="scale(0.015625)"/>
       </defs>
       <use xlink:href="#DejaVuSans-32"/>
       <use xlink:href="#DejaVuSans-30" x="63.623047"/>
       <use xlink:href="#DejaVuSans-32" x="127.246094"/>
       <use xlink:href="#DejaVuSans-32" x="190.869141"/>
       <use xlink:href="#DejaVuSans-2d" x="254.492188"/>
       <use xlink:href="#DejaVuSans-30" x="290.576172"/>
       <use xlink:href="#DejaVuSans-31" x="354.199219"/>
       <use xlink:href="#DejaVuSans-2d" x="417.822266"/>
       <use xlink:href="#DejaVuSans-30" x="453.90625"/>
       <use xlink:href="#DejaVuSans-35" x="517.529297"/>
      </g>
     </g>
    </g>
    <g id="xtick_4">
     <g id="line2d_4">
      <g>
       <use xlink:href="#m49b7d22930" x="443.329328" y="320.4" style="stroke: #000000; stroke-width: 0.8"/>
      </g>
     </g>
     <g id="text_4">
      <!-- 2022-01-07 -->
      <g transform="translate(414.271516 334.998438) scale(0.1 -0.1)">
       <defs>
        <path id="DejaVuSans-37" d="M 525 4666 
L 3525 4666 
L 3525 4397 
L 1831 0 
L 1172 0 
L 2766 4134 
L 525 4134 
L 525 4666 
z
" transform="scale(0.015625)"/>
       </defs>
       <use xlink:href="#DejaVuSans-32"/>
       <use xlink:href="#DejaVuSans-30" x="63.623047"/>
       <use xlink:href="#DejaVuSans-32" x="127.246094"/>
       <use xlink:href="#DejaVuSans-32" x="190.869141"/>
       <use xlink:href="#DejaVuSans-2d" x="254.492188"/>
       <use xlink:href="#DejaVuSans-30" x="290.576172"/>
       <use xlink:href="#DejaVuSans-31" x="354.199219"/>
       <use xlink:href="#DejaVuSans-2d" x="417.822266"/>
       <use xlink:href="#DejaVuSans-30" x="453.90625"/>
       <use xlink:href="#DejaVuSans-37" x="517.529297"/>
      </g>
     </g>
    </g>
    <g id="xtick_5">
     <g id="line2d_5">
      <g>
       <use xlink:href="#m49b7d22930" x="544.960316" y="320.4" style="stroke: #000000; stroke-width: 0.8"/>
      </g>
     </g>
     <g id="text_5">
      <!-- 2022-01-09 -->
      <g transform="translate(515.902504 334.998438) scale(0.1 -0.1)">
       <defs>
        <path id="DejaVuSans-39" d="M 703 97 
L 703 672 
Q 941 559 1184 500 
Q 1428 441 1663 441 
Q 2288 441 2617 861 
Q 2947 1281 2994 2138 
Q 2813 1869 2534 1725 
Q 2256 1581 1919 1581 
Q 1219 1581 811 2004 
Q 403 2428 403 3163 
Q 403 3881 828 4315 
Q 1253 4750 1959 4750 
Q 2769 4750 3195 4129 
Q 3622 3509 3622 2328 
Q 3622 1225 3098 567 
Q 2575 -91 1691 -91 
Q 1453 -91 1209 -44 
Q 966 3 703 97 
z
M 1959 2075 
Q 2384 2075 2632 2365 
Q 2881 2656 2881 3163 
Q 2881 3666 2632 3958 
Q 2384 4250 1959 4250 
Q 1534 4250 1286 3958 
Q 1038 3666 1038 3163 
Q 1038 2656 1286 2365 
Q 1534 2075 1959 2075 
z
" transform="scale(0.015625)"/>
       </defs>
       <use xlink:href="#DejaVuSans-32"/>
       <use xlink:href="#DejaVuSans-30" x="63.623047"/>
       <use xlink:href="#DejaVuSans-32" x="127.246094"/>
       <use xlink:href="#DejaVuSans-32" x="190.869141"/>
       <use xlink:href="#DejaVuSans-2d" x="254.492188"/>
       <use xlink:href="#DejaVuSans-30" x="290.576172"/>
       <use xlink:href="#DejaVuSans-31" x="354.199219"/>
       <use xlink:href="#DejaVuSans-2d" x="417.822266"/>
       <use xlink:href="#DejaVuSans-30" x="453.90625"/>
       <use xlink:href="#DejaVuSans-39" x="517.529297"/>
      </g>
     </g>
    </g>
    <g id="xtick_6">
     <g id="line2d_6">
      <g>
       <use xlink:href="#m49b7d22930" x="646.591304" y="320.4" style="stroke: #000000; stroke-width: 0.8"/>
      </g>
     </g>
     <g id="text_6">
      <!-- 2022-01-11 -->
      <g transform="translate(617.533492 334.998438) scale(0.1 -0.1)">
       <use xlink:href="#DejaVuSans-32"/>
       <use xlink:href="#DejaVuSans-30" x="63.623047"/>
       <use xlink:href="#DejaVuSans-32" x="127.246094"/>
       <use xlink:href="#DejaVuSans-32" x="190.869141"/>
       <use xlink:href="#DejaVuSans-2d" x="254.492188"/>
       <use xlink:href="#DejaVuSans-30" x="290.576172"/>
       <use xlink:href="#DejaVuSans-31" x="354.199219"/>
       <use xlink:href="#DejaVuSans-2d" x="417.822266"/>
       <use xlink:href="#DejaVuSans-31" x="453.90625"/>
       <use xlink:href="#DejaVuSans-31" x="517.529297"/>
      </g>
     </g>
    </g>
    <g id="xtick_7">
     <g id="line2d_7">
      <g>
       <use xlink:href="#m49b7d22930" x="748.222292" y="320.4" style="stroke: #000000; stroke-width: 0.8"/>
      </g>
     </g>
     <g id="text_7">
      <!-- 2022-01-13 -->
      <g transform="translate(719.16448 334.998438) scale(0.1 -0.1)">
       <use xlink:href="#DejaVuSans-32"/>
       <use xlink:href="#DejaVuSans-30" x="63.623047"/>
       <use xlink:href="#DejaVuSans-32" x="127.246094"/>
       <use xlink:href="#DejaVuSans-32" x="190.869141"/>
       <use xlink:href="#DejaVuSans-2d" x="254.492188"/>
       <use xlink:href="#DejaVuSans-30" x="290.576172"/>
       <use xlink:href="#DejaVuSans-31" x="354.199219"/>
       <use xlink:href="#DejaVuSans-2d" x="417.822266"/>
       <use xlink:href="#DejaVuSans-31" x="453.90625"/>
       <use xlink:href="#DejaVuSans-33" x="517.529297"/>
      </g>
     </g>
    </g>
    <g id="text_8">
     <!-- TIME (DAYS) -->
     <g transform="translate(412.283594 348.676562) scale(0.1 -0.1)">
      <defs>
       <path id="DejaVuSans-54" d="M -19 4666 
L 3928 4666 
L 3928 4134 
L 2272 4134 
L 2272 0 
L 1638 0 
L 1638 4134 
L -19 4134 
L -19 4666 
z
" transform="scale(0.015625)"/>
       <path id="DejaVuSans-49" d="M 628 4666 
L 1259 4666 
L 1259 0 
L 628 0 
L 628 4666 
z
" transform="scale(0.015625)"/>
       <path id="DejaVuSans-4d" d="M 628 4666 
L 1569 4666 
L 2759 1491 
L 3956 4666 
L 4897 4666 
L 4897 0 
L 4281 0 
L 4281 4097 
L 3078 897 
L 2444 897 
L 1241 4097 
L 1241 0 
L 628 0 
L 628 4666 
z
" transform="scale(0.015625)"/>
       <path id="DejaVuSans-45" d="M 628 4666 
L 3578 4666 
L 3578 4134 
L 1259 4134 
L 1259 2753 
L 3481 2753 
L 3481 2222 
L 1259 2222 
L 1259 531 
L 3634 531 
L 3634 0 
L 628 0 
L 628 4666 
z
" transform="scale(0.015625)"/>
       <path id="DejaVuSans-20" transform="scale(0.015625)"/>
       <path id="DejaVuSans-28" d="M 1984 4856 
Q 1566 4138 1362 3434 
Q 1159 2731 1159 2009 
Q 1159 1288 1364 580 
Q 1569 -128 1984 -844 
L 1484 -844 
Q 1016 -109 783 600 
Q 550 1309 550 2009 
Q 550 2706 781 3412 
Q 1013 4119 1484 4856 
L 1984 4856 
z
" transform="scale(0.015625)"/>
       <path id="DejaVuSans-44" d="M 1259 4147 
L 1259 519 
L 2022 519 
Q 2988 519 3436 956 
Q 3884 1394 3884 2338 
Q 3884 3275 3436 3711 
Q 2988 4147 2022 4147 
L 1259 4147 
z
M 628 4666 
L 1925 4666 
Q 3281 4666 3915 4102 
Q 4550 3538 4550 2338 
Q 4550 1131 3912 565 
Q 3275 0 1925 0 
L 628 0 
L 628 4666 
z
" transform="scale(0.015625)"/>
       <path id="DejaVuSans-41" d="M 2188 4044 
L 1331 1722 
L 3047 1722 
L 2188 4044 
z
M 1831 4666 
L 2547 4666 
L 4325 0 
L 3669 0 
L 3244 1197 
L 1141 1197 
L 716 0 
L 50 0 
L 1831 4666 
z
" transform="scale(0.015625)"/>
       <path id="DejaVuSans-59" d="M -13 4666 
L 666 4666 
L 1959 2747 
L 3244 4666 
L 3922 4666 
L 2272 2222 
L 2272 0 
L 1638 0 
L 1638 2222 
L -13 4666 
z
" transform="scale(0.015625)"/>
       <path id="DejaVuSans-53" d="M 3425 4513 
L 3425 3897 
Q 3066 4069 2747 4153 
Q 2428 4238 2131 4238 
Q 1616 4238 1336 4038 
Q 1056 3838 1056 3469 
Q 1056 3159 1242 3001 
Q 1428 2844 1947 2747 
L 2328 2669 
Q 3034 2534 3370 2195 
Q 3706 1856 3706 1288 
Q 3706 609 3251 259 
Q 2797 -91 1919 -91 
Q 1588 -91 1214 -16 
Q 841 59 441 206 
L 441 856 
Q 825 641 1194 531 
Q 1563 422 1919 422 
Q 2459 422 2753 634 
Q 3047 847 3047 1241 
Q 3047 1584 2836 1778 
Q 2625 1972 2144 2069 
L 1759 2144 
Q 1053 2284 737 2584 
Q 422 2884 422 3419 
Q 422 4038 858 4394 
Q 1294 4750 2059 4750 
Q 2388 4750 2728 4690 
Q 3069 4631 3425 4513 
z
" transform="scale(0.015625)"/>
       <path id="DejaVuSans-29" d="M 513 4856 
L 1013 4856 
Q 1481 4119 1714 3412 
Q 1947 2706 1947 2009 
Q 1947 1309 1714 600 
Q 1481 -109 1013 -844 
L 513 -844 
Q 928 -128 1133 580 
Q 1338 1288 1338 2009 
Q 1338 2731 1133 3434 
Q 928 4138 513 4856 
z
" transform="scale(0.015625)"/>
      </defs>
      <use xlink:href="#DejaVuSans-54"/>
      <use xlink:href="#DejaVuSans-49" x="61.083984"/>
      <use xlink:href="#DejaVuSans-4d" x="90.576172"/>
      <use xlink:href="#DejaVuSans-45" x="176.855469"/>
      <use xlink:href="#DejaVuSans-20" x="240.039062"/>
      <use xlink:href="#DejaVuSans-28" x="271.826172"/>
      <use xlink:href="#DejaVuSans-44" x="310.839844"/>
      <use xlink:href="#DejaVuSans-41" x="386.091797"/>
      <use xlink:href="#DejaVuSans-59" x="446.75"/>
      <use xlink:href="#DejaVuSans-53" x="507.833984"/>
      <use xlink:href="#DejaVuSans-29" x="571.310547"/>
     </g>
    </g>
   </g>
   <g id="matplotlib.axis_2">
    <g id="ytick_1">
     <g id="line2d_8">
      <defs>
       <path id="m69195787f8" d="M 0 0 
L -3.5 0 
" style="stroke: #000000; stroke-width: 0.8"/>
      </defs>
      <g>
       <use xlink:href="#m69195787f8" x="108" y="307.8" style="stroke: #000000; stroke-width: 0.8"/>
      </g>
     </g>
     <g id="text_9">
      <!-- 0 -->
      <g transform="translate(94.6375 311.599219) scale(0.1 -0.1)">
       <use xlink:href="#DejaVuSans-30"/>
      </g>
     </g>
    </g>
    <g id="ytick_2">
     <g id="line2d_9">
      <g>
       <use xlink:href="#m69195787f8" x="108" y="261.981818" style="stroke: #000000; stroke-width: 0.8"/>
      </g>
     </g>
     <g id="text_10">
      <!-- 10 -->
      <g transform="translate(88.275 265.781037) scale(0.1 -0.1)">
       <use xlink:href="#DejaVuSans-31"/>
       <use xlink:href="#DejaVuSans-30" x="63.623047"/>
      </g>
     </g>
    </g>
    <g id="ytick_3">
     <g id="line2d_10">
      <g>
       <use xlink:href="#m69195787f8" x="108" y="216.163636" style="stroke: #000000; stroke-width: 0.8"/>
      </g>
     </g>
     <g id="text_11">
      <!-- 20 -->
      <g transform="translate(88.275 219.962855) scale(0.1 -0.1)">
       <use xlink:href="#DejaVuSans-32"/>
       <use xlink:href="#DejaVuSans-30" x="63.623047"/>
      </g>
     </g>
    </g>
    <g id="ytick_4">
     <g id="line2d_11">
      <g>
       <use xlink:href="#m69195787f8" x="108" y="170.345455" style="stroke: #000000; stroke-width: 0.8"/>
      </g>
     </g>
     <g id="text_12">
      <!-- 30 -->
      <g transform="translate(88.275 174.144673) scale(0.1 -0.1)">
       <use xlink:href="#DejaVuSans-33"/>
       <use xlink:href="#DejaVuSans-30" x="63.623047"/>
      </g>
     </g>
    </g>
    <g id="ytick_5">
     <g id="line2d_12">
      <g>
       <use xlink:href="#m69195787f8" x="108" y="124.527273" style="stroke: #000000; stroke-width: 0.8"/>
      </g>
     </g>
     <g id="text_13">
      <!-- 40 -->
      <g transform="translate(88.275 128.326491) scale(0.1 -0.1)">
       <defs>
        <path id="DejaVuSans-34" d="M 2419 4116 
L 825 1625 
L 2419 1625 
L 2419 4116 
z
M 2253 4666 
L 3047 4666 
L 3047 1625 
L 3713 1625 
L 3713 1100 
L 3047 1100 
L 3047 0 
L 2419 0 
L 2419 1100 
L 313 1100 
L 313 1709 
L 2253 4666 
z
" transform="scale(0.015625)"/>
       </defs>
       <use xlink:href="#DejaVuSans-34"/>
       <use xlink:href="#DejaVuSans-30" x="63.623047"/>
      </g>
     </g>
    </g>
    <g id="ytick_6">
     <g id="line2d_13">
      <g>
       <use xlink:href="#m69195787f8" x="108" y="78.709091" style="stroke: #000000; stroke-width: 0.8"/>
      </g>
     </g>
     <g id="text_14">
      <!-- 50 -->
      <g transform="translate(88.275 82.50831) scale(0.1 -0.1)">
       <use xlink:href="#DejaVuSans-35"/>
       <use xlink:href="#DejaVuSans-30" x="63.623047"/>
      </g>
     </g>
    </g>
    <g id="text_15">
     <!-- AMPLITUDE -->
     <g transform="translate(82.195312 210.532812) rotate(-90) scale(0.1 -0.1)">
      <defs>
       <path id="DejaVuSans-50" d="M 1259 4147 
L 1259 2394 
L 2053 2394 
Q 2494 2394 2734 2622 
Q 2975 2850 2975 3272 
Q 2975 3691 2734 3919 
Q 2494 4147 2053 4147 
L 1259 4147 
z
M 628 4666 
L 2053 4666 
Q 2838 4666 3239 4311 
Q 3641 3956 3641 3272 
Q 3641 2581 3239 2228 
Q 2838 1875 2053 1875 
L 1259 1875 
L 1259 0 
L 628 0 
L 628 4666 
z
" transform="scale(0.015625)"/>
       <path id="DejaVuSans-4c" d="M 628 4666 
L 1259 4666 
L 1259 531 
L 3531 531 
L 3531 0 
L 628 0 
L 628 4666 
z
" transform="scale(0.015625)"/>
       <path id="DejaVuSans-55" d="M 556 4666 
L 1191 4666 
L 1191 1831 
Q 1191 1081 1462 751 
Q 1734 422 2344 422 
Q 2950 422 3222 751 
Q 3494 1081 3494 1831 
L 3494 4666 
L 4128 4666 
L 4128 1753 
Q 4128 841 3676 375 
Q 3225 -91 2344 -91 
Q 1459 -91 1007 375 
Q 556 841 556 1753 
L 556 4666 
z
" transform="scale(0.015625)"/>
      </defs>
      <use xlink:href="#DejaVuSans-41"/>
      <use xlink:href="#DejaVuSans-4d" x="68.408203"/>
      <use xlink:href="#DejaVuSans-50" x="154.6875"/>
      <use xlink:href="#DejaVuSans-4c" x="214.990234"/>
      <use xlink:href="#DejaVuSans-49" x="270.703125"/>
      <use xlink:href="#DejaVuSans-54" x="300.195312"/>
      <use xlink:href="#DejaVuSans-55" x="361.279297"/>
      <use xlink:href="#DejaVuSans-44" x="434.472656"/>
      <use xlink:href="#DejaVuSans-45" x="511.474609"/>
     </g>
    </g>
   </g>
   <g id="line2d_14">
    <path d="M 138.436364 307.8 
L 139.49502 115.363636 
L 140.553676 138.272727 
L 141.612332 152.018182 
L 143.729644 225.327273 
L 144.7883 284.890909 
L 145.846957 284.890909 
L 146.905613 266.563636 
L 147.964269 298.636364 
L 149.022925 271.145455 
L 151.140237 298.636364 
L 152.198893 243.654545 
L 153.257549 298.636364 
L 155.374862 307.8 
L 156.433518 243.654545 
L 157.492174 193.254545 
L 158.55083 216.163636 
L 159.609486 165.763636 
L 160.668142 156.6 
L 161.726798 101.618182 
L 162.785455 97.036364 
L 163.844111 298.636364 
L 164.902767 307.8 
L 167.020079 280.309091 
L 168.078735 307.8 
L 169.137391 298.636364 
L 170.196047 284.890909 
L 171.254704 284.890909 
L 172.31336 298.636364 
L 173.372016 303.218182 
L 174.430672 294.054545 
L 175.489328 307.8 
L 177.60664 307.8 
L 178.665296 294.054545 
L 179.723953 307.8 
L 180.782609 298.636364 
L 181.841265 307.8 
L 182.899921 307.8 
L 183.958577 284.890909 
L 185.017233 307.8 
L 186.075889 280.309091 
L 187.134545 303.218182 
L 188.193202 303.218182 
L 189.251858 156.6 
L 190.310514 156.6 
L 191.36917 147.436364 
L 192.427826 156.6 
L 193.486482 188.672727 
L 194.545138 257.4 
L 195.603794 248.236364 
L 196.662451 216.163636 
L 197.721107 298.636364 
L 198.779763 307.8 
L 199.838419 294.054545 
L 200.897075 294.054545 
L 201.955731 298.636364 
L 203.014387 307.8 
L 204.073043 307.8 
L 205.1317 266.563636 
L 206.190356 257.4 
L 207.249012 239.072727 
L 208.307668 207 
L 209.366324 193.254545 
L 210.42498 174.927273 
L 211.483636 142.854545 
L 212.542292 101.618182 
L 213.600949 307.8 
L 214.659605 307.8 
L 215.718261 261.981818 
L 216.776917 294.054545 
L 217.835573 307.8 
L 219.952885 307.8 
L 221.011542 271.145455 
L 222.070198 307.8 
L 223.128854 307.8 
L 224.18751 294.054545 
L 225.246166 275.727273 
L 226.304822 289.472727 
L 227.363478 307.8 
L 233.715415 307.8 
L 234.774071 294.054545 
L 235.832727 307.8 
L 236.891383 303.218182 
L 237.95004 289.472727 
L 239.008696 110.781818 
L 240.067352 124.527273 
L 241.126008 170.345455 
L 242.184664 184.090909 
L 243.24332 188.672727 
L 244.301976 261.981818 
L 245.360632 280.309091 
L 246.419289 266.563636 
L 247.477945 307.8 
L 248.536601 307.8 
L 249.595257 294.054545 
L 250.653913 271.145455 
L 251.712569 307.8 
L 252.771225 271.145455 
L 253.829881 239.072727 
L 254.888538 252.818182 
L 255.947194 257.4 
L 257.00585 284.890909 
L 258.064506 202.418182 
L 259.123162 174.927273 
L 260.181818 152.018182 
L 261.240474 119.945455 
L 262.29913 55.8 
L 263.357787 275.727273 
L 264.416443 307.8 
L 265.475099 271.145455 
L 266.533755 280.309091 
L 267.592411 303.218182 
L 268.651067 307.8 
L 269.709723 280.309091 
L 270.768379 307.8 
L 272.885692 298.636364 
L 273.944348 307.8 
L 275.003004 280.309091 
L 276.06166 307.8 
L 281.354941 307.8 
L 282.413597 284.890909 
L 283.472253 298.636364 
L 284.530909 298.636364 
L 285.589565 280.309091 
L 286.648221 307.8 
L 287.706877 307.8 
L 288.765534 133.690909 
L 289.82419 115.363636 
L 290.882846 156.6 
L 291.941502 207 
L 293.000158 220.745455 
L 294.058814 225.327273 
L 296.176126 307.8 
L 297.234783 303.218182 
L 298.293439 294.054545 
L 299.352095 275.727273 
L 300.410751 303.218182 
L 301.469407 307.8 
L 302.528063 271.145455 
L 303.586719 294.054545 
L 304.645375 243.654545 
L 305.704032 275.727273 
L 306.762688 257.4 
L 307.821344 202.418182 
L 308.88 184.090909 
L 309.938656 174.927273 
L 310.997312 156.6 
L 312.055968 110.781818 
L 313.114625 307.8 
L 314.173281 307.8 
L 315.231937 294.054545 
L 316.290593 307.8 
L 317.349249 284.890909 
L 318.407905 303.218182 
L 319.466561 307.8 
L 320.525217 298.636364 
L 322.64253 289.472727 
L 323.701186 307.8 
L 325.818498 307.8 
L 326.877154 280.309091 
L 327.93581 307.8 
L 328.994466 307.8 
L 330.053123 266.563636 
L 331.111779 307.8 
L 332.170435 284.890909 
L 333.229091 294.054545 
L 334.287747 307.8 
L 335.346403 284.890909 
L 336.405059 307.8 
L 337.463715 307.8 
L 338.522372 83.290909 
L 339.581028 110.781818 
L 340.639684 170.345455 
L 341.69834 211.581818 
L 342.756996 216.163636 
L 343.815652 225.327273 
L 344.874308 307.8 
L 345.932964 298.636364 
L 346.991621 307.8 
L 348.050277 248.236364 
L 349.108933 294.054545 
L 350.167589 307.8 
L 351.226245 257.4 
L 352.284901 252.818182 
L 353.343557 298.636364 
L 354.402213 271.145455 
L 355.46087 261.981818 
L 356.519526 257.4 
L 357.578182 184.090909 
L 358.636838 188.672727 
L 359.695494 152.018182 
L 360.75415 156.6 
L 361.812806 110.781818 
L 362.871462 307.8 
L 363.930119 307.8 
L 364.988775 298.636364 
L 366.047431 307.8 
L 368.164743 307.8 
L 369.223399 280.309091 
L 370.282055 303.218182 
L 371.340711 307.8 
L 372.399368 307.8 
L 373.458024 266.563636 
L 374.51668 307.8 
L 375.575336 307.8 
L 376.633992 284.890909 
L 377.692648 298.636364 
L 378.751304 280.309091 
L 379.80996 289.472727 
L 380.868617 280.309091 
L 382.985929 307.8 
L 384.044585 294.054545 
L 385.103241 303.218182 
L 386.161897 307.8 
L 387.220553 307.8 
L 388.279209 106.2 
L 389.337866 129.109091 
L 390.396522 211.581818 
L 391.455178 188.672727 
L 392.513834 248.236364 
L 393.57249 234.490909 
L 394.631146 271.145455 
L 395.689802 294.054545 
L 396.748458 284.890909 
L 397.807115 307.8 
L 398.865771 307.8 
L 399.924427 275.727273 
L 400.983083 303.218182 
L 402.041739 294.054545 
L 403.100395 257.4 
L 404.159051 284.890909 
L 405.217708 234.490909 
L 406.276364 220.745455 
L 407.33502 234.490909 
L 408.393676 170.345455 
L 409.452332 170.345455 
L 410.510988 97.036364 
L 411.569644 138.272727 
L 412.6283 307.8 
L 413.686957 307.8 
L 414.745613 289.472727 
L 415.804269 284.890909 
L 416.862925 298.636364 
L 417.921581 243.654545 
L 418.980237 298.636364 
L 420.038893 307.8 
L 428.508142 307.8 
L 429.566798 289.472727 
L 430.625455 307.8 
L 431.684111 307.8 
L 432.742767 280.309091 
L 433.801423 307.8 
L 434.860079 271.145455 
L 435.918735 303.218182 
L 436.977391 92.454545 
L 438.036047 74.127273 
L 439.094704 152.018182 
L 440.15336 184.090909 
L 441.212016 152.018182 
L 442.270672 252.818182 
L 443.329328 216.163636 
L 444.387984 261.981818 
L 445.44664 280.309091 
L 446.505296 266.563636 
L 447.563953 289.472727 
L 448.622609 307.8 
L 449.681265 307.8 
L 450.739921 289.472727 
L 451.798577 294.054545 
L 452.857233 289.472727 
L 453.915889 252.818182 
L 454.974545 225.327273 
L 456.033202 216.163636 
L 457.091858 184.090909 
L 458.150514 193.254545 
L 459.20917 133.690909 
L 460.267826 147.436364 
L 461.326482 119.945455 
L 462.385138 243.654545 
L 463.443794 284.890909 
L 464.502451 271.145455 
L 465.561107 307.8 
L 466.619763 307.8 
L 467.678419 294.054545 
L 468.737075 307.8 
L 469.795731 307.8 
L 470.854387 298.636364 
L 471.913043 266.563636 
L 472.9717 261.981818 
L 474.030356 239.072727 
L 475.089012 280.309091 
L 476.147668 307.8 
L 477.206324 307.8 
L 478.26498 271.145455 
L 479.323636 307.8 
L 483.558261 307.8 
L 484.616917 284.890909 
L 485.675573 289.472727 
L 486.734229 307.8 
L 487.792885 124.527273 
L 488.851542 124.527273 
L 489.910198 202.418182 
L 490.968854 220.745455 
L 492.02751 184.090909 
L 493.086166 257.4 
L 494.144822 257.4 
L 495.203478 294.054545 
L 496.262134 280.309091 
L 497.320791 307.8 
L 499.438103 307.8 
L 500.496759 303.218182 
L 501.555415 252.818182 
L 502.614071 289.472727 
L 503.672727 271.145455 
L 504.731383 307.8 
L 505.79004 202.418182 
L 506.848696 234.490909 
L 507.907352 133.690909 
L 508.966008 152.018182 
L 510.024664 142.854545 
L 511.08332 92.454545 
L 512.141976 289.472727 
L 513.200632 303.218182 
L 514.259289 307.8 
L 515.317945 298.636364 
L 516.376601 280.309091 
L 517.435257 307.8 
L 518.493913 307.8 
L 519.552569 303.218182 
L 520.611225 307.8 
L 521.669881 307.8 
L 522.728538 294.054545 
L 523.787194 307.8 
L 524.84585 303.218182 
L 525.904506 307.8 
L 528.021818 307.8 
L 529.080474 280.309091 
L 530.13913 307.8 
L 534.373755 307.8 
L 535.432411 289.472727 
L 536.491067 119.945455 
L 537.549723 129.109091 
L 538.608379 147.436364 
L 539.667036 119.945455 
L 540.725692 170.345455 
L 541.784348 174.927273 
L 542.843004 234.490909 
L 543.90166 266.563636 
L 544.960316 275.727273 
L 546.018972 280.309091 
L 547.077628 252.818182 
L 548.136285 307.8 
L 549.194941 275.727273 
L 550.253597 284.890909 
L 551.312253 307.8 
L 552.370909 307.8 
L 553.429565 298.636364 
L 554.488221 257.4 
L 555.546877 239.072727 
L 556.605534 261.981818 
L 557.66419 229.909091 
L 558.722846 170.345455 
L 559.781502 170.345455 
L 560.840158 106.2 
L 561.898814 83.290909 
L 562.95747 64.963636 
L 564.016126 261.981818 
L 565.074783 266.563636 
L 566.133439 307.8 
L 567.192095 303.218182 
L 568.250751 307.8 
L 569.309407 307.8 
L 570.368063 294.054545 
L 571.426719 307.8 
L 572.485375 307.8 
L 573.544032 284.890909 
L 574.602688 307.8 
L 575.661344 298.636364 
L 576.72 266.563636 
L 577.778656 307.8 
L 579.895968 307.8 
L 580.954625 303.218182 
L 582.013281 289.472727 
L 583.071937 294.054545 
L 584.130593 307.8 
L 585.189249 307.8 
L 586.247905 284.890909 
L 587.306561 284.890909 
L 588.365217 280.309091 
L 589.423874 119.945455 
L 590.48253 156.6 
L 591.541186 179.509091 
L 592.599842 184.090909 
L 593.658498 202.418182 
L 594.717154 207 
L 595.77581 252.818182 
L 596.834466 280.309091 
L 597.893123 275.727273 
L 598.951779 284.890909 
L 600.010435 275.727273 
L 601.069091 294.054545 
L 602.127747 294.054545 
L 603.186403 307.8 
L 604.245059 298.636364 
L 605.303715 271.145455 
L 606.362372 280.309091 
L 607.421028 234.490909 
L 608.479684 229.909091 
L 609.53834 239.072727 
L 610.596996 142.854545 
L 611.655652 115.363636 
L 612.714308 101.618182 
L 613.772964 78.709091 
L 614.831621 307.8 
L 615.890277 266.563636 
L 616.948933 289.472727 
L 618.007589 307.8 
L 619.066245 298.636364 
L 620.124901 303.218182 
L 621.183557 303.218182 
L 622.242213 307.8 
L 627.535494 307.8 
L 628.59415 294.054545 
L 629.652806 307.8 
L 631.770119 307.8 
L 632.828775 303.218182 
L 633.887431 307.8 
L 636.004743 307.8 
L 637.063399 257.4 
L 638.122055 307.8 
L 639.180711 307.8 
L 640.239368 55.8 
L 642.35668 161.181818 
L 643.415336 243.654545 
L 644.473992 234.490909 
L 645.532648 197.836364 
L 646.591304 243.654545 
L 647.64996 266.563636 
L 648.708617 303.218182 
L 649.767273 275.727273 
L 650.825929 307.8 
L 651.884585 289.472727 
L 652.943241 307.8 
L 654.001897 294.054545 
L 655.060553 307.8 
L 656.119209 307.8 
L 657.177866 229.909091 
L 658.236522 239.072727 
L 659.295178 229.909091 
L 660.353834 248.236364 
L 661.41249 174.927273 
L 662.471146 170.345455 
L 663.529802 110.781818 
L 664.588458 124.527273 
L 665.647115 307.8 
L 666.705771 303.218182 
L 667.764427 284.890909 
L 668.823083 289.472727 
L 669.881739 289.472727 
L 670.940395 275.727273 
L 671.999051 307.8 
L 673.057708 271.145455 
L 674.116364 307.8 
L 677.292332 307.8 
L 678.350988 298.636364 
L 679.409644 307.8 
L 682.585613 307.8 
L 683.644269 303.218182 
L 684.702925 307.8 
L 685.761581 294.054545 
L 686.820237 307.8 
L 687.878893 303.218182 
L 688.937549 307.8 
L 689.996206 307.8 
L 691.054862 298.636364 
L 692.113518 129.109091 
L 693.172174 133.690909 
L 694.23083 152.018182 
L 695.289486 225.327273 
L 696.348142 225.327273 
L 697.406798 243.654545 
L 698.465455 216.163636 
L 699.524111 275.727273 
L 700.582767 284.890909 
L 701.641423 266.563636 
L 702.700079 298.636364 
L 703.758735 307.8 
L 704.817391 307.8 
L 705.876047 280.309091 
L 706.934704 303.218182 
L 707.99336 275.727273 
L 709.052016 271.145455 
L 710.110672 184.090909 
L 711.169328 248.236364 
L 712.227984 165.763636 
L 713.28664 110.781818 
L 714.345296 152.018182 
L 715.403953 115.363636 
L 716.462609 87.872727 
L 717.521265 266.563636 
L 718.579921 284.890909 
L 719.638577 289.472727 
L 720.697233 266.563636 
L 721.755889 275.727273 
L 722.814545 307.8 
L 723.873202 275.727273 
L 724.931858 294.054545 
L 725.990514 307.8 
L 730.225138 307.8 
L 731.283794 257.4 
L 732.342451 307.8 
L 733.401107 294.054545 
L 734.459763 307.8 
L 735.518419 239.072727 
L 736.577075 294.054545 
L 737.635731 266.563636 
L 738.694387 307.8 
L 741.870356 307.8 
L 742.929012 92.454545 
L 743.987668 138.272727 
L 745.046324 129.109091 
L 746.10498 138.272727 
L 747.163636 229.909091 
L 747.163636 229.909091 
" clip-path="url(#p8f1244e8e3)" style="fill: none; stroke: #191970; stroke-width: 2; stroke-linecap: square"/>
   </g>
   <g id="patch_3">
    <path d="M 108 320.4 
L 108 43.2 
" style="fill: none; stroke: #000000; stroke-width: 0.8; stroke-linejoin: miter; stroke-linecap: square"/>
   </g>
   <g id="patch_4">
    <path d="M 777.6 320.4 
L 777.6 43.2 
" style="fill: none; stroke: #000000; stroke-width: 0.8; stroke-linejoin: miter; stroke-linecap: square"/>
   </g>
   <g id="patch_5">
    <path d="M 108 320.4 
L 777.6 320.4 
" style="fill: none; stroke: #000000; stroke-width: 0.8; stroke-linejoin: miter; stroke-linecap: square"/>
   </g>
   <g id="patch_6">
    <path d="M 108 43.2 
L 777.6 43.2 
" style="fill: none; stroke: #000000; stroke-width: 0.8; stroke-linejoin: miter; stroke-linecap: square"/>
   </g>
   <g id="text_16">
    <!-- TIME SERIES -->
    <g transform="translate(405.350625 37.2) scale(0.12 -0.12)">
     <defs>
      <path id="DejaVuSans-52" d="M 2841 2188 
Q 3044 2119 3236 1894 
Q 3428 1669 3622 1275 
L 4263 0 
L 3584 0 
L 2988 1197 
Q 2756 1666 2539 1819 
Q 2322 1972 1947 1972 
L 1259 1972 
L 1259 0 
L 628 0 
L 628 4666 
L 2053 4666 
Q 2853 4666 3247 4331 
Q 3641 3997 3641 3322 
Q 3641 2881 3436 2590 
Q 3231 2300 2841 2188 
z
M 1259 4147 
L 1259 2491 
L 2053 2491 
Q 2509 2491 2742 2702 
Q 2975 2913 2975 3322 
Q 2975 3731 2742 3939 
Q 2509 4147 2053 4147 
L 1259 4147 
z
" transform="scale(0.015625)"/>
     </defs>
     <use xlink:href="#DejaVuSans-54"/>
     <use xlink:href="#DejaVuSans-49" x="61.083984"/>
     <use xlink:href="#DejaVuSans-4d" x="90.576172"/>
     <use xlink:href="#DejaVuSans-45" x="176.855469"/>
     <use xlink:href="#DejaVuSans-20" x="240.039062"/>
     <use xlink:href="#DejaVuSans-53" x="271.826172"/>
     <use xlink:href="#DejaVuSans-45" x="335.302734"/>
     <use xlink:href="#DejaVuSans-52" x="398.486328"/>
     <use xlink:href="#DejaVuSans-49" x="467.96875"/>
     <use xlink:href="#DejaVuSans-45" x="497.460938"/>
     <use xlink:href="#DejaVuSans-53" x="560.644531"/>
    </g>
   </g>
  </g>
 </g>
 <defs>
  <clipPath id="p8f1244e8e3">
   <rect x="108" y="43.2" width="669.6" height="277.2"/>
  </clipPath>
 </defs>
</svg>
