<?xml version="1.0" encoding="utf-8" standalone="no"?>
<!DOCTYPE svg PUBLIC "-//W3C//DTD SVG 1.1//EN"
  "http://www.w3.org/Graphics/SVG/1.1/DTD/svg11.dtd">
<svg xmlns:xlink="http://www.w3.org/1999/xlink" width="424.8pt" height="141.12pt" viewBox="0 0 424.8 141.12" xmlns="http://www.w3.org/2000/svg" version="1.1">
 <metadata>
  <rdf:RDF xmlns:dc="http://purl.org/dc/elements/1.1/" xmlns:cc="http://creativecommons.org/ns#" xmlns:rdf="http://www.w3.org/1999/02/22-rdf-syntax-ns#">
   <cc:Work>
    <dc:type rdf:resource="http://purl.org/dc/dcmitype/StillImage"/>
    <dc:date>2023-08-03T14:19:29.502660</dc:date>
    <dc:format>image/svg+xml</dc:format>
    <dc:creator>
     <cc:Agent>
      <dc:title>Matplotlib v3.7.1, https://matplotlib.org/</dc:title>
     </cc:Agent>
    </dc:creator>
   </cc:Work>
  </rdf:RDF>
 </metadata>
 <defs>
  <style type="text/css">*{stroke-linejoin: round; stroke-linecap: butt}</style>
 </defs>
 <g id="figure_1">
  <g id="patch_1">
   <path d="M 0 141.12 
L 424.8 141.12 
L 424.8 0 
L 0 0 
z
" style="fill: #ffffff"/>
  </g>
  <g id="axes_1">
   <g id="patch_2">
    <path d="M 56.23 89.48 
L 414 89.48 
L 414 54.672 
L 56.23 54.672 
z
" style="fill: #ffffff"/>
   </g>
   <g id="patch_3">
    <path d="M 53.185149 71.652391 
L 59.274851 71.652391 
L 59.274851 81.548541 
L 53.185149 81.548541 
z
" clip-path="url(#pcea49512c9)" style="fill: #696969"/>
   </g>
   <g id="patch_4">
    <path d="M 60.797277 71.652391 
L 66.886979 71.652391 
L 66.886979 79.260426 
L 60.797277 79.260426 
z
" clip-path="url(#pcea49512c9)" style="fill: #696969"/>
   </g>
   <g id="patch_5">
    <path d="M 68.409404 71.652391 
L 74.499106 71.652391 
L 74.499106 81.665602 
L 68.409404 81.665602 
z
" clip-path="url(#pcea49512c9)" style="fill: #696969"/>
   </g>
   <g id="patch_6">
    <path d="M 76.021532 71.652391 
L 82.111234 71.652391 
L 82.111234 78.59218 
L 76.021532 78.59218 
z
" clip-path="url(#pcea49512c9)" style="fill: #696969"/>
   </g>
   <g id="patch_7">
    <path d="M 83.63366 71.652391 
L 89.723362 71.652391 
L 89.723362 76.306069 
L 83.63366 76.306069 
z
" clip-path="url(#pcea49512c9)" style="fill: #696969"/>
   </g>
   <g id="patch_8">
    <path d="M 91.245787 71.652391 
L 97.335489 71.652391 
L 97.335489 67.428126 
L 91.245787 67.428126 
z
" clip-path="url(#pcea49512c9)" style="fill: #696969"/>
   </g>
   <g id="patch_9">
    <path d="M 98.857915 71.652391 
L 104.947617 71.652391 
L 104.947617 66.149282 
L 98.857915 66.149282 
z
" clip-path="url(#pcea49512c9)" style="fill: #696969"/>
   </g>
   <g id="patch_10">
    <path d="M 106.470043 71.652391 
L 112.559745 71.652391 
L 112.559745 62.978522 
L 106.470043 62.978522 
z
" clip-path="url(#pcea49512c9)" style="fill: #696969"/>
   </g>
   <g id="patch_11">
    <path d="M 114.08217 71.652391 
L 120.171872 71.652391 
L 120.171872 62.32455 
L 114.08217 62.32455 
z
" clip-path="url(#pcea49512c9)" style="fill: #696969"/>
   </g>
   <g id="patch_12">
    <path d="M 121.694298 71.652391 
L 127.784 71.652391 
L 127.784 59.814706 
L 121.694298 59.814706 
z
" clip-path="url(#pcea49512c9)" style="fill: #696969"/>
   </g>
   <g id="patch_13">
    <path d="M 129.306426 71.652391 
L 135.396128 71.652391 
L 135.396128 59.728304 
L 129.306426 59.728304 
z
" clip-path="url(#pcea49512c9)" style="fill: #696969"/>
   </g>
   <g id="patch_14">
    <path d="M 136.918553 71.652391 
L 143.008255 71.652391 
L 143.008255 60.133553 
L 136.918553 60.133553 
z
" clip-path="url(#pcea49512c9)" style="fill: #696969"/>
   </g>
   <g id="patch_15">
    <path d="M 144.530681 71.652391 
L 150.620383 71.652391 
L 150.620383 58.148156 
L 144.530681 58.148156 
z
" clip-path="url(#pcea49512c9)" style="fill: #696969"/>
   </g>
   <g id="patch_16">
    <path d="M 152.142809 71.652391 
L 158.232511 71.652391 
L 158.232511 61.239664 
L 152.142809 61.239664 
z
" clip-path="url(#pcea49512c9)" style="fill: #696969"/>
   </g>
   <g id="patch_17">
    <path d="M 159.754936 71.652391 
L 165.844638 71.652391 
L 165.844638 60.204913 
L 159.754936 60.204913 
z
" clip-path="url(#pcea49512c9)" style="fill: #696969"/>
   </g>
   <g id="patch_18">
    <path d="M 167.367064 71.652391 
L 173.456766 71.652391 
L 173.456766 63.674488 
L 167.367064 63.674488 
z
" clip-path="url(#pcea49512c9)" style="fill: #696969"/>
   </g>
   <g id="patch_19">
    <path d="M 174.979191 71.652391 
L 181.068894 71.652391 
L 181.068894 64.300546 
L 174.979191 64.300546 
z
" clip-path="url(#pcea49512c9)" style="fill: #696969"/>
   </g>
   <g id="patch_20">
    <path d="M 182.591319 71.652391 
L 188.681021 71.652391 
L 188.681021 71.337327 
L 182.591319 71.337327 
z
" clip-path="url(#pcea49512c9)" style="fill: #696969"/>
   </g>
   <g id="patch_21">
    <path d="M 190.203447 71.652391 
L 196.293149 71.652391 
L 196.293149 77.839519 
L 190.203447 77.839519 
z
" clip-path="url(#pcea49512c9)" style="fill: #696969"/>
   </g>
   <g id="patch_22">
    <path d="M 197.815574 71.652391 
L 203.905277 71.652391 
L 203.905277 81.57075 
L 197.815574 81.57075 
z
" clip-path="url(#pcea49512c9)" style="fill: #696969"/>
   </g>
   <g id="patch_23">
    <path d="M 205.427702 71.652391 
L 211.517404 71.652391 
L 211.517404 85.057145 
L 205.427702 85.057145 
z
" clip-path="url(#pcea49512c9)" style="fill: #696969"/>
   </g>
   <g id="patch_24">
    <path d="M 213.03983 71.652391 
L 219.129532 71.652391 
L 219.129532 83.653246 
L 213.03983 83.653246 
z
" clip-path="url(#pcea49512c9)" style="fill: #696969"/>
   </g>
   <g id="patch_25">
    <path d="M 220.651957 71.652391 
L 226.74166 71.652391 
L 226.74166 80.870715 
L 220.651957 80.870715 
z
" clip-path="url(#pcea49512c9)" style="fill: #696969"/>
   </g>
   <g id="patch_26">
    <path d="M 228.264085 71.652391 
L 234.353787 71.652391 
L 234.353787 79.016301 
L 228.264085 79.016301 
z
" clip-path="url(#pcea49512c9)" style="fill: #696969"/>
   </g>
   <g id="patch_27">
    <path d="M 235.876213 71.652391 
L 241.965915 71.652391 
L 241.965915 81.170523 
L 235.876213 81.170523 
z
" clip-path="url(#pcea49512c9)" style="fill: #696969"/>
   </g>
   <g id="patch_28">
    <path d="M 243.48834 71.652391 
L 249.578043 71.652391 
L 249.578043 83.627204 
L 243.48834 83.627204 
z
" clip-path="url(#pcea49512c9)" style="fill: #696969"/>
   </g>
   <g id="patch_29">
    <path d="M 251.100468 71.652391 
L 257.19017 71.652391 
L 257.19017 78.656879 
L 251.100468 78.656879 
z
" clip-path="url(#pcea49512c9)" style="fill: #696969"/>
   </g>
   <g id="patch_30">
    <path d="M 258.712596 71.652391 
L 264.802298 71.652391 
L 264.802298 72.253917 
L 258.712596 72.253917 
z
" clip-path="url(#pcea49512c9)" style="fill: #696969"/>
   </g>
   <g id="patch_31">
    <path d="M 266.324723 71.652391 
L 272.414426 71.652391 
L 272.414426 67.186463 
L 266.324723 67.186463 
z
" clip-path="url(#pcea49512c9)" style="fill: #696969"/>
   </g>
   <g id="patch_32">
    <path d="M 273.936851 71.652391 
L 280.026553 71.652391 
L 280.026553 67.657571 
L 273.936851 67.657571 
z
" clip-path="url(#pcea49512c9)" style="fill: #696969"/>
   </g>
   <g id="patch_33">
    <path d="M 281.548979 71.652391 
L 287.638681 71.652391 
L 287.638681 65.872855 
L 281.548979 65.872855 
z
" clip-path="url(#pcea49512c9)" style="fill: #696969"/>
   </g>
   <g id="patch_34">
    <path d="M 289.161106 71.652391 
L 295.250809 71.652391 
L 295.250809 65.648602 
L 289.161106 65.648602 
z
" clip-path="url(#pcea49512c9)" style="fill: #696969"/>
   </g>
   <g id="patch_35">
    <path d="M 296.773234 71.652391 
L 302.862936 71.652391 
L 302.862936 63.030179 
L 296.773234 63.030179 
z
" clip-path="url(#pcea49512c9)" style="fill: #696969"/>
   </g>
   <g id="patch_36">
    <path d="M 304.385362 71.652391 
L 310.475064 71.652391 
L 310.475064 64.133458 
L 304.385362 64.133458 
z
" clip-path="url(#pcea49512c9)" style="fill: #696969"/>
   </g>
   <g id="patch_37">
    <path d="M 311.997489 71.652391 
L 318.087191 71.652391 
L 318.087191 59.745844 
L 311.997489 59.745844 
z
" clip-path="url(#pcea49512c9)" style="fill: #696969"/>
   </g>
   <g id="patch_38">
    <path d="M 319.609617 71.652391 
L 325.699319 71.652391 
L 325.699319 58.949918 
L 319.609617 58.949918 
z
" clip-path="url(#pcea49512c9)" style="fill: #696969"/>
   </g>
   <g id="patch_39">
    <path d="M 327.221745 71.652391 
L 333.311447 71.652391 
L 333.311447 57.572667 
L 327.221745 57.572667 
z
" clip-path="url(#pcea49512c9)" style="fill: #696969"/>
   </g>
   <g id="patch_40">
    <path d="M 334.833872 71.652391 
L 340.923574 71.652391 
L 340.923574 63.141151 
L 334.833872 63.141151 
z
" clip-path="url(#pcea49512c9)" style="fill: #696969"/>
   </g>
   <g id="patch_41">
    <path d="M 342.446 71.652391 
L 348.535702 71.652391 
L 348.535702 65.405437 
L 342.446 65.405437 
z
" clip-path="url(#pcea49512c9)" style="fill: #696969"/>
   </g>
   <g id="patch_42">
    <path d="M 350.058128 71.652391 
L 356.14783 71.652391 
L 356.14783 73.252054 
L 350.058128 73.252054 
z
" clip-path="url(#pcea49512c9)" style="fill: #696969"/>
   </g>
   <g id="patch_43">
    <path d="M 357.670255 71.652391 
L 363.759957 71.652391 
L 363.759957 77.369443 
L 357.670255 77.369443 
z
" clip-path="url(#pcea49512c9)" style="fill: #696969"/>
   </g>
   <g id="patch_44">
    <path d="M 365.282383 71.652391 
L 371.372085 71.652391 
L 371.372085 81.091492 
L 365.282383 81.091492 
z
" clip-path="url(#pcea49512c9)" style="fill: #696969"/>
   </g>
   <g id="patch_45">
    <path d="M 372.894511 71.652391 
L 378.984213 71.652391 
L 378.984213 76.850617 
L 372.894511 76.850617 
z
" clip-path="url(#pcea49512c9)" style="fill: #696969"/>
   </g>
   <g id="patch_46">
    <path d="M 380.506638 71.652391 
L 386.59634 71.652391 
L 386.59634 77.854277 
L 380.506638 77.854277 
z
" clip-path="url(#pcea49512c9)" style="fill: #696969"/>
   </g>
   <g id="patch_47">
    <path d="M 388.118766 71.652391 
L 394.208468 71.652391 
L 394.208468 75.797342 
L 388.118766 75.797342 
z
" clip-path="url(#pcea49512c9)" style="fill: #696969"/>
   </g>
   <g id="patch_48">
    <path d="M 395.730894 71.652391 
L 401.820596 71.652391 
L 401.820596 82.106447 
L 395.730894 82.106447 
z
" clip-path="url(#pcea49512c9)" style="fill: #696969"/>
   </g>
   <g id="patch_49">
    <path d="M 403.343021 71.652391 
L 409.432723 71.652391 
L 409.432723 82.65618 
L 403.343021 82.65618 
z
" clip-path="url(#pcea49512c9)" style="fill: #696969"/>
   </g>
   <g id="patch_50">
    <path d="M 410.955149 71.652391 
L 417.044851 71.652391 
L 417.044851 86.579333 
L 410.955149 86.579333 
z
" clip-path="url(#pcea49512c9)" style="fill: #696969"/>
   </g>
   <g id="matplotlib.axis_1">
    <g id="xtick_1">
     <g id="line2d_1">
      <defs>
       <path id="mf2054cea0a" d="M 0 0 
L 0 3.5 
" style="stroke: #000000; stroke-width: 0.8"/>
      </defs>
      <g>
       <use xlink:href="#mf2054cea0a" x="56.23" y="89.48" style="stroke: #000000; stroke-width: 0.8"/>
      </g>
     </g>
     <g id="text_1">
      <!-- 0 -->
      <g transform="translate(53.04875 104.078438) scale(0.1 -0.1)">
       <defs>
        <path id="DejaVuSans-30" d="M 2034 4250 
Q 1547 4250 1301 3770 
Q 1056 3291 1056 2328 
Q 1056 1369 1301 889 
Q 1547 409 2034 409 
Q 2525 409 2770 889 
Q 3016 1369 3016 2328 
Q 3016 3291 2770 3770 
Q 2525 4250 2034 4250 
z
M 2034 4750 
Q 2819 4750 3233 4129 
Q 3647 3509 3647 2328 
Q 3647 1150 3233 529 
Q 2819 -91 2034 -91 
Q 1250 -91 836 529 
Q 422 1150 422 2328 
Q 422 3509 836 4129 
Q 1250 4750 2034 4750 
z
" transform="scale(0.015625)"/>
       </defs>
       <use xlink:href="#DejaVuSans-30"/>
      </g>
     </g>
    </g>
    <g id="xtick_2">
     <g id="line2d_2">
      <g>
       <use xlink:href="#mf2054cea0a" x="132.351277" y="89.48" style="stroke: #000000; stroke-width: 0.8"/>
      </g>
     </g>
     <g id="text_2">
      <!-- 10 -->
      <g transform="translate(125.988777 104.078438) scale(0.1 -0.1)">
       <defs>
        <path id="DejaVuSans-31" d="M 794 531 
L 1825 531 
L 1825 4091 
L 703 3866 
L 703 4441 
L 1819 4666 
L 2450 4666 
L 2450 531 
L 3481 531 
L 3481 0 
L 794 0 
L 794 531 
z
" transform="scale(0.015625)"/>
       </defs>
       <use xlink:href="#DejaVuSans-31"/>
       <use xlink:href="#DejaVuSans-30" x="63.623047"/>
      </g>
     </g>
    </g>
    <g id="xtick_3">
     <g id="line2d_3">
      <g>
       <use xlink:href="#mf2054cea0a" x="208.472553" y="89.48" style="stroke: #000000; stroke-width: 0.8"/>
      </g>
     </g>
     <g id="text_3">
      <!-- 20 -->
      <g transform="translate(202.110053 104.078438) scale(0.1 -0.1)">
       <defs>
        <path id="DejaVuSans-32" d="M 1228 531 
L 3431 531 
L 3431 0 
L 469 0 
L 469 531 
Q 828 903 1448 1529 
Q 2069 2156 2228 2338 
Q 2531 2678 2651 2914 
Q 2772 3150 2772 3378 
Q 2772 3750 2511 3984 
Q 2250 4219 1831 4219 
Q 1534 4219 1204 4116 
Q 875 4013 500 3803 
L 500 4441 
Q 881 4594 1212 4672 
Q 1544 4750 1819 4750 
Q 2544 4750 2975 4387 
Q 3406 4025 3406 3419 
Q 3406 3131 3298 2873 
Q 3191 2616 2906 2266 
Q 2828 2175 2409 1742 
Q 1991 1309 1228 531 
z
" transform="scale(0.015625)"/>
       </defs>
       <use xlink:href="#DejaVuSans-32"/>
       <use xlink:href="#DejaVuSans-30" x="63.623047"/>
      </g>
     </g>
    </g>
    <g id="xtick_4">
     <g id="line2d_4">
      <g>
       <use xlink:href="#mf2054cea0a" x="284.59383" y="89.48" style="stroke: #000000; stroke-width: 0.8"/>
      </g>
     </g>
     <g id="text_4">
      <!-- 30 -->
      <g transform="translate(278.23133 104.078438) scale(0.1 -0.1)">
       <defs>
        <path id="DejaVuSans-33" d="M 2597 2516 
Q 3050 2419 3304 2112 
Q 3559 1806 3559 1356 
Q 3559 666 3084 287 
Q 2609 -91 1734 -91 
Q 1441 -91 1130 -33 
Q 819 25 488 141 
L 488 750 
Q 750 597 1062 519 
Q 1375 441 1716 441 
Q 2309 441 2620 675 
Q 2931 909 2931 1356 
Q 2931 1769 2642 2001 
Q 2353 2234 1838 2234 
L 1294 2234 
L 1294 2753 
L 1863 2753 
Q 2328 2753 2575 2939 
Q 2822 3125 2822 3475 
Q 2822 3834 2567 4026 
Q 2313 4219 1838 4219 
Q 1578 4219 1281 4162 
Q 984 4106 628 3988 
L 628 4550 
Q 988 4650 1302 4700 
Q 1616 4750 1894 4750 
Q 2613 4750 3031 4423 
Q 3450 4097 3450 3541 
Q 3450 3153 3228 2886 
Q 3006 2619 2597 2516 
z
" transform="scale(0.015625)"/>
       </defs>
       <use xlink:href="#DejaVuSans-33"/>
       <use xlink:href="#DejaVuSans-30" x="63.623047"/>
      </g>
     </g>
    </g>
    <g id="xtick_5">
     <g id="line2d_5">
      <g>
       <use xlink:href="#mf2054cea0a" x="360.715106" y="89.48" style="stroke: #000000; stroke-width: 0.8"/>
      </g>
     </g>
     <g id="text_5">
      <!-- 40 -->
      <g transform="translate(354.352606 104.078438) scale(0.1 -0.1)">
       <defs>
        <path id="DejaVuSans-34" d="M 2419 4116 
L 825 1625 
L 2419 1625 
L 2419 4116 
z
M 2253 4666 
L 3047 4666 
L 3047 1625 
L 3713 1625 
L 3713 1100 
L 3047 1100 
L 3047 0 
L 2419 0 
L 2419 1100 
L 313 1100 
L 313 1709 
L 2253 4666 
z
" transform="scale(0.015625)"/>
       </defs>
       <use xlink:href="#DejaVuSans-34"/>
       <use xlink:href="#DejaVuSans-30" x="63.623047"/>
      </g>
     </g>
    </g>
   </g>
   <g id="matplotlib.axis_2">
    <g id="ytick_1">
     <g id="line2d_6">
      <defs>
       <path id="mebc7e27806" d="M 0 0 
L -3.5 0 
" style="stroke: #000000; stroke-width: 0.8"/>
      </defs>
      <g>
       <use xlink:href="#mebc7e27806" x="56.23" y="83.527698" style="stroke: #000000; stroke-width: 0.8"/>
      </g>
     </g>
     <g id="text_6">
      <!-- −2.5 -->
      <g transform="translate(24.947188 87.326917) scale(0.1 -0.1)">
       <defs>
        <path id="DejaVuSans-2212" d="M 678 2272 
L 4684 2272 
L 4684 1741 
L 678 1741 
L 678 2272 
z
" transform="scale(0.015625)"/>
        <path id="DejaVuSans-2e" d="M 684 794 
L 1344 794 
L 1344 0 
L 684 0 
L 684 794 
z
" transform="scale(0.015625)"/>
        <path id="DejaVuSans-35" d="M 691 4666 
L 3169 4666 
L 3169 4134 
L 1269 4134 
L 1269 2991 
Q 1406 3038 1543 3061 
Q 1681 3084 1819 3084 
Q 2600 3084 3056 2656 
Q 3513 2228 3513 1497 
Q 3513 744 3044 326 
Q 2575 -91 1722 -91 
Q 1428 -91 1123 -41 
Q 819 9 494 109 
L 494 744 
Q 775 591 1075 516 
Q 1375 441 1709 441 
Q 2250 441 2565 725 
Q 2881 1009 2881 1497 
Q 2881 1984 2565 2268 
Q 2250 2553 1709 2553 
Q 1456 2553 1204 2497 
Q 953 2441 691 2322 
L 691 4666 
z
" transform="scale(0.015625)"/>
       </defs>
       <use xlink:href="#DejaVuSans-2212"/>
       <use xlink:href="#DejaVuSans-32" x="83.789062"/>
       <use xlink:href="#DejaVuSans-2e" x="147.412109"/>
       <use xlink:href="#DejaVuSans-35" x="179.199219"/>
      </g>
     </g>
    </g>
    <g id="ytick_2">
     <g id="line2d_7">
      <g>
       <use xlink:href="#mebc7e27806" x="56.23" y="71.652391" style="stroke: #000000; stroke-width: 0.8"/>
      </g>
     </g>
     <g id="text_7">
      <!-- 0.0 -->
      <g transform="translate(33.326875 75.451609) scale(0.1 -0.1)">
       <use xlink:href="#DejaVuSans-30"/>
       <use xlink:href="#DejaVuSans-2e" x="63.623047"/>
       <use xlink:href="#DejaVuSans-30" x="95.410156"/>
      </g>
     </g>
    </g>
    <g id="ytick_3">
     <g id="line2d_8">
      <g>
       <use xlink:href="#mebc7e27806" x="56.23" y="59.777083" style="stroke: #000000; stroke-width: 0.8"/>
      </g>
     </g>
     <g id="text_8">
      <!-- 2.5 -->
      <g transform="translate(33.326875 63.576302) scale(0.1 -0.1)">
       <use xlink:href="#DejaVuSans-32"/>
       <use xlink:href="#DejaVuSans-2e" x="63.623047"/>
       <use xlink:href="#DejaVuSans-35" x="95.410156"/>
      </g>
     </g>
    </g>
   </g>
   <g id="line2d_9">
    <path d="M 56.23 82.691533 
L 63.842128 81.625066 
L 71.454255 79.77085 
L 79.066383 77.266406 
L 86.678511 74.297476 
L 94.290638 71.084251 
L 101.902766 67.865043 
L 109.514894 64.878605 
L 117.127021 62.346427 
L 124.739149 60.456311 
L 132.351277 59.348436 
L 139.963404 59.104969 
L 147.575532 59.743966 
L 155.18766 61.218037 
L 162.799787 63.417856 
L 170.411915 66.180273 
L 178.024043 69.300412 
L 185.63617 72.546866 
L 193.248298 75.67886 
L 200.860426 78.46411 
L 208.472553 80.696046 
L 216.084681 82.209134 
L 223.696809 82.891158 
L 231.308936 82.691533 
L 238.921064 81.625066 
L 246.533191 79.77085 
L 254.145319 77.266406 
L 261.757447 74.297476 
L 269.369574 71.084251 
L 276.981702 67.865043 
L 284.59383 64.878605 
L 292.205957 62.346427 
L 299.818085 60.456311 
L 307.430213 59.348436 
L 315.04234 59.104969 
L 322.654468 59.743966 
L 330.266596 61.218037 
L 337.878723 63.417856 
L 345.490851 66.180273 
L 353.102979 69.300412 
L 360.715106 72.546866 
L 368.327234 75.67886 
L 375.939362 78.46411 
L 383.551489 80.696046 
L 391.163617 82.209134 
L 398.775745 82.891158 
L 406.387872 82.691533 
L 414 81.625066 
" clip-path="url(#pcea49512c9)" style="fill: none; stroke: #191970; stroke-width: 3; stroke-linecap: square"/>
   </g>
   <g id="line2d_10">
    <path d="M 138.248961 89.48 
L 138.248961 54.672 
" clip-path="url(#pcea49512c9)" style="fill: none; stroke-dasharray: 7.4,3.2; stroke-dashoffset: 0; stroke: #000000; stroke-opacity: 0.8; stroke-width: 2"/>
   </g>
   <g id="patch_51">
    <path d="M 56.23 89.48 
L 56.23 54.672 
" style="fill: none; stroke: #000000; stroke-width: 0.8; stroke-linejoin: miter; stroke-linecap: square"/>
   </g>
   <g id="patch_52">
    <path d="M 56.23 89.48 
L 414 89.48 
" style="fill: none; stroke: #000000; stroke-width: 0.8; stroke-linejoin: miter; stroke-linecap: square"/>
   </g>
   <g id="text_9">
    <!-- GENE -->
    <g transform="translate(223.968125 39.71375) scale(0.08 -0.08)">
     <defs>
      <path id="DejaVuSans-47" d="M 3809 666 
L 3809 1919 
L 2778 1919 
L 2778 2438 
L 4434 2438 
L 4434 434 
Q 4069 175 3628 42 
Q 3188 -91 2688 -91 
Q 1594 -91 976 548 
Q 359 1188 359 2328 
Q 359 3472 976 4111 
Q 1594 4750 2688 4750 
Q 3144 4750 3555 4637 
Q 3966 4525 4313 4306 
L 4313 3634 
Q 3963 3931 3569 4081 
Q 3175 4231 2741 4231 
Q 1884 4231 1454 3753 
Q 1025 3275 1025 2328 
Q 1025 1384 1454 906 
Q 1884 428 2741 428 
Q 3075 428 3337 486 
Q 3600 544 3809 666 
z
" transform="scale(0.015625)"/>
      <path id="DejaVuSans-45" d="M 628 4666 
L 3578 4666 
L 3578 4134 
L 1259 4134 
L 1259 2753 
L 3481 2753 
L 3481 2222 
L 1259 2222 
L 1259 531 
L 3634 531 
L 3634 0 
L 628 0 
L 628 4666 
z
" transform="scale(0.015625)"/>
      <path id="DejaVuSans-4e" d="M 628 4666 
L 1478 4666 
L 3547 763 
L 3547 4666 
L 4159 4666 
L 4159 0 
L 3309 0 
L 1241 3903 
L 1241 0 
L 628 0 
L 628 4666 
z
" transform="scale(0.015625)"/>
     </defs>
     <use xlink:href="#DejaVuSans-47"/>
     <use xlink:href="#DejaVuSans-45" x="77.490234"/>
     <use xlink:href="#DejaVuSans-4e" x="140.673828"/>
     <use xlink:href="#DejaVuSans-45" x="215.478516"/>
    </g>
    <!-- (AC: 10.77, PR: 23.0 - NS) -->
    <g transform="translate(183.813125 48.672) scale(0.08 -0.08)">
     <defs>
      <path id="DejaVuSans-28" d="M 1984 4856 
Q 1566 4138 1362 3434 
Q 1159 2731 1159 2009 
Q 1159 1288 1364 580 
Q 1569 -128 1984 -844 
L 1484 -844 
Q 1016 -109 783 600 
Q 550 1309 550 2009 
Q 550 2706 781 3412 
Q 1013 4119 1484 4856 
L 1984 4856 
z
" transform="scale(0.015625)"/>
      <path id="DejaVuSans-41" d="M 2188 4044 
L 1331 1722 
L 3047 1722 
L 2188 4044 
z
M 1831 4666 
L 2547 4666 
L 4325 0 
L 3669 0 
L 3244 1197 
L 1141 1197 
L 716 0 
L 50 0 
L 1831 4666 
z
" transform="scale(0.015625)"/>
      <path id="DejaVuSans-43" d="M 4122 4306 
L 4122 3641 
Q 3803 3938 3442 4084 
Q 3081 4231 2675 4231 
Q 1875 4231 1450 3742 
Q 1025 3253 1025 2328 
Q 1025 1406 1450 917 
Q 1875 428 2675 428 
Q 3081 428 3442 575 
Q 3803 722 4122 1019 
L 4122 359 
Q 3791 134 3420 21 
Q 3050 -91 2638 -91 
Q 1578 -91 968 557 
Q 359 1206 359 2328 
Q 359 3453 968 4101 
Q 1578 4750 2638 4750 
Q 3056 4750 3426 4639 
Q 3797 4528 4122 4306 
z
" transform="scale(0.015625)"/>
      <path id="DejaVuSans-3a" d="M 750 794 
L 1409 794 
L 1409 0 
L 750 0 
L 750 794 
z
M 750 3309 
L 1409 3309 
L 1409 2516 
L 750 2516 
L 750 3309 
z
" transform="scale(0.015625)"/>
      <path id="DejaVuSans-20" transform="scale(0.015625)"/>
      <path id="DejaVuSans-37" d="M 525 4666 
L 3525 4666 
L 3525 4397 
L 1831 0 
L 1172 0 
L 2766 4134 
L 525 4134 
L 525 4666 
z
" transform="scale(0.015625)"/>
      <path id="DejaVuSans-2c" d="M 750 794 
L 1409 794 
L 1409 256 
L 897 -744 
L 494 -744 
L 750 256 
L 750 794 
z
" transform="scale(0.015625)"/>
      <path id="DejaVuSans-50" d="M 1259 4147 
L 1259 2394 
L 2053 2394 
Q 2494 2394 2734 2622 
Q 2975 2850 2975 3272 
Q 2975 3691 2734 3919 
Q 2494 4147 2053 4147 
L 1259 4147 
z
M 628 4666 
L 2053 4666 
Q 2838 4666 3239 4311 
Q 3641 3956 3641 3272 
Q 3641 2581 3239 2228 
Q 2838 1875 2053 1875 
L 1259 1875 
L 1259 0 
L 628 0 
L 628 4666 
z
" transform="scale(0.015625)"/>
      <path id="DejaVuSans-52" d="M 2841 2188 
Q 3044 2119 3236 1894 
Q 3428 1669 3622 1275 
L 4263 0 
L 3584 0 
L 2988 1197 
Q 2756 1666 2539 1819 
Q 2322 1972 1947 1972 
L 1259 1972 
L 1259 0 
L 628 0 
L 628 4666 
L 2053 4666 
Q 2853 4666 3247 4331 
Q 3641 3997 3641 3322 
Q 3641 2881 3436 2590 
Q 3231 2300 2841 2188 
z
M 1259 4147 
L 1259 2491 
L 2053 2491 
Q 2509 2491 2742 2702 
Q 2975 2913 2975 3322 
Q 2975 3731 2742 3939 
Q 2509 4147 2053 4147 
L 1259 4147 
z
" transform="scale(0.015625)"/>
      <path id="DejaVuSans-2d" d="M 313 2009 
L 1997 2009 
L 1997 1497 
L 313 1497 
L 313 2009 
z
" transform="scale(0.015625)"/>
      <path id="DejaVuSans-53" d="M 3425 4513 
L 3425 3897 
Q 3066 4069 2747 4153 
Q 2428 4238 2131 4238 
Q 1616 4238 1336 4038 
Q 1056 3838 1056 3469 
Q 1056 3159 1242 3001 
Q 1428 2844 1947 2747 
L 2328 2669 
Q 3034 2534 3370 2195 
Q 3706 1856 3706 1288 
Q 3706 609 3251 259 
Q 2797 -91 1919 -91 
Q 1588 -91 1214 -16 
Q 841 59 441 206 
L 441 856 
Q 825 641 1194 531 
Q 1563 422 1919 422 
Q 2459 422 2753 634 
Q 3047 847 3047 1241 
Q 3047 1584 2836 1778 
Q 2625 1972 2144 2069 
L 1759 2144 
Q 1053 2284 737 2584 
Q 422 2884 422 3419 
Q 422 4038 858 4394 
Q 1294 4750 2059 4750 
Q 2388 4750 2728 4690 
Q 3069 4631 3425 4513 
z
" transform="scale(0.015625)"/>
      <path id="DejaVuSans-29" d="M 513 4856 
L 1013 4856 
Q 1481 4119 1714 3412 
Q 1947 2706 1947 2009 
Q 1947 1309 1714 600 
Q 1481 -109 1013 -844 
L 513 -844 
Q 928 -128 1133 580 
Q 1338 1288 1338 2009 
Q 1338 2731 1133 3434 
Q 928 4138 513 4856 
z
" transform="scale(0.015625)"/>
     </defs>
     <use xlink:href="#DejaVuSans-28"/>
     <use xlink:href="#DejaVuSans-41" x="39.013672"/>
     <use xlink:href="#DejaVuSans-43" x="105.671875"/>
     <use xlink:href="#DejaVuSans-3a" x="175.496094"/>
     <use xlink:href="#DejaVuSans-20" x="209.1875"/>
     <use xlink:href="#DejaVuSans-31" x="240.974609"/>
     <use xlink:href="#DejaVuSans-30" x="304.597656"/>
     <use xlink:href="#DejaVuSans-2e" x="368.220703"/>
     <use xlink:href="#DejaVuSans-37" x="400.007812"/>
     <use xlink:href="#DejaVuSans-37" x="463.630859"/>
     <use xlink:href="#DejaVuSans-2c" x="527.253906"/>
     <use xlink:href="#DejaVuSans-20" x="559.041016"/>
     <use xlink:href="#DejaVuSans-50" x="590.828125"/>
     <use xlink:href="#DejaVuSans-52" x="651.130859"/>
     <use xlink:href="#DejaVuSans-3a" x="717.488281"/>
     <use xlink:href="#DejaVuSans-20" x="751.179688"/>
     <use xlink:href="#DejaVuSans-32" x="782.966797"/>
     <use xlink:href="#DejaVuSans-33" x="846.589844"/>
     <use xlink:href="#DejaVuSans-2e" x="910.212891"/>
     <use xlink:href="#DejaVuSans-30" x="942"/>
     <use xlink:href="#DejaVuSans-20" x="1005.623047"/>
     <use xlink:href="#DejaVuSans-2d" x="1037.410156"/>
     <use xlink:href="#DejaVuSans-20" x="1073.494141"/>
     <use xlink:href="#DejaVuSans-4e" x="1105.28125"/>
     <use xlink:href="#DejaVuSans-53" x="1180.085938"/>
     <use xlink:href="#DejaVuSans-29" x="1243.5625"/>
    </g>
   </g>
  </g>
  <g id="text_10">
   <!-- COSINOR MODEL - SIMULATION 68 -->
   <g transform="translate(108.534375 11.940525) scale(0.12 -0.12)">
    <defs>
     <path id="DejaVuSans-4f" d="M 2522 4238 
Q 1834 4238 1429 3725 
Q 1025 3213 1025 2328 
Q 1025 1447 1429 934 
Q 1834 422 2522 422 
Q 3209 422 3611 934 
Q 4013 1447 4013 2328 
Q 4013 3213 3611 3725 
Q 3209 4238 2522 4238 
z
M 2522 4750 
Q 3503 4750 4090 4092 
Q 4678 3434 4678 2328 
Q 4678 1225 4090 567 
Q 3503 -91 2522 -91 
Q 1538 -91 948 565 
Q 359 1222 359 2328 
Q 359 3434 948 4092 
Q 1538 4750 2522 4750 
z
" transform="scale(0.015625)"/>
     <path id="DejaVuSans-49" d="M 628 4666 
L 1259 4666 
L 1259 0 
L 628 0 
L 628 4666 
z
" transform="scale(0.015625)"/>
     <path id="DejaVuSans-4d" d="M 628 4666 
L 1569 4666 
L 2759 1491 
L 3956 4666 
L 4897 4666 
L 4897 0 
L 4281 0 
L 4281 4097 
L 3078 897 
L 2444 897 
L 1241 4097 
L 1241 0 
L 628 0 
L 628 4666 
z
" transform="scale(0.015625)"/>
     <path id="DejaVuSans-44" d="M 1259 4147 
L 1259 519 
L 2022 519 
Q 2988 519 3436 956 
Q 3884 1394 3884 2338 
Q 3884 3275 3436 3711 
Q 2988 4147 2022 4147 
L 1259 4147 
z
M 628 4666 
L 1925 4666 
Q 3281 4666 3915 4102 
Q 4550 3538 4550 2338 
Q 4550 1131 3912 565 
Q 3275 0 1925 0 
L 628 0 
L 628 4666 
z
" transform="scale(0.015625)"/>
     <path id="DejaVuSans-4c" d="M 628 4666 
L 1259 4666 
L 1259 531 
L 3531 531 
L 3531 0 
L 628 0 
L 628 4666 
z
" transform="scale(0.015625)"/>
     <path id="DejaVuSans-55" d="M 556 4666 
L 1191 4666 
L 1191 1831 
Q 1191 1081 1462 751 
Q 1734 422 2344 422 
Q 2950 422 3222 751 
Q 3494 1081 3494 1831 
L 3494 4666 
L 4128 4666 
L 4128 1753 
Q 4128 841 3676 375 
Q 3225 -91 2344 -91 
Q 1459 -91 1007 375 
Q 556 841 556 1753 
L 556 4666 
z
" transform="scale(0.015625)"/>
     <path id="DejaVuSans-54" d="M -19 4666 
L 3928 4666 
L 3928 4134 
L 2272 4134 
L 2272 0 
L 1638 0 
L 1638 4134 
L -19 4134 
L -19 4666 
z
" transform="scale(0.015625)"/>
     <path id="DejaVuSans-36" d="M 2113 2584 
Q 1688 2584 1439 2293 
Q 1191 2003 1191 1497 
Q 1191 994 1439 701 
Q 1688 409 2113 409 
Q 2538 409 2786 701 
Q 3034 994 3034 1497 
Q 3034 2003 2786 2293 
Q 2538 2584 2113 2584 
z
M 3366 4563 
L 3366 3988 
Q 3128 4100 2886 4159 
Q 2644 4219 2406 4219 
Q 1781 4219 1451 3797 
Q 1122 3375 1075 2522 
Q 1259 2794 1537 2939 
Q 1816 3084 2150 3084 
Q 2853 3084 3261 2657 
Q 3669 2231 3669 1497 
Q 3669 778 3244 343 
Q 2819 -91 2113 -91 
Q 1303 -91 875 529 
Q 447 1150 447 2328 
Q 447 3434 972 4092 
Q 1497 4750 2381 4750 
Q 2619 4750 2861 4703 
Q 3103 4656 3366 4563 
z
" transform="scale(0.015625)"/>
     <path id="DejaVuSans-38" d="M 2034 2216 
Q 1584 2216 1326 1975 
Q 1069 1734 1069 1313 
Q 1069 891 1326 650 
Q 1584 409 2034 409 
Q 2484 409 2743 651 
Q 3003 894 3003 1313 
Q 3003 1734 2745 1975 
Q 2488 2216 2034 2216 
z
M 1403 2484 
Q 997 2584 770 2862 
Q 544 3141 544 3541 
Q 544 4100 942 4425 
Q 1341 4750 2034 4750 
Q 2731 4750 3128 4425 
Q 3525 4100 3525 3541 
Q 3525 3141 3298 2862 
Q 3072 2584 2669 2484 
Q 3125 2378 3379 2068 
Q 3634 1759 3634 1313 
Q 3634 634 3220 271 
Q 2806 -91 2034 -91 
Q 1263 -91 848 271 
Q 434 634 434 1313 
Q 434 1759 690 2068 
Q 947 2378 1403 2484 
z
M 1172 3481 
Q 1172 3119 1398 2916 
Q 1625 2713 2034 2713 
Q 2441 2713 2670 2916 
Q 2900 3119 2900 3481 
Q 2900 3844 2670 4047 
Q 2441 4250 2034 4250 
Q 1625 4250 1398 4047 
Q 1172 3844 1172 3481 
z
" transform="scale(0.015625)"/>
    </defs>
    <use xlink:href="#DejaVuSans-43"/>
    <use xlink:href="#DejaVuSans-4f" x="69.824219"/>
    <use xlink:href="#DejaVuSans-53" x="148.535156"/>
    <use xlink:href="#DejaVuSans-49" x="212.011719"/>
    <use xlink:href="#DejaVuSans-4e" x="241.503906"/>
    <use xlink:href="#DejaVuSans-4f" x="316.308594"/>
    <use xlink:href="#DejaVuSans-52" x="395.019531"/>
    <use xlink:href="#DejaVuSans-20" x="464.501953"/>
    <use xlink:href="#DejaVuSans-4d" x="496.289062"/>
    <use xlink:href="#DejaVuSans-4f" x="582.568359"/>
    <use xlink:href="#DejaVuSans-44" x="661.279297"/>
    <use xlink:href="#DejaVuSans-45" x="738.28125"/>
    <use xlink:href="#DejaVuSans-4c" x="801.464844"/>
    <use xlink:href="#DejaVuSans-20" x="857.177734"/>
    <use xlink:href="#DejaVuSans-2d" x="888.964844"/>
    <use xlink:href="#DejaVuSans-20" x="925.048828"/>
    <use xlink:href="#DejaVuSans-53" x="956.835938"/>
    <use xlink:href="#DejaVuSans-49" x="1020.3125"/>
    <use xlink:href="#DejaVuSans-4d" x="1049.804688"/>
    <use xlink:href="#DejaVuSans-55" x="1136.083984"/>
    <use xlink:href="#DejaVuSans-4c" x="1209.277344"/>
    <use xlink:href="#DejaVuSans-41" x="1267.240234"/>
    <use xlink:href="#DejaVuSans-54" x="1327.898438"/>
    <use xlink:href="#DejaVuSans-49" x="1388.982422"/>
    <use xlink:href="#DejaVuSans-4f" x="1418.474609"/>
    <use xlink:href="#DejaVuSans-4e" x="1497.185547"/>
    <use xlink:href="#DejaVuSans-20" x="1571.990234"/>
    <use xlink:href="#DejaVuSans-36" x="1603.777344"/>
    <use xlink:href="#DejaVuSans-38" x="1667.400391"/>
   </g>
  </g>
  <g id="text_11">
   <!-- TIME (HOURS FROM START OF PROTOCOL) -->
   <g transform="translate(84.816563 137.213175) scale(0.12 -0.12)">
    <defs>
     <path id="DejaVuSans-48" d="M 628 4666 
L 1259 4666 
L 1259 2753 
L 3553 2753 
L 3553 4666 
L 4184 4666 
L 4184 0 
L 3553 0 
L 3553 2222 
L 1259 2222 
L 1259 0 
L 628 0 
L 628 4666 
z
" transform="scale(0.015625)"/>
     <path id="DejaVuSans-46" d="M 628 4666 
L 3309 4666 
L 3309 4134 
L 1259 4134 
L 1259 2759 
L 3109 2759 
L 3109 2228 
L 1259 2228 
L 1259 0 
L 628 0 
L 628 4666 
z
" transform="scale(0.015625)"/>
    </defs>
    <use xlink:href="#DejaVuSans-54"/>
    <use xlink:href="#DejaVuSans-49" x="61.083984"/>
    <use xlink:href="#DejaVuSans-4d" x="90.576172"/>
    <use xlink:href="#DejaVuSans-45" x="176.855469"/>
    <use xlink:href="#DejaVuSans-20" x="240.039062"/>
    <use xlink:href="#DejaVuSans-28" x="271.826172"/>
    <use xlink:href="#DejaVuSans-48" x="310.839844"/>
    <use xlink:href="#DejaVuSans-4f" x="386.035156"/>
    <use xlink:href="#DejaVuSans-55" x="464.746094"/>
    <use xlink:href="#DejaVuSans-52" x="537.939453"/>
    <use xlink:href="#DejaVuSans-53" x="607.421875"/>
    <use xlink:href="#DejaVuSans-20" x="670.898438"/>
    <use xlink:href="#DejaVuSans-46" x="702.685547"/>
    <use xlink:href="#DejaVuSans-52" x="760.205078"/>
    <use xlink:href="#DejaVuSans-4f" x="829.6875"/>
    <use xlink:href="#DejaVuSans-4d" x="908.398438"/>
    <use xlink:href="#DejaVuSans-20" x="994.677734"/>
    <use xlink:href="#DejaVuSans-53" x="1026.464844"/>
    <use xlink:href="#DejaVuSans-54" x="1089.941406"/>
    <use xlink:href="#DejaVuSans-41" x="1143.275391"/>
    <use xlink:href="#DejaVuSans-52" x="1211.683594"/>
    <use xlink:href="#DejaVuSans-54" x="1273.916016"/>
    <use xlink:href="#DejaVuSans-20" x="1335"/>
    <use xlink:href="#DejaVuSans-4f" x="1366.787109"/>
    <use xlink:href="#DejaVuSans-46" x="1445.498047"/>
    <use xlink:href="#DejaVuSans-20" x="1503.017578"/>
    <use xlink:href="#DejaVuSans-50" x="1534.804688"/>
    <use xlink:href="#DejaVuSans-52" x="1595.107422"/>
    <use xlink:href="#DejaVuSans-4f" x="1664.589844"/>
    <use xlink:href="#DejaVuSans-54" x="1743.300781"/>
    <use xlink:href="#DejaVuSans-4f" x="1804.384766"/>
    <use xlink:href="#DejaVuSans-43" x="1883.095703"/>
    <use xlink:href="#DejaVuSans-4f" x="1952.919922"/>
    <use xlink:href="#DejaVuSans-4c" x="2031.630859"/>
    <use xlink:href="#DejaVuSans-29" x="2087.34375"/>
   </g>
  </g>
  <g id="text_12">
   <!-- AMPLITUDE -->
   <g transform="translate(17.614125 105.039375) rotate(-90) scale(0.12 -0.12)">
    <use xlink:href="#DejaVuSans-41"/>
    <use xlink:href="#DejaVuSans-4d" x="68.408203"/>
    <use xlink:href="#DejaVuSans-50" x="154.6875"/>
    <use xlink:href="#DejaVuSans-4c" x="214.990234"/>
    <use xlink:href="#DejaVuSans-49" x="270.703125"/>
    <use xlink:href="#DejaVuSans-54" x="300.195312"/>
    <use xlink:href="#DejaVuSans-55" x="361.279297"/>
    <use xlink:href="#DejaVuSans-44" x="434.472656"/>
    <use xlink:href="#DejaVuSans-45" x="511.474609"/>
   </g>
  </g>
 </g>
 <defs>
  <clipPath id="pcea49512c9">
   <rect x="56.23" y="54.672" width="357.77" height="34.808"/>
  </clipPath>
 </defs>
</svg>
