<?xml version="1.0" encoding="utf-8" standalone="no"?>
<!DOCTYPE svg PUBLIC "-//W3C//DTD SVG 1.1//EN"
  "http://www.w3.org/Graphics/SVG/1.1/DTD/svg11.dtd">
<svg xmlns:xlink="http://www.w3.org/1999/xlink" width="864pt" height="360pt" viewBox="0 0 864 360" xmlns="http://www.w3.org/2000/svg" version="1.1">
 <metadata>
  <rdf:RDF xmlns:dc="http://purl.org/dc/elements/1.1/" xmlns:cc="http://creativecommons.org/ns#" xmlns:rdf="http://www.w3.org/1999/02/22-rdf-syntax-ns#">
   <cc:Work>
    <dc:type rdf:resource="http://purl.org/dc/dcmitype/StillImage"/>
    <dc:date>2023-08-03T15:34:21.695194</dc:date>
    <dc:format>image/svg+xml</dc:format>
    <dc:creator>
     <cc:Agent>
      <dc:title>Matplotlib v3.7.1, https://matplotlib.org/</dc:title>
     </cc:Agent>
    </dc:creator>
   </cc:Work>
  </rdf:RDF>
 </metadata>
 <defs>
  <style type="text/css">*{stroke-linejoin: round; stroke-linecap: butt}</style>
 </defs>
 <g id="figure_1">
  <g id="patch_1">
   <path d="M 0 360 
L 864 360 
L 864 0 
L 0 0 
z
" style="fill: #ffffff"/>
  </g>
  <g id="axes_1">
   <g id="patch_2">
    <path d="M 108 320.4 
L 777.6 320.4 
L 777.6 43.2 
L 108 43.2 
z
" style="fill: #ffffff"/>
   </g>
   <g id="matplotlib.axis_1">
    <g id="xtick_1">
     <g id="line2d_1">
      <defs>
       <path id="m5a03d0eff6" d="M 0 0 
L 0 3.5 
" style="stroke: #000000; stroke-width: 0.8"/>
      </defs>
      <g>
       <use xlink:href="#m5a03d0eff6" x="173.437453" y="320.4" style="stroke: #000000; stroke-width: 0.8"/>
      </g>
     </g>
     <g id="text_1">
      <!-- 2022-06-15 -->
      <g transform="translate(144.37964 334.998438) scale(0.1 -0.1)">
       <defs>
        <path id="DejaVuSans-32" d="M 1228 531 
L 3431 531 
L 3431 0 
L 469 0 
L 469 531 
Q 828 903 1448 1529 
Q 2069 2156 2228 2338 
Q 2531 2678 2651 2914 
Q 2772 3150 2772 3378 
Q 2772 3750 2511 3984 
Q 2250 4219 1831 4219 
Q 1534 4219 1204 4116 
Q 875 4013 500 3803 
L 500 4441 
Q 881 4594 1212 4672 
Q 1544 4750 1819 4750 
Q 2544 4750 2975 4387 
Q 3406 4025 3406 3419 
Q 3406 3131 3298 2873 
Q 3191 2616 2906 2266 
Q 2828 2175 2409 1742 
Q 1991 1309 1228 531 
z
" transform="scale(0.015625)"/>
        <path id="DejaVuSans-30" d="M 2034 4250 
Q 1547 4250 1301 3770 
Q 1056 3291 1056 2328 
Q 1056 1369 1301 889 
Q 1547 409 2034 409 
Q 2525 409 2770 889 
Q 3016 1369 3016 2328 
Q 3016 3291 2770 3770 
Q 2525 4250 2034 4250 
z
M 2034 4750 
Q 2819 4750 3233 4129 
Q 3647 3509 3647 2328 
Q 3647 1150 3233 529 
Q 2819 -91 2034 -91 
Q 1250 -91 836 529 
Q 422 1150 422 2328 
Q 422 3509 836 4129 
Q 1250 4750 2034 4750 
z
" transform="scale(0.015625)"/>
        <path id="DejaVuSans-2d" d="M 313 2009 
L 1997 2009 
L 1997 1497 
L 313 1497 
L 313 2009 
z
" transform="scale(0.015625)"/>
        <path id="DejaVuSans-36" d="M 2113 2584 
Q 1688 2584 1439 2293 
Q 1191 2003 1191 1497 
Q 1191 994 1439 701 
Q 1688 409 2113 409 
Q 2538 409 2786 701 
Q 3034 994 3034 1497 
Q 3034 2003 2786 2293 
Q 2538 2584 2113 2584 
z
M 3366 4563 
L 3366 3988 
Q 3128 4100 2886 4159 
Q 2644 4219 2406 4219 
Q 1781 4219 1451 3797 
Q 1122 3375 1075 2522 
Q 1259 2794 1537 2939 
Q 1816 3084 2150 3084 
Q 2853 3084 3261 2657 
Q 3669 2231 3669 1497 
Q 3669 778 3244 343 
Q 2819 -91 2113 -91 
Q 1303 -91 875 529 
Q 447 1150 447 2328 
Q 447 3434 972 4092 
Q 1497 4750 2381 4750 
Q 2619 4750 2861 4703 
Q 3103 4656 3366 4563 
z
" transform="scale(0.015625)"/>
        <path id="DejaVuSans-31" d="M 794 531 
L 1825 531 
L 1825 4091 
L 703 3866 
L 703 4441 
L 1819 4666 
L 2450 4666 
L 2450 531 
L 3481 531 
L 3481 0 
L 794 0 
L 794 531 
z
" transform="scale(0.015625)"/>
        <path id="DejaVuSans-35" d="M 691 4666 
L 3169 4666 
L 3169 4134 
L 1269 4134 
L 1269 2991 
Q 1406 3038 1543 3061 
Q 1681 3084 1819 3084 
Q 2600 3084 3056 2656 
Q 3513 2228 3513 1497 
Q 3513 744 3044 326 
Q 2575 -91 1722 -91 
Q 1428 -91 1123 -41 
Q 819 9 494 109 
L 494 744 
Q 775 591 1075 516 
Q 1375 441 1709 441 
Q 2250 441 2565 725 
Q 2881 1009 2881 1497 
Q 2881 1984 2565 2268 
Q 2250 2553 1709 2553 
Q 1456 2553 1204 2497 
Q 953 2441 691 2322 
L 691 4666 
z
" transform="scale(0.015625)"/>
       </defs>
       <use xlink:href="#DejaVuSans-32"/>
       <use xlink:href="#DejaVuSans-30" x="63.623047"/>
       <use xlink:href="#DejaVuSans-32" x="127.246094"/>
       <use xlink:href="#DejaVuSans-32" x="190.869141"/>
       <use xlink:href="#DejaVuSans-2d" x="254.492188"/>
       <use xlink:href="#DejaVuSans-30" x="290.576172"/>
       <use xlink:href="#DejaVuSans-36" x="354.199219"/>
       <use xlink:href="#DejaVuSans-2d" x="417.822266"/>
       <use xlink:href="#DejaVuSans-31" x="453.90625"/>
       <use xlink:href="#DejaVuSans-35" x="517.529297"/>
      </g>
     </g>
    </g>
    <g id="xtick_2">
     <g id="line2d_2">
      <g>
       <use xlink:href="#m5a03d0eff6" x="285.440937" y="320.4" style="stroke: #000000; stroke-width: 0.8"/>
      </g>
     </g>
     <g id="text_2">
      <!-- 2022-07-01 -->
      <g transform="translate(256.383125 334.998438) scale(0.1 -0.1)">
       <defs>
        <path id="DejaVuSans-37" d="M 525 4666 
L 3525 4666 
L 3525 4397 
L 1831 0 
L 1172 0 
L 2766 4134 
L 525 4134 
L 525 4666 
z
" transform="scale(0.015625)"/>
       </defs>
       <use xlink:href="#DejaVuSans-32"/>
       <use xlink:href="#DejaVuSans-30" x="63.623047"/>
       <use xlink:href="#DejaVuSans-32" x="127.246094"/>
       <use xlink:href="#DejaVuSans-32" x="190.869141"/>
       <use xlink:href="#DejaVuSans-2d" x="254.492188"/>
       <use xlink:href="#DejaVuSans-30" x="290.576172"/>
       <use xlink:href="#DejaVuSans-37" x="354.199219"/>
       <use xlink:href="#DejaVuSans-2d" x="417.822266"/>
       <use xlink:href="#DejaVuSans-30" x="453.90625"/>
       <use xlink:href="#DejaVuSans-31" x="517.529297"/>
      </g>
     </g>
    </g>
    <g id="xtick_3">
     <g id="line2d_3">
      <g>
       <use xlink:href="#m5a03d0eff6" x="383.443987" y="320.4" style="stroke: #000000; stroke-width: 0.8"/>
      </g>
     </g>
     <g id="text_3">
      <!-- 2022-07-15 -->
      <g transform="translate(354.386174 334.998438) scale(0.1 -0.1)">
       <use xlink:href="#DejaVuSans-32"/>
       <use xlink:href="#DejaVuSans-30" x="63.623047"/>
       <use xlink:href="#DejaVuSans-32" x="127.246094"/>
       <use xlink:href="#DejaVuSans-32" x="190.869141"/>
       <use xlink:href="#DejaVuSans-2d" x="254.492188"/>
       <use xlink:href="#DejaVuSans-30" x="290.576172"/>
       <use xlink:href="#DejaVuSans-37" x="354.199219"/>
       <use xlink:href="#DejaVuSans-2d" x="417.822266"/>
       <use xlink:href="#DejaVuSans-31" x="453.90625"/>
       <use xlink:href="#DejaVuSans-35" x="517.529297"/>
      </g>
     </g>
    </g>
    <g id="xtick_4">
     <g id="line2d_4">
      <g>
       <use xlink:href="#m5a03d0eff6" x="502.447689" y="320.4" style="stroke: #000000; stroke-width: 0.8"/>
      </g>
     </g>
     <g id="text_4">
      <!-- 2022-08-01 -->
      <g transform="translate(473.389877 334.998438) scale(0.1 -0.1)">
       <defs>
        <path id="DejaVuSans-38" d="M 2034 2216 
Q 1584 2216 1326 1975 
Q 1069 1734 1069 1313 
Q 1069 891 1326 650 
Q 1584 409 2034 409 
Q 2484 409 2743 651 
Q 3003 894 3003 1313 
Q 3003 1734 2745 1975 
Q 2488 2216 2034 2216 
z
M 1403 2484 
Q 997 2584 770 2862 
Q 544 3141 544 3541 
Q 544 4100 942 4425 
Q 1341 4750 2034 4750 
Q 2731 4750 3128 4425 
Q 3525 4100 3525 3541 
Q 3525 3141 3298 2862 
Q 3072 2584 2669 2484 
Q 3125 2378 3379 2068 
Q 3634 1759 3634 1313 
Q 3634 634 3220 271 
Q 2806 -91 2034 -91 
Q 1263 -91 848 271 
Q 434 634 434 1313 
Q 434 1759 690 2068 
Q 947 2378 1403 2484 
z
M 1172 3481 
Q 1172 3119 1398 2916 
Q 1625 2713 2034 2713 
Q 2441 2713 2670 2916 
Q 2900 3119 2900 3481 
Q 2900 3844 2670 4047 
Q 2441 4250 2034 4250 
Q 1625 4250 1398 4047 
Q 1172 3844 1172 3481 
z
" transform="scale(0.015625)"/>
       </defs>
       <use xlink:href="#DejaVuSans-32"/>
       <use xlink:href="#DejaVuSans-30" x="63.623047"/>
       <use xlink:href="#DejaVuSans-32" x="127.246094"/>
       <use xlink:href="#DejaVuSans-32" x="190.869141"/>
       <use xlink:href="#DejaVuSans-2d" x="254.492188"/>
       <use xlink:href="#DejaVuSans-30" x="290.576172"/>
       <use xlink:href="#DejaVuSans-38" x="354.199219"/>
       <use xlink:href="#DejaVuSans-2d" x="417.822266"/>
       <use xlink:href="#DejaVuSans-30" x="453.90625"/>
       <use xlink:href="#DejaVuSans-31" x="517.529297"/>
      </g>
     </g>
    </g>
    <g id="xtick_5">
     <g id="line2d_5">
      <g>
       <use xlink:href="#m5a03d0eff6" x="600.450738" y="320.4" style="stroke: #000000; stroke-width: 0.8"/>
      </g>
     </g>
     <g id="text_5">
      <!-- 2022-08-15 -->
      <g transform="translate(571.392926 334.998438) scale(0.1 -0.1)">
       <use xlink:href="#DejaVuSans-32"/>
       <use xlink:href="#DejaVuSans-30" x="63.623047"/>
       <use xlink:href="#DejaVuSans-32" x="127.246094"/>
       <use xlink:href="#DejaVuSans-32" x="190.869141"/>
       <use xlink:href="#DejaVuSans-2d" x="254.492188"/>
       <use xlink:href="#DejaVuSans-30" x="290.576172"/>
       <use xlink:href="#DejaVuSans-38" x="354.199219"/>
       <use xlink:href="#DejaVuSans-2d" x="417.822266"/>
       <use xlink:href="#DejaVuSans-31" x="453.90625"/>
       <use xlink:href="#DejaVuSans-35" x="517.529297"/>
      </g>
     </g>
    </g>
    <g id="xtick_6">
     <g id="line2d_6">
      <g>
       <use xlink:href="#m5a03d0eff6" x="719.454441" y="320.4" style="stroke: #000000; stroke-width: 0.8"/>
      </g>
     </g>
     <g id="text_6">
      <!-- 2022-09-01 -->
      <g transform="translate(690.396628 334.998438) scale(0.1 -0.1)">
       <defs>
        <path id="DejaVuSans-39" d="M 703 97 
L 703 672 
Q 941 559 1184 500 
Q 1428 441 1663 441 
Q 2288 441 2617 861 
Q 2947 1281 2994 2138 
Q 2813 1869 2534 1725 
Q 2256 1581 1919 1581 
Q 1219 1581 811 2004 
Q 403 2428 403 3163 
Q 403 3881 828 4315 
Q 1253 4750 1959 4750 
Q 2769 4750 3195 4129 
Q 3622 3509 3622 2328 
Q 3622 1225 3098 567 
Q 2575 -91 1691 -91 
Q 1453 -91 1209 -44 
Q 966 3 703 97 
z
M 1959 2075 
Q 2384 2075 2632 2365 
Q 2881 2656 2881 3163 
Q 2881 3666 2632 3958 
Q 2384 4250 1959 4250 
Q 1534 4250 1286 3958 
Q 1038 3666 1038 3163 
Q 1038 2656 1286 2365 
Q 1534 2075 1959 2075 
z
" transform="scale(0.015625)"/>
       </defs>
       <use xlink:href="#DejaVuSans-32"/>
       <use xlink:href="#DejaVuSans-30" x="63.623047"/>
       <use xlink:href="#DejaVuSans-32" x="127.246094"/>
       <use xlink:href="#DejaVuSans-32" x="190.869141"/>
       <use xlink:href="#DejaVuSans-2d" x="254.492188"/>
       <use xlink:href="#DejaVuSans-30" x="290.576172"/>
       <use xlink:href="#DejaVuSans-39" x="354.199219"/>
       <use xlink:href="#DejaVuSans-2d" x="417.822266"/>
       <use xlink:href="#DejaVuSans-30" x="453.90625"/>
       <use xlink:href="#DejaVuSans-31" x="517.529297"/>
      </g>
     </g>
    </g>
    <g id="text_7">
     <!-- TIME (DAYS) -->
     <g transform="translate(412.283594 348.676562) scale(0.1 -0.1)">
      <defs>
       <path id="DejaVuSans-54" d="M -19 4666 
L 3928 4666 
L 3928 4134 
L 2272 4134 
L 2272 0 
L 1638 0 
L 1638 4134 
L -19 4134 
L -19 4666 
z
" transform="scale(0.015625)"/>
       <path id="DejaVuSans-49" d="M 628 4666 
L 1259 4666 
L 1259 0 
L 628 0 
L 628 4666 
z
" transform="scale(0.015625)"/>
       <path id="DejaVuSans-4d" d="M 628 4666 
L 1569 4666 
L 2759 1491 
L 3956 4666 
L 4897 4666 
L 4897 0 
L 4281 0 
L 4281 4097 
L 3078 897 
L 2444 897 
L 1241 4097 
L 1241 0 
L 628 0 
L 628 4666 
z
" transform="scale(0.015625)"/>
       <path id="DejaVuSans-45" d="M 628 4666 
L 3578 4666 
L 3578 4134 
L 1259 4134 
L 1259 2753 
L 3481 2753 
L 3481 2222 
L 1259 2222 
L 1259 531 
L 3634 531 
L 3634 0 
L 628 0 
L 628 4666 
z
" transform="scale(0.015625)"/>
       <path id="DejaVuSans-20" transform="scale(0.015625)"/>
       <path id="DejaVuSans-28" d="M 1984 4856 
Q 1566 4138 1362 3434 
Q 1159 2731 1159 2009 
Q 1159 1288 1364 580 
Q 1569 -128 1984 -844 
L 1484 -844 
Q 1016 -109 783 600 
Q 550 1309 550 2009 
Q 550 2706 781 3412 
Q 1013 4119 1484 4856 
L 1984 4856 
z
" transform="scale(0.015625)"/>
       <path id="DejaVuSans-44" d="M 1259 4147 
L 1259 519 
L 2022 519 
Q 2988 519 3436 956 
Q 3884 1394 3884 2338 
Q 3884 3275 3436 3711 
Q 2988 4147 2022 4147 
L 1259 4147 
z
M 628 4666 
L 1925 4666 
Q 3281 4666 3915 4102 
Q 4550 3538 4550 2338 
Q 4550 1131 3912 565 
Q 3275 0 1925 0 
L 628 0 
L 628 4666 
z
" transform="scale(0.015625)"/>
       <path id="DejaVuSans-41" d="M 2188 4044 
L 1331 1722 
L 3047 1722 
L 2188 4044 
z
M 1831 4666 
L 2547 4666 
L 4325 0 
L 3669 0 
L 3244 1197 
L 1141 1197 
L 716 0 
L 50 0 
L 1831 4666 
z
" transform="scale(0.015625)"/>
       <path id="DejaVuSans-59" d="M -13 4666 
L 666 4666 
L 1959 2747 
L 3244 4666 
L 3922 4666 
L 2272 2222 
L 2272 0 
L 1638 0 
L 1638 2222 
L -13 4666 
z
" transform="scale(0.015625)"/>
       <path id="DejaVuSans-53" d="M 3425 4513 
L 3425 3897 
Q 3066 4069 2747 4153 
Q 2428 4238 2131 4238 
Q 1616 4238 1336 4038 
Q 1056 3838 1056 3469 
Q 1056 3159 1242 3001 
Q 1428 2844 1947 2747 
L 2328 2669 
Q 3034 2534 3370 2195 
Q 3706 1856 3706 1288 
Q 3706 609 3251 259 
Q 2797 -91 1919 -91 
Q 1588 -91 1214 -16 
Q 841 59 441 206 
L 441 856 
Q 825 641 1194 531 
Q 1563 422 1919 422 
Q 2459 422 2753 634 
Q 3047 847 3047 1241 
Q 3047 1584 2836 1778 
Q 2625 1972 2144 2069 
L 1759 2144 
Q 1053 2284 737 2584 
Q 422 2884 422 3419 
Q 422 4038 858 4394 
Q 1294 4750 2059 4750 
Q 2388 4750 2728 4690 
Q 3069 4631 3425 4513 
z
" transform="scale(0.015625)"/>
       <path id="DejaVuSans-29" d="M 513 4856 
L 1013 4856 
Q 1481 4119 1714 3412 
Q 1947 2706 1947 2009 
Q 1947 1309 1714 600 
Q 1481 -109 1013 -844 
L 513 -844 
Q 928 -128 1133 580 
Q 1338 1288 1338 2009 
Q 1338 2731 1133 3434 
Q 928 4138 513 4856 
z
" transform="scale(0.015625)"/>
      </defs>
      <use xlink:href="#DejaVuSans-54"/>
      <use xlink:href="#DejaVuSans-49" x="61.083984"/>
      <use xlink:href="#DejaVuSans-4d" x="90.576172"/>
      <use xlink:href="#DejaVuSans-45" x="176.855469"/>
      <use xlink:href="#DejaVuSans-20" x="240.039062"/>
      <use xlink:href="#DejaVuSans-28" x="271.826172"/>
      <use xlink:href="#DejaVuSans-44" x="310.839844"/>
      <use xlink:href="#DejaVuSans-41" x="386.091797"/>
      <use xlink:href="#DejaVuSans-59" x="446.75"/>
      <use xlink:href="#DejaVuSans-53" x="507.833984"/>
      <use xlink:href="#DejaVuSans-29" x="571.310547"/>
     </g>
    </g>
   </g>
   <g id="matplotlib.axis_2">
    <g id="ytick_1">
     <g id="line2d_7">
      <defs>
       <path id="m8c15ce0866" d="M 0 0 
L -3.5 0 
" style="stroke: #000000; stroke-width: 0.8"/>
      </defs>
      <g>
       <use xlink:href="#m8c15ce0866" x="108" y="307.8" style="stroke: #000000; stroke-width: 0.8"/>
      </g>
     </g>
     <g id="text_8">
      <!-- 0.0 -->
      <g transform="translate(85.096875 311.599219) scale(0.1 -0.1)">
       <defs>
        <path id="DejaVuSans-2e" d="M 684 794 
L 1344 794 
L 1344 0 
L 684 0 
L 684 794 
z
" transform="scale(0.015625)"/>
       </defs>
       <use xlink:href="#DejaVuSans-30"/>
       <use xlink:href="#DejaVuSans-2e" x="63.623047"/>
       <use xlink:href="#DejaVuSans-30" x="95.410156"/>
      </g>
     </g>
    </g>
    <g id="ytick_2">
     <g id="line2d_8">
      <g>
       <use xlink:href="#m8c15ce0866" x="108" y="257.4" style="stroke: #000000; stroke-width: 0.8"/>
      </g>
     </g>
     <g id="text_9">
      <!-- 0.2 -->
      <g transform="translate(85.096875 261.199219) scale(0.1 -0.1)">
       <use xlink:href="#DejaVuSans-30"/>
       <use xlink:href="#DejaVuSans-2e" x="63.623047"/>
       <use xlink:href="#DejaVuSans-32" x="95.410156"/>
      </g>
     </g>
    </g>
    <g id="ytick_3">
     <g id="line2d_9">
      <g>
       <use xlink:href="#m8c15ce0866" x="108" y="207" style="stroke: #000000; stroke-width: 0.8"/>
      </g>
     </g>
     <g id="text_10">
      <!-- 0.4 -->
      <g transform="translate(85.096875 210.799219) scale(0.1 -0.1)">
       <defs>
        <path id="DejaVuSans-34" d="M 2419 4116 
L 825 1625 
L 2419 1625 
L 2419 4116 
z
M 2253 4666 
L 3047 4666 
L 3047 1625 
L 3713 1625 
L 3713 1100 
L 3047 1100 
L 3047 0 
L 2419 0 
L 2419 1100 
L 313 1100 
L 313 1709 
L 2253 4666 
z
" transform="scale(0.015625)"/>
       </defs>
       <use xlink:href="#DejaVuSans-30"/>
       <use xlink:href="#DejaVuSans-2e" x="63.623047"/>
       <use xlink:href="#DejaVuSans-34" x="95.410156"/>
      </g>
     </g>
    </g>
    <g id="ytick_4">
     <g id="line2d_10">
      <g>
       <use xlink:href="#m8c15ce0866" x="108" y="156.6" style="stroke: #000000; stroke-width: 0.8"/>
      </g>
     </g>
     <g id="text_11">
      <!-- 0.6 -->
      <g transform="translate(85.096875 160.399219) scale(0.1 -0.1)">
       <use xlink:href="#DejaVuSans-30"/>
       <use xlink:href="#DejaVuSans-2e" x="63.623047"/>
       <use xlink:href="#DejaVuSans-36" x="95.410156"/>
      </g>
     </g>
    </g>
    <g id="ytick_5">
     <g id="line2d_11">
      <g>
       <use xlink:href="#m8c15ce0866" x="108" y="106.2" style="stroke: #000000; stroke-width: 0.8"/>
      </g>
     </g>
     <g id="text_12">
      <!-- 0.8 -->
      <g transform="translate(85.096875 109.999219) scale(0.1 -0.1)">
       <use xlink:href="#DejaVuSans-30"/>
       <use xlink:href="#DejaVuSans-2e" x="63.623047"/>
       <use xlink:href="#DejaVuSans-38" x="95.410156"/>
      </g>
     </g>
    </g>
    <g id="ytick_6">
     <g id="line2d_12">
      <g>
       <use xlink:href="#m8c15ce0866" x="108" y="55.8" style="stroke: #000000; stroke-width: 0.8"/>
      </g>
     </g>
     <g id="text_13">
      <!-- 1.0 -->
      <g transform="translate(85.096875 59.599219) scale(0.1 -0.1)">
       <use xlink:href="#DejaVuSans-31"/>
       <use xlink:href="#DejaVuSans-2e" x="63.623047"/>
       <use xlink:href="#DejaVuSans-30" x="95.410156"/>
      </g>
     </g>
    </g>
    <g id="text_14">
     <!-- VISITS -->
     <g transform="translate(79.017187 197.572656) rotate(-90) scale(0.1 -0.1)">
      <defs>
       <path id="DejaVuSans-56" d="M 1831 0 
L 50 4666 
L 709 4666 
L 2188 738 
L 3669 4666 
L 4325 4666 
L 2547 0 
L 1831 0 
z
" transform="scale(0.015625)"/>
      </defs>
      <use xlink:href="#DejaVuSans-56"/>
      <use xlink:href="#DejaVuSans-49" x="68.408203"/>
      <use xlink:href="#DejaVuSans-53" x="97.900391"/>
      <use xlink:href="#DejaVuSans-49" x="161.376953"/>
      <use xlink:href="#DejaVuSans-54" x="190.869141"/>
      <use xlink:href="#DejaVuSans-53" x="251.953125"/>
     </g>
    </g>
   </g>
   <g id="line2d_13">
    <path d="M 138.436364 144.741176 
L 138.728039 204.035294 
L 139.019715 307.8 
L 139.311391 307.8 
L 139.894742 278.152941 
L 140.186418 218.858824 
L 140.478094 263.329412 
L 140.76977 278.152941 
L 141.061445 307.8 
L 141.353121 307.8 
L 141.644797 248.505882 
L 142.228148 70.623529 
L 142.519824 100.270588 
L 142.8115 204.035294 
L 143.103176 248.505882 
L 143.394851 204.035294 
L 143.686527 218.858824 
L 143.978203 189.211765 
L 144.269878 174.388235 
L 144.561554 70.623529 
L 144.85323 55.8 
L 145.144906 129.917647 
L 145.436581 253.8 
L 145.728257 307.8 
L 146.311609 271.8 
L 146.603284 217.8 
L 146.89496 253.8 
L 147.186636 217.8 
L 147.478312 307.8 
L 147.769987 235.8 
L 148.061663 253.8 
L 148.353339 217.8 
L 148.645015 217.8 
L 149.228366 55.8 
L 149.520042 91.8 
L 149.811718 163.8 
L 150.103393 199.8 
L 150.395069 217.8 
L 150.686745 217.8 
L 150.978421 181.8 
L 151.270096 73.8 
L 151.561772 73.8 
L 151.853448 91.8 
L 152.436799 220.147826 
L 152.728475 274.930435 
L 153.020151 307.8 
L 153.311826 285.886957 
L 153.603502 274.930435 
L 153.895178 285.886957 
L 154.186854 307.8 
L 154.478529 274.930435 
L 154.770205 274.930435 
L 155.061881 263.973913 
L 155.353557 296.843478 
L 155.936908 88.669565 
L 156.228584 55.8 
L 156.811935 143.452174 
L 157.103611 143.452174 
L 157.395287 176.321739 
L 157.686963 143.452174 
L 157.978638 143.452174 
L 158.270314 77.713043 
L 158.56199 121.53913 
L 158.853666 99.626087 
L 159.145341 209.191304 
L 159.728693 276.3 
L 160.020369 276.3 
L 160.312044 255.3 
L 160.60372 286.8 
L 160.895396 213.3 
L 161.187071 223.8 
L 161.478747 223.8 
L 161.770423 297.3 
L 162.062099 307.8 
L 162.353774 286.8 
L 162.937126 97.8 
L 163.228802 55.8 
L 164.103829 160.8 
L 164.395505 234.3 
L 164.978856 255.3 
L 165.562208 139.8 
L 165.853883 118.8 
L 166.145559 150.3 
L 166.437235 242.06087 
L 166.728911 285.886957 
L 167.020586 307.8 
L 167.312262 274.930435 
L 167.603938 274.930435 
L 168.187289 296.843478 
L 168.770641 296.843478 
L 169.062317 307.8 
L 169.353992 296.843478 
L 170.229019 88.669565 
L 170.520695 99.626087 
L 170.812371 143.452174 
L 171.104047 132.495652 
L 171.395722 110.582609 
L 171.687398 121.53913 
L 172.27075 198.234783 
L 172.562425 176.321739 
L 173.145777 55.8 
L 173.437453 129.556098 
L 173.729128 55.8 
L 174.020804 68.092683 
L 174.31248 129.556098 
L 174.604156 252.482927 
L 174.895831 301.653659 
L 175.479183 289.360976 
L 175.770859 289.360976 
L 176.062534 301.653659 
L 176.35421 307.8 
L 176.645886 215.604878 
L 177.229237 147.995122 
L 177.520913 209.458537 
L 177.812589 191.019512 
L 178.104264 221.75122 
L 178.39594 234.043902 
L 178.687616 295.507317 
L 178.979292 301.653659 
L 179.270967 277.068293 
L 179.854319 147.995122 
L 180.145995 160.287805 
L 180.43767 139.8 
L 180.729346 244.8 
L 181.021022 297.3 
L 181.312698 297.3 
L 181.604373 307.8 
L 181.896049 307.8 
L 182.187725 244.8 
L 182.771076 244.8 
L 183.062752 286.8 
L 183.354428 286.8 
L 183.646104 171.3 
L 184.229455 87.3 
L 184.521131 202.8 
L 184.812807 181.8 
L 185.104482 213.3 
L 185.396158 150.3 
L 185.687834 234.3 
L 185.97951 244.8 
L 186.271185 234.3 
L 186.562861 118.8 
L 186.854537 55.8 
L 187.146212 97.8 
L 187.437888 166.05 
L 187.729564 260.55 
L 188.02124 307.8 
L 190.354646 307.8 
L 190.937997 134.55 
L 191.229673 71.55 
L 191.521349 134.55 
L 192.1047 55.8 
L 192.396376 71.55 
L 192.688052 181.8 
L 192.979727 244.8 
L 193.854755 55.8 
L 194.14643 87.3 
L 194.729782 201.694737 
L 195.021458 228.221053 
L 195.604809 294.536842 
L 195.896485 307.8 
L 196.18816 307.8 
L 196.479836 268.010526 
L 196.771512 254.747368 
L 197.063188 254.747368 
L 197.354863 294.536842 
L 197.646539 201.694737 
L 197.938215 161.905263 
L 198.229891 82.326316 
L 198.521566 122.115789 
L 198.813242 95.589474 
L 199.104918 122.115789 
L 199.688269 228.221053 
L 199.979945 241.484211 
L 200.563297 108.852632 
L 200.854972 69.063158 
L 201.146648 55.8 
L 201.438324 85.447059 
L 202.021675 233.682353 
L 202.313351 263.329412 
L 202.605027 278.152941 
L 202.896703 307.8 
L 203.188378 307.8 
L 203.77173 278.152941 
L 204.355081 278.152941 
L 204.938433 70.623529 
L 205.230108 55.8 
L 205.81346 159.564706 
L 206.105136 159.564706 
L 206.396811 144.741176 
L 206.688487 218.858824 
L 206.980163 248.505882 
L 207.271839 263.329412 
L 207.85519 115.094118 
L 208.146866 144.741176 
L 208.730217 270 
L 209.313569 295.2 
L 209.605245 282.6 
L 209.89692 282.6 
L 210.188596 257.4 
L 210.771948 257.4 
L 211.063623 282.6 
L 211.355299 257.4 
L 211.938651 93.6 
L 212.230326 81 
L 212.522002 55.8 
L 212.813678 93.6 
L 213.105353 55.8 
L 213.397029 118.8 
L 213.688705 156.6 
L 213.980381 257.4 
L 214.272056 307.8 
L 215.147084 106.2 
L 215.438759 148.642105 
L 216.022111 294.536842 
L 216.313787 307.8 
L 216.605462 281.273684 
L 216.897138 281.273684 
L 217.48049 307.8 
L 218.063841 307.8 
L 218.938868 55.8 
L 219.230544 95.589474 
L 219.52222 82.326316 
L 220.105571 135.378947 
L 220.397247 135.378947 
L 221.272274 268.010526 
L 221.56395 201.694737 
L 222.147301 148.642105 
L 222.730653 251.8 
L 223.022329 293.8 
L 223.314004 307.8 
L 223.60568 265.8 
L 223.897356 251.8 
L 224.189032 251.8 
L 224.480707 279.8 
L 224.772383 279.8 
L 225.064059 265.8 
L 225.939086 125.8 
L 226.230762 55.8 
L 226.522438 83.8 
L 226.814113 55.8 
L 227.105789 139.8 
L 227.397465 125.8 
L 227.689141 195.8 
L 227.980816 223.8 
L 228.272492 209.8 
L 228.564168 139.8 
L 228.855844 111.8 
L 229.147519 139.8 
L 229.439195 235.8 
L 230.022546 307.8 
L 230.314222 307.8 
L 230.605898 247.8 
L 231.189249 247.8 
L 231.480925 271.8 
L 231.772601 271.8 
L 232.355952 223.8 
L 232.647628 163.8 
L 232.939304 151.8 
L 233.23098 187.8 
L 233.522655 163.8 
L 234.397683 67.8 
L 234.689358 55.8 
L 234.981034 79.8 
L 235.27271 127.8 
L 235.564386 127.8 
L 235.856061 91.8 
L 236.731089 291 
L 237.022764 307.8 
L 237.31444 307.8 
L 237.606116 223.8 
L 237.897792 173.4 
L 238.189467 173.4 
L 238.481143 190.2 
L 238.772819 240.6 
L 239.064494 240.6 
L 239.35617 223.8 
L 239.939522 106.2 
L 240.231197 123 
L 240.522873 123 
L 240.814549 55.8 
L 241.106225 89.4 
L 241.3979 156.6 
L 241.689576 156.6 
L 241.981252 106.2 
L 242.272928 106.2 
L 242.564603 156.6 
L 242.856279 173.4 
L 243.147955 123 
L 243.439631 214.957895 
L 244.022982 307.8 
L 244.314658 254.747368 
L 244.898009 254.747368 
L 245.189685 281.273684 
L 245.481361 268.010526 
L 245.773037 268.010526 
L 246.064712 281.273684 
L 246.356388 254.747368 
L 246.648064 214.957895 
L 246.93974 135.378947 
L 247.231415 108.852632 
L 247.523091 55.8 
L 247.814767 135.378947 
L 248.106442 161.905263 
L 248.398118 241.484211 
L 248.689794 175.168421 
L 248.98147 201.694737 
L 249.564821 201.694737 
L 249.856497 161.905263 
L 250.148173 161.905263 
L 250.731524 291 
L 251.0232 307.8 
L 251.606551 307.8 
L 251.898227 274.2 
L 252.189903 173.4 
L 252.481579 173.4 
L 252.773254 207 
L 253.06493 274.2 
L 253.356606 207 
L 253.648282 89.4 
L 253.939957 55.8 
L 254.231633 55.8 
L 254.523309 89.4 
L 254.814985 89.4 
L 255.690012 223.8 
L 256.273363 89.4 
L 256.565039 123 
L 257.14839 223.8 
L 257.440066 244.8 
L 258.023418 307.8 
L 258.315093 244.8 
L 258.606769 229.05 
L 258.898445 229.05 
L 259.190121 292.05 
L 259.481796 229.05 
L 259.773472 229.05 
L 260.065148 197.55 
L 260.356824 229.05 
L 260.648499 197.55 
L 261.523527 71.55 
L 261.815202 87.3 
L 262.106878 150.3 
L 262.398554 150.3 
L 262.69023 197.55 
L 262.981905 213.3 
L 263.273581 181.8 
L 263.565257 71.55 
L 263.856933 55.8 
L 264.148608 134.55 
L 264.440284 265.8 
L 264.73196 286.8 
L 265.023635 244.8 
L 265.315311 223.8 
L 265.606987 223.8 
L 265.898663 307.8 
L 266.190338 244.8 
L 266.77369 244.8 
L 267.065366 286.8 
L 267.357041 139.8 
L 267.940393 55.8 
L 268.232069 139.8 
L 268.523744 97.8 
L 268.81542 118.8 
L 269.107096 97.8 
L 269.398772 97.8 
L 269.690447 139.8 
L 269.982123 139.8 
L 270.273799 118.8 
L 270.565475 76.8 
L 270.85715 97.8 
L 271.732178 274.2 
L 272.023853 307.8 
L 273.482232 307.8 
L 274.357259 139.8 
L 274.648935 156.6 
L 274.940611 156.6 
L 275.232286 173.4 
L 275.523962 156.6 
L 275.815638 106.2 
L 276.107314 123 
L 276.398989 173.4 
L 276.690665 190.2 
L 276.982341 139.8 
L 277.274017 55.8 
L 277.565692 89.4 
L 277.857368 106.2 
L 278.149044 190.2 
L 278.44072 210.876923 
L 278.732395 307.8 
L 279.607423 307.8 
L 279.899098 210.876923 
L 280.48245 210.876923 
L 280.774126 307.8 
L 281.065801 249.646154 
L 281.357477 152.723077 
L 281.649153 94.569231 
L 281.940829 113.953846 
L 282.232504 172.107692 
L 282.815856 55.8 
L 283.107531 55.8 
L 283.690883 249.646154 
L 283.982559 191.492308 
L 284.274234 94.569231 
L 284.56591 55.8 
L 285.440937 289.8 
L 285.732613 307.8 
L 286.024289 307.8 
L 286.315965 199.8 
L 286.60764 181.8 
L 286.899316 181.8 
L 287.190992 289.8 
L 287.482668 307.8 
L 287.774343 307.8 
L 288.066019 253.8 
L 288.357695 163.8 
L 288.649371 145.8 
L 288.941046 73.8 
L 289.524398 109.8 
L 289.816074 91.8 
L 290.107749 145.8 
L 290.399425 109.8 
L 290.691101 163.8 
L 291.274452 55.8 
L 291.566128 73.8 
L 292.149479 199.8 
L 292.441155 274.2 
L 293.024507 307.8 
L 293.316182 307.8 
L 293.607858 257.4 
L 293.899534 240.6 
L 294.19121 240.6 
L 294.482885 291 
L 294.774561 307.8 
L 295.066237 291 
L 295.357913 173.4 
L 295.649588 139.8 
L 295.941264 123 
L 296.23294 139.8 
L 296.524616 89.4 
L 297.107967 55.8 
L 297.399643 139.8 
L 297.691319 190.2 
L 297.982994 274.2 
L 298.566346 106.2 
L 298.858022 106.2 
L 299.441373 294.876923 
L 299.733049 307.8 
L 300.024724 307.8 
L 300.3164 294.876923 
L 300.608076 294.876923 
L 300.899752 288.415385 
L 301.191427 301.338462 
L 301.483103 301.338462 
L 301.774779 307.8 
L 302.35813 256.107692 
L 302.649806 256.107692 
L 302.941482 269.030769 
L 303.233158 256.107692 
L 303.816509 81.646154 
L 304.108185 55.8 
L 304.399861 88.107692 
L 304.691536 152.723077 
L 305.566564 172.107692 
L 306.149915 230.261538 
L 306.441591 239.072727 
L 306.733267 284.890909 
L 307.024942 307.8 
L 307.608294 307.8 
L 307.89997 284.890909 
L 308.483321 284.890909 
L 308.774997 307.8 
L 309.066672 307.8 
L 309.650024 250.527273 
L 309.9417 239.072727 
L 310.525051 158.890909 
L 310.816727 101.618182 
L 311.108403 67.254545 
L 311.400078 113.072727 
L 311.691754 135.981818 
L 311.98343 124.527273 
L 312.275106 78.709091 
L 312.566781 55.8 
L 312.858457 135.981818 
L 313.150133 158.890909 
L 313.733484 237.8 
L 314.02516 293.8 
L 314.316836 307.8 
L 315.483539 307.8 
L 315.775215 293.8 
L 316.06689 307.8 
L 316.650242 223.8 
L 316.941917 209.8 
L 317.233593 223.8 
L 317.525269 195.8 
L 318.10862 69.8 
L 318.400296 69.8 
L 318.691972 111.8 
L 318.983648 69.8 
L 319.275323 111.8 
L 319.566999 55.8 
L 319.858675 153.8 
L 320.150351 139.8 
L 320.442026 255.662069 
L 320.733702 273.041379 
L 321.025378 299.110345 
L 322.483757 299.110345 
L 322.775432 307.8 
L 323.067108 307.8 
L 323.358784 264.351724 
L 323.942135 229.593103 
L 324.233811 229.593103 
L 324.525487 168.765517 
L 324.817163 186.144828 
L 325.108838 194.834483 
L 325.400514 229.593103 
L 325.69219 186.144828 
L 325.983865 203.524138 
L 326.275541 186.144828 
L 326.567217 81.868966 
L 326.858893 55.8 
L 327.150568 116.627586 
L 327.442244 264.351724 
L 327.73392 307.8 
L 328.317271 307.8 
L 328.608947 299.110345 
L 328.900623 273.041379 
L 329.192299 273.041379 
L 329.483974 281.731034 
L 329.77565 307.8 
L 330.067326 307.8 
L 330.650677 229.593103 
L 330.942353 229.593103 
L 331.234029 186.144828 
L 331.81738 186.144828 
L 332.109056 220.903448 
L 332.400732 220.903448 
L 332.692408 212.213793 
L 332.984083 255.662069 
L 333.567435 142.696552 
L 333.859111 55.8 
L 334.150786 151.386207 
L 334.442462 181.8 
L 334.734138 307.8 
L 335.317489 307.8 
L 335.609165 282.6 
L 336.192516 282.6 
L 336.484192 307.8 
L 337.067544 307.8 
L 337.359219 257.4 
L 337.650895 232.2 
L 337.942571 156.6 
L 338.234247 181.8 
L 338.525922 169.2 
L 338.817598 207 
L 339.109274 144 
L 339.40095 156.6 
L 339.692625 181.8 
L 339.984301 257.4 
L 340.275977 194.4 
L 340.567653 106.2 
L 340.859328 55.8 
L 341.151004 106.2 
L 341.734356 268.010526 
L 342.026031 307.8 
L 342.317707 228.221053 
L 342.609383 228.221053 
L 342.901059 214.957895 
L 343.192734 294.536842 
L 343.48441 294.536842 
L 343.776086 268.010526 
L 344.067761 268.010526 
L 344.359437 241.484211 
L 344.651113 228.221053 
L 344.942789 175.168421 
L 345.234464 201.694737 
L 345.52614 148.642105 
L 345.817816 161.905263 
L 346.109492 135.378947 
L 346.401167 148.642105 
L 346.692843 148.642105 
L 346.984519 175.168421 
L 347.276195 175.168421 
L 347.56787 148.642105 
L 347.859546 55.8 
L 348.734573 271.8 
L 349.026249 283.8 
L 349.317925 307.8 
L 351.067979 307.8 
L 351.359655 235.8 
L 351.651331 223.8 
L 351.943006 187.8 
L 352.234682 199.8 
L 352.526358 163.8 
L 352.818034 55.8 
L 353.109709 115.8 
L 353.401385 127.8 
L 353.693061 259.8 
L 353.984737 259.8 
L 354.859764 79.8 
L 355.443115 232.2 
L 355.734791 295.2 
L 356.026467 307.8 
L 357.484846 307.8 
L 357.776521 295.2 
L 358.068197 295.2 
L 358.359873 244.8 
L 358.651549 232.2 
L 358.943224 181.8 
L 359.2349 156.6 
L 359.526576 144 
L 359.818252 156.6 
L 360.401603 156.6 
L 360.984954 244.8 
L 361.568306 131.4 
L 361.859982 55.8 
L 362.151657 118.8 
L 362.443333 144.741176 
L 362.735009 263.329412 
L 363.026685 292.976471 
L 363.31836 307.8 
L 363.610036 278.152941 
L 364.193388 278.152941 
L 364.485063 218.858824 
L 365.068415 218.858824 
L 365.360091 292.976471 
L 365.651766 263.329412 
L 365.943442 204.035294 
L 366.235118 189.211765 
L 366.526794 129.917647 
L 366.818469 100.270588 
L 367.110145 55.8 
L 367.693497 218.858824 
L 367.985172 233.682353 
L 368.276848 204.035294 
L 368.568524 129.917647 
L 368.8602 85.447059 
L 369.151875 85.447059 
L 369.443551 220.569231 
L 369.735227 288.415385 
L 370.026902 307.8 
L 370.318578 278.723077 
L 370.90193 278.723077 
L 371.193605 307.8 
L 372.068633 307.8 
L 372.651984 259.338462 
L 372.94366 259.338462 
L 373.527011 181.8 
L 373.818687 113.953846 
L 374.110363 75.184615 
L 374.402039 55.8 
L 374.693714 113.953846 
L 374.98539 220.569231 
L 375.277066 249.646154 
L 375.860417 104.261538 
L 376.152093 123.646154 
L 376.735445 276.3 
L 377.02712 307.8 
L 377.318796 307.8 
L 377.610472 265.8 
L 378.193823 265.8 
L 378.485499 297.3 
L 378.777175 276.3 
L 379.06885 276.3 
L 379.360526 255.3 
L 379.652202 265.8 
L 380.235553 213.3 
L 380.527229 108.3 
L 380.818905 55.8 
L 381.110581 66.3 
L 381.693932 244.8 
L 381.985608 276.3 
L 382.277284 265.8 
L 382.860635 76.8 
L 383.152311 87.3 
L 383.735662 296.843478 
L 384.027338 296.843478 
L 384.319014 285.886957 
L 384.61069 285.886957 
L 385.194041 307.8 
L 385.485717 307.8 
L 385.777393 296.843478 
L 386.069068 296.843478 
L 386.360744 285.886957 
L 386.65242 285.886957 
L 387.819123 55.8 
L 388.110798 55.8 
L 388.402474 88.669565 
L 388.985826 231.104348 
L 389.569177 209.191304 
L 389.860853 165.365217 
L 390.152529 187.278261 
L 390.444204 223.8 
L 390.73588 283.8 
L 391.027556 307.8 
L 391.319232 283.8 
L 391.902583 283.8 
L 392.194259 307.8 
L 393.069286 307.8 
L 393.360962 259.8 
L 393.652638 247.8 
L 394.235989 199.8 
L 394.527665 163.8 
L 395.111016 55.8 
L 395.402692 91.8 
L 395.694368 163.8 
L 395.986043 199.8 
L 396.277719 139.8 
L 396.569395 103.8 
L 397.152746 211.8 
L 397.444422 213.3 
L 397.736098 213.3 
L 398.027774 229.05 
L 398.319449 260.55 
L 398.611125 307.8 
L 398.902801 307.8 
L 399.194477 260.55 
L 399.777828 260.55 
L 400.069504 307.8 
L 400.652855 244.8 
L 400.944531 166.05 
L 401.236207 134.55 
L 401.527883 87.3 
L 401.819558 103.05 
L 402.111234 103.05 
L 402.40291 87.3 
L 402.694586 87.3 
L 402.986261 118.8 
L 403.277937 166.05 
L 403.569613 134.55 
L 403.861288 55.8 
L 404.152964 87.3 
L 404.736316 292.05 
L 405.027991 307.8 
L 405.319667 307.8 
L 405.611343 292.05 
L 406.194694 292.05 
L 406.48637 307.8 
L 406.778046 260.55 
L 407.069722 276.3 
L 407.361397 260.55 
L 407.653073 260.55 
L 407.944749 181.8 
L 408.236425 150.3 
L 408.5281 134.55 
L 408.819776 103.05 
L 409.111452 55.8 
L 409.403128 55.8 
L 409.986479 134.55 
L 410.278155 134.55 
L 410.861506 71.55 
L 411.153182 87.3 
L 411.736534 260.55 
L 412.611561 260.55 
L 412.903236 307.8 
L 413.194912 307.8 
L 413.486588 260.55 
L 414.069939 260.55 
L 414.361615 307.8 
L 414.653291 229.05 
L 415.236642 134.55 
L 415.528318 166.05 
L 416.11167 103.05 
L 416.986697 197.55 
L 417.278373 55.8 
L 417.570048 71.55 
L 417.861724 55.8 
L 418.1534 213.3 
L 418.445076 241.484211 
L 418.736751 281.273684 
L 419.028427 281.273684 
L 419.320103 294.536842 
L 420.19513 294.536842 
L 420.486806 307.8 
L 420.778482 307.8 
L 421.070157 281.273684 
L 421.361833 175.168421 
L 421.653509 122.115789 
L 421.945184 108.852632 
L 422.23686 175.168421 
L 422.528536 161.905263 
L 422.820212 69.063158 
L 423.111887 55.8 
L 423.403563 69.063158 
L 423.695239 161.905263 
L 423.986915 135.378947 
L 424.27859 82.326316 
L 424.570266 82.326316 
L 424.861942 135.378947 
L 425.153618 241.484211 
L 425.445293 276.3 
L 425.736969 297.3 
L 426.028645 297.3 
L 426.320321 265.8 
L 426.903672 265.8 
L 427.195348 307.8 
L 427.778699 307.8 
L 428.070375 297.3 
L 428.653727 171.3 
L 428.945402 150.3 
L 429.528754 192.3 
L 429.820429 171.3 
L 430.112105 192.3 
L 430.403781 223.8 
L 430.695457 223.8 
L 431.278808 160.8 
L 431.570484 87.3 
L 431.86216 55.8 
L 432.445511 55.8 
L 433.028863 148.642105 
L 433.612214 294.536842 
L 433.90389 294.536842 
L 434.195566 307.8 
L 434.487241 307.8 
L 434.778917 294.536842 
L 435.362269 228.221053 
L 435.653944 228.221053 
L 435.94562 201.694737 
L 436.237296 188.431579 
L 436.528972 122.115789 
L 437.403999 228.221053 
L 437.695675 214.957895 
L 437.98735 161.905263 
L 438.279026 82.326316 
L 438.570702 82.326316 
L 438.862377 55.8 
L 439.445729 237.24 
L 439.737405 307.8 
L 440.02908 297.72 
L 440.320756 297.72 
L 440.612432 287.64 
L 440.904108 307.8 
L 441.779135 307.8 
L 442.362486 257.4 
L 442.654162 247.32 
L 442.945838 247.32 
L 443.237514 207 
L 443.820865 186.84 
L 444.112541 237.24 
L 444.404217 196.92 
L 444.695892 207 
L 444.987568 156.6 
L 445.279244 136.44 
L 445.57092 55.8 
L 445.862595 96.12 
L 446.445947 240.6 
L 447.029298 240.6 
L 447.320974 257.4 
L 447.61265 291 
L 448.196001 291 
L 448.487677 307.8 
L 448.779353 307.8 
L 449.65438 55.8 
L 449.946056 106.2 
L 450.237731 106.2 
L 450.529407 123 
L 450.821083 72.6 
L 451.112759 72.6 
L 451.404434 139.8 
L 451.987786 173.4 
L 452.279462 123 
L 452.571137 139.8 
L 452.862813 173.4 
L 453.73784 307.8 
L 454.321192 254.747368 
L 454.612868 241.484211 
L 454.904543 254.747368 
L 455.196219 281.273684 
L 455.779571 307.8 
L 456.071246 241.484211 
L 456.362922 214.957895 
L 456.654598 148.642105 
L 456.946273 161.905263 
L 457.237949 55.8 
L 457.529625 82.326316 
L 457.821301 95.589474 
L 458.112976 201.694737 
L 458.404652 241.484211 
L 458.988004 148.642105 
L 459.279679 82.326316 
L 459.571355 122.115789 
L 460.154707 254.747368 
L 460.446382 307.8 
L 460.738058 263.329412 
L 461.029734 278.152941 
L 461.32141 278.152941 
L 461.613085 292.976471 
L 461.904761 292.976471 
L 462.196437 278.152941 
L 462.488113 307.8 
L 462.779788 307.8 
L 463.071464 233.682353 
L 463.36314 218.858824 
L 463.654816 159.564706 
L 463.946491 159.564706 
L 464.529843 55.8 
L 465.113194 85.447059 
L 465.40487 204.035294 
L 465.696546 204.035294 
L 465.988221 100.270588 
L 466.279897 55.8 
L 466.571573 100.270588 
L 466.863249 248.505882 
L 467.154924 292.976471 
L 467.4466 296.345455 
L 467.738276 273.436364 
L 468.029952 273.436364 
L 468.321627 284.890909 
L 468.613303 307.8 
L 468.904979 307.8 
L 469.196655 296.345455 
L 469.48833 296.345455 
L 470.071682 216.163636 
L 470.363358 216.163636 
L 470.655033 193.254545 
L 470.946709 193.254545 
L 471.238385 124.527273 
L 471.530061 101.618182 
L 471.821736 55.8 
L 472.405088 193.254545 
L 472.696764 227.618182 
L 473.280115 147.436364 
L 474.155142 284.890909 
L 474.446818 307.8 
L 474.738494 292.05 
L 475.030169 292.05 
L 475.321845 276.3 
L 475.613521 292.05 
L 475.905197 292.05 
L 476.196872 307.8 
L 476.488548 307.8 
L 476.780224 244.8 
L 477.0719 213.3 
L 477.363575 150.3 
L 477.655251 166.05 
L 477.946927 118.8 
L 478.238603 166.05 
L 478.530278 55.8 
L 478.821954 103.05 
L 479.11363 87.3 
L 479.405306 181.8 
L 479.696981 166.05 
L 479.988657 103.05 
L 480.280333 103.05 
L 480.572009 150.3 
L 480.863684 244.8 
L 481.15536 134.55 
L 481.447036 139.8 
L 481.738712 139.8 
L 482.030387 274.2 
L 482.322063 257.4 
L 482.905414 257.4 
L 483.19709 274.2 
L 483.780442 274.2 
L 484.072117 257.4 
L 484.655469 156.6 
L 484.947145 156.6 
L 485.23882 123 
L 485.530496 156.6 
L 485.822172 123 
L 486.113848 173.4 
L 486.405523 139.8 
L 486.697199 139.8 
L 486.988875 55.8 
L 487.280551 123 
L 487.572226 156.6 
L 487.863902 274.2 
L 488.155578 307.8 
L 488.447254 307.8 
L 489.030605 181.8 
L 489.322281 181.8 
L 489.905632 307.8 
L 490.197308 307.8 
L 491.072335 91.8 
L 491.364011 145.8 
L 491.655687 163.8 
L 491.947362 145.8 
L 492.239038 109.8 
L 492.82239 145.8 
L 493.114065 145.8 
L 493.405741 91.8 
L 493.989093 55.8 
L 494.572444 181.8 
L 494.86412 217.8 
L 495.155796 235.8 
L 495.447471 278.152941 
L 495.739147 292.976471 
L 496.030823 292.976471 
L 496.322499 278.152941 
L 496.614174 292.976471 
L 496.90585 278.152941 
L 497.197526 278.152941 
L 497.489202 218.858824 
L 497.780877 189.211765 
L 498.364229 115.094118 
L 498.655905 129.917647 
L 498.94758 174.388235 
L 499.530932 144.741176 
L 499.822607 55.8 
L 500.405959 129.917647 
L 500.697635 144.741176 
L 500.98931 85.447059 
L 501.280986 70.623529 
L 501.864338 278.152941 
L 502.156013 307.8 
L 502.447689 251.8 
L 502.739365 265.8 
L 503.031041 251.8 
L 503.322716 293.8 
L 503.614392 293.8 
L 503.906068 307.8 
L 504.197744 307.8 
L 504.489419 209.8 
L 504.781095 181.8 
L 505.072771 167.8 
L 505.364447 209.8 
L 505.656122 209.8 
L 505.947798 125.8 
L 506.239474 111.8 
L 506.53115 55.8 
L 506.822825 139.8 
L 507.114501 139.8 
L 507.406177 181.8 
L 507.697853 153.8 
L 508.57288 237.8 
L 508.864555 279.8 
L 509.156231 251.8 
L 509.447907 276.3 
L 509.739583 260.55 
L 510.031258 292.05 
L 510.61461 292.05 
L 510.906286 307.8 
L 511.197961 292.05 
L 511.781313 181.8 
L 512.072989 181.8 
L 512.364664 197.55 
L 512.65634 166.05 
L 512.948016 118.8 
L 513.239692 150.3 
L 513.531367 71.55 
L 513.823043 71.55 
L 514.114719 55.8 
L 514.406395 197.55 
L 514.69807 229.05 
L 514.989746 181.8 
L 515.281422 181.8 
L 515.573098 213.3 
L 515.864773 292.05 
L 516.156449 307.8 
L 516.448125 240.6 
L 516.7398 240.6 
L 517.031476 190.2 
L 517.323152 257.4 
L 517.614828 240.6 
L 517.906503 307.8 
L 518.198179 274.2 
L 518.781531 190.2 
L 519.073206 156.6 
L 519.364882 173.4 
L 519.656558 123 
L 519.948234 106.2 
L 520.239909 55.8 
L 521.114937 207 
L 521.406612 156.6 
L 521.698288 139.8 
L 521.989964 89.4 
L 522.28164 139.8 
L 522.573315 89.4 
L 522.864991 190.2 
L 523.156667 223.8 
L 523.448343 307.8 
L 523.740018 307.8 
L 524.031694 292.976471 
L 524.32337 307.8 
L 524.615046 307.8 
L 524.906721 292.976471 
L 525.490073 189.211765 
L 525.781748 174.388235 
L 526.073424 204.035294 
L 526.3651 204.035294 
L 526.656776 144.741176 
L 527.240127 115.094118 
L 527.531803 204.035294 
L 527.823479 218.858824 
L 528.115154 218.858824 
L 528.40683 144.741176 
L 528.990182 55.8 
L 529.865209 307.8 
L 530.156885 292.976471 
L 530.44856 265.8 
L 530.740236 265.8 
L 531.323588 307.8 
L 531.615263 307.8 
L 532.198615 265.8 
L 532.781966 118.8 
L 533.073642 160.8 
L 533.365318 160.8 
L 533.656994 223.8 
L 533.948669 118.8 
L 534.240345 139.8 
L 534.532021 118.8 
L 534.823696 244.8 
L 535.115372 202.8 
L 535.698724 55.8 
L 535.990399 97.8 
L 536.573751 244.8 
L 536.865427 307.8 
L 537.157102 286.8 
L 537.448778 307.8 
L 537.740454 239.072727 
L 538.03213 284.890909 
L 538.323805 239.072727 
L 538.615481 284.890909 
L 538.907157 284.890909 
L 539.198833 239.072727 
L 539.490508 147.436364 
L 539.782184 101.618182 
L 540.07386 124.527273 
L 540.657211 124.527273 
L 540.948887 147.436364 
L 541.240563 193.254545 
L 541.532239 216.163636 
L 541.823914 216.163636 
L 542.11559 239.072727 
L 542.407266 124.527273 
L 542.698941 55.8 
L 542.990617 78.709091 
L 543.573969 261.981818 
L 544.15732 307.8 
L 544.740672 307.8 
L 545.032347 269.030769 
L 545.615699 269.030769 
L 545.907375 288.415385 
L 546.490726 113.953846 
L 546.782402 94.569231 
L 547.074078 152.723077 
L 547.365753 152.723077 
L 547.657429 75.184615 
L 547.949105 55.8 
L 548.240781 113.953846 
L 548.532456 133.338462 
L 549.115808 133.338462 
L 549.407484 152.723077 
L 549.699159 94.569231 
L 549.990835 133.338462 
L 550.574187 307.8 
L 550.865862 288.415385 
L 551.157538 249.646154 
L 551.449214 239.072727 
L 551.740889 239.072727 
L 552.032565 284.890909 
L 552.324241 261.981818 
L 552.907592 307.8 
L 553.199268 170.345455 
L 553.490944 147.436364 
L 553.78262 55.8 
L 554.074295 170.345455 
L 554.657647 78.709091 
L 554.949323 78.709091 
L 555.240998 101.618182 
L 555.532674 147.436364 
L 555.82435 147.436364 
L 556.116026 124.527273 
L 556.407701 124.527273 
L 556.699377 55.8 
L 557.574404 284.890909 
L 558.157756 284.890909 
L 558.449432 286.8 
L 558.741107 286.8 
L 559.032783 265.8 
L 559.324459 307.8 
L 559.616135 265.8 
L 559.90781 265.8 
L 560.199486 160.8 
L 560.491162 160.8 
L 560.782837 139.8 
L 561.074513 139.8 
L 561.366189 55.8 
L 561.94954 97.8 
L 562.532892 97.8 
L 562.824568 139.8 
L 563.116243 223.8 
L 563.407919 160.8 
L 563.699595 139.8 
L 563.991271 139.8 
L 564.574622 265.8 
L 564.866298 286.8 
L 565.157974 265.8 
L 565.741325 292.976471 
L 566.033001 307.8 
L 566.324677 278.152941 
L 566.908028 278.152941 
L 567.49138 174.388235 
L 567.783055 115.094118 
L 568.074731 144.741176 
L 568.366407 129.917647 
L 568.658083 55.8 
L 568.949758 55.8 
L 569.241434 70.623529 
L 569.53311 204.035294 
L 569.824785 189.211765 
L 570.116461 129.917647 
L 570.699813 129.917647 
L 570.991488 248.505882 
L 571.283164 248.505882 
L 571.57484 307.8 
L 571.866516 278.152941 
L 572.158191 292.976471 
L 572.449867 292.05 
L 572.741543 307.8 
L 573.033219 260.55 
L 573.61657 260.55 
L 573.908246 292.05 
L 574.199922 260.55 
L 575.366625 87.3 
L 575.6583 103.05 
L 575.949976 166.05 
L 576.241652 197.55 
L 576.533328 197.55 
L 576.825003 55.8 
L 577.408355 55.8 
L 577.991706 213.3 
L 578.283382 260.55 
L 578.575058 276.3 
L 579.158409 244.8 
L 579.450085 213.3 
L 580.033436 244.8 
L 580.325112 307.8 
L 580.616788 276.3 
L 581.200139 197.55 
L 581.491815 213.3 
L 581.783491 118.8 
L 582.075167 134.55 
L 582.366842 55.8 
L 582.658518 150.3 
L 582.950194 166.05 
L 583.24187 260.55 
L 583.533545 244.8 
L 584.116897 134.55 
L 584.408573 150.3 
L 584.700248 134.55 
L 585.2836 244.8 
L 585.575276 292.05 
L 585.866951 244.8 
L 586.158627 244.8 
L 586.450303 260.55 
L 586.741978 307.8 
L 587.033654 260.55 
L 587.908681 260.55 
L 588.200357 134.55 
L 588.492033 71.55 
L 588.783709 71.55 
L 589.36706 134.55 
L 589.658736 55.8 
L 589.950412 134.55 
L 590.242087 150.3 
L 590.533763 197.55 
L 590.825439 197.55 
L 591.117115 150.3 
L 591.40879 166.05 
L 591.700466 166.05 
L 592.283818 276.3 
L 592.575493 307.8 
L 592.867169 307.8 
L 593.158845 292.05 
L 593.450521 307.8 
L 593.742196 289.8 
L 594.033872 307.8 
L 594.325548 271.8 
L 594.617224 289.8 
L 595.492251 91.8 
L 595.783926 55.8 
L 596.075602 91.8 
L 596.658954 91.8 
L 597.533981 235.8 
L 597.825657 199.8 
L 598.117332 145.8 
L 598.99236 289.8 
L 599.284035 307.8 
L 599.575711 307.8 
L 599.867387 235.8 
L 600.159063 253.8 
L 600.450738 257.4 
L 600.742414 291 
L 601.325766 291 
L 601.617441 307.8 
L 601.909117 173.4 
L 602.200793 139.8 
L 602.492469 123 
L 602.784144 156.6 
L 603.367496 55.8 
L 603.659171 72.6 
L 604.242523 240.6 
L 604.534199 257.4 
L 604.825874 156.6 
L 605.11755 139.8 
L 605.409226 139.8 
L 605.700902 207 
L 606.575929 257.4 
L 606.867605 173.4 
L 607.15928 190.2 
L 607.742632 307.8 
L 608.325983 307.8 
L 608.617659 278.152941 
L 609.201011 129.917647 
L 609.492686 55.8 
L 609.784362 144.741176 
L 610.076038 174.388235 
L 610.367714 248.505882 
L 610.951065 85.447059 
L 611.242741 115.094118 
L 611.826092 307.8 
L 612.409444 233.682353 
L 612.701119 248.505882 
L 612.992795 292.976471 
L 613.284471 307.8 
L 613.576147 307.8 
L 613.867822 263.329412 
L 614.451174 235.8 
L 615.034525 307.8 
L 615.326201 253.8 
L 615.617877 271.8 
L 615.909553 109.8 
L 616.201228 109.8 
L 616.492904 73.8 
L 616.78458 199.8 
L 617.659607 91.8 
L 617.951283 109.8 
L 618.242959 181.8 
L 618.534634 199.8 
L 619.117986 55.8 
L 619.409662 55.8 
L 619.993013 271.8 
L 620.284689 307.8 
L 620.576365 235.8 
L 620.86804 217.8 
L 621.159716 235.8 
L 621.451392 266.776744 
L 621.743067 260.916279 
L 622.034743 260.916279 
L 622.326419 296.07907 
L 622.90977 225.753488 
L 623.201446 219.893023 
L 623.493122 255.055814 
L 623.784798 255.055814 
L 624.076473 249.195349 
L 624.659825 208.172093 
L 624.951501 219.893023 
L 625.243176 243.334884 
L 625.534852 290.218605 
L 625.826528 272.637209 
L 626.118204 243.334884 
L 626.409879 243.334884 
L 626.701555 266.776744 
L 626.993231 301.939535 
L 627.284907 307.8 
L 627.576582 284.35814 
L 627.868258 208.172093 
L 628.159934 55.8 
L 628.45161 55.8 
L 628.743285 91.8 
L 629.326637 244.8 
L 629.618312 226.8 
L 629.909988 235.8 
L 630.201664 226.8 
L 630.49334 253.8 
L 630.785015 253.8 
L 631.076691 262.8 
L 631.368367 231.3 
L 631.660043 235.8 
L 631.951718 231.3 
L 632.243394 280.8 
L 632.53507 298.8 
L 633.410097 249.3 
L 633.993449 298.8 
L 634.285124 285.3 
L 634.5768 280.8 
L 634.868476 280.8 
L 635.160152 307.8 
L 635.451827 257.4 
L 636.035179 257.4 
L 636.326855 307.8 
L 636.61853 232.2 
L 636.910206 198.6 
L 637.201882 190.2 
L 637.493558 232.2 
L 637.785233 198.6 
L 638.076909 198.6 
L 638.368585 215.4 
L 638.66026 223.8 
L 639.243612 165 
L 639.535288 173.4 
L 639.826963 139.8 
L 640.118639 55.8 
L 640.410315 72.6 
L 640.993666 232.2 
L 641.285342 265.8 
L 641.577018 265.8 
L 641.868694 299.4 
L 642.160369 299.4 
L 642.452045 295.2 
L 642.743721 244.8 
L 643.035397 232.2 
L 643.327072 232.2 
L 643.618748 207 
L 643.910424 144 
L 644.493775 93.6 
L 644.785451 169.2 
L 645.077127 106.2 
L 645.368803 118.8 
L 645.952154 118.8 
L 646.24383 156.6 
L 646.535506 106.2 
L 646.827181 181.8 
L 647.118857 68.4 
L 647.410533 68.4 
L 647.702208 55.8 
L 647.993884 232.2 
L 648.577236 295.2 
L 648.868911 295.2 
L 649.160587 307.8 
L 649.452263 237.8 
L 649.743939 223.8 
L 650.035614 195.8 
L 650.32729 251.8 
L 650.618966 167.8 
L 651.202317 83.8 
L 651.493993 97.8 
L 651.785669 139.8 
L 652.077345 153.8 
L 652.36902 209.8 
L 652.660696 167.8 
L 652.952372 195.8 
L 653.535723 139.8 
L 653.827399 55.8 
L 654.119075 55.8 
L 654.410751 153.8 
L 654.702426 125.8 
L 654.994102 181.8 
L 655.285778 181.8 
L 655.577454 307.8 
L 655.869129 279.8 
L 656.160805 223.8 
L 656.452481 209.8 
L 656.744156 237.8 
L 657.035832 279.8 
L 657.327508 279.8 
L 657.619184 125.8 
L 657.910859 111.8 
L 658.202535 55.8 
L 658.494211 181.8 
L 658.785887 181.8 
L 659.077562 223.8 
L 659.369238 139.8 
L 659.660914 125.8 
L 659.95259 125.8 
L 660.244265 209.8 
L 660.827617 125.8 
L 661.119293 55.8 
L 661.99432 307.8 
L 662.285996 265.8 
L 662.577671 251.8 
L 663.161023 251.8 
L 663.452699 271.8 
L 663.744374 271.8 
L 664.03605 307.8 
L 664.327726 295.8 
L 664.911077 151.8 
L 665.202753 115.8 
L 665.494429 187.8 
L 665.786104 211.8 
L 666.07778 247.8 
L 666.369456 163.8 
L 666.661132 151.8 
L 666.952807 175.8 
L 667.244483 247.8 
L 667.536159 271.8 
L 667.827835 187.8 
L 668.11951 55.8 
L 668.411186 91.8 
L 668.702862 163.8 
L 668.994538 307.8 
L 669.286213 307.8 
L 669.577889 295.8 
L 670.161241 295.8 
L 670.452916 280.8 
L 671.327944 280.8 
L 671.619619 208.8 
L 671.911295 190.8 
L 672.202971 199.8 
L 672.494647 253.8 
L 672.786322 208.8 
L 673.077998 208.8 
L 673.369674 163.8 
L 673.661349 145.8 
L 673.953025 55.8 
L 674.828052 235.8 
L 675.119728 136.8 
L 675.411404 145.8 
L 675.70308 199.8 
L 675.994755 298.8 
L 676.578107 298.8 
L 676.869783 307.8 
L 677.161458 307.8 
L 677.74481 253.017391 
L 678.036486 253.017391 
L 678.328161 285.886957 
L 678.619837 209.191304 
L 678.911513 165.365217 
L 679.203189 154.408696 
L 679.494864 187.278261 
L 679.78654 154.408696 
L 680.078216 88.669565 
L 680.369892 55.8 
L 681.244919 285.886957 
L 681.536595 285.886957 
L 681.82827 176.321739 
L 682.119946 121.53913 
L 682.411622 88.669565 
L 682.703297 132.495652 
L 682.994973 154.408696 
L 683.286649 187.278261 
L 683.578325 274.930435 
L 683.87 307.8 
L 684.161676 296.843478 
L 684.453352 307.8 
L 684.745028 292.976471 
L 685.036703 307.8 
L 685.328379 248.505882 
L 685.620055 263.329412 
L 685.911731 248.505882 
L 686.495082 189.211765 
L 686.786758 144.741176 
L 687.078434 189.211765 
L 687.661785 115.094118 
L 687.953461 85.447059 
L 688.536812 233.682353 
L 688.828488 204.035294 
L 689.120164 100.270588 
L 689.41184 55.8 
L 689.703515 159.564706 
L 690.286867 248.505882 
L 690.578542 144.741176 
L 691.161894 204.035294 
L 691.45357 295.2 
L 691.745245 307.8 
L 692.036921 282.6 
L 692.620273 257.4 
L 692.911948 257.4 
L 693.203624 244.8 
L 693.4953 219.6 
L 693.786976 232.2 
L 694.370327 181.8 
L 694.662003 93.6 
L 694.953679 81 
L 695.245354 106.2 
L 695.53703 68.4 
L 695.828706 55.8 
L 696.120382 81 
L 696.412057 181.8 
L 696.995409 118.8 
L 697.287085 131.4 
L 697.57876 232.2 
L 697.870436 282.6 
L 698.162112 282.6 
L 698.453788 244.8 
L 698.745463 244.8 
L 699.037139 181.8 
L 699.328815 213.3 
L 699.62049 181.8 
L 699.912166 229.05 
L 700.203842 244.8 
L 700.787193 307.8 
L 701.078869 307.8 
L 701.953896 55.8 
L 702.245572 71.55 
L 702.537248 103.05 
L 703.703951 166.05 
L 703.995627 150.3 
L 704.287302 118.8 
L 705.16233 260.55 
L 705.454005 278.152941 
L 705.745681 248.505882 
L 706.037357 248.505882 
L 706.329033 189.211765 
L 706.620708 218.858824 
L 706.912384 233.682353 
L 707.495736 307.8 
L 707.787411 85.447059 
L 708.079087 100.270588 
L 708.370763 70.623529 
L 708.662438 144.741176 
L 708.954114 129.917647 
L 709.24579 70.623529 
L 709.537466 174.388235 
L 709.829141 70.623529 
L 710.120817 159.564706 
L 710.412493 189.211765 
L 710.704169 292.976471 
L 711.28752 70.623529 
L 711.579196 55.8 
L 711.870872 159.564706 
L 712.162547 218.858824 
L 712.454223 229.05 
L 712.745899 229.05 
L 713.037575 307.8 
L 713.32925 244.8 
L 713.912602 213.3 
L 714.204278 292.05 
L 714.495953 307.8 
L 714.787629 244.8 
L 715.370981 244.8 
L 715.662656 229.05 
L 716.246008 87.3 
L 716.537683 118.8 
L 716.829359 55.8 
L 717.412711 118.8 
L 717.704386 181.8 
L 717.996062 181.8 
L 718.287738 134.55 
L 718.579414 166.05 
L 718.871089 181.8 
L 719.162765 181.8 
L 719.746117 251.8 
L 720.621144 251.8 
L 720.91282 307.8 
L 721.496171 279.8 
L 722.079523 307.8 
L 722.371198 293.8 
L 722.95455 167.8 
L 723.246226 125.8 
L 723.537901 181.8 
L 724.121253 83.8 
L 724.412929 55.8 
L 724.704604 125.8 
L 724.99628 153.8 
L 725.287956 97.8 
L 725.579631 69.8 
L 726.454659 307.8 
L 727.329686 307.8 
L 727.621362 248.505882 
L 728.204713 248.505882 
L 728.496389 307.8 
L 728.788065 292.976471 
L 729.07974 263.329412 
L 729.371416 263.329412 
L 730.829795 55.8 
L 731.121471 70.623529 
L 731.704822 204.035294 
L 731.996498 233.682353 
L 732.579849 100.270588 
L 732.871525 70.623529 
L 733.163201 144.741176 
L 733.454877 263.329412 
L 733.746552 292.976471 
L 734.329904 292.976471 
L 734.621579 307.8 
L 734.913255 307.8 
L 735.204931 233.682353 
L 735.788282 233.682353 
L 736.079958 292.976471 
L 736.371634 278.152941 
L 736.66331 189.211765 
L 737.246661 100.270588 
L 737.538337 115.094118 
L 737.830013 100.270588 
L 738.413364 129.917647 
L 738.70504 159.564706 
L 738.996716 204.035294 
L 739.288391 129.917647 
L 739.580067 100.270588 
L 739.871743 55.8 
L 740.163419 115.094118 
L 740.455094 123 
L 741.038446 257.4 
L 741.330122 274.2 
L 741.621797 257.4 
L 741.913473 274.2 
L 742.205149 257.4 
L 742.496824 274.2 
L 742.7885 240.6 
L 743.080176 307.8 
L 743.371852 307.8 
L 743.663527 274.2 
L 743.955203 156.6 
L 744.246879 123 
L 744.538555 55.8 
L 744.83023 89.4 
L 745.121906 55.8 
L 745.413582 139.8 
L 745.705258 123 
L 745.996933 156.6 
L 746.288609 156.6 
L 746.580285 139.8 
L 746.871961 72.6 
L 747.163636 106.2 
L 747.163636 106.2 
" clip-path="url(#pcfb0c40210)" style="fill: none; stroke: #191970; stroke-width: 2; stroke-linecap: square"/>
   </g>
   <g id="patch_3">
    <path d="M 108 320.4 
L 108 43.2 
" style="fill: none; stroke: #000000; stroke-width: 0.8; stroke-linejoin: miter; stroke-linecap: square"/>
   </g>
   <g id="patch_4">
    <path d="M 777.6 320.4 
L 777.6 43.2 
" style="fill: none; stroke: #000000; stroke-width: 0.8; stroke-linejoin: miter; stroke-linecap: square"/>
   </g>
   <g id="patch_5">
    <path d="M 108 320.4 
L 777.6 320.4 
" style="fill: none; stroke: #000000; stroke-width: 0.8; stroke-linejoin: miter; stroke-linecap: square"/>
   </g>
   <g id="patch_6">
    <path d="M 108 43.2 
L 777.6 43.2 
" style="fill: none; stroke: #000000; stroke-width: 0.8; stroke-linejoin: miter; stroke-linecap: square"/>
   </g>
   <g id="text_15">
    <!-- Time Series -->
    <g transform="translate(407.760938 37.2) scale(0.12 -0.12)">
     <defs>
      <path id="DejaVuSans-69" d="M 603 3500 
L 1178 3500 
L 1178 0 
L 603 0 
L 603 3500 
z
M 603 4863 
L 1178 4863 
L 1178 4134 
L 603 4134 
L 603 4863 
z
" transform="scale(0.015625)"/>
      <path id="DejaVuSans-6d" d="M 3328 2828 
Q 3544 3216 3844 3400 
Q 4144 3584 4550 3584 
Q 5097 3584 5394 3201 
Q 5691 2819 5691 2113 
L 5691 0 
L 5113 0 
L 5113 2094 
Q 5113 2597 4934 2840 
Q 4756 3084 4391 3084 
Q 3944 3084 3684 2787 
Q 3425 2491 3425 1978 
L 3425 0 
L 2847 0 
L 2847 2094 
Q 2847 2600 2669 2842 
Q 2491 3084 2119 3084 
Q 1678 3084 1418 2786 
Q 1159 2488 1159 1978 
L 1159 0 
L 581 0 
L 581 3500 
L 1159 3500 
L 1159 2956 
Q 1356 3278 1631 3431 
Q 1906 3584 2284 3584 
Q 2666 3584 2933 3390 
Q 3200 3197 3328 2828 
z
" transform="scale(0.015625)"/>
      <path id="DejaVuSans-65" d="M 3597 1894 
L 3597 1613 
L 953 1613 
Q 991 1019 1311 708 
Q 1631 397 2203 397 
Q 2534 397 2845 478 
Q 3156 559 3463 722 
L 3463 178 
Q 3153 47 2828 -22 
Q 2503 -91 2169 -91 
Q 1331 -91 842 396 
Q 353 884 353 1716 
Q 353 2575 817 3079 
Q 1281 3584 2069 3584 
Q 2775 3584 3186 3129 
Q 3597 2675 3597 1894 
z
M 3022 2063 
Q 3016 2534 2758 2815 
Q 2500 3097 2075 3097 
Q 1594 3097 1305 2825 
Q 1016 2553 972 2059 
L 3022 2063 
z
" transform="scale(0.015625)"/>
      <path id="DejaVuSans-72" d="M 2631 2963 
Q 2534 3019 2420 3045 
Q 2306 3072 2169 3072 
Q 1681 3072 1420 2755 
Q 1159 2438 1159 1844 
L 1159 0 
L 581 0 
L 581 3500 
L 1159 3500 
L 1159 2956 
Q 1341 3275 1631 3429 
Q 1922 3584 2338 3584 
Q 2397 3584 2469 3576 
Q 2541 3569 2628 3553 
L 2631 2963 
z
" transform="scale(0.015625)"/>
      <path id="DejaVuSans-73" d="M 2834 3397 
L 2834 2853 
Q 2591 2978 2328 3040 
Q 2066 3103 1784 3103 
Q 1356 3103 1142 2972 
Q 928 2841 928 2578 
Q 928 2378 1081 2264 
Q 1234 2150 1697 2047 
L 1894 2003 
Q 2506 1872 2764 1633 
Q 3022 1394 3022 966 
Q 3022 478 2636 193 
Q 2250 -91 1575 -91 
Q 1294 -91 989 -36 
Q 684 19 347 128 
L 347 722 
Q 666 556 975 473 
Q 1284 391 1588 391 
Q 1994 391 2212 530 
Q 2431 669 2431 922 
Q 2431 1156 2273 1281 
Q 2116 1406 1581 1522 
L 1381 1569 
Q 847 1681 609 1914 
Q 372 2147 372 2553 
Q 372 3047 722 3315 
Q 1072 3584 1716 3584 
Q 2034 3584 2315 3537 
Q 2597 3491 2834 3397 
z
" transform="scale(0.015625)"/>
     </defs>
     <use xlink:href="#DejaVuSans-54"/>
     <use xlink:href="#DejaVuSans-69" x="57.958984"/>
     <use xlink:href="#DejaVuSans-6d" x="85.742188"/>
     <use xlink:href="#DejaVuSans-65" x="183.154297"/>
     <use xlink:href="#DejaVuSans-20" x="244.677734"/>
     <use xlink:href="#DejaVuSans-53" x="276.464844"/>
     <use xlink:href="#DejaVuSans-65" x="339.941406"/>
     <use xlink:href="#DejaVuSans-72" x="401.464844"/>
     <use xlink:href="#DejaVuSans-69" x="442.578125"/>
     <use xlink:href="#DejaVuSans-65" x="470.361328"/>
     <use xlink:href="#DejaVuSans-73" x="531.884766"/>
    </g>
   </g>
  </g>
 </g>
 <defs>
  <clipPath id="pcfb0c40210">
   <rect x="108" y="43.2" width="669.6" height="277.2"/>
  </clipPath>
 </defs>
</svg>
