<?xml version="1.0" encoding="utf-8" standalone="no"?>
<!DOCTYPE svg PUBLIC "-//W3C//DTD SVG 1.1//EN"
  "http://www.w3.org/Graphics/SVG/1.1/DTD/svg11.dtd">
<svg xmlns:xlink="http://www.w3.org/1999/xlink" width="504pt" height="504pt" viewBox="0 0 504 504" xmlns="http://www.w3.org/2000/svg" version="1.1">
 <metadata>
  <rdf:RDF xmlns:dc="http://purl.org/dc/elements/1.1/" xmlns:cc="http://creativecommons.org/ns#" xmlns:rdf="http://www.w3.org/1999/02/22-rdf-syntax-ns#">
   <cc:Work>
    <dc:type rdf:resource="http://purl.org/dc/dcmitype/StillImage"/>
    <dc:date>2023-08-03T16:50:46.995620</dc:date>
    <dc:format>image/svg+xml</dc:format>
    <dc:creator>
     <cc:Agent>
      <dc:title>Matplotlib v3.7.1, https://matplotlib.org/</dc:title>
     </cc:Agent>
    </dc:creator>
   </cc:Work>
  </rdf:RDF>
 </metadata>
 <defs>
  <style type="text/css">*{stroke-linejoin: round; stroke-linecap: butt}</style>
 </defs>
 <g id="figure_1">
  <g id="patch_1">
   <path d="M 0 504 
L 504 504 
L 504 0 
L 0 0 
z
" style="fill: #ffffff"/>
  </g>
  <g id="axes_1">
   <g id="patch_2">
    <path d="M 50.902 164.293333 
L 264.901 164.293333 
L 264.901 54.672 
L 50.902 54.672 
z
" style="fill: #ffffff"/>
   </g>
   <g id="matplotlib.axis_1">
    <g id="xtick_1">
     <g id="line2d_1">
      <defs>
       <path id="m0812f42bf3" d="M 0 0 
L 0 3.5 
" style="stroke: #000000; stroke-width: 0.8"/>
      </defs>
      <g>
       <use xlink:href="#m0812f42bf3" x="52.170769" y="164.293333" style="stroke: #000000; stroke-width: 0.8"/>
      </g>
     </g>
    </g>
    <g id="xtick_2">
     <g id="line2d_2">
      <g>
       <use xlink:href="#m0812f42bf3" x="94.463061" y="164.293333" style="stroke: #000000; stroke-width: 0.8"/>
      </g>
     </g>
    </g>
    <g id="xtick_3">
     <g id="line2d_3">
      <g>
       <use xlink:href="#m0812f42bf3" x="136.755354" y="164.293333" style="stroke: #000000; stroke-width: 0.8"/>
      </g>
     </g>
    </g>
    <g id="xtick_4">
     <g id="line2d_4">
      <g>
       <use xlink:href="#m0812f42bf3" x="179.047646" y="164.293333" style="stroke: #000000; stroke-width: 0.8"/>
      </g>
     </g>
    </g>
    <g id="xtick_5">
     <g id="line2d_5">
      <g>
       <use xlink:href="#m0812f42bf3" x="221.339939" y="164.293333" style="stroke: #000000; stroke-width: 0.8"/>
      </g>
     </g>
    </g>
    <g id="xtick_6">
     <g id="line2d_6">
      <g>
       <use xlink:href="#m0812f42bf3" x="263.632231" y="164.293333" style="stroke: #000000; stroke-width: 0.8"/>
      </g>
     </g>
    </g>
   </g>
   <g id="matplotlib.axis_2">
    <g id="ytick_1">
     <g id="line2d_7">
      <defs>
       <path id="md004bc0ebf" d="M 0 0 
L -3.5 0 
" style="stroke: #000000; stroke-width: 0.8"/>
      </defs>
      <g>
       <use xlink:href="#md004bc0ebf" x="50.902" y="159.310556" style="stroke: #000000; stroke-width: 0.8"/>
      </g>
     </g>
     <g id="text_1">
      <!-- 0 -->
      <g transform="translate(37.5395 163.109775) scale(0.1 -0.1)">
       <defs>
        <path id="DejaVuSans-30" d="M 2034 4250 
Q 1547 4250 1301 3770 
Q 1056 3291 1056 2328 
Q 1056 1369 1301 889 
Q 1547 409 2034 409 
Q 2525 409 2770 889 
Q 3016 1369 3016 2328 
Q 3016 3291 2770 3770 
Q 2525 4250 2034 4250 
z
M 2034 4750 
Q 2819 4750 3233 4129 
Q 3647 3509 3647 2328 
Q 3647 1150 3233 529 
Q 2819 -91 2034 -91 
Q 1250 -91 836 529 
Q 422 1150 422 2328 
Q 422 3509 836 4129 
Q 1250 4750 2034 4750 
z
" transform="scale(0.015625)"/>
       </defs>
       <use xlink:href="#DejaVuSans-30"/>
      </g>
     </g>
    </g>
    <g id="ytick_2">
     <g id="line2d_8">
      <g>
       <use xlink:href="#md004bc0ebf" x="50.902" y="132.324335" style="stroke: #000000; stroke-width: 0.8"/>
      </g>
     </g>
     <g id="text_2">
      <!-- 2 -->
      <g transform="translate(37.5395 136.123553) scale(0.1 -0.1)">
       <defs>
        <path id="DejaVuSans-32" d="M 1228 531 
L 3431 531 
L 3431 0 
L 469 0 
L 469 531 
Q 828 903 1448 1529 
Q 2069 2156 2228 2338 
Q 2531 2678 2651 2914 
Q 2772 3150 2772 3378 
Q 2772 3750 2511 3984 
Q 2250 4219 1831 4219 
Q 1534 4219 1204 4116 
Q 875 4013 500 3803 
L 500 4441 
Q 881 4594 1212 4672 
Q 1544 4750 1819 4750 
Q 2544 4750 2975 4387 
Q 3406 4025 3406 3419 
Q 3406 3131 3298 2873 
Q 3191 2616 2906 2266 
Q 2828 2175 2409 1742 
Q 1991 1309 1228 531 
z
" transform="scale(0.015625)"/>
       </defs>
       <use xlink:href="#DejaVuSans-32"/>
      </g>
     </g>
    </g>
    <g id="ytick_3">
     <g id="line2d_9">
      <g>
       <use xlink:href="#md004bc0ebf" x="50.902" y="105.338113" style="stroke: #000000; stroke-width: 0.8"/>
      </g>
     </g>
     <g id="text_3">
      <!-- 4 -->
      <g transform="translate(37.5395 109.137332) scale(0.1 -0.1)">
       <defs>
        <path id="DejaVuSans-34" d="M 2419 4116 
L 825 1625 
L 2419 1625 
L 2419 4116 
z
M 2253 4666 
L 3047 4666 
L 3047 1625 
L 3713 1625 
L 3713 1100 
L 3047 1100 
L 3047 0 
L 2419 0 
L 2419 1100 
L 313 1100 
L 313 1709 
L 2253 4666 
z
" transform="scale(0.015625)"/>
       </defs>
       <use xlink:href="#DejaVuSans-34"/>
      </g>
     </g>
    </g>
    <g id="ytick_4">
     <g id="line2d_10">
      <g>
       <use xlink:href="#md004bc0ebf" x="50.902" y="78.351892" style="stroke: #000000; stroke-width: 0.8"/>
      </g>
     </g>
     <g id="text_4">
      <!-- 6 -->
      <g transform="translate(37.5395 82.15111) scale(0.1 -0.1)">
       <defs>
        <path id="DejaVuSans-36" d="M 2113 2584 
Q 1688 2584 1439 2293 
Q 1191 2003 1191 1497 
Q 1191 994 1439 701 
Q 1688 409 2113 409 
Q 2538 409 2786 701 
Q 3034 994 3034 1497 
Q 3034 2003 2786 2293 
Q 2538 2584 2113 2584 
z
M 3366 4563 
L 3366 3988 
Q 3128 4100 2886 4159 
Q 2644 4219 2406 4219 
Q 1781 4219 1451 3797 
Q 1122 3375 1075 2522 
Q 1259 2794 1537 2939 
Q 1816 3084 2150 3084 
Q 2853 3084 3261 2657 
Q 3669 2231 3669 1497 
Q 3669 778 3244 343 
Q 2819 -91 2113 -91 
Q 1303 -91 875 529 
Q 447 1150 447 2328 
Q 447 3434 972 4092 
Q 1497 4750 2381 4750 
Q 2619 4750 2861 4703 
Q 3103 4656 3366 4563 
z
" transform="scale(0.015625)"/>
       </defs>
       <use xlink:href="#DejaVuSans-36"/>
      </g>
     </g>
    </g>
    <g id="text_5">
     <!-- 1e6 -->
     <g transform="translate(50.902 51.672) scale(0.1 -0.1)">
      <defs>
       <path id="DejaVuSans-31" d="M 794 531 
L 1825 531 
L 1825 4091 
L 703 3866 
L 703 4441 
L 1819 4666 
L 2450 4666 
L 2450 531 
L 3481 531 
L 3481 0 
L 794 0 
L 794 531 
z
" transform="scale(0.015625)"/>
       <path id="DejaVuSans-65" d="M 3597 1894 
L 3597 1613 
L 953 1613 
Q 991 1019 1311 708 
Q 1631 397 2203 397 
Q 2534 397 2845 478 
Q 3156 559 3463 722 
L 3463 178 
Q 3153 47 2828 -22 
Q 2503 -91 2169 -91 
Q 1331 -91 842 396 
Q 353 884 353 1716 
Q 353 2575 817 3079 
Q 1281 3584 2069 3584 
Q 2775 3584 3186 3129 
Q 3597 2675 3597 1894 
z
M 3022 2063 
Q 3016 2534 2758 2815 
Q 2500 3097 2075 3097 
Q 1594 3097 1305 2825 
Q 1016 2553 972 2059 
L 3022 2063 
z
" transform="scale(0.015625)"/>
      </defs>
      <use xlink:href="#DejaVuSans-31"/>
      <use xlink:href="#DejaVuSans-65" x="63.623047"/>
      <use xlink:href="#DejaVuSans-36" x="125.146484"/>
     </g>
    </g>
   </g>
   <g id="line2d_11">
    <path d="M 60.629227 148.762408 
L 229.798397 148.762408 
" clip-path="url(#p295346e1ef)" style="fill: none; stroke-dasharray: 7.4,3.2; stroke-dashoffset: 0; stroke: #696969; stroke-width: 2"/>
   </g>
   <g id="line2d_12">
    <path d="M 229.798397 123.377274 
L 194.272872 145.617554 
L 170.589188 150.037692 
L 153.672271 128.215879 
L 140.984583 150.394389 
L 131.116381 155.63166 
L 123.22182 144.897891 
L 116.762634 144.602289 
L 111.379978 155.756268 
L 106.825424 158.009332 
L 102.92152 131.247725 
L 99.538136 158.828382 
L 96.577676 159.192803 
L 93.965505 157.770825 
L 91.643575 155.187239 
L 89.566059 157.95136 
L 87.696294 157.368904 
L 86.004603 152.434007 
L 84.466701 158.029809 
L 83.06253 158.849271 
L 81.775374 156.742594 
L 80.591189 157.406083 
L 79.498096 159.300408 
L 78.485973 159.179149 
L 77.546144 154.542517 
L 76.671131 158.663991 
L 75.854453 157.790729 
L 75.090463 158.281026 
L 74.374222 157.502514 
L 73.70139 158.999182 
L 73.068137 158.935084 
L 72.471069 158.246816 
L 71.907172 158.143349 
L 71.373756 158.280856 
L 70.868414 159.20774 
L 70.388987 158.941923 
L 69.933532 159.212357 
L 69.500294 159.053497 
L 69.087686 159.305116 
L 68.694269 159.286072 
L 68.318735 159.091413 
L 67.959891 159.28053 
L 67.61665 159.21406 
L 67.288014 159.253755 
L 66.973071 159.295829 
L 66.670983 159.247206 
L 66.380979 159.101326 
L 66.102347 159.204549 
L 65.834433 159.257313 
L 65.576628 159.262863 
L 65.328371 159.272702 
L 65.089142 159.291333 
L 64.858457 159.284248 
L 64.635866 159.28312 
L 64.42095 159.281637 
L 64.21332 159.275003 
L 64.012611 159.29739 
L 63.818482 159.291608 
L 63.630616 159.29715 
L 63.448713 159.27959 
L 63.272496 159.307413 
L 63.1017 159.201047 
L 62.93608 159.297944 
L 62.775403 159.255327 
L 62.619453 159.300103 
L 62.468023 159.259394 
L 62.320919 159.264011 
L 62.177959 159.238815 
L 62.03897 159.199058 
L 61.90379 159.024128 
L 61.772262 159.293369 
L 61.644242 159.230471 
L 61.519591 159.080174 
L 61.398178 159.270532 
L 61.279878 159.128935 
L 61.164573 159.283891 
L 61.05215 159.144515 
L 60.942504 159.161395 
L 60.835531 159.150317 
L 60.731136 159.054743 
L 60.629227 159.167843 
" clip-path="url(#p295346e1ef)" style="fill: none; stroke: #191970; stroke-width: 2; stroke-linecap: square"/>
   </g>
   <g id="patch_3">
    <path d="M 50.902 164.293333 
L 50.902 54.672 
" style="fill: none; stroke: #000000; stroke-width: 0.8; stroke-linejoin: miter; stroke-linecap: square"/>
   </g>
   <g id="patch_4">
    <path d="M 50.902 164.293333 
L 264.901 164.293333 
" style="fill: none; stroke: #000000; stroke-width: 0.8; stroke-linejoin: miter; stroke-linecap: square"/>
   </g>
   <g id="text_6">
    <!-- 1 CONTROL DL -->
    <g transform="translate(127.970875 39.71375) scale(0.08 -0.08)">
     <defs>
      <path id="DejaVuSans-20" transform="scale(0.015625)"/>
      <path id="DejaVuSans-43" d="M 4122 4306 
L 4122 3641 
Q 3803 3938 3442 4084 
Q 3081 4231 2675 4231 
Q 1875 4231 1450 3742 
Q 1025 3253 1025 2328 
Q 1025 1406 1450 917 
Q 1875 428 2675 428 
Q 3081 428 3442 575 
Q 3803 722 4122 1019 
L 4122 359 
Q 3791 134 3420 21 
Q 3050 -91 2638 -91 
Q 1578 -91 968 557 
Q 359 1206 359 2328 
Q 359 3453 968 4101 
Q 1578 4750 2638 4750 
Q 3056 4750 3426 4639 
Q 3797 4528 4122 4306 
z
" transform="scale(0.015625)"/>
      <path id="DejaVuSans-4f" d="M 2522 4238 
Q 1834 4238 1429 3725 
Q 1025 3213 1025 2328 
Q 1025 1447 1429 934 
Q 1834 422 2522 422 
Q 3209 422 3611 934 
Q 4013 1447 4013 2328 
Q 4013 3213 3611 3725 
Q 3209 4238 2522 4238 
z
M 2522 4750 
Q 3503 4750 4090 4092 
Q 4678 3434 4678 2328 
Q 4678 1225 4090 567 
Q 3503 -91 2522 -91 
Q 1538 -91 948 565 
Q 359 1222 359 2328 
Q 359 3434 948 4092 
Q 1538 4750 2522 4750 
z
" transform="scale(0.015625)"/>
      <path id="DejaVuSans-4e" d="M 628 4666 
L 1478 4666 
L 3547 763 
L 3547 4666 
L 4159 4666 
L 4159 0 
L 3309 0 
L 1241 3903 
L 1241 0 
L 628 0 
L 628 4666 
z
" transform="scale(0.015625)"/>
      <path id="DejaVuSans-54" d="M -19 4666 
L 3928 4666 
L 3928 4134 
L 2272 4134 
L 2272 0 
L 1638 0 
L 1638 4134 
L -19 4134 
L -19 4666 
z
" transform="scale(0.015625)"/>
      <path id="DejaVuSans-52" d="M 2841 2188 
Q 3044 2119 3236 1894 
Q 3428 1669 3622 1275 
L 4263 0 
L 3584 0 
L 2988 1197 
Q 2756 1666 2539 1819 
Q 2322 1972 1947 1972 
L 1259 1972 
L 1259 0 
L 628 0 
L 628 4666 
L 2053 4666 
Q 2853 4666 3247 4331 
Q 3641 3997 3641 3322 
Q 3641 2881 3436 2590 
Q 3231 2300 2841 2188 
z
M 1259 4147 
L 1259 2491 
L 2053 2491 
Q 2509 2491 2742 2702 
Q 2975 2913 2975 3322 
Q 2975 3731 2742 3939 
Q 2509 4147 2053 4147 
L 1259 4147 
z
" transform="scale(0.015625)"/>
      <path id="DejaVuSans-4c" d="M 628 4666 
L 1259 4666 
L 1259 531 
L 3531 531 
L 3531 0 
L 628 0 
L 628 4666 
z
" transform="scale(0.015625)"/>
      <path id="DejaVuSans-44" d="M 1259 4147 
L 1259 519 
L 2022 519 
Q 2988 519 3436 956 
Q 3884 1394 3884 2338 
Q 3884 3275 3436 3711 
Q 2988 4147 2022 4147 
L 1259 4147 
z
M 628 4666 
L 1925 4666 
Q 3281 4666 3915 4102 
Q 4550 3538 4550 2338 
Q 4550 1131 3912 565 
Q 3275 0 1925 0 
L 628 0 
L 628 4666 
z
" transform="scale(0.015625)"/>
     </defs>
     <use xlink:href="#DejaVuSans-31"/>
     <use xlink:href="#DejaVuSans-20" x="63.623047"/>
     <use xlink:href="#DejaVuSans-43" x="95.410156"/>
     <use xlink:href="#DejaVuSans-4f" x="165.234375"/>
     <use xlink:href="#DejaVuSans-4e" x="243.945312"/>
     <use xlink:href="#DejaVuSans-54" x="318.75"/>
     <use xlink:href="#DejaVuSans-52" x="379.833984"/>
     <use xlink:href="#DejaVuSans-4f" x="449.316406"/>
     <use xlink:href="#DejaVuSans-4c" x="528.027344"/>
     <use xlink:href="#DejaVuSans-20" x="583.740234"/>
     <use xlink:href="#DejaVuSans-44" x="615.527344"/>
     <use xlink:href="#DejaVuSans-4c" x="692.529297"/>
    </g>
    <!-- (PEAK ON 24.00 HOURS) -->
    <g transform="translate(108.672125 48.672) scale(0.08 -0.08)">
     <defs>
      <path id="DejaVuSans-28" d="M 1984 4856 
Q 1566 4138 1362 3434 
Q 1159 2731 1159 2009 
Q 1159 1288 1364 580 
Q 1569 -128 1984 -844 
L 1484 -844 
Q 1016 -109 783 600 
Q 550 1309 550 2009 
Q 550 2706 781 3412 
Q 1013 4119 1484 4856 
L 1984 4856 
z
" transform="scale(0.015625)"/>
      <path id="DejaVuSans-50" d="M 1259 4147 
L 1259 2394 
L 2053 2394 
Q 2494 2394 2734 2622 
Q 2975 2850 2975 3272 
Q 2975 3691 2734 3919 
Q 2494 4147 2053 4147 
L 1259 4147 
z
M 628 4666 
L 2053 4666 
Q 2838 4666 3239 4311 
Q 3641 3956 3641 3272 
Q 3641 2581 3239 2228 
Q 2838 1875 2053 1875 
L 1259 1875 
L 1259 0 
L 628 0 
L 628 4666 
z
" transform="scale(0.015625)"/>
      <path id="DejaVuSans-45" d="M 628 4666 
L 3578 4666 
L 3578 4134 
L 1259 4134 
L 1259 2753 
L 3481 2753 
L 3481 2222 
L 1259 2222 
L 1259 531 
L 3634 531 
L 3634 0 
L 628 0 
L 628 4666 
z
" transform="scale(0.015625)"/>
      <path id="DejaVuSans-41" d="M 2188 4044 
L 1331 1722 
L 3047 1722 
L 2188 4044 
z
M 1831 4666 
L 2547 4666 
L 4325 0 
L 3669 0 
L 3244 1197 
L 1141 1197 
L 716 0 
L 50 0 
L 1831 4666 
z
" transform="scale(0.015625)"/>
      <path id="DejaVuSans-4b" d="M 628 4666 
L 1259 4666 
L 1259 2694 
L 3353 4666 
L 4166 4666 
L 1850 2491 
L 4331 0 
L 3500 0 
L 1259 2247 
L 1259 0 
L 628 0 
L 628 4666 
z
" transform="scale(0.015625)"/>
      <path id="DejaVuSans-2e" d="M 684 794 
L 1344 794 
L 1344 0 
L 684 0 
L 684 794 
z
" transform="scale(0.015625)"/>
      <path id="DejaVuSans-48" d="M 628 4666 
L 1259 4666 
L 1259 2753 
L 3553 2753 
L 3553 4666 
L 4184 4666 
L 4184 0 
L 3553 0 
L 3553 2222 
L 1259 2222 
L 1259 0 
L 628 0 
L 628 4666 
z
" transform="scale(0.015625)"/>
      <path id="DejaVuSans-55" d="M 556 4666 
L 1191 4666 
L 1191 1831 
Q 1191 1081 1462 751 
Q 1734 422 2344 422 
Q 2950 422 3222 751 
Q 3494 1081 3494 1831 
L 3494 4666 
L 4128 4666 
L 4128 1753 
Q 4128 841 3676 375 
Q 3225 -91 2344 -91 
Q 1459 -91 1007 375 
Q 556 841 556 1753 
L 556 4666 
z
" transform="scale(0.015625)"/>
      <path id="DejaVuSans-53" d="M 3425 4513 
L 3425 3897 
Q 3066 4069 2747 4153 
Q 2428 4238 2131 4238 
Q 1616 4238 1336 4038 
Q 1056 3838 1056 3469 
Q 1056 3159 1242 3001 
Q 1428 2844 1947 2747 
L 2328 2669 
Q 3034 2534 3370 2195 
Q 3706 1856 3706 1288 
Q 3706 609 3251 259 
Q 2797 -91 1919 -91 
Q 1588 -91 1214 -16 
Q 841 59 441 206 
L 441 856 
Q 825 641 1194 531 
Q 1563 422 1919 422 
Q 2459 422 2753 634 
Q 3047 847 3047 1241 
Q 3047 1584 2836 1778 
Q 2625 1972 2144 2069 
L 1759 2144 
Q 1053 2284 737 2584 
Q 422 2884 422 3419 
Q 422 4038 858 4394 
Q 1294 4750 2059 4750 
Q 2388 4750 2728 4690 
Q 3069 4631 3425 4513 
z
" transform="scale(0.015625)"/>
      <path id="DejaVuSans-29" d="M 513 4856 
L 1013 4856 
Q 1481 4119 1714 3412 
Q 1947 2706 1947 2009 
Q 1947 1309 1714 600 
Q 1481 -109 1013 -844 
L 513 -844 
Q 928 -128 1133 580 
Q 1338 1288 1338 2009 
Q 1338 2731 1133 3434 
Q 928 4138 513 4856 
z
" transform="scale(0.015625)"/>
     </defs>
     <use xlink:href="#DejaVuSans-28"/>
     <use xlink:href="#DejaVuSans-50" x="39.013672"/>
     <use xlink:href="#DejaVuSans-45" x="99.316406"/>
     <use xlink:href="#DejaVuSans-41" x="162.5"/>
     <use xlink:href="#DejaVuSans-4b" x="230.908203"/>
     <use xlink:href="#DejaVuSans-20" x="296.484375"/>
     <use xlink:href="#DejaVuSans-4f" x="328.271484"/>
     <use xlink:href="#DejaVuSans-4e" x="406.982422"/>
     <use xlink:href="#DejaVuSans-20" x="481.787109"/>
     <use xlink:href="#DejaVuSans-32" x="513.574219"/>
     <use xlink:href="#DejaVuSans-34" x="577.197266"/>
     <use xlink:href="#DejaVuSans-2e" x="640.820312"/>
     <use xlink:href="#DejaVuSans-30" x="672.607422"/>
     <use xlink:href="#DejaVuSans-30" x="736.230469"/>
     <use xlink:href="#DejaVuSans-20" x="799.853516"/>
     <use xlink:href="#DejaVuSans-48" x="831.640625"/>
     <use xlink:href="#DejaVuSans-4f" x="906.835938"/>
     <use xlink:href="#DejaVuSans-55" x="985.546875"/>
     <use xlink:href="#DejaVuSans-52" x="1058.740234"/>
     <use xlink:href="#DejaVuSans-53" x="1128.222656"/>
     <use xlink:href="#DejaVuSans-29" x="1191.699219"/>
    </g>
   </g>
  </g>
  <g id="axes_2">
   <g id="patch_5">
    <path d="M 279.201 164.293333 
L 493.2 164.293333 
L 493.2 54.672 
L 279.201 54.672 
z
" style="fill: #ffffff"/>
   </g>
   <g id="matplotlib.axis_3">
    <g id="xtick_7">
     <g id="line2d_13">
      <g>
       <use xlink:href="#m0812f42bf3" x="280.469769" y="164.293333" style="stroke: #000000; stroke-width: 0.8"/>
      </g>
     </g>
    </g>
    <g id="xtick_8">
     <g id="line2d_14">
      <g>
       <use xlink:href="#m0812f42bf3" x="322.762061" y="164.293333" style="stroke: #000000; stroke-width: 0.8"/>
      </g>
     </g>
    </g>
    <g id="xtick_9">
     <g id="line2d_15">
      <g>
       <use xlink:href="#m0812f42bf3" x="365.054354" y="164.293333" style="stroke: #000000; stroke-width: 0.8"/>
      </g>
     </g>
    </g>
    <g id="xtick_10">
     <g id="line2d_16">
      <g>
       <use xlink:href="#m0812f42bf3" x="407.346646" y="164.293333" style="stroke: #000000; stroke-width: 0.8"/>
      </g>
     </g>
    </g>
    <g id="xtick_11">
     <g id="line2d_17">
      <g>
       <use xlink:href="#m0812f42bf3" x="449.638939" y="164.293333" style="stroke: #000000; stroke-width: 0.8"/>
      </g>
     </g>
    </g>
    <g id="xtick_12">
     <g id="line2d_18">
      <g>
       <use xlink:href="#m0812f42bf3" x="491.931231" y="164.293333" style="stroke: #000000; stroke-width: 0.8"/>
      </g>
     </g>
    </g>
   </g>
   <g id="matplotlib.axis_4">
    <g id="ytick_5">
     <g id="line2d_19">
      <g>
       <use xlink:href="#md004bc0ebf" x="279.201" y="159.310556" style="stroke: #000000; stroke-width: 0.8"/>
      </g>
     </g>
    </g>
    <g id="ytick_6">
     <g id="line2d_20">
      <g>
       <use xlink:href="#md004bc0ebf" x="279.201" y="132.324335" style="stroke: #000000; stroke-width: 0.8"/>
      </g>
     </g>
    </g>
    <g id="ytick_7">
     <g id="line2d_21">
      <g>
       <use xlink:href="#md004bc0ebf" x="279.201" y="105.338113" style="stroke: #000000; stroke-width: 0.8"/>
      </g>
     </g>
    </g>
    <g id="ytick_8">
     <g id="line2d_22">
      <g>
       <use xlink:href="#md004bc0ebf" x="279.201" y="78.351892" style="stroke: #000000; stroke-width: 0.8"/>
      </g>
     </g>
    </g>
   </g>
   <g id="line2d_23">
    <path d="M 288.928227 144.910294 
L 476.706006 144.910294 
" clip-path="url(#p8e176f1211)" style="fill: none; stroke-dasharray: 7.4,3.2; stroke-dashoffset: 0; stroke: #696969; stroke-width: 2"/>
   </g>
   <g id="line2d_24">
    <path d="M 476.706006 156.749132 
L 464.441241 133.145099 
L 453.61939 154.270815 
L 443.999966 136.127113 
L 435.393114 150.786229 
L 427.646947 145.630095 
L 420.63851 155.901367 
L 414.267203 159.165763 
L 408.449923 157.132581 
L 403.117417 157.910668 
L 398.211511 122.666641 
L 393.682983 158.202526 
L 389.489901 150.716066 
L 385.596324 155.085114 
L 381.971271 60.502554 
L 378.587887 153.073667 
L 375.422787 148.379118 
L 372.455505 158.111467 
L 369.668058 154.964338 
L 367.044579 155.958824 
L 364.571013 154.756936 
L 362.234868 147.710817 
L 360.025 158.079215 
L 357.931441 147.981072 
L 355.945245 157.396982 
L 354.058358 155.20971 
L 352.263514 154.535347 
L 350.554139 150.94404 
L 348.92427 158.465184 
L 347.368486 158.597614 
L 345.881848 153.996538 
L 344.459846 158.278961 
L 343.098355 145.414893 
L 341.793593 155.128513 
L 340.542086 155.157085 
L 339.34064 157.91749 
L 338.186309 152.676231 
L 337.076376 158.71071 
L 336.008326 154.26367 
L 334.979835 157.571014 
L 333.988743 158.941441 
L 333.033047 158.016366 
L 332.110884 154.408715 
L 331.22052 143.029738 
L 330.360338 141.282172 
L 329.528828 148.024592 
L 328.724581 156.18631 
L 327.946278 156.660615 
L 327.192682 157.653348 
L 326.462637 153.931215 
L 325.755054 159.137779 
L 325.068914 158.588287 
L 324.403255 154.115305 
L 323.757174 159.197316 
L 323.12982 158.747722 
L 322.520391 150.314587 
L 321.928129 156.231063 
L 321.352318 158.919189 
L 320.792283 153.950215 
L 320.247384 158.930986 
L 319.717016 157.893798 
L 319.200605 156.562209 
L 318.697607 159.100853 
L 318.207507 158.854801 
L 317.729814 158.371023 
L 317.264063 156.276247 
L 316.366641 157.904988 
L 315.934149 158.651984 
L 315.511954 157.743381 
L 315.099693 155.985209 
L 314.697019 156.807924 
L 314.303603 153.659326 
L 313.919127 154.733454 
L 313.543292 148.528967 
L 313.175808 157.020762 
L 312.816401 157.30056 
L 312.464807 157.984396 
L 312.120775 157.617708 
L 311.784062 158.755593 
L 311.454438 159.076606 
L 311.131681 159.088774 
L 310.815579 158.975876 
L 310.505928 157.431326 
L 310.202532 158.996184 
L 309.905204 159.257195 
L 309.613764 158.127562 
L 309.328039 154.832896 
L 309.047862 158.100604 
L 308.773072 159.080172 
L 308.239048 157.986988 
L 307.979522 158.255317 
L 307.724802 156.996634 
L 307.474756 158.343514 
L 307.229256 158.182683 
L 306.988179 158.607594 
L 306.751408 158.529798 
L 306.290326 156.146175 
L 306.0658 159.084519 
L 305.845144 157.092416 
L 305.628261 139.541869 
L 305.415053 155.576288 
L 305.205429 153.251166 
L 304.796575 159.254773 
L 304.597175 158.799328 
L 304.401017 158.927929 
L 304.208023 158.238398 
L 304.018117 159.106844 
L 303.831226 158.127815 
L 303.647277 158.012988 
L 303.466203 158.04254 
L 303.287936 156.499385 
L 303.112412 158.187271 
L 302.939567 157.502817 
L 302.769341 159.002762 
L 302.601675 157.862886 
L 302.436512 159.077505 
L 302.273795 158.695614 
L 302.113471 157.075094 
L 301.646341 159.101 
L 301.49508 158.473104 
L 301.198949 158.820773 
L 301.053989 158.329128 
L 300.911043 157.158668 
L 300.631026 157.839306 
L 300.493875 158.908791 
L 300.225095 159.253913 
L 300.093392 158.295075 
L 299.963435 159.265446 
L 299.583688 159.021346 
L 299.460372 158.213173 
L 299.338638 158.887117 
L 299.218454 158.516843 
L 298.982621 158.859493 
L 298.866916 158.739549 
L 298.752648 158.943839 
L 298.639791 158.811884 
L 298.528318 157.980058 
L 298.309427 159.16634 
L 298.095778 159.180341 
L 297.990861 159.304882 
L 297.887186 158.496767 
L 297.784731 158.756423 
L 297.683474 158.307633 
L 297.484471 159.201867 
L 297.386686 159.184292 
L 297.290018 158.016325 
L 297.099958 159.117172 
L 297.00653 159.296342 
L 296.822789 158.084652 
L 296.643085 159.079932 
L 296.380815 159.27191 
L 296.295272 158.89595 
L 296.126915 159.247389 
L 295.72129 159.30712 
L 295.564864 158.860412 
L 295.487848 159.274865 
L 295.411614 159.141069 
L 295.33615 159.290332 
L 295.261445 159.194336 
L 294.969983 159.265476 
L 294.828518 159.126991 
L 294.289222 159.299919 
L 294.034486 159.263098 
L 293.267784 159.289362 
L 292.104328 159.300195 
L 292.058523 159.216132 
L 292.013077 159.280986 
L 291.834802 159.283879 
L 291.66195 159.148523 
L 291.535722 159.307295 
L 291.371782 159.111948 
L 291.331553 159.276559 
L 291.020104 159.030427 
L 290.945013 159.236793 
L 290.870983 159.256335 
L 290.834359 159.088184 
L 290.761879 159.243712 
L 290.726018 159.286097 
L 290.690406 159.22465 
L 290.655041 159.081673 
L 290.619919 159.268936 
L 290.585039 159.205306 
L 290.550397 159.296967 
L 290.515993 159.101693 
L 290.481822 158.80107 
L 290.447883 159.239451 
L 290.38069 159.304908 
L 290.347432 159.133911 
L 290.281581 159.190099 
L 290.184434 159.238617 
L 290.216602 159.144823 
L 290.152478 159.218148 
L 290.089192 159.118351 
L 290.057859 159.222994 
L 289.9958 159.280812 
L 289.965071 159.042424 
L 289.874061 159.120641 
L 289.78478 159.293868 
L 289.814351 159.078383 
L 289.755395 159.26027 
L 289.582907 158.598606 
L 289.526826 159.259005 
L 289.471431 158.744153 
L 289.389598 159.263553 
L 289.335864 159.227038 
L 289.309239 159.309743 
L 289.256466 158.92309 
L 289.204319 159.00479 
L 289.001779 159.271065 
L 288.952603 158.990669 
L 288.928227 159.272685 
" clip-path="url(#p8e176f1211)" style="fill: none; stroke: #191970; stroke-width: 2; stroke-linecap: square"/>
   </g>
   <g id="patch_6">
    <path d="M 279.201 164.293333 
L 279.201 54.672 
" style="fill: none; stroke: #000000; stroke-width: 0.8; stroke-linejoin: miter; stroke-linecap: square"/>
   </g>
   <g id="patch_7">
    <path d="M 279.201 164.293333 
L 493.2 164.293333 
" style="fill: none; stroke: #000000; stroke-width: 0.8; stroke-linejoin: miter; stroke-linecap: square"/>
   </g>
   <g id="text_7">
    <!-- 2 CONTROL DD -->
    <g transform="translate(355.418625 39.71375) scale(0.08 -0.08)">
     <use xlink:href="#DejaVuSans-32"/>
     <use xlink:href="#DejaVuSans-20" x="63.623047"/>
     <use xlink:href="#DejaVuSans-43" x="95.410156"/>
     <use xlink:href="#DejaVuSans-4f" x="165.234375"/>
     <use xlink:href="#DejaVuSans-4e" x="243.945312"/>
     <use xlink:href="#DejaVuSans-54" x="318.75"/>
     <use xlink:href="#DejaVuSans-52" x="379.833984"/>
     <use xlink:href="#DejaVuSans-4f" x="449.316406"/>
     <use xlink:href="#DejaVuSans-4c" x="528.027344"/>
     <use xlink:href="#DejaVuSans-20" x="583.740234"/>
     <use xlink:href="#DejaVuSans-44" x="615.527344"/>
     <use xlink:href="#DejaVuSans-44" x="692.529297"/>
    </g>
    <!-- (PEAK ON 24.00 HOURS) -->
    <g transform="translate(336.971125 48.672) scale(0.08 -0.08)">
     <use xlink:href="#DejaVuSans-28"/>
     <use xlink:href="#DejaVuSans-50" x="39.013672"/>
     <use xlink:href="#DejaVuSans-45" x="99.316406"/>
     <use xlink:href="#DejaVuSans-41" x="162.5"/>
     <use xlink:href="#DejaVuSans-4b" x="230.908203"/>
     <use xlink:href="#DejaVuSans-20" x="296.484375"/>
     <use xlink:href="#DejaVuSans-4f" x="328.271484"/>
     <use xlink:href="#DejaVuSans-4e" x="406.982422"/>
     <use xlink:href="#DejaVuSans-20" x="481.787109"/>
     <use xlink:href="#DejaVuSans-32" x="513.574219"/>
     <use xlink:href="#DejaVuSans-34" x="577.197266"/>
     <use xlink:href="#DejaVuSans-2e" x="640.820312"/>
     <use xlink:href="#DejaVuSans-30" x="672.607422"/>
     <use xlink:href="#DejaVuSans-30" x="736.230469"/>
     <use xlink:href="#DejaVuSans-20" x="799.853516"/>
     <use xlink:href="#DejaVuSans-48" x="831.640625"/>
     <use xlink:href="#DejaVuSans-4f" x="906.835938"/>
     <use xlink:href="#DejaVuSans-55" x="985.546875"/>
     <use xlink:href="#DejaVuSans-52" x="1058.740234"/>
     <use xlink:href="#DejaVuSans-53" x="1128.222656"/>
     <use xlink:href="#DejaVuSans-29" x="1191.699219"/>
    </g>
   </g>
  </g>
  <g id="axes_3">
   <g id="patch_8">
    <path d="M 50.902 308.326667 
L 264.901 308.326667 
L 264.901 198.705333 
L 50.902 198.705333 
z
" style="fill: #ffffff"/>
   </g>
   <g id="matplotlib.axis_5">
    <g id="xtick_13">
     <g id="line2d_25">
      <g>
       <use xlink:href="#m0812f42bf3" x="52.170769" y="308.326667" style="stroke: #000000; stroke-width: 0.8"/>
      </g>
     </g>
    </g>
    <g id="xtick_14">
     <g id="line2d_26">
      <g>
       <use xlink:href="#m0812f42bf3" x="94.463061" y="308.326667" style="stroke: #000000; stroke-width: 0.8"/>
      </g>
     </g>
    </g>
    <g id="xtick_15">
     <g id="line2d_27">
      <g>
       <use xlink:href="#m0812f42bf3" x="136.755354" y="308.326667" style="stroke: #000000; stroke-width: 0.8"/>
      </g>
     </g>
    </g>
    <g id="xtick_16">
     <g id="line2d_28">
      <g>
       <use xlink:href="#m0812f42bf3" x="179.047646" y="308.326667" style="stroke: #000000; stroke-width: 0.8"/>
      </g>
     </g>
    </g>
    <g id="xtick_17">
     <g id="line2d_29">
      <g>
       <use xlink:href="#m0812f42bf3" x="221.339939" y="308.326667" style="stroke: #000000; stroke-width: 0.8"/>
      </g>
     </g>
    </g>
    <g id="xtick_18">
     <g id="line2d_30">
      <g>
       <use xlink:href="#m0812f42bf3" x="263.632231" y="308.326667" style="stroke: #000000; stroke-width: 0.8"/>
      </g>
     </g>
    </g>
   </g>
   <g id="matplotlib.axis_6">
    <g id="ytick_9">
     <g id="line2d_31">
      <g>
       <use xlink:href="#md004bc0ebf" x="50.902" y="303.343889" style="stroke: #000000; stroke-width: 0.8"/>
      </g>
     </g>
     <g id="text_8">
      <!-- 0 -->
      <g transform="translate(37.5395 307.143108) scale(0.1 -0.1)">
       <use xlink:href="#DejaVuSans-30"/>
      </g>
     </g>
    </g>
    <g id="ytick_10">
     <g id="line2d_32">
      <g>
       <use xlink:href="#md004bc0ebf" x="50.902" y="276.357668" style="stroke: #000000; stroke-width: 0.8"/>
      </g>
     </g>
     <g id="text_9">
      <!-- 2 -->
      <g transform="translate(37.5395 280.156887) scale(0.1 -0.1)">
       <use xlink:href="#DejaVuSans-32"/>
      </g>
     </g>
    </g>
    <g id="ytick_11">
     <g id="line2d_33">
      <g>
       <use xlink:href="#md004bc0ebf" x="50.902" y="249.371446" style="stroke: #000000; stroke-width: 0.8"/>
      </g>
     </g>
     <g id="text_10">
      <!-- 4 -->
      <g transform="translate(37.5395 253.170665) scale(0.1 -0.1)">
       <use xlink:href="#DejaVuSans-34"/>
      </g>
     </g>
    </g>
    <g id="ytick_12">
     <g id="line2d_34">
      <g>
       <use xlink:href="#md004bc0ebf" x="50.902" y="222.385225" style="stroke: #000000; stroke-width: 0.8"/>
      </g>
     </g>
     <g id="text_11">
      <!-- 6 -->
      <g transform="translate(37.5395 226.184444) scale(0.1 -0.1)">
       <use xlink:href="#DejaVuSans-36"/>
      </g>
     </g>
    </g>
    <g id="text_12">
     <!-- 1e6 -->
     <g transform="translate(50.902 195.705333) scale(0.1 -0.1)">
      <use xlink:href="#DejaVuSans-31"/>
      <use xlink:href="#DejaVuSans-65" x="63.623047"/>
      <use xlink:href="#DejaVuSans-36" x="125.146484"/>
     </g>
    </g>
   </g>
   <g id="line2d_35">
    <path d="M 60.629227 295.378864 
L 246.715314 295.378864 
" clip-path="url(#p0cc09636b6)" style="fill: none; stroke-dasharray: 7.4,3.2; stroke-dashoffset: 0; stroke: #696969; stroke-width: 2"/>
   </g>
   <g id="line2d_36">
    <path d="M 246.715314 302.524618 
L 231.750349 302.794934 
L 218.923236 302.654125 
L 207.806405 302.869807 
L 198.079178 302.13822 
L 189.49633 299.779439 
L 181.867132 298.66312 
L 175.041008 303.212329 
L 168.897496 293.896295 
L 163.33908 299.950248 
L 158.285975 301.403721 
L 153.672271 204.708021 
L 149.443042 302.296722 
L 145.552151 302.733909 
L 141.960559 301.063809 
L 138.635011 301.956799 
L 135.547003 299.59992 
L 132.67196 301.507515 
L 129.988587 302.827806 
L 127.478335 299.914693 
L 125.124973 299.589214 
L 122.91424 303.024708 
L 120.83355 299.569839 
L 118.871756 301.02394 
L 117.018951 302.15239 
L 115.266297 303.060648 
L 113.605888 301.15019 
L 112.030629 302.399992 
L 110.534132 301.852134 
L 109.110636 299.530895 
L 107.754925 302.702998 
L 106.46227 301.509969 
L 105.228372 298.567143 
L 104.049314 280.791802 
L 102.92152 247.619654 
L 101.841717 268.641822 
L 100.806905 301.426249 
L 99.814331 298.805517 
L 98.86146 303.087932 
L 97.945956 297.240782 
L 97.065664 302.128332 
L 96.21859 302.834861 
L 95.40289 302.403196 
L 94.616851 301.824949 
L 93.858886 302.738986 
L 93.127515 301.180764 
L 92.421364 303.242481 
L 91.739151 302.326043 
L 91.079678 302.024793 
L 90.441827 302.919105 
L 89.824552 303.131457 
L 89.226873 302.650791 
L 88.647871 302.527203 
L 88.086685 303.290949 
L 87.014568 302.224319 
L 86.004603 300.719705 
L 85.521262 293.124179 
L 85.051537 302.024877 
L 84.59486 300.035895 
L 84.150694 300.107149 
L 83.718533 303.260727 
L 83.297896 303.341242 
L 82.888329 303.051176 
L 82.489399 300.920504 
L 82.100699 303.171971 
L 81.721839 302.23737 
L 81.352451 299.623946 
L 80.992183 302.713717 
L 80.640702 302.325885 
L 80.297691 302.978931 
L 79.962847 298.2882 
L 79.635881 301.240943 
L 79.316519 300.66265 
L 78.69957 302.914784 
L 78.401494 302.983982 
L 78.110042 300.332095 
L 77.824995 302.601401 
L 77.546144 287.015825 
L 77.273291 263.852778 
L 77.006243 303.234464 
L 76.488837 302.307366 
L 76.238135 303.167086 
L 75.516114 302.389353 
L 75.284972 301.359722 
L 75.058362 303.242749 
L 74.836153 303.167327 
L 74.618216 303.264974 
L 74.404431 301.443366 
L 74.19468 302.938481 
L 73.988849 302.592303 
L 73.786829 302.836174 
L 73.588517 302.001223 
L 73.39381 303.159726 
L 73.202612 302.669007 
L 73.014827 303.30077 
L 72.830367 301.326476 
L 72.649142 303.320445 
L 72.471069 302.678654 
L 72.124055 303.164997 
L 71.95496 302.844516 
L 71.788706 303.243974 
L 71.625223 303.299003 
L 71.464443 303.045875 
L 71.150724 303.273013 
L 70.99766 302.619072 
L 70.847045 302.726711 
L 70.552931 303.173309 
L 70.40932 303.134601 
L 70.267936 302.444272 
L 70.128727 302.982559 
L 69.991643 303.068408 
L 69.72366 303.340246 
L 69.336464 303.278008 
L 69.211167 303.05724 
L 69.087686 303.227284 
L 68.965981 301.369659 
L 68.727751 303.171014 
L 68.496185 303.339315 
L 68.382814 303.328656 
L 68.271007 303.128625 
L 68.160731 303.333156 
L 67.734332 303.235145 
L 67.429164 303.306523 
L 67.330084 302.94699 
L 67.135734 303.343293 
L 63.394493 303.306568 
L 63.340791 303.199634 
L 63.2876 303.331914 
L 62.830744 303.256433 
L 62.68669 303.327717 
L 62.592798 303.294793 
L 62.546478 303.137637 
L 62.500568 303.320702 
L 62.365243 303.291451 
L 62.320919 302.869479 
L 62.276979 303.26668 
L 61.777907 303.24362 
L 61.660747 302.953034 
L 61.584215 303.326357 
L 61.54641 303.19466 
L 61.508907 302.928158 
L 61.471703 303.135949 
L 61.434795 303.237156 
L 61.398178 303.060095 
L 61.184416 303.305376 
L 61.149748 303.185585 
L 61.115346 302.946519 
L 61.081206 303.125818 
L 61.047326 303.316796 
L 60.947214 303.293853 
L 60.914344 303.058568 
L 60.849336 303.246463 
L 60.817193 303.273882 
L 60.785287 303.045124 
L 60.753616 303.334828 
L 60.690968 303.12025 
L 60.629227 303.343373 
L 60.629227 303.343373 
" clip-path="url(#p0cc09636b6)" style="fill: none; stroke: #191970; stroke-width: 2; stroke-linecap: square"/>
   </g>
   <g id="patch_9">
    <path d="M 50.902 308.326667 
L 50.902 198.705333 
" style="fill: none; stroke: #000000; stroke-width: 0.8; stroke-linejoin: miter; stroke-linecap: square"/>
   </g>
   <g id="patch_10">
    <path d="M 50.902 308.326667 
L 264.901 308.326667 
" style="fill: none; stroke: #000000; stroke-width: 0.8; stroke-linejoin: miter; stroke-linecap: square"/>
   </g>
   <g id="text_13">
    <!-- 3 INDUCTION DD -->
    <g transform="translate(123.9165 183.747083) scale(0.08 -0.08)">
     <defs>
      <path id="DejaVuSans-33" d="M 2597 2516 
Q 3050 2419 3304 2112 
Q 3559 1806 3559 1356 
Q 3559 666 3084 287 
Q 2609 -91 1734 -91 
Q 1441 -91 1130 -33 
Q 819 25 488 141 
L 488 750 
Q 750 597 1062 519 
Q 1375 441 1716 441 
Q 2309 441 2620 675 
Q 2931 909 2931 1356 
Q 2931 1769 2642 2001 
Q 2353 2234 1838 2234 
L 1294 2234 
L 1294 2753 
L 1863 2753 
Q 2328 2753 2575 2939 
Q 2822 3125 2822 3475 
Q 2822 3834 2567 4026 
Q 2313 4219 1838 4219 
Q 1578 4219 1281 4162 
Q 984 4106 628 3988 
L 628 4550 
Q 988 4650 1302 4700 
Q 1616 4750 1894 4750 
Q 2613 4750 3031 4423 
Q 3450 4097 3450 3541 
Q 3450 3153 3228 2886 
Q 3006 2619 2597 2516 
z
" transform="scale(0.015625)"/>
      <path id="DejaVuSans-49" d="M 628 4666 
L 1259 4666 
L 1259 0 
L 628 0 
L 628 4666 
z
" transform="scale(0.015625)"/>
     </defs>
     <use xlink:href="#DejaVuSans-33"/>
     <use xlink:href="#DejaVuSans-20" x="63.623047"/>
     <use xlink:href="#DejaVuSans-49" x="95.410156"/>
     <use xlink:href="#DejaVuSans-4e" x="124.902344"/>
     <use xlink:href="#DejaVuSans-44" x="199.707031"/>
     <use xlink:href="#DejaVuSans-55" x="276.708984"/>
     <use xlink:href="#DejaVuSans-43" x="349.902344"/>
     <use xlink:href="#DejaVuSans-54" x="419.726562"/>
     <use xlink:href="#DejaVuSans-49" x="480.810547"/>
     <use xlink:href="#DejaVuSans-4f" x="510.302734"/>
     <use xlink:href="#DejaVuSans-4e" x="589.013672"/>
     <use xlink:href="#DejaVuSans-20" x="663.818359"/>
     <use xlink:href="#DejaVuSans-44" x="695.605469"/>
     <use xlink:href="#DejaVuSans-44" x="772.607422"/>
    </g>
    <!-- (PEAK ON 24.00 HOURS) -->
    <g transform="translate(108.672125 192.705333) scale(0.08 -0.08)">
     <use xlink:href="#DejaVuSans-28"/>
     <use xlink:href="#DejaVuSans-50" x="39.013672"/>
     <use xlink:href="#DejaVuSans-45" x="99.316406"/>
     <use xlink:href="#DejaVuSans-41" x="162.5"/>
     <use xlink:href="#DejaVuSans-4b" x="230.908203"/>
     <use xlink:href="#DejaVuSans-20" x="296.484375"/>
     <use xlink:href="#DejaVuSans-4f" x="328.271484"/>
     <use xlink:href="#DejaVuSans-4e" x="406.982422"/>
     <use xlink:href="#DejaVuSans-20" x="481.787109"/>
     <use xlink:href="#DejaVuSans-32" x="513.574219"/>
     <use xlink:href="#DejaVuSans-34" x="577.197266"/>
     <use xlink:href="#DejaVuSans-2e" x="640.820312"/>
     <use xlink:href="#DejaVuSans-30" x="672.607422"/>
     <use xlink:href="#DejaVuSans-30" x="736.230469"/>
     <use xlink:href="#DejaVuSans-20" x="799.853516"/>
     <use xlink:href="#DejaVuSans-48" x="831.640625"/>
     <use xlink:href="#DejaVuSans-4f" x="906.835938"/>
     <use xlink:href="#DejaVuSans-55" x="985.546875"/>
     <use xlink:href="#DejaVuSans-52" x="1058.740234"/>
     <use xlink:href="#DejaVuSans-53" x="1128.222656"/>
     <use xlink:href="#DejaVuSans-29" x="1191.699219"/>
    </g>
   </g>
  </g>
  <g id="axes_4">
   <g id="patch_11">
    <path d="M 279.201 308.326667 
L 493.2 308.326667 
L 493.2 198.705333 
L 279.201 198.705333 
z
" style="fill: #ffffff"/>
   </g>
   <g id="matplotlib.axis_7">
    <g id="xtick_19">
     <g id="line2d_37">
      <g>
       <use xlink:href="#m0812f42bf3" x="280.469769" y="308.326667" style="stroke: #000000; stroke-width: 0.8"/>
      </g>
     </g>
    </g>
    <g id="xtick_20">
     <g id="line2d_38">
      <g>
       <use xlink:href="#m0812f42bf3" x="322.762061" y="308.326667" style="stroke: #000000; stroke-width: 0.8"/>
      </g>
     </g>
    </g>
    <g id="xtick_21">
     <g id="line2d_39">
      <g>
       <use xlink:href="#m0812f42bf3" x="365.054354" y="308.326667" style="stroke: #000000; stroke-width: 0.8"/>
      </g>
     </g>
    </g>
    <g id="xtick_22">
     <g id="line2d_40">
      <g>
       <use xlink:href="#m0812f42bf3" x="407.346646" y="308.326667" style="stroke: #000000; stroke-width: 0.8"/>
      </g>
     </g>
    </g>
    <g id="xtick_23">
     <g id="line2d_41">
      <g>
       <use xlink:href="#m0812f42bf3" x="449.638939" y="308.326667" style="stroke: #000000; stroke-width: 0.8"/>
      </g>
     </g>
    </g>
    <g id="xtick_24">
     <g id="line2d_42">
      <g>
       <use xlink:href="#m0812f42bf3" x="491.931231" y="308.326667" style="stroke: #000000; stroke-width: 0.8"/>
      </g>
     </g>
    </g>
   </g>
   <g id="matplotlib.axis_8">
    <g id="ytick_13">
     <g id="line2d_43">
      <g>
       <use xlink:href="#md004bc0ebf" x="279.201" y="303.343889" style="stroke: #000000; stroke-width: 0.8"/>
      </g>
     </g>
    </g>
    <g id="ytick_14">
     <g id="line2d_44">
      <g>
       <use xlink:href="#md004bc0ebf" x="279.201" y="276.357668" style="stroke: #000000; stroke-width: 0.8"/>
      </g>
     </g>
    </g>
    <g id="ytick_15">
     <g id="line2d_45">
      <g>
       <use xlink:href="#md004bc0ebf" x="279.201" y="249.371446" style="stroke: #000000; stroke-width: 0.8"/>
      </g>
     </g>
    </g>
    <g id="ytick_16">
     <g id="line2d_46">
      <g>
       <use xlink:href="#md004bc0ebf" x="279.201" y="222.385225" style="stroke: #000000; stroke-width: 0.8"/>
      </g>
     </g>
    </g>
   </g>
   <g id="line2d_47">
    <path d="M 288.928227 295.138604 
L 483.472773 295.138604 
" clip-path="url(#pccd30ad90a)" style="fill: none; stroke-dasharray: 7.4,3.2; stroke-dashoffset: 0; stroke: #696969; stroke-width: 2"/>
   </g>
   <g id="line2d_48">
    <path d="M 483.472773 291.869211 
L 465.017954 300.912419 
L 449.638939 291.150076 
L 436.625926 302.249412 
L 425.471914 298.988136 
L 415.805105 296.638663 
L 407.346646 302.417912 
L 399.883301 298.105079 
L 393.249215 300.563321 
L 387.313455 296.235564 
L 381.971271 296.276201 
L 377.137866 292.358373 
L 372.743861 301.712415 
L 368.731944 296.309702 
L 365.054354 302.782481 
L 361.67097 301.803301 
L 358.547847 299.239222 
L 355.656067 301.173173 
L 350.470805 302.31755 
L 348.137437 301.695747 
L 345.954609 302.180853 
L 343.908208 299.18164 
L 341.985831 302.761571 
L 340.176535 301.101341 
L 338.470627 300.997887 
L 336.859492 301.668289 
L 335.335446 301.514209 
L 333.891612 302.28094 
L 332.521821 300.897233 
L 331.22052 265.95949 
L 329.982697 238.055983 
L 328.803817 300.712996 
L 327.67977 300.183114 
L 326.606815 301.950712 
L 325.581547 301.568719 
L 324.600857 294.355646 
L 323.661897 301.905527 
L 322.762061 303.191788 
L 321.898953 300.438692 
L 321.07037 301.980124 
L 320.274279 301.266109 
L 319.508808 302.494684 
L 318.772222 301.805576 
L 318.062918 302.907739 
L 317.379406 300.135907 
L 316.720305 300.816471 
L 316.084331 302.934961 
L 315.470287 301.730402 
L 314.877058 298.960553 
L 314.303603 294.898461 
L 313.74895 268.629803 
L 313.212189 302.054295 
L 312.692468 303.152836 
L 312.188988 303.293589 
L 311.701 300.661877 
L 311.2278 302.208034 
L 310.768725 303.094186 
L 310.323152 302.621695 
L 309.890494 302.980255 
L 309.470198 301.190169 
L 309.061741 302.011844 
L 308.66463 301.971804 
L 308.278399 302.819483 
L 307.902607 302.215948 
L 307.536836 303.168675 
L 307.18069 300.679834 
L 306.833795 303.326271 
L 306.495795 302.435928 
L 306.166352 303.016876 
L 305.845144 302.683924 
L 305.531868 285.79771 
L 305.226233 302.600939 
L 304.927962 302.500934 
L 304.636793 303.188463 
L 304.352475 300.482049 
L 304.074769 303.331752 
L 303.803447 302.811988 
L 303.279095 302.885926 
L 302.777791 303.150919 
L 302.535313 300.917151 
L 302.298049 303.277558 
L 302.065833 302.610896 
L 301.838506 303.309987 
L 301.615915 302.242534 
L 301.397914 302.94951 
L 301.184361 303.204186 
L 300.569076 302.83822 
L 300.372024 302.154911 
L 300.178798 303.25974 
L 299.989288 302.524065 
L 299.803388 302.721024 
L 299.442012 302.09948 
L 299.093898 303.239501 
L 298.924587 303.24895 
L 298.758328 301.826084 
L 298.595037 303.317109 
L 298.434636 302.693802 
L 298.27705 303.277447 
L 297.970028 303.070782 
L 297.820453 303.301738 
L 297.673413 302.989428 
L 297.528845 303.180744 
L 297.386686 302.664095 
L 297.246877 303.270023 
L 297.109359 302.565274 
L 296.974078 303.248209 
L 296.840979 302.922976 
L 296.581118 303.327404 
L 296.454257 303.001424 
L 296.329378 303.319516 
L 295.966181 303.119125 
L 295.848784 303.315315 
L 295.733153 303.118312 
L 295.507028 303.323187 
L 295.39646 303.341642 
L 295.287506 303.061436 
L 295.074301 303.32547 
L 294.867145 303.268573 
L 294.765755 303.086134 
L 294.5672 303.342325 
L 294.094131 303.327479 
L 293.31806 303.342677 
L 291.098198 303.278271 
L 290.933841 303.26236 
L 290.827065 303.302232 
L 290.77449 303.142557 
L 290.722446 303.317813 
L 290.519422 303.293882 
L 290.469917 303.150488 
L 290.420896 303.24083 
L 290.229529 303.314409 
L 290.182831 303.248773 
L 290.136578 303.292288 
L 290.000426 303.270804 
L 289.911769 303.107604 
L 289.868056 303.229729 
L 289.739312 303.324015 
L 289.573042 302.634956 
L 289.412632 303.307313 
L 289.373409 303.114093 
L 289.334529 303.131528 
L 289.257778 303.107172 
L 289.182344 303.323764 
L 289.071591 303.187115 
L 289.035296 303.301613 
L 288.999307 302.841942 
L 288.928227 303.329317 
L 288.928227 303.329317 
" clip-path="url(#pccd30ad90a)" style="fill: none; stroke: #191970; stroke-width: 2; stroke-linecap: square"/>
   </g>
   <g id="patch_12">
    <path d="M 279.201 308.326667 
L 279.201 198.705333 
" style="fill: none; stroke: #000000; stroke-width: 0.8; stroke-linejoin: miter; stroke-linecap: square"/>
   </g>
   <g id="patch_13">
    <path d="M 279.201 308.326667 
L 493.2 308.326667 
" style="fill: none; stroke: #000000; stroke-width: 0.8; stroke-linejoin: miter; stroke-linecap: square"/>
   </g>
   <g id="text_14">
    <!-- 4 HYPO DD -->
    <g transform="translate(363.941125 183.747083) scale(0.08 -0.08)">
     <defs>
      <path id="DejaVuSans-59" d="M -13 4666 
L 666 4666 
L 1959 2747 
L 3244 4666 
L 3922 4666 
L 2272 2222 
L 2272 0 
L 1638 0 
L 1638 2222 
L -13 4666 
z
" transform="scale(0.015625)"/>
     </defs>
     <use xlink:href="#DejaVuSans-34"/>
     <use xlink:href="#DejaVuSans-20" x="63.623047"/>
     <use xlink:href="#DejaVuSans-48" x="95.410156"/>
     <use xlink:href="#DejaVuSans-59" x="170.605469"/>
     <use xlink:href="#DejaVuSans-50" x="231.689453"/>
     <use xlink:href="#DejaVuSans-4f" x="291.992188"/>
     <use xlink:href="#DejaVuSans-20" x="370.703125"/>
     <use xlink:href="#DejaVuSans-44" x="402.490234"/>
     <use xlink:href="#DejaVuSans-44" x="479.492188"/>
    </g>
    <!-- (PEAK ON 11.71 HOURS) -->
    <g transform="translate(336.971125 192.705333) scale(0.08 -0.08)">
     <defs>
      <path id="DejaVuSans-37" d="M 525 4666 
L 3525 4666 
L 3525 4397 
L 1831 0 
L 1172 0 
L 2766 4134 
L 525 4134 
L 525 4666 
z
" transform="scale(0.015625)"/>
     </defs>
     <use xlink:href="#DejaVuSans-28"/>
     <use xlink:href="#DejaVuSans-50" x="39.013672"/>
     <use xlink:href="#DejaVuSans-45" x="99.316406"/>
     <use xlink:href="#DejaVuSans-41" x="162.5"/>
     <use xlink:href="#DejaVuSans-4b" x="230.908203"/>
     <use xlink:href="#DejaVuSans-20" x="296.484375"/>
     <use xlink:href="#DejaVuSans-4f" x="328.271484"/>
     <use xlink:href="#DejaVuSans-4e" x="406.982422"/>
     <use xlink:href="#DejaVuSans-20" x="481.787109"/>
     <use xlink:href="#DejaVuSans-31" x="513.574219"/>
     <use xlink:href="#DejaVuSans-31" x="577.197266"/>
     <use xlink:href="#DejaVuSans-2e" x="640.820312"/>
     <use xlink:href="#DejaVuSans-37" x="672.607422"/>
     <use xlink:href="#DejaVuSans-31" x="736.230469"/>
     <use xlink:href="#DejaVuSans-20" x="799.853516"/>
     <use xlink:href="#DejaVuSans-48" x="831.640625"/>
     <use xlink:href="#DejaVuSans-4f" x="906.835938"/>
     <use xlink:href="#DejaVuSans-55" x="985.546875"/>
     <use xlink:href="#DejaVuSans-52" x="1058.740234"/>
     <use xlink:href="#DejaVuSans-53" x="1128.222656"/>
     <use xlink:href="#DejaVuSans-29" x="1191.699219"/>
    </g>
   </g>
  </g>
  <g id="axes_5">
   <g id="patch_14">
    <path d="M 50.902 452.36 
L 264.901 452.36 
L 264.901 342.738667 
L 50.902 342.738667 
z
" style="fill: #ffffff"/>
   </g>
   <g id="matplotlib.axis_9">
    <g id="xtick_25">
     <g id="line2d_49">
      <g>
       <use xlink:href="#m0812f42bf3" x="52.170769" y="452.36" style="stroke: #000000; stroke-width: 0.8"/>
      </g>
     </g>
     <g id="text_15">
      <!-- 0 -->
      <g transform="translate(48.989519 466.958438) scale(0.1 -0.1)">
       <use xlink:href="#DejaVuSans-30"/>
      </g>
     </g>
    </g>
    <g id="xtick_26">
     <g id="line2d_50">
      <g>
       <use xlink:href="#m0812f42bf3" x="94.463061" y="452.36" style="stroke: #000000; stroke-width: 0.8"/>
      </g>
     </g>
     <g id="text_16">
      <!-- 10 -->
      <g transform="translate(88.100561 466.958438) scale(0.1 -0.1)">
       <use xlink:href="#DejaVuSans-31"/>
       <use xlink:href="#DejaVuSans-30" x="63.623047"/>
      </g>
     </g>
    </g>
    <g id="xtick_27">
     <g id="line2d_51">
      <g>
       <use xlink:href="#m0812f42bf3" x="136.755354" y="452.36" style="stroke: #000000; stroke-width: 0.8"/>
      </g>
     </g>
     <g id="text_17">
      <!-- 20 -->
      <g transform="translate(130.392854 466.958438) scale(0.1 -0.1)">
       <use xlink:href="#DejaVuSans-32"/>
       <use xlink:href="#DejaVuSans-30" x="63.623047"/>
      </g>
     </g>
    </g>
    <g id="xtick_28">
     <g id="line2d_52">
      <g>
       <use xlink:href="#m0812f42bf3" x="179.047646" y="452.36" style="stroke: #000000; stroke-width: 0.8"/>
      </g>
     </g>
     <g id="text_18">
      <!-- 30 -->
      <g transform="translate(172.685146 466.958438) scale(0.1 -0.1)">
       <use xlink:href="#DejaVuSans-33"/>
       <use xlink:href="#DejaVuSans-30" x="63.623047"/>
      </g>
     </g>
    </g>
    <g id="xtick_29">
     <g id="line2d_53">
      <g>
       <use xlink:href="#m0812f42bf3" x="221.339939" y="452.36" style="stroke: #000000; stroke-width: 0.8"/>
      </g>
     </g>
     <g id="text_19">
      <!-- 40 -->
      <g transform="translate(214.977439 466.958438) scale(0.1 -0.1)">
       <use xlink:href="#DejaVuSans-34"/>
       <use xlink:href="#DejaVuSans-30" x="63.623047"/>
      </g>
     </g>
    </g>
    <g id="xtick_30">
     <g id="line2d_54">
      <g>
       <use xlink:href="#m0812f42bf3" x="263.632231" y="452.36" style="stroke: #000000; stroke-width: 0.8"/>
      </g>
     </g>
     <g id="text_20">
      <!-- 50 -->
      <g transform="translate(257.269731 466.958438) scale(0.1 -0.1)">
       <defs>
        <path id="DejaVuSans-35" d="M 691 4666 
L 3169 4666 
L 3169 4134 
L 1269 4134 
L 1269 2991 
Q 1406 3038 1543 3061 
Q 1681 3084 1819 3084 
Q 2600 3084 3056 2656 
Q 3513 2228 3513 1497 
Q 3513 744 3044 326 
Q 2575 -91 1722 -91 
Q 1428 -91 1123 -41 
Q 819 9 494 109 
L 494 744 
Q 775 591 1075 516 
Q 1375 441 1709 441 
Q 2250 441 2565 725 
Q 2881 1009 2881 1497 
Q 2881 1984 2565 2268 
Q 2250 2553 1709 2553 
Q 1456 2553 1204 2497 
Q 953 2441 691 2322 
L 691 4666 
z
" transform="scale(0.015625)"/>
       </defs>
       <use xlink:href="#DejaVuSans-35"/>
       <use xlink:href="#DejaVuSans-30" x="63.623047"/>
      </g>
     </g>
    </g>
   </g>
   <g id="matplotlib.axis_10">
    <g id="ytick_17">
     <g id="line2d_55">
      <g>
       <use xlink:href="#md004bc0ebf" x="50.902" y="447.377223" style="stroke: #000000; stroke-width: 0.8"/>
      </g>
     </g>
     <g id="text_21">
      <!-- 0 -->
      <g transform="translate(37.5395 451.176441) scale(0.1 -0.1)">
       <use xlink:href="#DejaVuSans-30"/>
      </g>
     </g>
    </g>
    <g id="ytick_18">
     <g id="line2d_56">
      <g>
       <use xlink:href="#md004bc0ebf" x="50.902" y="420.391001" style="stroke: #000000; stroke-width: 0.8"/>
      </g>
     </g>
     <g id="text_22">
      <!-- 2 -->
      <g transform="translate(37.5395 424.19022) scale(0.1 -0.1)">
       <use xlink:href="#DejaVuSans-32"/>
      </g>
     </g>
    </g>
    <g id="ytick_19">
     <g id="line2d_57">
      <g>
       <use xlink:href="#md004bc0ebf" x="50.902" y="393.40478" style="stroke: #000000; stroke-width: 0.8"/>
      </g>
     </g>
     <g id="text_23">
      <!-- 4 -->
      <g transform="translate(37.5395 397.203999) scale(0.1 -0.1)">
       <use xlink:href="#DejaVuSans-34"/>
      </g>
     </g>
    </g>
    <g id="ytick_20">
     <g id="line2d_58">
      <g>
       <use xlink:href="#md004bc0ebf" x="50.902" y="366.418558" style="stroke: #000000; stroke-width: 0.8"/>
      </g>
     </g>
     <g id="text_24">
      <!-- 6 -->
      <g transform="translate(37.5395 370.217777) scale(0.1 -0.1)">
       <use xlink:href="#DejaVuSans-36"/>
      </g>
     </g>
    </g>
    <g id="text_25">
     <!-- 1e6 -->
     <g transform="translate(50.902 339.738667) scale(0.1 -0.1)">
      <use xlink:href="#DejaVuSans-31"/>
      <use xlink:href="#DejaVuSans-65" x="63.623047"/>
      <use xlink:href="#DejaVuSans-36" x="125.146484"/>
     </g>
    </g>
   </g>
   <g id="line2d_59">
    <path d="M 60.629227 437.52315 
L 250.340368 437.52315 
" clip-path="url(#pd7b176c134)" style="fill: none; stroke-dasharray: 7.4,3.2; stroke-dashoffset: 0; stroke: #696969; stroke-width: 2"/>
   </g>
   <g id="line2d_60">
    <path d="M 250.340368 442.305734 
L 225.569168 446.502771 
L 206.302679 443.437689 
L 190.889488 443.585262 
L 178.278695 444.119698 
L 167.769702 416.824893 
L 158.877476 347.721455 
L 151.255568 399.233741 
L 144.649915 442.316706 
L 138.869968 446.887208 
L 133.770015 446.432831 
L 129.236724 445.900383 
L 125.180621 443.046009 
L 121.530128 446.049496 
L 118.227302 445.10857 
L 115.224732 447.29988 
L 112.483255 443.562698 
L 109.970235 445.157761 
L 107.658257 443.643034 
L 105.524122 445.616364 
L 103.548072 432.373771 
L 101.713169 444.202924 
L 100.00481 442.786261 
L 98.410342 444.993503 
L 96.918743 443.472872 
L 95.520369 446.546032 
L 94.206744 447.312802 
L 92.970392 446.527825 
L 91.804689 445.523215 
L 90.703746 445.44364 
L 89.662315 442.366898 
L 88.675695 441.173159 
L 87.739671 445.862489 
L 86.850449 424.771742 
L 86.004603 436.228755 
L 85.199035 445.266151 
L 84.430936 447.259499 
L 82.997151 447.024358 
L 82.327012 446.589113 
L 81.68539 444.208179 
L 81.070502 445.844224 
L 80.480712 446.961111 
L 79.914513 447.107544 
L 79.370518 446.962474 
L 78.847446 447.244185 
L 78.344112 446.461845 
L 77.859421 446.619494 
L 77.392354 444.180909 
L 76.941969 444.704766 
L 76.507386 447.306724 
L 76.087789 446.250437 
L 75.682416 447.019524 
L 75.290555 447.084754 
L 74.911542 447.035171 
L 74.544756 446.515382 
L 74.189613 447.318916 
L 73.845569 447.27186 
L 73.51211 447.349129 
L 73.188757 444.697591 
L 72.875055 445.983198 
L 72.57058 445.076626 
L 72.274931 444.707478 
L 71.987729 447.152543 
L 71.708617 446.308568 
L 71.437258 447.161277 
L 71.173333 446.960135 
L 70.916542 446.100404 
L 70.666598 446.58101 
L 70.423232 446.766381 
L 70.186187 447.3482 
L 69.95522 447.008871 
L 69.7301 446.907523 
L 69.296537 447.217381 
L 69.087686 447.30495 
L 68.300852 447.104538 
L 68.115449 446.36411 
L 67.93426 447.37534 
L 67.58396 447.158034 
L 67.414584 447.353947 
L 66.928079 447.370696 
L 66.772739 447.148931 
L 66.471668 447.35831 
L 65.382075 447.37156 
L 62.522912 447.255394 
L 62.446229 447.110137 
L 62.296223 447.375108 
L 62.22285 447.369595 
L 62.079249 446.993028 
L 62.008976 447.271023 
L 61.939693 447.231075 
L 61.871379 447.33073 
L 61.804013 447.258709 
L 61.737577 447.323941 
L 61.672051 447.078837 
L 61.607416 447.185363 
L 61.48075 447.327245 
L 61.418683 447.291582 
L 61.357439 446.95643 
L 61.297 447.289097 
L 61.237352 447.26305 
L 61.178478 447.312293 
L 61.120364 447.154692 
L 61.062994 447.300455 
L 60.950435 447.321152 
L 60.895217 446.970462 
L 60.840689 447.336867 
L 60.629227 447.236683 
L 60.629227 447.236683 
" clip-path="url(#pd7b176c134)" style="fill: none; stroke: #191970; stroke-width: 2; stroke-linecap: square"/>
   </g>
   <g id="patch_15">
    <path d="M 50.902 452.36 
L 50.902 342.738667 
" style="fill: none; stroke: #000000; stroke-width: 0.8; stroke-linejoin: miter; stroke-linecap: square"/>
   </g>
   <g id="patch_16">
    <path d="M 50.902 452.36 
L 264.901 452.36 
" style="fill: none; stroke: #000000; stroke-width: 0.8; stroke-linejoin: miter; stroke-linecap: square"/>
   </g>
   <g id="text_26">
    <!-- 5 HYPO DL -->
    <g transform="translate(136.493375 327.780417) scale(0.08 -0.08)">
     <use xlink:href="#DejaVuSans-35"/>
     <use xlink:href="#DejaVuSans-20" x="63.623047"/>
     <use xlink:href="#DejaVuSans-48" x="95.410156"/>
     <use xlink:href="#DejaVuSans-59" x="170.605469"/>
     <use xlink:href="#DejaVuSans-50" x="231.689453"/>
     <use xlink:href="#DejaVuSans-4f" x="291.992188"/>
     <use xlink:href="#DejaVuSans-20" x="370.703125"/>
     <use xlink:href="#DejaVuSans-44" x="402.490234"/>
     <use xlink:href="#DejaVuSans-4c" x="479.492188"/>
    </g>
    <!-- (PEAK ON 25.23 HOURS) -->
    <g transform="translate(108.672125 336.738667) scale(0.08 -0.08)">
     <use xlink:href="#DejaVuSans-28"/>
     <use xlink:href="#DejaVuSans-50" x="39.013672"/>
     <use xlink:href="#DejaVuSans-45" x="99.316406"/>
     <use xlink:href="#DejaVuSans-41" x="162.5"/>
     <use xlink:href="#DejaVuSans-4b" x="230.908203"/>
     <use xlink:href="#DejaVuSans-20" x="296.484375"/>
     <use xlink:href="#DejaVuSans-4f" x="328.271484"/>
     <use xlink:href="#DejaVuSans-4e" x="406.982422"/>
     <use xlink:href="#DejaVuSans-20" x="481.787109"/>
     <use xlink:href="#DejaVuSans-32" x="513.574219"/>
     <use xlink:href="#DejaVuSans-35" x="577.197266"/>
     <use xlink:href="#DejaVuSans-2e" x="640.820312"/>
     <use xlink:href="#DejaVuSans-32" x="672.607422"/>
     <use xlink:href="#DejaVuSans-33" x="736.230469"/>
     <use xlink:href="#DejaVuSans-20" x="799.853516"/>
     <use xlink:href="#DejaVuSans-48" x="831.640625"/>
     <use xlink:href="#DejaVuSans-4f" x="906.835938"/>
     <use xlink:href="#DejaVuSans-55" x="985.546875"/>
     <use xlink:href="#DejaVuSans-52" x="1058.740234"/>
     <use xlink:href="#DejaVuSans-53" x="1128.222656"/>
     <use xlink:href="#DejaVuSans-29" x="1191.699219"/>
    </g>
   </g>
  </g>
  <g id="axes_6"/>
  <g id="text_27">
   <!-- PSD $(COUNTS^{2}/HZ)$ -->
   <g transform="translate(20.184375 309.72) rotate(-90) scale(0.12 -0.12)">
    <defs>
     <path id="DejaVuSans-Oblique-43" d="M 4447 4306 
L 4319 3641 
Q 4019 3944 3683 4091 
Q 3347 4238 2956 4238 
Q 2422 4238 2017 3981 
Q 1613 3725 1319 3200 
Q 1131 2863 1032 2486 
Q 934 2109 934 1728 
Q 934 1091 1264 756 
Q 1594 422 2222 422 
Q 2656 422 3056 561 
Q 3456 700 3834 978 
L 3688 231 
Q 3316 72 2936 -9 
Q 2556 -91 2175 -91 
Q 1278 -91 773 396 
Q 269 884 269 1753 
Q 269 2309 461 2846 
Q 653 3384 1013 3828 
Q 1394 4300 1883 4525 
Q 2372 4750 3022 4750 
Q 3422 4750 3780 4639 
Q 4138 4528 4447 4306 
z
" transform="scale(0.015625)"/>
     <path id="DejaVuSans-Oblique-4f" d="M 2919 4238 
Q 2400 4238 2003 3986 
Q 1606 3734 1313 3219 
Q 1125 2891 1026 2522 
Q 928 2153 928 1778 
Q 928 1128 1239 775 
Q 1550 422 2119 422 
Q 2631 422 3032 676 
Q 3434 931 3719 1434 
Q 3909 1772 4009 2142 
Q 4109 2513 4109 2881 
Q 4109 3528 3796 3883 
Q 3484 4238 2919 4238 
z
M 2100 -91 
Q 1241 -91 748 418 
Q 256 928 256 1813 
Q 256 2319 448 2847 
Q 641 3375 978 3788 
Q 1375 4272 1862 4511 
Q 2350 4750 2938 4750 
Q 3794 4750 4287 4245 
Q 4781 3741 4781 2869 
Q 4781 2331 4593 1812 
Q 4406 1294 4056 872 
Q 3656 384 3173 146 
Q 2691 -91 2100 -91 
z
" transform="scale(0.015625)"/>
     <path id="DejaVuSans-Oblique-55" d="M 991 4666 
L 1625 4666 
L 1075 1831 
Q 1041 1641 1027 1517 
Q 1013 1394 1013 1300 
Q 1013 869 1253 645 
Q 1494 422 1959 422 
Q 2563 422 2898 753 
Q 3234 1084 3378 1831 
L 3928 4666 
L 4563 4666 
L 4000 1753 
Q 3816 809 3300 359 
Q 2784 -91 1888 -91 
Q 1188 -91 780 261 
Q 372 613 372 1216 
Q 372 1325 387 1461 
Q 403 1597 434 1753 
L 991 4666 
z
" transform="scale(0.015625)"/>
     <path id="DejaVuSans-Oblique-4e" d="M 1081 4666 
L 1931 4666 
L 3219 666 
L 4000 4666 
L 4616 4666 
L 3706 0 
L 2853 0 
L 1569 4025 
L 788 0 
L 172 0 
L 1081 4666 
z
" transform="scale(0.015625)"/>
     <path id="DejaVuSans-Oblique-54" d="M 378 4666 
L 4325 4666 
L 4225 4134 
L 2559 4134 
L 1759 0 
L 1125 0 
L 1925 4134 
L 275 4134 
L 378 4666 
z
" transform="scale(0.015625)"/>
     <path id="DejaVuSans-Oblique-53" d="M 3859 4513 
L 3738 3897 
Q 3422 4066 3111 4152 
Q 2800 4238 2509 4238 
Q 1944 4238 1609 3991 
Q 1275 3744 1275 3334 
Q 1275 3109 1398 2989 
Q 1522 2869 2034 2731 
L 2413 2638 
Q 3053 2472 3303 2217 
Q 3553 1963 3553 1503 
Q 3553 797 2998 353 
Q 2444 -91 1538 -91 
Q 1166 -91 791 -17 
Q 416 56 38 206 
L 166 856 
Q 513 641 861 531 
Q 1209 422 1556 422 
Q 2147 422 2503 684 
Q 2859 947 2859 1369 
Q 2859 1650 2717 1795 
Q 2575 1941 2106 2059 
L 1728 2156 
Q 1081 2325 845 2545 
Q 609 2766 609 3163 
Q 609 3859 1145 4304 
Q 1681 4750 2541 4750 
Q 2875 4750 3203 4690 
Q 3531 4631 3859 4513 
z
" transform="scale(0.015625)"/>
     <path id="DejaVuSans-2f" d="M 1625 4666 
L 2156 4666 
L 531 -594 
L 0 -594 
L 1625 4666 
z
" transform="scale(0.015625)"/>
     <path id="DejaVuSans-Oblique-48" d="M 1081 4666 
L 1716 4666 
L 1344 2753 
L 3634 2753 
L 4006 4666 
L 4641 4666 
L 3731 0 
L 3097 0 
L 3531 2222 
L 1241 2222 
L 806 0 
L 172 0 
L 1081 4666 
z
" transform="scale(0.015625)"/>
     <path id="DejaVuSans-Oblique-5a" d="M 838 4666 
L 4500 4666 
L 4409 4184 
L 794 531 
L 3769 531 
L 3669 0 
L -141 0 
L -50 481 
L 3566 4134 
L 738 4134 
L 838 4666 
z
" transform="scale(0.015625)"/>
    </defs>
    <use xlink:href="#DejaVuSans-50" transform="translate(0 0.765625)"/>
    <use xlink:href="#DejaVuSans-53" transform="translate(60.302734 0.765625)"/>
    <use xlink:href="#DejaVuSans-44" transform="translate(123.779297 0.765625)"/>
    <use xlink:href="#DejaVuSans-20" transform="translate(200.78125 0.765625)"/>
    <use xlink:href="#DejaVuSans-28" transform="translate(232.568359 0.765625)"/>
    <use xlink:href="#DejaVuSans-Oblique-43" transform="translate(271.582031 0.765625)"/>
    <use xlink:href="#DejaVuSans-Oblique-4f" transform="translate(341.40625 0.765625)"/>
    <use xlink:href="#DejaVuSans-Oblique-55" transform="translate(420.117188 0.765625)"/>
    <use xlink:href="#DejaVuSans-Oblique-4e" transform="translate(493.310547 0.765625)"/>
    <use xlink:href="#DejaVuSans-Oblique-54" transform="translate(568.115234 0.765625)"/>
    <use xlink:href="#DejaVuSans-Oblique-53" transform="translate(629.199219 0.765625)"/>
    <use xlink:href="#DejaVuSans-32" transform="translate(699.876302 39.046875) scale(0.7)"/>
    <use xlink:href="#DejaVuSans-2f" transform="translate(747.14681 0.765625)"/>
    <use xlink:href="#DejaVuSans-Oblique-48" transform="translate(779.088216 0.765625)"/>
    <use xlink:href="#DejaVuSans-Oblique-5a" transform="translate(854.283529 0.765625)"/>
    <use xlink:href="#DejaVuSans-29" transform="translate(922.789388 0.765625)"/>
   </g>
  </g>
  <g id="text_28">
   <!-- PERIOD (HOUR) -->
   <g transform="translate(204.924375 496.464375) scale(0.12 -0.12)">
    <use xlink:href="#DejaVuSans-50"/>
    <use xlink:href="#DejaVuSans-45" x="60.302734"/>
    <use xlink:href="#DejaVuSans-52" x="123.486328"/>
    <use xlink:href="#DejaVuSans-49" x="192.96875"/>
    <use xlink:href="#DejaVuSans-4f" x="222.460938"/>
    <use xlink:href="#DejaVuSans-44" x="301.171875"/>
    <use xlink:href="#DejaVuSans-20" x="378.173828"/>
    <use xlink:href="#DejaVuSans-28" x="409.960938"/>
    <use xlink:href="#DejaVuSans-48" x="448.974609"/>
    <use xlink:href="#DejaVuSans-4f" x="524.169922"/>
    <use xlink:href="#DejaVuSans-55" x="602.880859"/>
    <use xlink:href="#DejaVuSans-52" x="676.074219"/>
    <use xlink:href="#DejaVuSans-29" x="745.556641"/>
   </g>
  </g>
  <g id="text_29">
   <!-- PERIODOGRAM OF CONTINUOUS - ANIMAL 01 -->
   <g transform="translate(115.590937 19.198125) scale(0.12 -0.12)">
    <defs>
     <path id="DejaVuSans-47" d="M 3809 666 
L 3809 1919 
L 2778 1919 
L 2778 2438 
L 4434 2438 
L 4434 434 
Q 4069 175 3628 42 
Q 3188 -91 2688 -91 
Q 1594 -91 976 548 
Q 359 1188 359 2328 
Q 359 3472 976 4111 
Q 1594 4750 2688 4750 
Q 3144 4750 3555 4637 
Q 3966 4525 4313 4306 
L 4313 3634 
Q 3963 3931 3569 4081 
Q 3175 4231 2741 4231 
Q 1884 4231 1454 3753 
Q 1025 3275 1025 2328 
Q 1025 1384 1454 906 
Q 1884 428 2741 428 
Q 3075 428 3337 486 
Q 3600 544 3809 666 
z
" transform="scale(0.015625)"/>
     <path id="DejaVuSans-4d" d="M 628 4666 
L 1569 4666 
L 2759 1491 
L 3956 4666 
L 4897 4666 
L 4897 0 
L 4281 0 
L 4281 4097 
L 3078 897 
L 2444 897 
L 1241 4097 
L 1241 0 
L 628 0 
L 628 4666 
z
" transform="scale(0.015625)"/>
     <path id="DejaVuSans-46" d="M 628 4666 
L 3309 4666 
L 3309 4134 
L 1259 4134 
L 1259 2759 
L 3109 2759 
L 3109 2228 
L 1259 2228 
L 1259 0 
L 628 0 
L 628 4666 
z
" transform="scale(0.015625)"/>
     <path id="DejaVuSans-2d" d="M 313 2009 
L 1997 2009 
L 1997 1497 
L 313 1497 
L 313 2009 
z
" transform="scale(0.015625)"/>
    </defs>
    <use xlink:href="#DejaVuSans-50"/>
    <use xlink:href="#DejaVuSans-45" x="60.302734"/>
    <use xlink:href="#DejaVuSans-52" x="123.486328"/>
    <use xlink:href="#DejaVuSans-49" x="192.96875"/>
    <use xlink:href="#DejaVuSans-4f" x="222.460938"/>
    <use xlink:href="#DejaVuSans-44" x="301.171875"/>
    <use xlink:href="#DejaVuSans-4f" x="378.173828"/>
    <use xlink:href="#DejaVuSans-47" x="456.884766"/>
    <use xlink:href="#DejaVuSans-52" x="534.375"/>
    <use xlink:href="#DejaVuSans-41" x="599.857422"/>
    <use xlink:href="#DejaVuSans-4d" x="668.265625"/>
    <use xlink:href="#DejaVuSans-20" x="754.544922"/>
    <use xlink:href="#DejaVuSans-4f" x="786.332031"/>
    <use xlink:href="#DejaVuSans-46" x="865.042969"/>
    <use xlink:href="#DejaVuSans-20" x="922.5625"/>
    <use xlink:href="#DejaVuSans-43" x="954.349609"/>
    <use xlink:href="#DejaVuSans-4f" x="1024.173828"/>
    <use xlink:href="#DejaVuSans-4e" x="1102.884766"/>
    <use xlink:href="#DejaVuSans-54" x="1177.689453"/>
    <use xlink:href="#DejaVuSans-49" x="1238.773438"/>
    <use xlink:href="#DejaVuSans-4e" x="1268.265625"/>
    <use xlink:href="#DejaVuSans-55" x="1343.070312"/>
    <use xlink:href="#DejaVuSans-4f" x="1416.263672"/>
    <use xlink:href="#DejaVuSans-55" x="1494.974609"/>
    <use xlink:href="#DejaVuSans-53" x="1568.167969"/>
    <use xlink:href="#DejaVuSans-20" x="1631.644531"/>
    <use xlink:href="#DejaVuSans-2d" x="1663.431641"/>
    <use xlink:href="#DejaVuSans-20" x="1699.515625"/>
    <use xlink:href="#DejaVuSans-41" x="1731.302734"/>
    <use xlink:href="#DejaVuSans-4e" x="1799.710938"/>
    <use xlink:href="#DejaVuSans-49" x="1874.515625"/>
    <use xlink:href="#DejaVuSans-4d" x="1904.007812"/>
    <use xlink:href="#DejaVuSans-41" x="1990.287109"/>
    <use xlink:href="#DejaVuSans-4c" x="2058.695312"/>
    <use xlink:href="#DejaVuSans-20" x="2114.408203"/>
    <use xlink:href="#DejaVuSans-30" x="2146.195312"/>
    <use xlink:href="#DejaVuSans-31" x="2209.818359"/>
   </g>
  </g>
 </g>
 <defs>
  <clipPath id="p295346e1ef">
   <rect x="50.902" y="54.672" width="213.999" height="109.621333"/>
  </clipPath>
  <clipPath id="p8e176f1211">
   <rect x="279.201" y="54.672" width="213.999" height="109.621333"/>
  </clipPath>
  <clipPath id="p0cc09636b6">
   <rect x="50.902" y="198.705333" width="213.999" height="109.621333"/>
  </clipPath>
  <clipPath id="pccd30ad90a">
   <rect x="279.201" y="198.705333" width="213.999" height="109.621333"/>
  </clipPath>
  <clipPath id="pd7b176c134">
   <rect x="50.902" y="342.738667" width="213.999" height="109.621333"/>
  </clipPath>
 </defs>
</svg>
