<?xml version="1.0" encoding="utf-8" standalone="no"?>
<!DOCTYPE svg PUBLIC "-//W3C//DTD SVG 1.1//EN"
  "http://www.w3.org/Graphics/SVG/1.1/DTD/svg11.dtd">
<svg xmlns:xlink="http://www.w3.org/1999/xlink" width="460.8pt" height="345.6pt" viewBox="0 0 460.8 345.6" xmlns="http://www.w3.org/2000/svg" version="1.1">
 <metadata>
  <rdf:RDF xmlns:dc="http://purl.org/dc/elements/1.1/" xmlns:cc="http://creativecommons.org/ns#" xmlns:rdf="http://www.w3.org/1999/02/22-rdf-syntax-ns#">
   <cc:Work>
    <dc:type rdf:resource="http://purl.org/dc/dcmitype/StillImage"/>
    <dc:date>2023-08-03T23:16:13.792864</dc:date>
    <dc:format>image/svg+xml</dc:format>
    <dc:creator>
     <cc:Agent>
      <dc:title>Matplotlib v3.7.1, https://matplotlib.org/</dc:title>
     </cc:Agent>
    </dc:creator>
   </cc:Work>
  </rdf:RDF>
 </metadata>
 <defs>
  <style type="text/css">*{stroke-linejoin: round; stroke-linecap: butt}</style>
 </defs>
 <g id="figure_1">
  <g id="patch_1">
   <path d="M 0 345.6 
L 460.8 345.6 
L 460.8 0 
L 0 0 
z
" style="fill: #ffffff"/>
  </g>
  <g id="axes_1">
   <g id="patch_2">
    <path d="M 56 303.64 
L 450 303.64 
L 450 14.76 
L 56 14.76 
z
" style="fill: #ffffff"/>
   </g>
   <g id="patch_3">
    <path d="M 73.909091 207.346667 
L 92.435737 207.346667 
L 92.435737 168.44416 
L 73.909091 168.44416 
z
" clip-path="url(#p8b4ab2089d)" style="fill: #808080"/>
   </g>
   <g id="patch_4">
    <path d="M 197.420063 207.346667 
L 215.946708 207.346667 
L 215.946708 200.124667 
L 197.420063 200.124667 
z
" clip-path="url(#p8b4ab2089d)" style="fill: #808080"/>
   </g>
   <g id="patch_5">
    <path d="M 320.931034 207.346667 
L 339.45768 207.346667 
L 339.45768 200.991307 
L 320.931034 200.991307 
z
" clip-path="url(#p8b4ab2089d)" style="fill: #808080"/>
   </g>
   <g id="patch_6">
    <path d="M 92.435737 207.346667 
L 110.962382 207.346667 
L 110.962382 207.250373 
L 92.435737 207.250373 
z
" clip-path="url(#p8b4ab2089d)" style="fill: #a9a9a9"/>
   </g>
   <g id="patch_7">
    <path d="M 215.946708 207.346667 
L 234.473354 207.346667 
L 234.473354 187.125067 
L 215.946708 187.125067 
z
" clip-path="url(#p8b4ab2089d)" style="fill: #a9a9a9"/>
   </g>
   <g id="patch_8">
    <path d="M 339.45768 207.346667 
L 357.984326 207.346667 
L 357.984326 180.866 
L 339.45768 180.866 
z
" clip-path="url(#p8b4ab2089d)" style="fill: #a9a9a9"/>
   </g>
   <g id="patch_9">
    <path d="M 110.962382 207.346667 
L 129.489028 207.346667 
L 129.489028 203.10976 
L 110.962382 203.10976 
z
" clip-path="url(#p8b4ab2089d)" style="fill: #b0c4de"/>
   </g>
   <g id="patch_10">
    <path d="M 234.473354 207.346667 
L 253 207.346667 
L 253 181.44376 
L 234.473354 181.44376 
z
" clip-path="url(#p8b4ab2089d)" style="fill: #b0c4de"/>
   </g>
   <g id="patch_11">
    <path d="M 357.984326 207.346667 
L 376.510972 207.346667 
L 376.510972 206.961493 
L 357.984326 206.961493 
z
" clip-path="url(#p8b4ab2089d)" style="fill: #b0c4de"/>
   </g>
   <g id="patch_12">
    <path d="M 129.489028 207.346667 
L 148.015674 207.346667 
L 148.015674 194.635947 
L 129.489028 194.635947 
z
" clip-path="url(#p8b4ab2089d)" style="fill: #6495ed"/>
   </g>
   <g id="patch_13">
    <path d="M 253 207.346667 
L 271.526646 207.346667 
L 271.526646 201.0876 
L 253 201.0876 
z
" clip-path="url(#p8b4ab2089d)" style="fill: #6495ed"/>
   </g>
   <g id="patch_14">
    <path d="M 376.510972 207.346667 
L 395.037618 207.346667 
L 395.037618 201.857947 
L 376.510972 201.857947 
z
" clip-path="url(#p8b4ab2089d)" style="fill: #6495ed"/>
   </g>
   <g id="patch_15">
    <path d="M 148.015674 207.346667 
L 166.54232 207.346667 
L 166.54232 178.169787 
L 148.015674 178.169787 
z
" clip-path="url(#p8b4ab2089d)" style="fill: #4169e1"/>
   </g>
   <g id="patch_16">
    <path d="M 271.526646 207.346667 
L 290.053292 207.346667 
L 290.053292 199.258027 
L 271.526646 199.258027 
z
" clip-path="url(#p8b4ab2089d)" style="fill: #4169e1"/>
   </g>
   <g id="patch_17">
    <path d="M 395.037618 207.346667 
L 413.564263 207.346667 
L 413.564263 190.206453 
L 395.037618 190.206453 
z
" clip-path="url(#p8b4ab2089d)" style="fill: #4169e1"/>
   </g>
   <g id="patch_18">
    <path d="M 166.54232 207.346667 
L 185.068966 207.346667 
L 185.068966 194.539653 
L 166.54232 194.539653 
z
" clip-path="url(#p8b4ab2089d)" style="fill: #191970"/>
   </g>
   <g id="patch_19">
    <path d="M 290.053292 207.346667 
L 308.579937 207.346667 
L 308.579937 207.346667 
L 290.053292 207.346667 
z
" clip-path="url(#p8b4ab2089d)" style="fill: #191970"/>
   </g>
   <g id="patch_20">
    <path d="M 413.564263 207.346667 
L 432.090909 207.346667 
L 432.090909 203.013467 
L 413.564263 203.013467 
z
" clip-path="url(#p8b4ab2089d)" style="fill: #191970"/>
   </g>
   <g id="matplotlib.axis_1">
    <g id="xtick_1">
     <g id="line2d_1">
      <defs>
       <path id="mc2a76368ac" d="M 0 0 
L 0 3.5 
" style="stroke: #000000; stroke-width: 0.8"/>
      </defs>
      <g>
       <use xlink:href="#mc2a76368ac" x="120.225705" y="303.64" style="stroke: #000000; stroke-width: 0.8"/>
      </g>
     </g>
     <g id="text_1">
      <!-- SAWTOOTH -->
      <g transform="translate(91.12883 318.238437) scale(0.1 -0.1)">
       <defs>
        <path id="DejaVuSans-53" d="M 3425 4513 
L 3425 3897 
Q 3066 4069 2747 4153 
Q 2428 4238 2131 4238 
Q 1616 4238 1336 4038 
Q 1056 3838 1056 3469 
Q 1056 3159 1242 3001 
Q 1428 2844 1947 2747 
L 2328 2669 
Q 3034 2534 3370 2195 
Q 3706 1856 3706 1288 
Q 3706 609 3251 259 
Q 2797 -91 1919 -91 
Q 1588 -91 1214 -16 
Q 841 59 441 206 
L 441 856 
Q 825 641 1194 531 
Q 1563 422 1919 422 
Q 2459 422 2753 634 
Q 3047 847 3047 1241 
Q 3047 1584 2836 1778 
Q 2625 1972 2144 2069 
L 1759 2144 
Q 1053 2284 737 2584 
Q 422 2884 422 3419 
Q 422 4038 858 4394 
Q 1294 4750 2059 4750 
Q 2388 4750 2728 4690 
Q 3069 4631 3425 4513 
z
" transform="scale(0.015625)"/>
        <path id="DejaVuSans-41" d="M 2188 4044 
L 1331 1722 
L 3047 1722 
L 2188 4044 
z
M 1831 4666 
L 2547 4666 
L 4325 0 
L 3669 0 
L 3244 1197 
L 1141 1197 
L 716 0 
L 50 0 
L 1831 4666 
z
" transform="scale(0.015625)"/>
        <path id="DejaVuSans-57" d="M 213 4666 
L 850 4666 
L 1831 722 
L 2809 4666 
L 3519 4666 
L 4500 722 
L 5478 4666 
L 6119 4666 
L 4947 0 
L 4153 0 
L 3169 4050 
L 2175 0 
L 1381 0 
L 213 4666 
z
" transform="scale(0.015625)"/>
        <path id="DejaVuSans-54" d="M -19 4666 
L 3928 4666 
L 3928 4134 
L 2272 4134 
L 2272 0 
L 1638 0 
L 1638 4134 
L -19 4134 
L -19 4666 
z
" transform="scale(0.015625)"/>
        <path id="DejaVuSans-4f" d="M 2522 4238 
Q 1834 4238 1429 3725 
Q 1025 3213 1025 2328 
Q 1025 1447 1429 934 
Q 1834 422 2522 422 
Q 3209 422 3611 934 
Q 4013 1447 4013 2328 
Q 4013 3213 3611 3725 
Q 3209 4238 2522 4238 
z
M 2522 4750 
Q 3503 4750 4090 4092 
Q 4678 3434 4678 2328 
Q 4678 1225 4090 567 
Q 3503 -91 2522 -91 
Q 1538 -91 948 565 
Q 359 1222 359 2328 
Q 359 3434 948 4092 
Q 1538 4750 2522 4750 
z
" transform="scale(0.015625)"/>
        <path id="DejaVuSans-48" d="M 628 4666 
L 1259 4666 
L 1259 2753 
L 3553 2753 
L 3553 4666 
L 4184 4666 
L 4184 0 
L 3553 0 
L 3553 2222 
L 1259 2222 
L 1259 0 
L 628 0 
L 628 4666 
z
" transform="scale(0.015625)"/>
       </defs>
       <use xlink:href="#DejaVuSans-53"/>
       <use xlink:href="#DejaVuSans-41" x="65.351562"/>
       <use xlink:href="#DejaVuSans-57" x="128.259766"/>
       <use xlink:href="#DejaVuSans-54" x="227.136719"/>
       <use xlink:href="#DejaVuSans-4f" x="288.220703"/>
       <use xlink:href="#DejaVuSans-4f" x="366.931641"/>
       <use xlink:href="#DejaVuSans-54" x="445.642578"/>
       <use xlink:href="#DejaVuSans-48" x="506.726562"/>
      </g>
     </g>
    </g>
    <g id="xtick_2">
     <g id="line2d_2">
      <g>
       <use xlink:href="#mc2a76368ac" x="243.736677" y="303.64" style="stroke: #000000; stroke-width: 0.8"/>
      </g>
     </g>
     <g id="text_2">
      <!-- SINE -->
      <g transform="translate(232.187458 318.238437) scale(0.1 -0.1)">
       <defs>
        <path id="DejaVuSans-49" d="M 628 4666 
L 1259 4666 
L 1259 0 
L 628 0 
L 628 4666 
z
" transform="scale(0.015625)"/>
        <path id="DejaVuSans-4e" d="M 628 4666 
L 1478 4666 
L 3547 763 
L 3547 4666 
L 4159 4666 
L 4159 0 
L 3309 0 
L 1241 3903 
L 1241 0 
L 628 0 
L 628 4666 
z
" transform="scale(0.015625)"/>
        <path id="DejaVuSans-45" d="M 628 4666 
L 3578 4666 
L 3578 4134 
L 1259 4134 
L 1259 2753 
L 3481 2753 
L 3481 2222 
L 1259 2222 
L 1259 531 
L 3634 531 
L 3634 0 
L 628 0 
L 628 4666 
z
" transform="scale(0.015625)"/>
       </defs>
       <use xlink:href="#DejaVuSans-53"/>
       <use xlink:href="#DejaVuSans-49" x="63.476562"/>
       <use xlink:href="#DejaVuSans-4e" x="92.96875"/>
       <use xlink:href="#DejaVuSans-45" x="167.773438"/>
      </g>
     </g>
    </g>
    <g id="xtick_3">
     <g id="line2d_3">
      <g>
       <use xlink:href="#mc2a76368ac" x="367.247649" y="303.64" style="stroke: #000000; stroke-width: 0.8"/>
      </g>
     </g>
     <g id="text_3">
      <!-- SQUARE -->
      <g transform="translate(346.424211 318.238437) scale(0.1 -0.1)">
       <defs>
        <path id="DejaVuSans-51" d="M 2522 4238 
Q 1834 4238 1429 3725 
Q 1025 3213 1025 2328 
Q 1025 1447 1429 934 
Q 1834 422 2522 422 
Q 3209 422 3611 934 
Q 4013 1447 4013 2328 
Q 4013 3213 3611 3725 
Q 3209 4238 2522 4238 
z
M 3406 84 
L 4238 -825 
L 3475 -825 
L 2784 -78 
Q 2681 -84 2626 -87 
Q 2572 -91 2522 -91 
Q 1538 -91 948 567 
Q 359 1225 359 2328 
Q 359 3434 948 4092 
Q 1538 4750 2522 4750 
Q 3503 4750 4090 4092 
Q 4678 3434 4678 2328 
Q 4678 1516 4351 937 
Q 4025 359 3406 84 
z
" transform="scale(0.015625)"/>
        <path id="DejaVuSans-55" d="M 556 4666 
L 1191 4666 
L 1191 1831 
Q 1191 1081 1462 751 
Q 1734 422 2344 422 
Q 2950 422 3222 751 
Q 3494 1081 3494 1831 
L 3494 4666 
L 4128 4666 
L 4128 1753 
Q 4128 841 3676 375 
Q 3225 -91 2344 -91 
Q 1459 -91 1007 375 
Q 556 841 556 1753 
L 556 4666 
z
" transform="scale(0.015625)"/>
        <path id="DejaVuSans-52" d="M 2841 2188 
Q 3044 2119 3236 1894 
Q 3428 1669 3622 1275 
L 4263 0 
L 3584 0 
L 2988 1197 
Q 2756 1666 2539 1819 
Q 2322 1972 1947 1972 
L 1259 1972 
L 1259 0 
L 628 0 
L 628 4666 
L 2053 4666 
Q 2853 4666 3247 4331 
Q 3641 3997 3641 3322 
Q 3641 2881 3436 2590 
Q 3231 2300 2841 2188 
z
M 1259 4147 
L 1259 2491 
L 2053 2491 
Q 2509 2491 2742 2702 
Q 2975 2913 2975 3322 
Q 2975 3731 2742 3939 
Q 2509 4147 2053 4147 
L 1259 4147 
z
" transform="scale(0.015625)"/>
       </defs>
       <use xlink:href="#DejaVuSans-53"/>
       <use xlink:href="#DejaVuSans-51" x="63.476562"/>
       <use xlink:href="#DejaVuSans-55" x="142.1875"/>
       <use xlink:href="#DejaVuSans-41" x="215.380859"/>
       <use xlink:href="#DejaVuSans-52" x="283.789062"/>
       <use xlink:href="#DejaVuSans-45" x="353.271484"/>
      </g>
     </g>
    </g>
    <g id="text_4">
     <!-- SIGNAL SHAPE -->
     <g transform="translate(216.411719 331.916562) scale(0.1 -0.1)">
      <defs>
       <path id="DejaVuSans-47" d="M 3809 666 
L 3809 1919 
L 2778 1919 
L 2778 2438 
L 4434 2438 
L 4434 434 
Q 4069 175 3628 42 
Q 3188 -91 2688 -91 
Q 1594 -91 976 548 
Q 359 1188 359 2328 
Q 359 3472 976 4111 
Q 1594 4750 2688 4750 
Q 3144 4750 3555 4637 
Q 3966 4525 4313 4306 
L 4313 3634 
Q 3963 3931 3569 4081 
Q 3175 4231 2741 4231 
Q 1884 4231 1454 3753 
Q 1025 3275 1025 2328 
Q 1025 1384 1454 906 
Q 1884 428 2741 428 
Q 3075 428 3337 486 
Q 3600 544 3809 666 
z
" transform="scale(0.015625)"/>
       <path id="DejaVuSans-4c" d="M 628 4666 
L 1259 4666 
L 1259 531 
L 3531 531 
L 3531 0 
L 628 0 
L 628 4666 
z
" transform="scale(0.015625)"/>
       <path id="DejaVuSans-20" transform="scale(0.015625)"/>
       <path id="DejaVuSans-50" d="M 1259 4147 
L 1259 2394 
L 2053 2394 
Q 2494 2394 2734 2622 
Q 2975 2850 2975 3272 
Q 2975 3691 2734 3919 
Q 2494 4147 2053 4147 
L 1259 4147 
z
M 628 4666 
L 2053 4666 
Q 2838 4666 3239 4311 
Q 3641 3956 3641 3272 
Q 3641 2581 3239 2228 
Q 2838 1875 2053 1875 
L 1259 1875 
L 1259 0 
L 628 0 
L 628 4666 
z
" transform="scale(0.015625)"/>
      </defs>
      <use xlink:href="#DejaVuSans-53"/>
      <use xlink:href="#DejaVuSans-49" x="63.476562"/>
      <use xlink:href="#DejaVuSans-47" x="92.96875"/>
      <use xlink:href="#DejaVuSans-4e" x="170.458984"/>
      <use xlink:href="#DejaVuSans-41" x="245.263672"/>
      <use xlink:href="#DejaVuSans-4c" x="313.671875"/>
      <use xlink:href="#DejaVuSans-20" x="369.384766"/>
      <use xlink:href="#DejaVuSans-53" x="401.171875"/>
      <use xlink:href="#DejaVuSans-48" x="464.648438"/>
      <use xlink:href="#DejaVuSans-41" x="539.84375"/>
      <use xlink:href="#DejaVuSans-50" x="608.251953"/>
      <use xlink:href="#DejaVuSans-45" x="668.554688"/>
     </g>
    </g>
   </g>
   <g id="matplotlib.axis_2">
    <g id="ytick_1">
     <g id="line2d_4">
      <defs>
       <path id="mf957d79e54" d="M 0 0 
L -3.5 0 
" style="stroke: #000000; stroke-width: 0.8"/>
      </defs>
      <g>
       <use xlink:href="#mf957d79e54" x="56" y="284.381333" style="stroke: #000000; stroke-width: 0.8"/>
      </g>
     </g>
     <g id="text_5">
      <!-- −0.4 -->
      <g transform="translate(24.717188 288.180552) scale(0.1 -0.1)">
       <defs>
        <path id="DejaVuSans-2212" d="M 678 2272 
L 4684 2272 
L 4684 1741 
L 678 1741 
L 678 2272 
z
" transform="scale(0.015625)"/>
        <path id="DejaVuSans-30" d="M 2034 4250 
Q 1547 4250 1301 3770 
Q 1056 3291 1056 2328 
Q 1056 1369 1301 889 
Q 1547 409 2034 409 
Q 2525 409 2770 889 
Q 3016 1369 3016 2328 
Q 3016 3291 2770 3770 
Q 2525 4250 2034 4250 
z
M 2034 4750 
Q 2819 4750 3233 4129 
Q 3647 3509 3647 2328 
Q 3647 1150 3233 529 
Q 2819 -91 2034 -91 
Q 1250 -91 836 529 
Q 422 1150 422 2328 
Q 422 3509 836 4129 
Q 1250 4750 2034 4750 
z
" transform="scale(0.015625)"/>
        <path id="DejaVuSans-2e" d="M 684 794 
L 1344 794 
L 1344 0 
L 684 0 
L 684 794 
z
" transform="scale(0.015625)"/>
        <path id="DejaVuSans-34" d="M 2419 4116 
L 825 1625 
L 2419 1625 
L 2419 4116 
z
M 2253 4666 
L 3047 4666 
L 3047 1625 
L 3713 1625 
L 3713 1100 
L 3047 1100 
L 3047 0 
L 2419 0 
L 2419 1100 
L 313 1100 
L 313 1709 
L 2253 4666 
z
" transform="scale(0.015625)"/>
       </defs>
       <use xlink:href="#DejaVuSans-2212"/>
       <use xlink:href="#DejaVuSans-30" x="83.789062"/>
       <use xlink:href="#DejaVuSans-2e" x="147.412109"/>
       <use xlink:href="#DejaVuSans-34" x="179.199219"/>
      </g>
     </g>
    </g>
    <g id="ytick_2">
     <g id="line2d_5">
      <g>
       <use xlink:href="#mf957d79e54" x="56" y="245.864" style="stroke: #000000; stroke-width: 0.8"/>
      </g>
     </g>
     <g id="text_6">
      <!-- −0.2 -->
      <g transform="translate(24.717188 249.663219) scale(0.1 -0.1)">
       <defs>
        <path id="DejaVuSans-32" d="M 1228 531 
L 3431 531 
L 3431 0 
L 469 0 
L 469 531 
Q 828 903 1448 1529 
Q 2069 2156 2228 2338 
Q 2531 2678 2651 2914 
Q 2772 3150 2772 3378 
Q 2772 3750 2511 3984 
Q 2250 4219 1831 4219 
Q 1534 4219 1204 4116 
Q 875 4013 500 3803 
L 500 4441 
Q 881 4594 1212 4672 
Q 1544 4750 1819 4750 
Q 2544 4750 2975 4387 
Q 3406 4025 3406 3419 
Q 3406 3131 3298 2873 
Q 3191 2616 2906 2266 
Q 2828 2175 2409 1742 
Q 1991 1309 1228 531 
z
" transform="scale(0.015625)"/>
       </defs>
       <use xlink:href="#DejaVuSans-2212"/>
       <use xlink:href="#DejaVuSans-30" x="83.789062"/>
       <use xlink:href="#DejaVuSans-2e" x="147.412109"/>
       <use xlink:href="#DejaVuSans-32" x="179.199219"/>
      </g>
     </g>
    </g>
    <g id="ytick_3">
     <g id="line2d_6">
      <g>
       <use xlink:href="#mf957d79e54" x="56" y="207.346667" style="stroke: #000000; stroke-width: 0.8"/>
      </g>
     </g>
     <g id="text_7">
      <!-- 0.0 -->
      <g transform="translate(33.096875 211.145885) scale(0.1 -0.1)">
       <use xlink:href="#DejaVuSans-30"/>
       <use xlink:href="#DejaVuSans-2e" x="63.623047"/>
       <use xlink:href="#DejaVuSans-30" x="95.410156"/>
      </g>
     </g>
    </g>
    <g id="ytick_4">
     <g id="line2d_7">
      <g>
       <use xlink:href="#mf957d79e54" x="56" y="168.829333" style="stroke: #000000; stroke-width: 0.8"/>
      </g>
     </g>
     <g id="text_8">
      <!-- 0.2 -->
      <g transform="translate(33.096875 172.628552) scale(0.1 -0.1)">
       <use xlink:href="#DejaVuSans-30"/>
       <use xlink:href="#DejaVuSans-2e" x="63.623047"/>
       <use xlink:href="#DejaVuSans-32" x="95.410156"/>
      </g>
     </g>
    </g>
    <g id="ytick_5">
     <g id="line2d_8">
      <g>
       <use xlink:href="#mf957d79e54" x="56" y="130.312" style="stroke: #000000; stroke-width: 0.8"/>
      </g>
     </g>
     <g id="text_9">
      <!-- 0.4 -->
      <g transform="translate(33.096875 134.111219) scale(0.1 -0.1)">
       <use xlink:href="#DejaVuSans-30"/>
       <use xlink:href="#DejaVuSans-2e" x="63.623047"/>
       <use xlink:href="#DejaVuSans-34" x="95.410156"/>
      </g>
     </g>
    </g>
    <g id="ytick_6">
     <g id="line2d_9">
      <g>
       <use xlink:href="#mf957d79e54" x="56" y="91.794667" style="stroke: #000000; stroke-width: 0.8"/>
      </g>
     </g>
     <g id="text_10">
      <!-- 0.6 -->
      <g transform="translate(33.096875 95.593885) scale(0.1 -0.1)">
       <defs>
        <path id="DejaVuSans-36" d="M 2113 2584 
Q 1688 2584 1439 2293 
Q 1191 2003 1191 1497 
Q 1191 994 1439 701 
Q 1688 409 2113 409 
Q 2538 409 2786 701 
Q 3034 994 3034 1497 
Q 3034 2003 2786 2293 
Q 2538 2584 2113 2584 
z
M 3366 4563 
L 3366 3988 
Q 3128 4100 2886 4159 
Q 2644 4219 2406 4219 
Q 1781 4219 1451 3797 
Q 1122 3375 1075 2522 
Q 1259 2794 1537 2939 
Q 1816 3084 2150 3084 
Q 2853 3084 3261 2657 
Q 3669 2231 3669 1497 
Q 3669 778 3244 343 
Q 2819 -91 2113 -91 
Q 1303 -91 875 529 
Q 447 1150 447 2328 
Q 447 3434 972 4092 
Q 1497 4750 2381 4750 
Q 2619 4750 2861 4703 
Q 3103 4656 3366 4563 
z
" transform="scale(0.015625)"/>
       </defs>
       <use xlink:href="#DejaVuSans-30"/>
       <use xlink:href="#DejaVuSans-2e" x="63.623047"/>
       <use xlink:href="#DejaVuSans-36" x="95.410156"/>
      </g>
     </g>
    </g>
    <g id="ytick_7">
     <g id="line2d_10">
      <g>
       <use xlink:href="#mf957d79e54" x="56" y="53.277333" style="stroke: #000000; stroke-width: 0.8"/>
      </g>
     </g>
     <g id="text_11">
      <!-- 0.8 -->
      <g transform="translate(33.096875 57.076552) scale(0.1 -0.1)">
       <defs>
        <path id="DejaVuSans-38" d="M 2034 2216 
Q 1584 2216 1326 1975 
Q 1069 1734 1069 1313 
Q 1069 891 1326 650 
Q 1584 409 2034 409 
Q 2484 409 2743 651 
Q 3003 894 3003 1313 
Q 3003 1734 2745 1975 
Q 2488 2216 2034 2216 
z
M 1403 2484 
Q 997 2584 770 2862 
Q 544 3141 544 3541 
Q 544 4100 942 4425 
Q 1341 4750 2034 4750 
Q 2731 4750 3128 4425 
Q 3525 4100 3525 3541 
Q 3525 3141 3298 2862 
Q 3072 2584 2669 2484 
Q 3125 2378 3379 2068 
Q 3634 1759 3634 1313 
Q 3634 634 3220 271 
Q 2806 -91 2034 -91 
Q 1263 -91 848 271 
Q 434 634 434 1313 
Q 434 1759 690 2068 
Q 947 2378 1403 2484 
z
M 1172 3481 
Q 1172 3119 1398 2916 
Q 1625 2713 2034 2713 
Q 2441 2713 2670 2916 
Q 2900 3119 2900 3481 
Q 2900 3844 2670 4047 
Q 2441 4250 2034 4250 
Q 1625 4250 1398 4047 
Q 1172 3844 1172 3481 
z
" transform="scale(0.015625)"/>
       </defs>
       <use xlink:href="#DejaVuSans-30"/>
       <use xlink:href="#DejaVuSans-2e" x="63.623047"/>
       <use xlink:href="#DejaVuSans-38" x="95.410156"/>
      </g>
     </g>
    </g>
    <g id="ytick_8">
     <g id="line2d_11">
      <g>
       <use xlink:href="#mf957d79e54" x="56" y="14.76" style="stroke: #000000; stroke-width: 0.8"/>
      </g>
     </g>
     <g id="text_12">
      <!-- 1.0 -->
      <g transform="translate(33.096875 18.559219) scale(0.1 -0.1)">
       <defs>
        <path id="DejaVuSans-31" d="M 794 531 
L 1825 531 
L 1825 4091 
L 703 3866 
L 703 4441 
L 1819 4666 
L 2450 4666 
L 2450 531 
L 3481 531 
L 3481 0 
L 794 0 
L 794 531 
z
" transform="scale(0.015625)"/>
       </defs>
       <use xlink:href="#DejaVuSans-31"/>
       <use xlink:href="#DejaVuSans-2e" x="63.623047"/>
       <use xlink:href="#DejaVuSans-30" x="95.410156"/>
      </g>
     </g>
    </g>
    <g id="text_13">
     <!-- ERROR IN HOURS (CIRCADIPY - GROUND TRUTH)  -->
     <g transform="translate(18.6375 282.685937) rotate(-90) scale(0.1 -0.1)">
      <defs>
       <path id="DejaVuSans-28" d="M 1984 4856 
Q 1566 4138 1362 3434 
Q 1159 2731 1159 2009 
Q 1159 1288 1364 580 
Q 1569 -128 1984 -844 
L 1484 -844 
Q 1016 -109 783 600 
Q 550 1309 550 2009 
Q 550 2706 781 3412 
Q 1013 4119 1484 4856 
L 1984 4856 
z
" transform="scale(0.015625)"/>
       <path id="DejaVuSans-43" d="M 4122 4306 
L 4122 3641 
Q 3803 3938 3442 4084 
Q 3081 4231 2675 4231 
Q 1875 4231 1450 3742 
Q 1025 3253 1025 2328 
Q 1025 1406 1450 917 
Q 1875 428 2675 428 
Q 3081 428 3442 575 
Q 3803 722 4122 1019 
L 4122 359 
Q 3791 134 3420 21 
Q 3050 -91 2638 -91 
Q 1578 -91 968 557 
Q 359 1206 359 2328 
Q 359 3453 968 4101 
Q 1578 4750 2638 4750 
Q 3056 4750 3426 4639 
Q 3797 4528 4122 4306 
z
" transform="scale(0.015625)"/>
       <path id="DejaVuSans-44" d="M 1259 4147 
L 1259 519 
L 2022 519 
Q 2988 519 3436 956 
Q 3884 1394 3884 2338 
Q 3884 3275 3436 3711 
Q 2988 4147 2022 4147 
L 1259 4147 
z
M 628 4666 
L 1925 4666 
Q 3281 4666 3915 4102 
Q 4550 3538 4550 2338 
Q 4550 1131 3912 565 
Q 3275 0 1925 0 
L 628 0 
L 628 4666 
z
" transform="scale(0.015625)"/>
       <path id="DejaVuSans-59" d="M -13 4666 
L 666 4666 
L 1959 2747 
L 3244 4666 
L 3922 4666 
L 2272 2222 
L 2272 0 
L 1638 0 
L 1638 2222 
L -13 4666 
z
" transform="scale(0.015625)"/>
       <path id="DejaVuSans-2d" d="M 313 2009 
L 1997 2009 
L 1997 1497 
L 313 1497 
L 313 2009 
z
" transform="scale(0.015625)"/>
       <path id="DejaVuSans-29" d="M 513 4856 
L 1013 4856 
Q 1481 4119 1714 3412 
Q 1947 2706 1947 2009 
Q 1947 1309 1714 600 
Q 1481 -109 1013 -844 
L 513 -844 
Q 928 -128 1133 580 
Q 1338 1288 1338 2009 
Q 1338 2731 1133 3434 
Q 928 4138 513 4856 
z
" transform="scale(0.015625)"/>
      </defs>
      <use xlink:href="#DejaVuSans-45"/>
      <use xlink:href="#DejaVuSans-52" x="63.183594"/>
      <use xlink:href="#DejaVuSans-52" x="132.666016"/>
      <use xlink:href="#DejaVuSans-4f" x="202.148438"/>
      <use xlink:href="#DejaVuSans-52" x="280.859375"/>
      <use xlink:href="#DejaVuSans-20" x="350.341797"/>
      <use xlink:href="#DejaVuSans-49" x="382.128906"/>
      <use xlink:href="#DejaVuSans-4e" x="411.621094"/>
      <use xlink:href="#DejaVuSans-20" x="486.425781"/>
      <use xlink:href="#DejaVuSans-48" x="518.212891"/>
      <use xlink:href="#DejaVuSans-4f" x="593.408203"/>
      <use xlink:href="#DejaVuSans-55" x="672.119141"/>
      <use xlink:href="#DejaVuSans-52" x="745.3125"/>
      <use xlink:href="#DejaVuSans-53" x="814.794922"/>
      <use xlink:href="#DejaVuSans-20" x="878.271484"/>
      <use xlink:href="#DejaVuSans-28" x="910.058594"/>
      <use xlink:href="#DejaVuSans-43" x="949.072266"/>
      <use xlink:href="#DejaVuSans-49" x="1018.896484"/>
      <use xlink:href="#DejaVuSans-52" x="1048.388672"/>
      <use xlink:href="#DejaVuSans-43" x="1112.871094"/>
      <use xlink:href="#DejaVuSans-41" x="1182.695312"/>
      <use xlink:href="#DejaVuSans-44" x="1251.103516"/>
      <use xlink:href="#DejaVuSans-49" x="1328.105469"/>
      <use xlink:href="#DejaVuSans-50" x="1357.597656"/>
      <use xlink:href="#DejaVuSans-59" x="1415.650391"/>
      <use xlink:href="#DejaVuSans-20" x="1476.734375"/>
      <use xlink:href="#DejaVuSans-2d" x="1508.521484"/>
      <use xlink:href="#DejaVuSans-20" x="1544.605469"/>
      <use xlink:href="#DejaVuSans-47" x="1576.392578"/>
      <use xlink:href="#DejaVuSans-52" x="1653.882812"/>
      <use xlink:href="#DejaVuSans-4f" x="1723.365234"/>
      <use xlink:href="#DejaVuSans-55" x="1802.076172"/>
      <use xlink:href="#DejaVuSans-4e" x="1875.269531"/>
      <use xlink:href="#DejaVuSans-44" x="1950.074219"/>
      <use xlink:href="#DejaVuSans-20" x="2027.076172"/>
      <use xlink:href="#DejaVuSans-54" x="2058.863281"/>
      <use xlink:href="#DejaVuSans-52" x="2119.947266"/>
      <use xlink:href="#DejaVuSans-55" x="2189.429688"/>
      <use xlink:href="#DejaVuSans-54" x="2262.623047"/>
      <use xlink:href="#DejaVuSans-48" x="2323.707031"/>
      <use xlink:href="#DejaVuSans-29" x="2398.902344"/>
      <use xlink:href="#DejaVuSans-20" x="2437.916016"/>
     </g>
    </g>
   </g>
   <g id="LineCollection_1">
    <path d="M 83.172414 251.387551 
L 83.172414 85.500769 
" clip-path="url(#p8b4ab2089d)" style="fill: none; stroke: #000000; stroke-width: 1.5"/>
    <path d="M 206.683386 254.681023 
L 206.683386 145.568311 
" clip-path="url(#p8b4ab2089d)" style="fill: none; stroke: #000000; stroke-width: 1.5"/>
    <path d="M 330.194357 251.722817 
L 330.194357 150.259797 
" clip-path="url(#p8b4ab2089d)" style="fill: none; stroke: #000000; stroke-width: 1.5"/>
   </g>
   <g id="line2d_12">
    <defs>
     <path id="mfc27138622" d="M 3 0 
L -3 -0 
" style="stroke: #000000"/>
    </defs>
    <g clip-path="url(#p8b4ab2089d)">
     <use xlink:href="#mfc27138622" x="83.172414" y="251.387551" style="stroke: #000000"/>
     <use xlink:href="#mfc27138622" x="206.683386" y="254.681023" style="stroke: #000000"/>
     <use xlink:href="#mfc27138622" x="330.194357" y="251.722817" style="stroke: #000000"/>
    </g>
   </g>
   <g id="line2d_13">
    <g clip-path="url(#p8b4ab2089d)">
     <use xlink:href="#mfc27138622" x="83.172414" y="85.500769" style="stroke: #000000"/>
     <use xlink:href="#mfc27138622" x="206.683386" y="145.568311" style="stroke: #000000"/>
     <use xlink:href="#mfc27138622" x="330.194357" y="150.259797" style="stroke: #000000"/>
    </g>
   </g>
   <g id="LineCollection_2">
    <path d="M 101.69906 297.900152 
L 101.69906 116.600594 
" clip-path="url(#p8b4ab2089d)" style="fill: none; stroke: #000000; stroke-width: 1.5"/>
    <path d="M 225.210031 275.502205 
L 225.210031 98.747929 
" clip-path="url(#p8b4ab2089d)" style="fill: none; stroke: #000000; stroke-width: 1.5"/>
    <path d="M 348.721003 265.371561 
L 348.721003 96.360439 
" clip-path="url(#p8b4ab2089d)" style="fill: none; stroke: #000000; stroke-width: 1.5"/>
   </g>
   <g id="line2d_14">
    <g clip-path="url(#p8b4ab2089d)">
     <use xlink:href="#mfc27138622" x="101.69906" y="297.900152" style="stroke: #000000"/>
     <use xlink:href="#mfc27138622" x="225.210031" y="275.502205" style="stroke: #000000"/>
     <use xlink:href="#mfc27138622" x="348.721003" y="265.371561" style="stroke: #000000"/>
    </g>
   </g>
   <g id="line2d_15">
    <g clip-path="url(#p8b4ab2089d)">
     <use xlink:href="#mfc27138622" x="101.69906" y="116.600594" style="stroke: #000000"/>
     <use xlink:href="#mfc27138622" x="225.210031" y="98.747929" style="stroke: #000000"/>
     <use xlink:href="#mfc27138622" x="348.721003" y="96.360439" style="stroke: #000000"/>
    </g>
   </g>
   <g id="LineCollection_3">
    <path d="M 120.225705 285.458522 
L 120.225705 120.760998 
" clip-path="url(#p8b4ab2089d)" style="fill: none; stroke: #000000; stroke-width: 1.5"/>
    <path d="M 243.736677 245.475496 
L 243.736677 117.412024 
" clip-path="url(#p8b4ab2089d)" style="fill: none; stroke: #000000; stroke-width: 1.5"/>
    <path d="M 367.247649 268.660202 
L 367.247649 145.262785 
" clip-path="url(#p8b4ab2089d)" style="fill: none; stroke: #000000; stroke-width: 1.5"/>
   </g>
   <g id="line2d_16">
    <g clip-path="url(#p8b4ab2089d)">
     <use xlink:href="#mfc27138622" x="120.225705" y="285.458522" style="stroke: #000000"/>
     <use xlink:href="#mfc27138622" x="243.736677" y="245.475496" style="stroke: #000000"/>
     <use xlink:href="#mfc27138622" x="367.247649" y="268.660202" style="stroke: #000000"/>
    </g>
   </g>
   <g id="line2d_17">
    <g clip-path="url(#p8b4ab2089d)">
     <use xlink:href="#mfc27138622" x="120.225705" y="120.760998" style="stroke: #000000"/>
     <use xlink:href="#mfc27138622" x="243.736677" y="117.412024" style="stroke: #000000"/>
     <use xlink:href="#mfc27138622" x="367.247649" y="145.262785" style="stroke: #000000"/>
    </g>
   </g>
   <g id="LineCollection_4">
    <path d="M 138.752351 236.460521 
L 138.752351 152.811372 
" clip-path="url(#p8b4ab2089d)" style="fill: none; stroke: #000000; stroke-width: 1.5"/>
    <path d="M 262.263323 220.555769 
L 262.263323 181.619431 
" clip-path="url(#p8b4ab2089d)" style="fill: none; stroke: #000000; stroke-width: 1.5"/>
    <path d="M 385.774295 227.819851 
L 385.774295 175.896043 
" clip-path="url(#p8b4ab2089d)" style="fill: none; stroke: #000000; stroke-width: 1.5"/>
   </g>
   <g id="line2d_18">
    <g clip-path="url(#p8b4ab2089d)">
     <use xlink:href="#mfc27138622" x="138.752351" y="236.460521" style="stroke: #000000"/>
     <use xlink:href="#mfc27138622" x="262.263323" y="220.555769" style="stroke: #000000"/>
     <use xlink:href="#mfc27138622" x="385.774295" y="227.819851" style="stroke: #000000"/>
    </g>
   </g>
   <g id="line2d_19">
    <g clip-path="url(#p8b4ab2089d)">
     <use xlink:href="#mfc27138622" x="138.752351" y="152.811372" style="stroke: #000000"/>
     <use xlink:href="#mfc27138622" x="262.263323" y="181.619431" style="stroke: #000000"/>
     <use xlink:href="#mfc27138622" x="385.774295" y="175.896043" style="stroke: #000000"/>
    </g>
   </g>
   <g id="LineCollection_5">
    <path d="M 157.278997 243.607537 
L 157.278997 112.732037 
" clip-path="url(#p8b4ab2089d)" style="fill: none; stroke: #000000; stroke-width: 1.5"/>
    <path d="M 280.789969 225.619195 
L 280.789969 172.896858 
" clip-path="url(#p8b4ab2089d)" style="fill: none; stroke: #000000; stroke-width: 1.5"/>
    <path d="M 404.30094 240.944543 
L 404.30094 139.468364 
" clip-path="url(#p8b4ab2089d)" style="fill: none; stroke: #000000; stroke-width: 1.5"/>
   </g>
   <g id="line2d_20">
    <g clip-path="url(#p8b4ab2089d)">
     <use xlink:href="#mfc27138622" x="157.278997" y="243.607537" style="stroke: #000000"/>
     <use xlink:href="#mfc27138622" x="280.789969" y="225.619195" style="stroke: #000000"/>
     <use xlink:href="#mfc27138622" x="404.30094" y="240.944543" style="stroke: #000000"/>
    </g>
   </g>
   <g id="line2d_21">
    <g clip-path="url(#p8b4ab2089d)">
     <use xlink:href="#mfc27138622" x="157.278997" y="112.732037" style="stroke: #000000"/>
     <use xlink:href="#mfc27138622" x="280.789969" y="172.896858" style="stroke: #000000"/>
     <use xlink:href="#mfc27138622" x="404.30094" y="139.468364" style="stroke: #000000"/>
    </g>
   </g>
   <g id="LineCollection_6">
    <path d="M 175.805643 233.721812 
L 175.805643 155.357495 
" clip-path="url(#p8b4ab2089d)" style="fill: none; stroke: #000000; stroke-width: 1.5"/>
    <path d="M 299.316614 207.346667 
L 299.316614 207.346667 
" clip-path="url(#p8b4ab2089d)" style="fill: none; stroke: #000000; stroke-width: 1.5"/>
    <path d="M 422.827586 219.801402 
L 422.827586 186.225531 
" clip-path="url(#p8b4ab2089d)" style="fill: none; stroke: #000000; stroke-width: 1.5"/>
   </g>
   <g id="line2d_22">
    <g clip-path="url(#p8b4ab2089d)">
     <use xlink:href="#mfc27138622" x="175.805643" y="233.721812" style="stroke: #000000"/>
     <use xlink:href="#mfc27138622" x="299.316614" y="207.346667" style="stroke: #000000"/>
     <use xlink:href="#mfc27138622" x="422.827586" y="219.801402" style="stroke: #000000"/>
    </g>
   </g>
   <g id="line2d_23">
    <g clip-path="url(#p8b4ab2089d)">
     <use xlink:href="#mfc27138622" x="175.805643" y="155.357495" style="stroke: #000000"/>
     <use xlink:href="#mfc27138622" x="299.316614" y="207.346667" style="stroke: #000000"/>
     <use xlink:href="#mfc27138622" x="422.827586" y="186.225531" style="stroke: #000000"/>
    </g>
   </g>
   <g id="patch_21">
    <path d="M 56 303.64 
L 56 14.76 
" style="fill: none; stroke: #000000; stroke-width: 0.8; stroke-linejoin: miter; stroke-linecap: square"/>
   </g>
   <g id="patch_22">
    <path d="M 450 303.64 
L 450 14.76 
" style="fill: none; stroke: #000000; stroke-width: 0.8; stroke-linejoin: miter; stroke-linecap: square"/>
   </g>
   <g id="patch_23">
    <path d="M 56 303.64 
L 450 303.64 
" style="fill: none; stroke: #000000; stroke-width: 0.8; stroke-linejoin: miter; stroke-linecap: square"/>
   </g>
   <g id="patch_24">
    <path d="M 56 14.76 
L 450 14.76 
" style="fill: none; stroke: #000000; stroke-width: 0.8; stroke-linejoin: miter; stroke-linecap: square"/>
   </g>
   <g id="legend_1">
    <g id="patch_25">
     <path d="M 265.89375 31.358437 
L 285.89375 31.358437 
L 285.89375 24.358437 
L 265.89375 24.358437 
z
" style="fill: #808080"/>
    </g>
    <g id="text_14">
     <!-- 0.1dB -->
     <g transform="translate(293.89375 31.358437) scale(0.1 -0.1)">
      <defs>
       <path id="DejaVuSans-64" d="M 2906 2969 
L 2906 4863 
L 3481 4863 
L 3481 0 
L 2906 0 
L 2906 525 
Q 2725 213 2448 61 
Q 2172 -91 1784 -91 
Q 1150 -91 751 415 
Q 353 922 353 1747 
Q 353 2572 751 3078 
Q 1150 3584 1784 3584 
Q 2172 3584 2448 3432 
Q 2725 3281 2906 2969 
z
M 947 1747 
Q 947 1113 1208 752 
Q 1469 391 1925 391 
Q 2381 391 2643 752 
Q 2906 1113 2906 1747 
Q 2906 2381 2643 2742 
Q 2381 3103 1925 3103 
Q 1469 3103 1208 2742 
Q 947 2381 947 1747 
z
" transform="scale(0.015625)"/>
       <path id="DejaVuSans-42" d="M 1259 2228 
L 1259 519 
L 2272 519 
Q 2781 519 3026 730 
Q 3272 941 3272 1375 
Q 3272 1813 3026 2020 
Q 2781 2228 2272 2228 
L 1259 2228 
z
M 1259 4147 
L 1259 2741 
L 2194 2741 
Q 2656 2741 2882 2914 
Q 3109 3088 3109 3444 
Q 3109 3797 2882 3972 
Q 2656 4147 2194 4147 
L 1259 4147 
z
M 628 4666 
L 2241 4666 
Q 2963 4666 3353 4366 
Q 3744 4066 3744 3513 
Q 3744 3084 3544 2831 
Q 3344 2578 2956 2516 
Q 3422 2416 3680 2098 
Q 3938 1781 3938 1306 
Q 3938 681 3513 340 
Q 3088 0 2303 0 
L 628 0 
L 628 4666 
z
" transform="scale(0.015625)"/>
      </defs>
      <use xlink:href="#DejaVuSans-30"/>
      <use xlink:href="#DejaVuSans-2e" x="63.623047"/>
      <use xlink:href="#DejaVuSans-31" x="95.410156"/>
      <use xlink:href="#DejaVuSans-64" x="159.033203"/>
      <use xlink:href="#DejaVuSans-42" x="222.509766"/>
     </g>
    </g>
    <g id="patch_26">
     <path d="M 265.89375 46.036563 
L 285.89375 46.036563 
L 285.89375 39.036563 
L 265.89375 39.036563 
z
" style="fill: #a9a9a9"/>
    </g>
    <g id="text_15">
     <!-- 0.5dB -->
     <g transform="translate(293.89375 46.036563) scale(0.1 -0.1)">
      <defs>
       <path id="DejaVuSans-35" d="M 691 4666 
L 3169 4666 
L 3169 4134 
L 1269 4134 
L 1269 2991 
Q 1406 3038 1543 3061 
Q 1681 3084 1819 3084 
Q 2600 3084 3056 2656 
Q 3513 2228 3513 1497 
Q 3513 744 3044 326 
Q 2575 -91 1722 -91 
Q 1428 -91 1123 -41 
Q 819 9 494 109 
L 494 744 
Q 775 591 1075 516 
Q 1375 441 1709 441 
Q 2250 441 2565 725 
Q 2881 1009 2881 1497 
Q 2881 1984 2565 2268 
Q 2250 2553 1709 2553 
Q 1456 2553 1204 2497 
Q 953 2441 691 2322 
L 691 4666 
z
" transform="scale(0.015625)"/>
      </defs>
      <use xlink:href="#DejaVuSans-30"/>
      <use xlink:href="#DejaVuSans-2e" x="63.623047"/>
      <use xlink:href="#DejaVuSans-35" x="95.410156"/>
      <use xlink:href="#DejaVuSans-64" x="159.033203"/>
      <use xlink:href="#DejaVuSans-42" x="222.509766"/>
     </g>
    </g>
    <g id="patch_27">
     <path d="M 265.89375 60.714687 
L 285.89375 60.714687 
L 285.89375 53.714687 
L 265.89375 53.714687 
z
" style="fill: #b0c4de"/>
    </g>
    <g id="text_16">
     <!-- 1dB -->
     <g transform="translate(293.89375 60.714687) scale(0.1 -0.1)">
      <use xlink:href="#DejaVuSans-31"/>
      <use xlink:href="#DejaVuSans-64" x="63.623047"/>
      <use xlink:href="#DejaVuSans-42" x="127.099609"/>
     </g>
    </g>
    <g id="patch_28">
     <path d="M 343.00625 31.358437 
L 363.00625 31.358437 
L 363.00625 24.358437 
L 343.00625 24.358437 
z
" style="fill: #6495ed"/>
    </g>
    <g id="text_17">
     <!-- 10dB -->
     <g transform="translate(371.00625 31.358437) scale(0.1 -0.1)">
      <use xlink:href="#DejaVuSans-31"/>
      <use xlink:href="#DejaVuSans-30" x="63.623047"/>
      <use xlink:href="#DejaVuSans-64" x="127.246094"/>
      <use xlink:href="#DejaVuSans-42" x="190.722656"/>
     </g>
    </g>
    <g id="patch_29">
     <path d="M 343.00625 46.036563 
L 363.00625 46.036563 
L 363.00625 39.036563 
L 343.00625 39.036563 
z
" style="fill: #4169e1"/>
    </g>
    <g id="text_18">
     <!-- 5dB -->
     <g transform="translate(371.00625 46.036563) scale(0.1 -0.1)">
      <use xlink:href="#DejaVuSans-35"/>
      <use xlink:href="#DejaVuSans-64" x="63.623047"/>
      <use xlink:href="#DejaVuSans-42" x="127.099609"/>
     </g>
    </g>
    <g id="patch_30">
     <path d="M 343.00625 60.714687 
L 363.00625 60.714687 
L 363.00625 53.714687 
L 343.00625 53.714687 
z
" style="fill: #191970"/>
    </g>
    <g id="text_19">
     <!-- Without Noise -->
     <g transform="translate(371.00625 60.714687) scale(0.1 -0.1)">
      <defs>
       <path id="DejaVuSans-69" d="M 603 3500 
L 1178 3500 
L 1178 0 
L 603 0 
L 603 3500 
z
M 603 4863 
L 1178 4863 
L 1178 4134 
L 603 4134 
L 603 4863 
z
" transform="scale(0.015625)"/>
       <path id="DejaVuSans-74" d="M 1172 4494 
L 1172 3500 
L 2356 3500 
L 2356 3053 
L 1172 3053 
L 1172 1153 
Q 1172 725 1289 603 
Q 1406 481 1766 481 
L 2356 481 
L 2356 0 
L 1766 0 
Q 1100 0 847 248 
Q 594 497 594 1153 
L 594 3053 
L 172 3053 
L 172 3500 
L 594 3500 
L 594 4494 
L 1172 4494 
z
" transform="scale(0.015625)"/>
       <path id="DejaVuSans-68" d="M 3513 2113 
L 3513 0 
L 2938 0 
L 2938 2094 
Q 2938 2591 2744 2837 
Q 2550 3084 2163 3084 
Q 1697 3084 1428 2787 
Q 1159 2491 1159 1978 
L 1159 0 
L 581 0 
L 581 4863 
L 1159 4863 
L 1159 2956 
Q 1366 3272 1645 3428 
Q 1925 3584 2291 3584 
Q 2894 3584 3203 3211 
Q 3513 2838 3513 2113 
z
" transform="scale(0.015625)"/>
       <path id="DejaVuSans-6f" d="M 1959 3097 
Q 1497 3097 1228 2736 
Q 959 2375 959 1747 
Q 959 1119 1226 758 
Q 1494 397 1959 397 
Q 2419 397 2687 759 
Q 2956 1122 2956 1747 
Q 2956 2369 2687 2733 
Q 2419 3097 1959 3097 
z
M 1959 3584 
Q 2709 3584 3137 3096 
Q 3566 2609 3566 1747 
Q 3566 888 3137 398 
Q 2709 -91 1959 -91 
Q 1206 -91 779 398 
Q 353 888 353 1747 
Q 353 2609 779 3096 
Q 1206 3584 1959 3584 
z
" transform="scale(0.015625)"/>
       <path id="DejaVuSans-75" d="M 544 1381 
L 544 3500 
L 1119 3500 
L 1119 1403 
Q 1119 906 1312 657 
Q 1506 409 1894 409 
Q 2359 409 2629 706 
Q 2900 1003 2900 1516 
L 2900 3500 
L 3475 3500 
L 3475 0 
L 2900 0 
L 2900 538 
Q 2691 219 2414 64 
Q 2138 -91 1772 -91 
Q 1169 -91 856 284 
Q 544 659 544 1381 
z
M 1991 3584 
L 1991 3584 
z
" transform="scale(0.015625)"/>
       <path id="DejaVuSans-73" d="M 2834 3397 
L 2834 2853 
Q 2591 2978 2328 3040 
Q 2066 3103 1784 3103 
Q 1356 3103 1142 2972 
Q 928 2841 928 2578 
Q 928 2378 1081 2264 
Q 1234 2150 1697 2047 
L 1894 2003 
Q 2506 1872 2764 1633 
Q 3022 1394 3022 966 
Q 3022 478 2636 193 
Q 2250 -91 1575 -91 
Q 1294 -91 989 -36 
Q 684 19 347 128 
L 347 722 
Q 666 556 975 473 
Q 1284 391 1588 391 
Q 1994 391 2212 530 
Q 2431 669 2431 922 
Q 2431 1156 2273 1281 
Q 2116 1406 1581 1522 
L 1381 1569 
Q 847 1681 609 1914 
Q 372 2147 372 2553 
Q 372 3047 722 3315 
Q 1072 3584 1716 3584 
Q 2034 3584 2315 3537 
Q 2597 3491 2834 3397 
z
" transform="scale(0.015625)"/>
       <path id="DejaVuSans-65" d="M 3597 1894 
L 3597 1613 
L 953 1613 
Q 991 1019 1311 708 
Q 1631 397 2203 397 
Q 2534 397 2845 478 
Q 3156 559 3463 722 
L 3463 178 
Q 3153 47 2828 -22 
Q 2503 -91 2169 -91 
Q 1331 -91 842 396 
Q 353 884 353 1716 
Q 353 2575 817 3079 
Q 1281 3584 2069 3584 
Q 2775 3584 3186 3129 
Q 3597 2675 3597 1894 
z
M 3022 2063 
Q 3016 2534 2758 2815 
Q 2500 3097 2075 3097 
Q 1594 3097 1305 2825 
Q 1016 2553 972 2059 
L 3022 2063 
z
" transform="scale(0.015625)"/>
      </defs>
      <use xlink:href="#DejaVuSans-57"/>
      <use xlink:href="#DejaVuSans-69" x="96.626953"/>
      <use xlink:href="#DejaVuSans-74" x="124.410156"/>
      <use xlink:href="#DejaVuSans-68" x="163.619141"/>
      <use xlink:href="#DejaVuSans-6f" x="226.998047"/>
      <use xlink:href="#DejaVuSans-75" x="288.179688"/>
      <use xlink:href="#DejaVuSans-74" x="351.558594"/>
      <use xlink:href="#DejaVuSans-20" x="390.767578"/>
      <use xlink:href="#DejaVuSans-4e" x="422.554688"/>
      <use xlink:href="#DejaVuSans-6f" x="497.359375"/>
      <use xlink:href="#DejaVuSans-69" x="558.541016"/>
      <use xlink:href="#DejaVuSans-73" x="586.324219"/>
      <use xlink:href="#DejaVuSans-65" x="638.423828"/>
     </g>
    </g>
   </g>
  </g>
 </g>
 <defs>
  <clipPath id="p8b4ab2089d">
   <rect x="56" y="14.76" width="394" height="288.88"/>
  </clipPath>
 </defs>
</svg>
