<?xml version="1.0" encoding="utf-8" standalone="no"?>
<!DOCTYPE svg PUBLIC "-//W3C//DTD SVG 1.1//EN"
  "http://www.w3.org/Graphics/SVG/1.1/DTD/svg11.dtd">
<svg xmlns:xlink="http://www.w3.org/1999/xlink" width="864pt" height="360pt" viewBox="0 0 864 360" xmlns="http://www.w3.org/2000/svg" version="1.1">
 <metadata>
  <rdf:RDF xmlns:dc="http://purl.org/dc/elements/1.1/" xmlns:cc="http://creativecommons.org/ns#" xmlns:rdf="http://www.w3.org/1999/02/22-rdf-syntax-ns#">
   <cc:Work>
    <dc:type rdf:resource="http://purl.org/dc/dcmitype/StillImage"/>
    <dc:date>2023-08-03T16:41:13.465948</dc:date>
    <dc:format>image/svg+xml</dc:format>
    <dc:creator>
     <cc:Agent>
      <dc:title>Matplotlib v3.7.1, https://matplotlib.org/</dc:title>
     </cc:Agent>
    </dc:creator>
   </cc:Work>
  </rdf:RDF>
 </metadata>
 <defs>
  <style type="text/css">*{stroke-linejoin: round; stroke-linecap: butt}</style>
 </defs>
 <g id="figure_1">
  <g id="patch_1">
   <path d="M 0 360 
L 864 360 
L 864 0 
L 0 0 
z
" style="fill: #ffffff"/>
  </g>
  <g id="axes_1">
   <g id="patch_2">
    <path d="M 108 320.4 
L 777.6 320.4 
L 777.6 43.2 
L 108 43.2 
z
" style="fill: #ffffff"/>
   </g>
   <g id="matplotlib.axis_1">
    <g id="xtick_1">
     <g id="line2d_1">
      <defs>
       <path id="m04a463f9b4" d="M 0 0 
L 0 3.5 
" style="stroke: #000000; stroke-width: 0.8"/>
      </defs>
      <g>
       <use xlink:href="#m04a463f9b4" x="138.436364" y="320.4" style="stroke: #000000; stroke-width: 0.8"/>
      </g>
     </g>
     <g id="text_1">
      <!-- 2022-01-01 -->
      <g transform="translate(109.378551 334.998438) scale(0.1 -0.1)">
       <defs>
        <path id="DejaVuSans-32" d="M 1228 531 
L 3431 531 
L 3431 0 
L 469 0 
L 469 531 
Q 828 903 1448 1529 
Q 2069 2156 2228 2338 
Q 2531 2678 2651 2914 
Q 2772 3150 2772 3378 
Q 2772 3750 2511 3984 
Q 2250 4219 1831 4219 
Q 1534 4219 1204 4116 
Q 875 4013 500 3803 
L 500 4441 
Q 881 4594 1212 4672 
Q 1544 4750 1819 4750 
Q 2544 4750 2975 4387 
Q 3406 4025 3406 3419 
Q 3406 3131 3298 2873 
Q 3191 2616 2906 2266 
Q 2828 2175 2409 1742 
Q 1991 1309 1228 531 
z
" transform="scale(0.015625)"/>
        <path id="DejaVuSans-30" d="M 2034 4250 
Q 1547 4250 1301 3770 
Q 1056 3291 1056 2328 
Q 1056 1369 1301 889 
Q 1547 409 2034 409 
Q 2525 409 2770 889 
Q 3016 1369 3016 2328 
Q 3016 3291 2770 3770 
Q 2525 4250 2034 4250 
z
M 2034 4750 
Q 2819 4750 3233 4129 
Q 3647 3509 3647 2328 
Q 3647 1150 3233 529 
Q 2819 -91 2034 -91 
Q 1250 -91 836 529 
Q 422 1150 422 2328 
Q 422 3509 836 4129 
Q 1250 4750 2034 4750 
z
" transform="scale(0.015625)"/>
        <path id="DejaVuSans-2d" d="M 313 2009 
L 1997 2009 
L 1997 1497 
L 313 1497 
L 313 2009 
z
" transform="scale(0.015625)"/>
        <path id="DejaVuSans-31" d="M 794 531 
L 1825 531 
L 1825 4091 
L 703 3866 
L 703 4441 
L 1819 4666 
L 2450 4666 
L 2450 531 
L 3481 531 
L 3481 0 
L 794 0 
L 794 531 
z
" transform="scale(0.015625)"/>
       </defs>
       <use xlink:href="#DejaVuSans-32"/>
       <use xlink:href="#DejaVuSans-30" x="63.623047"/>
       <use xlink:href="#DejaVuSans-32" x="127.246094"/>
       <use xlink:href="#DejaVuSans-32" x="190.869141"/>
       <use xlink:href="#DejaVuSans-2d" x="254.492188"/>
       <use xlink:href="#DejaVuSans-30" x="290.576172"/>
       <use xlink:href="#DejaVuSans-31" x="354.199219"/>
       <use xlink:href="#DejaVuSans-2d" x="417.822266"/>
       <use xlink:href="#DejaVuSans-30" x="453.90625"/>
       <use xlink:href="#DejaVuSans-31" x="517.529297"/>
      </g>
     </g>
    </g>
    <g id="xtick_2">
     <g id="line2d_2">
      <g>
       <use xlink:href="#m04a463f9b4" x="214.626479" y="320.4" style="stroke: #000000; stroke-width: 0.8"/>
      </g>
     </g>
     <g id="text_2">
      <!-- 2022-01-03 -->
      <g transform="translate(185.568666 334.998438) scale(0.1 -0.1)">
       <defs>
        <path id="DejaVuSans-33" d="M 2597 2516 
Q 3050 2419 3304 2112 
Q 3559 1806 3559 1356 
Q 3559 666 3084 287 
Q 2609 -91 1734 -91 
Q 1441 -91 1130 -33 
Q 819 25 488 141 
L 488 750 
Q 750 597 1062 519 
Q 1375 441 1716 441 
Q 2309 441 2620 675 
Q 2931 909 2931 1356 
Q 2931 1769 2642 2001 
Q 2353 2234 1838 2234 
L 1294 2234 
L 1294 2753 
L 1863 2753 
Q 2328 2753 2575 2939 
Q 2822 3125 2822 3475 
Q 2822 3834 2567 4026 
Q 2313 4219 1838 4219 
Q 1578 4219 1281 4162 
Q 984 4106 628 3988 
L 628 4550 
Q 988 4650 1302 4700 
Q 1616 4750 1894 4750 
Q 2613 4750 3031 4423 
Q 3450 4097 3450 3541 
Q 3450 3153 3228 2886 
Q 3006 2619 2597 2516 
z
" transform="scale(0.015625)"/>
       </defs>
       <use xlink:href="#DejaVuSans-32"/>
       <use xlink:href="#DejaVuSans-30" x="63.623047"/>
       <use xlink:href="#DejaVuSans-32" x="127.246094"/>
       <use xlink:href="#DejaVuSans-32" x="190.869141"/>
       <use xlink:href="#DejaVuSans-2d" x="254.492188"/>
       <use xlink:href="#DejaVuSans-30" x="290.576172"/>
       <use xlink:href="#DejaVuSans-31" x="354.199219"/>
       <use xlink:href="#DejaVuSans-2d" x="417.822266"/>
       <use xlink:href="#DejaVuSans-30" x="453.90625"/>
       <use xlink:href="#DejaVuSans-33" x="517.529297"/>
      </g>
     </g>
    </g>
    <g id="xtick_3">
     <g id="line2d_3">
      <g>
       <use xlink:href="#m04a463f9b4" x="290.816594" y="320.4" style="stroke: #000000; stroke-width: 0.8"/>
      </g>
     </g>
     <g id="text_3">
      <!-- 2022-01-05 -->
      <g transform="translate(261.758781 334.998438) scale(0.1 -0.1)">
       <defs>
        <path id="DejaVuSans-35" d="M 691 4666 
L 3169 4666 
L 3169 4134 
L 1269 4134 
L 1269 2991 
Q 1406 3038 1543 3061 
Q 1681 3084 1819 3084 
Q 2600 3084 3056 2656 
Q 3513 2228 3513 1497 
Q 3513 744 3044 326 
Q 2575 -91 1722 -91 
Q 1428 -91 1123 -41 
Q 819 9 494 109 
L 494 744 
Q 775 591 1075 516 
Q 1375 441 1709 441 
Q 2250 441 2565 725 
Q 2881 1009 2881 1497 
Q 2881 1984 2565 2268 
Q 2250 2553 1709 2553 
Q 1456 2553 1204 2497 
Q 953 2441 691 2322 
L 691 4666 
z
" transform="scale(0.015625)"/>
       </defs>
       <use xlink:href="#DejaVuSans-32"/>
       <use xlink:href="#DejaVuSans-30" x="63.623047"/>
       <use xlink:href="#DejaVuSans-32" x="127.246094"/>
       <use xlink:href="#DejaVuSans-32" x="190.869141"/>
       <use xlink:href="#DejaVuSans-2d" x="254.492188"/>
       <use xlink:href="#DejaVuSans-30" x="290.576172"/>
       <use xlink:href="#DejaVuSans-31" x="354.199219"/>
       <use xlink:href="#DejaVuSans-2d" x="417.822266"/>
       <use xlink:href="#DejaVuSans-30" x="453.90625"/>
       <use xlink:href="#DejaVuSans-35" x="517.529297"/>
      </g>
     </g>
    </g>
    <g id="xtick_4">
     <g id="line2d_4">
      <g>
       <use xlink:href="#m04a463f9b4" x="367.006709" y="320.4" style="stroke: #000000; stroke-width: 0.8"/>
      </g>
     </g>
     <g id="text_4">
      <!-- 2022-01-07 -->
      <g transform="translate(337.948896 334.998438) scale(0.1 -0.1)">
       <defs>
        <path id="DejaVuSans-37" d="M 525 4666 
L 3525 4666 
L 3525 4397 
L 1831 0 
L 1172 0 
L 2766 4134 
L 525 4134 
L 525 4666 
z
" transform="scale(0.015625)"/>
       </defs>
       <use xlink:href="#DejaVuSans-32"/>
       <use xlink:href="#DejaVuSans-30" x="63.623047"/>
       <use xlink:href="#DejaVuSans-32" x="127.246094"/>
       <use xlink:href="#DejaVuSans-32" x="190.869141"/>
       <use xlink:href="#DejaVuSans-2d" x="254.492188"/>
       <use xlink:href="#DejaVuSans-30" x="290.576172"/>
       <use xlink:href="#DejaVuSans-31" x="354.199219"/>
       <use xlink:href="#DejaVuSans-2d" x="417.822266"/>
       <use xlink:href="#DejaVuSans-30" x="453.90625"/>
       <use xlink:href="#DejaVuSans-37" x="517.529297"/>
      </g>
     </g>
    </g>
    <g id="xtick_5">
     <g id="line2d_5">
      <g>
       <use xlink:href="#m04a463f9b4" x="443.196824" y="320.4" style="stroke: #000000; stroke-width: 0.8"/>
      </g>
     </g>
     <g id="text_5">
      <!-- 2022-01-09 -->
      <g transform="translate(414.139011 334.998438) scale(0.1 -0.1)">
       <defs>
        <path id="DejaVuSans-39" d="M 703 97 
L 703 672 
Q 941 559 1184 500 
Q 1428 441 1663 441 
Q 2288 441 2617 861 
Q 2947 1281 2994 2138 
Q 2813 1869 2534 1725 
Q 2256 1581 1919 1581 
Q 1219 1581 811 2004 
Q 403 2428 403 3163 
Q 403 3881 828 4315 
Q 1253 4750 1959 4750 
Q 2769 4750 3195 4129 
Q 3622 3509 3622 2328 
Q 3622 1225 3098 567 
Q 2575 -91 1691 -91 
Q 1453 -91 1209 -44 
Q 966 3 703 97 
z
M 1959 2075 
Q 2384 2075 2632 2365 
Q 2881 2656 2881 3163 
Q 2881 3666 2632 3958 
Q 2384 4250 1959 4250 
Q 1534 4250 1286 3958 
Q 1038 3666 1038 3163 
Q 1038 2656 1286 2365 
Q 1534 2075 1959 2075 
z
" transform="scale(0.015625)"/>
       </defs>
       <use xlink:href="#DejaVuSans-32"/>
       <use xlink:href="#DejaVuSans-30" x="63.623047"/>
       <use xlink:href="#DejaVuSans-32" x="127.246094"/>
       <use xlink:href="#DejaVuSans-32" x="190.869141"/>
       <use xlink:href="#DejaVuSans-2d" x="254.492188"/>
       <use xlink:href="#DejaVuSans-30" x="290.576172"/>
       <use xlink:href="#DejaVuSans-31" x="354.199219"/>
       <use xlink:href="#DejaVuSans-2d" x="417.822266"/>
       <use xlink:href="#DejaVuSans-30" x="453.90625"/>
       <use xlink:href="#DejaVuSans-39" x="517.529297"/>
      </g>
     </g>
    </g>
    <g id="xtick_6">
     <g id="line2d_6">
      <g>
       <use xlink:href="#m04a463f9b4" x="519.386938" y="320.4" style="stroke: #000000; stroke-width: 0.8"/>
      </g>
     </g>
     <g id="text_6">
      <!-- 2022-01-11 -->
      <g transform="translate(490.329126 334.998438) scale(0.1 -0.1)">
       <use xlink:href="#DejaVuSans-32"/>
       <use xlink:href="#DejaVuSans-30" x="63.623047"/>
       <use xlink:href="#DejaVuSans-32" x="127.246094"/>
       <use xlink:href="#DejaVuSans-32" x="190.869141"/>
       <use xlink:href="#DejaVuSans-2d" x="254.492188"/>
       <use xlink:href="#DejaVuSans-30" x="290.576172"/>
       <use xlink:href="#DejaVuSans-31" x="354.199219"/>
       <use xlink:href="#DejaVuSans-2d" x="417.822266"/>
       <use xlink:href="#DejaVuSans-31" x="453.90625"/>
       <use xlink:href="#DejaVuSans-31" x="517.529297"/>
      </g>
     </g>
    </g>
    <g id="xtick_7">
     <g id="line2d_7">
      <g>
       <use xlink:href="#m04a463f9b4" x="595.577053" y="320.4" style="stroke: #000000; stroke-width: 0.8"/>
      </g>
     </g>
     <g id="text_7">
      <!-- 2022-01-13 -->
      <g transform="translate(566.519241 334.998438) scale(0.1 -0.1)">
       <use xlink:href="#DejaVuSans-32"/>
       <use xlink:href="#DejaVuSans-30" x="63.623047"/>
       <use xlink:href="#DejaVuSans-32" x="127.246094"/>
       <use xlink:href="#DejaVuSans-32" x="190.869141"/>
       <use xlink:href="#DejaVuSans-2d" x="254.492188"/>
       <use xlink:href="#DejaVuSans-30" x="290.576172"/>
       <use xlink:href="#DejaVuSans-31" x="354.199219"/>
       <use xlink:href="#DejaVuSans-2d" x="417.822266"/>
       <use xlink:href="#DejaVuSans-31" x="453.90625"/>
       <use xlink:href="#DejaVuSans-33" x="517.529297"/>
      </g>
     </g>
    </g>
    <g id="xtick_8">
     <g id="line2d_8">
      <g>
       <use xlink:href="#m04a463f9b4" x="671.767168" y="320.4" style="stroke: #000000; stroke-width: 0.8"/>
      </g>
     </g>
     <g id="text_8">
      <!-- 2022-01-15 -->
      <g transform="translate(642.709356 334.998438) scale(0.1 -0.1)">
       <use xlink:href="#DejaVuSans-32"/>
       <use xlink:href="#DejaVuSans-30" x="63.623047"/>
       <use xlink:href="#DejaVuSans-32" x="127.246094"/>
       <use xlink:href="#DejaVuSans-32" x="190.869141"/>
       <use xlink:href="#DejaVuSans-2d" x="254.492188"/>
       <use xlink:href="#DejaVuSans-30" x="290.576172"/>
       <use xlink:href="#DejaVuSans-31" x="354.199219"/>
       <use xlink:href="#DejaVuSans-2d" x="417.822266"/>
       <use xlink:href="#DejaVuSans-31" x="453.90625"/>
       <use xlink:href="#DejaVuSans-35" x="517.529297"/>
      </g>
     </g>
    </g>
    <g id="xtick_9">
     <g id="line2d_9">
      <g>
       <use xlink:href="#m04a463f9b4" x="747.957283" y="320.4" style="stroke: #000000; stroke-width: 0.8"/>
      </g>
     </g>
     <g id="text_9">
      <!-- 2022-01-17 -->
      <g transform="translate(718.899471 334.998438) scale(0.1 -0.1)">
       <use xlink:href="#DejaVuSans-32"/>
       <use xlink:href="#DejaVuSans-30" x="63.623047"/>
       <use xlink:href="#DejaVuSans-32" x="127.246094"/>
       <use xlink:href="#DejaVuSans-32" x="190.869141"/>
       <use xlink:href="#DejaVuSans-2d" x="254.492188"/>
       <use xlink:href="#DejaVuSans-30" x="290.576172"/>
       <use xlink:href="#DejaVuSans-31" x="354.199219"/>
       <use xlink:href="#DejaVuSans-2d" x="417.822266"/>
       <use xlink:href="#DejaVuSans-31" x="453.90625"/>
       <use xlink:href="#DejaVuSans-37" x="517.529297"/>
      </g>
     </g>
    </g>
    <g id="text_10">
     <!-- TIME (DAYS) -->
     <g transform="translate(412.283594 348.676562) scale(0.1 -0.1)">
      <defs>
       <path id="DejaVuSans-54" d="M -19 4666 
L 3928 4666 
L 3928 4134 
L 2272 4134 
L 2272 0 
L 1638 0 
L 1638 4134 
L -19 4134 
L -19 4666 
z
" transform="scale(0.015625)"/>
       <path id="DejaVuSans-49" d="M 628 4666 
L 1259 4666 
L 1259 0 
L 628 0 
L 628 4666 
z
" transform="scale(0.015625)"/>
       <path id="DejaVuSans-4d" d="M 628 4666 
L 1569 4666 
L 2759 1491 
L 3956 4666 
L 4897 4666 
L 4897 0 
L 4281 0 
L 4281 4097 
L 3078 897 
L 2444 897 
L 1241 4097 
L 1241 0 
L 628 0 
L 628 4666 
z
" transform="scale(0.015625)"/>
       <path id="DejaVuSans-45" d="M 628 4666 
L 3578 4666 
L 3578 4134 
L 1259 4134 
L 1259 2753 
L 3481 2753 
L 3481 2222 
L 1259 2222 
L 1259 531 
L 3634 531 
L 3634 0 
L 628 0 
L 628 4666 
z
" transform="scale(0.015625)"/>
       <path id="DejaVuSans-20" transform="scale(0.015625)"/>
       <path id="DejaVuSans-28" d="M 1984 4856 
Q 1566 4138 1362 3434 
Q 1159 2731 1159 2009 
Q 1159 1288 1364 580 
Q 1569 -128 1984 -844 
L 1484 -844 
Q 1016 -109 783 600 
Q 550 1309 550 2009 
Q 550 2706 781 3412 
Q 1013 4119 1484 4856 
L 1984 4856 
z
" transform="scale(0.015625)"/>
       <path id="DejaVuSans-44" d="M 1259 4147 
L 1259 519 
L 2022 519 
Q 2988 519 3436 956 
Q 3884 1394 3884 2338 
Q 3884 3275 3436 3711 
Q 2988 4147 2022 4147 
L 1259 4147 
z
M 628 4666 
L 1925 4666 
Q 3281 4666 3915 4102 
Q 4550 3538 4550 2338 
Q 4550 1131 3912 565 
Q 3275 0 1925 0 
L 628 0 
L 628 4666 
z
" transform="scale(0.015625)"/>
       <path id="DejaVuSans-41" d="M 2188 4044 
L 1331 1722 
L 3047 1722 
L 2188 4044 
z
M 1831 4666 
L 2547 4666 
L 4325 0 
L 3669 0 
L 3244 1197 
L 1141 1197 
L 716 0 
L 50 0 
L 1831 4666 
z
" transform="scale(0.015625)"/>
       <path id="DejaVuSans-59" d="M -13 4666 
L 666 4666 
L 1959 2747 
L 3244 4666 
L 3922 4666 
L 2272 2222 
L 2272 0 
L 1638 0 
L 1638 2222 
L -13 4666 
z
" transform="scale(0.015625)"/>
       <path id="DejaVuSans-53" d="M 3425 4513 
L 3425 3897 
Q 3066 4069 2747 4153 
Q 2428 4238 2131 4238 
Q 1616 4238 1336 4038 
Q 1056 3838 1056 3469 
Q 1056 3159 1242 3001 
Q 1428 2844 1947 2747 
L 2328 2669 
Q 3034 2534 3370 2195 
Q 3706 1856 3706 1288 
Q 3706 609 3251 259 
Q 2797 -91 1919 -91 
Q 1588 -91 1214 -16 
Q 841 59 441 206 
L 441 856 
Q 825 641 1194 531 
Q 1563 422 1919 422 
Q 2459 422 2753 634 
Q 3047 847 3047 1241 
Q 3047 1584 2836 1778 
Q 2625 1972 2144 2069 
L 1759 2144 
Q 1053 2284 737 2584 
Q 422 2884 422 3419 
Q 422 4038 858 4394 
Q 1294 4750 2059 4750 
Q 2388 4750 2728 4690 
Q 3069 4631 3425 4513 
z
" transform="scale(0.015625)"/>
       <path id="DejaVuSans-29" d="M 513 4856 
L 1013 4856 
Q 1481 4119 1714 3412 
Q 1947 2706 1947 2009 
Q 1947 1309 1714 600 
Q 1481 -109 1013 -844 
L 513 -844 
Q 928 -128 1133 580 
Q 1338 1288 1338 2009 
Q 1338 2731 1133 3434 
Q 928 4138 513 4856 
z
" transform="scale(0.015625)"/>
      </defs>
      <use xlink:href="#DejaVuSans-54"/>
      <use xlink:href="#DejaVuSans-49" x="61.083984"/>
      <use xlink:href="#DejaVuSans-4d" x="90.576172"/>
      <use xlink:href="#DejaVuSans-45" x="176.855469"/>
      <use xlink:href="#DejaVuSans-20" x="240.039062"/>
      <use xlink:href="#DejaVuSans-28" x="271.826172"/>
      <use xlink:href="#DejaVuSans-44" x="310.839844"/>
      <use xlink:href="#DejaVuSans-41" x="386.091797"/>
      <use xlink:href="#DejaVuSans-59" x="446.75"/>
      <use xlink:href="#DejaVuSans-53" x="507.833984"/>
      <use xlink:href="#DejaVuSans-29" x="571.310547"/>
     </g>
    </g>
   </g>
   <g id="matplotlib.axis_2">
    <g id="ytick_1">
     <g id="line2d_10">
      <defs>
       <path id="maa252b3a6b" d="M 0 0 
L -3.5 0 
" style="stroke: #000000; stroke-width: 0.8"/>
      </defs>
      <g>
       <use xlink:href="#maa252b3a6b" x="108" y="307.8" style="stroke: #000000; stroke-width: 0.8"/>
      </g>
     </g>
     <g id="text_11">
      <!-- 0 -->
      <g transform="translate(94.6375 311.599219) scale(0.1 -0.1)">
       <use xlink:href="#DejaVuSans-30"/>
      </g>
     </g>
    </g>
    <g id="ytick_2">
     <g id="line2d_11">
      <g>
       <use xlink:href="#maa252b3a6b" x="108" y="263.589474" style="stroke: #000000; stroke-width: 0.8"/>
      </g>
     </g>
     <g id="text_12">
      <!-- 50 -->
      <g transform="translate(88.275 267.388692) scale(0.1 -0.1)">
       <use xlink:href="#DejaVuSans-35"/>
       <use xlink:href="#DejaVuSans-30" x="63.623047"/>
      </g>
     </g>
    </g>
    <g id="ytick_3">
     <g id="line2d_12">
      <g>
       <use xlink:href="#maa252b3a6b" x="108" y="219.378947" style="stroke: #000000; stroke-width: 0.8"/>
      </g>
     </g>
     <g id="text_13">
      <!-- 100 -->
      <g transform="translate(81.9125 223.178166) scale(0.1 -0.1)">
       <use xlink:href="#DejaVuSans-31"/>
       <use xlink:href="#DejaVuSans-30" x="63.623047"/>
       <use xlink:href="#DejaVuSans-30" x="127.246094"/>
      </g>
     </g>
    </g>
    <g id="ytick_4">
     <g id="line2d_13">
      <g>
       <use xlink:href="#maa252b3a6b" x="108" y="175.168421" style="stroke: #000000; stroke-width: 0.8"/>
      </g>
     </g>
     <g id="text_14">
      <!-- 150 -->
      <g transform="translate(81.9125 178.96764) scale(0.1 -0.1)">
       <use xlink:href="#DejaVuSans-31"/>
       <use xlink:href="#DejaVuSans-35" x="63.623047"/>
       <use xlink:href="#DejaVuSans-30" x="127.246094"/>
      </g>
     </g>
    </g>
    <g id="ytick_5">
     <g id="line2d_14">
      <g>
       <use xlink:href="#maa252b3a6b" x="108" y="130.957895" style="stroke: #000000; stroke-width: 0.8"/>
      </g>
     </g>
     <g id="text_15">
      <!-- 200 -->
      <g transform="translate(81.9125 134.757113) scale(0.1 -0.1)">
       <use xlink:href="#DejaVuSans-32"/>
       <use xlink:href="#DejaVuSans-30" x="63.623047"/>
       <use xlink:href="#DejaVuSans-30" x="127.246094"/>
      </g>
     </g>
    </g>
    <g id="ytick_6">
     <g id="line2d_15">
      <g>
       <use xlink:href="#maa252b3a6b" x="108" y="86.747368" style="stroke: #000000; stroke-width: 0.8"/>
      </g>
     </g>
     <g id="text_16">
      <!-- 250 -->
      <g transform="translate(81.9125 90.546587) scale(0.1 -0.1)">
       <use xlink:href="#DejaVuSans-32"/>
       <use xlink:href="#DejaVuSans-35" x="63.623047"/>
       <use xlink:href="#DejaVuSans-30" x="127.246094"/>
      </g>
     </g>
    </g>
    <g id="text_17">
     <!-- AMPLITUDE -->
     <g transform="translate(75.832812 210.532812) rotate(-90) scale(0.1 -0.1)">
      <defs>
       <path id="DejaVuSans-50" d="M 1259 4147 
L 1259 2394 
L 2053 2394 
Q 2494 2394 2734 2622 
Q 2975 2850 2975 3272 
Q 2975 3691 2734 3919 
Q 2494 4147 2053 4147 
L 1259 4147 
z
M 628 4666 
L 2053 4666 
Q 2838 4666 3239 4311 
Q 3641 3956 3641 3272 
Q 3641 2581 3239 2228 
Q 2838 1875 2053 1875 
L 1259 1875 
L 1259 0 
L 628 0 
L 628 4666 
z
" transform="scale(0.015625)"/>
       <path id="DejaVuSans-4c" d="M 628 4666 
L 1259 4666 
L 1259 531 
L 3531 531 
L 3531 0 
L 628 0 
L 628 4666 
z
" transform="scale(0.015625)"/>
       <path id="DejaVuSans-55" d="M 556 4666 
L 1191 4666 
L 1191 1831 
Q 1191 1081 1462 751 
Q 1734 422 2344 422 
Q 2950 422 3222 751 
Q 3494 1081 3494 1831 
L 3494 4666 
L 4128 4666 
L 4128 1753 
Q 4128 841 3676 375 
Q 3225 -91 2344 -91 
Q 1459 -91 1007 375 
Q 556 841 556 1753 
L 556 4666 
z
" transform="scale(0.015625)"/>
      </defs>
      <use xlink:href="#DejaVuSans-41"/>
      <use xlink:href="#DejaVuSans-4d" x="68.408203"/>
      <use xlink:href="#DejaVuSans-50" x="154.6875"/>
      <use xlink:href="#DejaVuSans-4c" x="214.990234"/>
      <use xlink:href="#DejaVuSans-49" x="270.703125"/>
      <use xlink:href="#DejaVuSans-54" x="300.195312"/>
      <use xlink:href="#DejaVuSans-55" x="361.279297"/>
      <use xlink:href="#DejaVuSans-44" x="434.472656"/>
      <use xlink:href="#DejaVuSans-45" x="511.474609"/>
     </g>
    </g>
   </g>
   <g id="line2d_16">
    <path d="M 138.436364 228.221053 
L 139.230011 307.8 
L 140.023658 290.115789 
L 140.817305 251.210526 
L 141.610952 307.8 
L 143.198246 307.8 
L 143.991893 246.789474 
L 144.78554 288.347368 
L 145.579187 260.936842 
L 146.372834 249.442105 
L 147.166481 179.589474 
L 147.960128 257.4 
L 148.753775 299.842105 
L 149.547422 307.8 
L 151.134716 280.389474 
L 151.928363 282.157895 
L 152.72201 220.263158 
L 153.515657 307.8 
L 154.309304 307.8 
L 155.102951 304.263158 
L 155.896598 307.8 
L 157.483892 307.8 
L 158.277539 272.431579 
L 159.071186 252.978947 
L 159.864833 247.673684 
L 160.658481 125.652632 
L 161.452128 283.042105 
L 162.245775 188.431579 
L 163.039422 236.178947 
L 163.833069 214.073684 
L 164.626716 307.8 
L 165.420363 232.642105 
L 166.21401 272.431579 
L 167.007657 209.652632 
L 167.801304 212.305263 
L 168.594951 211.421053 
L 169.388598 251.210526 
L 170.182245 283.926316 
L 170.975892 223.8 
L 171.769539 307.8 
L 172.563186 168.094737 
L 173.356833 260.936842 
L 174.15048 217.610526 
L 174.944127 291.884211 
L 175.737774 217.610526 
L 176.531421 178.705263 
L 177.325068 307.8 
L 179.706009 307.8 
L 180.499656 291.884211 
L 181.293303 307.8 
L 184.467891 307.8 
L 185.261538 303.378947 
L 186.055185 284.810526 
L 186.848833 287.463158 
L 187.64248 272.431579 
L 188.436127 307.8 
L 189.229774 260.936842 
L 190.023421 297.189474 
L 190.817068 307.8 
L 191.610715 238.831579 
L 192.404362 286.578947 
L 193.198009 261.821053 
L 193.991656 307.8 
L 194.785303 232.642105 
L 195.57895 241.484211 
L 196.372597 148.642105 
L 197.166244 218.494737 
L 197.959891 241.484211 
L 198.753538 149.526316 
L 199.547185 282.157895 
L 200.340832 286.578947 
L 201.134479 176.936842 
L 201.928126 252.094737 
L 202.721773 240.6 
L 203.51542 161.021053 
L 204.309067 223.8 
L 205.102714 307.8 
L 205.896361 252.978947 
L 206.690008 209.652632 
L 207.483655 239.715789 
L 208.277302 208.768421 
L 209.070949 222.915789 
L 209.864596 116.810526 
L 210.658243 153.947368 
L 211.45189 302.494737 
L 212.245538 170.747368 
L 213.039185 216.726316 
L 213.832832 307.8 
L 214.626479 193.736842 
L 215.420126 293.652632 
L 216.213773 288.347368 
L 217.00742 307.8 
L 217.801067 307.8 
L 218.594714 191.968421 
L 219.388361 307.8 
L 220.182008 307.8 
L 220.975655 298.957895 
L 221.769302 209.652632 
L 222.562949 254.747368 
L 223.356596 307.8 
L 224.94389 307.8 
L 226.531184 273.315789 
L 227.324831 307.8 
L 228.118478 307.8 
L 228.912125 268.010526 
L 229.705772 307.8 
L 230.499419 307.8 
L 231.293066 206.115789 
L 232.086713 275.084211 
L 232.88036 307.8 
L 233.674007 307.8 
L 234.467654 195.505263 
L 236.054948 235.294737 
L 236.848595 232.642105 
L 237.642243 282.157895 
L 238.43589 296.305263 
L 239.229537 237.063158 
L 240.023184 307.8 
L 240.816831 98.242105 
L 241.610478 155.715789 
L 242.404125 249.442105 
L 243.197772 307.8 
L 243.991419 240.6 
L 244.785066 270.663158 
L 245.578713 307.8 
L 246.37236 114.157895 
L 247.166007 235.294737 
L 248.753301 112.389474 
L 249.546948 144.221053 
L 250.340595 235.294737 
L 251.134242 236.178947 
L 251.927889 175.168421 
L 252.721536 307.8 
L 253.515183 163.673684 
L 254.30883 213.189474 
L 255.102477 307.8 
L 255.896124 291 
L 256.689771 269.778947 
L 257.483418 307.8 
L 258.277065 287.463158 
L 259.070712 305.147368 
L 259.864359 307.8 
L 261.451653 307.8 
L 262.2453 251.210526 
L 263.038947 300.726316 
L 263.832595 307.8 
L 264.626242 283.926316 
L 265.419889 307.8 
L 266.213536 307.8 
L 267.007183 298.957895 
L 267.80083 307.8 
L 268.594477 307.8 
L 269.388124 244.136842 
L 270.181771 154.831579 
L 270.975418 307.8 
L 271.769065 307.8 
L 272.562712 237.063158 
L 273.356359 199.042105 
L 274.150006 133.610526 
L 274.943653 232.642105 
L 275.7373 307.8 
L 276.530947 169.863158 
L 277.324594 217.610526 
L 278.118241 193.736842 
L 278.911888 280.389474 
L 279.705535 267.126316 
L 280.499182 202.578947 
L 281.292829 180.473684 
L 282.086476 258.284211 
L 282.880123 221.147368 
L 283.67377 169.863158 
L 284.467417 274.2 
L 285.261064 261.821053 
L 286.054711 88.515789 
L 286.848358 225.568421 
L 287.642005 294.536842 
L 288.435652 211.421053 
L 289.2293 276.852632 
L 290.022947 145.105263 
L 290.816594 197.273684 
L 291.610241 92.936842 
L 292.403888 224.684211 
L 293.197535 307.8 
L 294.784829 307.8 
L 295.578476 293.652632 
L 296.372123 248.557895 
L 297.16577 228.221053 
L 297.959417 307.8 
L 298.753064 253.863158 
L 299.546711 161.905263 
L 300.340358 245.021053 
L 301.134005 307.8 
L 301.927652 268.894737 
L 302.721299 307.8 
L 303.514946 296.305263 
L 304.308593 307.8 
L 305.10224 307.8 
L 305.895887 276.852632 
L 306.689534 276.852632 
L 307.483181 307.8 
L 308.276828 200.810526 
L 309.070475 307.8 
L 309.864122 289.231579 
L 310.657769 307.8 
L 311.451416 307.8 
L 312.245063 189.315789 
L 313.03871 241.484211 
L 313.832357 258.284211 
L 314.626005 278.621053 
L 315.419652 260.936842 
L 316.213299 298.073684 
L 317.006946 240.6 
L 317.800593 307.8 
L 318.59424 174.284211 
L 319.387887 307.8 
L 320.181534 281.273684 
L 320.975181 276.852632 
L 321.768828 168.094737 
L 322.562475 135.378947 
L 324.149769 262.705263 
L 324.943416 222.031579 
L 325.737063 292.768421 
L 326.53071 133.610526 
L 327.324357 266.242105 
L 328.118004 265.357895 
L 328.911651 201.694737 
L 329.705298 267.126316 
L 331.292592 231.757895 
L 332.086239 305.147368 
L 332.879886 307.8 
L 333.673533 298.073684 
L 334.46718 307.8 
L 336.054474 307.8 
L 336.848121 207 
L 337.641768 287.463158 
L 338.435415 226.452632 
L 339.229062 275.968421 
L 340.022709 243.252632 
L 340.816357 307.8 
L 341.610004 307.8 
L 342.403651 289.231579 
L 343.197298 307.8 
L 343.990945 307.8 
L 344.784592 259.168421 
L 345.578239 248.557895 
L 346.371886 219.378947 
L 347.165533 271.547368 
L 347.95918 282.157895 
L 348.752827 176.936842 
L 349.546474 307.8 
L 350.340121 307.8 
L 351.133768 145.105263 
L 351.927415 252.978947 
L 352.721062 270.663158 
L 353.514709 273.315789 
L 354.308356 229.105263 
L 355.102003 162.789474 
L 355.89565 186.663158 
L 356.689297 277.736842 
L 357.482944 232.642105 
L 358.276591 155.715789 
L 359.070238 236.178947 
L 359.863885 132.726316 
L 360.657532 234.410526 
L 361.451179 196.389474 
L 362.244826 240.6 
L 363.038473 227.336842 
L 363.83212 258.284211 
L 364.625767 188.431579 
L 365.419414 307.8 
L 366.213062 237.947368 
L 367.006709 307.8 
L 367.800356 222.915789 
L 368.594003 307.8 
L 369.38765 176.052632 
L 370.181297 307.8 
L 370.974944 207.884211 
L 371.768591 307.8 
L 372.562238 297.189474 
L 373.355885 275.084211 
L 374.149532 307.8 
L 375.736826 307.8 
L 377.32412 271.547368 
L 378.117767 245.905263 
L 378.911414 294.536842 
L 379.705061 307.8 
L 380.498708 307.8 
L 381.292355 293.652632 
L 382.086002 307.8 
L 386.054237 307.8 
L 386.847884 151.294737 
L 387.641531 276.852632 
L 388.435178 307.8 
L 389.228825 307.8 
L 390.022472 198.157895 
L 390.816119 257.4 
L 391.609767 171.631579 
L 392.403414 209.652632 
L 393.197061 286.578947 
L 393.990708 279.505263 
L 394.784355 243.252632 
L 395.578002 95.589474 
L 396.371649 214.957895 
L 397.165296 155.715789 
L 397.958943 170.747368 
L 398.75259 180.473684 
L 399.546237 195.505263 
L 400.339884 132.726316 
L 401.133531 307.8 
L 401.927178 228.221053 
L 402.720825 257.4 
L 403.514472 189.315789 
L 404.308119 138.915789 
L 405.101766 263.589474 
L 405.895413 266.242105 
L 406.68906 184.894737 
L 407.482707 185.778947 
L 408.276354 201.694737 
L 409.070001 261.821053 
L 409.863648 209.652632 
L 410.657295 234.410526 
L 411.450942 222.915789 
L 412.244589 304.263158 
L 413.038236 307.8 
L 417.006471 307.8 
L 417.800119 190.2 
L 418.593766 238.831579 
L 419.387413 307.8 
L 420.974707 307.8 
L 421.768354 306.915789 
L 422.562001 307.8 
L 423.355648 307.8 
L 424.149295 239.715789 
L 424.942942 223.8 
L 425.736589 286.578947 
L 426.530236 307.8 
L 427.323883 260.936842 
L 428.911177 206.115789 
L 429.704824 222.915789 
L 430.498471 216.726316 
L 431.292118 225.568421 
L 432.085765 55.8 
L 432.879412 249.442105 
L 433.673059 206.115789 
L 434.466706 203.463158 
L 435.260353 271.547368 
L 436.054 291 
L 436.847647 172.515789 
L 437.641294 277.736842 
L 438.434941 254.747368 
L 439.228588 221.147368 
L 440.022235 307.8 
L 440.815882 206.115789 
L 441.609529 152.178947 
L 442.403176 192.852632 
L 443.196824 197.273684 
L 443.990471 128.305263 
L 444.784118 168.094737 
L 445.577765 241.484211 
L 446.371412 94.705263 
L 447.165059 127.421053 
L 447.958706 245.021053 
L 448.752353 307.8 
L 449.546 192.852632 
L 450.339647 307.8 
L 451.926941 307.8 
L 452.720588 246.789474 
L 453.514235 307.8 
L 454.307882 263.589474 
L 455.101529 306.031579 
L 455.895176 307.8 
L 456.688823 182.242105 
L 457.48247 307.8 
L 459.069764 307.8 
L 459.863411 280.389474 
L 460.657058 307.8 
L 461.450705 282.157895 
L 462.244352 287.463158 
L 463.037999 307.8 
L 463.831646 283.926316 
L 464.625293 307.8 
L 465.41894 268.894737 
L 466.212587 307.8 
L 467.006234 137.147368 
L 467.799881 184.010526 
L 468.593529 178.705263 
L 469.387176 187.547368 
L 470.180823 179.589474 
L 470.97447 307.8 
L 471.768117 182.242105 
L 472.561764 194.621053 
L 473.355411 172.515789 
L 474.149058 178.705263 
L 474.942705 307.8 
L 475.736352 218.494737 
L 476.529999 290.115789 
L 477.323646 230.873684 
L 478.117293 259.168421 
L 478.91094 141.568421 
L 479.704587 303.378947 
L 480.498234 302.494737 
L 481.291881 128.305263 
L 482.085528 245.021053 
L 482.879175 182.242105 
L 483.672822 186.663158 
L 484.466469 137.147368 
L 485.260116 193.736842 
L 486.053763 307.8 
L 486.84741 208.768421 
L 487.641057 307.8 
L 488.434704 266.242105 
L 489.228351 307.8 
L 490.021998 307.8 
L 490.815645 304.263158 
L 491.609292 307.8 
L 493.196586 307.8 
L 493.990233 282.157895 
L 494.783881 307.8 
L 495.577528 215.842105 
L 496.371175 307.8 
L 497.164822 307.8 
L 498.752116 163.673684 
L 499.545763 307.8 
L 500.33941 275.084211 
L 501.133057 259.168421 
L 501.926704 298.957895 
L 502.720351 219.378947 
L 503.513998 307.8 
L 504.307645 282.157895 
L 505.101292 307.8 
L 505.894939 201.694737 
L 506.688586 307.8 
L 507.482233 197.273684 
L 508.27588 229.105263 
L 509.069527 106.2 
L 509.863174 210.536842 
L 510.656821 259.168421 
L 511.450468 261.821053 
L 512.244115 89.4 
L 513.037762 211.421053 
L 513.831409 200.810526 
L 514.625056 221.147368 
L 515.418703 288.347368 
L 516.21235 164.557895 
L 517.005997 119.463158 
L 517.799644 256.515789 
L 518.593291 189.315789 
L 519.386938 92.936842 
L 520.180586 242.368421 
L 520.974233 170.747368 
L 521.76788 115.042105 
L 522.561527 233.526316 
L 523.355174 220.263158 
L 524.148821 245.905263 
L 524.942468 293.652632 
L 525.736115 275.084211 
L 526.529762 191.968421 
L 527.323409 270.663158 
L 528.117056 199.926316 
L 529.70435 307.8 
L 530.497997 248.557895 
L 531.291644 217.610526 
L 532.085291 240.6 
L 532.878938 289.231579 
L 533.672585 177.821053 
L 534.466232 307.8 
L 536.847173 307.8 
L 537.64082 293.652632 
L 538.434467 210.536842 
L 539.228114 307.8 
L 540.815408 307.8 
L 541.609055 263.589474 
L 542.402702 205.231579 
L 543.196349 290.115789 
L 543.989996 307.8 
L 544.783643 264.473684 
L 545.577291 278.621053 
L 546.370938 307.8 
L 547.164585 211.421053 
L 547.958232 236.178947 
L 548.751879 307.8 
L 549.545526 229.989474 
L 550.339173 214.957895 
L 551.13282 204.347368 
L 551.926467 155.715789 
L 552.720114 207.884211 
L 554.307408 123 
L 555.101055 285.694737 
L 555.894702 191.968421 
L 556.688349 195.505263 
L 557.481996 298.073684 
L 558.275643 162.789474 
L 559.06929 157.484211 
L 559.862937 115.926316 
L 560.656584 307.8 
L 561.450231 219.378947 
L 562.243878 80.557895 
L 563.037525 174.284211 
L 563.831172 307.8 
L 564.624819 203.463158 
L 565.418466 130.073684 
L 566.212113 88.515789 
L 567.00576 239.715789 
L 567.799407 307.8 
L 568.593054 257.4 
L 569.386701 307.8 
L 570.180348 303.378947 
L 570.973995 307.8 
L 571.767643 240.6 
L 572.56129 307.8 
L 573.354937 220.263158 
L 574.148584 275.084211 
L 574.942231 261.821053 
L 575.735878 307.8 
L 578.116819 307.8 
L 578.910466 282.157895 
L 579.704113 307.8 
L 580.49776 307.8 
L 581.291407 275.084211 
L 582.085054 307.8 
L 585.259642 307.8 
L 586.053289 298.073684 
L 586.846936 281.273684 
L 587.640583 286.578947 
L 588.43423 131.842105 
L 589.227877 197.273684 
L 590.021524 162.789474 
L 590.815171 277.736842 
L 591.608818 184.894737 
L 592.402465 222.031579 
L 593.196112 213.189474 
L 593.989759 133.610526 
L 594.783406 180.473684 
L 595.577053 292.768421 
L 596.3707 223.8 
L 597.164348 210.536842 
L 597.957995 211.421053 
L 598.751642 131.842105 
L 599.545289 223.8 
L 600.338936 257.4 
L 601.132583 235.294737 
L 601.92623 301.610526 
L 602.719877 145.105263 
L 603.513524 276.852632 
L 604.307171 191.968421 
L 605.100818 257.4 
L 605.894465 292.768421 
L 606.688112 230.873684 
L 607.481759 288.347368 
L 608.275406 280.389474 
L 609.069053 307.8 
L 613.037288 307.8 
L 613.830935 290.115789 
L 614.624582 262.705263 
L 615.418229 307.8 
L 617.005523 307.8 
L 617.79917 271.547368 
L 618.592817 307.8 
L 620.180111 307.8 
L 620.973758 276.852632 
L 621.767405 307.8 
L 622.561053 303.378947 
L 623.3547 307.8 
L 625.735641 307.8 
L 626.529288 282.157895 
L 627.322935 298.957895 
L 628.116582 125.652632 
L 628.910229 257.4 
L 629.703876 243.252632 
L 630.497523 237.947368 
L 631.29117 138.915789 
L 632.084817 212.305263 
L 632.878464 166.326316 
L 633.672111 133.610526 
L 634.465758 220.263158 
L 635.259405 197.273684 
L 636.053052 199.926316 
L 636.846699 211.421053 
L 637.640346 250.326316 
L 638.433993 165.442105 
L 639.22764 259.168421 
L 640.021287 194.621053 
L 640.814934 157.484211 
L 641.608581 168.094737 
L 642.402228 161.905263 
L 643.195875 192.852632 
L 643.989522 105.315789 
L 644.783169 307.8 
L 645.576816 206.115789 
L 646.370463 81.442105 
L 647.16411 244.136842 
L 647.957757 306.031579 
L 648.751405 307.8 
L 649.545052 307.8 
L 650.338699 265.357895 
L 651.132346 307.8 
L 651.925993 305.147368 
L 652.71964 307.8 
L 654.306934 307.8 
L 655.100581 298.957895 
L 655.894228 223.8 
L 656.687875 301.610526 
L 657.481522 307.8 
L 658.275169 267.126316 
L 659.068816 242.368421 
L 659.862463 307.8 
L 660.65611 307.8 
L 661.449757 244.136842 
L 662.243404 302.494737 
L 663.037051 216.726316 
L 663.830698 249.442105 
L 664.624345 250.326316 
L 665.417992 213.189474 
L 666.211639 307.8 
L 667.005286 151.294737 
L 667.798933 256.515789 
L 668.59258 210.536842 
L 669.386227 145.989474 
L 670.179874 238.831579 
L 670.973521 307.8 
L 671.767168 125.652632 
L 672.560815 307.8 
L 673.354462 209.652632 
L 674.14811 211.421053 
L 674.941757 284.810526 
L 675.735404 214.073684 
L 676.529051 180.473684 
L 677.322698 291 
L 678.116345 229.989474 
L 678.909992 95.589474 
L 679.703639 260.052632 
L 680.497286 86.747368 
L 681.290933 252.094737 
L 682.08458 275.084211 
L 682.878227 307.8 
L 683.671874 233.526316 
L 684.465521 307.8 
L 685.259168 247.673684 
L 686.052815 230.873684 
L 686.846462 136.263158 
L 687.640109 307.8 
L 688.433756 233.526316 
L 689.227403 267.126316 
L 690.02105 179.589474 
L 690.814697 307.8 
L 691.608344 302.494737 
L 692.401991 287.463158 
L 693.195638 307.8 
L 693.989285 191.084211 
L 694.782932 307.8 
L 695.576579 235.294737 
L 696.370226 237.947368 
L 697.163873 290.115789 
L 697.95752 233.526316 
L 698.751167 307.8 
L 699.544815 199.926316 
L 700.338462 284.810526 
L 701.132109 307.8 
L 702.719403 307.8 
L 703.51305 254.747368 
L 704.306697 306.915789 
L 705.100344 307.8 
L 705.893991 290.115789 
L 706.687638 251.210526 
L 708.274932 145.989474 
L 709.068579 253.863158 
L 709.862226 286.578947 
L 710.655873 275.084211 
L 711.44952 237.947368 
L 712.243167 171.631579 
L 713.036814 263.589474 
L 713.830461 147.757895 
L 715.417755 304.263158 
L 716.211402 205.231579 
L 717.005049 268.010526 
L 717.798696 219.378947 
L 718.592343 307.8 
L 719.38599 199.042105 
L 720.179637 155.715789 
L 720.973284 120.347368 
L 721.766931 285.694737 
L 723.354225 128.305263 
L 724.941519 282.157895 
L 725.735167 271.547368 
L 726.528814 184.894737 
L 727.322461 150.410526 
L 728.116108 287.463158 
L 728.909755 307.8 
L 734.465284 307.8 
L 735.258931 289.231579 
L 736.052578 307.8 
L 736.846225 307.8 
L 737.639872 222.915789 
L 738.433519 307.8 
L 739.227166 232.642105 
L 740.020813 288.347368 
L 740.81446 249.442105 
L 741.608107 307.8 
L 742.401754 191.084211 
L 743.195401 307.8 
L 747.163636 307.8 
L 747.163636 307.8 
" clip-path="url(#pd943f5d115)" style="fill: none; stroke: #191970; stroke-width: 2; stroke-linecap: square"/>
   </g>
   <g id="patch_3">
    <path d="M 108 320.4 
L 108 43.2 
" style="fill: none; stroke: #000000; stroke-width: 0.8; stroke-linejoin: miter; stroke-linecap: square"/>
   </g>
   <g id="patch_4">
    <path d="M 777.6 320.4 
L 777.6 43.2 
" style="fill: none; stroke: #000000; stroke-width: 0.8; stroke-linejoin: miter; stroke-linecap: square"/>
   </g>
   <g id="patch_5">
    <path d="M 108 320.4 
L 777.6 320.4 
" style="fill: none; stroke: #000000; stroke-width: 0.8; stroke-linejoin: miter; stroke-linecap: square"/>
   </g>
   <g id="patch_6">
    <path d="M 108 43.2 
L 777.6 43.2 
" style="fill: none; stroke: #000000; stroke-width: 0.8; stroke-linejoin: miter; stroke-linecap: square"/>
   </g>
   <g id="text_18">
    <!-- TIME SERIES -->
    <g transform="translate(405.350625 37.2) scale(0.12 -0.12)">
     <defs>
      <path id="DejaVuSans-52" d="M 2841 2188 
Q 3044 2119 3236 1894 
Q 3428 1669 3622 1275 
L 4263 0 
L 3584 0 
L 2988 1197 
Q 2756 1666 2539 1819 
Q 2322 1972 1947 1972 
L 1259 1972 
L 1259 0 
L 628 0 
L 628 4666 
L 2053 4666 
Q 2853 4666 3247 4331 
Q 3641 3997 3641 3322 
Q 3641 2881 3436 2590 
Q 3231 2300 2841 2188 
z
M 1259 4147 
L 1259 2491 
L 2053 2491 
Q 2509 2491 2742 2702 
Q 2975 2913 2975 3322 
Q 2975 3731 2742 3939 
Q 2509 4147 2053 4147 
L 1259 4147 
z
" transform="scale(0.015625)"/>
     </defs>
     <use xlink:href="#DejaVuSans-54"/>
     <use xlink:href="#DejaVuSans-49" x="61.083984"/>
     <use xlink:href="#DejaVuSans-4d" x="90.576172"/>
     <use xlink:href="#DejaVuSans-45" x="176.855469"/>
     <use xlink:href="#DejaVuSans-20" x="240.039062"/>
     <use xlink:href="#DejaVuSans-53" x="271.826172"/>
     <use xlink:href="#DejaVuSans-45" x="335.302734"/>
     <use xlink:href="#DejaVuSans-52" x="398.486328"/>
     <use xlink:href="#DejaVuSans-49" x="467.96875"/>
     <use xlink:href="#DejaVuSans-45" x="497.460938"/>
     <use xlink:href="#DejaVuSans-53" x="560.644531"/>
    </g>
   </g>
  </g>
 </g>
 <defs>
  <clipPath id="pd943f5d115">
   <rect x="108" y="43.2" width="669.6" height="277.2"/>
  </clipPath>
 </defs>
</svg>
