<?xml version="1.0" encoding="utf-8" standalone="no"?>
<!DOCTYPE svg PUBLIC "-//W3C//DTD SVG 1.1//EN"
  "http://www.w3.org/Graphics/SVG/1.1/DTD/svg11.dtd">
<svg xmlns:xlink="http://www.w3.org/1999/xlink" width="864pt" height="360pt" viewBox="0 0 864 360" xmlns="http://www.w3.org/2000/svg" version="1.1">
 <metadata>
  <rdf:RDF xmlns:dc="http://purl.org/dc/elements/1.1/" xmlns:cc="http://creativecommons.org/ns#" xmlns:rdf="http://www.w3.org/1999/02/22-rdf-syntax-ns#">
   <cc:Work>
    <dc:type rdf:resource="http://purl.org/dc/dcmitype/StillImage"/>
    <dc:date>2023-08-03T16:42:01.940949</dc:date>
    <dc:format>image/svg+xml</dc:format>
    <dc:creator>
     <cc:Agent>
      <dc:title>Matplotlib v3.7.1, https://matplotlib.org/</dc:title>
     </cc:Agent>
    </dc:creator>
   </cc:Work>
  </rdf:RDF>
 </metadata>
 <defs>
  <style type="text/css">*{stroke-linejoin: round; stroke-linecap: butt}</style>
 </defs>
 <g id="figure_1">
  <g id="patch_1">
   <path d="M 0 360 
L 864 360 
L 864 0 
L 0 0 
z
" style="fill: #ffffff"/>
  </g>
  <g id="axes_1">
   <g id="patch_2">
    <path d="M 108 320.4 
L 777.6 320.4 
L 777.6 43.2 
L 108 43.2 
z
" style="fill: #ffffff"/>
   </g>
   <g id="matplotlib.axis_1">
    <g id="xtick_1">
     <g id="line2d_1">
      <defs>
       <path id="m4d81a2816d" d="M 0 0 
L 0 3.5 
" style="stroke: #000000; stroke-width: 0.8"/>
      </defs>
      <g>
       <use xlink:href="#m4d81a2816d" x="138.436364" y="320.4" style="stroke: #000000; stroke-width: 0.8"/>
      </g>
     </g>
     <g id="text_1">
      <!-- 2022-01-01 -->
      <g transform="translate(109.378551 334.998438) scale(0.1 -0.1)">
       <defs>
        <path id="DejaVuSans-32" d="M 1228 531 
L 3431 531 
L 3431 0 
L 469 0 
L 469 531 
Q 828 903 1448 1529 
Q 2069 2156 2228 2338 
Q 2531 2678 2651 2914 
Q 2772 3150 2772 3378 
Q 2772 3750 2511 3984 
Q 2250 4219 1831 4219 
Q 1534 4219 1204 4116 
Q 875 4013 500 3803 
L 500 4441 
Q 881 4594 1212 4672 
Q 1544 4750 1819 4750 
Q 2544 4750 2975 4387 
Q 3406 4025 3406 3419 
Q 3406 3131 3298 2873 
Q 3191 2616 2906 2266 
Q 2828 2175 2409 1742 
Q 1991 1309 1228 531 
z
" transform="scale(0.015625)"/>
        <path id="DejaVuSans-30" d="M 2034 4250 
Q 1547 4250 1301 3770 
Q 1056 3291 1056 2328 
Q 1056 1369 1301 889 
Q 1547 409 2034 409 
Q 2525 409 2770 889 
Q 3016 1369 3016 2328 
Q 3016 3291 2770 3770 
Q 2525 4250 2034 4250 
z
M 2034 4750 
Q 2819 4750 3233 4129 
Q 3647 3509 3647 2328 
Q 3647 1150 3233 529 
Q 2819 -91 2034 -91 
Q 1250 -91 836 529 
Q 422 1150 422 2328 
Q 422 3509 836 4129 
Q 1250 4750 2034 4750 
z
" transform="scale(0.015625)"/>
        <path id="DejaVuSans-2d" d="M 313 2009 
L 1997 2009 
L 1997 1497 
L 313 1497 
L 313 2009 
z
" transform="scale(0.015625)"/>
        <path id="DejaVuSans-31" d="M 794 531 
L 1825 531 
L 1825 4091 
L 703 3866 
L 703 4441 
L 1819 4666 
L 2450 4666 
L 2450 531 
L 3481 531 
L 3481 0 
L 794 0 
L 794 531 
z
" transform="scale(0.015625)"/>
       </defs>
       <use xlink:href="#DejaVuSans-32"/>
       <use xlink:href="#DejaVuSans-30" x="63.623047"/>
       <use xlink:href="#DejaVuSans-32" x="127.246094"/>
       <use xlink:href="#DejaVuSans-32" x="190.869141"/>
       <use xlink:href="#DejaVuSans-2d" x="254.492188"/>
       <use xlink:href="#DejaVuSans-30" x="290.576172"/>
       <use xlink:href="#DejaVuSans-31" x="354.199219"/>
       <use xlink:href="#DejaVuSans-2d" x="417.822266"/>
       <use xlink:href="#DejaVuSans-30" x="453.90625"/>
       <use xlink:href="#DejaVuSans-31" x="517.529297"/>
      </g>
     </g>
    </g>
    <g id="xtick_2">
     <g id="line2d_2">
      <g>
       <use xlink:href="#m4d81a2816d" x="249.324064" y="320.4" style="stroke: #000000; stroke-width: 0.8"/>
      </g>
     </g>
     <g id="text_2">
      <!-- 2022-01-03 -->
      <g transform="translate(220.266252 334.998438) scale(0.1 -0.1)">
       <defs>
        <path id="DejaVuSans-33" d="M 2597 2516 
Q 3050 2419 3304 2112 
Q 3559 1806 3559 1356 
Q 3559 666 3084 287 
Q 2609 -91 1734 -91 
Q 1441 -91 1130 -33 
Q 819 25 488 141 
L 488 750 
Q 750 597 1062 519 
Q 1375 441 1716 441 
Q 2309 441 2620 675 
Q 2931 909 2931 1356 
Q 2931 1769 2642 2001 
Q 2353 2234 1838 2234 
L 1294 2234 
L 1294 2753 
L 1863 2753 
Q 2328 2753 2575 2939 
Q 2822 3125 2822 3475 
Q 2822 3834 2567 4026 
Q 2313 4219 1838 4219 
Q 1578 4219 1281 4162 
Q 984 4106 628 3988 
L 628 4550 
Q 988 4650 1302 4700 
Q 1616 4750 1894 4750 
Q 2613 4750 3031 4423 
Q 3450 4097 3450 3541 
Q 3450 3153 3228 2886 
Q 3006 2619 2597 2516 
z
" transform="scale(0.015625)"/>
       </defs>
       <use xlink:href="#DejaVuSans-32"/>
       <use xlink:href="#DejaVuSans-30" x="63.623047"/>
       <use xlink:href="#DejaVuSans-32" x="127.246094"/>
       <use xlink:href="#DejaVuSans-32" x="190.869141"/>
       <use xlink:href="#DejaVuSans-2d" x="254.492188"/>
       <use xlink:href="#DejaVuSans-30" x="290.576172"/>
       <use xlink:href="#DejaVuSans-31" x="354.199219"/>
       <use xlink:href="#DejaVuSans-2d" x="417.822266"/>
       <use xlink:href="#DejaVuSans-30" x="453.90625"/>
       <use xlink:href="#DejaVuSans-33" x="517.529297"/>
      </g>
     </g>
    </g>
    <g id="xtick_3">
     <g id="line2d_3">
      <g>
       <use xlink:href="#m4d81a2816d" x="360.211765" y="320.4" style="stroke: #000000; stroke-width: 0.8"/>
      </g>
     </g>
     <g id="text_3">
      <!-- 2022-01-05 -->
      <g transform="translate(331.153952 334.998438) scale(0.1 -0.1)">
       <defs>
        <path id="DejaVuSans-35" d="M 691 4666 
L 3169 4666 
L 3169 4134 
L 1269 4134 
L 1269 2991 
Q 1406 3038 1543 3061 
Q 1681 3084 1819 3084 
Q 2600 3084 3056 2656 
Q 3513 2228 3513 1497 
Q 3513 744 3044 326 
Q 2575 -91 1722 -91 
Q 1428 -91 1123 -41 
Q 819 9 494 109 
L 494 744 
Q 775 591 1075 516 
Q 1375 441 1709 441 
Q 2250 441 2565 725 
Q 2881 1009 2881 1497 
Q 2881 1984 2565 2268 
Q 2250 2553 1709 2553 
Q 1456 2553 1204 2497 
Q 953 2441 691 2322 
L 691 4666 
z
" transform="scale(0.015625)"/>
       </defs>
       <use xlink:href="#DejaVuSans-32"/>
       <use xlink:href="#DejaVuSans-30" x="63.623047"/>
       <use xlink:href="#DejaVuSans-32" x="127.246094"/>
       <use xlink:href="#DejaVuSans-32" x="190.869141"/>
       <use xlink:href="#DejaVuSans-2d" x="254.492188"/>
       <use xlink:href="#DejaVuSans-30" x="290.576172"/>
       <use xlink:href="#DejaVuSans-31" x="354.199219"/>
       <use xlink:href="#DejaVuSans-2d" x="417.822266"/>
       <use xlink:href="#DejaVuSans-30" x="453.90625"/>
       <use xlink:href="#DejaVuSans-35" x="517.529297"/>
      </g>
     </g>
    </g>
    <g id="xtick_4">
     <g id="line2d_4">
      <g>
       <use xlink:href="#m4d81a2816d" x="471.099465" y="320.4" style="stroke: #000000; stroke-width: 0.8"/>
      </g>
     </g>
     <g id="text_4">
      <!-- 2022-01-07 -->
      <g transform="translate(442.041653 334.998438) scale(0.1 -0.1)">
       <defs>
        <path id="DejaVuSans-37" d="M 525 4666 
L 3525 4666 
L 3525 4397 
L 1831 0 
L 1172 0 
L 2766 4134 
L 525 4134 
L 525 4666 
z
" transform="scale(0.015625)"/>
       </defs>
       <use xlink:href="#DejaVuSans-32"/>
       <use xlink:href="#DejaVuSans-30" x="63.623047"/>
       <use xlink:href="#DejaVuSans-32" x="127.246094"/>
       <use xlink:href="#DejaVuSans-32" x="190.869141"/>
       <use xlink:href="#DejaVuSans-2d" x="254.492188"/>
       <use xlink:href="#DejaVuSans-30" x="290.576172"/>
       <use xlink:href="#DejaVuSans-31" x="354.199219"/>
       <use xlink:href="#DejaVuSans-2d" x="417.822266"/>
       <use xlink:href="#DejaVuSans-30" x="453.90625"/>
       <use xlink:href="#DejaVuSans-37" x="517.529297"/>
      </g>
     </g>
    </g>
    <g id="xtick_5">
     <g id="line2d_5">
      <g>
       <use xlink:href="#m4d81a2816d" x="581.987166" y="320.4" style="stroke: #000000; stroke-width: 0.8"/>
      </g>
     </g>
     <g id="text_5">
      <!-- 2022-01-09 -->
      <g transform="translate(552.929353 334.998438) scale(0.1 -0.1)">
       <defs>
        <path id="DejaVuSans-39" d="M 703 97 
L 703 672 
Q 941 559 1184 500 
Q 1428 441 1663 441 
Q 2288 441 2617 861 
Q 2947 1281 2994 2138 
Q 2813 1869 2534 1725 
Q 2256 1581 1919 1581 
Q 1219 1581 811 2004 
Q 403 2428 403 3163 
Q 403 3881 828 4315 
Q 1253 4750 1959 4750 
Q 2769 4750 3195 4129 
Q 3622 3509 3622 2328 
Q 3622 1225 3098 567 
Q 2575 -91 1691 -91 
Q 1453 -91 1209 -44 
Q 966 3 703 97 
z
M 1959 2075 
Q 2384 2075 2632 2365 
Q 2881 2656 2881 3163 
Q 2881 3666 2632 3958 
Q 2384 4250 1959 4250 
Q 1534 4250 1286 3958 
Q 1038 3666 1038 3163 
Q 1038 2656 1286 2365 
Q 1534 2075 1959 2075 
z
" transform="scale(0.015625)"/>
       </defs>
       <use xlink:href="#DejaVuSans-32"/>
       <use xlink:href="#DejaVuSans-30" x="63.623047"/>
       <use xlink:href="#DejaVuSans-32" x="127.246094"/>
       <use xlink:href="#DejaVuSans-32" x="190.869141"/>
       <use xlink:href="#DejaVuSans-2d" x="254.492188"/>
       <use xlink:href="#DejaVuSans-30" x="290.576172"/>
       <use xlink:href="#DejaVuSans-31" x="354.199219"/>
       <use xlink:href="#DejaVuSans-2d" x="417.822266"/>
       <use xlink:href="#DejaVuSans-30" x="453.90625"/>
       <use xlink:href="#DejaVuSans-39" x="517.529297"/>
      </g>
     </g>
    </g>
    <g id="xtick_6">
     <g id="line2d_6">
      <g>
       <use xlink:href="#m4d81a2816d" x="692.874866" y="320.4" style="stroke: #000000; stroke-width: 0.8"/>
      </g>
     </g>
     <g id="text_6">
      <!-- 2022-01-11 -->
      <g transform="translate(663.817054 334.998438) scale(0.1 -0.1)">
       <use xlink:href="#DejaVuSans-32"/>
       <use xlink:href="#DejaVuSans-30" x="63.623047"/>
       <use xlink:href="#DejaVuSans-32" x="127.246094"/>
       <use xlink:href="#DejaVuSans-32" x="190.869141"/>
       <use xlink:href="#DejaVuSans-2d" x="254.492188"/>
       <use xlink:href="#DejaVuSans-30" x="290.576172"/>
       <use xlink:href="#DejaVuSans-31" x="354.199219"/>
       <use xlink:href="#DejaVuSans-2d" x="417.822266"/>
       <use xlink:href="#DejaVuSans-31" x="453.90625"/>
       <use xlink:href="#DejaVuSans-31" x="517.529297"/>
      </g>
     </g>
    </g>
    <g id="text_7">
     <!-- TIME (DAYS) -->
     <g transform="translate(412.283594 348.676562) scale(0.1 -0.1)">
      <defs>
       <path id="DejaVuSans-54" d="M -19 4666 
L 3928 4666 
L 3928 4134 
L 2272 4134 
L 2272 0 
L 1638 0 
L 1638 4134 
L -19 4134 
L -19 4666 
z
" transform="scale(0.015625)"/>
       <path id="DejaVuSans-49" d="M 628 4666 
L 1259 4666 
L 1259 0 
L 628 0 
L 628 4666 
z
" transform="scale(0.015625)"/>
       <path id="DejaVuSans-4d" d="M 628 4666 
L 1569 4666 
L 2759 1491 
L 3956 4666 
L 4897 4666 
L 4897 0 
L 4281 0 
L 4281 4097 
L 3078 897 
L 2444 897 
L 1241 4097 
L 1241 0 
L 628 0 
L 628 4666 
z
" transform="scale(0.015625)"/>
       <path id="DejaVuSans-45" d="M 628 4666 
L 3578 4666 
L 3578 4134 
L 1259 4134 
L 1259 2753 
L 3481 2753 
L 3481 2222 
L 1259 2222 
L 1259 531 
L 3634 531 
L 3634 0 
L 628 0 
L 628 4666 
z
" transform="scale(0.015625)"/>
       <path id="DejaVuSans-20" transform="scale(0.015625)"/>
       <path id="DejaVuSans-28" d="M 1984 4856 
Q 1566 4138 1362 3434 
Q 1159 2731 1159 2009 
Q 1159 1288 1364 580 
Q 1569 -128 1984 -844 
L 1484 -844 
Q 1016 -109 783 600 
Q 550 1309 550 2009 
Q 550 2706 781 3412 
Q 1013 4119 1484 4856 
L 1984 4856 
z
" transform="scale(0.015625)"/>
       <path id="DejaVuSans-44" d="M 1259 4147 
L 1259 519 
L 2022 519 
Q 2988 519 3436 956 
Q 3884 1394 3884 2338 
Q 3884 3275 3436 3711 
Q 2988 4147 2022 4147 
L 1259 4147 
z
M 628 4666 
L 1925 4666 
Q 3281 4666 3915 4102 
Q 4550 3538 4550 2338 
Q 4550 1131 3912 565 
Q 3275 0 1925 0 
L 628 0 
L 628 4666 
z
" transform="scale(0.015625)"/>
       <path id="DejaVuSans-41" d="M 2188 4044 
L 1331 1722 
L 3047 1722 
L 2188 4044 
z
M 1831 4666 
L 2547 4666 
L 4325 0 
L 3669 0 
L 3244 1197 
L 1141 1197 
L 716 0 
L 50 0 
L 1831 4666 
z
" transform="scale(0.015625)"/>
       <path id="DejaVuSans-59" d="M -13 4666 
L 666 4666 
L 1959 2747 
L 3244 4666 
L 3922 4666 
L 2272 2222 
L 2272 0 
L 1638 0 
L 1638 2222 
L -13 4666 
z
" transform="scale(0.015625)"/>
       <path id="DejaVuSans-53" d="M 3425 4513 
L 3425 3897 
Q 3066 4069 2747 4153 
Q 2428 4238 2131 4238 
Q 1616 4238 1336 4038 
Q 1056 3838 1056 3469 
Q 1056 3159 1242 3001 
Q 1428 2844 1947 2747 
L 2328 2669 
Q 3034 2534 3370 2195 
Q 3706 1856 3706 1288 
Q 3706 609 3251 259 
Q 2797 -91 1919 -91 
Q 1588 -91 1214 -16 
Q 841 59 441 206 
L 441 856 
Q 825 641 1194 531 
Q 1563 422 1919 422 
Q 2459 422 2753 634 
Q 3047 847 3047 1241 
Q 3047 1584 2836 1778 
Q 2625 1972 2144 2069 
L 1759 2144 
Q 1053 2284 737 2584 
Q 422 2884 422 3419 
Q 422 4038 858 4394 
Q 1294 4750 2059 4750 
Q 2388 4750 2728 4690 
Q 3069 4631 3425 4513 
z
" transform="scale(0.015625)"/>
       <path id="DejaVuSans-29" d="M 513 4856 
L 1013 4856 
Q 1481 4119 1714 3412 
Q 1947 2706 1947 2009 
Q 1947 1309 1714 600 
Q 1481 -109 1013 -844 
L 513 -844 
Q 928 -128 1133 580 
Q 1338 1288 1338 2009 
Q 1338 2731 1133 3434 
Q 928 4138 513 4856 
z
" transform="scale(0.015625)"/>
      </defs>
      <use xlink:href="#DejaVuSans-54"/>
      <use xlink:href="#DejaVuSans-49" x="61.083984"/>
      <use xlink:href="#DejaVuSans-4d" x="90.576172"/>
      <use xlink:href="#DejaVuSans-45" x="176.855469"/>
      <use xlink:href="#DejaVuSans-20" x="240.039062"/>
      <use xlink:href="#DejaVuSans-28" x="271.826172"/>
      <use xlink:href="#DejaVuSans-44" x="310.839844"/>
      <use xlink:href="#DejaVuSans-41" x="386.091797"/>
      <use xlink:href="#DejaVuSans-59" x="446.75"/>
      <use xlink:href="#DejaVuSans-53" x="507.833984"/>
      <use xlink:href="#DejaVuSans-29" x="571.310547"/>
     </g>
    </g>
   </g>
   <g id="matplotlib.axis_2">
    <g id="ytick_1">
     <g id="line2d_7">
      <defs>
       <path id="m411b2f4951" d="M 0 0 
L -3.5 0 
" style="stroke: #000000; stroke-width: 0.8"/>
      </defs>
      <g>
       <use xlink:href="#m411b2f4951" x="108" y="307.8" style="stroke: #000000; stroke-width: 0.8"/>
      </g>
     </g>
     <g id="text_8">
      <!-- 0 -->
      <g transform="translate(94.6375 311.599219) scale(0.1 -0.1)">
       <use xlink:href="#DejaVuSans-30"/>
      </g>
     </g>
    </g>
    <g id="ytick_2">
     <g id="line2d_8">
      <g>
       <use xlink:href="#m411b2f4951" x="108" y="267.544409" style="stroke: #000000; stroke-width: 0.8"/>
      </g>
     </g>
     <g id="text_9">
      <!-- 50 -->
      <g transform="translate(88.275 271.343628) scale(0.1 -0.1)">
       <use xlink:href="#DejaVuSans-35"/>
       <use xlink:href="#DejaVuSans-30" x="63.623047"/>
      </g>
     </g>
    </g>
    <g id="ytick_3">
     <g id="line2d_9">
      <g>
       <use xlink:href="#m411b2f4951" x="108" y="227.288818" style="stroke: #000000; stroke-width: 0.8"/>
      </g>
     </g>
     <g id="text_10">
      <!-- 100 -->
      <g transform="translate(81.9125 231.088037) scale(0.1 -0.1)">
       <use xlink:href="#DejaVuSans-31"/>
       <use xlink:href="#DejaVuSans-30" x="63.623047"/>
       <use xlink:href="#DejaVuSans-30" x="127.246094"/>
      </g>
     </g>
    </g>
    <g id="ytick_4">
     <g id="line2d_10">
      <g>
       <use xlink:href="#m411b2f4951" x="108" y="187.033227" style="stroke: #000000; stroke-width: 0.8"/>
      </g>
     </g>
     <g id="text_11">
      <!-- 150 -->
      <g transform="translate(81.9125 190.832446) scale(0.1 -0.1)">
       <use xlink:href="#DejaVuSans-31"/>
       <use xlink:href="#DejaVuSans-35" x="63.623047"/>
       <use xlink:href="#DejaVuSans-30" x="127.246094"/>
      </g>
     </g>
    </g>
    <g id="ytick_5">
     <g id="line2d_11">
      <g>
       <use xlink:href="#m411b2f4951" x="108" y="146.777636" style="stroke: #000000; stroke-width: 0.8"/>
      </g>
     </g>
     <g id="text_12">
      <!-- 200 -->
      <g transform="translate(81.9125 150.576855) scale(0.1 -0.1)">
       <use xlink:href="#DejaVuSans-32"/>
       <use xlink:href="#DejaVuSans-30" x="63.623047"/>
       <use xlink:href="#DejaVuSans-30" x="127.246094"/>
      </g>
     </g>
    </g>
    <g id="ytick_6">
     <g id="line2d_12">
      <g>
       <use xlink:href="#m411b2f4951" x="108" y="106.522045" style="stroke: #000000; stroke-width: 0.8"/>
      </g>
     </g>
     <g id="text_13">
      <!-- 250 -->
      <g transform="translate(81.9125 110.321263) scale(0.1 -0.1)">
       <use xlink:href="#DejaVuSans-32"/>
       <use xlink:href="#DejaVuSans-35" x="63.623047"/>
       <use xlink:href="#DejaVuSans-30" x="127.246094"/>
      </g>
     </g>
    </g>
    <g id="ytick_7">
     <g id="line2d_13">
      <g>
       <use xlink:href="#m411b2f4951" x="108" y="66.266454" style="stroke: #000000; stroke-width: 0.8"/>
      </g>
     </g>
     <g id="text_14">
      <!-- 300 -->
      <g transform="translate(81.9125 70.065672) scale(0.1 -0.1)">
       <use xlink:href="#DejaVuSans-33"/>
       <use xlink:href="#DejaVuSans-30" x="63.623047"/>
       <use xlink:href="#DejaVuSans-30" x="127.246094"/>
      </g>
     </g>
    </g>
    <g id="text_15">
     <!-- AMPLITUDE -->
     <g transform="translate(75.832812 210.532812) rotate(-90) scale(0.1 -0.1)">
      <defs>
       <path id="DejaVuSans-50" d="M 1259 4147 
L 1259 2394 
L 2053 2394 
Q 2494 2394 2734 2622 
Q 2975 2850 2975 3272 
Q 2975 3691 2734 3919 
Q 2494 4147 2053 4147 
L 1259 4147 
z
M 628 4666 
L 2053 4666 
Q 2838 4666 3239 4311 
Q 3641 3956 3641 3272 
Q 3641 2581 3239 2228 
Q 2838 1875 2053 1875 
L 1259 1875 
L 1259 0 
L 628 0 
L 628 4666 
z
" transform="scale(0.015625)"/>
       <path id="DejaVuSans-4c" d="M 628 4666 
L 1259 4666 
L 1259 531 
L 3531 531 
L 3531 0 
L 628 0 
L 628 4666 
z
" transform="scale(0.015625)"/>
       <path id="DejaVuSans-55" d="M 556 4666 
L 1191 4666 
L 1191 1831 
Q 1191 1081 1462 751 
Q 1734 422 2344 422 
Q 2950 422 3222 751 
Q 3494 1081 3494 1831 
L 3494 4666 
L 4128 4666 
L 4128 1753 
Q 4128 841 3676 375 
Q 3225 -91 2344 -91 
Q 1459 -91 1007 375 
Q 556 841 556 1753 
L 556 4666 
z
" transform="scale(0.015625)"/>
      </defs>
      <use xlink:href="#DejaVuSans-41"/>
      <use xlink:href="#DejaVuSans-4d" x="68.408203"/>
      <use xlink:href="#DejaVuSans-50" x="154.6875"/>
      <use xlink:href="#DejaVuSans-4c" x="214.990234"/>
      <use xlink:href="#DejaVuSans-49" x="270.703125"/>
      <use xlink:href="#DejaVuSans-54" x="300.195312"/>
      <use xlink:href="#DejaVuSans-55" x="361.279297"/>
      <use xlink:href="#DejaVuSans-44" x="434.472656"/>
      <use xlink:href="#DejaVuSans-45" x="511.474609"/>
     </g>
    </g>
   </g>
   <g id="line2d_14">
    <path d="M 138.436364 164.490096 
L 139.591444 307.8 
L 140.746524 306.994888 
L 141.901604 289.282428 
L 143.056684 307.8 
L 144.211765 290.08754 
L 145.366845 307.8 
L 146.521925 264.323962 
L 147.677005 307.8 
L 149.987166 307.8 
L 151.142246 124.234505 
L 152.297326 228.899042 
L 153.452406 306.994888 
L 154.607487 307.8 
L 155.762567 302.164217 
L 156.917647 307.8 
L 158.072727 273.985304 
L 159.227807 307.8 
L 160.382888 271.569968 
L 161.537968 307.8 
L 162.693048 277.205751 
L 163.848128 307.8 
L 165.003209 292.502875 
L 166.158289 307.8 
L 168.468449 196.694569 
L 169.623529 220.847923 
L 170.77861 144.3623 
L 171.93369 137.116294 
L 173.08877 232.924601 
L 174.24385 298.94377 
L 175.39893 295.723323 
L 176.554011 205.550799 
L 177.709091 124.234505 
L 178.864171 199.915016 
L 180.019251 127.454952 
L 181.174332 195.889457 
L 182.329412 241.780831 
L 183.484492 174.95655 
L 184.639572 224.068371 
L 185.794652 101.691374 
L 186.949733 165.295208 
L 188.104813 192.66901 
L 189.259893 268.349521 
L 190.414973 253.052396 
L 191.570053 278.010863 
L 192.725134 228.899042 
L 193.880214 299.748882 
L 195.035294 307.8 
L 196.190374 307.8 
L 197.345455 300.553994 
L 198.500535 302.164217 
L 199.655615 307.8 
L 200.810695 269.154633 
L 201.965775 199.915016 
L 203.120856 264.323962 
L 204.275936 307.8 
L 208.896257 307.8 
L 210.051337 290.892652 
L 211.206417 301.359105 
L 212.361497 307.8 
L 213.516578 270.764856 
L 214.671658 286.867093 
L 215.826738 307.8 
L 216.981818 265.934185 
L 218.136898 307.8 
L 219.291979 307.8 
L 220.447059 289.282428 
L 221.602139 307.8 
L 222.757219 294.113099 
L 223.912299 218.432588 
L 225.06738 205.550799 
L 226.22246 165.295208 
L 227.37754 228.899042 
L 228.53262 209.576358 
L 229.687701 235.339936 
L 230.842781 160.464537 
L 231.997861 206.355911 
L 233.152941 175.761661 
L 234.308021 241.780831 
L 235.463102 211.186581 
L 236.618182 151.608307 
L 237.773262 245.80639 
L 238.928342 307.8 
L 240.083422 181.397444 
L 241.238503 263.51885 
L 242.393583 211.186581 
L 243.548663 164.490096 
L 244.703743 236.145048 
L 245.858824 294.918211 
L 247.013904 137.116294 
L 248.168984 232.924601 
L 249.324064 206.355911 
L 250.479144 214.407029 
L 251.634225 307.8 
L 252.789305 294.113099 
L 253.944385 307.8 
L 255.099465 266.739297 
L 256.254545 154.023642 
L 257.409626 211.186581 
L 258.564706 307.8 
L 259.719786 276.400639 
L 260.874866 307.8 
L 262.029947 244.196166 
L 263.185027 307.8 
L 264.340107 307.8 
L 265.495187 262.713738 
L 266.650267 232.119489 
L 267.805348 240.170607 
L 268.960428 298.94377 
L 270.115508 307.8 
L 271.270588 304.579553 
L 272.425668 307.8 
L 274.735829 307.8 
L 275.890909 302.969329 
L 277.045989 307.8 
L 278.20107 307.8 
L 279.35615 245.001278 
L 280.51123 203.940575 
L 281.66631 218.432588 
L 282.82139 307.8 
L 283.976471 225.678594 
L 285.131551 182.202556 
L 286.286631 204.745687 
L 287.441711 240.975719 
L 288.596791 207.966134 
L 289.751872 231.314377 
L 290.906952 217.627476 
L 292.062032 274.790415 
L 293.217112 141.141853 
L 294.372193 266.739297 
L 295.527273 263.51885 
L 296.682353 269.154633 
L 297.837433 168.515655 
L 298.992513 278.815974 
L 300.147594 228.09393 
L 301.302674 165.295208 
L 302.457754 181.397444 
L 303.612834 307.8 
L 304.767914 224.068371 
L 305.922995 180.592332 
L 307.078075 120.208946 
L 308.233155 307.8 
L 309.388235 281.23131 
L 310.543316 289.282428 
L 311.698396 307.8 
L 316.318717 307.8 
L 317.473797 274.790415 
L 318.628877 307.8 
L 320.939037 307.8 
L 322.094118 261.908626 
L 323.249198 307.8 
L 324.404278 296.528435 
L 325.559358 307.8 
L 327.869519 307.8 
L 329.024599 265.934185 
L 330.179679 306.189776 
L 331.334759 307.8 
L 332.48984 307.8 
L 333.64492 269.154633 
L 334.8 272.37508 
L 335.95508 225.678594 
L 337.11016 286.867093 
L 338.265241 265.934185 
L 339.420321 242.585942 
L 340.575401 224.873482 
L 341.730481 257.883067 
L 342.885561 264.323962 
L 344.040642 241.780831 
L 345.195722 212.796805 
L 346.350802 236.145048 
L 347.505882 167.710543 
L 348.660963 307.8 
L 349.816043 236.95016 
L 350.971123 197.499681 
L 352.126203 236.145048 
L 353.281283 231.314377 
L 354.436364 209.576358 
L 355.591444 232.119489 
L 356.746524 150.803195 
L 357.901604 124.234505 
L 359.056684 242.585942 
L 360.211765 162.07476 
L 361.366845 228.899042 
L 362.521925 219.2377 
L 363.677005 297.333546 
L 364.832086 307.8 
L 367.142246 307.8 
L 368.297326 232.119489 
L 369.452406 307.8 
L 370.607487 307.8 
L 371.762567 253.857508 
L 372.917647 257.077955 
L 374.072727 198.304792 
L 375.227807 307.8 
L 376.382888 307.8 
L 377.537968 207.161022 
L 378.693048 307.8 
L 382.158289 307.8 
L 383.313369 185.423003 
L 384.468449 284.451757 
L 385.623529 307.8 
L 386.77861 297.333546 
L 387.93369 257.077955 
L 389.08877 307.8 
L 390.24385 290.08754 
L 391.39893 282.841534 
L 392.554011 220.042812 
L 393.709091 234.534824 
L 394.864171 193.474121 
L 396.019251 260.298403 
L 397.174332 191.058786 
L 398.329412 240.170607 
L 399.484492 307.8 
L 400.639572 265.129073 
L 401.794652 286.867093 
L 402.949733 144.3623 
L 404.104813 196.694569 
L 405.259893 164.490096 
L 406.414973 209.576358 
L 407.570053 130.675399 
L 408.725134 267.544409 
L 409.880214 256.272843 
L 411.035294 260.298403 
L 412.190374 260.298403 
L 413.345455 245.001278 
L 414.500535 227.288818 
L 415.655615 196.694569 
L 416.810695 253.857508 
L 417.965775 247.416613 
L 419.120856 204.745687 
L 420.275936 307.8 
L 421.431016 301.359105 
L 422.586096 261.908626 
L 423.741176 298.138658 
L 424.896257 294.918211 
L 426.051337 307.8 
L 427.206417 264.323962 
L 428.361497 259.493291 
L 429.516578 307.8 
L 430.671658 255.467732 
L 431.826738 298.138658 
L 432.981818 307.8 
L 434.136898 290.08754 
L 435.291979 263.51885 
L 436.447059 307.8 
L 437.602139 259.493291 
L 438.757219 248.221725 
L 439.912299 307.8 
L 441.06738 187.838339 
L 442.22246 306.994888 
L 443.37754 307.8 
L 444.53262 199.915016 
L 445.687701 269.959744 
L 446.842781 307.8 
L 447.997861 245.80639 
L 449.152941 307.8 
L 450.308021 242.585942 
L 451.463102 204.745687 
L 452.618182 248.221725 
L 453.773262 162.879872 
L 454.928342 307.8 
L 456.083422 162.879872 
L 457.238503 289.282428 
L 458.393583 170.125879 
L 459.548663 275.595527 
L 460.703743 251.442173 
L 461.858824 251.442173 
L 463.013904 55.8 
L 464.168984 255.467732 
L 465.324064 307.8 
L 466.479144 269.154633 
L 467.634225 202.330351 
L 468.789305 302.164217 
L 469.944385 257.883067 
L 471.099465 156.438978 
L 472.254545 302.969329 
L 473.409626 242.585942 
L 474.564706 214.407029 
L 475.719786 256.272843 
L 476.874866 189.448562 
L 478.029947 307.8 
L 480.340107 307.8 
L 481.495187 261.908626 
L 482.650267 307.8 
L 487.270588 307.8 
L 488.425668 268.349521 
L 489.580749 281.23131 
L 490.735829 232.924601 
L 491.890909 211.991693 
L 494.20107 307.8 
L 495.35615 307.8 
L 496.51123 273.180192 
L 497.66631 307.8 
L 498.82139 307.8 
L 499.976471 198.304792 
L 501.131551 307.8 
L 502.286631 303.774441 
L 503.441711 307.8 
L 504.596791 307.8 
L 505.751872 208.771246 
L 506.906952 191.863898 
L 508.062032 245.001278 
L 509.217112 246.611502 
L 510.372193 307.8 
L 511.527273 226.483706 
L 512.682353 203.940575 
L 513.837433 232.119489 
L 514.992513 185.423003 
L 516.147594 224.068371 
L 517.302674 211.991693 
L 518.457754 131.480511 
L 519.612834 267.544409 
L 520.767914 220.847923 
L 521.922995 229.704153 
L 523.078075 220.042812 
L 524.233155 149.192971 
L 525.388235 240.170607 
L 526.543316 236.95016 
L 527.698396 130.675399 
L 528.853476 163.684984 
L 530.008556 281.23131 
L 531.163636 240.975719 
L 532.318717 216.822364 
L 533.473797 307.8 
L 534.628877 307.8 
L 535.783957 297.333546 
L 536.939037 307.8 
L 539.249198 281.23131 
L 540.404278 298.94377 
L 541.559358 307.8 
L 542.714439 307.8 
L 543.869519 256.272843 
L 545.024599 275.595527 
L 546.179679 307.8 
L 548.48984 307.8 
L 549.64492 236.145048 
L 550.8 307.8 
L 551.95508 229.704153 
L 553.11016 307.8 
L 554.265241 248.221725 
L 555.420321 307.8 
L 556.575401 296.528435 
L 557.730481 307.8 
L 558.885561 307.8 
L 560.040642 287.672204 
L 561.195722 208.771246 
L 562.350802 154.023642 
L 563.505882 190.253674 
L 564.660963 220.847923 
L 565.816043 239.365495 
L 566.971123 215.212141 
L 568.126203 257.883067 
L 569.281283 162.879872 
L 570.436364 298.94377 
L 571.591444 226.483706 
L 572.746524 257.077955 
L 573.901604 229.704153 
L 575.056684 270.764856 
L 576.211765 200.720128 
L 577.366845 307.8 
L 578.521925 257.077955 
L 579.677005 257.883067 
L 580.832086 190.253674 
L 581.987166 139.531629 
L 583.142246 195.889457 
L 584.297326 178.176997 
L 585.452406 178.982109 
L 586.607487 170.93099 
L 587.762567 307.8 
L 588.917647 307.8 
L 590.072727 302.164217 
L 591.227807 302.164217 
L 592.382888 307.8 
L 593.537968 307.8 
L 594.693048 228.09393 
L 595.848128 195.084345 
L 597.003209 278.010863 
L 598.158289 273.985304 
L 599.313369 271.569968 
L 600.468449 245.001278 
L 601.623529 307.8 
L 602.77861 286.867093 
L 603.93369 208.771246 
L 605.08877 236.95016 
L 606.24385 253.857508 
L 607.39893 304.579553 
L 608.554011 307.8 
L 609.709091 279.621086 
L 610.864171 238.560383 
L 612.019251 307.8 
L 613.174332 294.113099 
L 614.329412 256.272843 
L 615.484492 123.429393 
L 616.639572 199.915016 
L 617.794652 180.592332 
L 618.949733 171.736102 
L 620.104813 229.704153 
L 621.259893 307.8 
L 622.414973 102.496486 
L 623.570053 256.272843 
L 624.725134 265.129073 
L 625.880214 190.253674 
L 627.035294 224.068371 
L 628.190374 282.841534 
L 629.345455 228.899042 
L 630.500535 218.432588 
L 631.655615 218.432588 
L 632.810695 260.298403 
L 633.965775 256.272843 
L 635.120856 307.8 
L 636.275936 307.8 
L 637.431016 200.720128 
L 638.586096 212.796805 
L 639.741176 265.129073 
L 640.896257 224.873482 
L 642.051337 221.653035 
L 643.206417 307.8 
L 644.361497 261.908626 
L 645.516578 286.867093 
L 646.671658 307.8 
L 647.826738 307.8 
L 648.981818 251.442173 
L 650.136898 293.307987 
L 651.291979 247.416613 
L 652.447059 259.493291 
L 653.602139 307.8 
L 654.757219 239.365495 
L 655.912299 307.8 
L 657.06738 229.704153 
L 658.22246 307.8 
L 659.37754 307.8 
L 660.53262 282.841534 
L 661.687701 284.451757 
L 662.842781 307.8 
L 663.997861 307.8 
L 665.152941 297.333546 
L 666.308021 307.8 
L 667.463102 241.780831 
L 668.618182 307.8 
L 669.773262 307.8 
L 672.083422 212.796805 
L 673.238503 91.22492 
L 674.393583 183.81278 
L 675.548663 218.432588 
L 676.703743 242.585942 
L 677.858824 219.2377 
L 679.013904 191.058786 
L 680.168984 286.867093 
L 681.324064 246.611502 
L 682.479144 163.684984 
L 683.634225 186.228115 
L 684.789305 301.359105 
L 685.944385 223.263259 
L 687.099465 264.323962 
L 688.254545 174.95655 
L 689.409626 257.883067 
L 690.564706 166.100319 
L 691.719786 161.269649 
L 692.874866 161.269649 
L 694.029947 178.982109 
L 695.185027 263.51885 
L 696.340107 284.451757 
L 697.495187 215.212141 
L 698.650267 260.298403 
L 699.805348 294.918211 
L 700.960428 249.026837 
L 702.115508 307.8 
L 703.270588 211.186581 
L 704.425668 307.8 
L 706.735829 307.8 
L 707.890909 300.553994 
L 709.045989 307.8 
L 710.20107 307.8 
L 711.35615 277.205751 
L 712.51123 253.052396 
L 713.66631 283.646645 
L 714.82139 307.8 
L 715.976471 285.256869 
L 717.131551 307.8 
L 718.286631 302.969329 
L 719.441711 277.205751 
L 720.596791 307.8 
L 722.906952 307.8 
L 724.062032 292.502875 
L 725.217112 307.8 
L 726.372193 273.985304 
L 727.527273 193.474121 
L 728.682353 276.400639 
L 729.837433 245.001278 
L 730.992513 269.959744 
L 732.147594 200.720128 
L 733.302674 147.582748 
L 734.457754 245.001278 
L 735.612834 251.442173 
L 736.767914 273.985304 
L 737.922995 141.141853 
L 739.078075 229.704153 
L 740.233155 193.474121 
L 741.388235 165.295208 
L 742.543316 141.141853 
L 743.698396 294.113099 
L 744.853476 274.790415 
L 746.008556 240.170607 
L 747.163636 183.81278 
L 747.163636 183.81278 
" clip-path="url(#pc5b57e2380)" style="fill: none; stroke: #191970; stroke-width: 2; stroke-linecap: square"/>
   </g>
   <g id="patch_3">
    <path d="M 108 320.4 
L 108 43.2 
" style="fill: none; stroke: #000000; stroke-width: 0.8; stroke-linejoin: miter; stroke-linecap: square"/>
   </g>
   <g id="patch_4">
    <path d="M 777.6 320.4 
L 777.6 43.2 
" style="fill: none; stroke: #000000; stroke-width: 0.8; stroke-linejoin: miter; stroke-linecap: square"/>
   </g>
   <g id="patch_5">
    <path d="M 108 320.4 
L 777.6 320.4 
" style="fill: none; stroke: #000000; stroke-width: 0.8; stroke-linejoin: miter; stroke-linecap: square"/>
   </g>
   <g id="patch_6">
    <path d="M 108 43.2 
L 777.6 43.2 
" style="fill: none; stroke: #000000; stroke-width: 0.8; stroke-linejoin: miter; stroke-linecap: square"/>
   </g>
   <g id="text_16">
    <!-- TIME SERIES -->
    <g transform="translate(405.350625 37.2) scale(0.12 -0.12)">
     <defs>
      <path id="DejaVuSans-52" d="M 2841 2188 
Q 3044 2119 3236 1894 
Q 3428 1669 3622 1275 
L 4263 0 
L 3584 0 
L 2988 1197 
Q 2756 1666 2539 1819 
Q 2322 1972 1947 1972 
L 1259 1972 
L 1259 0 
L 628 0 
L 628 4666 
L 2053 4666 
Q 2853 4666 3247 4331 
Q 3641 3997 3641 3322 
Q 3641 2881 3436 2590 
Q 3231 2300 2841 2188 
z
M 1259 4147 
L 1259 2491 
L 2053 2491 
Q 2509 2491 2742 2702 
Q 2975 2913 2975 3322 
Q 2975 3731 2742 3939 
Q 2509 4147 2053 4147 
L 1259 4147 
z
" transform="scale(0.015625)"/>
     </defs>
     <use xlink:href="#DejaVuSans-54"/>
     <use xlink:href="#DejaVuSans-49" x="61.083984"/>
     <use xlink:href="#DejaVuSans-4d" x="90.576172"/>
     <use xlink:href="#DejaVuSans-45" x="176.855469"/>
     <use xlink:href="#DejaVuSans-20" x="240.039062"/>
     <use xlink:href="#DejaVuSans-53" x="271.826172"/>
     <use xlink:href="#DejaVuSans-45" x="335.302734"/>
     <use xlink:href="#DejaVuSans-52" x="398.486328"/>
     <use xlink:href="#DejaVuSans-49" x="467.96875"/>
     <use xlink:href="#DejaVuSans-45" x="497.460938"/>
     <use xlink:href="#DejaVuSans-53" x="560.644531"/>
    </g>
   </g>
  </g>
 </g>
 <defs>
  <clipPath id="pc5b57e2380">
   <rect x="108" y="43.2" width="669.6" height="277.2"/>
  </clipPath>
 </defs>
</svg>
